<svg xmlns="http://www.w3.org/2000/svg">
  <symbol id="ioj-tooltip-dollar">
    <path d="M22.54,19.17V23a.45.45,0,0,1-.13.33.3.3,0,0,1,0,.08.49.49,0,0,1-.33.08h-4a.47.47,0,0,1-.5-.49.53.53,0,0,1,.5-.48h2.67c-6.23-5.58-6.23-5.59-6.23-5.59L9.84,20.46a.41.41,0,0,1-.58,0l-9-7.77A.42.42,0,0,1,.21,12,.53.53,0,0,1,1,12l8.64,7.53,4.65-3.64a.51.51,0,0,1,.66,0l6.64,6V19.17c0-.32.17-.48.5-.48A.47.47,0,0,1,22.54,19.17ZM7.63,15.27a.79.79,0,0,0,.42-.08A.51.51,0,0,0,8,14.46a7.84,7.84,0,0,1-2.32-5.6,8,8,0,0,1,15.91,0,7.66,7.66,0,0,1-2.32,5.52.45.45,0,0,0,0,.73.51.51,0,0,0,.66,0,9,9,0,0,0,2.65-6.25,8.95,8.95,0,0,0-17.89,0A8.67,8.67,0,0,0,7.3,15.19.51.51,0,0,0,7.63,15.27Zm6-9.16h0a1.12,1.12,0,0,1,1.16,1.13.5.5,0,0,0,1,0,2.15,2.15,0,0,0-1.68-2V4.48A.52.52,0,0,0,13.59,4a.46.46,0,0,0-.48.48v.71a2.16,2.16,0,0,0-1.74,2.05,2.14,2.14,0,0,0,2.24,2.11,1.18,1.18,0,0,1,1.16,1.21,1.13,1.13,0,0,1-1.16,1.14h0a1.18,1.18,0,0,1-1.22-1.13.47.47,0,0,0-.5-.48.53.53,0,0,0-.5.48,2.16,2.16,0,0,0,1.74,2v.71a.47.47,0,0,0,.48.49.53.53,0,0,0,.49-.49v-.71a2.15,2.15,0,0,0,1.68-2,2.19,2.19,0,0,0-2.15-2.19,1.19,1.19,0,0,1-1.24-1.13A1.18,1.18,0,0,1,13.59,6.11Z" fill="#fff" stroke="#fff" stroke-miterlimit="10" stroke-width="0.18" fill-rule="evenodd"/>
  </symbol>
  <symbol id="ioj-tooltip-check">
    <path d="M1.34,14.37l6.94,7,17-17-3.14-3L8.74,14.74a.53.53,0,0,1-.83,0L4.39,11.32Zm6.94,8.31a.37.37,0,0,1-.37-.18L.14,14.74a.55.55,0,0,1,0-.74L4,10.12a.69.69,0,0,1,.84,0l3.42,3.51L21.78.14a.68.68,0,0,1,.83,0L26.49,4a.55.55,0,0,1,0,.74L8.74,22.5C8.65,22.68,8.46,22.68,8.28,22.68Z" fill="#fff" fill-rule="evenodd"/>
  </symbol>
  <symbol id="ioj-tooltip-smiley">
    <path d="M12.11,1a11.08,11.08,0,1,0,0,22.15A11.19,11.19,0,0,0,23.22,12.08,11.13,11.13,0,0,0,12.11,1Zm0,23.16A12.09,12.09,0,1,1,24.23,12.08,12.1,12.1,0,0,1,12.11,24.17ZM5.05,14.09c.25,3.28,3.45,6.06,7.06,6.06a7,7,0,0,0,7-6.06Zm7.06,7.07C7.74,21.16,4,17.62,4,13.58a.44.44,0,0,1,.5-.5H19.68a.48.48,0,0,1,.51.5C20.19,17.62,16.49,21.16,12.11,21.16ZM7.59,6.53a1,1,0,0,0-1,1,1,1,0,0,0,1,1,1.08,1.08,0,0,0,1-1A1,1,0,0,0,7.59,6.53Zm9,0a1,1,0,0,0-1,1,1,1,0,0,0,1,1,1.08,1.08,0,0,0,1-1A1,1,0,0,0,16.63,6.53Z" fill="#fff" fill-rule="evenodd"/>
  </symbol>
  <symbol id="ioj-tooltip-badge">
    <path d="M10.91,16a.63.63,0,0,1,.43.17l1,1.21,1-1.21A.67.67,0,0,1,14,16l1.39.7.52-1.48a.38.38,0,0,1,.52-.34L18,15l-.17-1.56a.54.54,0,0,1,.43-.52l1.48-.52L19.06,11a.41.41,0,0,1,.09-.61l1.21-1-1.21-1c-.18-.18-.26-.44-.09-.61l.7-1.47-1.48-.44a.62.62,0,0,1-.43-.52L18,3.66l-1.56.17c-.26,0-.52-.17-.52-.34l-.52-1.56L14,2.71a.67.67,0,0,1-.69-.18l-1-1.21-1,1.21a.67.67,0,0,1-.69.18L9.26,1.93,8.83,3.49a.74.74,0,0,1-.61.34L6.66,3.66,6.83,5.3a.68.68,0,0,1-.35.52l-1.56.44L5.7,7.73a.58.58,0,0,1-.17.61l-1.21,1,1.21,1A.5.5,0,0,1,5.7,11l-.78,1.39,1.56.52a.57.57,0,0,1,.35.52L6.66,15l1.56-.09a.5.5,0,0,1,.61.34l.43,1.48,1.39-.7A.33.33,0,0,1,10.91,16Zm1.47,2.77a.7.7,0,0,1-.43-.17l-1.13-1.39L9.17,18c-.08.09-.26.09-.43.09s-.26-.18-.26-.35L8,16l-1.82.17C6,16.13,5.88,16,5.7,16a.4.4,0,0,1-.08-.44l.08-1.73-1.64-.52a.65.65,0,0,1-.35-.34.39.39,0,0,1,0-.44l.87-1.56L3.19,9.72C3,9.64,3,9.55,3,9.38s0-.35.18-.44L4.58,7.82,3.71,6.26a.53.53,0,0,1,0-.52,1,1,0,0,1,.35-.26L5.7,5,5.62,3.14c-.09-.17,0-.26.08-.43a.78.78,0,0,1,.44-.09L8,2.79l.52-1.73c0-.17.17-.26.26-.35a.41.41,0,0,1,.43,0l1.65.87L12,.19a.5.5,0,0,1,.78,0l1.21,1.39L15.51.71a.41.41,0,0,1,.43,0c.17.09.26.18.26.35l.61,1.73,1.73-.17c.17,0,.35,0,.43.09s.18.26.18.43L19,5l1.74.52c.09.08.26.17.26.26a.53.53,0,0,1,0,.52l-.78,1.56,1.3,1.12a.49.49,0,0,1,.26.44c0,.17-.09.26-.26.34l-1.3,1.21L21,12.49a.39.39,0,0,1,0,.44c0,.17-.17.26-.26.34L19,13.79l.18,1.73A.66.66,0,0,1,19,16a.68.68,0,0,1-.43.17L16.81,16l-.61,1.73c0,.17-.09.26-.26.35s-.35,0-.43-.09l-1.57-.78-1.21,1.39A.71.71,0,0,1,12.38,18.73Zm0-8.25c.08,0,.17.09.26.09l2,1.21L14,9.44A.4.4,0,0,1,14,9l1.73-1.73H14A.74.74,0,0,1,13.44,7l-1-1.91L11.27,7a.49.49,0,0,1-.43.26H8.93L10.66,9a.38.38,0,0,1,.09.44l-.61,2.34,1.91-1.21C12.14,10.57,12.31,10.48,12.4,10.48Zm3.11,3c-.08,0-.26-.09-.34-.09L12.4,11.61,9.54,13.43a.72.72,0,0,1-.61,0,.54.54,0,0,1-.17-.61l1-3.29L7.29,7.1a.7.7,0,0,1-.09-.61.52.52,0,0,1,.52-.26h2.77l1.39-2.35a.74.74,0,0,1,.52-.26.49.49,0,0,1,.43.26l1.39,2.35h2.85a.47.47,0,0,1,.44.26.54.54,0,0,1-.09.61L15,9.53,16,12.82a.54.54,0,0,1-.18.61C15.69,13.43,15.6,13.52,15.51,13.52ZM18.69,25a.47.47,0,0,1-.43-.26l-2.77-4.68,1-.53,2.17,3.74,1-2.78c.08-.26.35-.43.52-.35l2.95.52-2.95-5.21.87-.52,3.55,6.17a.53.53,0,0,1,0,.52c-.17.17-.35.26-.52.17l-3.64-.61-1.22,3.48a.56.56,0,0,1-.43.34ZM6,25H5.87a.58.58,0,0,1-.44-.34L4.22,21.17l-3.56.61a.39.39,0,0,1-.52-.17.41.41,0,0,1-.08-.52l3.55-6.17.87.52L1.53,20.65l3-.52c.26-.08.43.09.52.35l1,2.78L8.3,19.52l.86.53L6.39,24.73A.47.47,0,0,1,6,25Z" fill="#fff" fill-rule="evenodd"/>
  </symbol>
  <symbol id="ioj-tooltip-gear">
    <path d="M12.79,22.75H10a.51.51,0,0,1-.47-.47V19.52a9,9,0,0,1-2.21-.71l-2,1.89a.37.37,0,0,1-.63,0L2,18.1c-.07-.16-.15-.23-.15-.39A.67.67,0,0,1,2,17.39l1.9-1.89c-.24-.63-.47-1.5-.71-2.2H.47A.52.52,0,0,1,0,12.82V10a.46.46,0,0,1,.47-.48H3.16c.24-.78.47-1.57.71-2.2L2,5.34a.41.41,0,0,1,0-.63L4.66,2a.47.47,0,0,1,.63,0l2,1.89a9,9,0,0,1,2.21-.71V.53A.45.45,0,0,1,10,.06h2.84a.46.46,0,0,1,.48.47V3.21a10.58,10.58,0,0,1,2.53,1,.41.41,0,0,1,.15.63.49.49,0,0,1-.63.15A11.69,11.69,0,0,0,12.64,4c-.16,0-.32-.24-.32-.4V1H10.43V3.6A.43.43,0,0,1,10,4a12.77,12.77,0,0,0-2.61.94.49.49,0,0,1-.55-.07L5,3.05,3,5,4.82,6.83a.6.6,0,0,1,.08.64A9.68,9.68,0,0,0,4,10.07a.51.51,0,0,1-.48.39H1v1.89h2.6a.54.54,0,0,1,.48.32,10.2,10.2,0,0,0,.87,2.67.49.49,0,0,1-.08.56L3,17.71l2,2.05,1.89-1.89c.08-.16.4-.16.55,0a17.47,17.47,0,0,0,2.61.86.51.51,0,0,1,.4.48v2.6h1.89v-2.6a.54.54,0,0,1,.32-.48,15.5,15.5,0,0,0,2.68-.86.38.38,0,0,1,.55,0l1.82,1.89,2-2.05L17.93,15.9a.4.4,0,0,1-.08-.56,15.25,15.25,0,0,0,.87-2.67.53.53,0,0,1,.47-.32H21.8V10.46H19.19a.5.5,0,0,1-.47-.39,6.85,6.85,0,0,0-.48-1.58.49.49,0,0,1,.32-.63.54.54,0,0,1,.63.31c.16.4.24.87.4,1.34h2.68a.46.46,0,0,1,.48.48v2.83a.52.52,0,0,1-.48.48H19.59a20.35,20.35,0,0,1-.79,2.2l2,1.89a.58.58,0,0,1,0,.71l-2.68,2.6a.44.44,0,0,1-.71,0l-1.9-1.89a10.19,10.19,0,0,1-2.21.71v2.76A.52.52,0,0,1,12.79,22.75ZM12,13.91,22.64.74a.48.48,0,0,0-.08-.63.5.5,0,0,0-.71.08L11.6,12.89,7.74,9a.47.47,0,0,0-.63,0,.44.44,0,0,0,0,.71l4.18,4.18c.08.16.23.16.39.16A.42.42,0,0,0,12,13.91Z" fill="#fff" fill-rule="evenodd"/>
  </symbol>
  <symbol id="ioj-tooltip-tag">
    <path d="M28,0H12.67a2.49,2.49,0,0,0-1.94.92L6.37,6.22a2.81,2.81,0,0,0-.59,1.29H5.51a1.88,1.88,0,0,0-1.46,3.06l.73.91a.87.87,0,0,1-.67,1.41H0c.1.34.2.68.33,1H4.11a1.88,1.88,0,0,0,1.46-3.05l-.73-.92A.82.82,0,0,1,4.74,9a.84.84,0,0,1,.77-.49h.27a2.8,2.8,0,0,0,.59,1.27l4.36,5.31a2.52,2.52,0,0,0,1.94.92H28a.51.51,0,0,0,.51-.51V.51A.51.51,0,0,0,28,0Zm-.51,15H12.67a1.48,1.48,0,0,1-1.15-.55L7.16,9.15a1.57,1.57,0,0,1-.32-.63H8.06A1,1,0,0,0,9,9.09,1.07,1.07,0,1,0,9,7a1,1,0,0,0-.92.56H6.83a1.78,1.78,0,0,1,.33-.64l4.36-5.31A1.5,1.5,0,0,1,12.67,1H27.46Z" fill="#fff"/><path d="M16.74,11.2a.51.51,0,0,0,0,1h2.71v1.37a.51.51,0,1,0,1,0V12.22h.91a2.32,2.32,0,0,0,2.31-2.31V9.75a2.32,2.32,0,0,0-2.31-2.32h-.91V4.84h2.4a.51.51,0,0,0,0-1h-2.4V2.76a.51.51,0,0,0-1,0V3.82H18.6a2.32,2.32,0,0,0,0,4.63h.85V11.2ZM18.6,7.43a1.3,1.3,0,1,1,0-2.59h.85V7.43Zm1.87,1h.91a1.3,1.3,0,0,1,1.3,1.3v.16a1.3,1.3,0,0,1-1.3,1.29h-.91Z" fill="#fff"/><path d="M11.71,7.94a.51.51,0,0,0,.51.51H15a.51.51,0,1,0,0-1H12.22A.51.51,0,0,0,11.71,7.94Z" fill="#fff"/>
  </symbol>
  <symbol id="ioj-tooltip-graph">
    <polyline points="24.97 18.55 0.55 18.55 0.55 0.55" fill="none" stroke="#fff" stroke-linecap="round" stroke-linejoin="round" stroke-width="1.1"/><rect x="10.48" y="9.09" width="4.56" height="9.46" fill="none" stroke="#fff" stroke-linecap="round" stroke-linejoin="round" stroke-width="1.1"/><rect x="3.74" y="5.53" width="4.56" height="13.01" fill="none" stroke="#fff" stroke-linecap="round" stroke-linejoin="round" stroke-width="1.1"/><rect x="17.22" y="12.43" width="4.56" height="6.12" transform="translate(38.99 30.97) rotate(-180)" fill="none" stroke="#fff" stroke-linecap="round" stroke-linejoin="round" stroke-width="1.1"/><line x1="7.96" y1="0.81" x2="23.8" y2="8.91" fill="none" stroke="#fff" stroke-linecap="round" stroke-linejoin="round" stroke-width="1.1"/><polyline points="22.89 5.85 23.8 8.91 20.73 9.81" fill="none" stroke="#fff" stroke-linecap="round" stroke-linejoin="round" stroke-width="1.1"/>
  </symbol>
  <symbol id="ioj-tooltip-thumb">
    <path d="M25.44,9.87a2.14,2.14,0,0,0-2.12-2.11H15.64c.44-1.24,1.15-3.7.79-5.2C15.81.45,14.67-.08,13.69,0A1.92,1.92,0,0,0,12.19,2c0,3.65-3.53,7.75-5.81,8.36V9.39a.51.51,0,0,0-.54-.53H.53A.51.51,0,0,0,0,9.39V22a.57.57,0,0,0,.53.52H5.84A.57.57,0,0,0,6.38,22V20.52c1.07.14,1.87.29,2.54.44a19.08,19.08,0,0,0,4.33.53h6.89c1.41,0,2.12-.53,2.12-1.59a2.93,2.93,0,0,0-.35-1.23,2.09,2.09,0,0,0,1.41-1.93A3,3,0,0,0,23,15.5a2.09,2.09,0,0,0,1.41-1.93,2.17,2.17,0,0,0-.44-1.24A2.92,2.92,0,0,0,25.44,9.87ZM1.06,21.51V9.91H5.31v1a.43.43,0,0,0,0,0v9s0,0,0,.06v1.55ZM23.32,11.45H22.26a.51.51,0,0,0-.53.53.57.57,0,0,0,.53.53,1.07,1.07,0,0,1,1.06,1.06,1.14,1.14,0,0,1-1.06,1H21.2a.51.51,0,0,0-.53.53.57.57,0,0,0,.53.53,1.07,1.07,0,0,1,1.06,1.06,1.14,1.14,0,0,1-1.06,1.05H20.14a.51.51,0,0,0-.53.53.58.58,0,0,0,.53.53,1.07,1.07,0,0,1,1.06,1c0,.27,0,.53-1.06.53H13.25a13.11,13.11,0,0,1-4.06-.53c-.79-.08-1.67-.26-2.81-.43V11.36c2.91-.54,6.87-5.28,6.87-9.41a.87.87,0,0,1,.62-.88c.44-.09,1.15.44,1.5,1.76S14.75,7.05,14.31,8a1.1,1.1,0,0,0,.09.53.5.5,0,0,0,.44.26h8.48a1.07,1.07,0,0,1,1.06,1.06C24.38,10.49,23.85,11.45,23.32,11.45ZM4.23,19.94a.53.53,0,0,1-.51.54.54.54,0,0,1,0-1.08A.53.53,0,0,1,4.23,19.94Z" fill="#fff"/>
  </symbol>
  <symbol id="ioj-tooltip-future">
    <path d="M31.66,12.28A2.67,2.67,0,0,0,29,9.65H19.46c.55-1.53,1.43-4.6,1-6.46C19.68.56,18.25-.1,17,0a2.38,2.38,0,0,0-1.87,2.41c0,4.55-4.4,9.66-7.24,10.41V11.68A.63.63,0,0,0,7.27,11H.66a.63.63,0,0,0-.66.66V27.42a.71.71,0,0,0,.66.66H7.27a.71.71,0,0,0,.66-.66V25.53c1.35.19,2.34.37,3.18.56a23.91,23.91,0,0,0,5.38.66h8.58q2.64,0,2.64-2a3.58,3.58,0,0,0-.44-1.53A2.61,2.61,0,0,0,29,20.83a3.5,3.5,0,0,0-.44-1.53,2.5,2.5,0,0,0,1.2-4A3.64,3.64,0,0,0,31.66,12.28ZM1.32,26.77V12.34H6.61v1.19s0,0,0,.07V24.77s0,.05,0,.07v1.93ZM29,14.25H27.71a.63.63,0,0,0-.66.66.71.71,0,0,0,.66.66A1.34,1.34,0,0,1,29,16.88a1.42,1.42,0,0,1-1.32,1.32H26.39a.63.63,0,0,0-.66.66.7.7,0,0,0,.66.65,1.34,1.34,0,0,1,1.32,1.32,1.41,1.41,0,0,1-1.32,1.31H25.07a.63.63,0,0,0-.66.66.71.71,0,0,0,.66.66,1.34,1.34,0,0,1,1.32,1.31c0,.33,0,.66-1.32.66H16.49a16.54,16.54,0,0,1-5-.66c-1-.11-2.08-.32-3.51-.54V14.14c3.63-.67,8.56-6.58,8.56-11.72a1.08,1.08,0,0,1,.77-1.09c.55-.11,1.43.54,1.87,2.19S18.36,8.78,17.81,10a1.4,1.4,0,0,0,.11.66.6.6,0,0,0,.55.33H29a1.33,1.33,0,0,1,1.31,1.31C30.34,13.05,29.69,14.25,29,14.25ZM5.26,24.82a.63.63,0,1,1-1.26,0,.66.66,0,0,1,.63-.67A.65.65,0,0,1,5.26,24.82Z" fill="#fff"/>
  </symbol>
  <symbol id="ioj-tooltip-person">
    <path d="M22.32,9.13c0-5-3.59-9.13-7.91-9.13S6.5,4.09,6.5,9.13a9.53,9.53,0,0,0,3.59,7.61V20L3.36,22.29A4.93,4.93,0,0,0,0,27v3.27a.68.68,0,0,0,.72.7H18v-1.4H1.44V27a3.67,3.67,0,0,1,2.4-3.39l7.21-2.46a.64.64,0,0,0,.48-.7V17.61a6.92,6.92,0,0,0,2.88.64,6.79,6.79,0,0,0,2.82-.62v2.74h1.49V16.75A9.53,9.53,0,0,0,22.32,9.13ZM14.41,1.4c3.19,0,5.8,2.76,6.36,6.32h0c-2,.47-3.35-.24-4.67-2.35a.68.68,0,0,0-1.2,0C14.15,6.66,12,7.72,10.08,7.72a4.49,4.49,0,0,1-2-.36C8.79,4,11.34,1.4,14.41,1.4ZM7.94,9.13c0-.11,0-.22,0-.33a7.34,7.34,0,0,0,2.13.33A8.2,8.2,0,0,0,15.47,7a4.91,4.91,0,0,0,4.19,2.23,5.58,5.58,0,0,0,1.23-.1c0,4.32-2.89,7.71-6.48,7.71S7.94,13.45,7.94,9.13Zm23.72,11a4.61,4.61,0,0,0-4.32,2.12,4.34,4.34,0,0,0-4.21-2.12c-1.44.24-3,1.41-3,4.11,0,5.64,6.61,9.29,6.85,9.4a.6.6,0,0,0,.72,0c.24-.11,6.84-3.76,6.84-9.75C34.54,21.89,33.46,20.37,31.66,20.13Zm-4.32,12.1c-1.32-.82-5.77-3.87-5.77-8,0-1.52.72-2.58,1.8-2.7h.24c1.21,0,2.41.82,3.13,2.59,0,.35.36.47.6.47a.66.66,0,0,0,.72-.47c.72-2,2.28-2.82,3.36-2.71a2.28,2.28,0,0,1,1.68,2.47C33.1,28.36,28.66,31.41,27.34,32.23Z" fill="#fff" fill-rule="evenodd"/>
  </symbol>
  <symbol id="ioj-tooltip-star">
    <path d="M19.49,25.38H17l-.05-.05a7.4,7.4,0,0,0-5.8-2.77H7v-.71a.75.75,0,0,0-.69-.7H.7a.67.67,0,0,0-.7.7v9.73a.67.67,0,0,0,.7.7H6.28a.75.75,0,0,0,.69-.7v-.71h23a.74.74,0,0,0,.69-.69C30.63,27.33,24.71,25.38,19.49,25.38ZM1.39,30.89V22.54H5.58v7.55a.21.21,0,0,0,0,.18v.62ZM7,29.5V24h4.16A5.86,5.86,0,0,1,15,25.38H9.74a.67.67,0,0,0-.7.69.67.67,0,0,0,.7.68h9.75c4.64,0,8.36,1.49,9.4,2.75ZM31.62,10,24.9,15.53l2.89,8.93a.76.76,0,0,1-.23.81c-.12,0-.35.11-.46.11s-.23-.11-.35-.11l-7.3-5.33L16.9,21.79l-.81-1.16L19,18.55a.56.56,0,0,1,.82,0l6,4.28-2.43-7.3a.71.71,0,0,1,.23-.81l5.68-4.64H22.46c-.23,0-.58-.11-.58-.46L19.45,2.78,17,9.62a.62.62,0,0,1-.69.46H9.48l5.8,4.64a1,1,0,0,1,.11.81L14,19.94l-1.39-.35L14,15.53,7.16,10a.73.73,0,0,1-.23-.81.78.78,0,0,1,.7-.47h8.23L18.75.46a.65.65,0,0,1,.7-.46A.6.6,0,0,1,20,.46l2.9,8.23h8.34a.77.77,0,0,1,.58.47A.73.73,0,0,1,31.62,10Z" fill="#fff" fill-rule="evenodd"/>
  </symbol>
  <symbol id="ioj-talent-icon">
    <path d="M1.63,24.09a2.85,2.85,0,0,1,2-2.77L10,19.08a.89.89,0,0,0,.54-.79V16.14a6.5,6.5,0,0,0,2.25.4A6.26,6.26,0,0,0,15.39,16v2.31a.73.73,0,0,0,.54.79l6.36,2.24.54-1.58-5.81-2V15A8.8,8.8,0,0,0,20,8.2C20,3.71,16.74,0,12.81,0S5.49,3.71,5.49,8.2a8.61,8.61,0,0,0,3.45,7.09v2.47l-5.83,2A4.57,4.57,0,0,0,0,24.09v2.37a.87.87,0,0,0,.81.79H17.87V25.67H1.63ZM12.81,1.59c2.63,0,4.94,2.26,5.45,5.34-1.69.22-2.76-.32-3.82-2.11a1.12,1.12,0,0,0-.68-.4A.89.89,0,0,0,13,5a5.47,5.47,0,0,1-4.08,2,4.23,4.23,0,0,1-1.58-.33,5.92,5.92,0,0,1,5.52-5M7.11,8.23a6.13,6.13,0,0,0,1.76.26,7.26,7.26,0,0,0,4.76-1.84,4.6,4.6,0,0,0,3.8,1.84h.92C18.22,12.07,15.71,15,12.81,15c-3.11,0-5.69-3-5.7-6.73m21.78.26H28c-1.89,0-3.24-.92-4.32-2.89a.7.7,0,0,1,.27-1A1.06,1.06,0,0,1,25,4.82C26,6.62,27.1,7.15,28.8,6.93,28.29,3.85,26,1.59,23.37,1.59a.77.77,0,0,1-.81-.8A.71.71,0,0,1,23.37,0C27,0,30.12,3.26,30.49,7.37l0,.07a1.11,1.11,0,0,1,0,.19c0,.19,0,.38,0,.57a8.81,8.81,0,0,1-2.92,6.71v1.81a.84.84,0,0,1-1.68,0V16a6.13,6.13,0,0,1-2.55.56.71.71,0,0,1-.81-.79.77.77,0,0,1,.81-.79c2.89,0,5.39-2.89,5.52-6.47m9.9,17c0-.4-.4-.53-.67-.53H33l-2.3-5.15c0-.26-.4-.4-.67-.4a1,1,0,0,0-.81.4L27,24.92H21.91a.74.74,0,0,0-.81.53.63.63,0,0,0,.27.79l4.46,3.7-2.3,5.81a.87.87,0,0,0,.27.92,1.21,1.21,0,0,0,.95,0L30,33l5.13,3.7c.13,0,.4.13.54.13s.27-.13.4-.13a.67.67,0,0,0,.27-.92L34.2,29.94l4.46-3.7c.27-.13.27-.53.13-.79M32.72,29a.81.81,0,0,0-.27.93l1.48,3.83-3.51-2.38a.5.5,0,0,0-.4-.13.86.86,0,0,0-.55.13L26,33.77l1.49-3.83a.79.79,0,0,0-.14-.93L24.07,26.5h3.51a.89.89,0,0,0,.68-.52L30,22.15,31.64,26a.9.9,0,0,0,.81.52h3.37Z" fill-rule="evenodd"/>
  </symbol>
  <symbol id="ioj-tech-icon">
    <path d="M36.1,18.06a10.21,10.21,0,0,0-.92-4.32c-.06-.13-.12-.26-.2-.4a4.23,4.23,0,0,0-.23-.41l0,0-.09-.14-.12-.19-.06-.09-.19-.28L34.12,12c-.19-.24-.39-.48-.59-.69l-.08-.08-.09-.09-.33-.3-.16-.15A9.67,9.67,0,0,0,32,10l-.38-.23h0l-.05,0-.34-.18a9.38,9.38,0,0,0-3.72-1A9.51,9.51,0,0,0,24.7,2.74,9.36,9.36,0,0,0,18.06,0a10.21,10.21,0,0,0-4.32.92l-.41.2-.4.23,0,0-.15.09-.15.09-.21.15-.2.14L12,2c-.24.19-.48.39-.7.6l-.16.17a3,3,0,0,0-.3.32l-.15.17c-.23.28-.45.58-.66.89l-.24.39,0,.05-.18.34a9.34,9.34,0,0,0-1,3.72,9.54,9.54,0,0,0-5.86,2.78A9.4,9.4,0,0,0,.17,16.36,10.41,10.41,0,0,0,0,18.2a9.6,9.6,0,0,0,.74,3.71,9.17,9.17,0,0,0,7.89,5.6,9.59,9.59,0,0,0,2.78,5.86,9.39,9.39,0,0,0,4.95,2.56,9.84,9.84,0,0,0,5.54-.56,9.17,9.17,0,0,0,5.61-7.89,9.56,9.56,0,0,0,5.85-2.78A9.36,9.36,0,0,0,36.1,18.06ZM10.82,5.53l.16-.3,0,0c.07-.12.13-.22.2-.32a6.88,6.88,0,0,1,.55-.75L11.87,4l.25-.27.14-.14a5.57,5.57,0,0,1,.59-.5L13,3l.17-.12.19-.13.11-.07a.57.57,0,0,0,.13-.08h0L14,2.35c.12-.07.24-.12.34-.17a8.81,8.81,0,0,1,3.74-.8,8,8,0,0,1,5.67,2.35,7.91,7.91,0,0,1,1.73,2.53,8.5,8.5,0,0,1,.63,2.35,10.73,10.73,0,0,0-4.91,1.63,3.68,3.68,0,0,0,.06-.66,3.19,3.19,0,0,0-3.18-3.17,3.31,3.31,0,0,0-2.3.86h0l-.06.05-.24.28a.35.35,0,0,0-.06.09l-.24.4L15,8.55s0,.1,0,.17v.06l0,.13V9a.53.53,0,0,0,0,.12.34.34,0,0,0,0,.09,2,2,0,0,0,0,.24v.21l.06.53c0,.07,0,.15.05.23l0,.09,0,.1.08.25a4.32,4.32,0,0,0,.19.45,8,8,0,0,0,.89,1.42,5.47,5.47,0,0,0-3.37,3.4L12.73,16l0-.05A10,10,0,0,1,10,9.25,8.17,8.17,0,0,1,10.82,5.53Zm9,21.33,0,.14v.05s0,.07,0,.11v0a1.36,1.36,0,0,1-.36.63l0,0,0,0-.06,0-.1.08-.1.07-.08,0-.06,0a2.26,2.26,0,0,1-.92.19,1.81,1.81,0,0,1-1.81-1.79,2.4,2.4,0,0,1,.21-1L17,24.32c.33-.28.68-.6,1.05-.95l.19.21.22.26c.14.16.26.31.36.44l0,0a.76.76,0,0,0,.08.11l0,0,.23.33,0,.07c.07.12.14.23.2.35l0,.08a1.24,1.24,0,0,1,.1.2c0,.09.07.18.1.26v0a2.77,2.77,0,0,1,.15.68v.38Zm-10.73-7h0l-.06,0H8.92a1.47,1.47,0,0,1-.63-.36l0,0,0-.06,0,0-.08-.1-.06-.1L8,19,8,19a2.1,2.1,0,0,1-.19-.92,1.8,1.8,0,0,1,1.79-1.81,2.48,2.48,0,0,1,.95.21l1.21.51.1.12.07.08.18.2.09.1.15.17.13.14,0,0,0,0h0c0,.11,0,.23,0,.34l0,0-.26.22c-.16.14-.3.26-.44.36l-.05,0-.12.09-.35.24-.07,0-.35.2-.07,0-.21.1-.26.1,0,0a3.2,3.2,0,0,1-.67.14H9.12Zm7.45-9.14c-.05-.11-.1-.21-.15-.34l-.09-.3,0-.14-.05-.48a.71.71,0,0,1,0-.14V9.25s0-.05,0-.07l0-.18V9l.08-.22.16-.28.16-.18a1.91,1.91,0,0,1,1.35-.47,1.79,1.79,0,0,1,1.8,1.78,2.54,2.54,0,0,1-.28,1.12L19,11.87l-.61.55-.35,0-.26,0A7.55,7.55,0,0,1,16.57,10.7ZM18,15a2.84,2.84,0,1,1-2.84,2.84A2.84,2.84,0,0,1,18,15ZM2,21.37a8.15,8.15,0,0,1-.63-3.17,8.45,8.45,0,0,1,.15-1.58,8.1,8.1,0,0,1,2.19-4.24A8.21,8.21,0,0,1,8.61,10a10.73,10.73,0,0,0,1.64,4.91,3.11,3.11,0,0,0-.67-.07,3.18,3.18,0,0,0-3.17,3.19,3.57,3.57,0,0,0,.31,1.5l.07.13.07.14L7,20a1.39,1.39,0,0,0,.15.19l0,.06.11.13,0,0a2.93,2.93,0,0,0,1.2.71h0l.14,0h.07l.15,0H9l.14,0h.63a4.16,4.16,0,0,0,1-.22h0a2.75,2.75,0,0,0,.36-.15l.28-.13.09,0a3.62,3.62,0,0,0,.43-.24l.08-.05.42-.29.14-.1.05,0,.24-.19a5.47,5.47,0,0,0,3.45,3.32l-.39.34a10.92,10.92,0,0,1-5,2.58,13.65,13.65,0,0,1-1.78.15A7.81,7.81,0,0,1,2,21.37ZM21.37,34.09a8.26,8.26,0,0,1-4.75.48,8.09,8.09,0,0,1-4.24-2.18A8.27,8.27,0,0,1,10,27.5c.6-.05,1.09-.14,1.13-.14a11.28,11.28,0,0,0,3.78-1.5,3,3,0,0,0-.07.67,3.18,3.18,0,0,0,3.19,3.17,3.57,3.57,0,0,0,1.5-.32l.13-.06.14-.08.16-.1.2-.15,0,0h0l.12-.11,0,0a2.8,2.8,0,0,0,.7-1.2v0s.05-.2.06-.21,0-.1,0-.15l0-.1s0-.08,0-.13v-.62a4.16,4.16,0,0,0-.22-1v0a7.15,7.15,0,0,0-.28-.65l0-.09c-.07-.14-.15-.28-.25-.44l0-.06c-.09-.14-.18-.28-.29-.43h0L20,23.5l0-.05c-.09-.11-.18-.23-.29-.35a5.51,5.51,0,0,0,3.47-3.28c.06.07.13.14.19.22A11,11,0,0,1,26,25.2c0,.14.1.56.11.81l0,.2c0,.21,0,.34,0,.54V27A7.79,7.79,0,0,1,21.37,34.09Zm5.09-17.88v.05h.45l.45.12.29.16.14.13h0l0,0a1.92,1.92,0,0,1,.48,1.35,1.8,1.8,0,0,1-1.79,1.8,2.57,2.57,0,0,1-1.12-.28L24.27,19c-.24-.28-.5-.58-.79-.89,0-.07,0-.14,0-.21a8,8,0,0,1,1.91-1.36l.34-.15.3-.09.16,0,.22,0Zm1,9.88v-.17a9.22,9.22,0,0,0-.13-1,10.87,10.87,0,0,0-1.5-3.77,3.68,3.68,0,0,0,.66.06,3.18,3.18,0,0,0,3.17-3.18,3.33,3.33,0,0,0-.86-2.31h0l0,0-.27-.24L28,15.18l-.5-.19-.15,0h-.06l-.14,0h-.07l-.14,0h-.4l-.65.07-.24.06H25.6l-.11,0-.13,0-.1,0a3,3,0,0,0-.45.19,8,8,0,0,0-1.55,1A5.49,5.49,0,0,0,20,12.79h0A10.17,10.17,0,0,1,26.85,10a8.17,8.17,0,0,1,3.72.86l.32.17,0,0,.31.19a8,8,0,0,1,.75.55l.13.12a3.45,3.45,0,0,1,.28.26l.13.13a7.19,7.19,0,0,1,.51.59l.12.16.41.63.2.34.17.34a9,9,0,0,1,.79,3.74,8,8,0,0,1-2.34,5.67A8.25,8.25,0,0,1,27.5,26.09Z" />
  </symbol>
  <symbol id="ioj-data-icon">
    <path d="M36.28,35.46l-4.46-4.2A7,7,0,0,0,33.26,27a6.8,6.8,0,1,0-6.8,6.94,6.69,6.69,0,0,0,4.42-1.66l4.27,4.35.38.39c.38,0,.61,0,.75-.3a.88.88,0,0,0,0-1.24m-9.82-3.09A5.74,5.74,0,0,1,21.17,27a5.47,5.47,0,0,1,5.29-5.4A5.23,5.23,0,0,1,31.75,27a5.46,5.46,0,0,1-5.29,5.39M11.33,29.29h3a.82.82,0,0,0,.75-.77V25.44a.82.82,0,0,0-.75-.77h-3a.82.82,0,0,0-.75.77v3.08a.82.82,0,0,0,.75.77m.76-3.08H13.6v1.54H12.09Zm-3-.77v3.08a.82.82,0,0,1-.76.77.81.81,0,0,1-.75-.77V25.44a.81.81,0,0,1,.75-.77.82.82,0,0,1,.76.77M24.18,14.65a.76.76,0,1,0,1.51,0V7.71L18.13,0H.76A.83.83,0,0,0,0,.77V33.15a.83.83,0,0,0,.76.77H15.87a.78.78,0,0,0,0-1.55H1.51V1.54H16.62V8.48a.83.83,0,0,0,.76.77h6.8ZM18.13,7.71V2.31L23,7.71Zm-12.84,17a.82.82,0,0,1,.76.77v3.08a.82.82,0,0,1-.76.77.82.82,0,0,1-.76-.77V25.44a.82.82,0,0,1,.76-.77m3.78-6.94A.82.82,0,0,0,8.31,17h-3a.82.82,0,0,0-.76.77v3.08a.82.82,0,0,0,.76.77h3a.82.82,0,0,0,.76-.77ZM7.56,20H6.05V18.5H7.56Zm7.55.77a.76.76,0,1,1-1.51,0V17.73a.76.76,0,1,1,1.51,0Zm-3-3.08v3.08a.82.82,0,0,1-.76.77.82.82,0,0,1-.75-.77V17.73a.82.82,0,0,1,.75-.77.82.82,0,0,1,.76.77m3-4.63a.76.76,0,1,1-1.51,0V10a.76.76,0,1,1,1.51,0Zm-10.58,0V10a.82.82,0,0,1,.76-.77.82.82,0,0,1,.76.77V13.1a.83.83,0,0,1-.76.78.83.83,0,0,1-.76-.78m7.56,0V10a.82.82,0,0,0-.76-.77h-3a.81.81,0,0,0-.75.77V13.1a.82.82,0,0,0,.75.78h3a.83.83,0,0,0,.76-.78m-1.51-.77H9.07V10.79h1.51Z" />
  </symbol>
  <symbol id="ioj-tooltip-dollar-s">
    <path d="M22.54,19.17V23a.45.45,0,0,1-.13.33.3.3,0,0,1,0,.08.49.49,0,0,1-.33.08h-4a.47.47,0,0,1-.5-.49.53.53,0,0,1,.5-.48h2.67c-6.23-5.58-6.23-5.59-6.23-5.59L9.84,20.46a.41.41,0,0,1-.58,0l-9-7.77A.42.42,0,0,1,.21,12,.53.53,0,0,1,1,12l8.64,7.53,4.65-3.64a.51.51,0,0,1,.66,0l6.64,6V19.17c0-.32.17-.48.5-.48A.47.47,0,0,1,22.54,19.17ZM7.63,15.27a.79.79,0,0,0,.42-.08A.51.51,0,0,0,8,14.46a7.84,7.84,0,0,1-2.32-5.6,8,8,0,0,1,15.91,0,7.66,7.66,0,0,1-2.32,5.52.45.45,0,0,0,0,.73.51.51,0,0,0,.66,0,9,9,0,0,0,2.65-6.25,8.95,8.95,0,0,0-17.89,0A8.67,8.67,0,0,0,7.3,15.19.51.51,0,0,0,7.63,15.27Zm6-9.16h0a1.12,1.12,0,0,1,1.16,1.13.5.5,0,0,0,1,0,2.15,2.15,0,0,0-1.68-2V4.48A.52.52,0,0,0,13.59,4a.46.46,0,0,0-.48.48v.71a2.16,2.16,0,0,0-1.74,2.05,2.14,2.14,0,0,0,2.24,2.11,1.18,1.18,0,0,1,1.16,1.21,1.13,1.13,0,0,1-1.16,1.14h0a1.18,1.18,0,0,1-1.22-1.13.47.47,0,0,0-.5-.48.53.53,0,0,0-.5.48,2.16,2.16,0,0,0,1.74,2v.71a.47.47,0,0,0,.48.49.53.53,0,0,0,.49-.49v-.71a2.15,2.15,0,0,0,1.68-2,2.19,2.19,0,0,0-2.15-2.19,1.19,1.19,0,0,1-1.24-1.13A1.18,1.18,0,0,1,13.59,6.11Z" fill="#fff" stroke="#fff" stroke-miterlimit="10" stroke-width="0.18" fill-rule="evenodd"/>
  </symbol>
</svg>