<svg xmlns="http://www.w3.org/2000/svg" xmlns:xlink="http://www.w3.org/1999/xlink" viewBox="0 0 155.39 134.52"><defs><clipPath id="a"><circle cx="234.52" cy="65.34" r="63.87" fill="none"/></clipPath><linearGradient id="b" x1="232.83" y1="-68.21" x2="232.83" y2="75.9" gradientUnits="userSpaceOnUse"><stop offset="0" stop-color="#00b6ff"/><stop offset="0" stop-color="#52a0ff"/><stop offset="1" stop-color="#d7f2ff"/></linearGradient><clipPath id="c"><circle cx="87.43" cy="67.26" r="63.87" fill="none"/></clipPath><linearGradient id="d" x1="84.02" y1="-12.37" x2="84.02" y2="89.27" xlink:href="#b"/><linearGradient id="e" x1="62.36" y1="-34.21" x2="97.41" y2="53.82" gradientUnits="userSpaceOnUse"><stop offset="0" stop-color="#00b6ff"/><stop offset="1" stop-color="#42004e"/></linearGradient><linearGradient id="g" x1="65.19" y1="-30.53" x2="96.79" y2="48.84" xlink:href="#e"/><linearGradient id="h" x1="84.7" y1="124.46" x2="84.7" y2="56.48" gradientUnits="userSpaceOnUse"><stop offset="0" stop-color="#bd03ad"/><stop offset="1" stop-color="#250254"/></linearGradient><clipPath id="i"><path d="M67.15,42.29s-1.13-4.73,0-6.85c1.48-2.85,1.58-5.8.55-7.72a6.65,6.65,0,0,0-3-2.93c-1.21-.71-6.81-2.33-8.31,0a44.88,44.88,0,0,0-3.26,7.13c-.72,1.68-8,6.89-9.62,9.56-2.25,3.65,1.54,11,1.54,11l14.07-1Z" fill="#441f32" clip-rule="evenodd"/></clipPath><radialGradient id="j" cx="59.39" cy="27.19" r="10.03" gradientTransform="translate(-0.78 -0.41)" gradientUnits="userSpaceOnUse"><stop offset="0" stop-color="#b99bc8"/><stop offset="1" stop-color="#fff"/></radialGradient><clipPath id="k"><path d="M117,107.12v.29a4.27,4.27,0,0,0,4.27,4.27h25a4.27,4.27,0,0,0,4.27-4.27v-.29Z" fill="#fff" clip-rule="evenodd"/></clipPath><clipPath id="l"><path d="M106.59,74s-4.38-1.71-5.12-1.81c-1-.13-2.64.68-4.92,1.81C93.45,75.54,93,76,93,76l-3,2.34a1.49,1.49,0,0,0,1.43-.13,6,6,0,0,1,2.37-1.18c.37-.1,1-.19,1.33-.33,1.63-.6,1.17-.17,1.17-.17a6,6,0,0,0-.69,1.5c-.07.84.56.43.56.43a3.91,3.91,0,0,0,.82-.87c.32-.46,1.24-.52,1.62-.75.75-.46,1.93-1.31,1.93-1.31s5.22,1.83,5.67,2,1.5-1.5,1.5-1.5Z" fill="#e78c66" clip-rule="evenodd"/></clipPath><clipPath id="m"><path d="M120.26,57.77a17.17,17.17,0,0,1,2.53,4.67c.18.49,4.71-2.82,4.71-2.82l1.51-1s-.75-1-1.44-2.18a3.73,3.73,0,0,1-.33-2.07c-.09-.42-3.09-2.52-3.09-2.52S120.14,57.55,120.26,57.77Z" fill="#ffd5c4" clip-rule="evenodd"/></clipPath><clipPath id="n"><path d="M126.72,56.35l-5.23,3.8.37,1.56a43.14,43.14,0,0,1-4,5.06c-3.05,3.5-6.67,8.67-6.67,8.67L105,73.25l-1.21,4.85c0-.89,5.92,3.78,7.69,4s11.54-7.74,11.54-7.74a29,29,0,0,0,3.24,4.68c1.55,1.65,4.81,9.48,4.81,9.48s0,2.58-.07,3.25a2.89,2.89,0,0,1-.12.87s-12.44-2.5-16-3.43c-5.21-1.38-10.28-.83-11.91,3.37-1.23,3.18-4.86,17.59-4.86,17.59s-1.26,4.45-2.19,9.29c0,.31,1.22.33,1.17.63-1,5.42-2.1,11-2.1,11s1.52.32,4,.68a21.4,21.4,0,0,0,3.68.26s2.77-8.33,4.12-12.54,3.68-12.35,3.68-12.35h32.61s5.52-.37,5.8-6.61-4.63-25.43-7.87-31.12-9.49-10.13-10.6-10.79a21.48,21.48,0,0,1-3-2.69Z" fill="none" clip-rule="evenodd"/></clipPath><clipPath id="p"><path d="M132,65.64c.82-2.67-1.3-7.06-4.24-6.73s-13,11.28-14.27,12.85-4.8,2.93-4.8,2.93a2.64,2.64,0,0,0-3.31,2.12,8.6,8.6,0,0,0,.56,5.61s6.63.57,8.42-.25,7.82-6.37,10.53-9.11C127.17,70.8,131.22,68.31,132,65.64Z" fill="#7362c9" clip-rule="evenodd"/></clipPath><clipPath id="q"><path d="M127.89,54.67a5.59,5.59,0,0,0,3.18-2.87,9.51,9.51,0,0,0,.33-1.19,7,7,0,0,0,.1-1.59,3,3,0,0,0-.17-1.3,5.4,5.4,0,0,0-1.66-1.6c-2.24-1.62-6.69-1.7-7.47-1a2.17,2.17,0,0,0-.57,1.25l-1,.94c-.65.61-1.11.67-1.06,1.06a10,10,0,0,1,.19,1.74c-.07.13-.41.15-.87.5a19.75,19.75,0,0,0-1.81,1.5c-.23.28-.52.4-.13.68s.94.63.94.63a6,6,0,0,1-.13,1.37A8.42,8.42,0,0,1,117,56a1.56,1.56,0,0,0,.19,2.3c1.07,1,3.87.65,5.1,0s2.09-1.92,1.93-2.49a9.54,9.54,0,0,1-.06-2.87s2.7,2.13,3.07,2.54Z" fill="none" clip-rule="evenodd"/></clipPath><linearGradient id="r" x1="120.93" y1="51.38" x2="124.8" y2="51.38" gradientUnits="userSpaceOnUse"><stop offset="0" stop-color="#f9c2c2"/><stop offset="1" stop-color="#fff"/></linearGradient><clipPath id="s"><path d="M64.37,51.26c-.06-.07-1.25,1.61-2.57,2.11a10.31,10.31,0,0,1-4.14.64C57,54,56,55.08,55.53,55.39S53.29,57,51.31,58.7s-5.5,4.14-5.51,5.7,8,46.09,11.12,57.37,4.7,15.33,7.64,17,5.54,2.61,5.88,3.22a1.75,1.75,0,0,1,.28,1s-7.07.16-8.65,0a3.34,3.34,0,0,1-2.75-1.38,6.34,6.34,0,0,0-.74-.92l-.28,1.94-1.74-.28s-.29-1.61-.65-3.4a17.84,17.84,0,0,1-.09-4.32c0-1-.09-.83-.09-.83l-2.39-.19S49.72,124,48.1,118.92c-1.74-5.36-7-20.59-8.55-25.56s-3.86-16.73-3.86-16.73-1.27,5.64-1.12,17.56.56,42.2.56,42.2l-.64.1a11.74,11.74,0,0,1,.37,3.58c-.2,1.39-.28,4.14-.28,4.14l-.46.27-.55-.73s.51.51-1,.92-7.26.18-7.26.18A5.65,5.65,0,0,1,26.86,142,7.83,7.83,0,0,0,29,138.6c.1-.5.28-1.29.28-1.29l-1-.82s-.34-12.23-1.51-20.58C24.35,99.07,18.67,75,24.19,63.39c3.12-6.55,11.53-11,13.82-14,3.6-4.65,5.94-9.8,9.35-12.29s5.19-1.89,6.9-1.93c4.52-.12,8.87,1.63,12.31,9.14" fill="none" clip-rule="evenodd"/></clipPath><radialGradient id="t" cx="-2236.02" cy="1276.83" r="8.21" gradientTransform="matrix(3.24, -0.22, 0.13, 1.9, 7134.1, -2853.41)" gradientUnits="userSpaceOnUse"><stop offset="0" stop-color="#dec9e1"/><stop offset="1" stop-color="#fff"/></radialGradient><linearGradient id="u" x1="256.25" y1="391.38" x2="256.25" y2="347.84" gradientTransform="matrix(1, 0, 0, 1, -214.93, -254.94)" gradientUnits="userSpaceOnUse"><stop offset="0" stop-color="#dfcae2"/><stop offset="0.6" stop-color="#f4edf5"/><stop offset="1" stop-color="#fff"/></linearGradient><clipPath id="v"><path d="M52.22,78s2.14-28.52,1.93-33.35.05-10-4.3-8.85c-2.64.71-3.78,2.39-2.44,12.37,1.15,8.6,1.29,28.41,1.14,29s-.4,1.12-1.74,1.1a5,5,0,0,0-2.76.55,18.22,18.22,0,0,0-1.93,1.84V81h9s1.36,0,1.47-.73A8.11,8.11,0,0,0,52.22,78Z" fill="none" clip-rule="evenodd"/></clipPath><clipPath id="w"><path d="M65.08,26.72a16.17,16.17,0,0,1,1.31,3.42c.1,1-.4,1.93-.25,2.19a1.83,1.83,0,0,1,.17,1.05,5.76,5.76,0,0,1-.41,1.79c-.3.76-1.91,3.12-2.71,3.15-1,0-1-.18-1.29-.14V38.1c0-.07-.08-.18.08.4a8.9,8.9,0,0,1,.46,4.76,47.57,47.57,0,0,1-1.93,6.34A66.83,66.83,0,0,0,57.29,40c-.61-1.26-2.56-4.88-2.56-4.88a7.4,7.4,0,0,1,1.37-.09,1.8,1.8,0,0,0,1.19-.27l.45-.44-.08-.24-.16-.49s-2-1.78-.85-3.24c.8-1,1.59,1,1.58,1S61,30,63,28.92A5.88,5.88,0,0,0,65.08,26.72Z" fill="none" clip-rule="evenodd"/></clipPath><radialGradient id="x" cx="62.87" cy="31.79" r="20.07" gradientTransform="translate(-0.78 -0.41)" gradientUnits="userSpaceOnUse"><stop offset="0.19" stop-color="#db93a9"/><stop offset="0.8" stop-color="#fefbfc"/></radialGradient><radialGradient id="y" cx="66.55" cy="32.71" r="4.09" gradientTransform="translate(-0.78 -0.41)" gradientUnits="userSpaceOnUse"><stop offset="0" stop-color="#4d454d"/><stop offset="1"/></radialGradient><linearGradient id="z" x1="57.9" y1="33.3" x2="63.52" y2="33.3" gradientUnits="userSpaceOnUse"><stop offset="0" stop-color="#f3e0e6"/><stop offset="1" stop-color="#e6b6c5"/></linearGradient></defs><g style="isolation:isolate"><g clip-path="url(#c)"><rect x="-19.61" y="-20.98" width="207.27" height="169.7" fill="url(#d)"/><rect x="58.36" y="14.16" width="65.49" height="47.64" fill="url(#e)"/><line x1="64.62" y1="42.5" x2="80.43" y2="42.5" fill="none" stroke="#0084ef" stroke-miterlimit="10" stroke-width="0.73" stroke-dasharray="15.81"/><line x1="64.62" y1="40.29" x2="70.54" y2="40.29" fill="none" stroke="#0084ef" stroke-miterlimit="10" stroke-width="0.73" stroke-dasharray="16.55 4.14 12.42 4.97"/><line x1="64.62" y1="37.54" x2="76.79" y2="37.54" fill="none" stroke="#0084ef" stroke-miterlimit="10" stroke-width="0.73" stroke-dasharray="12.17"/><line x1="64.62" y1="35.32" x2="74.4" y2="35.32" fill="none" stroke="#0084ef" stroke-miterlimit="10" stroke-width="0.73" stroke-dasharray="16.55 4.14 12.42 4.97"/><line x1="64.62" y1="32.57" x2="72.9" y2="32.57" fill="none" stroke="#0084ef" stroke-miterlimit="10" stroke-width="0.73"/><line x1="74.05" y1="32.57" x2="78.19" y2="32.57" fill="none" stroke="#0084ef" stroke-miterlimit="10" stroke-width="0.73" stroke-dasharray="3.45 1.38"/><line x1="78.88" y1="32.57" x2="87.16" y2="32.57" fill="none" stroke="#0084ef" stroke-miterlimit="10" stroke-width="0.73"/><line x1="64.62" y1="30.35" x2="77.31" y2="30.35" fill="none" stroke="#0084ef" stroke-miterlimit="10" stroke-width="0.73" stroke-dasharray="16.55 4.14 12.42 4.97"/><line x1="64.62" y1="27.61" x2="72.9" y2="27.61" fill="none" stroke="#0084ef" stroke-miterlimit="10" stroke-width="0.73"/><line x1="74.38" y1="27.61" x2="79.72" y2="27.61" fill="none" stroke="#0084ef" stroke-miterlimit="10" stroke-width="0.73" stroke-dasharray="4.45 1.78"/><line x1="80.61" y1="27.61" x2="88.89" y2="27.61" fill="none" stroke="#0084ef" stroke-miterlimit="10" stroke-width="0.73"/><line x1="64.62" y1="25.39" x2="79.51" y2="25.39" fill="none" stroke="#0084ef" stroke-miterlimit="10" stroke-width="0.73" stroke-dasharray="16.55 4.14 12.42 4.97"/><line x1="64.62" y1="22.64" x2="72.9" y2="22.64" fill="none" stroke="#0084ef" stroke-miterlimit="10" stroke-width="0.73"/><line x1="75.91" y1="22.64" x2="86.74" y2="22.64" fill="none" stroke="#0084ef" stroke-miterlimit="10" stroke-width="0.73" stroke-dasharray="9.03 3.61"/><line x1="88.55" y1="22.64" x2="96.83" y2="22.64" fill="none" stroke="#0084ef" stroke-miterlimit="10" stroke-width="0.73"/><line x1="64.62" y1="20.42" x2="93.94" y2="20.42" fill="none" stroke="#0084ef" stroke-miterlimit="10" stroke-width="0.73" stroke-dasharray="16.55 4.14 12.42 4.97"/><line x1="114.21" y1="33.04" x2="117.73" y2="33.04" fill="none" stroke="#643eef" stroke-miterlimit="10" stroke-width="0.73"/><line x1="114.21" y1="34.91" x2="119.43" y2="34.91" fill="none" stroke="#643eef" stroke-miterlimit="10" stroke-width="0.73"/><line x1="106.1" y1="36.78" x2="117.73" y2="36.78" fill="none" stroke="#643eef" stroke-miterlimit="10" stroke-width="0.73"/><line x1="73.74" y1="51.91" x2="73.74" y2="55.37" fill="none" stroke="#c53dcd" stroke-miterlimit="10" stroke-width="1.46"/><line x1="76.63" y1="51.91" x2="76.63" y2="55.37" fill="none" stroke="#c53dcd" stroke-miterlimit="10" stroke-width="1.46"/><line x1="79.51" y1="49.08" x2="79.51" y2="55.37" fill="none" stroke="#c53dcd" stroke-miterlimit="10" stroke-width="1.46"/><line x1="82.4" y1="51.91" x2="82.4" y2="55.37" fill="none" stroke="#c53dcd" stroke-miterlimit="10" stroke-width="1.46"/><line x1="85.28" y1="45.01" x2="85.28" y2="55.37" fill="none" stroke="#c53dcd" stroke-miterlimit="10" stroke-width="1.46"/><line x1="88.17" y1="41.91" x2="88.17" y2="55.37" fill="none" stroke="#c53dcd" stroke-miterlimit="10" stroke-width="1.46"/><line x1="91.05" y1="46.19" x2="91.05" y2="55.37" fill="none" stroke="#c53dcd" stroke-miterlimit="10" stroke-width="1.46"/><line x1="93.94" y1="40.19" x2="93.94" y2="55.37" fill="none" stroke="#c53dcd" stroke-miterlimit="10" stroke-width="1.46"/><line x1="96.83" y1="49.08" x2="96.83" y2="55.37" fill="none" stroke="#c53dcd" stroke-miterlimit="10" stroke-width="1.46"/><line x1="99.71" y1="36.75" x2="99.71" y2="55.37" fill="none" stroke="#c53dcd" stroke-miterlimit="10" stroke-width="1.46"/><line x1="102.6" y1="43.63" x2="102.6" y2="55.37" fill="none" stroke="#c53dcd" stroke-miterlimit="10" stroke-width="1.46"/><line x1="105.48" y1="35.89" x2="105.48" y2="55.37" fill="none" stroke="#c53dcd" stroke-miterlimit="10" stroke-width="1.46"/><line x1="108.37" y1="41.91" x2="108.37" y2="55.37" fill="none" stroke="#c53dcd" stroke-miterlimit="10" stroke-width="1.46"/><line x1="111.25" y1="49.08" x2="111.25" y2="55.37" fill="none" stroke="#c53dcd" stroke-miterlimit="10" stroke-width="1.46"/><rect x="-19.61" y="-20.98" width="207.27" height="169.7" fill="url(#d)"/><rect x="58.36" y="14.37" width="65.49" height="40.38" fill="url(#g)"/><line x1="63.08" y1="30.55" x2="71.35" y2="30.55" fill="none" stroke="#0084ef" stroke-miterlimit="10" stroke-width="0.73"/><line x1="71.51" y1="30.55" x2="72.06" y2="30.55" fill="none" stroke="#0084ef" stroke-miterlimit="10" stroke-width="0.73" stroke-dasharray="0.46 0.19"/><line x1="72.16" y1="30.55" x2="80.43" y2="30.55" fill="none" stroke="#0084ef" stroke-miterlimit="10" stroke-width="0.73"/><line x1="63.08" y1="28.33" x2="75.77" y2="28.33" fill="none" stroke="#0084ef" stroke-miterlimit="10" stroke-width="0.73" stroke-dasharray="16.55 4.14 12.42 4.97"/><line x1="63.08" y1="25.58" x2="71.35" y2="25.58" fill="none" stroke="#0084ef" stroke-miterlimit="10" stroke-width="0.73"/><line x1="72.84" y1="25.58" x2="78.18" y2="25.58" fill="none" stroke="#0084ef" stroke-miterlimit="10" stroke-width="0.73" stroke-dasharray="4.45 1.78"/><line x1="79.07" y1="25.58" x2="87.35" y2="25.58" fill="none" stroke="#0084ef" stroke-miterlimit="10" stroke-width="0.73"/><line x1="63.08" y1="23.36" x2="77.97" y2="23.36" fill="none" stroke="#0084ef" stroke-miterlimit="10" stroke-width="0.73" stroke-dasharray="16.55 4.14 12.42 4.97"/><line x1="63.08" y1="20.62" x2="71.35" y2="20.62" fill="none" stroke="#0084ef" stroke-miterlimit="10" stroke-width="0.73"/><line x1="74.36" y1="20.62" x2="85.2" y2="20.62" fill="none" stroke="#0084ef" stroke-miterlimit="10" stroke-width="0.73" stroke-dasharray="9.03 3.61"/><line x1="87.01" y1="20.62" x2="95.28" y2="20.62" fill="none" stroke="#0084ef" stroke-miterlimit="10" stroke-width="0.73"/><line x1="63.08" y1="18.4" x2="92.4" y2="18.4" fill="none" stroke="#0084ef" stroke-miterlimit="10" stroke-width="0.73" stroke-dasharray="16.55 4.14 12.42 4.97"/><line x1="115.32" y1="21.23" x2="118.84" y2="21.23" fill="none" stroke="#643eef" stroke-miterlimit="10" stroke-width="0.73"/><line x1="115.32" y1="23.1" x2="120.54" y2="23.1" fill="none" stroke="#643eef" stroke-miterlimit="10" stroke-width="0.73"/><line x1="107.21" y1="24.97" x2="118.84" y2="24.97" fill="none" stroke="#643eef" stroke-miterlimit="10" stroke-width="0.73"/><line x1="74.86" y1="40.1" x2="74.86" y2="43.56" fill="none" stroke="#c53dcd" stroke-miterlimit="10" stroke-width="1.46"/><line x1="77.74" y1="40.1" x2="77.74" y2="43.56" fill="none" stroke="#c53dcd" stroke-miterlimit="10" stroke-width="1.46"/><line x1="80.63" y1="37.26" x2="80.63" y2="43.56" fill="none" stroke="#c53dcd" stroke-miterlimit="10" stroke-width="1.46"/><line x1="83.51" y1="40.1" x2="83.51" y2="43.56" fill="none" stroke="#c53dcd" stroke-miterlimit="10" stroke-width="1.46"/><line x1="86.4" y1="33.2" x2="86.4" y2="43.56" fill="none" stroke="#c53dcd" stroke-miterlimit="10" stroke-width="1.46"/><line x1="89.28" y1="30.1" x2="89.28" y2="43.56" fill="none" stroke="#c53dcd" stroke-miterlimit="10" stroke-width="1.46"/><line x1="92.17" y1="34.37" x2="92.17" y2="43.56" fill="none" stroke="#c53dcd" stroke-miterlimit="10" stroke-width="1.46"/><line x1="95.05" y1="28.38" x2="95.05" y2="43.56" fill="none" stroke="#c53dcd" stroke-miterlimit="10" stroke-width="1.46"/><line x1="97.94" y1="37.26" x2="97.94" y2="43.56" fill="none" stroke="#c53dcd" stroke-miterlimit="10" stroke-width="1.46"/><line x1="100.82" y1="24.94" x2="100.82" y2="43.56" fill="none" stroke="#c53dcd" stroke-miterlimit="10" stroke-width="1.46"/><line x1="103.71" y1="31.82" x2="103.71" y2="43.56" fill="none" stroke="#c53dcd" stroke-miterlimit="10" stroke-width="1.46"/><line x1="106.6" y1="24.08" x2="106.6" y2="43.56" fill="none" stroke="#c53dcd" stroke-miterlimit="10" stroke-width="1.46"/><line x1="109.48" y1="30.1" x2="109.48" y2="43.56" fill="none" stroke="#c53dcd" stroke-miterlimit="10" stroke-width="1.46"/><line x1="112.37" y1="37.26" x2="112.37" y2="43.56" fill="none" stroke="#c53dcd" stroke-miterlimit="10" stroke-width="1.46"/><g opacity="0.85"><rect x="42.94" y="84.82" width="83.5" height="61.1" fill="url(#h)"/></g><g style="mix-blend-mode:multiply"><rect x="42.94" y="83.23" width="83.5" height="6.2" fill="#b3b7cb"/></g><rect x="39.53" y="81.04" width="90.33" height="3.79" fill="#938bc4"/><path d="M67.15,42.29s-1.13-4.73,0-6.85c1.48-2.85,1.58-5.8.55-7.72a6.65,6.65,0,0,0-3-2.93c-1.21-.71-6.81-2.33-8.31,0a44.88,44.88,0,0,0-3.26,7.13c-.72,1.68-8,6.89-9.62,9.56-2.25,3.65,1.54,11,1.54,11l14.07-1Z" fill="#441f32" fill-rule="evenodd"/><g clip-path="url(#i)"><path d="M57.58,23.88S55.15,25.1,57,30.12s-.43,6.8-.43,6.8-4.61.37-5.15-.62a21.44,21.44,0,0,1-1.8-4.09A4.2,4.2,0,0,1,50,29.86a12.49,12.49,0,0,1,2.56-3.15C53.65,25.63,57.07,21.25,57.58,23.88Z" fill-rule="evenodd" opacity="0.6" fill="url(#j)" style="mix-blend-mode:multiply"/></g><path d="M65,26.71s2.13,1.43,2.39,3.31a11.8,11.8,0,0,1-.46,4.5,23.21,23.21,0,0,0-.83,3.31c0,.61.46,1.83.37,1.84s-12-3-12-3l-1.1-1.38A11.53,11.53,0,0,0,55,33.33l1.57-2.58,1.38,1.38A31.55,31.55,0,0,0,62.62,30c.65-.6,2-2.12,2-2.12Z" fill="#b99bc8" fill-rule="evenodd" style="mix-blend-mode:multiply"/><path d="M100,131.2s-.29,1.88-.5,3.74-.25,4.93-.25,4.93a29.73,29.73,0,0,1-3.62.25c-1.38,0-6.22,0-8.23.06a6.51,6.51,0,0,1-2.81-.31,3.39,3.39,0,0,1,2.75-2.06,11.65,11.65,0,0,0,4.86-1.87c1.79-1.08,2.54-1.74,2.75-3.62.24-2.21.65-4.55.62-4.3l5.24.62Z" fill="#371223" fill-rule="evenodd"/><path d="M102.94,121.33s-.83,1.71-1.57,3.43-1.68,4.63-1.68,4.63a30.47,30.47,0,0,1-3.53-.82A50.71,50.71,0,0,1,89,124.11a6.59,6.59,0,0,1-2-2,3.37,3.37,0,0,1,3.42.11,4.74,4.74,0,0,0,4.14.75c2-.51,2.49-.32,3.24-2,.88-2,2-4.15,1.85-3.92l4.82,2.13Z" fill="#371223" fill-rule="evenodd"/><path d="M152.51,114.72h-14a1.68,1.68,0,0,1,0-3.35h14c2.11,0,4.26-2.38,4.31-4.75l-1.64-15.19c0-.06,0-.12,0-.18,0-1.75-.95-3-2-4.39a18.47,18.47,0,0,1-1.27-1.74,1.67,1.67,0,1,1,2.83-1.78c.3.47.68,1,1.08,1.46,1.22,1.56,2.73,3.5,2.76,6.36l1.64,15.2a1.09,1.09,0,0,1,0,.18C160.17,110.74,156.45,114.72,152.51,114.72Z" fill="#53445a"/><path d="M131.67,111.25h3.92v25.34h-3.92Z" fill="#abb2c8" fill-rule="evenodd"/><path d="M130.32,135.49h6.58l.25,0v-1a2.1,2.1,0,0,0-2.09-2.09h-2.84a2.09,2.09,0,0,0-2.09,2.09v1Z" fill="#53445a" fill-rule="evenodd"/><path d="M122.74,61.84l-1.25.25s1.09,13.93.94,16.84a62.75,62.75,0,0,0,.87,9.23l1.18,1.56,1.63-4s-1.52-13.15-2.19-17.09S122.74,61.84,122.74,61.84Z" fill="#250254" fill-rule="evenodd"/><path d="M126.89,110.05h13.34a1.66,1.66,0,0,1,0,3.31H126.89a1.66,1.66,0,1,1,0-3.31Z" fill="#53445a" fill-rule="evenodd"/><path d="M117,107.12v.29a4.27,4.27,0,0,0,4.27,4.27h25a4.27,4.27,0,0,0,4.27-4.27v-.29Z" fill="#fff" fill-rule="evenodd"/><g clip-path="url(#k)"><path d="M150.07,111.11H117.52l1.5,1.38,29.76.25Z" fill="#53445a" fill-rule="evenodd"/></g><path d="M152.83,61.8l-1.44.14c-1.71.16-4.42,2-4.26,3.7l3,32.59c.16,1.72,3.14,2.63,4.85,2.47l1.44-.14Z" fill="none" fill-rule="evenodd"/><path d="M132.66,111.42h1.92c1.42,0,2.56.4,2.56,1.82v1.12a2.56,2.56,0,0,1-2.56,2.56h-1.92a2.56,2.56,0,0,1-2.56-2.56v-1.12C130.1,111.82,131.24,111.42,132.66,111.42Z" fill="#53445a" fill-rule="evenodd"/><path d="M129.67,46.12c-2.24-1.62-6.69-1.7-7.47-1a2.17,2.17,0,0,0-.57,1.25l-1,.94c-.65.61-1.11.67-1.06,1.06a10,10,0,0,1,.19,1.74c-.07.13-.41.15-.87.5a19.75,19.75,0,0,0-1.81,1.5c-.23.28-.52.4-.13.68s.94.63.94.63a6,6,0,0,1-.13,1.37A8.42,8.42,0,0,1,117,56a1.56,1.56,0,0,0,.19,2.3c1.07,1,3.87.65,5.1,0s2.09-1.92,1.93-2.49a9.54,9.54,0,0,1-.06-2.87" fill="#e78c66" fill-rule="evenodd"/><path d="M106.59,74s-4.38-1.71-5.12-1.81c-1-.13-2.64.68-4.92,1.81C93.45,75.54,93,76,93,76l-3,2.34a1.49,1.49,0,0,0,1.43-.13,6,6,0,0,1,2.37-1.18c.37-.1,1-.19,1.33-.33,1.63-.6,1.17-.17,1.17-.17a6,6,0,0,0-.69,1.5c-.07.84.56.43.56.43a3.91,3.91,0,0,0,.82-.87c.32-.46,1.24-.52,1.62-.75.75-.46,1.93-1.31,1.93-1.31s5.22,1.83,5.67,2,1.5-1.5,1.5-1.5Z" fill="#e78c66" fill-rule="evenodd"/><g clip-path="url(#l)"><path d="M97.23,75.5,96,76.81l-4.42,2.06-1.06-.13a12,12,0,0,1,1.56-1.24c.45-.24,1.49-.84,2-1.06S97.23,75.5,97.23,75.5Z" fill="#c86f61" fill-rule="evenodd"/><path d="M104.84,73.07l-1.5,4,1.25.25,1.31-2.25Z" fill="#c86f61" fill-rule="evenodd"/></g><path d="M126.72,56.35l-5.23,3.8.37,1.56a43.14,43.14,0,0,1-4,5.06c-3.05,3.5-6.67,8.67-6.67,8.67L105,73.25l-1.21,4.85c0-.89,5.92,3.78,7.69,4s11.54-7.74,11.54-7.74a29,29,0,0,0,3.24,4.68c1.55,1.65,4.81,9.48,4.81,9.48s0,2.58-.07,3.25a2.89,2.89,0,0,1-.12.87s-12.44-2.5-16-3.43c-5.21-1.38-10.28-.83-11.91,3.37-1.23,3.18-4.86,17.59-4.86,17.59s-1.26,4.45-2.19,9.29c0,.31,1.22.33,1.17.63-1,5.42-2.1,11-2.1,11s1.52.32,4,.68a21.4,21.4,0,0,0,3.68.26s2.77-8.33,4.12-12.54,3.68-12.35,3.68-12.35h32.61s5.52-.37,5.8-6.61-4.63-25.43-7.87-31.12-9.49-10.13-10.6-10.79a21.48,21.48,0,0,1-3-2.69Z" fill="#43316c" fill-rule="evenodd"/><path d="M120.26,57.77a17.17,17.17,0,0,1,2.53,4.67c.18.49,4.71-2.82,4.71-2.82l1.51-1s-.75-1-1.44-2.18a3.73,3.73,0,0,1-.33-2.07c-.09-.42-3.09-2.52-3.09-2.52S120.14,57.55,120.26,57.77Z" fill="#ffd5c4" fill-rule="evenodd"/><g clip-path="url(#m)"><path d="M127.58,56.84c.18,1.3-5,3.69-5,3.69l-1.56.12L120.12,59s1-1.21,1.12-1.37,2.06-2.87,2.06-2.87l.88-2.25,3,3Z" fill="#e78c66" fill-rule="evenodd"/></g><g clip-path="url(#n)"><path d="M147.62,86.66l-17.34,2.75-21.06-5.62S99,81.18,99.56,80.11s1.36-8.47,1.87-8.85,12.44-9,12.78-8.92,11.1-6.8,11.1-6.8l5.67-.62,12.78,11L149.37,76Z" fill="#7362c9" fill-rule="evenodd"/><path d="M129.29,68.58,122.93,77l-2.06-1.63Z" fill="#51419f" fill-rule="evenodd"/><path d="M119.31,63.65,122,61.16a12.94,12.94,0,0,1-.24,2.2c-.24,1.24-1.58,7-1.58,7s-4.27,5.69-5,6.05-7,4.56-7,4.56l-5.37-2a18.67,18.67,0,0,1-.37-3.37c.17-.24,1.68-2.81,1.68-2.81l4.62-1.43Z" fill="#7d75d9" fill-rule="evenodd"/></g><path d="M122.74,62s-.25-1.37-.62-1.06a6,6,0,0,0-.87,1.56v1l1.81-1.37Z" fill="#250254" fill-rule="evenodd"/><polygon points="155.48 85.02 154.8 84.05 155.64 94.77 156.18 100.59 157.04 100.4 155.48 85.02" fill="#53445a" fill-rule="evenodd"/><g clip-path="url(#n)"><path d="M109.33,97.27s-3.73-1.88-5.67.37-6.62,23-6.62,23-2.49.93-2.12-2.31c.88-7.59,5.12-23.51,5.12-23.51s2.91-6.85,4.43-7,.56,2.87.56,4C105,95.54,109.33,97.27,109.33,97.27Z" fill="#d9d9e0" fill-rule="evenodd" style="mix-blend-mode:multiply"/><path d="M136.58,107.12s-11.74-3.41-15.65-4.8a127.54,127.54,0,0,1-12.29-5.49s13.64,9.54,14.91,10,8.42,1.25,8.42,1.25Z" fill="#d5c8db" fill-rule="evenodd" style="mix-blend-mode:multiply"/><path d="M130.78,92.59a23.74,23.74,0,0,1,4,.94c1.2.5,4.49,1.37,4.49,1.37s-1.52-2.06-2.55-2.31S130.6,92,130.6,92Z" fill="#392664" fill-rule="evenodd"/><path d="M147.93,88.16l-17.4,2.12-.37,1.5,17.77-2.06Z" fill="#250254" fill-rule="evenodd"/><path d="M134.4,89.35l.13,2.43H133.4l-.06-2.37Z" fill="#43316c" fill-rule="evenodd"/></g><polygon points="141.88 111.7 125.23 111.71 125.25 111.41 141.88 111.42 141.88 111.7" fill="#53445a" fill-rule="evenodd"/><path d="M132,65.64c.82-2.67-1.3-7.06-4.24-6.73s-13,11.28-14.27,12.85-4.8,2.93-4.8,2.93a2.64,2.64,0,0,0-3.31,2.12,8.6,8.6,0,0,0,.56,5.61s6.63.57,8.42-.25,7.82-6.37,10.53-9.11C127.17,70.8,131.22,68.31,132,65.64Z" fill="#7362c9" fill-rule="evenodd"/><g clip-path="url(#p)"><path d="M131.53,59.34l-4.68-1L121,62l-9.66,8-3.68,2.5L106,73.94,107.77,76l4.06-1.37s5.4-5.77,8.61-9c4.31-4.41,5.72-6.81,10-6.67Z" fill="#8e91ff" fill-rule="evenodd"/></g><g clip-path="url(#q)"><path d="M123.85,52.17s0-1-.19-2.28.2-2.57-.78-3.21-1.37.31-1.5-.43,2.8-2.69,2.8-2.69,11.34,2.08,11.47,2.94.7,4.71.69,5.11-4.24,5.18-4.24,5.18l-5.42-1.31L126,54.6l-.18-1.43s.44.17.74-.87c.6-2-1.64-1.64-2-.75S123.85,52.17,123.85,52.17Z" fill="#483f56" fill-rule="evenodd"/><path d="M121.22,56.46a19.75,19.75,0,0,0,1.93-1.93c1.13-1.26,1.65-6.42,1.65-6.42l-1.69-1.81c-.41.46-1.93,2-1.61,3s0,1.19,0,1.19a2,2,0,0,0-.57,1.16,6.34,6.34,0,0,1,.42,1.66C121.42,54.74,120.93,56.46,121.22,56.46Z" fill="url(#r)" style="mix-blend-mode:multiply"/><path d="M117.45,53.67a1.81,1.81,0,0,1,.75-.38c.33,0,1-.36,1.5.32s1.36,1,1.74.49S123.75,52,123.75,52l.43.5a7.46,7.46,0,0,0-.06,2.44c.23.83.49,1.54-.37,2.3s-2,2.25-4.49,1.94-5.43-.45-5.36-.81a40.19,40.19,0,0,1,2.31-3.5Z" fill="#685b6f" fill-rule="evenodd"/><path d="M121.18,57.54c-1.4.34-3.61,1-4.24.12a1.62,1.62,0,0,1,0-1.81L116,57.29l1.19,1.37s1.52.39,1.56.43a4.56,4.56,0,0,0,2.3-.06,15.2,15.2,0,0,0,3.31-1.56l.19-2-.25-1.31-.19-1.62-.19-.38s-.37,1.86-.5,2.75" fill="#483f56" fill-rule="evenodd"/><path d="M123.62,49.86a39.71,39.71,0,0,0,5,1.25,16.75,16.75,0,0,1,2.62.5,21.94,21.94,0,0,1-.94,2.37,10.08,10.08,0,0,1-2.49,1.75l-1.43-.44a13.67,13.67,0,0,1-1.44-1.5c-.44-.6-1.24-1.81-1.24-1.81Z" fill="#685b6f" fill-rule="evenodd"/></g><path d="M124.05,50.67s2.14-1.09,2.24,0-.16,1.23-1.27,1.87a3,3,0,0,1-.91.39,8,8,0,0,1-.06-1.31A6.29,6.29,0,0,0,124.05,50.67Z" fill="#e78c66" fill-rule="evenodd"/><path d="M124.24,51.3s1.28-.93,1.62-.56-1,.68-1,.68.51,0,.44.19c-.18.4-1.1.58-1,.31Z" fill="#c86f61" fill-rule="evenodd"/><path d="M120,47.87s-.5.1-.5.31a4.62,4.62,0,0,0,.06.56,2.87,2.87,0,0,1,1.31,0,3.82,3.82,0,0,1,1,.94,5.93,5.93,0,0,0-.56-1.44A4.94,4.94,0,0,0,120,47.87Z" fill="#282323" fill-rule="evenodd"/><path d="M120.38,49.86a3.69,3.69,0,0,1-.75.13c-.12,0,.81.31.81.31l1.06.25a2.08,2.08,0,0,0-.43-.44A1.9,1.9,0,0,0,120.38,49.86Z" fill="#653f39" fill-rule="evenodd"/><path d="M148.79,112.18l-.94-.82h-7.32l-.33.92a9.46,9.46,0,0,0,2,.54C142.75,112.85,148.79,112.18,148.79,112.18Z" fill="#53445a"/><path d="M70.65,57.33l2.24,2.17c.9.57,2.09,1,4.33-.61s8.11-6.8,9.53-7.35a7.89,7.89,0,0,1,3.94-.3,28.78,28.78,0,0,0,3.45.46c.41,0,1.15-.4.77-.44S93,50.84,93,50.84s2.7.43,3.06-.16.43-1.09-.6-1.22a6.7,6.7,0,0,1-2.13-.76s2.77.14,3-.21-.36-.55-1.22-.58-2.08-.11-2.66-.15a5.15,5.15,0,0,1-1-.16,1.41,1.41,0,0,1,.87-.64,2,2,0,0,0,1.13-1.33c0-.25-.4,0-.92.24a23.21,23.21,0,0,1-3.11.51c-1.53.34-1.94,1.28-2.7,1.89C86.24,48.63,80,51.6,74.82,54l-1.46-1.67" fill="#b15342"/><polygon points="73.36 52.32 64.08 40.03 61.63 48.58 70.65 57.33 73.36 52.32" fill="#fff"/><g clip-path="url(#s)"><path d="M65.66,132.07,50,132.26,28,133.45s-5.65,6.45-5.61,7-.27,7-.27,7l52.31-1.29-4.32-8.83Z" fill="#3c2435" fill-rule="evenodd"/><path d="M57.75,110.1,63.27,129l-1.75,5.05-10.2-.46-14.25,2.49L25.2,138.05s-1.9-13.12-1.74-14.44-3.21-39.9-3.13-41.37S23,61.55,23,61.55l8.82-8.27,17.29,7.54.74,10.39,5.7,31.62Z" fill="#43316c" fill-rule="evenodd"/><path d="M68.05,63.21l6.44-.46L75,64l-6.53,1Z" fill="#993e3a" fill-rule="evenodd"/><path d="M74.85,63.12,67.5,64l-.92-3-2.3-7.91-3.68,2-5.88,3.22L48.1,61.46S47,64,42.31,63c-11.49-2.44-11.59-8-11.59-8l2.39-2.85,7.17-8.37,7.17-8.37,5.43-3,10,1,4.78,4.23s3.74,7.7,3.77,8.46S74.85,63.12,74.85,63.12Z" fill="#fff" fill-rule="evenodd"/><path d="M69.43,56.89C70,65.48,58.56,73.26,43.85,74.25S16.74,69.09,16.15,60.5,27,44.13,41.73,43.14,68.84,48.3,69.43,56.89Z" fill="url(#t)" style="mix-blend-mode:multiply"/><path d="M46.9,43.16l-.13,20.25,2.34-1.58.55-8.64Z" fill="#b397af" fill-rule="evenodd" style="mix-blend-mode:multiply"/><path d="M49.75,51s2.41-3,5.52-2.67c4.39.53,4.69,2.38,5.24,2.3s1.78-1.07,3-1c1.44.07.65,1.75.65,1.75a3.22,3.22,0,0,1-1.11,2,36,36,0,0,1-5.42,3.31l-4.32,4.69-3.4.46Z" fill="#eee2ec" fill-rule="evenodd" style="mix-blend-mode:multiply"/><path d="M46.54,64a11.81,11.81,0,0,1-5.15.37c-3.45-.6-8.48-2.39-9.84-4.87s-1.66-3.22-1.66-3.22l-1,1.11a8.29,8.29,0,0,0,4.32,6.15,19.84,19.84,0,0,0,11,2.39c2.09-.26,2-.55,2-.55Z" fill="#250254" fill-rule="evenodd"/><path d="M33.85,64.68l1.65-2.21,1.38.46-1.47,2.39Z" fill="#43316c" fill-rule="evenodd"/><path d="M44.81,64.19l-1.55,2,1.19,0,1.38-2.15Z" fill="#43316c" fill-rule="evenodd"/><path d="M35.69,78.29s0-4,1.28-5.06,2.29-.94,5.24-2.94c3.86-2.62,4.51-3.77,4.51-3.77l3,14.8,4.88,21.06,4.23,24.54s2.66,6,2.75,6.16a12.51,12.51,0,0,1,.1,1.84L53,134.09c-.21,0-4-8-4-8L41.48,99.34Z" fill="#ccb2d3" fill-rule="evenodd" style="mix-blend-mode:multiply"/><rect x="18.69" y="92.92" width="45.24" height="43.54" transform="translate(-8.5 3.43) rotate(-4.31)" fill="url(#u)" style="mix-blend-mode:multiply"/><path d="M35.87,76.72A6,6,0,0,1,36.42,74a5.61,5.61,0,0,1,2.39-1.66s.53,8.5,1.29,16.37A102.71,102.71,0,0,1,40.47,101Z" fill="#250254" fill-rule="evenodd"/></g><g clip-path="url(#v)"><path d="M47.64,64l6.16.73v1.1l-6.07.1Z" fill="#993f3a" fill-rule="evenodd"/><rect x="36.24" y="35.36" width="26.92" height="52.14" fill="#b15342"/><path d="M54.07,65.23l-6.34-.37-2-19,.37-7.91,3.12-3a21.26,21.26,0,0,1,4,.28c.47.27,2.48,10.39,2.48,10.39l-1,14.25Z" fill="#fff" fill-rule="evenodd"/></g><path d="M46.79,43.06c-.24-3.08.11-5.13,1.1-6.27a4,4,0,0,1,3-1.24c2.74-.18,3,3.71,3,3.74l-.19,0s-.27-3.73-2.81-3.57A3.83,3.83,0,0,0,48,36.92C47.08,38,46.74,40,47,43.05Z" fill="#fff"/><path d="M65.08,26.72a16.17,16.17,0,0,1,1.31,3.42c.1,1-.4,1.93-.25,2.19a1.83,1.83,0,0,1,.17,1.05,5.76,5.76,0,0,1-.41,1.79c-.3.76-1.91,3.12-2.71,3.15-1,0-1-.18-1.29-.14V38.1c0-.07-.08-.18.08.4a8.9,8.9,0,0,1,.46,4.76,47.57,47.57,0,0,1-1.93,6.34A66.83,66.83,0,0,0,57.29,40c-.61-1.26-2.56-4.88-2.56-4.88a7.4,7.4,0,0,1,1.37-.09,1.8,1.8,0,0,0,1.19-.27l.45-.44-.08-.24-.16-.49s-2-1.78-.85-3.24c.8-1,1.59,1,1.58,1S61,30,63,28.92A5.88,5.88,0,0,0,65.08,26.72Z" fill="#b15342" fill-rule="evenodd"/><path d="M64.59,34.36s.07.21-.4.24A5.83,5.83,0,0,1,63,34.36s.55,1,1.31,1S64.59,34.36,64.59,34.36Z" fill="#e5abbe" fill-rule="evenodd" style="mix-blend-mode:multiply"/><g clip-path="url(#w)"><path d="M54.44,34.15s1.74,1.79,4.14,7.82a32.08,32.08,0,0,1,1.93,6.53A35.68,35.68,0,0,0,62,43.72a16.86,16.86,0,0,0-.09-5.7l1.19,3.31-.73,3.86-.92,3.58-1.75,1.47-1.19-5.51L55,37.65l-1.65-3Z" fill="#ddc7e0" fill-rule="evenodd" style="mix-blend-mode:multiply"/><path d="M57.66,34.12a10.31,10.31,0,0,0,2.21,2.52,18.5,18.5,0,0,0,1.74,1.19,1.74,1.74,0,0,1,.54.66c.68,1.69,2.25,6.42,2,6.86s-4.89,6.43-5.3,6.11c-.86-.65-5.56-16.56-5.68-17.1S57.66,34.12,57.66,34.12Z" fill-rule="evenodd" fill="url(#x)" style="mix-blend-mode:multiply"/><path d="M57.66,34.12a10.31,10.31,0,0,0,2.21,2.52,18.5,18.5,0,0,0,1.74,1.19,4.43,4.43,0,0,1-.44,1.48c-.33.54-1.47.24-1.88-.08a5.78,5.78,0,0,1-1.55-2.76A17.62,17.62,0,0,1,57.66,34.12Z" fill="#e5abbe" fill-rule="evenodd" style="mix-blend-mode:multiply"/><path d="M66.67,30s-.18.81-.78,1a1.87,1.87,0,0,0-1.39,1.52c0,.12-.09,1.91-.09,1.91l-.4.11-.43,1.16s8.28,1.75,5.09-4.58A2.29,2.29,0,0,0,66.67,30Z" opacity="0.7" fill="url(#y)" style="mix-blend-mode:screen"/><path d="M60.88,28s-.32,1.6.58,2c0,0-.76.72-.71,1a6.22,6.22,0,0,1,.35,1.42c0,.52-.35,1.47-.35,2.17s.47,2.16,2.77,3.9c0,0-.27.28-1.11-.08-.29-.13-.83-.58-1.18-.79a10.41,10.41,0,0,1-3.33-3.1s.38-4.29,1.14-4.83S60.67,28,60.88,28Z" fill="url(#z)" style="mix-blend-mode:multiply"/></g><path d="M57.84,32.22s-.23-1.37-.55-1.38-.31.29-.27.56.46.64.46.64-.6-.47-.49-.05a2.08,2.08,0,0,0,.85,1Z" fill="#973c34" fill-rule="evenodd"/><path d="M63,30.54s.22.32.08.57a.41.41,0,0,1-.65.16,3.92,3.92,0,0,0-1.63-.57,6.13,6.13,0,0,0-1.14.17s.67-.72,1.22-.73A12.14,12.14,0,0,1,63,30.54Z" fill="#231316" fill-rule="evenodd"/><path d="M66.55,31s.14-.72-.73-.57c-.32.06-.88.33-.9.57s0,.63.25.49a7.48,7.48,0,0,1,.65-.41c.14-.06.25-.25.42-.27S66.55,31,66.55,31Z" fill="#231316" fill-rule="evenodd"/><path d="M64.84,35.33a5.65,5.65,0,0,1-1.47.08,16.66,16.66,0,0,1-2-.16s1.21,1.29,2.12,1.22S64.84,35.33,64.84,35.33Z" fill="#fff" fill-rule="evenodd"/><path d="M64.92,35.33s.17-.08-.41-.16-2.07.06-2.44,0a2.61,2.61,0,0,0-.74,0s-.07.15.25.24a24.38,24.38,0,0,0,2.77.17A.72.72,0,0,0,64.92,35.33Z" fill="#762c37" fill-rule="evenodd"/><path d="M64.84,35.33s-.43.83-1.14.82a2.84,2.84,0,0,1-1.55-.41c-.32-.25-.66-.49-.66-.49S62,36.7,63.13,36.8c.72.06,1.11,0,1.38-.49A2.66,2.66,0,0,0,64.84,35.33Z" fill="#762c37" fill-rule="evenodd"/><path d="M66,32.08s-.09,0-.57.09-.54,0-.65.08a.82.82,0,0,0,.65.32,4.8,4.8,0,0,0,1.22-.08Z" fill="#311c25" fill-rule="evenodd"/><path d="M62.31,31.84c-.22,0-.36,0-.57,0a2.49,2.49,0,0,0-.65-.08l-.74-.08a2.44,2.44,0,0,0,.74.54,7.3,7.3,0,0,0,1.63.19Z" fill="#311c25" fill-rule="evenodd"/><g opacity="0.85"><rect x="42.94" y="84.82" width="83.5" height="61.1" fill="url(#h)"/></g><g style="mix-blend-mode:multiply"><rect x="42.94" y="83.23" width="83.5" height="6.2" fill="#b3b7cb"/></g><rect x="39.53" y="81.04" width="90.33" height="3.79" fill="#938bc4"/></g><circle cx="87.43" cy="67.26" r="63.87" fill="none" stroke="#fff" stroke-miterlimit="10" stroke-width="2.93"/></g></svg>