<svg xmlns="http://www.w3.org/2000/svg" xmlns:xlink="http://www.w3.org/1999/xlink" viewBox="0 0 169.32 136.01"><defs><clipPath id="a"><path d="M-138.49,95c-1.79,1.46-5.69,1.41-5.69,1.41-.48-5.26-.15-10.6,2.05-18.64a58.52,58.52,0,0,0,.49-6.49A62.43,62.43,0,0,1-79.29,12,62.44,62.44,0,0,1-16.86,74.43a62.43,62.43,0,0,1-62.43,62.43,62.45,62.45,0,0,1-58.33-40.13Z" fill="none"/></clipPath><clipPath id="b"><circle cx="-79.22" cy="74.43" r="63.87" fill="none"/></clipPath><linearGradient id="c" x1="-82.79" y1="-47.66" x2="-82.79" y2="96.45" gradientUnits="userSpaceOnUse"><stop offset="0" stop-color="#00b6ff"/><stop offset="0" stop-color="#52a0ff"/><stop offset="1" stop-color="#d7f2ff"/></linearGradient><clipPath id="d"><path d="M-72.71,63.5c.29,1.65,6.53,17.62,8.47,18.2,3.29,1,17.56-6.41,17.56-6.41s.56,10.16.9,14.62-.21,13-.13,14.49-.38,6.66-.38,6.66l-1.16,3.46s.44,8.73,1.54,22.44,2,21,3.73,39c1.54,16.26,1.7,24.87,1.7,24.87.55-.61,5.63.34,5.93.77,0,0,.49-7.44.56-15.26.13-14.29.35-14.35.52-18.84.11-3-1.9-8.8-1.16-21.54.69-11.82,1.41-15.39,1.41-15.39s4.1,14.79,6.16,22.44,5.48,21.67,6.92,27.69a161.26,161.26,0,0,1,3.4,21.8,9.21,9.21,0,0,1,3.25-.26,22.94,22.94,0,0,1,3.48.9s-.32-9.74-1.31-19.32S-14,166.61-15,160.55s-2.86-39.29-2.82-41a9.1,9.1,0,0,0-.64-3.33,9.68,9.68,0,0,1,0-2.18c.11-1.51-.35-11.05-.26-14.61s3.11-17,4.34-20S-9,74.07-10,70.07-23.62,58.78-27.84,57.53s-12,1.61-14.61,2.43-3.26,1.28-6.33,3.32-13.16,8.29-13.16,8.29-1.6-3.08-2.69-5.12-3.84-7.7-3.84-7.7S-73,62-72.71,63.5Z" fill="#938bc4" clip-rule="evenodd"/></clipPath><radialGradient id="e" cx="-3865.49" cy="182.28" r="47.15" gradientTransform="matrix(-1, 0, 0, 1, -3887.82, -0.41)" gradientUnits="userSpaceOnUse"><stop offset="0" stop-color="#c6c5cb"/><stop offset="1" stop-color="#fff"/></radialGradient><clipPath id="f"><circle cx="100.46" cy="67.21" r="63.87" fill="none"/></clipPath><linearGradient id="h" x1="96.88" y1="-54.88" x2="96.88" y2="89.23" xlink:href="#c"/><clipPath id="i"><path d="M127.68,24.57c1.57-4.47,11.63-2.44,12.77,1.63.7,2.48-.29,6-.29,6s1.17-.17.78,1.64a4.1,4.1,0,0,1-2.53,2.8s.12-.33-.09.21a14.4,14.4,0,0,1-2.22,3.28,19.16,19.16,0,0,1,.41,2.16c.11,1,.27,9.2.27,9.2l-6,1.29s-2.38-9-2.4-9.64,0-1.61,0-1.61a5.19,5.19,0,0,1-1.56-2.92,20.63,20.63,0,0,1-.11-3.75s-1.45-.85-1.18-3.6c.14-1.48,1.15-.84,1.15-.85A13.3,13.3,0,0,1,127.68,24.57Z" fill="#e38b60" clip-rule="evenodd"/></clipPath><clipPath id="j"><path d="M128.39,43.64a27.49,27.49,0,0,1,2.11,5.54c.72,2.46,1.95,4.71,2.5,4.8,1.3.21,2.21-3,3.36-5.38,1.4-2.88.88-6.35.67-6.34,2.78-.13,10.15,2.56,13.11,5.25,3.64,3.31,2.8,10.09,2.8,10.09S149.4,70,148.66,74.35s-.31,12.59-.31,12.59a41.22,41.22,0,0,1-13.64,1.67,90.7,90.7,0,0,1-14-1.88s-.09-1.62,0-4a56.85,56.85,0,0,0-.73-7.6s-2.53,9.61-8.13,8.53c-4.38-.84-8-11.34-8-11.34s2.36-2.14,3.23-2.81,3.65-.52,3.65-.52,1.42-9.38,1.77-11c.58-2.73.88-6.17,3.85-9C120,45.38,123.91,44.28,128.39,43.64Z" fill="#3b3e5d" clip-rule="evenodd"/></clipPath><clipPath id="k"><path d="M144.09,79.7a70.54,70.54,0,0,1,4.16,7.19c.81,2,1.46,10.52,1.46,10.52s1.36.65,1.57,1.46-.94,3.32,1.56,20.72,9,63.51,9,63.51a12.63,12.63,0,0,1-3.74,1.06,5.15,5.15,0,0,1-3.85-.73s-1.72-7.32-3.25-12.61c-4-13.89-4.9-25.79-5.82-28.94C144,137.73,136,107,136,107s-1.77,29.36-1.77,33.12,1.22,16.12.92,27c-.19,6.84-.58,17.67-.58,17.67a17.71,17.71,0,0,1-4.2.36,10.28,10.28,0,0,1-3.29-.75s-3.13-35.69-4-47-2.34-35.41-2.87-38.24.63-2.71.63-2.71.27-3.67.26-4.36.73-10.52.73-10.52Z" fill="none" clip-rule="evenodd"/></clipPath><clipPath id="l"><path d="M149.5,66.13a20.23,20.23,0,0,0,2,4.89L147,67.28a5.25,5.25,0,0,0-4.59,1.25,4.11,4.11,0,0,0,.11,4.89c1.11,1.19,9.14,13.93,16.49,11.85,4.7-1.33-.72-19.21-2.4-27.88-1.37-7.11-8-11.12-8.05-11.07S149,63.77,149.5,66.13Z" fill="none" clip-rule="evenodd"/></clipPath><clipPath id="n"><path d="M80,48c2.34,1.52,11.61,12.71,11.61,12.71s4.19-6.16,5.82-8.63,1.9-4.82,4.08-5,6.66-.25,6.66-.25a12.22,12.22,0,0,0,1.67-1.49c.44-.52,2.5-3.19,2.91-3s-.9,2.93-1.75,3.9,1.14-.84,1.75-1.41,2.37-1.53,2.08-.83a30,30,0,0,1-4.16,4.57c-1.41,1.3-1.59,1.73-2.83,1.91s-5.31.09-5.5.33-3.44,8.85-5.24,12.29-4.09,6-5.74,6.15c-2.2.2-8.38-4.87-10.16-6.73s-4.85-12-5.86-13c-1.57-1.63-5-3.1-4.41-3.41S76.86,46,80,48Z" fill="#a4544a" clip-rule="evenodd"/></clipPath><clipPath id="o"><path d="M79.56,54.75s1.15-6.17-2.19-7.93c-2-1-5.82-1.22-9-1.08S55.2,47,53.72,51.05s2.6,10,4.56,12.75,5.21,11.62,5,12.24S55.79,87.69,56.5,95.2s6.39,50.76,7.19,55,1.41,8,1.41,8l1.34,8.35a27.65,27.65,0,0,1-2.27,4.65c-1,1.3-2.7,3.28-2,6.21s1.72,3.3,1.85,6.19c.06,1.1.09,2.32.09,2.32l1.5-.08.12-3.63c0-.45.33-1,.88.34a6.72,6.72,0,0,0,.74,1.38s-1.19,8.3-1.08,9.89,2.14,4,4,4.15,3.2-2.06,4-3.82c.59-1.3-.48-7.54-.48-7.54a15.09,15.09,0,0,0,3.58.23,25.76,25.76,0,0,0,3.65-.45,4.14,4.14,0,0,0-2.93-3.15c-2.51-.68-4.78-4-4.78-4s-.16-3.39-.24-5.15a70.71,70.71,0,0,1-.2-9c.34-3.54.51-10.5.51-10.5s2.36-7.37,3.36-9.91,11-24.07,11.09-39.84-2.38-21.45-3.33-24.42-2.66-7.74-2.66-7.74a7.34,7.34,0,0,1-.1-3.24c.47-2.17.74-3.1.74-3.1a6.78,6.78,0,0,0,1.63-6.53A8.35,8.35,0,0,0,79.56,54.75Z" fill="#a4544a" clip-rule="evenodd"/></clipPath><clipPath id="p"><path d="M72.69,29.1s2.86,1.5,3.2,3.81c.19,1.25,0,1.83.18,3A7.63,7.63,0,0,1,75,40.67c-1,1.2-1.32,1.5-1.68,1.54a5.48,5.48,0,0,1-1.66-.16,5.1,5.1,0,0,0-.31,1.73c-.06,1.19-.15,1.42.14,1.71a2.5,2.5,0,0,0,1.17.33,25.64,25.64,0,0,1,1.91,5.9,62.38,62.38,0,0,1,.75,6.9L67.88,51c-2.77-2.81-4.57-4.71-4.57-4.71s2.36-.2,2.64-1a47.76,47.76,0,0,0,.41-5.75c0-.29-.13-1.24-.13-1.24s-2.7-.93-2.17-2.93c.42-1.56,2.08-.14,2.08-.14a29.91,29.91,0,0,1,3.36-4.35A11.9,11.9,0,0,1,72.69,29.1Z" fill="#a4544a" clip-rule="evenodd"/></clipPath><clipPath id="q"><path d="M56.07,69.17s6.86-13,4.24-17.28S54.54,47.7,53,52.8s-6.63,22.67-4.91,24.27C51.61,80.36,56.07,69.17,56.07,69.17Z" fill="none" clip-rule="evenodd"/></clipPath><clipPath id="r"><path d="M56.07,69.17a3.93,3.93,0,0,0-.75-.16,6.21,6.21,0,0,0-4.45,1.31c-1.74,1.27-3.61,6-2.79,6.75,1.62,1.47,6.79-.27,11.48-1.66,4.34-1.29,4.64-2.16,6.39-2.59.93-.23,1.45,0,3.74.31a10.14,10.14,0,0,0,2.19.24c1.36-.09,2.05-.18,3.28-3.43a2.53,2.53,0,0,1,.39-.71,1.23,1.23,0,0,0,1.17-.86c.3-.89-.5-1.07-1.31-1.23S73,66.75,73,66.75a4.82,4.82,0,0,0-1.17-1.09,3.12,3.12,0,0,0-3,.7c-1,1-1.55,1.64-2.11,1.79C65.16,68.57,56.07,69.17,56.07,69.17Z" fill="#a4544a" clip-rule="evenodd"/></clipPath><linearGradient id="s" x1="97.63" y1="82.07" x2="101.51" y2="139.69" gradientUnits="userSpaceOnUse"><stop offset="0" stop-color="#bd03ad"/><stop offset="1" stop-color="#250254"/></linearGradient></defs><g style="isolation:isolate"><g clip-path="url(#a)"><g clip-path="url(#b)"><rect x="-186.43" y="-7.96" width="207.27" height="169.7" fill="url(#c)"/></g><path d="M-72.71,63.5c.29,1.65,6.53,17.62,8.47,18.2,3.29,1,17.56-6.41,17.56-6.41s.56,10.16.9,14.62-.21,13-.13,14.49-.38,6.66-.38,6.66l-1.16,3.46s.44,8.73,1.54,22.44,2,21,3.73,39c1.54,16.26,1.7,24.87,1.7,24.87.55-.61,5.63.34,5.93.77,0,0,.49-7.44.56-15.26.13-14.29.35-14.35.52-18.84.11-3-1.9-8.8-1.16-21.54.69-11.82,1.41-15.39,1.41-15.39s4.1,14.79,6.16,22.44,5.48,21.67,6.92,27.69a161.26,161.26,0,0,1,3.4,21.8,9.21,9.21,0,0,1,3.25-.26,22.94,22.94,0,0,1,3.48.9s-.32-9.74-1.31-19.32S-14,166.61-15,160.55s-2.86-39.29-2.82-41a9.1,9.1,0,0,0-.64-3.33,9.68,9.68,0,0,1,0-2.18c.11-1.51-.35-11.05-.26-14.61s3.11-17,4.34-20S-9,74.07-10,70.07-23.62,58.78-27.84,57.53s-12,1.61-14.61,2.43-3.26,1.28-6.33,3.32-13.16,8.29-13.16,8.29-1.6-3.08-2.69-5.12-3.84-7.7-3.84-7.7S-73,62-72.71,63.5Z" fill="#938bc4" fill-rule="evenodd"/><g clip-path="url(#d)"><path d="M-71.12,181.8A47.13,47.13,0,0,0-24,228.93,47.13,47.13,0,0,0,23.14,181.8,47.13,47.13,0,0,0-24,134.67,47.13,47.13,0,0,0-71.12,181.8Z" fill-opacity="0.7" fill-rule="evenodd" fill="url(#e)" style="mix-blend-mode:multiply"/></g></g><polygon points="36.59 75.79 4.84 87.92 36.59 58.62 47.92 67.21 36.59 75.79" fill="#fff"/><g clip-path="url(#f)"><g clip-path="url(#f)"><rect x="-6.75" y="-15.19" width="207.27" height="169.7" fill="url(#h)"/></g><path d="M127.68,24.57c1.57-4.47,11.63-2.44,12.77,1.63.7,2.48-.29,6-.29,6s1.17-.17.78,1.64a4.1,4.1,0,0,1-2.53,2.8s.12-.33-.09.21a14.4,14.4,0,0,1-2.22,3.28,19.16,19.16,0,0,1,.41,2.16c.11,1,.27,9.2.27,9.2l-6,1.29s-2.38-9-2.4-9.64,0-1.61,0-1.61a5.19,5.19,0,0,1-1.56-2.92,20.63,20.63,0,0,1-.11-3.75s-1.45-.85-1.18-3.6c.14-1.48,1.15-.84,1.15-.85A13.3,13.3,0,0,1,127.68,24.57Z" fill="#e38b60" fill-rule="evenodd"/><g clip-path="url(#i)"><path d="M126.77,22.24,134.14,21s6.2,2.73,6.6,3,.93,5.1.9,6.1c0,.43-.71,1-1.37,2.15a24.35,24.35,0,0,0-1.8,3.76,6,6,0,0,1,.15-1.1c.13-.52.38-2.06.47-2.4a5.11,5.11,0,0,0-.51-3c-.37-.39-1.9,1.36-6.44,0a4.78,4.78,0,0,1-2.55-2.4c-.92,1.23-.22,2.4-1.68,2.05-.63-.14-.89,3.81-.89,3.81a19.54,19.54,0,0,1-.21-2.07,2,2,0,0,0-.55-1.16Z" fill="#532129" fill-rule="evenodd"/><path d="M136.27,40.83l-5.49,6.69c-1.11-.82-2-1.15-2.1-1.32-.18-.36-.62-3.4-.62-3.4l-.49-2a7.68,7.68,0,0,0,4.28,2c2.27.11,3.3-1.76,3.81-2.27l.44-.45Z" fill="#c26046"/></g><path d="M130.27,34.44a15.39,15.39,0,0,1-1.85-.76l.82-.2s.56.26,1.2.49a4.19,4.19,0,0,1,1,.47A7,7,0,0,1,130.27,34.44Z" fill="#a4544a" fill-rule="evenodd"/><path d="M129.19,31.44c-.6,0-1.36,1-1.36,1a3.59,3.59,0,0,1,1-.31,3.8,3.8,0,0,1,1.4.09,10.48,10.48,0,0,0,1.64.45c.22,0-.17-.47-.17-.47A13.37,13.37,0,0,0,129.19,31.44Z" fill="#7c3a30" fill-rule="evenodd"/><path d="M149.5,66.13a20.23,20.23,0,0,0,2,4.89L147,67.28a5.25,5.25,0,0,0-4.59,1.25,4.11,4.11,0,0,0,.11,4.89c1.11,1.19,9.14,13.93,16.49,11.85,4.7-1.33-.72-19.21-2.4-27.88-1.37-7.11-8-11.12-8.05-11.07S149,63.77,149.5,66.13Z" fill="#3b3e5d" fill-rule="evenodd"/><path d="M127.52,45.9l1.56,8.53,4,3.33,5-4.47,2.4-6.87s-2.14-.56-2.45-1.53a7.82,7.82,0,0,0-1.44-2.21s-.38,1-.58,1.53c-.33.95-3.16,3.93-6.05,1-1.31-1.35-1.34-1.82-1.34-1.82l-.19.29s.83.54.59,1.11-1.15.63-1.15.63Z" fill="#d8cae1" fill-rule="evenodd"/><path d="M144.09,79.7a70.54,70.54,0,0,1,4.16,7.19c.81,2,1.46,10.52,1.46,10.52s1.36.65,1.57,1.46-.94,3.32,1.56,20.72,9,63.51,9,63.51a12.63,12.63,0,0,1-3.74,1.06,5.15,5.15,0,0,1-3.85-.73s-1.72-7.32-3.25-12.61c-4-13.89-4.9-25.79-5.82-28.94C144,137.73,136,107,136,107s-1.77,29.36-1.77,33.12,1.22,16.12.92,27c-.19,6.84-.58,17.67-.58,17.67a17.71,17.71,0,0,1-4.2.36,10.28,10.28,0,0,1-3.29-.75s-3.13-35.69-4-47-2.34-35.41-2.87-38.24.63-2.71.63-2.71.27-3.67.26-4.36.73-10.52.73-10.52Z" fill="#cfb0af" fill-rule="evenodd"/><path d="M128.39,43.64a27.49,27.49,0,0,1,2.11,5.54c.72,2.46,1.95,4.71,2.5,4.8,1.3.21,2.21-3,3.36-5.38,1.4-2.88.88-6.35.67-6.34,2.78-.13,10.15,2.56,13.11,5.25,3.64,3.31,2.8,10.09,2.8,10.09S149.4,70,148.66,74.35s-.31,12.59-.31,12.59a41.22,41.22,0,0,1-13.64,1.67,90.7,90.7,0,0,1-14-1.88s-.09-1.62,0-4a56.85,56.85,0,0,0-.73-7.6s-2.53,9.61-8.13,8.53c-4.38-.84-8-11.34-8-11.34s2.36-2.14,3.23-2.81,3.65-.52,3.65-.52,1.42-9.38,1.77-11c.58-2.73.88-6.17,3.85-9C120,45.38,123.91,44.28,128.39,43.64Z" fill="#3b3e5d" fill-rule="evenodd"/><g clip-path="url(#j)"><path d="M128.79,43.74,136.67,42a4,4,0,0,1,1.15,1.77,37.81,37.81,0,0,1-1.09,8.9c-.43,1.36-2.95,4.28-3.81,4.33-.56,0-1.79-1.38-3.28-4.26-.57-1.09-1.93-5.76-1.93-5.76Z" fill="#484b68" fill-rule="evenodd"/><path d="M148.55,71.93c-.15-.91.19-8.45.19-8.45l2.11,6.72S148.7,72.84,148.55,71.93Z" fill="#484b68" fill-rule="evenodd"/><path d="M115.43,70.2s1.75-5.41,1.72-6.53.77-9.21.77-9.21.27,4.81.29,6.43,2.11,17.28,2.11,17.28l-2.21,6.14-6.81,1.25s-5.87-5.51-6.43-6.43S106.31,74,106.31,74l5.18-.86Z" fill="#484b68" fill-rule="evenodd"/><path d="M149.41,83.74a9.19,9.19,0,0,0-1-1.83c-.27-.12-1.83-.67-1.83-.67l-.38,6.53s.09.08.58,0a21,21,0,0,0,2.4-1Z" fill="#597474" fill-rule="evenodd" style="mix-blend-mode:screen"/></g><path d="M107.75,68.47l2.78,1.63s1.28,3.1,1.25,3.27.43,3-3.55,3.84a7,7,0,0,1-3.27-.58l-1.63-4.13L105,68.57Z" fill="#f7edff" fill-rule="evenodd"/><path d="M131.38,39.78c.43.12,2.32.36,2.32.36a4.19,4.19,0,0,1-2.67.33,3.48,3.48,0,0,1-1.7-1.45C129.28,39,130.89,39.63,131.38,39.78Z" fill="#c26046" fill-rule="evenodd"/><path d="M133.56,38.24a6.4,6.4,0,0,1-1.94.35c-.5-.12-1-.84-1-.84a5.45,5.45,0,0,0,1.08.26c.44,0,1,.06,1,.06l.79-3.29.65-1.34,2.3.33v.41h-1.67l-.39.83Z" fill="#c26046" fill-rule="evenodd"/><g clip-path="url(#k)"><path d="M137,127c0,.48-1.92,58.56-1.92,58.56a98.6,98.6,0,0,1-.77-10.08c-.13-5.49-1-29.39-1.34-37-.3-6.24,2.4-34.37,2.4-34.37l1,6.33S137,126.55,137,127Z" fill="#b57a76" fill-rule="evenodd" style="mix-blend-mode:screen"/><path d="M159.88,159.49l2.49,24.19S157.8,160,154.89,142s-6.44-44.45-6.44-44.45l3.65,2.79Z" fill="#b57a76" fill-rule="evenodd" style="mix-blend-mode:screen"/><path d="M120.52,89.5l3.55.19s-.75,5.27-2.4,6.24a3.94,3.94,0,0,1-1.35.48Z" fill="#694b75" fill-rule="evenodd"/></g><path d="M126.86,34.05a2.52,2.52,0,0,1-.43-.22c-.25-.17-.51-1.38-.51-1.38l.47.51s-.24-.61-.36-1-.07-.71.27-.73.63,1.46.63,1.46Z" fill="#c26046" fill-rule="evenodd"/><path d="M138.66,35.74s1.19-.82,1.48-1-1,.34-1,.34l.83-.71s.43-.84.23-1.17-1.26,1.7-1.26,1.7Z" fill="#c26046" fill-rule="evenodd"/><path d="M135.23,35.56a14,14,0,0,0,2,.2l-.62-.56s-.62,0-1.29-.13a4,4,0,0,0-1.1,0A6.71,6.71,0,0,0,135.23,35.56Z" fill="#a4544a" fill-rule="evenodd"/><path d="M137.34,33.44c.55.25.77,1.52.77,1.52a3.66,3.66,0,0,0-.79-.73,4,4,0,0,0-1.46-.46,9.19,9.19,0,0,1-1.68-.33c-.19-.11.52-.41.52-.41A13.35,13.35,0,0,1,137.34,33.44Z" fill="#7c3a30" fill-rule="evenodd"/><path d="M129.45,45.62l2.21.72,2.54,0L136.61,45l.64-.49a34,34,0,0,1,1.23,4.16c.39,1.93-1.06,4.65-1.06,4.65l-5.21-6.57-4.36,6.89a20.72,20.72,0,0,1-1-3,13.51,13.51,0,0,1,.26-5Z" fill="#d4cbd3" fill-rule="evenodd" style="mix-blend-mode:multiply"/><path d="M131.93,46.57s-1,1.16-1.78,2.18-2.22,2.82-2.22,2.82-.65-1.16-.86-3a12,12,0,0,1,.24-4.76c.72-1.31,1-1.38,1-1.38A5.77,5.77,0,0,0,131,45.94a3.61,3.61,0,0,0,4.27-1.17,12.74,12.74,0,0,0,1-3.81,2.47,2.47,0,0,1,.82.75c.27.44,1.1,2.16,1.15,5.61a28.32,28.32,0,0,1-1.07,4.42,26.38,26.38,0,0,1-3.18-3.23,8.87,8.87,0,0,0-1.85-1.95Z" fill="#f7edff" fill-rule="evenodd"/><g clip-path="url(#l)"><path d="M151.73,42.76l8.58,8s3.59,16.08,4,17A52.19,52.19,0,0,1,163,82.17c-1.17,4-4.49,3.55-4.49,3.55A17.2,17.2,0,0,0,160,79.08c-.17-4.12-1.85-9.48-4.87-22.2-2.59-10.91-10.94-12.8-10.94-12.8Z" fill="#4d506c" fill-rule="evenodd"/></g><path d="M147,68.68c0,.54,0,1,0,1a34,34,0,0,1,3.75,2.59c1.07,1,5.18,4.13,5.18,4.13a42.47,42.47,0,0,0-3-3.84,74.76,74.76,0,0,0-6.05-5.28S147,68,147,68.68Z" fill="#4d506c" fill-rule="evenodd"/><path d="M100.44,62.83l8,11.34a1.88,1.88,0,0,0,1.44.71l28.66,1.28c.56,0,1-.85.73-1.46l-7.61-12.28a1.86,1.86,0,0,0-1.43-.71l-28.74-.34C101,61.36,100.08,62.14,100.44,62.83Z" fill="#bbadc8" fill-rule="evenodd"/><path d="M100.44,63,108,75.14a1.89,1.89,0,0,0,1.43.71l28.72.34c.55,0,.8-.3.56-.69l-7.51-12.13a1.84,1.84,0,0,0-1.44-.71L101,62.32C100.46,62.31,100.2,62.62,100.44,63Z" fill="#d8cae1" fill-rule="evenodd"/><path d="M120.85,89.49a64.69,64.69,0,0,0,12.3,1.77,81.87,81.87,0,0,0,16-1.46l-.42-2.19s-8.4,1.82-14.89,1.57A91,91,0,0,1,121,87.61Z" fill="#68282a" fill-rule="evenodd"/><path d="M129.08,88.55l-.31,3.23s-1.33-.16-1.46-.21a26.42,26.42,0,0,1,.21-3.23Z" fill="#cfb0af" fill-rule="evenodd"/><path d="M141.27,88.55l.31,3.23s1.31-.16,1.44-.21a28.57,28.57,0,0,0-.21-3.23Z" fill="#cfb0af" fill-rule="evenodd"/><path d="M133.59,90.55h1.14v-.47s-1.4,0-1.72,0a.24.24,0,0,0,0,.47Z" fill="#e1d8de"/><path d="M134.68,91.75c.75,0,2.38-.1,2.46-.1a.24.24,0,0,0,.22-.25.23.23,0,0,0-.25-.21s-2,.11-2.57.09c-.4,0-.61-.06-.64-1.12,0-.76.16-.89.74-.91.82,0,2.37,0,2.38,0a.23.23,0,1,0,0-.46c-.06,0-1.57,0-2.41,0-1,0-1.2.58-1.18,1.39,0,1,.2,1.54,1.09,1.57Z" fill="#e1d8de"/><g clip-path="url(#l)"><path d="M141.48,66.68l4.69-1,3.33,3.23s1.28,5.06-.62,6.77c-1.41,1.25-5.11.62-5.11.62s.28,1.33-1,0S141.27,71,141.27,71Z" fill="#f7edff" fill-rule="evenodd"/></g><path d="M141.79,70.33a7.48,7.48,0,0,1-1-1.57,4.13,4.13,0,0,1-2,.11c-.79-.26-2.29-2.5-2.29-2.5s-2.11-1-2-2.19c.05-.49,1.77-.21,1.77-.21s.2-.45.42-.83S138.56,61,138.56,61l-.62-.73h-1.46a5.06,5.06,0,0,1-.83,1c-.64.66-1.5.9-1.67.42s1.49-2.67,1.67-2.92,3.75-.1,3.75-.1l1.14,1.46,1.15,1.25a8.8,8.8,0,0,1,1.25,2.08c.36,1,3.44,4.58,3.44,4.58a13.33,13.33,0,0,1,.21,2.71c-.11.85-.89,1.81-1.67,1.77s-1.67-1.66-1.67-1.66S142.54,71.21,141.79,70.33Z" fill="#e3895e" fill-rule="evenodd"/><path d="M142.6,62.62a16.43,16.43,0,0,0,3.45,5,7.75,7.75,0,0,1,.29,1.63,16.34,16.34,0,0,1-.09,2,9.93,9.93,0,0,0-1.54-1.54c-.43-.29-4.23-3.84-4.23-3.84L140,64.54a18,18,0,0,0,.2-3.17,2.79,2.79,0,0,1,.19-1.44A14,14,0,0,1,142.6,62.62Z" fill="#f6b4ab" fill-rule="evenodd"/><path d="M105.31,73.22c.45.28,1-.57,1-.57l-.42-1a8.46,8.46,0,0,1-.38-1.5c0-.4-.69-1-.69-1a12.4,12.4,0,0,0,2.64,0c.72-.18-.27-2.16-.57-2.62s-1.43-.66-2.63-1a4.8,4.8,0,0,0-2.4,0s0-1,.77-1c1,0,2.1.38,3,0,.46-.21-.19-.42-.57-.87s-3.83-.47-4.46-.24-.34,3-.34,3,2.51,3.22,2.88,3.64,1.48,2.21,1.48,2.21A2.15,2.15,0,0,0,105.31,73.22Z" fill="#e38b60" fill-rule="evenodd"/><path d="M80,48c2.34,1.52,11.61,12.71,11.61,12.71s4.19-6.16,5.82-8.63,1.9-4.82,4.08-5,6.66-.25,6.66-.25a12.22,12.22,0,0,0,1.67-1.49c.44-.52,2.5-3.19,2.91-3s-.9,2.93-1.75,3.9,1.14-.84,1.75-1.41,2.37-1.53,2.08-.83a30,30,0,0,1-4.16,4.57c-1.41,1.3-1.59,1.73-2.83,1.91s-5.31.09-5.5.33-3.44,8.85-5.24,12.29-4.09,6-5.74,6.15c-2.2.2-8.38-4.87-10.16-6.73s-4.85-12-5.86-13c-1.57-1.63-5-3.1-4.41-3.41S76.86,46,80,48Z" fill="#a4544a" fill-rule="evenodd"/><g clip-path="url(#n)"><path d="M87,54.05l-5.29,6.89L78.65,62s-9-13.28-7.77-16.2,8,.59,8,.59Z" fill="#f7edff" fill-rule="evenodd"/><path d="M109.15,50.39a3.81,3.81,0,0,1-1-.65,1.1,1.1,0,0,1-.24-.35c-.24-.55-2-.91-2-.91l-4.74,1.08a3.69,3.69,0,0,1,.91.75,6.23,6.23,0,0,1,.5.66,28.83,28.83,0,0,1,3.83-.25A10.9,10.9,0,0,0,109.15,50.39Z" fill="#dbd7db" fill-rule="evenodd" style="mix-blend-mode:multiply"/><path d="M93.09,58.2s-1.7,2.85-2.33,3.83-1.33,2-1.33,2a12.11,12.11,0,0,1,.75-3.16c.51-1,1.75-3.16,1.75-3.16Z" fill="#dbd7db" fill-rule="evenodd" style="mix-blend-mode:multiply"/><path d="M79.28,53.47s-.27-3.29.08-3.58c.13-.1.55,1,.75,2.83.08.66.09,1.76.34,1.91a11.2,11.2,0,0,1,4,4.24,29.07,29.07,0,0,1,1.33,4.32c.85,2.78,1.83,5.4,1.83,5.4l-4.66-3-.16-2.91v-4.4a14.58,14.58,0,0,1-2.5-2.5A6.08,6.08,0,0,1,79.28,53.47Z" fill="#cec6ca" fill-rule="evenodd" style="mix-blend-mode:multiply"/></g><path d="M56.07,69.17s6.86-13,4.24-17.28S54.54,47.7,53,52.8s-6.63,22.67-4.91,24.27C51.61,80.36,56.07,69.17,56.07,69.17Z" fill="#a4544a" fill-rule="evenodd"/><path d="M78.28,51.31s-2-9.9-2.16-11.31a11.86,11.86,0,0,1,.25-3.32c.13-.67,1.48-6-1.83-8.4s-10-2.39-11.73,1.17-1,7-1.09,9.89-4.49,12.3-4.49,12.3S60.88,65.58,64,67.18s13.75-1.89,15.31-5.74S78.28,51.31,78.28,51.31Z" fill="#152055" fill-rule="evenodd"/><g opacity="0.2" style="mix-blend-mode:soft-light"><path d="M78.28,51.31s-2-9.9-2.16-11.31a11.86,11.86,0,0,1,.25-3.32c.13-.67,1.48-6-1.83-8.4s-10-2.39-11.73,1.17-1,7-1.09,9.89-4.49,12.3-4.49,12.3S60.88,65.58,64,67.18s13.75-1.89,15.31-5.74S78.28,51.31,78.28,51.31Z" fill="#fb0d1b" fill-rule="evenodd"/></g><path d="M79.56,54.75s1.15-6.17-2.19-7.93c-2-1-5.82-1.22-9-1.08S55.2,47,53.72,51.05s2.6,10,4.56,12.75,5.21,11.62,5,12.24S55.79,87.69,56.5,95.2s6.39,50.76,7.19,55,1.41,8,1.41,8l1.34,8.35a27.65,27.65,0,0,1-2.27,4.65c-1,1.3-2.7,3.28-2,6.21s1.72,3.3,1.85,6.19c.06,1.1.09,2.32.09,2.32l1.5-.08.12-3.63c0-.45.33-1,.88.34a6.72,6.72,0,0,0,.74,1.38s-1.19,8.3-1.08,9.89,2.14,4,4,4.15,3.2-2.06,4-3.82c.59-1.3-.48-7.54-.48-7.54a15.09,15.09,0,0,0,3.58.23,25.76,25.76,0,0,0,3.65-.45,4.14,4.14,0,0,0-2.93-3.15c-2.51-.68-4.78-4-4.78-4s-.16-3.39-.24-5.15a70.71,70.71,0,0,1-.2-9c.34-3.54.51-10.5.51-10.5s2.36-7.37,3.36-9.91,11-24.07,11.09-39.84-2.38-21.45-3.33-24.42-2.66-7.74-2.66-7.74a7.34,7.34,0,0,1-.1-3.24c.47-2.17.74-3.1.74-3.1a6.78,6.78,0,0,0,1.63-6.53A8.35,8.35,0,0,0,79.56,54.75Z" fill="#a4544a" fill-rule="evenodd"/><g clip-path="url(#o)"><path d="M82.36,133.58l-8.82,23.36a41.29,41.29,0,0,1,0-7c.3-4.56,1.58-15.55,1.58-15.55l5.24-1.24Z" fill="#da9085" fill-rule="evenodd"/><path d="M83.16,71.52a61.85,61.85,0,0,1,5,20.55c1.68,21.7-6.56,43.93-6.56,43.93s-5.41-.05-12.82-.18-9.56.46-9.56.46-4.91-38.65-2.81-47.81S62.65,76,61.43,74,51.7,58.54,52.15,54s2-6.18,5.11-7.06A20,20,0,0,1,63,46.2s10-2.12,13.22-.58,5.59,3.89,6.19,6.3a90.92,90.92,0,0,0,3.26,8.63Z" fill="#938bc4" fill-rule="evenodd"/><path d="M84.94,79.89S81.66,90.32,78.78,112c-1.48,11.13-3.91,24.1-3.91,24.1l6.66.16,5.74-7.48s4.13-15.36,3.66-23.1S84.94,79.89,84.94,79.89Z" fill="#e0d2e3" fill-rule="evenodd" style="mix-blend-mode:multiply"/><path d="M84.94,61.44a3.93,3.93,0,0,0-4,0,11.44,11.44,0,0,1-5.66,1.42c-1.06-.09-4.09-1.76-6.83-.34s-7.4,8.73-7.4,8.73-.73,3.28,1,3.49,3.8-1.11,5-1.24c2.33-.27,4.2,1.21,7.24.74s4.38-2.5,5.41-2.74,4.57-1.08,4.57-1.08-.88-2.46.09-4S84.94,61.44,84.94,61.44Z" fill="#e0d2e3" fill-rule="evenodd" style="mix-blend-mode:multiply"/><path d="M61.14,71l-3.58-7.56,1.83-6.9s1.17,1.6,1.25,7.07A64.62,64.62,0,0,0,61.14,71Z" fill="#857db5" fill-rule="evenodd"/></g><path d="M72.69,29.1s2.86,1.5,3.2,3.81c.19,1.25,0,1.83.18,3A7.63,7.63,0,0,1,75,40.67c-1,1.2-1.32,1.5-1.68,1.54a5.48,5.48,0,0,1-1.66-.16,5.1,5.1,0,0,0-.31,1.73c-.06,1.19-.15,1.42.14,1.71a2.5,2.5,0,0,0,1.17.33,25.64,25.64,0,0,1,1.91,5.9,62.38,62.38,0,0,1,.75,6.9L67.88,51c-2.77-2.81-4.57-4.71-4.57-4.71s2.36-.2,2.64-1a47.76,47.76,0,0,0,.41-5.75c0-.29-.13-1.24-.13-1.24s-2.7-.93-2.17-2.93c.42-1.56,2.08-.14,2.08-.14a29.91,29.91,0,0,1,3.36-4.35A11.9,11.9,0,0,1,72.69,29.1Z" fill="#a4544a" fill-rule="evenodd"/><g clip-path="url(#p)"><path d="M73.21,42.25a11.06,11.06,0,0,1-3.41-2.5c-2.44-2.72-1.29-3.44-1.53-4.13-.38-1.12-.65-1.48,0-2.6.18-.35-.75-.5-.75-.5l-1.34,2.41s-.49,3.12.5,4,3.89,2.87,5,3.08,2.08.41,2.08.41Z" fill="#7c3a30" fill-rule="evenodd"/><path d="M73.37,42.25a7.77,7.77,0,0,1-3.24-1,13.86,13.86,0,0,1-3.75-2.66c-.18-.31-.29-.33-.29-.33l0,2.16s2,4.66,3.91,5.07c1.73.36,2-1.86,2.08-2S73.37,42.25,73.37,42.25Z" fill="#7c3a30" fill-rule="evenodd"/><path d="M66.39,38.62s.3,5.09.33,6.12a1.67,1.67,0,0,1-1.33,1.91l-2.42.5a.92.92,0,0,1,.17-1.08c.76-.65,2.47-1.21,2.58-1.75.15-.73.28-4.84.4-6C66.15,38.13,66.39,38.62,66.39,38.62Z" fill="#7c3a30" fill-rule="evenodd"/></g><g clip-path="url(#q)"><path d="M58.4,67.35a5.64,5.64,0,0,0-4.25-2.66,23.26,23.26,0,0,0-5.24.16S51.8,53.1,53.07,51s4.6-4.65,6.32-2.57,3,6.45,2.5,8.72S58.4,67.35,58.4,67.35Z" fill="#f7edff" fill-rule="evenodd"/></g><path d="M56.07,69.17a3.93,3.93,0,0,0-.75-.16,6.21,6.21,0,0,0-4.45,1.31c-1.74,1.27-3.61,6-2.79,6.75,1.62,1.47,6.79-.27,11.48-1.66,4.34-1.29,4.64-2.16,6.39-2.59.93-.23,1.45,0,3.74.31a10.14,10.14,0,0,0,2.19.24c1.36-.09,2.05-.18,3.28-3.43a2.53,2.53,0,0,1,.39-.71,1.23,1.23,0,0,0,1.17-.86c.3-.89-.5-1.07-1.31-1.23S73,66.75,73,66.75a4.82,4.82,0,0,0-1.17-1.09,3.12,3.12,0,0,0-3,.7c-1,1-1.55,1.64-2.11,1.79C65.16,68.57,56.07,69.17,56.07,69.17Z" fill="#a4544a" fill-rule="evenodd"/><g clip-path="url(#r)"><path d="M57.07,68.84a16.36,16.36,0,0,0-3.67,1.25c-1.23.72-2.33,1.49-2.33,1.49A4.85,4.85,0,0,1,54,69,7.57,7.57,0,0,1,57.07,68.84Z" fill="#dbd7db" fill-rule="evenodd" style="mix-blend-mode:multiply"/></g><path d="M73.79,55.13l.08-2-1.16-.66-.42,1.16Z" fill="#e7e1e1" fill-rule="evenodd"/><path d="M64.71,45.87A44.45,44.45,0,0,0,68,49.13c1.28,1.11,4.13,3.54,5.07,4.21a35.56,35.56,0,0,0-1-7.59" fill="none" stroke="#c4a4ac" stroke-miterlimit="10" stroke-width="0.37"/><path d="M72.71,52.39l.66.91.42,1.83-1.5-1.5Z" fill="#fff" fill-rule="evenodd"/><path d="M74.18,38.32a1.79,1.79,0,0,1-1.3.77,9.18,9.18,0,0,1-2.75-.65,5.8,5.8,0,0,0,2.68,1.31c.92,0,1.16-.32,1.35-.83A1.34,1.34,0,0,0,74.18,38.32Z" fill="#81453a" fill-rule="evenodd"/><path d="M74.18,38.32a6.2,6.2,0,0,1-1.69.22c-1,0-2.36-.1-2.36-.1a29.22,29.22,0,0,1,3.56-.52C74.29,37.91,74.18,38.32,74.18,38.32Z" fill="#813631" fill-rule="evenodd"/><path d="M74.18,38.32s-.3.9-.89,1a7.6,7.6,0,0,1-3.24-.87s2.24.06,3,0S74.18,38.32,74.18,38.32Z" fill="#fff" fill-rule="evenodd"/><path d="M70.88,35.08l-.75-.51a3.19,3.19,0,0,0-1.17.16,3.31,3.31,0,0,0-1,.45s1.27-.08,1.74-.08Z" fill="#371c2c" fill-rule="evenodd"/><path d="M74.46,32.94a3.25,3.25,0,0,1-.5,1.49,2,2,0,0,1-.75.5s-.19-1.06.16-1.41A3.26,3.26,0,0,1,74.46,32.94Z" fill="#7c3a30" fill-rule="evenodd"/><path d="M71.13,33.35a2.36,2.36,0,0,1,0,.92.93.93,0,0,1-.42.66s-1.49-1.93-1.16-2A6.32,6.32,0,0,1,71.13,33.35Z" fill="#7c3a30" fill-rule="evenodd"/><path d="M74,37s-.22.49-.5.58-1.08-.25-1.08-.25Z" fill="#7c3a30" fill-rule="evenodd"/><path d="M71,32.85a4.91,4.91,0,0,0-2.24-.41c-.41.14-1.31,1.08-1.17,1.16s.9-.53,1.42-.41a8.77,8.77,0,0,0,2,.5C71.32,33.57,71.19,33,71,32.85Z" fill="#152055" fill-rule="evenodd"/><path d="M73.37,32.77a3.34,3.34,0,0,1,1.75-.66c.37.07.94.72.83.83s-.67-.22-1.08,0-1.16.64-1.41.58S73.28,33,73.37,32.77Z" fill="#152055" fill-rule="evenodd"/><path d="M76,34.64l-.93-.4a2.06,2.06,0,0,0-1.08.11c-.61.18-.65.52-.65.52l1.33-.12A11.89,11.89,0,0,0,76,34.64Z" fill="#371c2c" fill-rule="evenodd"/><path d="M66.07,36.15s-1.14-1.26-1.47-.88-.11.59.14.79,1.12.69,1.12.69-1.15-.51-1-.15,1,.6,1.15.7S66.07,36.15,66.07,36.15Z" fill="#7c3a30" fill-rule="evenodd"/><path d="M61.6,136c0-.14-1.93-14.38-3.45-26.36-.93-7.33-1.76-14-1.76-15.53,0-6,4.56-14,6.28-17,.3-.53.52-.91.59-1.07A4.84,4.84,0,0,0,63,74.76l.12,0a4.27,4.27,0,0,1,.29,1.34c-.07.17-.28.53-.6,1.08-1.71,3-6.26,10.93-6.26,16.94,0,1.49.83,8.19,1.76,15.51,1.52,12,3.43,26.22,3.45,26.37Z" fill="#c2b0d8"/><g opacity="0.88"><rect x="34.51" y="84.8" width="131.9" height="78.71" fill="url(#s)"/></g></g><circle cx="100.46" cy="67.21" r="63.87" fill="none" stroke="#fff" stroke-miterlimit="10" stroke-width="2.93"/></g></svg>