<svg xmlns="http://www.w3.org/2000/svg" xmlns:xlink="http://www.w3.org/1999/xlink" viewBox="0 0 130.67 163.05"><defs><clipPath id="a"><circle cx="-81.75" cy="67.26" r="63.87" fill="none"/></clipPath><linearGradient id="b" x1="-85.16" y1="-12.37" x2="-85.16" y2="89.27" gradientUnits="userSpaceOnUse"><stop offset="0" stop-color="#00b6ff"/><stop offset="0" stop-color="#52a0ff"/><stop offset="1" stop-color="#d7f2ff"/></linearGradient><clipPath id="d"><circle cx="65.34" cy="65.34" r="63.87" fill="none"/></clipPath><linearGradient id="e" x1="63.65" y1="-68.21" x2="63.65" y2="75.9" xlink:href="#b"/><linearGradient id="f" x1="87.55" y1="43.65" x2="106.85" y2="90.98" gradientUnits="userSpaceOnUse"><stop offset="0" stop-color="#fff"/><stop offset="1" stop-color="#fff" stop-opacity="0"/></linearGradient><clipPath id="g"><path d="M52.55,47.29a2.54,2.54,0,0,0-.57-.12,4.72,4.72,0,0,0-3.41,1c-1.33,1-2.77,4.6-2.14,5.17,1.24,1.13,5.2-.21,8.8-1.27,3.32-1,3.55-1.65,4.9-2,.71-.18,1.11,0,2.86.24a7.05,7.05,0,0,0,1.67.17c1-.07,1.58-.13,2.52-2.62a1.92,1.92,0,0,1,.3-.54,1,1,0,0,0,.9-.66c.22-.68-.39-.82-1-1s-1.87-.3-1.87-.3a3.55,3.55,0,0,0-.9-.83,2.39,2.39,0,0,0-2.26.53c-.73.73-1.19,1.26-1.62,1.38C59.52,46.83,52.55,47.29,52.55,47.29Z" clip-rule="evenodd"/></clipPath><clipPath id="h"><path d="M68.87,30.16c-1.51-.8-4.46-.93-6.88-.83s-10.1,1-11.23,4.08,2,7.62,3.49,9.77,4,8.9,3.86,9.37-5.77,8.93-5.23,14.69,4.9,38.89,5.51,42.14,1.09,6.14,1.09,6.14l1,6.41a21.53,21.53,0,0,1-1.74,3.56c-.74,1-2.07,2.51-1.51,4.76s1.32,2.52,1.42,4.74c0,.84.06,1.78.06,1.78l1.15-.06.1-2.79c0-.34.25-.75.67.27a5,5,0,0,0,.57,1.05s-.91,6.36-.83,7.58A4.08,4.08,0,0,0,63.45,146c1.43.09,2.46-1.59,3.06-2.93.45-1-.37-5.78-.37-5.78a11.7,11.7,0,0,0,2.75.17,19.44,19.44,0,0,0,2.8-.34,3.19,3.19,0,0,0-2.25-2.42c-1.92-.52-3.66-3.07-3.66-3.07s-.12-2.6-.19-3.94a54.06,54.06,0,0,1-.15-6.88c.26-2.71.39-8,.39-8s1.81-5.65,2.58-7.6,8.39-18.44,8.5-30.52-1.83-16.45-2.56-18.72-2-5.93-2-5.93a5.7,5.7,0,0,1-.08-2.48c.36-1.66.57-2.38.57-2.38a5.21,5.21,0,0,0,1.25-5C73.25,37.31,71.43,31.51,68.87,30.16Z" clip-rule="evenodd"/></clipPath><clipPath id="i"><path d="M100,49.92s-1.31-1.56-.54-2.41a8.3,8.3,0,0,1,6-1.82c2.25.36,3.78.79,4.83,1.76,1.21,1.13,2.46,5.56,1.74,7.37S107.84,59,107.84,59l-4.17-6.48Z" clip-rule="evenodd"/></clipPath><clipPath id="j"><path d="M100,49.57s-.08.27-.43,1.26-.47,1.48-.32,1.88.3,1,.3,1A4.49,4.49,0,0,1,99,54.94c-.44.69-.91,1.55-.6,1.79s1.2.18,1.2.18.09.34.48,1.37.74,2.6,1.3,2.71a4,4,0,0,0,1.92-.34s.66,1.8.91,2.27,1.89.56,1.89.56l3.51-2.26a12.05,12.05,0,0,1-1.22-2.46c-.09-.62-.16-1.19-.16-1.19l-.28-1.89a1.9,1.9,0,0,0,1.17-1.44c.32-1.22-.15-2.87-1.24-2.36-.84.4-.84,2.76-1.22,2.46s-.49-4.5-1.59-5.18-3.16.67-3.93.56Z" clip-rule="evenodd"/></clipPath><clipPath id="k"><path d="M108.37,59.47s7.62,2.64,9.76,3.76,5,3,5.32,5c.15.95-.26,8-.48,10.57s-3.54,15.93-4.57,19.26a13.48,13.48,0,0,1-13.18,9.77c-6.82,0-20.8,4.86-20.8,4.86a23.43,23.43,0,0,1,2.56,4c.64,1.52,2.3,5.92,3.46,8.48a39.15,39.15,0,0,1,2.38,8.12c0,.77-.86,1.27-2.83,1.22-2.28-.05-3.31-1.16-4.95-1.2a20.86,20.86,0,0,1-4.6-.94c-.48-.18-1.31-.52-1.31-.52s-.53,9-.76,10.6a26.68,26.68,0,0,0-.27,2.87l-1.27.58s0,2.13,0,3.13.58,2.64.53,3.36-.16,1.53-.16,1.53-5,.93-8.66,1.46a32.77,32.77,0,0,1-7.46.08s.91-2.21,2-2.41c3.31-.61,4.38-2.4,5.92-3.48,1.94-1.35,1.8-3.19,1.57-4.67s-.61-25.53-.37-30.8.48-9.66.48-9.66-5-8.25-1.41-11,7.92-2.13,11.84-2.26,15.08,0,15.08,0a21.17,21.17,0,0,1,.1-5.35,16.92,16.92,0,0,0,1.09-6.52c-.18-2.92-1.21-5.58-1.46-7.5-.47-3.66-.1-6.62,1.1-7.7s5-1.88,6.52-2.57S108.37,59.47,108.37,59.47Z" clip-rule="evenodd"/></clipPath><clipPath id="l"><path d="M108.59,58.49s.17.34-.76,1.68-2.25,2.68-2.66,2.66-1.07-.19-1.22-.49-.61-1.48-.61-1.48a2.9,2.9,0,0,0-.89,1.28,26.44,26.44,0,0,0-.61,4.94,11.13,11.13,0,0,1,1.07-1.48c.42-.43,1.9-2.27,1.9-2.27a26.15,26.15,0,0,0,1.55,2.27c.92,1.12,1.85,2.17,1.85,2.17A30.18,30.18,0,0,0,109.6,64a14.6,14.6,0,0,0,.37-2.94c0-.48.16-1-.1-1.31S108.59,58.49,108.59,58.49Z" clip-rule="evenodd"/></clipPath><clipPath id="m"><path d="M120.38,87.72s-4.25-11.82-3.14-15.41,4.8-6.43,5.61-5.43,2.31,8.83,3.93,15.31S129.25,94,127.94,95s-10.63-1.22-13.07-1.87c-3.17-.84-6.89-2.27-6.89-2.27l-.17-1-2.59-1.58s-2-.12-2.68-1.48-1.07-2.37-1.07-2.37a3.15,3.15,0,0,1-.77.29,1,1,0,0,1-.91-.29,4.16,4.16,0,0,1-1.15-2.17,4.74,4.74,0,0,1,.51-2.37,12.49,12.49,0,0,1,1.27-1.49,1.82,1.82,0,0,0-1.74-.88c-1.07.22-1.66.66-1.85.39s.29-1.3,1.67-1.48a4.17,4.17,0,0,1,4.94,2.76c.12.4.67,3,1.38,3.86s1.29,2.21,6.17,3.16S120.38,87.72,120.38,87.72Z" clip-rule="evenodd"/></clipPath><clipPath id="n"><path d="M73.8,74.36H91.65a1.72,1.72,0,0,1,1.36.81l5.46,10c.24.45,0,.82-.47.82H80.15a1.73,1.73,0,0,1-1.37-.82l-5.45-10C73.08,74.72,73.29,74.36,73.8,74.36Z" clip-rule="evenodd"/></clipPath><clipPath id="o"><path d="M78.2,84a4,4,0,0,1-2.11-1.49A23.4,23.4,0,0,1,74.32,79s-.72-1.1-1-1.62S73,76,73.7,75.74s2.42-.5,2.51.12-1.76.84-1.78,1.25a.78.78,0,0,0,.3.62,2.51,2.51,0,0,1,2.09-.5c1,.37,2.11.38,2.48,1.37s.49,1.92-.2,2.37c-.46.31-1.48.62-1.4,1.25A9.85,9.85,0,0,0,78.2,84Z" clip-rule="evenodd"/></clipPath><clipPath id="p"><path d="M39.07,55s.88-.69,0-2.61C38,50,34.86,49.18,34.86,49.18a1.59,1.59,0,0,0,.29-1.74,1.71,1.71,0,0,0-1.31-.87s-.24-.27-.43-.29a.56.56,0,0,0-.62.47,5.59,5.59,0,0,0-2.68-1.3,5.67,5.67,0,0,0-1.73.23s-2.61-1.14-4.19.51-.9,2.35-.9,2.35a4.21,4.21,0,0,0-1.64,3,4,4,0,0,0,.14,1.59s-1.57,1-.29,3.34,4,2.57,4.79,2,.74-1,.87-1S27,57.8,28,59a7.91,7.91,0,0,0,3,2l3.2-2.76Z" clip-rule="evenodd"/></clipPath><radialGradient id="q" cx="25.51" cy="55.57" r="12.46" gradientTransform="translate(-0.86 -0.48)" gradientUnits="userSpaceOnUse"><stop offset="0" stop-color="#ccafb8"/><stop offset="1" stop-color="#fff"/></radialGradient><clipPath id="r"><path d="M39,55.28a6.44,6.44,0,0,0-.28-2.12s.05-.11-.29,0-.2,1-1.55,1-3.11-1.19-4.1-.85-1.75,4.31-2,4.38-.43-.85-.43-.85-1.43-1.69-2-.14,1.37,2.54,1.37,2.54a2.63,2.63,0,0,1,0,.29c.55.49,1.31,1.2,2.07,1.93,1.24.92,2.4,1.73,2.4,1.73a3,3,0,0,0,1.84.28c.63-.09,1.81-2.14,2.4-3.53a4.1,4.1,0,0,0,.15-2.4A5,5,0,0,0,39,55.28Z"/></clipPath><clipPath id="s"><path d="M17.49,71.87c.75-1.53,2.34-5.45,1.09-6.94s-3.71-2.66-7,1.13S0,82,1.69,83.75c2.53,2.64,15.05,2.17,18.55,1.38l4.1-.93s.74.23,1.83-.67a13.17,13.17,0,0,0,1.77-1.76s.7.81,1.2.51A7.73,7.73,0,0,0,31.33,80c.16-.57-1.22-2.2-1.22-2.2s.68-.83,1.28-.78a2.81,2.81,0,0,1,1.18.46c.2.12.86-.51.57-.79s-2.23-1.26-2.84-.62a17.28,17.28,0,0,1-1.49,1.32,28.34,28.34,0,0,0-3.08,2.26c-.8.79-2,1.77-2,1.77L9.89,79.67c-1-.12-.84.64,1.35-1.13S16.73,73.4,17.49,71.87Z" clip-rule="evenodd"/></clipPath><linearGradient id="t" x1="66.18" y1="133.44" x2="66.18" y2="65.45" gradientUnits="userSpaceOnUse"><stop offset="0" stop-color="#bd03ad"/><stop offset="1" stop-color="#250254"/></linearGradient><clipPath id="u"><path d="M155,95c-1.8,1.46-5.69,1.41-5.69,1.41-.48-5.26-.15-10.6,2.05-18.64a58,58,0,0,0,.48-6.49,62.4,62.4,0,1,1,4,25.44Z" fill="none"/></clipPath><clipPath id="v"><circle cx="214.28" cy="74.43" r="63.87" fill="none"/></clipPath><linearGradient id="w" x1="210.7" y1="-47.66" x2="210.7" y2="96.45" xlink:href="#b"/></defs><g style="isolation:isolate"><g clip-path="url(#a)"><rect x="-188.8" y="-20.98" width="207.27" height="169.7" fill="url(#b)"/><rect x="-188.8" y="-20.98" width="207.27" height="169.7" fill="url(#b)"/></g><polygon points="62.92 124.66 46.19 163.06 45.09 122.12 57.85 111.65 62.92 124.66" fill="#fff"/><g clip-path="url(#d)"><rect x="-39.99" y="-28.52" width="207.27" height="169.7" fill="url(#e)"/><path d="M66.13,77l-.85-.08a1,1,0,0,0-1.06.88l-6.59,69.8a1,1,0,0,0,.88,1.07l.84.08a1,1,0,0,0,1.07-.89L67,78.06A1,1,0,0,0,66.13,77Z" fill="#d0c7d5" fill-rule="evenodd"/><path d="M69.27,77l.85-.08a1,1,0,0,1,1.06.88l6.59,69.8a1,1,0,0,1-.88,1.07l-.84.08a1,1,0,0,1-1.07-.89l-6.59-69.8A1,1,0,0,1,69.27,77Z" fill="#d0c7d5" fill-rule="evenodd"/><path d="M123,15.71H70.51a1.16,1.16,0,0,0-1.13,1l-8.75,93.53a.91.91,0,0,0,.93,1H114a1.16,1.16,0,0,0,1.13-1l8.76-93.53A.93.93,0,0,0,123,15.71Z" fill="#b5aebc" fill-rule="evenodd"/><path d="M121.58,17h-50a1.1,1.1,0,0,0-1.07,1l-8.41,90.8a.88.88,0,0,0,.89,1h50a1.1,1.1,0,0,0,1.07-1L122.47,18A.88.88,0,0,0,121.58,17Z" fill="#f6f2fd" fill-rule="evenodd"/><path d="M116.69,77l-.85-.08a1,1,0,0,0-1.07.88l-6.59,69.8a1,1,0,0,0,.89,1.07l.84.08a1,1,0,0,0,1.07-.89l6.59-69.8A1,1,0,0,0,116.69,77Z" fill="#d0c7d5" fill-rule="evenodd"/><path d="M118.59,77l.84-.08a1,1,0,0,1,1.07.88l6.59,69.8a1,1,0,0,1-.88,1.07l-.84.08a1,1,0,0,1-1.07-.89l-6.59-69.8A1,1,0,0,1,118.59,77Z" fill="#d0c7d5" fill-rule="evenodd"/><polygon points="114.08 96.06 66.12 96.06 72.59 19.6 120.54 19.6 114.08 96.06" fill="url(#f)"/><path d="M85.94,25.57H99.69" fill="none" stroke="#b2d6ef" stroke-miterlimit="10" stroke-width="0.73"/><path d="M86.33,28.42H98.27" fill="none" stroke="#b2d6ef" stroke-miterlimit="10" stroke-width="0.73"/><path d="M85.29,31.28H94.5" fill="none" stroke="#b2d6ef" stroke-miterlimit="10" stroke-width="0.73"/><path d="M91.71,41.3A15.09,15.09,0,0,1,100,32.52c1.27-.53,2.6-.89,3.82-1.53a9.32,9.32,0,0,0,4.63-5.87" fill="none" stroke="#b2d6ef" stroke-miterlimit="10" stroke-width="0.73"/><path d="M106.79,26.36a3.69,3.69,0,0,0,1.68-1.42" fill="none" stroke="#b2d6ef" stroke-miterlimit="10" stroke-width="0.73"/><path d="M108.65,24.92a4.65,4.65,0,0,0,.36,2" fill="none" stroke="#b2d6ef" stroke-miterlimit="10" stroke-width="0.73"/><path d="M85.26,53.76l6.58.16" fill="none" stroke="#b2d6ef" stroke-miterlimit="10" stroke-width="0.73"/><path d="M84.88,55.6l6.76.12" fill="none" stroke="#b2d6ef" stroke-miterlimit="10" stroke-width="0.73"/><path d="M87.78,58h3.09" fill="none" stroke="#b2d6ef" stroke-miterlimit="10" stroke-width="0.73"/><path d="M79.74,34.64q-.48,7.92-1.5,15.85" fill="none" stroke="#b2d6ef" stroke-miterlimit="10" stroke-width="0.73"/><path d="M108.09,34.64q-.47,7.92-1.49,15.85" fill="none" stroke="#b2d6ef" stroke-miterlimit="10" stroke-width="0.73"/><path d="M79,50.65H106.2" fill="none" stroke="#b2d6ef" stroke-miterlimit="10" stroke-width="0.73"/><path d="M78.75,44.72a5.87,5.87,0,0,1,5.56-2,22.72,22.72,0,0,1,5.47,2,8.63,8.63,0,0,0,5.81.72c2.06-.61,3.73-2.33,5.77-3a10.87,10.87,0,0,1,5.64.37" fill="none" stroke="#b2d6ef" stroke-miterlimit="10" stroke-width="0.73"/><path d="M84,43.36,83.22,50" fill="none" stroke="#b2d6ef" stroke-miterlimit="10" stroke-width="0.73"/><path d="M87.85,44l-.74,6.66" fill="none" stroke="#b2d6ef" stroke-miterlimit="10" stroke-width="0.73"/><path d="M91.19,45.26l-.61,5.55" fill="none" stroke="#b2d6ef" stroke-miterlimit="10" stroke-width="0.73"/><path d="M95.1,45.74l-.55,4.91" fill="none" stroke="#b2d6ef" stroke-miterlimit="10" stroke-width="0.73"/><path d="M99.08,44.15l-.71,6.34" fill="none" stroke="#b2d6ef" stroke-miterlimit="10" stroke-width="0.73"/><path d="M103.88,42.25,103,50.49" fill="none" stroke="#b2d6ef" stroke-miterlimit="10" stroke-width="0.73"/><path d="M52.55,47.29a2.54,2.54,0,0,0-.57-.12,4.72,4.72,0,0,0-3.41,1c-1.33,1-2.77,4.6-2.14,5.17,1.24,1.13,5.2-.21,8.8-1.27,3.32-1,3.55-1.65,4.9-2,.71-.18,1.11,0,2.86.24a7.05,7.05,0,0,0,1.67.17c1-.07,1.58-.13,2.52-2.62a1.92,1.92,0,0,1,.3-.54,1,1,0,0,0,.9-.66c.22-.68-.39-.82-1-1s-1.87-.3-1.87-.3a3.55,3.55,0,0,0-.9-.83,2.39,2.39,0,0,0-2.26.53c-.73.73-1.19,1.26-1.62,1.38C59.52,46.83,52.55,47.29,52.55,47.29Z" fill-rule="evenodd"/><g clip-path="url(#g)"><path d="M53.32,47a12.41,12.41,0,0,0-2.81,1c-.94.56-1.79,1.15-1.79,1.15a3.75,3.75,0,0,1,2.25-2A5.85,5.85,0,0,1,53.32,47Z" fill-rule="evenodd" style="mix-blend-mode:multiply"/></g><path d="M52.55,47.29s5.26-9.93,3.25-13.24-4.42-3.21-5.61.7-5.08,17.36-3.76,18.59C49.13,55.87,52.55,47.29,52.55,47.29Z" fill-rule="evenodd"/><path d="M68.87,30.16c-1.51-.8-4.46-.93-6.88-.83s-10.1,1-11.23,4.08,2,7.62,3.49,9.77,4,8.9,3.86,9.37-5.77,8.93-5.23,14.69,4.9,38.89,5.51,42.14,1.09,6.14,1.09,6.14l1,6.41a21.53,21.53,0,0,1-1.74,3.56c-.74,1-2.07,2.51-1.51,4.76s1.32,2.52,1.42,4.74c0,.84.06,1.78.06,1.78l1.15-.06.1-2.79c0-.34.25-.75.67.27a5,5,0,0,0,.57,1.05s-.91,6.36-.83,7.58A4.08,4.08,0,0,0,63.45,146c1.43.09,2.46-1.59,3.06-2.93.45-1-.37-5.78-.37-5.78a11.7,11.7,0,0,0,2.75.17,19.44,19.44,0,0,0,2.8-.34,3.19,3.19,0,0,0-2.25-2.42c-1.92-.52-3.66-3.07-3.66-3.07s-.12-2.6-.19-3.94a54.06,54.06,0,0,1-.15-6.88c.26-2.71.39-8,.39-8s1.81-5.65,2.58-7.6,8.39-18.44,8.5-30.52-1.83-16.45-2.56-18.72-2-5.93-2-5.93a5.7,5.7,0,0,1-.08-2.48c.36-1.66.57-2.38.57-2.38a5.21,5.21,0,0,0,1.25-5C73.25,37.31,71.43,31.51,68.87,30.16Z" fill-rule="evenodd"/><g clip-path="url(#h)"><path d="M60.33,121.55l0,.1A75.41,75.41,0,0,1,62,130.41c0,.64.1,1.62.06,2.09a11.83,11.83,0,0,0-.89,3.32,9.27,9.27,0,0,1-.83,2.16l-1.6-.45-.63-.82-1.47-9.81,1.91-2.48Z" fill-rule="evenodd"/><path d="M68.3,132.57l3.12,2.1.51,2.8-4,.7-1.72-.51s-.25-2.24-.34-3.68-.11-3-.11-3l2.55,1.46Z" fill-rule="evenodd"/><path d="M72.7,96.65l-6.76,17.89a31.62,31.62,0,0,1,0-5.35c.23-3.48,1.21-11.9,1.21-11.9l4-1Z" fill-rule="evenodd"/><path d="M73.31,49.09a47.45,47.45,0,0,1,3.87,15.74c1.29,16.64-5,33.67-5,33.67s-4.15,0-9.83-.14-7.33.35-7.33.35S51.24,69.1,52.85,62.08,57.6,52.56,56.66,51s-7.45-11.86-7.11-15.33,1.56-4.73,3.92-5.4a15.12,15.12,0,0,1,4.38-.59s7.67-1.62,10.13-.43,4.28,3,4.74,4.82,2.5,6.61,2.5,6.61Z" fill-rule="evenodd"/><path d="M74.68,55.51s-2.52,8-4.72,24.58c-1.14,8.53-3,18.47-3,18.47l5.1.13L76.46,93s3.17-11.76,2.81-17.7S74.68,55.51,74.68,55.51Z" fill-rule="evenodd" style="mix-blend-mode:multiply"/><path d="M69.83,134a5.35,5.35,0,0,1-2.87.51c-.87-.26-.95-.31-1-.32l.13,2.8s.1,4-2.55,4.14-2.44-3.8-2.36-4.65c.11-1.19.06-.76.06-.76l.13-.64.7-2.55a8.54,8.54,0,0,1-1.21-2.29,9.56,9.56,0,0,0-1.47-2.61,9.2,9.2,0,0,0-2.17-1.72,16,16,0,0,0-1,2.29c.06.22,1.22,8.73,1.22,8.73l.76,1.4,2-1,.19.45s-1.89,5.62-.45,6.87,3,2.28,4.21,2,3.19-2.29,3.19-2.29L66.83,138l5.29-.63s-.17-2.24-1-2.74S69.83,134,69.83,134Z" fill-rule="evenodd"/></g><path d="M87.19,31.22c0-.13-.2-2.45-.2-2.45h1.76Z"/><line x1="92.84" y1="29.16" x2="83.89" y2="28.57" stroke="#3b2645" stroke-miterlimit="10" stroke-width="0.73"/><path d="M90.82,30.36,90,31l-.25,1.06a1.33,1.33,0,0,1-1,1l-.37.07L82,45c-1.86,3.35-6.38.61-3.72-3.11,3.33-4.65,8.93-11.14,8.93-11.14l.68-2.31a.92.92,0,0,1,.88-.65h1.7A.9.9,0,0,1,91,28l.9.74L90,28.6l1.24.8a1,1,0,0,1,.42.76l.09,1.27c-.09.22-.37.38-.46.17Z"/><path d="M81.71,45.94a3.15,3.15,0,0,1-2.16,1.41c-1.68.16-6.42-3.73-7.78-5.16s-3.71-9.18-4.49-10c-1.2-1.25-3.81-2.37-3.38-2.61a12.19,12.19,0,0,1,6.95,1.46c1.8,1.17,8.9,9.74,8.9,9.74C81,42.79,82.46,44.88,81.71,45.94Z" fill-rule="evenodd"/><path d="M65.29,16.58s2.19,1.16,2.45,2.92c.14,1,0,1.4.14,2.29A5.79,5.79,0,0,1,67,25.45c-.72.92-1,1.15-1.28,1.18a4.21,4.21,0,0,1-1.28-.12,4.45,4.45,0,0,0-.24,1.32c0,.91-.11,1.09.12,1.31a1.85,1.85,0,0,0,.89.26,19.78,19.78,0,0,1,1.47,4.52,47.41,47.41,0,0,1,.57,5.28L61.6,33.39c-2.12-2.16-3.5-3.61-3.5-3.61s1.81-.15,2-.8a34.14,34.14,0,0,0,.31-4.41c0-.22-.09-.95-.09-.95s-2.07-.72-1.66-2.24c.32-1.2,1.59-.12,1.59-.12a22.5,22.5,0,0,1,2.58-3.33A9,9,0,0,1,65.29,16.58Z" fill-rule="evenodd"/><path d="M52.55,47.29s5.26-9.93,3.25-13.24-4.42-3.21-5.61.7-5.08,17.36-3.76,18.59C49.13,55.87,52.55,47.29,52.55,47.29Z" fill-rule="evenodd"/><path d="M65.66,24.94a9.24,9.24,0,0,1,.19-2.55c.1-.51,3.39-4.6.86-6.43s-7.66-1.83-9,.89-.76,5.34-.82,7.58-3.45,9.42-3.45,9.42-2.23,6.29,1.69,7.52c2.54.79,11.41.92,12.15-2.17C68.47,34.18,65.75,26,65.66,24.94Z" fill-rule="evenodd"/><g opacity="0.2" style="mix-blend-mode:soft-light"><path d="M65.66,24.94a9.24,9.24,0,0,1,.19-2.55c.1-.51,3.39-4.6.86-6.43s-7.66-1.83-9,.89-.76,5.34-.82,7.58-3.45,9.42-3.45,9.42-2.23,6.29,1.69,7.52c2.54.79,11.41.92,12.15-2.17C68.47,34.18,65.75,26,65.66,24.94Z" fill="red" fill-rule="evenodd"/></g><path d="M67.13,23c-.29.26-.5-1.73-1.24-2-1-.4-1.22,1-.84,2a1.76,1.76,0,0,0,1.11,1.19" fill-rule="evenodd"/><path d="M66.37,23.52s-.77-.2-.84-.57.43-.21.43-.21-.73-.86-.37-1,1,1.42,1,1.42Z" fill-rule="evenodd"/><rect x="76.96" y="110.89" width="2.51" height="20.76"/><polygon points="79.47 119.45 76.96 117.98 76.96 110.89 79.47 110.89 79.47 119.45"/><rect x="75.67" y="110.89" width="5.09" height="5.11"/><polygon points="59.31 112.38 72.09 112.38 75.04 106.71 56.36 106.71 59.31 112.38"/><polygon points="53.42 108.76 53.34 104.65 68.79 104.65 68.88 108.76 53.42 108.76"/><rect x="101.32" y="113.24" width="2.51" height="20.76"/><polygon points="103.82 121.8 101.32 120.33 101.32 113.24 103.82 113.24 103.82 121.8"/><rect x="100.02" y="113.24" width="5.09" height="5.11"/><polygon points="96.18 114.73 108.96 114.73 111.91 109.06 93.23 109.06 96.18 114.73"/><polygon points="93.23 111.11 122.45 111.11 125.3 108.65 125.3 95.1 131.47 81.61 131.47 70.66 107.03 70.66 101.81 84.64 101.81 107 93.15 107 93.23 111.11"/><polygon points="77.78 111.11 77.7 107 93.15 107 93.23 111.11 77.78 111.11"/><path d="M99.42,63.82s-3.17.26-4.27,1.09-5.74,8.67-7.68,11.94-7,5.9-5.93,9.09c.68,2.07,5.25,3.74,8.65.89,5.48-4.58,8.71-11.42,9.6-12.84S99.42,63.82,99.42,63.82Z" fill-rule="evenodd"/><path d="M108.37,59.47s7.62,2.64,9.76,3.76,5,3,5.32,5c.15.95-.26,8-.48,10.57s-3.54,15.93-4.57,19.26a13.48,13.48,0,0,1-13.18,9.77c-6.82,0-20.8,4.86-20.8,4.86a23.43,23.43,0,0,1,2.56,4c.64,1.52,2.3,5.92,3.46,8.48a39.15,39.15,0,0,1,2.38,8.12c0,.77-.86,1.27-2.83,1.22-2.28-.05-3.31-1.16-4.95-1.2a20.86,20.86,0,0,1-4.6-.94c-.48-.18-1.31-.52-1.31-.52s-.53,9-.76,10.6a26.68,26.68,0,0,0-.27,2.87l-1.27.58s0,2.13,0,3.13.58,2.64.53,3.36-.16,1.53-.16,1.53-5,.93-8.66,1.46a32.77,32.77,0,0,1-7.46.08s.91-2.21,2-2.41c3.31-.61,4.38-2.4,5.92-3.48,1.94-1.35,1.8-3.19,1.57-4.67s-.61-25.53-.37-30.8.48-9.66.48-9.66-5-8.25-1.41-11,9.85-1.93,13.79-1.7,15.11,1.14,15.11,1.14-2.34-5.46-1.88-7a16.92,16.92,0,0,0,1.09-6.52c-.18-2.92-1.21-5.58-1.46-7.5-.47-3.66-.1-6.62,1.1-7.7s5-1.88,6.52-2.57S108.37,59.47,108.37,59.47Z" fill-rule="evenodd"/><path d="M103.09,61.45a11.84,11.84,0,0,0,2,2c.63.31,3.1-.67,3.2-.79s1.69-1.26,1.31-2.27a9.59,9.59,0,0,0-1.45-2.27l-3.54.2Z" fill-rule="evenodd"/><path d="M100,49.92s-1.31-1.56-.54-2.41a8.3,8.3,0,0,1,6-1.82c2.25.36,3.78.79,4.83,1.76,1.21,1.13,2.46,5.56,1.74,7.37S107.84,59,107.84,59l-4.17-6.48Z" fill-rule="evenodd"/><g clip-path="url(#i)"><path d="M106.93,54.64s-1.1-4.54-1.35-5.24-.57-1.52-1.65-1.3a12.31,12.31,0,0,1-3.23.5c-.7-.15-1.59-.26-1.59-.26L99.42,50l1.75,0,3.18-.17.82,0,1.06,3.46.14,1.29Z" fill-rule="evenodd" style="mix-blend-mode:soft-light"/></g><path d="M101.6,52.36s0,1.26-.35,1.4-.51.23-.51.23l-.19-1a4.41,4.41,0,0,1,.21-.53A4.6,4.6,0,0,1,101.6,52.36Z" fill-rule="evenodd"/><path d="M99.23,52.1s-.4.3-.25.55.3.3.3.3,0-.17,0-.46S99.23,52.1,99.23,52.1Z" fill-rule="evenodd"/><path d="M100,49.57s-.08.27-.43,1.26-.47,1.48-.32,1.88.3,1,.3,1A4.49,4.49,0,0,1,99,54.94c-.44.69-.91,1.55-.6,1.79s1.2.18,1.2.18.09.34.48,1.37.74,2.6,1.3,2.71a4,4,0,0,0,1.92-.34s.66,1.8.91,2.27,1.89.56,1.89.56l3.51-2.26a12.05,12.05,0,0,1-1.22-2.46c-.09-.62-.16-1.19-.16-1.19l-.28-1.89a1.9,1.9,0,0,0,1.17-1.44c.32-1.22-.15-2.87-1.24-2.36-.84.4-.84,2.76-1.22,2.46s-.49-4.5-1.59-5.18-3.16.67-3.93.56Z" fill-rule="evenodd"/><g clip-path="url(#j)"><path d="M100.89,60.89a3,3,0,0,0,1.49.12,13.89,13.89,0,0,0,3-1.46c.71-.56,1.9-1.52,2-2a8.5,8.5,0,0,1,.63-1.68l.23,1.42.31,2.37-.06,3.88-1.61,2-3.16-1.32Z" fill-rule="evenodd"/><path d="M103.52,48.46a12.46,12.46,0,0,1-.36,2.2,4.87,4.87,0,0,1-.67,1.22l.49,1.26a3.54,3.54,0,0,0-.37,1.52,8.79,8.79,0,0,1,.56,3,6.78,6.78,0,0,1-.9,3.34c-.24.28,1.27-.21,2.22-.74s2.88-2,3-2.5a15.27,15.27,0,0,0,.15-1.57l-.53-1.73-.66-3.82a12.16,12.16,0,0,0-.56-1.51C105.73,49,103.52,48.46,103.52,48.46Z" fill-rule="evenodd" style="mix-blend-mode:multiply"/><path d="M99.47,57.12s.44-.19.48-.34,0-.33-.32-.31l-1.45.11,0,.17Z" fill-rule="evenodd"/><path d="M102.1,57.76s-1.36.31-1.93.41-1.07.14-1.07.14l.08.25a4.89,4.89,0,0,0,1.16.16A3.91,3.91,0,0,0,102.1,57.76Z" fill-rule="evenodd"/><path d="M100,59a3.12,3.12,0,0,1,.79.19,4.27,4.27,0,0,1-.36.71Z" fill-rule="evenodd"/><g style="mix-blend-mode:multiply"><path d="M107.27,54.5s.62-1.55,1-1.42-.36,1-.36,1,.49-.07.43.22-.84.56-.84.56Z" fill-rule="evenodd"/></g></g><path d="M100,49.57s-.08.27-.43,1.26-.47,1.48-.32,1.88.3,1,.3,1A4.49,4.49,0,0,1,99,54.94c-.44.69-.9,1.22-.59,1.46a5.23,5.23,0,0,0,1.19.51s.09.34.48,1.37.74,2.6,1.3,2.71a4,4,0,0,0,1.92-.34s.66,1.8.91,2.27,1.89.56,1.89.56l3.51-2.26a12.05,12.05,0,0,1-1.22-2.46c-.09-.62-.16-1.19-.16-1.19l-.28-1.89a1.9,1.9,0,0,0,1.17-1.44c.32-1.22-.15-2.87-1.24-2.36-.84.4-.84,2.76-1.22,2.46s-.49-4.5-1.59-5.18-3.16.67-3.93.56Z" fill-rule="evenodd"/><path d="M100.93,52.88c-.19.09-.52,0-.43-.21s-.09-.34.07-.44,1.13-.69,1.49-.58,1.29.42,1.23.51a7.38,7.38,0,0,1-1.2.19A9.06,9.06,0,0,0,100.93,52.88Z" fill-rule="evenodd"/><path d="M100.91,53.44a2,2,0,0,1,1-.1,4.35,4.35,0,0,1,.81.17s-1.08.3-1.28.33a3.12,3.12,0,0,1-.4,0Z" fill-rule="evenodd"/><path d="M108.37,59.47s7.62,2.64,9.76,3.76,5,3,5.32,5c.15.95-.26,8-.48,10.57s-3.54,15.93-4.57,19.26a13.48,13.48,0,0,1-13.18,9.77c-6.82,0-20.8,4.86-20.8,4.86a23.43,23.43,0,0,1,2.56,4c.64,1.52,2.3,5.92,3.46,8.48a39.15,39.15,0,0,1,2.38,8.12c0,.77-.86,1.27-2.83,1.22-2.28-.05-3.31-1.16-4.95-1.2a20.86,20.86,0,0,1-4.6-.94c-.48-.18-1.31-.52-1.31-.52s-.53,9-.76,10.6a26.68,26.68,0,0,0-.27,2.87l-1.27.58s0,2.13,0,3.13.58,2.64.53,3.36-.16,1.53-.16,1.53-5,.93-8.66,1.46a32.77,32.77,0,0,1-7.46.08s.91-2.21,2-2.41c3.31-.61,4.38-2.4,5.92-3.48,1.94-1.35,1.8-3.19,1.57-4.67s-.61-25.53-.37-30.8.48-9.66.48-9.66-5-8.25-1.41-11,7.92-2.13,11.84-2.26,15.08,0,15.08,0a21.17,21.17,0,0,1,.1-5.35,16.92,16.92,0,0,0,1.09-6.52c-.18-2.92-1.21-5.58-1.46-7.5-.47-3.66-.1-6.62,1.1-7.7s5-1.88,6.52-2.57S108.37,59.47,108.37,59.47Z" fill-rule="evenodd"/><g clip-path="url(#k)"><path d="M69.06,144.6l8.43-.72s1.64,3.3,1.68,3.59-1,6.61-1,6.61l-3,2.56-12.94,1.47-4-3.85,4.63-3,4.18-1.41Z" fill-rule="evenodd"/><path d="M117.23,103.52s-7.63-8-10.28-9.89S95.8,91.18,95.8,91.18s-14-.8-20.51-.74a11.6,11.6,0,0,0-9.53,5.42l1.93,7.89.8,11.38.17,19.44,1,11.15,8.83.23,1.4-5.45L79,135.8l.79-8.6-.29,0,.53-5.32s1.76,1.38,1.84,2.45a11.3,11.3,0,0,0,.35,2.07l.81.29c1.13.18,3.44.54,4.8.71a36.77,36.77,0,0,1,5.3,1.45l-2-9.59-4.42-5.61L108,110.53Z" fill-rule="evenodd"/><path d="M102.79,61.45a19.18,19.18,0,0,0-.37,3c-.26,4.07,1.78,7.75,2.17,7.8,1,.15,2-4.17,2.62-5.82s2.55-5.62,2.51-6a1.42,1.42,0,0,1,.24-.79l10.76,4s1.37,1.56,1.63,1.88-4,.28-5.59,5.73c-.92,3.23-1.32,6.37,1.42,11,.87,1.47,3.57,2.86,3.57,2.86S121,97.17,121,97.49s-1.56,5.83-1.92,5.93-3.45.1-3.45.1-11.15-8-13.67-9.78a21.63,21.63,0,0,0-6.79-2.55S95.8,85,96.1,84s.89-5.23.89-5.23-1.57-7.56-1.38-10.47,1-4.72,1.6-4.93S102.79,61.45,102.79,61.45Z" fill-rule="evenodd"/><path d="M103.07,61.25s-1.42.76-1.53,1.88a14.28,14.28,0,0,0,.48,6.42c1,2.93,1.84,3.83,2.68,4,1.26.33,4.53-5.61,5-7.71.27-1.39,1.56-5.26.84-5.82s-1.67-1.29-1.63-.6a42.56,42.56,0,0,1-1.66,6.72c-.67,2.09-1.84,5.72-2.56,5.33s-1.71-4.29-1.84-5.72A30.14,30.14,0,0,1,103.07,61.25Z" fill-rule="evenodd"/><path d="M117.91,78.53s-.45-1.75-.58-2.47-.63-4.34-.63-4.34l-1.42.79s1.42,7,1.63,7.21,1,.79,1,.79Z" fill-rule="evenodd" style="mix-blend-mode:multiply"/><path d="M120.7,85.45a17.85,17.85,0,0,1-5.49-10c-1.16-7.34,1.73-9.73,3.06-10.47s2-.74,2.42-.59,1.69.85,1.59,1.38-3.75-.35-5.3,5.73a13.71,13.71,0,0,0,2.16,10.27,7.6,7.6,0,0,1,1.38,2.57Z" fill-rule="evenodd"/><path d="M96.18,64.12A5.31,5.31,0,0,1,98,63c.69-.18.9.1.9.1s-1.43.93-1.93,4.54a81.07,81.07,0,0,0,.1,9.18,22.41,22.41,0,0,1-1.79-6.71A13.54,13.54,0,0,1,96.18,64.12Z" fill-rule="evenodd"/><path d="M84.54,112.8a9.71,9.71,0,0,1-.69-1.31c-.33-.76-1.36-4.93-2-6.24S79.94,101,79.94,101l.41,0a17,17,0,0,1,4.29,5.43,40.14,40.14,0,0,1,2,6.16C86.84,113.25,84.54,112.8,84.54,112.8Z" fill-rule="evenodd"/><path d="M98.35,98s.65.18.59-1.4-2.33-4.71-2.33-4.71a19.14,19.14,0,0,1-.41,3.59,9.57,9.57,0,0,1-1.8,3.19Z" fill-rule="evenodd"/><path d="M80.22,101.33l-.75-1.61s4-.29,8.13-.68S98.91,97.8,98.91,97.8a152.86,152.86,0,0,1-16.39,3.09A20,20,0,0,0,80.22,101.33Z" fill-rule="evenodd"/><path d="M127.71,104.21c-2.57,7.79-15,10-27.85,5S78.73,93.77,81.29,86s15-10,27.85-5S130.27,96.43,127.71,104.21Z" style="mix-blend-mode:multiply"/><path d="M69.78,102.84a76.22,76.22,0,0,0,4,7.29c1.56,2.24,4.25,6.64,4.25,6.64l.91,4.11,1.17,1.24-1.34,23.49s-1.69.73-5.83.25-4.59-.54-4.5-1-.68-25-.69-25.42S69.78,102.84,69.78,102.84Z" fill-rule="evenodd"/><path d="M84.69,126.4l-.35.31a3.89,3.89,0,0,1-2.28.41c-.83-.29-5.71.49-5.71.49a2,2,0,0,0,.26,2.36,15,15,0,0,0,5.22,3c1.48.5,6.55,1.78,6.55,1.78l4.44-.56s2-1.51,1.8-1.8S93,128.3,92.82,128s-.5,0-.79-.14C90.35,127.09,84.69,126.4,84.69,126.4Z" fill-rule="evenodd"/></g><path d="M103,61.45a11.71,11.71,0,0,0-1.1,3.75,11.85,11.85,0,0,0,.16,3.36l2.68-4.94,3.45,5.18c.34-.06,1.91-4.16,1.79-6.46s-.82-3.06-.82-3.06L108,61.35s-2.33,2-2.51,2.07A11.8,11.8,0,0,1,103.7,63Z" fill-rule="evenodd" style="mix-blend-mode:multiply"/><path d="M108.59,58.49s.17.34-.76,1.68-2.25,2.68-2.66,2.66-1.07-.19-1.22-.49-.61-1.48-.61-1.48a2.9,2.9,0,0,0-.89,1.28,26.44,26.44,0,0,0-.61,4.94,11.13,11.13,0,0,1,1.07-1.48c.42-.43,1.9-2.27,1.9-2.27a26.15,26.15,0,0,0,1.55,2.27c.92,1.12,1.85,2.17,1.85,2.17A30.18,30.18,0,0,0,109.6,64a14.6,14.6,0,0,0,.37-2.94c0-.48.16-1-.1-1.31S108.59,58.49,108.59,58.49Z" fill-rule="evenodd"/><g clip-path="url(#l)"><path d="M103.14,60.76a1.09,1.09,0,0,0-1.21,1.08c-.05,1.19-.44,1.36,0,2s2.87-.22,3.6-.69A10.82,10.82,0,0,0,108.21,60a8.06,8.06,0,0,0,0-1.48Z" fill-rule="evenodd" style="mix-blend-mode:multiply"/></g><path d="M120.38,87.72s-4.25-11.82-3.14-15.41,4.8-6.43,5.61-5.43,2.31,8.83,3.93,15.31S129.25,94,127.94,95s-10.63-1.22-13.07-1.87c-3.17-.84-6.89-2.27-6.89-2.27l-.17-1-2.59-1.58s-2-.12-2.68-1.48-1.07-2.37-1.07-2.37a3.15,3.15,0,0,1-.77.29,1,1,0,0,1-.91-.29,4.16,4.16,0,0,1-1.15-2.17,4.74,4.74,0,0,1,.51-2.37,12.49,12.49,0,0,1,1.27-1.49,1.82,1.82,0,0,0-1.74-.88c-1.07.22-1.66.66-1.85.39s.29-1.3,1.67-1.48a4.17,4.17,0,0,1,4.94,2.76c.12.4.67,3,1.38,3.86s1.29,2.21,6.17,3.16S120.38,87.72,120.38,87.72Z" fill-rule="evenodd"/><g clip-path="url(#m)"><path d="M106.19,84.16a9.06,9.06,0,0,1,.31,2.77,4.17,4.17,0,0,1-1.18,1.38l5,5.63,10.25,2.47,7.6-.1,2.21-.79s0-6.92-.25-7.31-3.71-13.2-3.78-13.43-2.12-7.11-2.12-7.11-1.56-1.52-1.89-1.48-5.38,3.36-5.38,3.36-1.84,8-1.83,8.39,2.8,7,2.8,7L114,86.43l-8-2.76Z" fill-rule="evenodd"/><path d="M99.45,78.63S97.94,79.94,98,80.9a21.37,21.37,0,0,0,1.47,3.76s.26,1,.76.88a3.22,3.22,0,0,0,1.14-.59,6.78,6.78,0,0,0,2,3.16c1.16.87,3.23.78,3.2.59,0,0,0-4.28-.45-4.64a12.86,12.86,0,0,1-.33,2.18,3.29,3.29,0,0,1-1,1.38,2.24,2.24,0,0,1-1.69-1.48c-.52-1.45-1.54-2.32-1.7-2.87a12.24,12.24,0,0,1-.63-3.06,2.66,2.66,0,0,0,0-2.07s-.31-1.25-2-1c-1.36.21-1.64.66-2.12.69-.32,0,.06.69.06.69Z" fill-rule="evenodd" style="mix-blend-mode:multiply"/><path d="M106.17,84a6.75,6.75,0,0,1,.08,2.37c-.39,2.51-1.7,2.28-1.7,2.28l2.6,1.77.66-.49a1.39,1.39,0,0,0,1.11-1c.63-1.59-.48-3.75-.48-3.75Z" fill-rule="evenodd"/><path d="M116.77,75.27s2.15,5.72,3.5,8.4,1.89,4.12,2.24,4.84a9.43,9.43,0,0,1,.48,1.08s-1.95-1.5-2.4-1.77a7.15,7.15,0,0,1-.73-.5s-1.84-4.48-2-4.84S116.77,75.27,116.77,75.27Z" fill-rule="evenodd" style="mix-blend-mode:multiply"/></g><path d="M74.31,73.69H92.19a1.73,1.73,0,0,1,1.37.82L99,84.43c.25.45-.1,1.41-.61,1.41l-17.75-.59a1.73,1.73,0,0,1-1.36-.82l-6.1-9.55C73,74.43,73.8,73.69,74.31,73.69Z" fill-rule="evenodd"/><path d="M73.8,74.36H91.65a1.72,1.72,0,0,1,1.36.81l5.46,10c.24.45,0,.82-.47.82H80.15a1.73,1.73,0,0,1-1.37-.82l-5.45-10C73.08,74.72,73.29,74.36,73.8,74.36Z" fill-rule="evenodd"/><g clip-path="url(#n)"><path d="M76.12,75.67s.47.2.33.49a5.47,5.47,0,0,1-.91,1l.92.4a11.81,11.81,0,0,1,2.41.49,3.3,3.3,0,0,1,.7,1.48c.11.53.2,1.15-.18,1.48s-1.12,1-1.19,1.29a10.75,10.75,0,0,0,0,1.67l-1.3-1.48-1.5-2.86L74,78.73l-.23-1.68.15-.69Z" fill-rule="evenodd" style="mix-blend-mode:multiply"/><path d="M75.51,74.19,87.39,86.33l2.83.1-12-12.64Z" fill-rule="evenodd" opacity="0.4" style="mix-blend-mode:screen"/><path d="M79.27,73.85,90.85,86l5.42.25L84.58,73.89Z" fill-rule="evenodd" opacity="0.4" style="mix-blend-mode:screen"/></g><path d="M78.2,84a4,4,0,0,1-2.11-1.49A23.4,23.4,0,0,1,74.32,79s-.72-1.1-1-1.62S73,76,73.7,75.74s2.42-.5,2.51.12-1.76.84-1.78,1.25a.78.78,0,0,0,.3.62,2.51,2.51,0,0,1,2.09-.5c1,.37,2.11.38,2.48,1.37s.49,1.92-.2,2.37c-.46.31-1.48.62-1.4,1.25A9.85,9.85,0,0,0,78.2,84Z" fill-rule="evenodd"/><g clip-path="url(#o)"><path d="M78.45,84.36s-1.52.32-1.81-.49.63-2.17.69-2.57A16.44,16.44,0,0,0,76.4,78L75.92,77l-.84.6a.6.6,0,0,0-.57.39c-.17.42-.25.59-.25.59l-.16.5s-.42-2.28.21-2.47,1.47-.2,1.54-.5a1,1,0,0,1,.36-.49l1.45.89a23.22,23.22,0,0,1,2.14,2.17c0,.2.68,2.47.68,2.47l-1.13,3.36Z" fill-rule="evenodd"/></g><rect x="62.74" y="95.25" width="5.05" height="42.4"/><polygon points="62.74 101.31 67.78 100.27 67.78 95.25 62.74 95.25 62.74 101.31"/><rect x="60.88" y="95.25" width="8.76" height="3.61"/><polygon points="74.02 96.31 56.51 96.31 52.46 92.29 78.06 92.29 74.02 96.31"/><polygon points="34.6 69.34 39.45 92.49 35.45 93.8 29.86 75.68 34.6 69.34"/><path d="M35.45,93.8l4-1.31a33.35,33.35,0,0,0,1.28-6.83c0-2-2.84-13.42-2.84-13.42l.29-7a1.14,1.14,0,0,0-.8-1.13l-1.93-.6H33.81a.3.3,0,0,0-.3.3h0a.84.84,0,0,0,.84.84h1l-.6,1.74a1.13,1.13,0,0,0,0,.68l1.11,2.6a2.14,2.14,0,0,1,.16.87Z"/><rect x="7.33" y="110.89" width="2.51" height="20.76"/><polygon points="7.33 119.45 9.83 117.98 9.83 110.89 7.33 110.89 7.33 119.45"/><rect x="6.04" y="110.89" width="5.09" height="5.11"/><polygon points="14.97 112.38 2.19 112.38 -0.76 106.71 17.92 106.71 14.97 112.38"/><polygon points="17.92 108.76 -11.3 108.76 -14.15 106.3 -14.15 92.75 -20.32 79.26 -20.32 68.31 4.12 68.31 9.34 82.29 9.34 104.65 18 104.65 17.92 108.76"/><polygon points="33.37 108.76 33.45 104.65 18 104.65 17.92 108.76 33.37 108.76"/><polygon points="23.45 97.97 33.41 97.97 36.16 101.12 38.75 146.4 42.52 153.42 38.03 153.42 33.98 146.16 34.66 144.62 28.81 113.44 29.55 105.59 23.45 105.59 23.45 97.97"/><polyline points="18.81 92.21 35.82 92.21 40.35 95.47 39.45 137 41.61 144.5 44.88 148.31 44.88 149.26 41.61 149.26 37.91 146.28 35.64 138.79 36.69 134.86 30.68 105.47 32.17 97.97 20.48 97.97"/><polygon points="36.69 134.86 30.68 105.47 34.16 110.47 37.4 134.86 36.69 134.86"/><polygon points="28.49 60.88 15.57 63.48 3.17 85.99 -3.92 94.62 -3.92 104.61 19.33 104.61 25.35 108.79 25.35 92.21 18.81 92.21 17.64 88.8 21.92 82.56 27.18 82.56 34.6 69.34 30.48 64.55 28.49 60.88"/><polygon points="29.23 56.72 25.95 61.49 27.18 71.05 25.95 77.17 29.23 70.8 29.23 65.87 34.6 60.2 29.23 56.72"/><polygon points="30.85 64.16 34.6 60.2 29.23 56.72 28.16 58.29 30.85 64.16" opacity="0.6" style="mix-blend-mode:multiply"/><path d="M39.07,55s.88-.69,0-2.61C38,50,34.86,49.18,34.86,49.18a1.59,1.59,0,0,0,.29-1.74,1.71,1.71,0,0,0-1.31-.87s-.24-.27-.43-.29a.56.56,0,0,0-.62.47,5.59,5.59,0,0,0-2.68-1.3,5.67,5.67,0,0,0-1.73.23s-2.61-1.14-4.19.51-.9,2.35-.9,2.35a4.21,4.21,0,0,0-1.64,3,4,4,0,0,0,.14,1.59s-1.57,1-.29,3.34,4,2.57,4.79,2,.74-1,.87-1S27,57.8,28,59a7.91,7.91,0,0,0,3,2l3.2-2.76Z" fill-rule="evenodd"/><g clip-path="url(#p)"><path d="M37,50A9.11,9.11,0,0,0,33.89,49c-1.32-.06-5.56.45-6.36,3.35a11.8,11.8,0,0,0-.41,5.31l-.49,1.95-2.94.14-2.93-2a32.56,32.56,0,0,1-.56-3.77c.12-.28.77-5.8.77-5.8s1.64-2.58,1.82-2.72,4.33-1.47,4.33-1.47,4.71.72,4.95.77,3,.91,3,.91l1.53,2Z" fill-rule="evenodd"/><g style="mix-blend-mode:multiply"><path d="M37,50A9.11,9.11,0,0,0,33.89,49c-1.32-.06-5.56.45-6.36,3.35a11.8,11.8,0,0,0-.41,5.31l-.49,1.95-2.94.14-2.93-2a32.56,32.56,0,0,1-.56-3.77c.12-.28.77-5.8.77-5.8s1.64-2.58,1.82-2.72,4.33-1.47,4.33-1.47,4.71.72,4.95.77,3,.91,3,.91l1.53,2Z" fill-rule="evenodd" fill="url(#q)"/></g></g><path d="M39,55.28a6.44,6.44,0,0,0-.28-2.12s.05-.11-.29,0-.2,1-1.55,1-3.11-1.19-4.1-.85-1.75,4.31-2,4.38-.43-.85-.43-.85-1.43-1.69-2-.14,1.37,2.54,1.37,2.54a2.63,2.63,0,0,1,0,.29c.55.49,1.31,1.2,2.07,1.93,1.24.92,2.4,1.73,2.4,1.73a3,3,0,0,0,1.84.28c.63-.09,1.81-2.14,2.4-3.53a4.1,4.1,0,0,0,.15-2.4A5,5,0,0,0,39,55.28Z"/><path d="M39,55.28a6.44,6.44,0,0,0-.28-2.12s.05-.11-.29,0-.2,1-1.55,1-3.11-1.19-4.1-.85-1.75,4.31-2,4.38-.43-.85-.43-.85-1.43-1.69-2-.14,1.37,2.54,1.37,2.54a2.63,2.63,0,0,1,0,.29c.55.49,1.31,1.2,2.07,1.93,1.24.92,2.4,1.73,2.4,1.73a3,3,0,0,0,1.84.28c.63-.09,1.81-2.14,2.4-3.53a4.1,4.1,0,0,0,.15-2.4A5,5,0,0,0,39,55.28Z"/><g clip-path="url(#r)"><path d="M38,56.56a2.18,2.18,0,0,0-.51,1.66c.24,1.07.68,1.55.51,2a2.8,2.8,0,0,1-.3.45,2.41,2.41,0,0,0-.3.75,5.85,5.85,0,0,1-.6,1.2c0,.11-.75.9-.75.9a3.11,3.11,0,0,0,.6-.3c.3-.2,1.8-1.8,1.8-1.8s.43-2,.45-2.1.15-1.21.15-1.21l.15-1.35v-.6l-.3-3h-.3a10.9,10.9,0,0,1,.15,1.35c0,.64,0,1.27,0,1.5s-.75.6-.75.6Z" fill-rule="evenodd"/><path d="M32.86,53.26s.29.89.54,1.5a2.46,2.46,0,0,1-.09,1.5l-.75.75.6,1.05a1.82,1.82,0,0,0-.6,1.21,11,11,0,0,0,1.65,3.45,12.64,12.64,0,0,0,1.2.75l-1.2-.15s.17,1.92-.3,2.1c-.88.33-4.74-1.82-4.92-2.74a7.61,7.61,0,0,1,.57-2.81L30,59s-1.32-.71-1.06-1.06.76,0,.76,0-1-1-.46-1,1.21,1.2,1.21,1.2a12.18,12.18,0,0,1,0-2.1c.11-.24,1.05-2,1.05-2Z" fill-rule="evenodd" opacity="0.6" style="mix-blend-mode:multiply"/></g><circle cx="29.6" cy="59.49" r="0.35"/><path d="M36.31,60.17s.1.22.45.6.65,0,.8-.06a1.67,1.67,0,0,0,.38-.57.69.69,0,0,0-.42,0C37.27,60.21,36.35,60.13,36.31,60.17Z" fill-rule="evenodd"/><path d="M39.16,56.11a.36.36,0,0,0-.45-.3,1.38,1.38,0,0,0-.9.6c-.14.23-.23.74,0,.75a4.57,4.57,0,0,0,1-.6A.79.79,0,0,0,39.16,56.11Z" fill-rule="evenodd"/><path d="M35.41,56.41a3.9,3.9,0,0,0-2.06-.28c-.36.08-1.12.82-.91.88s.71-.41,1.22-.29a11.27,11.27,0,0,0,1.9.44C35.82,57.12,35.76,56.71,35.41,56.41Z" fill-rule="evenodd"/><path d="M38.41,57.46s-.12.27-.3.3l-.75.15s.39.33.6.3a3.93,3.93,0,0,0,1-.45Z" fill-rule="evenodd"/><path d="M35.26,57.91s-.56,0-1,0a3.32,3.32,0,0,1-.9-.15l-.75.3a4.92,4.92,0,0,0,1.65.3A2.47,2.47,0,0,0,35.26,57.91Z" fill-rule="evenodd"/><path d="M37.56,60.85s-.68,0-1.47,0c-1,0-2.2.17-2.2.17a11.13,11.13,0,0,0,1.83.69,2.11,2.11,0,0,0,1.55-.24A1.77,1.77,0,0,0,37.56,60.85Z" fill-rule="evenodd"/><path d="M36.84,60.62c-.47,0-.94.18-1.51.19a4.75,4.75,0,0,0-1.48.2c.19.11.14.06.23.13s1.91,0,2.45-.11c.37,0,.79-.13,1-.18A1.15,1.15,0,0,0,36.84,60.62Z" fill-rule="evenodd"/><path d="M37.56,60.85s-.06,1-.86,1.22a2.83,2.83,0,0,1-2.81-1,6.65,6.65,0,0,0,2.57.69A1.11,1.11,0,0,0,37.56,60.85Z" fill-rule="evenodd"/><path d="M17.49,71.87c.75-1.53,2.34-5.45,1.09-6.94s-3.71-2.66-7,1.13S0,82,1.69,83.75c2.53,2.64,15.05,2.17,18.55,1.38l4.1-.93s.74.23,1.83-.67a13.17,13.17,0,0,0,1.77-1.76s.7.81,1.2.51A7.73,7.73,0,0,0,31.33,80c.16-.57-1.22-2.2-1.22-2.2s.68-.83,1.28-.78a2.81,2.81,0,0,1,1.18.46c.2.12.86-.51.57-.79s-2.23-1.26-2.84-.62a17.28,17.28,0,0,1-1.49,1.32,28.34,28.34,0,0,0-3.08,2.26c-.8.79-2,1.77-2,1.77L9.89,79.67c-1-.12-.84.64,1.35-1.13S16.73,73.4,17.49,71.87Z" fill-rule="evenodd"/><path d="M17.49,71.87c.75-1.53,2.34-5.45,1.09-6.94s-3.71-2.66-7,1.13S0,82,1.69,83.75c2.53,2.64,15.05,2.17,18.55,1.38l4.1-.93s.74.23,1.83-.67a13.17,13.17,0,0,0,1.77-1.76s.7.81,1.2.51A7.73,7.73,0,0,0,31.33,80c.16-.57-1.22-2.2-1.22-2.2s.68-.83,1.28-.78a2.81,2.81,0,0,1,1.18.46c.2.12.86-.51.57-.79s-2.23-1.26-2.84-.62a17.28,17.28,0,0,1-1.49,1.32,28.34,28.34,0,0,0-3.08,2.26c-.8.79-2,1.77-2,1.77L9.89,79.67c-1-.12-.84.64,1.35-1.13S16.73,73.4,17.49,71.87Z" fill-rule="evenodd"/><g clip-path="url(#s)"><path d="M15,79.71a11.51,11.51,0,0,0-2.3,3.53,9.68,9.68,0,0,0-.28,3.62L3.9,86.44.32,85.15l3-10.36,5.68-9L13.8,61s6,.69,6.34,2.82-.37,7.51-.37,7.51l-4.14,5.94-2.3,2Z" fill-rule="evenodd"/><path d="M22.4,80.91s-9.67-1.1-10.92-1.16-1.69-.13-1.69-.13a14.12,14.12,0,0,0,3.61-2.48c1.43-1.48,3.13-3.35,3.17-3.44s2-2.67,2-2.67-2.35,2-3.25,2.84S12,77.11,11.8,77.29,8.53,79.61,8.26,79.8s-1.53.75-1.53.75a31,31,0,0,1,4-.08c1,.14,12.93,1,12.93,1Z" fill-rule="evenodd" style="mix-blend-mode:hard-light"/><path d="M31.46,79.67s-1.55,2.65-2.08,2.61a10.48,10.48,0,0,1-1.73-.47,5.84,5.84,0,0,1-2,1.55,4,4,0,0,1-1.32.22S12.9,84.94,9.25,84.66A72,72,0,0,1,.31,83.23s1.19,1.61,1.42,1.9,12.64,3.39,12.64,3.39l9.83.4,6.48-3.36S32.9,81.93,33,81.74s.35-3.81.35-3.81.53-.63-.1-.69-1.32-1.1-2.16-.55-1.38.91-1.38.91l.77.91Z" fill-rule="evenodd" style="mix-blend-mode:multiply"/><path d="M29.36,76.69a3.51,3.51,0,0,0-.63.85C28.53,78,28,79,28,79l-1.06,1.49S25,82.17,24.26,82.17s-1-.65-.74-1,2.73-2.53,2.83-2.67S29.36,76.69,29.36,76.69Z" fill-rule="evenodd"/><path d="M28.74,82.58a21.45,21.45,0,0,0,2-1.61c.43-.48,1-1.43.82-1.78A17.75,17.75,0,0,0,30,77.63s-.27-.13-.54.26-1.05,2-1.16,2.23a11.66,11.66,0,0,0,.32,2.17Z" fill-rule="evenodd" style="mix-blend-mode:screen"/></g><g opacity="0.88"><rect x="24.43" y="93.8" width="83.5" height="61.1" fill="url(#t)"/></g><g style="mix-blend-mode:multiply"><rect x="24.43" y="92.2" width="83.5" height="6.2" fill="#b3b7cb"/></g><rect x="21.02" y="90.01" width="90.33" height="3.79" fill="#938bc4"/><rect x="129.25" y="110.89" width="2.51" height="20.76" fill="#6b7385"/><polygon points="129.25 119.45 131.76 117.98 131.76 110.89 129.25 110.89 129.25 119.45" fill="#586175"/><rect x="127.96" y="110.89" width="5.09" height="5.11" fill="#6b7385"/><polygon points="136.66 112.05 123.89 112.05 121.17 106.71 139.84 106.71 136.66 112.05" fill="#250254"/><polygon points="153.74 65.73 150.55 77.79 150.24 102.05 144.5 109.44 118.88 109.44 118.88 104.72 142.25 104.72 146.76 99.61 144.04 78.59 150.55 65.73 153.74 65.73" fill="#4b3b4d"/><path d="M37.83,88.17h25.5l6-15A1.59,1.59,0,0,0,67.8,71H46.06a2.1,2.1,0,0,0-2,1.32Z"/><rect x="37.83" y="88.17" width="25.5" height="1.89" transform="translate(101.16 178.23) rotate(180)"/><rect x="24.86" y="88.17" width="12.97" height="1.89"/></g><circle cx="65.34" cy="65.34" r="63.87" fill="none" stroke="#fff" stroke-miterlimit="10" stroke-width="2.93"/><g clip-path="url(#u)"><g clip-path="url(#v)"><rect x="107.07" y="-7.96" width="207.27" height="169.7" fill="url(#w)"/></g></g><circle cx="65.34" cy="65.34" r="63.87" style="mix-blend-mode:hue"/></g></svg>