<svg xmlns="http://www.w3.org/2000/svg" xmlns:xlink="http://www.w3.org/1999/xlink" viewBox="0 0 169.32 136.01"><defs><clipPath id="a"><path d="M-138.49-77.89c-1.79,1.46-5.69,1.41-5.69,1.41-.48-5.26-.15-10.61,2.05-18.65a58.35,58.35,0,0,0,.49-6.49,62.42,62.42,0,0,1,62.35-59.29A62.43,62.43,0,0,1-16.86-98.48,62.43,62.43,0,0,1-79.29-36a62.46,62.46,0,0,1-58.33-40.12Z" fill="none"/></clipPath><clipPath id="b"><path d="M-72.71-109.41c.29,1.66,6.53,17.62,8.47,18.2,3.29,1,17.56-6.41,17.56-6.41s.56,10.16.9,14.62-.21,13-.13,14.49-.38,6.67-.38,6.67l-1.16,3.46s.44,8.73,1.54,22.43,2,21,3.73,39c1.54,16.26,1.7,24.87,1.7,24.87.55-.6,5.63.34,5.93.77,0,0,.49-7.44.56-15.25.13-14.29.35-14.36.52-18.85.11-3-1.9-8.8-1.16-21.54.69-11.82,1.41-15.39,1.41-15.39s4.1,14.8,6.16,22.44,5.48,21.68,6.92,27.69a161.26,161.26,0,0,1,3.4,21.8,9.21,9.21,0,0,1,3.25-.26,22.94,22.94,0,0,1,3.48.9s-.32-9.73-1.31-19.31S-14-6.3-15-12.36s-2.86-39.29-2.82-41a9.12,9.12,0,0,0-.64-3.34,9.68,9.68,0,0,1,0-2.18c.11-1.5-.35-11.05-.26-14.61s3.11-17,4.34-20S-9-98.84-10-102.83s-13.59-11.3-17.81-12.55-12,1.61-14.61,2.43-3.26,1.28-6.33,3.32-13.16,8.3-13.16,8.3-1.6-3.09-2.69-5.13-3.84-7.7-3.84-7.7S-73-110.95-72.71-109.41Z" fill="#938bc4" clip-rule="evenodd"/></clipPath><radialGradient id="c" cx="-3865.49" cy="9.37" r="47.15" gradientTransform="matrix(-1, 0, 0, 1, -3887.82, -0.48)" gradientUnits="userSpaceOnUse"><stop offset="0" stop-color="#c6c5cb"/><stop offset="1" stop-color="#fff"/></radialGradient><clipPath id="d"><circle cx="100.46" cy="-105.7" r="63.87" fill="none"/></clipPath><clipPath id="e"><path d="M144.09-93.21A70.54,70.54,0,0,1,148.25-86c.81,2,1.46,10.52,1.46,10.52s1.36.65,1.57,1.46-.94,3.32,1.56,20.72,9,63.52,9,63.52a13.26,13.26,0,0,1-3.74,1.06,5.21,5.21,0,0,1-3.85-.73s-1.72-7.33-3.25-12.62C147-16,146.15-27.88,145.23-31,144-35.18,136-65.92,136-65.92s-1.77,29.36-1.77,33.12,1.22,16.12.92,27c-.19,6.84-.58,17.67-.58,17.67a17.71,17.71,0,0,1-4.2.36,10.45,10.45,0,0,1-3.29-.74s-3.13-35.69-4-47.06S120.7-71,120.17-73.85s.63-2.71.63-2.71.27-3.67.26-4.36.73-10.52.73-10.52Z" fill="none" clip-rule="evenodd"/></clipPath><clipPath id="f"><path d="M79.56-118.16s1.15-6.17-2.19-7.93c-2-1-5.82-1.21-9-1.08s-13.18,1.29-14.66,5.32,2.6,9.95,4.56,12.74,5.21,11.62,5,12.24S55.79-85.22,56.5-77.7s6.39,50.75,7.19,55,1.41,8,1.41,8l1.34,8.36a27.67,27.67,0,0,1-2.27,4.64c-1,1.31-2.7,3.29-2,6.21s1.72,3.3,1.85,6.19c.06,1.1.09,2.33.09,2.33l1.5-.09.12-3.63c0-.45.33-1,.88.35A6.78,6.78,0,0,0,67.38,11s-1.19,8.3-1.08,9.89,2.14,4,4,4.16,3.2-2.07,4-3.83c.59-1.3-.48-7.53-.48-7.53a15.46,15.46,0,0,0,3.58.22A24.11,24.11,0,0,0,81,13.5a4.14,4.14,0,0,0-2.93-3.15c-2.51-.68-4.78-4-4.78-4S73.17,3,73.09,1.19a70.71,70.71,0,0,1-.2-9c.34-3.53.51-10.49.51-10.49s2.36-7.37,3.36-9.92S87.72-52.26,87.85-68s-2.38-21.46-3.33-24.43-2.66-7.74-2.66-7.74a7.34,7.34,0,0,1-.1-3.24c.47-2.16.74-3.09.74-3.09a6.79,6.79,0,0,0,1.63-6.54A8.39,8.39,0,0,0,79.56-118.16Z" fill="#a4544a" clip-rule="evenodd"/></clipPath><clipPath id="g"><path d="M-138.49,94.78c-1.79,1.46-5.69,1.41-5.69,1.41-.48-5.26-.15-10.6,2.05-18.64a58.52,58.52,0,0,0,.49-6.49,62.43,62.43,0,0,1,62.35-59.3A62.44,62.44,0,0,1-16.86,74.2a62.43,62.43,0,0,1-62.43,62.43A62.45,62.45,0,0,1-137.62,96.5Z" fill="none"/></clipPath><clipPath id="h"><circle cx="-79.22" cy="74.2" r="63.87" fill="none"/></clipPath><linearGradient id="i" x1="-82.79" y1="-47.89" x2="-82.79" y2="96.22" gradientUnits="userSpaceOnUse"><stop offset="0" stop-color="#00b6ff"/><stop offset="0" stop-color="#52a0ff"/><stop offset="1" stop-color="#d7f2ff"/></linearGradient><clipPath id="j"><path d="M-72.71,63.27c.29,1.65,6.53,17.62,8.47,18.2,3.29,1,17.56-6.41,17.56-6.41s.56,10.16.9,14.62-.21,13-.13,14.48-.38,6.67-.38,6.67l-1.16,3.46s.44,8.73,1.54,22.44,2,21,3.73,39c1.54,16.26,1.7,24.87,1.7,24.87.55-.61,5.63.34,5.93.77,0,0,.49-7.44.56-15.26.13-14.29.35-14.35.52-18.84.11-3-1.9-8.8-1.16-21.54.69-11.82,1.41-15.39,1.41-15.39s4.1,14.79,6.16,22.44,5.48,21.67,6.92,27.69a161.26,161.26,0,0,1,3.4,21.8,9.21,9.21,0,0,1,3.25-.26,22.94,22.94,0,0,1,3.48.9s-.32-9.74-1.31-19.32S-14,166.38-15,160.32s-2.86-39.29-2.82-41a9.1,9.1,0,0,0-.64-3.33,9.68,9.68,0,0,1,0-2.18c.11-1.51-.35-11-.26-14.62s3.11-17,4.34-20S-9,73.84-10,69.84-23.62,58.55-27.84,57.29s-12,1.62-14.61,2.44-3.26,1.27-6.33,3.32-13.16,8.29-13.16,8.29-1.6-3.08-2.69-5.13-3.84-7.69-3.84-7.69S-73,61.73-72.71,63.27Z" clip-rule="evenodd"/></clipPath><clipPath id="k"><circle cx="100.46" cy="66.97" r="63.87" fill="none"/></clipPath><linearGradient id="m" x1="96.88" y1="-55.11" x2="96.88" y2="89" xlink:href="#i"/><clipPath id="n"><path d="M127.68,24.34c1.57-4.47,11.63-2.44,12.77,1.63.7,2.48-.29,6-.29,6s1.17-.17.78,1.64a4.1,4.1,0,0,1-2.53,2.8s.12-.33-.09.21a14.4,14.4,0,0,1-2.22,3.28,19.16,19.16,0,0,1,.41,2.16c.11,1,.27,9.2.27,9.2l-6,1.29s-2.38-9-2.4-9.64,0-1.61,0-1.61a5.19,5.19,0,0,1-1.56-2.92,20.63,20.63,0,0,1-.11-3.75s-1.45-.85-1.18-3.6c.14-1.49,1.15-.84,1.15-.85A13.3,13.3,0,0,1,127.68,24.34Z" clip-rule="evenodd"/></clipPath><clipPath id="o"><path d="M128.39,43.41a27.55,27.55,0,0,1,2.11,5.53c.72,2.47,1.95,4.71,2.5,4.8,1.3.22,2.21-3,3.36-5.37,1.4-2.88.88-6.35.67-6.34,2.78-.14,10.15,2.56,13.11,5.25,3.64,3.31,2.8,10.09,2.8,10.09s-3.54,12.38-4.28,16.75-.31,12.59-.31,12.59a41.22,41.22,0,0,1-13.64,1.67,90.7,90.7,0,0,1-14-1.88s-.09-1.62,0-4a56.85,56.85,0,0,0-.73-7.6s-2.53,9.61-8.13,8.53c-4.38-.84-8-11.34-8-11.34s2.36-2.14,3.23-2.81,3.65-.52,3.65-.52,1.42-9.38,1.77-11c.58-2.73.88-6.17,3.85-9C120,45.15,123.91,44.05,128.39,43.41Z" clip-rule="evenodd"/></clipPath><clipPath id="p"><path d="M144.09,79.47a71.26,71.26,0,0,1,4.16,7.18c.81,2,1.46,10.53,1.46,10.53s1.36.65,1.57,1.46-.94,3.32,1.56,20.72,9,63.51,9,63.51a12.63,12.63,0,0,1-3.74,1.06,5.15,5.15,0,0,1-3.85-.73s-1.72-7.33-3.25-12.62c-4-13.89-4.9-25.78-5.82-28.93C144,137.49,136,106.76,136,106.76s-1.77,29.35-1.77,33.12,1.22,16.12.92,27c-.19,6.84-.58,17.67-.58,17.67a17.71,17.71,0,0,1-4.2.36,10.28,10.28,0,0,1-3.29-.75s-3.13-35.69-4-47.06-2.34-35.4-2.87-38.23.63-2.71.63-2.71.27-3.68.26-4.36.73-10.52.73-10.52Z" clip-rule="evenodd"/></clipPath><clipPath id="q"><path d="M149.5,65.9a20.23,20.23,0,0,0,2,4.89L147,67.05a5.25,5.25,0,0,0-4.59,1.25,4.11,4.11,0,0,0,.11,4.89C143.63,74.38,151.66,87.11,159,85c4.7-1.33-.72-19.21-2.4-27.88-1.37-7.11-8-11.12-8.05-11.07S149,63.54,149.5,65.9Z" clip-rule="evenodd"/></clipPath><clipPath id="s"><path d="M80,47.75c2.34,1.52,11.61,12.71,11.61,12.71s4.19-6.16,5.82-8.63,1.9-4.82,4.08-5,6.66-.25,6.66-.25a12.22,12.22,0,0,0,1.67-1.49c.44-.52,2.5-3.19,2.91-3S111.8,45,111,46s1.14-.84,1.75-1.41,2.37-1.53,2.08-.83a30,30,0,0,1-4.16,4.57c-1.41,1.3-1.59,1.73-2.83,1.91s-5.31.09-5.5.33-3.44,8.84-5.24,12.29S93,68.86,91.31,69c-2.2.2-8.38-4.87-10.16-6.73s-4.85-12-5.86-13c-1.57-1.63-5-3.1-4.41-3.41S76.86,45.74,80,47.75Z" clip-rule="evenodd"/></clipPath><clipPath id="t"><path d="M79.56,54.52s1.15-6.18-2.19-7.93c-2-1-5.82-1.22-9-1.08S55.2,46.8,53.72,50.82s2.6,10,4.56,12.75,5.21,11.62,5,12.24S55.79,87.46,56.5,95s6.39,50.76,7.19,55,1.41,8,1.41,8l1.34,8.36A27.3,27.3,0,0,1,64.17,171c-1,1.31-2.7,3.29-2,6.22s1.72,3.3,1.85,6.18c.06,1.1.09,2.33.09,2.33l1.5-.08.12-3.64c0-.44.33-1,.88.35a6.72,6.72,0,0,0,.74,1.38s-1.19,8.3-1.08,9.89,2.14,4,4,4.15,3.2-2.06,4-3.82c.59-1.3-.48-7.54-.48-7.54a15.09,15.09,0,0,0,3.58.23,25.76,25.76,0,0,0,3.65-.45A4.14,4.14,0,0,0,78.11,183c-2.51-.68-4.78-4-4.78-4s-.16-3.39-.24-5.15a70.77,70.77,0,0,1-.2-9c.34-3.54.51-10.5.51-10.5s2.36-7.37,3.36-9.91,11-24.07,11.09-39.84S85.47,83.2,84.52,80.23s-2.66-7.74-2.66-7.74a7.34,7.34,0,0,1-.1-3.24c.47-2.17.74-3.1.74-3.1a6.78,6.78,0,0,0,1.63-6.53A8.35,8.35,0,0,0,79.56,54.52Z" clip-rule="evenodd"/></clipPath><clipPath id="u"><path d="M72.69,28.87s2.86,1.5,3.2,3.81c.19,1.25,0,1.82.18,3A7.63,7.63,0,0,1,75,40.44c-1,1.2-1.32,1.5-1.68,1.54a5.48,5.48,0,0,1-1.66-.16,5.1,5.1,0,0,0-.31,1.73c-.06,1.19-.15,1.42.14,1.71a2.5,2.5,0,0,0,1.17.33,25.64,25.64,0,0,1,1.91,5.9,62.38,62.38,0,0,1,.75,6.9L67.88,50.8c-2.77-2.81-4.57-4.71-4.57-4.71S65.67,45.89,66,45a47.9,47.9,0,0,0,.41-5.75c0-.29-.13-1.24-.13-1.24s-2.7-.94-2.17-2.93c.42-1.56,2.08-.14,2.08-.14a29.91,29.91,0,0,1,3.36-4.35A11.9,11.9,0,0,1,72.69,28.87Z" clip-rule="evenodd"/></clipPath><clipPath id="v"><path d="M56.07,68.94s6.86-13,4.24-17.28-5.77-4.19-7.32.91-6.63,22.67-4.91,24.27C51.61,80.13,56.07,68.94,56.07,68.94Z" clip-rule="evenodd"/></clipPath><clipPath id="w"><path d="M56.07,68.94a3.93,3.93,0,0,0-.75-.16,6.24,6.24,0,0,0-4.45,1.3c-1.74,1.28-3.61,6-2.79,6.76,1.62,1.47,6.79-.27,11.48-1.66C63.9,73.89,64.2,73,66,72.59c.93-.23,1.45,0,3.74.31a10.14,10.14,0,0,0,2.19.24c1.36-.1,2.05-.18,3.28-3.43a2.53,2.53,0,0,1,.39-.71,1.23,1.23,0,0,0,1.17-.86c.3-.89-.5-1.07-1.31-1.23S73,66.52,73,66.52a5,5,0,0,0-1.17-1.1,3.16,3.16,0,0,0-3,.71c-1,1-1.55,1.64-2.11,1.79C65.16,68.34,56.07,68.94,56.07,68.94Z" clip-rule="evenodd"/></clipPath><linearGradient id="x" x1="97.63" y1="81.84" x2="101.51" y2="139.46" gradientUnits="userSpaceOnUse"><stop offset="0" stop-color="#bd03ad"/><stop offset="1" stop-color="#250254"/></linearGradient></defs><g style="isolation:isolate"><g clip-path="url(#a)"><path d="M-72.71-109.41c.29,1.66,6.53,17.62,8.47,18.2,3.29,1,17.56-6.41,17.56-6.41s.56,10.16.9,14.62-.21,13-.13,14.49-.38,6.67-.38,6.67l-1.16,3.46s.44,8.73,1.54,22.43,2,21,3.73,39c1.54,16.26,1.7,24.87,1.7,24.87.55-.6,5.63.34,5.93.77,0,0,.49-7.44.56-15.25.13-14.29.35-14.36.52-18.85.11-3-1.9-8.8-1.16-21.54.69-11.82,1.41-15.39,1.41-15.39s4.1,14.8,6.16,22.44,5.48,21.68,6.92,27.69a161.26,161.26,0,0,1,3.4,21.8,9.21,9.21,0,0,1,3.25-.26,22.94,22.94,0,0,1,3.48.9s-.32-9.73-1.31-19.31S-14-6.3-15-12.36s-2.86-39.29-2.82-41a9.12,9.12,0,0,0-.64-3.34,9.68,9.68,0,0,1,0-2.18c.11-1.5-.35-11.05-.26-14.61s3.11-17,4.34-20S-9-98.84-10-102.83s-13.59-11.3-17.81-12.55-12,1.61-14.61,2.43-3.26,1.28-6.33,3.32-13.16,8.3-13.16,8.3-1.6-3.09-2.69-5.13-3.84-7.7-3.84-7.7S-73-110.95-72.71-109.41Z" fill="#938bc4" fill-rule="evenodd"/><g clip-path="url(#b)"><path d="M-71.12,8.89A47.13,47.13,0,0,0-24,56,47.13,47.13,0,0,0,23.14,8.89,47.13,47.13,0,0,0-24-38.24,47.13,47.13,0,0,0-71.12,8.89Z" fill-opacity="0.7" fill-rule="evenodd" fill="url(#c)" style="mix-blend-mode:multiply"/></g></g><g clip-path="url(#d)"><path d="M134,7.72l.45,11.19a32.6,32.6,0,0,1-3.27.53,3.59,3.59,0,0,1-1.42-.27,24.22,24.22,0,0,1-2.56.54c-2.56.49-8.17-.14-10-.27s-.75-1.46-.18-1.69,8.94-3.81,9.81-4.26a2.59,2.59,0,0,0,1.59-2c.13-1,.09-4.61.09-4.61Z" fill="#321223" fill-rule="evenodd"/><path d="M161,7.41s.56,4.61,1.25,5.57,5.57,7.11,5.57,7.11a18.68,18.68,0,0,1-4.9.28,12.67,12.67,0,0,1-6.43-2.2c-.66-.33-1.46-.6-1.44-1.54s-.39-8.07-.39-8.07Z" fill="#321223" fill-rule="evenodd"/><path d="M144.09-93.21A70.54,70.54,0,0,1,148.25-86c.81,2,1.46,10.52,1.46,10.52s1.36.65,1.57,1.46-.94,3.32,1.56,20.72,9,63.52,9,63.52a13.26,13.26,0,0,1-3.74,1.06,5.21,5.21,0,0,1-3.85-.73s-1.72-7.33-3.25-12.62C147-16,146.15-27.88,145.23-31,144-35.18,136-65.92,136-65.92s-1.77,29.36-1.77,33.12,1.22,16.12.92,27c-.19,6.84-.58,17.67-.58,17.67a17.71,17.71,0,0,1-4.2.36,10.45,10.45,0,0,1-3.29-.74s-3.13-35.69-4-47.06S120.7-71,120.17-73.85s.63-2.71.63-2.71.27-3.67.26-4.36.73-10.52.73-10.52Z" fill="#cfb0af" fill-rule="evenodd"/><g clip-path="url(#e)"><path d="M137-45.87c0,.49-1.92,58.56-1.92,58.56a98.27,98.27,0,0,1-.77-10.08c-.13-5.49-1-29.39-1.34-37-.3-6.24,2.4-34.37,2.4-34.37l1,6.34S137-46.36,137-45.87Z" fill="#b57a76" fill-rule="evenodd" style="mix-blend-mode:screen"/><path d="M159.88-13.42l2.49,24.19s-4.57-23.7-7.48-41.66-6.44-44.45-6.44-44.45l3.65,2.78Z" fill="#b57a76" fill-rule="evenodd" style="mix-blend-mode:screen"/></g><path d="M79.56-118.16s1.15-6.17-2.19-7.93c-2-1-5.82-1.21-9-1.08s-13.18,1.29-14.66,5.32,2.6,9.95,4.56,12.74,5.21,11.62,5,12.24S55.79-85.22,56.5-77.7s6.39,50.75,7.19,55,1.41,8,1.41,8l1.34,8.36a27.67,27.67,0,0,1-2.27,4.64c-1,1.31-2.7,3.29-2,6.21s1.72,3.3,1.85,6.19c.06,1.1.09,2.33.09,2.33l1.5-.09.12-3.63c0-.45.33-1,.88.35A6.78,6.78,0,0,0,67.38,11s-1.19,8.3-1.08,9.89,2.14,4,4,4.16,3.2-2.07,4-3.83c.59-1.3-.48-7.53-.48-7.53a15.46,15.46,0,0,0,3.58.22A24.11,24.11,0,0,0,81,13.5a4.14,4.14,0,0,0-2.93-3.15c-2.51-.68-4.78-4-4.78-4S73.17,3,73.09,1.19a70.71,70.71,0,0,1-.2-9c.34-3.53.51-10.49.51-10.49s2.36-7.37,3.36-9.92S87.72-52.26,87.85-68s-2.38-21.46-3.33-24.43-2.66-7.74-2.66-7.74a7.34,7.34,0,0,1-.1-3.24c.47-2.16.74-3.09.74-3.09a6.79,6.79,0,0,0,1.63-6.54A8.39,8.39,0,0,0,79.56-118.16Z" fill="#a4544a" fill-rule="evenodd"/><g clip-path="url(#f)"><path d="M66.22-6.83l0,.13c.31,1.13,2.18,9.63,2.13,11.44,0,.83.13,2.11.08,2.73a15.86,15.86,0,0,0-1.16,4.32,11.35,11.35,0,0,1-1.08,2.82L64.14,14,63.31,13,61.39.15l2.5-3.24Z" fill="#da9085" fill-rule="evenodd"/><path d="M76.62,7.55l4.08,2.74L81.36,14l-5.16.91L74,14.2s-.33-2.92-.45-4.81-.14-3.92-.14-3.92L76.7,7.38Z" fill="#da9085" fill-rule="evenodd"/><path d="M78.62,9.38s-2.33,1.09-3.75.66c-1.13-.34-1.24-.4-1.33-.41l.17,3.65s.14,5.27-3.33,5.41-3.19-5-3.08-6.07c.15-1.56.08-1,.08-1l.17-.83.91-3.32a11.61,11.61,0,0,1-1.58-3A12.58,12.58,0,0,0,65,1.07a12,12,0,0,0-2.83-2.25,20.2,20.2,0,0,0-1.33,3c.07.28,1.58,11.38,1.58,11.38l1,1.83L66,13.7l.25.58s-2.46,7.35-.58,9,4,3,5.49,2.66,4.16-3,4.16-3l-.58-8.23,6.9-.83s-.23-2.93-1.33-3.58S78.62,9.38,78.62,9.38Z" fill="#3d2c48" fill-rule="evenodd"/></g></g><g clip-path="url(#g)"><g clip-path="url(#h)"><rect x="-186.43" y="-8.2" width="207.27" height="169.7" fill="url(#i)"/></g><path d="M-72.71,63.27c.29,1.65,6.53,17.62,8.47,18.2,3.29,1,17.56-6.41,17.56-6.41s.56,10.16.9,14.62-.21,13-.13,14.48-.38,6.67-.38,6.67l-1.16,3.46s.44,8.73,1.54,22.44,2,21,3.73,39c1.54,16.26,1.7,24.87,1.7,24.87.55-.61,5.63.34,5.93.77,0,0,.49-7.44.56-15.26.13-14.29.35-14.35.52-18.84.11-3-1.9-8.8-1.16-21.54.69-11.82,1.41-15.39,1.41-15.39s4.1,14.79,6.16,22.44,5.48,21.67,6.92,27.69a161.26,161.26,0,0,1,3.4,21.8,9.21,9.21,0,0,1,3.25-.26,22.94,22.94,0,0,1,3.48.9s-.32-9.74-1.31-19.32S-14,166.38-15,160.32s-2.86-39.29-2.82-41a9.1,9.1,0,0,0-.64-3.33,9.68,9.68,0,0,1,0-2.18c.11-1.51-.35-11-.26-14.62s3.11-17,4.34-20S-9,73.84-10,69.84-23.62,58.55-27.84,57.29s-12,1.62-14.61,2.44-3.26,1.27-6.33,3.32-13.16,8.29-13.16,8.29-1.6-3.08-2.69-5.13-3.84-7.69-3.84-7.69S-73,61.73-72.71,63.27Z" fill-rule="evenodd"/><g clip-path="url(#j)"><path d="M-71.12,181.57A47.13,47.13,0,0,0-24,228.69a47.13,47.13,0,0,0,47.13-47.12A47.13,47.13,0,0,0-24,134.44,47.13,47.13,0,0,0-71.12,181.57Z" fill-opacity="0.7" fill-rule="evenodd" style="mix-blend-mode:multiply"/></g></g><polygon points="36.59 75.56 4.84 87.69 36.59 58.39 47.92 66.97 36.59 75.56" fill="#fff"/><g clip-path="url(#k)"><g clip-path="url(#k)"><rect x="-6.75" y="-15.42" width="207.27" height="169.7" fill="url(#m)"/></g><path d="M127.68,24.34c1.57-4.47,11.63-2.44,12.77,1.63.7,2.48-.29,6-.29,6s1.17-.17.78,1.64a4.1,4.1,0,0,1-2.53,2.8s.12-.33-.09.21a14.4,14.4,0,0,1-2.22,3.28,19.16,19.16,0,0,1,.41,2.16c.11,1,.27,9.2.27,9.2l-6,1.29s-2.38-9-2.4-9.64,0-1.61,0-1.61a5.19,5.19,0,0,1-1.56-2.92,20.63,20.63,0,0,1-.11-3.75s-1.45-.85-1.18-3.6c.14-1.49,1.15-.84,1.15-.85A13.3,13.3,0,0,1,127.68,24.34Z" fill-rule="evenodd"/><g clip-path="url(#n)"><path d="M126.77,22l7.37-1.27s6.2,2.72,6.6,3,.93,5.1.9,6.1c0,.43-.71,1-1.37,2.15a24.35,24.35,0,0,0-1.8,3.76,6,6,0,0,1,.15-1.1c.13-.52.38-2.06.47-2.4a5.16,5.16,0,0,0-.51-3.06c-.37-.38-1.9,1.37-6.44,0a4.78,4.78,0,0,1-2.55-2.39c-.92,1.23-.22,2.39-1.68,2.05-.63-.14-.89,3.81-.89,3.81a19.54,19.54,0,0,1-.21-2.07,1.92,1.92,0,0,0-.55-1.16Z" fill-rule="evenodd"/><path d="M136.27,40.6l-5.49,6.68c-1.11-.81-2-1.14-2.1-1.31-.18-.36-.62-3.4-.62-3.4l-.49-2a7.59,7.59,0,0,0,4.28,2c2.27.11,3.3-1.76,3.81-2.27l.44-.45Z"/></g><path d="M130.27,34.21a15.39,15.39,0,0,1-1.85-.76l.82-.2s.56.26,1.2.49a4.19,4.19,0,0,1,1,.47A7,7,0,0,1,130.27,34.21Z" fill-rule="evenodd"/><path d="M129.19,31.21c-.6,0-1.36,1-1.36,1a3.59,3.59,0,0,1,1-.31,3.8,3.8,0,0,1,1.4.09,9.3,9.3,0,0,0,1.64.44c.22,0-.17-.46-.17-.46A13.37,13.37,0,0,0,129.19,31.21Z" fill-rule="evenodd"/><path d="M149.5,65.9a20.23,20.23,0,0,0,2,4.89L147,67.05a5.25,5.25,0,0,0-4.59,1.25,4.11,4.11,0,0,0,.11,4.89C143.63,74.38,151.66,87.11,159,85c4.7-1.33-.72-19.21-2.4-27.88-1.37-7.11-8-11.12-8.05-11.07S149,63.54,149.5,65.9Z" fill-rule="evenodd"/><path d="M127.52,45.67l1.56,8.53,4,3.33,5-4.47,2.4-6.87s-2.14-.56-2.45-1.54a7.87,7.87,0,0,0-1.44-2.2s-.38,1-.58,1.53c-.33,1-3.16,3.93-6.05,1-1.31-1.35-1.34-1.82-1.34-1.82l-.19.29s.83.54.59,1.11-1.15.63-1.15.63Z" fill-rule="evenodd"/><path d="M144.09,79.47a71.26,71.26,0,0,1,4.16,7.18c.81,2,1.46,10.53,1.46,10.53s1.36.65,1.57,1.46-.94,3.32,1.56,20.72,9,63.51,9,63.51a12.63,12.63,0,0,1-3.74,1.06,5.15,5.15,0,0,1-3.85-.73s-1.72-7.33-3.25-12.62c-4-13.89-4.9-25.78-5.82-28.93C144,137.49,136,106.76,136,106.76s-1.77,29.35-1.77,33.12,1.22,16.12.92,27c-.19,6.84-.58,17.67-.58,17.67a17.71,17.71,0,0,1-4.2.36,10.28,10.28,0,0,1-3.29-.75s-3.13-35.69-4-47.06-2.34-35.4-2.87-38.23.63-2.71.63-2.71.27-3.68.26-4.36.73-10.52.73-10.52Z" fill-rule="evenodd"/><path d="M128.39,43.41a27.55,27.55,0,0,1,2.11,5.53c.72,2.47,1.95,4.71,2.5,4.8,1.3.22,2.21-3,3.36-5.37,1.4-2.88.88-6.35.67-6.34,2.78-.14,10.15,2.56,13.11,5.25,3.64,3.31,2.8,10.09,2.8,10.09s-3.54,12.38-4.28,16.75-.31,12.59-.31,12.59a41.22,41.22,0,0,1-13.64,1.67,90.7,90.7,0,0,1-14-1.88s-.09-1.62,0-4a56.85,56.85,0,0,0-.73-7.6s-2.53,9.61-8.13,8.53c-4.38-.84-8-11.34-8-11.34s2.36-2.14,3.23-2.81,3.65-.52,3.65-.52,1.42-9.38,1.77-11c.58-2.73.88-6.17,3.85-9C120,45.15,123.91,44.05,128.39,43.41Z" fill-rule="evenodd"/><g clip-path="url(#o)"><path d="M128.79,43.51l7.88-1.75a4,4,0,0,1,1.15,1.77,37.81,37.81,0,0,1-1.09,8.9c-.43,1.36-2.95,4.28-3.81,4.33-.56,0-1.79-1.38-3.28-4.26-.57-1.09-1.93-5.76-1.93-5.76Z" fill-rule="evenodd"/><path d="M148.55,71.7c-.15-.91.19-8.45.19-8.45L150.85,70S148.7,72.61,148.55,71.7Z" fill-rule="evenodd"/><path d="M115.43,70s1.75-5.41,1.72-6.53.77-9.22.77-9.22.27,4.81.29,6.44,2.11,17.28,2.11,17.28l-2.21,6.14-6.81,1.25s-5.87-5.51-6.43-6.43,1.44-5.09,1.44-5.09l5.18-.86Z" fill-rule="evenodd"/><path d="M149.41,83.51a9.19,9.19,0,0,0-1-1.83c-.27-.12-1.83-.67-1.83-.67l-.38,6.53s.09.08.58,0a21,21,0,0,0,2.4-1Z" fill-rule="evenodd" style="mix-blend-mode:screen"/></g><path d="M107.75,68.24l2.78,1.63s1.28,3.1,1.25,3.27.43,3-3.55,3.84A7,7,0,0,1,105,76.4l-1.63-4.13L105,68.34Z" fill-rule="evenodd"/><path d="M131.38,39.55c.43.12,2.32.36,2.32.36a4.19,4.19,0,0,1-2.67.33,3.48,3.48,0,0,1-1.7-1.46C129.28,38.78,130.89,39.4,131.38,39.55Z" fill-rule="evenodd"/><path d="M133.56,38a6.4,6.4,0,0,1-1.94.35c-.5-.12-1-.84-1-.84a5.45,5.45,0,0,0,1.08.26c.44,0,1,.06,1,.06l.79-3.3.65-1.33,2.3.33V34h-1.67l-.39.83Z" fill-rule="evenodd"/><path d="M144.09,79.47a71.26,71.26,0,0,1,4.16,7.18c.81,2,1.46,10.53,1.46,10.53s1.36.65,1.57,1.46-.94,3.32,1.56,20.72,9,63.51,9,63.51a12.63,12.63,0,0,1-3.74,1.06,5.15,5.15,0,0,1-3.85-.73s-1.72-7.33-3.25-12.62c-4-13.89-4.9-25.78-5.82-28.93C144,137.49,136,106.76,136,106.76s-1.77,29.35-1.77,33.12,1.22,16.12.92,27c-.19,6.84-.58,17.67-.58,17.67a17.71,17.71,0,0,1-4.2.36,10.28,10.28,0,0,1-3.29-.75s-3.13-35.69-4-47.06-2.34-35.4-2.87-38.23.63-2.71.63-2.71.27-3.68.26-4.36.73-10.52.73-10.52Z" fill-rule="evenodd"/><g clip-path="url(#p)"><path d="M137,126.81c0,.48-1.92,58.56-1.92,58.56a98.6,98.6,0,0,1-.77-10.08c-.13-5.5-1-29.4-1.34-37-.3-6.24,2.4-34.37,2.4-34.37l1,6.33S137,126.32,137,126.81Z" fill-rule="evenodd" style="mix-blend-mode:screen"/><path d="M159.88,159.26l2.49,24.19s-4.57-23.71-7.48-41.67-6.44-44.45-6.44-44.45l3.65,2.79Z" fill-rule="evenodd" style="mix-blend-mode:screen"/><path d="M120.52,89.27l3.55.19s-.75,5.27-2.4,6.24a3.94,3.94,0,0,1-1.35.48Z" fill-rule="evenodd"/></g><path d="M126.86,33.82a2.26,2.26,0,0,1-.43-.23c-.25-.16-.51-1.37-.51-1.37l.47.51s-.24-.61-.36-1S126,31,126.3,31s.63,1.45.63,1.45Z" fill-rule="evenodd"/><path d="M138.66,35.51l1.48-1c.29-.21-1,.34-1,.34l.83-.71s.43-.84.23-1.17-1.26,1.7-1.26,1.7Z" fill-rule="evenodd"/><path d="M135.23,35.33a14,14,0,0,0,2,.2L136.6,35a12.82,12.82,0,0,1-1.29-.14,4.23,4.23,0,0,0-1.1,0A6.71,6.71,0,0,0,135.23,35.33Z" fill-rule="evenodd"/><path d="M137.34,33.2c.55.26.77,1.52.77,1.52a3.73,3.73,0,0,0-.79-.72,4,4,0,0,0-1.46-.46,9.19,9.19,0,0,1-1.68-.33c-.19-.11.52-.41.52-.41A14,14,0,0,1,137.34,33.2Z" fill-rule="evenodd"/><path d="M129.45,45.39l2.21.72,2.54,0,2.41-1.35.64-.49a34,34,0,0,1,1.23,4.16c.39,1.93-1.06,4.65-1.06,4.65l-5.21-6.58-4.36,6.9a20.72,20.72,0,0,1-1-3,13.51,13.51,0,0,1,.26-5Z" fill-rule="evenodd" style="mix-blend-mode:multiply"/><path d="M131.93,46.34s-1,1.16-1.78,2.18-2.22,2.82-2.22,2.82-.65-1.16-.86-3a12,12,0,0,1,.24-4.76c.72-1.31,1-1.38,1-1.38A5.77,5.77,0,0,0,131,45.71a3.62,3.62,0,0,0,4.27-1.17,12.74,12.74,0,0,0,1-3.81,2.47,2.47,0,0,1,.82.75c.27.44,1.1,2.16,1.15,5.61a28.14,28.14,0,0,1-1.07,4.41,26,26,0,0,1-3.18-3.22,8.8,8.8,0,0,0-1.85-2Z" fill-rule="evenodd"/><path d="M149.5,65.9a20.23,20.23,0,0,0,2,4.89L147,67.05a5.25,5.25,0,0,0-4.59,1.25,4.11,4.11,0,0,0,.11,4.89C143.63,74.38,151.66,87.11,159,85c4.7-1.33-.72-19.21-2.4-27.88-1.37-7.11-8-11.12-8.05-11.07S149,63.54,149.5,65.9Z" fill-rule="evenodd"/><g clip-path="url(#q)"><path d="M151.73,42.53l8.58,8s3.59,16.08,4,17A52.19,52.19,0,0,1,163,81.94c-1.17,4-4.49,3.55-4.49,3.55A17.26,17.26,0,0,0,160,78.85c-.17-4.12-1.85-9.48-4.87-22.2-2.59-10.92-10.94-12.8-10.94-12.8Z" fill-rule="evenodd"/></g><path d="M147,68.44c0,.55,0,1,0,1a34,34,0,0,1,3.75,2.59c1.07,1,5.18,4.13,5.18,4.13a42.47,42.47,0,0,0-3-3.84,74.76,74.76,0,0,0-6.05-5.28S147,67.8,147,68.44Z" fill-rule="evenodd"/><path d="M100.44,62.6l8,11.34a1.88,1.88,0,0,0,1.44.71l28.66,1.28c.56,0,1-.85.73-1.46l-7.61-12.28a1.86,1.86,0,0,0-1.43-.71l-28.74-.34C101,61.13,100.08,61.91,100.44,62.6Z" fill-rule="evenodd"/><path d="M100.44,62.77,108,74.91a1.89,1.89,0,0,0,1.43.71l28.72.34c.55,0,.8-.3.56-.69l-7.51-12.13a1.84,1.84,0,0,0-1.44-.71L101,62.09C100.46,62.08,100.2,62.39,100.44,62.77Z" fill-rule="evenodd"/><path d="M120.85,89.26A64.69,64.69,0,0,0,133.15,91a81.87,81.87,0,0,0,16-1.46l-.42-2.19s-8.4,1.82-14.89,1.57A91,91,0,0,1,121,87.38Z" fill-rule="evenodd"/><path d="M129.08,88.32l-.31,3.23s-1.33-.16-1.46-.21a26.42,26.42,0,0,1,.21-3.23Z" fill-rule="evenodd"/><path d="M141.27,88.32l.31,3.23s1.31-.16,1.44-.21a28.57,28.57,0,0,0-.21-3.23Z" fill-rule="evenodd"/><path d="M133.59,90.32h1.14v-.47s-1.4,0-1.72,0a.23.23,0,0,0-.24.23.24.24,0,0,0,.23.24Z"/><path d="M134.68,91.52c.75,0,2.38-.1,2.46-.1a.24.24,0,0,0,.22-.25.23.23,0,0,0-.25-.21s-2,.11-2.57.09c-.4,0-.61-.06-.64-1.12,0-.76.16-.89.74-.91.82,0,2.37,0,2.38,0a.23.23,0,0,0,.24-.23.23.23,0,0,0-.23-.23c-.06,0-1.57,0-2.41,0-1,0-1.2.58-1.18,1.38,0,1,.2,1.55,1.09,1.57Z"/><path d="M149.5,65.9a20.23,20.23,0,0,0,2,4.89L147,67.05a5.25,5.25,0,0,0-4.59,1.25,4.11,4.11,0,0,0,.11,4.89C143.63,74.38,151.66,87.11,159,85c4.7-1.33-.72-19.21-2.4-27.88-1.37-7.11-8-11.12-8.05-11.07S149,63.54,149.5,65.9Z" fill-rule="evenodd"/><g clip-path="url(#q)"><path d="M141.48,66.45l4.69-1,3.33,3.23s1.28,5.06-.62,6.77c-1.41,1.25-5.11.62-5.11.62s.28,1.33-1,0-1.46-5.31-1.46-5.31Z" fill-rule="evenodd"/></g><path d="M141.79,70.09a7.3,7.3,0,0,1-1-1.56,4.13,4.13,0,0,1-2,.11c-.79-.26-2.29-2.5-2.29-2.5s-2.11-1-2-2.19c.05-.49,1.77-.21,1.77-.21s.2-.45.42-.83,1.87-2.19,1.87-2.19l-.62-.73h-1.46a5.06,5.06,0,0,1-.83,1c-.64.66-1.5.9-1.67.42s1.49-2.67,1.67-2.92,3.75-.1,3.75-.1l1.14,1.46,1.15,1.25a8.8,8.8,0,0,1,1.25,2.08c.36,1,3.44,4.58,3.44,4.58a13.33,13.33,0,0,1,.21,2.71c-.11.85-.89,1.8-1.67,1.77s-1.67-1.66-1.67-1.66S142.54,71,141.79,70.09Z" fill-rule="evenodd"/><path d="M142.6,62.38a16.4,16.4,0,0,0,3.45,5,7.75,7.75,0,0,1,.29,1.63,16.34,16.34,0,0,1-.09,2,9.93,9.93,0,0,0-1.54-1.54c-.43-.29-4.23-3.84-4.23-3.84L140,64.31a18,18,0,0,0,.2-3.17,2.79,2.79,0,0,1,.19-1.44A13.88,13.88,0,0,1,142.6,62.38Z" fill-rule="evenodd"/><path d="M105.31,73c.45.29,1-.56,1-.56l-.42-1a8.46,8.46,0,0,1-.38-1.5c0-.4-.69-1-.69-1a12.4,12.4,0,0,0,2.64,0c.72-.18-.27-2.16-.57-2.62s-1.43-.66-2.63-1a4.8,4.8,0,0,0-2.4,0s0-1,.77-1c1,0,2.1.38,3,0,.46-.21-.19-.42-.57-.87s-3.83-.47-4.46-.24-.34,3-.34,3,2.51,3.22,2.88,3.64,1.48,2.2,1.48,2.2A2.1,2.1,0,0,0,105.31,73Z" fill-rule="evenodd"/><path d="M80,47.75c2.34,1.52,11.61,12.71,11.61,12.71s4.19-6.16,5.82-8.63,1.9-4.82,4.08-5,6.66-.25,6.66-.25a12.22,12.22,0,0,0,1.67-1.49c.44-.52,2.5-3.19,2.91-3S111.8,45,111,46s1.14-.84,1.75-1.41,2.37-1.53,2.08-.83a30,30,0,0,1-4.16,4.57c-1.41,1.3-1.59,1.73-2.83,1.91s-5.31.09-5.5.33-3.44,8.84-5.24,12.29S93,68.86,91.31,69c-2.2.2-8.38-4.87-10.16-6.73s-4.85-12-5.86-13c-1.57-1.63-5-3.1-4.41-3.41S76.86,45.74,80,47.75Z" fill-rule="evenodd"/><g clip-path="url(#s)"><path d="M87,53.82l-5.29,6.89-3.08,1.08s-9-13.28-7.77-16.2,8,.59,8,.59Z" fill-rule="evenodd"/><path d="M109.15,50.16a3.69,3.69,0,0,1-1-.66,1,1,0,0,1-.24-.34c-.24-.55-2-.91-2-.91l-4.74,1.08a3.69,3.69,0,0,1,.91.75,6.23,6.23,0,0,1,.5.66,28.83,28.83,0,0,1,3.83-.25A10.9,10.9,0,0,0,109.15,50.16Z" fill-rule="evenodd" style="mix-blend-mode:multiply"/><path d="M93.09,58s-1.7,2.85-2.33,3.83-1.33,2-1.33,2a12,12,0,0,1,.75-3.16c.51-1,1.75-3.16,1.75-3.16Z" fill-rule="evenodd" style="mix-blend-mode:multiply"/><path d="M79.28,53.24S79,50,79.36,49.66c.13-.1.55,1.05.75,2.83.08.66.09,1.76.34,1.91a11.2,11.2,0,0,1,4,4.24A29.07,29.07,0,0,1,85.77,63c.85,2.78,1.83,5.4,1.83,5.4l-4.66-3-.16-2.91v-4.4a14.58,14.58,0,0,1-2.5-2.5A6.08,6.08,0,0,1,79.28,53.24Z" fill-rule="evenodd" style="mix-blend-mode:multiply"/></g><path d="M56.07,68.94s6.86-13,4.24-17.28-5.77-4.19-7.32.91-6.63,22.67-4.91,24.27C51.61,80.13,56.07,68.94,56.07,68.94Z" fill-rule="evenodd"/><path d="M78.28,51.07s-2-9.89-2.16-11.3a11.86,11.86,0,0,1,.25-3.32c.13-.68,1.48-6-1.83-8.4s-10-2.39-11.73,1.17-1,7-1.09,9.89-4.49,12.3-4.49,12.3S60.88,65.35,64,67s13.75-1.9,15.31-5.74S78.28,51.07,78.28,51.07Z" fill-rule="evenodd"/><g opacity="0.2" style="mix-blend-mode:soft-light"><path d="M78.28,51.07s-2-9.89-2.16-11.3a11.86,11.86,0,0,1,.25-3.32c.13-.68,1.48-6-1.83-8.4s-10-2.39-11.73,1.17-1,7-1.09,9.89-4.49,12.3-4.49,12.3S60.88,65.35,64,67s13.75-1.9,15.31-5.74S78.28,51.07,78.28,51.07Z" fill="#fb0d1b" fill-rule="evenodd"/></g><path d="M79.56,54.52s1.15-6.18-2.19-7.93c-2-1-5.82-1.22-9-1.08S55.2,46.8,53.72,50.82s2.6,10,4.56,12.75,5.21,11.62,5,12.24S55.79,87.46,56.5,95s6.39,50.76,7.19,55,1.41,8,1.41,8l1.34,8.36A27.3,27.3,0,0,1,64.17,171c-1,1.31-2.7,3.29-2,6.22s1.72,3.3,1.85,6.18c.06,1.1.09,2.33.09,2.33l1.5-.08.12-3.64c0-.44.33-1,.88.35a6.72,6.72,0,0,0,.74,1.38s-1.19,8.3-1.08,9.89,2.14,4,4,4.15,3.2-2.06,4-3.82c.59-1.3-.48-7.54-.48-7.54a15.09,15.09,0,0,0,3.58.23,25.76,25.76,0,0,0,3.65-.45A4.14,4.14,0,0,0,78.11,183c-2.51-.68-4.78-4-4.78-4s-.16-3.39-.24-5.15a70.77,70.77,0,0,1-.2-9c.34-3.54.51-10.5.51-10.5s2.36-7.37,3.36-9.91,11-24.07,11.09-39.84S85.47,83.2,84.52,80.23s-2.66-7.74-2.66-7.74a7.34,7.34,0,0,1-.1-3.24c.47-2.17.74-3.1.74-3.1a6.78,6.78,0,0,0,1.63-6.53A8.35,8.35,0,0,0,79.56,54.52Z" fill-rule="evenodd"/><g clip-path="url(#t)"><path d="M82.36,133.35l-8.82,23.36a41.29,41.29,0,0,1,0-7c.3-4.56,1.58-15.55,1.58-15.55l5.24-1.24Z" fill-rule="evenodd"/><path d="M83.16,71.29a61.85,61.85,0,0,1,5,20.55c1.68,21.7-6.56,43.93-6.56,43.93s-5.41-.05-12.82-.18-9.56.46-9.56.46S54.36,97.4,56.46,88.24s6.19-12.43,5-14.46-9.73-15.47-9.28-20,2-6.18,5.11-7.06A20,20,0,0,1,63,46s10-2.12,13.22-.58,5.59,3.89,6.19,6.3a90.92,90.92,0,0,0,3.26,8.63Z" fill-rule="evenodd"/><path d="M84.94,79.66s-3.28,10.43-6.16,32.08c-1.48,11.14-3.91,24.11-3.91,24.11l6.66.16,5.74-7.48s4.13-15.36,3.66-23.1S84.94,79.66,84.94,79.66Z" fill-rule="evenodd" style="mix-blend-mode:multiply"/><path d="M84.94,61.21a3.93,3.93,0,0,0-4,0,11.44,11.44,0,0,1-5.66,1.42c-1.06-.09-4.09-1.76-6.83-.34S61.06,71,61.06,71s-.73,3.27,1,3.49,3.8-1.11,5-1.25c2.33-.26,4.2,1.22,7.24.75s4.38-2.51,5.41-2.74l4.57-1.08s-.88-2.46.09-4S84.94,61.21,84.94,61.21Z" fill-rule="evenodd" style="mix-blend-mode:multiply"/><path d="M61.14,70.77l-3.58-7.56,1.83-6.9s1.17,1.6,1.25,7.06A64.69,64.69,0,0,0,61.14,70.77Z" fill-rule="evenodd"/></g><path d="M72.69,28.87s2.86,1.5,3.2,3.81c.19,1.25,0,1.82.18,3A7.63,7.63,0,0,1,75,40.44c-1,1.2-1.32,1.5-1.68,1.54a5.48,5.48,0,0,1-1.66-.16,5.1,5.1,0,0,0-.31,1.73c-.06,1.19-.15,1.42.14,1.71a2.5,2.5,0,0,0,1.17.33,25.64,25.64,0,0,1,1.91,5.9,62.38,62.38,0,0,1,.75,6.9L67.88,50.8c-2.77-2.81-4.57-4.71-4.57-4.71S65.67,45.89,66,45a47.9,47.9,0,0,0,.41-5.75c0-.29-.13-1.24-.13-1.24s-2.7-.94-2.17-2.93c.42-1.56,2.08-.14,2.08-.14a29.91,29.91,0,0,1,3.36-4.35A11.9,11.9,0,0,1,72.69,28.87Z" fill-rule="evenodd"/><g clip-path="url(#u)"><path d="M73.21,42a11.06,11.06,0,0,1-3.41-2.5c-2.44-2.72-1.29-3.45-1.53-4.13-.38-1.12-.65-1.48,0-2.6.18-.35-.75-.5-.75-.5L66.13,34.7s-.49,3.12.5,4,3.89,2.87,5,3.08,2.08.41,2.08.41Z" fill-rule="evenodd"/><path d="M73.37,42a7.77,7.77,0,0,1-3.24-1,14.1,14.1,0,0,1-3.75-2.66c-.18-.31-.29-.33-.29-.33l0,2.16s2,4.66,3.91,5.07c1.73.36,2-1.86,2.08-2S73.37,42,73.37,42Z" fill-rule="evenodd"/><path d="M66.39,38.39s.3,5.09.33,6.12a1.67,1.67,0,0,1-1.33,1.91l-2.42.5a.92.92,0,0,1,.17-1.08c.76-.65,2.47-1.21,2.58-1.75.15-.73.28-4.84.4-6C66.15,37.9,66.39,38.39,66.39,38.39Z" fill-rule="evenodd"/></g><path d="M56.07,68.94s6.86-13,4.24-17.28-5.77-4.19-7.32.91-6.63,22.67-4.91,24.27C51.61,80.13,56.07,68.94,56.07,68.94Z" fill-rule="evenodd"/><g clip-path="url(#v)"><path d="M58.4,67.11a5.64,5.64,0,0,0-4.25-2.65,23.26,23.26,0,0,0-5.24.16s2.89-11.75,4.16-13.88,4.6-4.65,6.32-2.57,3,6.45,2.5,8.72S58.4,67.11,58.4,67.11Z" fill-rule="evenodd"/></g><path d="M56.07,68.94a3.93,3.93,0,0,0-.75-.16,6.24,6.24,0,0,0-4.45,1.3c-1.74,1.28-3.61,6-2.79,6.76,1.62,1.47,6.79-.27,11.48-1.66C63.9,73.89,64.2,73,66,72.59c.93-.23,1.45,0,3.74.31a10.14,10.14,0,0,0,2.19.24c1.36-.1,2.05-.18,3.28-3.43a2.53,2.53,0,0,1,.39-.71,1.23,1.23,0,0,0,1.17-.86c.3-.89-.5-1.07-1.31-1.23S73,66.52,73,66.52a5,5,0,0,0-1.17-1.1,3.16,3.16,0,0,0-3,.71c-1,1-1.55,1.64-2.11,1.79C65.16,68.34,56.07,68.94,56.07,68.94Z" fill-rule="evenodd"/><g clip-path="url(#w)"><path d="M57.07,68.61a16.36,16.36,0,0,0-3.67,1.25c-1.23.72-2.33,1.49-2.33,1.49A4.85,4.85,0,0,1,54,68.81,7.57,7.57,0,0,1,57.07,68.61Z" fill-rule="evenodd" style="mix-blend-mode:multiply"/></g><path d="M73.79,54.9l.08-2-1.16-.66-.42,1.16Z" fill-rule="evenodd"/><path d="M72.71,52.15l.66.92.42,1.83-1.5-1.5Z" fill-rule="evenodd"/><path d="M74.18,38.09a1.79,1.79,0,0,1-1.3.77,9.18,9.18,0,0,1-2.75-.65,5.8,5.8,0,0,0,2.68,1.31c.92,0,1.16-.33,1.35-.83A1.34,1.34,0,0,0,74.18,38.09Z" fill-rule="evenodd"/><path d="M74.18,38.09a6.2,6.2,0,0,1-1.69.22c-1,0-2.36-.1-2.36-.1a29.22,29.22,0,0,1,3.56-.52C74.29,37.68,74.18,38.09,74.18,38.09Z" fill-rule="evenodd"/><path d="M74.18,38.09s-.3.9-.89,1a7.75,7.75,0,0,1-3.24-.87s2.24.06,3,0S74.18,38.09,74.18,38.09Z" fill-rule="evenodd"/><path d="M70.88,34.85l-.75-.51A3.19,3.19,0,0,0,69,34.5,3.31,3.31,0,0,0,68,35s1.27-.08,1.74-.08Z" fill-rule="evenodd"/><path d="M74.46,32.71A3.25,3.25,0,0,1,74,34.2a2,2,0,0,1-.75.5s-.19-1.06.16-1.41A3.26,3.26,0,0,1,74.46,32.71Z" fill-rule="evenodd"/><path d="M71.13,33.12a2.36,2.36,0,0,1,0,.92.93.93,0,0,1-.42.66s-1.49-1.94-1.16-2A6.32,6.32,0,0,1,71.13,33.12Z" fill-rule="evenodd"/><path d="M74,36.78s-.22.49-.5.58-1.08-.25-1.08-.25Z" fill-rule="evenodd"/><path d="M71,32.62a4.91,4.91,0,0,0-2.24-.41c-.41.14-1.31,1.08-1.17,1.16s.9-.53,1.42-.41a8.77,8.77,0,0,0,2,.5C71.32,33.34,71.19,32.79,71,32.62Z" fill-rule="evenodd"/><path d="M73.37,32.54a3.34,3.34,0,0,1,1.75-.66c.37.07.94.72.83.83s-.67-.22-1.08,0-1.16.64-1.41.58S73.28,32.73,73.37,32.54Z" fill-rule="evenodd"/><path d="M76,34.41l-.93-.4a2,2,0,0,0-1.08.11c-.61.18-.65.51-.65.51l1.33-.11A11.89,11.89,0,0,0,76,34.41Z" fill-rule="evenodd"/><path d="M66.07,35.92S64.93,34.66,64.6,35s-.11.59.14.79,1.12.68,1.12.68-1.15-.5-1-.14,1,.59,1.15.7S66.07,35.92,66.07,35.92Z" fill-rule="evenodd"/><path d="M61.6,135.74c0-.14-1.93-14.38-3.45-26.36-.93-7.33-1.76-14-1.76-15.53,0-6,4.56-14,6.28-17,.3-.53.52-.91.59-1.07A4.84,4.84,0,0,0,63,74.53l.12,0a4.27,4.27,0,0,1,.29,1.34c-.07.17-.28.53-.6,1.08-1.71,3-6.26,10.93-6.26,16.94,0,1.49.83,8.19,1.76,15.51,1.52,12,3.43,26.22,3.45,26.37Z"/><g opacity="0.88"><rect x="34.51" y="84.56" width="131.9" height="78.71" fill="url(#x)"/></g></g><circle cx="100.46" cy="66.97" r="63.87" fill="none" stroke="#fff" stroke-miterlimit="10" stroke-width="2.93"/><circle cx="100.46" cy="66.97" r="63.87" style="mix-blend-mode:hue"/></g></svg>