<svg xmlns="http://www.w3.org/2000/svg" xmlns:xlink="http://www.w3.org/1999/xlink" viewBox="0 0 134 142.01"><defs><linearGradient id="a" x1="9.98" y1="83.16" x2="20.51" y2="71.88" gradientUnits="userSpaceOnUse"><stop offset="0" stop-color="#efa698"/><stop offset="1" stop-color="#f5baaa"/></linearGradient><clipPath id="b"><circle cx="-81.95" cy="65.34" r="63.87" fill="none"/></clipPath><linearGradient id="c" x1="-83.64" y1="-68.21" x2="-83.64" y2="75.9" gradientUnits="userSpaceOnUse"><stop offset="0" stop-color="#00b6ff"/><stop offset="0" stop-color="#52a0ff"/><stop offset="1" stop-color="#d7f2ff"/></linearGradient><clipPath id="d"><path d="M7.72,95C5.93,96.47,2,96.42,2,96.42c-.47-5.26-.15-10.6,2.05-18.64a56.15,56.15,0,0,0,.49-6.49,62.38,62.38,0,1,1,4,25.44Z" fill="none"/></clipPath><clipPath id="e"><circle cx="67" cy="74.43" r="63.87" fill="none"/></clipPath><linearGradient id="f" x1="63.42" y1="-47.66" x2="63.42" y2="96.45" xlink:href="#c"/><linearGradient id="g" x1="69.5" y1="28.86" x2="73.27" y2="84.99" gradientUnits="userSpaceOnUse"><stop offset="0" stop-color="#fff"/><stop offset="1" stop-color="#fff" stop-opacity="0"/></linearGradient><clipPath id="h"><path d="M112.39,48.54s-4.59-3.58-5-3.88a2,2,0,0,1-.4-2.14c.08-.17.83,0,.94-.14.24-.41-1.3-.55-.14-.93.21-.07,2.72-.31,3-.38a17.17,17.17,0,0,1,6.31-.7,6.39,6.39,0,0,1,5.5,5.36,6.77,6.77,0,0,1-1.8,6.32,18,18,0,0,1-4.37,2.39C116.1,54.55,112.39,48.54,112.39,48.54Z" fill="#915853" clip-rule="evenodd"/></clipPath><clipPath id="i"><path d="M76.41,64.14,79,62.37a27.15,27.15,0,0,0-1.57-2.31,3.64,3.64,0,0,1-.7-2.9,26,26,0,0,1,.56-3.26s-.37-1-.66-1.53a10.77,10.77,0,0,0-1-2,1.28,1.28,0,0,0-1.41.42c-.29.46-.42.42-.42.42L73,50.64c-.33-.27-.87.52-1.3,1.06a7.81,7.81,0,0,0-.81,1.95,13.13,13.13,0,0,0,.37,1.73,1.16,1.16,0,0,0,.66.73,5.2,5.2,0,0,0-.12,1.18,11.47,11.47,0,0,0,.77,2.31,10.4,10.4,0,0,0,1,.74,8.4,8.4,0,0,1,1,1.79Z" fill="#fdcfc0" clip-rule="evenodd"/></clipPath><clipPath id="j"><path d="M76.41,64.14,79,62.37a27.15,27.15,0,0,0-1.57-2.31,3.64,3.64,0,0,1-.7-2.9,26,26,0,0,1,.56-3.26s-.37-1-.66-1.53a10.77,10.77,0,0,0-1-2,1.28,1.28,0,0,0-1.41.42c-.29.46-.42.42-.42.42L73,50.64c-.33-.27-.87.52-1.3,1.06a7.81,7.81,0,0,0-.81,1.95,13.13,13.13,0,0,0,.37,1.73,1.16,1.16,0,0,0,.66.73,5.2,5.2,0,0,0-.12,1.18,11.47,11.47,0,0,0,.77,2.31,10.4,10.4,0,0,0,1,.74,8.4,8.4,0,0,1,1,1.79Z" fill="none" clip-rule="evenodd"/></clipPath><clipPath id="k"><path d="M73.51,63.5C73.8,65.15,80,81.12,82,81.7c3.3,1,17.57-6.41,17.57-6.41s.56,10.16.89,14.62-.21,13-.13,14.49-.38,6.66-.38,6.66l-1.15,3.46s.43,8.73,1.53,22.44,2,21,3.73,39c1.54,16.26,1.7,24.87,1.7,24.87.55-.61,5.63.34,5.93.77,0,0,.5-7.44.57-15.26.13-14.29.35-14.35.51-18.84.11-3-1.9-8.8-1.15-21.54.69-11.82,1.41-15.39,1.41-15.39s4.1,14.79,6.15,22.44,5.48,21.67,6.92,27.69a159.45,159.45,0,0,1,3.4,21.8,9.29,9.29,0,0,1,3.26-.26,23,23,0,0,1,3.47.9s-.32-9.74-1.3-19.32-2.67-17.19-3.7-23.25-2.85-39.29-2.82-41a9.1,9.1,0,0,0-.64-3.33,10.55,10.55,0,0,1,0-2.18c.11-1.51-.35-11.05-.25-14.61s3.11-17,4.33-20,5.35-5.35,4.36-9.35-13.59-11.29-17.81-12.54-12,1.61-14.61,2.43-3.26,1.28-6.32,3.32-13.16,8.29-13.16,8.29-1.6-3.08-2.69-5.12-3.85-7.7-3.85-7.7S73.24,62,73.51,63.5Z" fill="#938bc4" clip-rule="evenodd"/></clipPath><radialGradient id="l" cx="-3719.28" cy="182.28" r="47.15" gradientTransform="matrix(-1, 0, 0, 1, -3595.45, -0.41)" gradientUnits="userSpaceOnUse"><stop offset="0" stop-color="#c6c5cb"/><stop offset="1" stop-color="#fff"/></radialGradient><clipPath id="m"><path d="M107.83,43.72c0,.34-.27,1.43-.53,2.68s-.36.87-.27,1.34a3.22,3.22,0,0,0,.53,1.07,2.54,2.54,0,0,0-.4.67,12.66,12.66,0,0,0-.27,2.68c.15.58.23,1.22.35,1.88a14.39,14.39,0,0,0,1.13,3.08c.38.65,1.92.69,4,.13A10.89,10.89,0,0,0,117,54.44a6.9,6.9,0,0,0,.41-1.88,5.69,5.69,0,0,0,1.61-.67c.52-.39,1.83-2.72.26-3.35C118,48,117,51,117,51a1.13,1.13,0,0,1-.67-.14c-.47-.3-.25-4.59-.4-5.36s-1.16-1.19-2.28-1.2-3.19.23-4.29.27a2.22,2.22,0,0,1-1.07-.54S107.87,43.38,107.83,43.72Z" fill="#fdcfc0" clip-rule="evenodd"/></clipPath><clipPath id="n"><path d="M118.38,55.29a25.62,25.62,0,0,1,1.16,2.31,13.51,13.51,0,0,1-.39,2.31c-.36,1.51-3.18,4.67-3.18,4.67l-3.15-2.95-1.38-.23-3.06,2.43a11.58,11.58,0,0,0,1-3,20.23,20.23,0,0,1,.89-2.56c.08-.43.9-.77.9-.77a4.89,4.89,0,0,0-.41,1.56,6.56,6.56,0,0,0,.81,1.64s4.11-.55,5.06-1.48,1.08-4.8,1.08-4.8S118.12,54.9,118.38,55.29Z" fill="#fcf6ff" clip-rule="evenodd"/></clipPath><clipPath id="o"><path d="M120.18,92.34l.13,3.21-4.24-.9s-1.44-.76-2-.38-2.59,0-3.84-.12-1.38-1.06-2.06-1.93a5.31,5.31,0,0,1-.76-2.45l-.65-.38-.64-.65s.48-1,1.16-1a15.29,15.29,0,0,0,1.79-.12,7.73,7.73,0,0,0,1.54-1c.56-.54,2,.27,2,.27s1.26,2,1.8,2.56a4,4,0,0,0,1.15.9Z" fill="#fdcfc0" clip-rule="evenodd"/></clipPath><clipPath id="p"><path d="M43.31,72.53s-1.68-3.7-3-5.9c-1.56-2.67-2.79-7.06-6.88-8.35s-16.26-2.66-21.26-.37S6,69.24,5.09,73.39,2,88.55,4.48,89.25s3.81-.26,5-2.71c1.05-2.11,4.17-14,4.17-14s3.27,6.63,3.69,8.11-4.22,11.77-5.9,17.7c-2.35,8.31-.86,51-.86,51s-3,9-4.3,13.64-1.47,28.27-1.47,28.27-1.8,0-1.85.37.68,7.08.49,9.34-1.23,10-.12,10.57,8.11.79,9,.74.25-2.81-.61-4.06a15.94,15.94,0,0,1-1.72-7c.16-1.64,2.62-9.12,2.45-9.47s-1.35-.24-1.35-.24,2.37-15.4,3.57-20.16,6.51-26.91,6.51-26.91l3.56-.13a31.86,31.86,0,0,1-1.6,6.89c-1.42,4.33-1.79,19.11-2.08,27.77s-.23,13.91-.25,15-2.14,2.42-1.72,5.17a15,15,0,0,0,.61,3.07l.74,5.41,1.11.24,1.1-.12-.12-2.58A16.26,16.26,0,0,0,24,208.58c.83,1.24,5.19,1.41,7.5,1.35s2.7-.49,2.7-.49a3.47,3.47,0,0,0-1.59-2.58c-1.88-.88-4.43-3.38-4.55-6-.14-3.21,1.46-8.5,1.23-9s-2.95-.86-2.95-.86,3.32-22.22,4.91-29.5,10.34-33,11.31-39.7,1.43-19.58-2-27.25a91.34,91.34,0,0,1-4.48-11.33,12.42,12.42,0,0,1-.5-2.46c0-.76-.12-3.32-.12-3.32a4.8,4.8,0,0,1,.62-.86,2,2,0,0,0,.49-.86,71.62,71.62,0,0,0,5.4,8.6,3.37,3.37,0,0,0,3.57,1.48c2-.15,3.11-4.74,3.19-11.19s-.58-8.34.25-10.2,2.25-3.63,2.46-5.9a28.31,28.31,0,0,0-.37-5.4c0-.34.37-1.59,0-1.72s-1.12,1.16-1.48,2.21a15.16,15.16,0,0,1-1,3c-.45.64-1.72,2.33-1.72,2.33a9.37,9.37,0,0,1-.25-1.1c0-.46.55-2.29.37-2.95s-.85-.78-.86-.25A21.82,21.82,0,0,1,45,58a4.41,4.41,0,0,0-.59,3.25,19.41,19.41,0,0,1,.46,3.27c0,.92-1.72,7.74-1.72,7.74Z" fill="#f7c5b4" clip-rule="evenodd"/></clipPath><linearGradient id="q" x1="45.66" y1="73.08" x2="48.68" y2="56.19" xlink:href="#a"/><clipPath id="r"><path d="M30.9,51.17s3.53-.91,3.68-3.94-2.82-6.48-3.64-7.4c-1.52-1.71-5-2.73-6.19-2.81a4.58,4.58,0,0,0-4.05,1.84s-3.45.39-3.65,5,.46,5.13,1.23,6.66,5.87,3.07,6.61,3S30.9,51.17,30.9,51.17Z" fill="#442c3d" clip-rule="evenodd"/></clipPath><clipPath id="s"><path d="M25.41,70.24l-8.81-.08A10.59,10.59,0,0,1,17.16,69l.41-.32.65-.08.32-.64h5l.25.64.56.16a1.37,1.37,0,0,1,.57.24A6.7,6.7,0,0,1,25.41,70.24Z" fill="#edd6d0" clip-rule="evenodd"/></clipPath><clipPath id="u"><path d="M15.66,77a39.88,39.88,0,0,0-4.3,2c-2.87,1.47-7,3.56-7.51,5C3.27,85.64,2.7,89.32,5,89.53s4.41-.79,6.71-3.35,4.12-4.83,4.67-5.41,1-.08,1.47-.86a6.15,6.15,0,0,0,.49-2.58s2.26-.46,2.83-.62c.85-.24.93-.47,1.23-1.47a4.12,4.12,0,0,0-.49-2.46s-1.41-.19-2.22-.25a12.06,12.06,0,0,0-1.59,0s-.12-.29.61-.37,2.5.56,2.7-.36c.12-.51-2.7-1.49-3.68-.86s-2.07,1.59-2.09,2.58S15.66,77,15.66,77Z" fill="url(#a)" clip-rule="evenodd"/></clipPath><clipPath id="v"><path d="M25.39,41.56a8.62,8.62,0,0,1-1.59,2.85l-1.34,1.48s.08,2.06-.25,2.17a.43.43,0,0,1-.49-.23s-1-2.61-2.13-1.47C17.82,48.06,21.85,50,21.85,50a4.67,4.67,0,0,1,.36.91c.08.35-.35,4.7-1.39,5-1.31.43-5.1,1-5.1,1s3.74,4.3,8.17,4.74c3.91.39,5.6.23,6.76-1.79a2.55,2.55,0,0,0-.12-2.39s-3.12-.37-3.2-1.35a11.08,11.08,0,0,1,.27-2.55,4.74,4.74,0,0,0,1.82,0c.66-.25,1.29-1.41,1.6-2.34l.61-1.84a11,11,0,0,0,.13-2.09,2.15,2.15,0,0,0-.37-1,3.76,3.76,0,0,0,.12-1c-.05-.29-.9-.46-2.09-1.19S25.39,41.56,25.39,41.56Z" fill="none" clip-rule="evenodd"/></clipPath><linearGradient id="w" x1="30.64" y1="54.08" x2="30.64" y2="46" gradientUnits="userSpaceOnUse"><stop offset="0" stop-color="#fcf6f5"/><stop offset="1" stop-color="#ebaeaa"/></linearGradient><linearGradient id="x" x1="23.39" y1="63.62" x2="29" y2="55.35" gradientUnits="userSpaceOnUse"><stop offset="0" stop-color="#fff0f3"/><stop offset="1" stop-color="#fdbfc9"/></linearGradient><linearGradient id="y" x1="64.91" y1="100.02" x2="67.8" y2="143.11" gradientUnits="userSpaceOnUse"><stop offset="0" stop-color="#bd03ad"/><stop offset="1" stop-color="#250254"/></linearGradient></defs><g style="isolation:isolate"><g clip-path="url(#b)"><rect x="-187.27" y="-28.52" width="207.27" height="169.7" fill="url(#c)"/><polygon points="-0.85 65.73 -11.23 78.59 -9.89 99.61 -12.11 104.72 -3.84 104.72 0.67 99.61 -2.04 78.59 4.46 65.73 -0.85 65.73" fill="#5d4f5f"/><polygon points="6.45 65.73 3.27 77.79 2.95 102.05 -2.78 109.44 -28.4 109.44 -28.4 104.72 -5.03 104.72 -0.53 99.61 -3.24 78.59 3.27 65.73 6.45 65.73" fill="#4b3b4d"/></g><circle cx="67" cy="74.43" r="63.87" fill="none" stroke="#fff" stroke-miterlimit="10" stroke-width="2.93"/><polygon points="81.45 20.14 117.77 2.25 97.68 33.75 81.45 20.14" fill="#fff"/><g clip-path="url(#d)"><g clip-path="url(#e)"><rect x="-40.22" y="-7.96" width="207.27" height="169.7" fill="url(#f)"/></g><rect x="18.65" y="25.21" width="108.45" height="88.6" fill="#938bc4"/><rect x="20.88" y="26.98" width="103.99" height="85.06" fill="#ede5fb"/><rect x="23.22" y="30.5" width="98.07" height="78.71" fill="url(#g)"/><path d="M69.34,52.08c-4.62,5.84-6.63,9.1-13.91,10.64a73.22,73.22,0,0,1-17.69,1.17" fill="none" stroke="#889ee9" stroke-linecap="round" stroke-linejoin="round" stroke-width="0.78"/><path d="M33.78,84.21h50.7" fill="none" stroke="#889ee9" stroke-linecap="round" stroke-linejoin="round" stroke-width="0.73"/><path d="M69.55,51.46a12.11,12.11,0,0,0-2.89,1.18" fill="none" stroke="#889ee9" stroke-linecap="round" stroke-linejoin="round" stroke-width="0.78"/><path d="M52.31,41.49a7.15,7.15,0,0,0,.19-.92.42.42,0,0,0,0-.27c-.11-.14-.33-.06-.49,0l-2,1.13-.23-1.57a.55.55,0,0,0-.16-.37c-.16-.13-.41,0-.59.1A16.67,16.67,0,0,0,47.06,41a3.23,3.23,0,0,1-.91.65,1,1,0,0,1-1-.17c-.25-.26-.25-.67-.47-1a1.11,1.11,0,0,0-1.06-.36,6.65,6.65,0,0,0-1.13.34,5,5,0,0,1-2.34.2" fill="none" stroke="#889ee9" stroke-linecap="round" stroke-linejoin="round" stroke-width="0.73"/><path d="M56.36,40.41a5.78,5.78,0,0,0-.19.92.38.38,0,0,0,0,.26c.11.15.33.07.49,0l2-1.13L59,42a.51.51,0,0,0,.15.36c.17.13.41,0,.59-.09a15.66,15.66,0,0,0,1.91-1.44,3.19,3.19,0,0,1,.91-.64,1,1,0,0,1,1.05.17c.24.26.24.67.46,1a1.14,1.14,0,0,0,1.06.36,6.39,6.39,0,0,0,1.13-.34,5,5,0,0,1,2.34-.2" fill="none" stroke="#889ee9" stroke-linecap="round" stroke-linejoin="round" stroke-width="0.73"/><path d="M73.21,40.41a2.91,2.91,0,0,0-.65,1.13,4.16,4.16,0,0,0,2.38-1.47c.18.19.07.5,0,.75s-.15.59.08.73a.63.63,0,0,0,.45,0l.64-.16" fill="none" stroke="#889ee9" stroke-linecap="round" stroke-linejoin="round" stroke-width="0.73"/><path d="M89.92,53.17l-.07.45c.73-.09,1.26-.73,1.87-1.16.33-.23.9-.34,1,0,.09.22,0,.52.15.68a.51.51,0,0,0,.35.09l4.84.09" fill="none" stroke="#889ee9" stroke-linecap="round" stroke-linejoin="round" stroke-width="0.73"/><path d="M83.45,57a1.25,1.25,0,0,0,1.43.38A6,6,0,0,1,86.41,57c.68,0,1.28.44,2,.54a5.87,5.87,0,0,0,1.9-.24,6.49,6.49,0,0,1,2.56,0" fill="none" stroke="#889ee9" stroke-linecap="round" stroke-linejoin="round" stroke-width="0.73"/><path d="M45.44,67.58c.26,9.23.31,1.14.15,10.37" fill="none" stroke="#889ee9" stroke-linecap="round" stroke-linejoin="round" stroke-width="0.73"/><path d="M79,57.64c.27,9.23.32,11.16.16,20.4" fill="none" stroke="#889ee9" stroke-linecap="round" stroke-linejoin="round" stroke-width="0.73"/><path d="M46.55,78.23l32.17.08" fill="none" stroke="#889ee9" stroke-linecap="round" stroke-linejoin="round" stroke-width="0.73"/><path d="M45.49,76a8.48,8.48,0,0,1,6.34-4.62c2.36-.34,4.51.3,6.72.64a9.64,9.64,0,0,0,7-1.13c2.37-1.51,4.14-4.33,6.47-6a12.58,12.58,0,0,1,6.72-1.52" fill="none" stroke="#889ee9" stroke-linecap="round" stroke-linejoin="round" stroke-width="0.64"/><path d="M51.49,69.38c0,3.88,0,3.88-.06,7.76" fill="none" stroke="#889ee9" stroke-linecap="round" stroke-linejoin="round" stroke-width="0.73"/><path d="M56.18,66.62l-.07,11.64" fill="none" stroke="#889ee9" stroke-linecap="round" stroke-linejoin="round" stroke-width="0.73"/><path d="M60.29,66.24c0,3.23,0,9.07,0,12.3" fill="none" stroke="#889ee9" stroke-linecap="round" stroke-linejoin="round" stroke-width="0.73"/><path d="M65,65.51c0,2.87,0,9.91,0,12.77" fill="none" stroke="#889ee9" stroke-linecap="round" stroke-linejoin="round" stroke-width="0.73"/><path d="M69.5,61.49c0,3.69,0,12.83-.06,16.52" fill="none" stroke="#889ee9" stroke-linecap="round" stroke-linejoin="round" stroke-width="0.73"/><path d="M75,63.62,74.88,78" fill="none" stroke="#889ee9" stroke-linecap="round" stroke-linejoin="round" stroke-width="0.73"/><path d="M31.81,47H95" fill="none" stroke="#889ee9" stroke-linecap="round" stroke-linejoin="round" stroke-width="0.73"/><path d="M112.39,48.54s-4.59-3.58-5-3.88a2,2,0,0,1-.4-2.14c.08-.17.83,0,.94-.14.24-.41-1.3-.55-.14-.93.21-.07,2.72-.31,3-.38a17.17,17.17,0,0,1,6.31-.7,6.39,6.39,0,0,1,5.5,5.36,6.77,6.77,0,0,1-1.8,6.32,18,18,0,0,1-4.37,2.39C116.1,54.55,112.39,48.54,112.39,48.54Z" fill="#915853" fill-rule="evenodd"/><g clip-path="url(#h)"><path d="M117.62,54.57l2.55-1.07,2.55-3.08V47.2a19,19,0,0,1-4.56.27c-.47-.06-.77.24-1.07.14-1.1-.37.38-3.3-2-3.89-1.06-.26-4.47.27-6.31-.13-1-.23-1-.81-1.61-.67-1,.21-.18,2-.67,1.74a28.73,28.73,0,0,0,5.1,1.87,16.81,16.81,0,0,0,4.16.41,8.76,8.76,0,0,1,.13,1.74,11.08,11.08,0,0,0,.27,2.14Z" fill="#723230" fill-rule="evenodd"/></g><path d="M76.41,64.14,79,62.37a27.15,27.15,0,0,0-1.57-2.31,3.64,3.64,0,0,1-.7-2.9,26,26,0,0,1,.56-3.26s-.37-1-.66-1.53a10.77,10.77,0,0,0-1-2,1.28,1.28,0,0,0-1.41.42c-.29.46-.42.42-.42.42L73,50.64c-.33-.27-.87.52-1.3,1.06a7.81,7.81,0,0,0-.81,1.95,13.13,13.13,0,0,0,.37,1.73,1.16,1.16,0,0,0,.66.73,5.2,5.2,0,0,0-.12,1.18,11.47,11.47,0,0,0,.77,2.31,10.4,10.4,0,0,0,1,.74,8.4,8.4,0,0,1,1,1.79Z" fill="#fdcfc0" fill-rule="evenodd"/><g clip-path="url(#i)"><path d="M75.56,52.85a3.44,3.44,0,0,1,.13-.76l-.52.12-1,1.29-1-.65s-.23.67-.51.77-.26.64-.26.64-.91-.2-1.15,0-.26,1-.26,1l.77.9.52,1.15a1.64,1.64,0,0,1,.89.64c.3.49,1.67-.64,1.67-.64a19.74,19.74,0,0,0,.9-2.31,9.76,9.76,0,0,0-.52-1.79A.41.41,0,0,0,75.56,52.85Z" fill="#e39193" fill-rule="evenodd"/></g><path d="M70.31,51.07c.51.1.83.14.83.14l9.55,4.72a1.48,1.48,0,0,1-.13.64,1,1,0,0,1-.42.49L70.72,52.6s-.43-.33-.83-.69S69.11,51,69,51A3.5,3.5,0,0,1,70.31,51.07Z" fill="#250254" fill-rule="evenodd"/><path d="M76.08,59.75c.72-.24.28-2.25.28-2.25s-.79-2.16-.93-2.67a6,6,0,0,0-.55-1.95c-.36-.4-.69-1.21-1.11-1.11s-.42,1-.29,1.61a2.88,2.88,0,0,0,.29.89l.14.7s-.31,1.09-.56,2,1,2.24,1,2.24S75.36,60,76.08,59.75Z" fill="#fdcfc0" fill-rule="evenodd"/><g clip-path="url(#j)"><path d="M78,58.5,75.69,60l-2.57,1.41-.38-.76a7.32,7.32,0,0,1,1-1.16A31,31,0,0,1,77,57.6Z" fill="#e39193" fill-rule="evenodd"/></g><path d="M74.17,62.48l-1-1.42s.32-.37.87-.9,2.82-2,2.82-2l.65,1.28Z" fill="#fcf6ff" fill-rule="evenodd"/><path d="M73.51,63.5C73.8,65.15,80,81.12,82,81.7c3.3,1,17.57-6.41,17.57-6.41s.56,10.16.89,14.62-.21,13-.13,14.49-.38,6.66-.38,6.66l-1.15,3.46s.43,8.73,1.53,22.44,2,21,3.73,39c1.54,16.26,1.7,24.87,1.7,24.87.55-.61,5.63.34,5.93.77,0,0,.5-7.44.57-15.26.13-14.29.35-14.35.51-18.84.11-3-1.9-8.8-1.15-21.54.69-11.82,1.41-15.39,1.41-15.39s4.1,14.79,6.15,22.44,5.48,21.67,6.92,27.69a159.45,159.45,0,0,1,3.4,21.8,9.29,9.29,0,0,1,3.26-.26,23,23,0,0,1,3.47.9s-.32-9.74-1.3-19.32-2.67-17.19-3.7-23.25-2.85-39.29-2.82-41a9.1,9.1,0,0,0-.64-3.33,10.55,10.55,0,0,1,0-2.18c.11-1.51-.35-11.05-.25-14.61s3.11-17,4.33-20,5.35-5.35,4.36-9.35-13.59-11.29-17.81-12.54-12,1.61-14.61,2.43-3.26,1.28-6.32,3.32-13.16,8.29-13.16,8.29-1.6-3.08-2.69-5.12-3.85-7.7-3.85-7.7S73.24,62,73.51,63.5Z" fill="#938bc4" fill-rule="evenodd"/><g clip-path="url(#k)"><path d="M95.3,124.65,96,170.17l4,32.44s7.36,3.74,8.08,3.71,23.64.55,24.74.52S142,204,142,204s2.53-14.13,2.57-15.52-7.93-35.14-8.34-36.15S129,103.63,129,103.63s-10.93,2-16.92,2.05a43.75,43.75,0,0,1-12.69-2.44Z" fill="#3b3e5d" fill-rule="evenodd"/><path d="M94,81.19s5.28-3.86,5.39-4.36.89-7.69.89-7.69a30,30,0,0,1-4.74,6.15c-3.92,3.37-8.62,7-7.93,6.29Z" fill="#7c72b8" fill-rule="evenodd"/><path d="M75.1,181.8a47.13,47.13,0,1,0,47.12-47.13A47.12,47.12,0,0,0,75.1,181.8Z" fill-opacity="0.7" fill-rule="evenodd" fill="url(#l)" style="mix-blend-mode:multiply"/><path d="M128.51,107.47l-6.15.39-.77,1.28a25.94,25.94,0,0,0,2.56,5.13c1.56,2.3,4.75,2.69,4.75,2.69Z" fill="#525570" fill-rule="evenodd"/><path d="M112,158.5s-2.49-17.77-2.69-22.31,1.54-13.33,1.54-13.33,1.73,3.5,3,11.92c.66,4.64,4.48,24,4.48,24Z" fill="#5c5464" fill-rule="evenodd"/><path d="M99.28,107.34l-.51,2.06-.13,4.48a20.17,20.17,0,0,0,1.79-3.33c.86-2,1.41-3.08,1.41-3.08Z" fill="#525570" fill-rule="evenodd"/><path d="M128.51,108.11a66.55,66.55,0,0,1-15.26,1.67,81.84,81.84,0,0,1-13.71-1.54l.25-2.31s6.67,1,11.41,1.41,17.18-1.41,17.18-1.41Z" fill="#250254" fill-rule="evenodd"/><path d="M121,106.32l.12,3.59-1.79-.13.13-3.33Z" fill="#3b3e5d" fill-rule="evenodd"/><path d="M104.15,106.19l-.26,3.46-1.66-.38.38-3.21Z" fill="#3b3e5d" fill-rule="evenodd"/></g><path d="M117.23,52.47s.33,1.22.51,2.18,1.16,4.49,1.16,4.49l-2.31,3.33s-5.83-.85-5.8-2.17a38.51,38.51,0,0,0-.23-4.24C110.56,55.84,117.23,52.47,117.23,52.47Z" fill="#d88485" fill-rule="evenodd"/><path d="M107.83,43.72c0,.34-.27,1.43-.53,2.68s-.36.87-.27,1.34a3.22,3.22,0,0,0,.53,1.07,2.54,2.54,0,0,0-.4.67,12.66,12.66,0,0,0-.27,2.68c.15.58.23,1.22.35,1.88a14.39,14.39,0,0,0,1.13,3.08c.38.65,1.92.69,4,.13A10.89,10.89,0,0,0,117,54.44a6.9,6.9,0,0,0,.41-1.88,5.69,5.69,0,0,0,1.61-.67c.52-.39,1.83-2.72.26-3.35C118,48,117,51,117,51a1.13,1.13,0,0,1-.67-.14c-.47-.3-.25-4.59-.4-5.36s-1.16-1.19-2.28-1.2-3.19.23-4.29.27a2.22,2.22,0,0,1-1.07-.54S107.87,43.38,107.83,43.72Z" fill="#fdcfc0" fill-rule="evenodd"/><g clip-path="url(#m)"><path d="M116.55,45.46l.13,5,.27.8s1.51-2.42,2-2S118,51,118,51s.94-.77.94-.27S117.49,52,117.49,52v.53l.13,1.61a9.63,9.63,0,0,1-4.15,3.21c-3.21,1.11-3.49.14-3.49.14s1.21-.41,1.47-.54a6.89,6.89,0,0,0,1.75-2.41,4.56,4.56,0,0,0-.14-2.81,4.27,4.27,0,0,1-.13-2.28l1.34-.67-.94-1.34s.5-.83.94-1.6a5.6,5.6,0,0,0,.4-2.28Z" fill="#faaaa7" fill-rule="evenodd"/><path d="M108,52.6s.53.44.64.51a1.15,1.15,0,0,0,.77,0,1.71,1.71,0,0,0,.64-.51,6.08,6.08,0,0,1-.64-.26,3.74,3.74,0,0,0-1.16-.13,1.51,1.51,0,0,0-.64.13Z" fill="#f19e99" fill-rule="evenodd"/><path d="M108.6,55.94a2.49,2.49,0,0,1,1.15-.18,1.58,1.58,0,0,1,1,.29,1,1,0,0,0-1.08-.85C108.55,55.16,108.6,55.94,108.6,55.94Z" fill="#f19e99"/><path d="M110.31,54.6a1.09,1.09,0,0,0,1-.53s-3-.15-3.21-.14A2.93,2.93,0,0,0,110.31,54.6Z" fill="#c47372"/></g><path d="M108.59,47.8a.47.47,0,0,1-.13.29c-.16,0-.65-.37-1.16-.57,0,0-.34.12-.38.1-.22-.16.13-.57.13-.57a.69.69,0,0,1,.64,0,4.92,4.92,0,0,1,.77.38A.84.84,0,0,1,108.59,47.8Z" fill="#915853" fill-rule="evenodd"/><path d="M114.52,48.43a18.14,18.14,0,0,0-1.9-.51c-.9-.14-1.76,0-2-.07s-.12-.62.14-.63a13.58,13.58,0,0,1,2,.16,2.68,2.68,0,0,1,1.36.68Z" fill="#915853" fill-rule="evenodd"/><path d="M113.09,49.21c0,.19-.83.39-1.18.38-.63,0-1.29-.12-1.29-.12L111,49" fill="#726876" fill-rule="evenodd"/><path d="M108.47,49.36,107,49.21l.27-.4s.57-.21.88.07A.92.92,0,0,1,108.47,49.36Z" fill="#726876" fill-rule="evenodd"/><path d="M114.59,61.16s-2.8.06-3.53,0-1.08-1-1.08-1-.42,1.19-.68,2.18a21.64,21.64,0,0,1-1,2.55l3.42-3,1.25.4,3.54,3.55a7.59,7.59,0,0,0,2.39-3.34,14,14,0,0,0,.57-4.57Z" fill="#7c72b8" fill-rule="evenodd"/><path d="M118.38,55.29a25.62,25.62,0,0,1,1.16,2.31,13.51,13.51,0,0,1-.39,2.31c-.36,1.51-3.18,4.67-3.18,4.67l-3.15-2.95-1.38-.23-3.06,2.43a11.58,11.58,0,0,0,1-3,20.23,20.23,0,0,1,.89-2.56c.08-.43.9-.77.9-.77a4.89,4.89,0,0,0-.41,1.56,6.56,6.56,0,0,0,.81,1.64s4.11-.55,5.06-1.48,1.08-4.8,1.08-4.8S118.12,54.9,118.38,55.29Z" fill="#fcf6ff" fill-rule="evenodd"/><g clip-path="url(#n)"><path d="M117.23,53.75l1.41.13,1.92,2.56s-.46,2.76-.51,3-1.67,2.82-1.67,2.82l-.51-1.92A18.37,18.37,0,0,0,116.33,57c-.38-.48-4.46,2.58-6.54,3.07-1.31.31-1-1.28-1-1.28Z" fill="#d3cdd5" fill-rule="evenodd"/></g><path d="M109.79,108.86a.24.24,0,0,0,.24-.21.24.24,0,0,0-.21-.26s-.43,0-.89-.13-1-.12-1-.13a.25.25,0,0,0-.26.22.24.24,0,0,0,.22.26s.55,0,1,.12.91.13.91.13Z" fill="#64677f"/><path d="M111.72,110.28a.24.24,0,0,0,0-.48s-2.17-.19-2.82-.26c0,0,0,0-.07,0-.22-.29-.07-1.37,0-1.77a1.11,1.11,0,0,0,0-.23.38.38,0,0,1,.09-.22,1.15,1.15,0,0,1,.65,0,12.89,12.89,0,0,0,2.51,0,.25.25,0,0,0,.22-.26.24.24,0,0,0-.26-.22,12.56,12.56,0,0,1-2.36,0,1.29,1.29,0,0,0-1,0,.72.72,0,0,0-.28.54c0,.06,0,.13,0,.22a3.33,3.33,0,0,0,.11,2.13.57.57,0,0,0,.39.23c.65.07,2.8.25,2.83.25Z" fill="#64677f"/><path d="M106.25,76.11l3.86,25.53a.62.62,0,0,0,.7.52l17.39-2.63a.61.61,0,0,0,.52-.7L124.85,73.3a.61.61,0,0,0-.7-.52l-17.38,2.63A.62.62,0,0,0,106.25,76.11Z" fill="#250254" fill-rule="evenodd"/><path d="M120.18,92.34l.13,3.21-4.24-.9s-1.44-.76-2-.38-2.59,0-3.84-.12-1.38-1.06-2.06-1.93a5.31,5.31,0,0,1-.76-2.45l-.65-.38-.64-.65s.48-1,1.16-1a15.29,15.29,0,0,0,1.79-.12,7.73,7.73,0,0,0,1.54-1c.56-.54,2,.27,2,.27s1.26,2,1.8,2.56a4,4,0,0,0,1.15.9Z" fill="#fdcfc0" fill-rule="evenodd"/><g clip-path="url(#o)"><path d="M109.79,87.09a1.3,1.3,0,0,1,1.16.25s.14.28-.13.26-1.87-.13-2-.13S109.12,87.28,109.79,87.09Z" fill="#e39193" fill-rule="evenodd"/><path d="M116.2,89.91l-.51,5.38-1.28-.64s-5.82-.13-5.77-.51c0-.09,5.63.17,5.77-.64.24-1.42.62-3.81.64-4S116.2,89.91,116.2,89.91Z" fill="#e39193" fill-rule="evenodd"/><path d="M107.87,93.63c.51.92,1.92.51,1.92.51L107.87,90c-.27-.58-.9-.13-.9-.13A16.4,16.4,0,0,0,107.87,93.63Z" fill="#e39193" fill-rule="evenodd"/></g><path d="M117.61,95.14l-2.28.28s0-.87-.13-2a24.66,24.66,0,0,1,.13-3.26l2.16-.14Z" fill="#fcf6ff" fill-rule="evenodd"/><path d="M123.77,89.27c-2.28.14-7.44.77-7.44.77v5.64s19.9,4.92,23.53.8c1.72-2-2.36-22.23-3.66-26.32s-6.47-3.79-8.84-.38c-2.57,3.7,4.1,19.61,4.1,19.61S126.43,89.1,123.77,89.27Z" fill="#938bc4" fill-rule="evenodd"/><path d="M43.31,72.53s-1.68-3.7-3-5.9c-1.56-2.67-2.79-7.06-6.88-8.35s-16.26-2.66-21.26-.37S6,69.24,5.09,73.39,2,88.55,4.48,89.25s3.81-.26,5-2.71c1.05-2.11,4.17-14,4.17-14s3.27,6.63,3.69,8.11-4.22,11.77-5.9,17.7c-2.35,8.31-.86,51-.86,51s-3,9-4.3,13.64-1.47,28.27-1.47,28.27-1.8,0-1.85.37.68,7.08.49,9.34-1.23,10-.12,10.57,8.11.79,9,.74.25-2.81-.61-4.06a15.94,15.94,0,0,1-1.72-7c.16-1.64,2.62-9.12,2.45-9.47s-1.35-.24-1.35-.24,2.37-15.4,3.57-20.16,6.51-26.91,6.51-26.91l3.56-.13a31.86,31.86,0,0,1-1.6,6.89c-1.42,4.33-1.79,19.11-2.08,27.77s-.23,13.91-.25,15-2.14,2.42-1.72,5.17a15,15,0,0,0,.61,3.07l.74,5.41,1.11.24,1.1-.12-.12-2.58A16.26,16.26,0,0,0,24,208.58c.83,1.24,5.19,1.41,7.5,1.35s2.7-.49,2.7-.49a3.47,3.47,0,0,0-1.59-2.58c-1.88-.88-4.43-3.38-4.55-6-.14-3.21,1.46-8.5,1.23-9s-2.95-.86-2.95-.86,3.32-22.22,4.91-29.5,10.34-33,11.31-39.7,1.43-19.58-2-27.25a91.34,91.34,0,0,1-4.48-11.33,12.42,12.42,0,0,1-.5-2.46c0-.76-.12-3.32-.12-3.32a4.8,4.8,0,0,1,.62-.86,2,2,0,0,0,.49-.86,71.62,71.62,0,0,0,5.4,8.6,3.37,3.37,0,0,0,3.57,1.48c2-.15,3.11-4.74,3.19-11.19s-.58-8.34.25-10.2,2.25-3.63,2.46-5.9a28.31,28.31,0,0,0-.37-5.4c0-.34.37-1.59,0-1.72s-1.12,1.16-1.48,2.21a15.16,15.16,0,0,1-1,3c-.45.64-1.72,2.33-1.72,2.33a9.37,9.37,0,0,1-.25-1.1c0-.46.55-2.29.37-2.95s-.85-.78-.86-.25A21.82,21.82,0,0,1,45,58a4.41,4.41,0,0,0-.59,3.25,19.41,19.41,0,0,1,.46,3.27c0,.92-1.72,7.74-1.72,7.74Z" fill="#f7c5b4" fill-rule="evenodd"/><g clip-path="url(#p)"><path d="M53.14,60.52c1.2-4.12,2.1-8.83,1.65-9.57s1.15-1-.89-1.64-3.75-3.09-5.73-1.23-.82-.89-3.69,4.34S40.72,61,41.61,62.6c0,0,2,20.93,8.09,13.29S50.91,68.16,53.14,60.52Z" fill-rule="evenodd" fill="url(#q)"/><path d="M51.05,53.48s-.4.06-.62.62a12.58,12.58,0,0,0,0,2.46,6,6,0,0,1-1.1,3.32c-.48.48-2.24,1.28-2.58,2a10.8,10.8,0,0,0-.62,2.21s.4-3.36.49-3.93.49-1.84.49-1.84l1.36-2.71c-.12.19-.15.51.24,1.48.23.57.62,1.6.62,1.6a13.25,13.25,0,0,0,.61-2.58,3.19,3.19,0,0,1,.25-2C50.59,53.44,51.05,53.48,51.05,53.48Z" fill="#e18480" fill-rule="evenodd"/><path d="M49,72.9a2.45,2.45,0,0,1-3.2-.24,26.57,26.57,0,0,0-2.45-1.85l-.13.37a22.47,22.47,0,0,0,2.58,2,5.67,5.67,0,0,0,3.32.74.75.75,0,0,1,.37.12l.24-.12Z" fill="#dc756f" fill-rule="evenodd"/><path d="M49.2,73.52a2.71,2.71,0,0,1-3-.25,16.22,16.22,0,0,1-3.31-2.83l-6.27-12.9L29.3,56.43,16.64,55.08,9.15,58.4.79,81.63l2.7,9.46s4.64,1.46,5,1.48,4.92-3.94,4.92-3.94L8.78,106,7.67,122.8l2.21,21.75,27.77-.49,4.18-15,5-28.76-3.81-9-3.93-6.27-1-3.07,4.92,5.28,3.44,1,3.07-5Z" fill="#7362c9" fill-rule="evenodd"/><path d="M43.55,70.81s-.54,2-.86,3.57-.49,3.32-.49,3.32a19.63,19.63,0,0,1,0-3.81,16.57,16.57,0,0,1,.74-3.08Z" fill="#4d3ca7" fill-rule="evenodd"/><path d="M33.68,70.67c-2.33.67-4.22,2.65-4.22,4.42s1.89,2.66,4.22,2,4.22-2.65,4.22-4.42S36,70,33.68,70.67Z" fill="#5d53b7" fill-rule="evenodd"/><path d="M12.71,87s4.78-3.43,5.53-4.06a4,4,0,0,1,2.21-.61s3.89.22,3.93-.5.49-5.4.49-5.4l.74-4.06L26,70.69s-.42-.63-.74-.74-6.51.49-6.51.49l-2.58,3.45L14.8,78.06Z" fill="#5d53b7" fill-rule="evenodd"/><path d="M22.16,70.57c2.87.05,5.63,1.74,6.18,3.78S27,78,24.15,77.94,18.52,76.2,18,74.16,19.3,70.51,22.16,70.57Z" fill="#5d53b7" fill-rule="evenodd"/><path d="M36.06,76.83a9.42,9.42,0,0,0,1.1-2.7A6.05,6.05,0,0,0,36.06,68a13.35,13.35,0,0,0-1.48-1.23l.62-3.57a26.18,26.18,0,0,0,1.35,3.94,15.76,15.76,0,0,1,2.55,7.79c.3,4.08,1,9.17,1,9.17Z" fill="#4d3ca7" fill-rule="evenodd"/><path d="M13.32,75.48s-3,3.31-4.17,4.43S7.8,81.5,7.8,81.5l4.3-1.59s1.14-2.81,1.22-3A8.09,8.09,0,0,0,13.32,75.48Z" fill="#4d3ca7" fill-rule="evenodd"/><path d="M13,76l1.72-8.6,2,10.57Z" fill="#4d3ca7" fill-rule="evenodd"/></g><path d="M30.9,51.17s3.53-.91,3.68-3.94-2.82-6.48-3.64-7.4c-1.52-1.71-5-2.73-6.19-2.81a4.58,4.58,0,0,0-4.05,1.84s-3.45.39-3.65,5,.46,5.13,1.23,6.66,5.87,3.07,6.61,3S30.9,51.17,30.9,51.17Z" fill="#442c3d" fill-rule="evenodd"/><g clip-path="url(#r)"><path d="M25.49,41.69a68.55,68.55,0,0,1,6.88,3.93c1,.89,1.35,2,.86,2.83a11.17,11.17,0,0,1-2.33,2.21l-8.11,2.58-.13-4.67,1.85-3.32S25.22,41.54,25.49,41.69Z" fill="#87617b" fill-rule="evenodd"/></g><path d="M24.54,69.36H17.63a.46.46,0,0,0-.47.46l1.13,10.36c0,.26.14.46.32.46h4.86c.18,0,.33-.2.33-.46L25,69.82A.46.46,0,0,0,24.54,69.36Z" fill="#b67879" fill-rule="evenodd"/><path d="M24.54,72.42H17.63c-.26,0-.47.08-.47.16l.41,3.15c-.1.08.1.16.32.16h6.39c.23,0,.41-.09.41-.16L25,72.56C25,72.48,24.8,72.42,24.54,72.42Z" fill="#edd6d0" fill-rule="evenodd"/><path d="M25.41,70.24l-8.81-.08A10.59,10.59,0,0,1,17.16,69l.41-.32.65-.08.32-.64h5l.25.64.56.16a1.37,1.37,0,0,1,.57.24A6.7,6.7,0,0,1,25.41,70.24Z" fill="#edd6d0" fill-rule="evenodd"/><g clip-path="url(#s)"><path d="M24,68.63,18,68.55l.08-.24L24,68.23Z" fill="#be9db2" fill-rule="evenodd"/><path d="M25.9,69.84l-9.54-.08-.09.73,9.71.24Z" fill="#be9db2" fill-rule="evenodd"/></g><path d="M17.13,72.41s1.33-1.52,2.09-1.23a22.11,22.11,0,0,0,2.21.62s.07.32.13.49a3.92,3.92,0,0,1,.61,1.35,2.8,2.8,0,0,1-.12,2.83,3.51,3.51,0,0,1-1.6,1,18.79,18.79,0,0,0-2.33.86s-.47-.92-.49-1S17,73.64,17,73.64Z" fill="#be9db8" fill-rule="evenodd" style="mix-blend-mode:multiply"/><path d="M15.66,77a39.88,39.88,0,0,0-4.3,2c-2.87,1.47-7,3.56-7.51,5C3.27,85.64,2.7,89.32,5,89.53s4.41-.79,6.71-3.35,4.12-4.83,4.67-5.41,1-.08,1.47-.86a6.15,6.15,0,0,0,.49-2.58s2.26-.46,2.83-.62c.85-.24.93-.47,1.23-1.47a4.12,4.12,0,0,0-.49-2.46s-1.41-.19-2.22-.25a12.06,12.06,0,0,0-1.59,0s-.12-.29.61-.37,2.5.56,2.7-.36c.12-.51-2.7-1.49-3.68-.86s-2.07,1.59-2.09,2.58S15.66,77,15.66,77Z" fill-rule="evenodd" fill="url(#a)"/><g clip-path="url(#u)"><path d="M9.15,79.91l2.45,6.51-.61.74-2.7-6.52Z" fill="#dd7771" fill-rule="evenodd"/><path d="M15.78,72.41a.82.82,0,0,1,.62.74A7.45,7.45,0,0,0,17,75l.49,1.6s.23.89,1,1c.33,0-.5,2.46-.5,2.46a3,3,0,0,1-.86.74c-.34.12-.49-.25-.49-.25a15.43,15.43,0,0,0-.86-3,5.83,5.83,0,0,1-.61-1.47Z" fill="#e0807a" fill-rule="evenodd"/><path d="M22.42,73s-.52-.93-1-1a10,10,0,0,1-1.1-.24,3.11,3.11,0,0,0-1.11-.13,3.39,3.39,0,0,0-1.35.49c-.13.11-.37.37-.37.37l1-.24s1.89.09,2.21.12c1.74.17,1.84,1.48,1.84,1.48s-.84-.06-1.35-.13a30.32,30.32,0,0,0-3.44.49S20.93,74,21.43,74a5.5,5.5,0,0,1,1.48.37l-.37.49a7.29,7.29,0,0,1-1.47.49c-.84.18-3.74,0-4.06.86-.1.28,1.23,1.48,1.23,1.48l2.21-.37,2.83-.74s.37-2.09.37-2.21A13.75,13.75,0,0,0,22.42,73Z" fill="#e0807a" fill-rule="evenodd"/><path d="M8.66,79.66l2.7,7.74L7.18,90.35l-3.44-.73s-.88-2.07-.86-2.22,0-3.67.12-3.93a23.8,23.8,0,0,1,2-1.84Z" fill="#7362c9" fill-rule="evenodd"/></g><path d="M25.39,41.56a8.62,8.62,0,0,1-1.59,2.85l-1.34,1.48s.08,2.06-.25,2.17a.43.43,0,0,1-.49-.23s-1-2.61-2.13-1.47C17.82,48.06,21.85,50,21.85,50a4.67,4.67,0,0,1,.36.91c.08.35-.35,4.7-1.39,5-1.31.43-5.1,1-5.1,1s3.74,4.3,8.17,4.74c3.91.39,5.6.23,6.76-1.79a2.55,2.55,0,0,0-.12-2.39s-3.12-.37-3.2-1.35a11.08,11.08,0,0,1,.27-2.55,4.74,4.74,0,0,0,1.82,0c.66-.25,1.29-1.41,1.6-2.34l.61-1.84a11,11,0,0,0,.13-2.09,2.15,2.15,0,0,0-.37-1,3.76,3.76,0,0,0,.12-1c-.05-.29-.9-.46-2.09-1.19S25.39,41.56,25.39,41.56Z" fill="#f7c5b4" fill-rule="evenodd"/><g clip-path="url(#v)"><path d="M31.76,45.5l-3.45-2.71-3.8-2.09a44.83,44.83,0,0,0,3.31,3.2c.78.53,1.85,1.23,1.85,1.23s-.31,1.1-.13,1.35,1-.12,1-.12l1.1.12Z" fill="#eab6be" fill-rule="evenodd" style="mix-blend-mode:multiply"/><path d="M31.56,46.27l-1-.27-.84.6.45,1.16s.25.44.2.64a2.06,2.06,0,0,1-.25.71c-.08,0-.63.32-.42.6s.3.59.45.35c.32.12.47-.05.38.12a3.38,3.38,0,0,1-.78,1,.4.4,0,0,0-.07.64A4.32,4.32,0,0,1,29.17,54a.15.15,0,0,0,.26,0,8.1,8.1,0,0,0,2.67-5.58C32.1,45.51,31.68,46.25,31.56,46.27Z" fill="url(#w)" style="mix-blend-mode:multiply"/><path d="M28.19,53.73a6.35,6.35,0,0,1-3.44-1.23,8.13,8.13,0,0,1-2.46-2.15c-.33-.46-.57-.33-.57-.33s-8,8.46-7.49,9.36c.62,1.13,20,5.29,21.2,4.67C36.35,63.57,28.19,53.73,28.19,53.73Z" fill-rule="evenodd" fill="url(#x)" style="mix-blend-mode:multiply"/></g><path d="M30.6,50.27s0-.43-1.18-.31c-.76.08-2.78.44-2.78.44s1.36,1.43,2.79,1,1.31-1.1,1.31-1.1Z" fill="#fff" fill-rule="evenodd"/><path d="M30.74,50.49a1.72,1.72,0,0,1-1.46.67,8.71,8.71,0,0,1-2.94-.89,4.5,4.5,0,0,0,2.11,1.23c1.24.21,1.52,0,1.86-.36s.43-.78.43-.78Z" fill="#c47372" fill-rule="evenodd"/><path d="M30.74,50.36a1.19,1.19,0,0,0-1-.52,3.61,3.61,0,0,0-1.71.25,8.2,8.2,0,0,1-1.56.18,4.6,4.6,0,0,0,1.9.11A12.17,12.17,0,0,1,30.74,50.36Z" fill="#c47372" fill-rule="evenodd"/><path d="M26.84,46a1.76,1.76,0,0,0-.84-.2,3.83,3.83,0,0,0-1.37.2l1.72.49a3.43,3.43,0,0,0,1.1,0Z" fill="#442d3e" fill-rule="evenodd"/><path d="M30.75,45.86a1,1,0,0,0-.69.22c-.21.26-.39.52-.39.52a10.42,10.42,0,0,0,1.26-.1l.82-.24Z" fill="#442d3e" fill-rule="evenodd"/><path d="M27.07,45.08a9.23,9.23,0,0,0-1.59-.47,7.7,7.7,0,0,1-1.47.11,2.18,2.18,0,0,1,1.59-.82,4.46,4.46,0,0,1,2.08.47c.09.14.23.65.07.7A1.25,1.25,0,0,1,27.07,45.08Z" fill="#442d3e" fill-rule="evenodd"/><path d="M31.51,44.88s-.92.43-1.11.49c-.46.17-.62-.07-.61-.24s0-.64.44-.78a5.71,5.71,0,0,1,1-.08C31.37,44.27,31.51,44.88,31.51,44.88Z" fill="#442d3e" fill-rule="evenodd"/><path d="M30.25,48.57s0,.12-.46.12a11.22,11.22,0,0,0-1.35.12s.47.71,1.1.62S30.25,48.57,30.25,48.57Z" fill="#c47372" fill-rule="evenodd"/><path d="M21.68,48.32s-1.27-2-1.6-1.59S20.7,48,20.7,48s-.71-.3-.62,0c.14.46.69.62,1,.74s.61-.12.61-.12Z" fill="#e38a84" fill-rule="evenodd"/><g opacity="0.88"><rect x="4.74" y="102.93" width="124.56" height="57.12" fill="url(#y)"/></g></g></g></svg>