<svg xmlns="http://www.w3.org/2000/svg" xmlns:xlink="http://www.w3.org/1999/xlink" width="134.5" height="134.5" viewBox="0 0 134.5 134.5"><defs><clipPath id="a"><circle cx="67.3" cy="67.3" r="63.9" fill="none"/></clipPath><linearGradient id="b" x1="63.85" y1="931.63" x2="63.85" y2="1033.27" gradientTransform="translate(0 -944)" gradientUnits="userSpaceOnUse"><stop offset="0" stop-color="#00b6ff"/><stop offset="0" stop-color="#52a0ff"/><stop offset="1" stop-color="#d7f2ff"/></linearGradient><linearGradient id="c" x1="42.2" y1="909.79" x2="77.25" y2="997.82" gradientTransform="translate(0 -944)" gradientUnits="userSpaceOnUse"><stop offset="0" stop-color="#00b6ff"/><stop offset="1" stop-color="#42004e"/></linearGradient><linearGradient id="e" x1="45.02" y1="913.47" x2="76.62" y2="992.84" xlink:href="#c"/><linearGradient id="f" x1="64.55" y1="1068.46" x2="64.55" y2="1000.48" gradientTransform="translate(0 -944)" gradientUnits="userSpaceOnUse"><stop offset="0" stop-color="#bd03ad"/><stop offset="1" stop-color="#250254"/></linearGradient><clipPath id="g"><path d="M47,42.3s-1.1-4.7,0-6.8c1.5-2.8,1.6-5.8.6-7.7a6.48,6.48,0,0,0-3-2.9c-1.2-.7-6.8-2.3-8.3,0A50.54,50.54,0,0,0,33,32c-.7,1.7-8,6.9-9.6,9.6-2.2,3.7,1.5,11,1.5,11l14.1-1Z" fill="none"/></clipPath><clipPath id="h"><path d="M96.8,107.1v.3a4.27,4.27,0,0,0,4.3,4.3h25a4.27,4.27,0,0,0,4.3-4.3h0v-.3Z" fill="none"/></clipPath><clipPath id="i"><path d="M86.4,74s-4.4-1.7-5.1-1.8c-1-.1-2.6.7-4.9,1.8-3.1,1.5-3.5,2-3.5,2l-3,2.3a1.39,1.39,0,0,0,1.4-.1A5.45,5.45,0,0,1,73.7,77c.4-.1,1-.2,1.3-.3,1.6-.6,1.2-.2,1.2-.2a10.09,10.09,0,0,0-.7,1.5c-.1.8.6.4.6.4a2.36,2.36,0,0,0,.8-.9c.3-.5,1.2-.5,1.6-.8.8-.5,1.9-1.3,1.9-1.3s5.2,1.8,5.7,2,1.5-1.5,1.5-1.5Z" fill="none"/></clipPath><clipPath id="j"><path d="M100.1,57.8a16.33,16.33,0,0,1,2.5,4.7c.2.5,4.7-2.8,4.7-2.8l1.5-1a14,14,0,0,1-1.4-2.2,3.73,3.73,0,0,1-.3-2.1c-.1-.4-3.1-2.5-3.1-2.5S100,57.5,100.1,57.8Z" fill="none"/></clipPath><clipPath id="k"><path d="M106.5,56.3l-5.2,3.8.4,1.6a39,39,0,0,1-4,5.1c-3.1,3.5-6.7,8.7-6.7,8.7l-6.2-2.2-1.2,4.8c0-.9,5.9,3.8,7.7,4s11.5-7.7,11.5-7.7a30,30,0,0,0,3.2,4.7c1.6,1.7,4.8,9.5,4.8,9.5s0,2.6-.1,3.2a2.77,2.77,0,0,1-.1.9s-12.4-2.5-16-3.4c-5.2-1.4-10.3-.8-11.9,3.4-1.2,3.2-4.9,17.6-4.9,17.6s-1.3,4.4-2.2,9.3c0,.3,1.2.3,1.2.6-1,5.4-2.1,11-2.1,11s1.5.3,4,.7a22.18,22.18,0,0,0,3.7.3s2.8-8.3,4.1-12.5,3.7-12.3,3.7-12.3h32.6a6.5,6.5,0,0,0,5.8-6.6c.3-6.2-4.6-25.4-7.9-31.1s-9.5-10.1-10.6-10.8a19.28,19.28,0,0,1-3-2.7Z" fill="none"/></clipPath><clipPath id="m"><path d="M111.8,65.6c.8-2.7-1.3-7.1-4.2-6.7s-13,11.3-14.3,12.9-4.8,2.9-4.8,2.9a2.53,2.53,0,0,0-3.2,1.8.37.37,0,0,1-.1.3,8.29,8.29,0,0,0,.6,5.6s6.6.6,8.4-.2,7.8-6.4,10.5-9.1C107,70.8,111,68.3,111.8,65.6Z" fill="none"/></clipPath><clipPath id="n"><path d="M107.7,54.7a5.68,5.68,0,0,0,3.2-2.9l.3-1.2a8.6,8.6,0,0,0,.1-1.6,3,3,0,0,0-.2-1.3,5.23,5.23,0,0,0-1.7-1.6c-2.2-1.6-6.7-1.7-7.5-1a2.73,2.73,0,0,0-.6,1.2l-1,.9c-.7.6-1.1.7-1.1,1.1a11.14,11.14,0,0,1,.2,1.7c-.1.1-.4.2-.9.5L96.7,52c-.2.3-.5.4-.1.7s.9.6.9.6a6.6,6.6,0,0,1-.1,1.4,8.34,8.34,0,0,1-.8,1.2,1.49,1.49,0,0,0,.1,2.2l.1.1c1.1,1,3.9.7,5.1,0s2.1-1.9,1.9-2.5a9.31,9.31,0,0,1-.1-2.9s2.7,2.1,3.1,2.5Z" fill="none"/></clipPath><clipPath id="o"><path d="M44.2,51.3c-.1-.1-1.2,1.6-2.6,2.1a9.52,9.52,0,0,1-4.1.6c-.7,0-1.7,1.1-2.1,1.4s-2.2,1.6-4.2,3.3-5.5,4.1-5.5,5.7,8,46.1,11.1,57.4,4.7,15.3,7.6,17,5.5,2.6,5.9,3.2a1.69,1.69,0,0,1,.3,1s-7.1.2-8.7,0a3.5,3.5,0,0,1-2.8-1.4c-.2-.3-.5-.6-.7-.9l-.3,1.9-1.7-.3s-.3-1.6-.7-3.4a20.62,20.62,0,0,1-.1-4.3c0-1-.1-.8-.1-.8l-2.4-.2s-3.6-9.6-5.2-14.7c-1.7-5.4-7-20.6-8.5-25.6s-3.9-16.7-3.9-16.7-1.3,5.6-1.1,17.6.6,42.2.6,42.2l-.6.1a14.72,14.72,0,0,1,.4,3.6c-.2,1.4-.3,4.1-.3,4.1l-.5.3-.5-.7s.5.5-1,.9-7.3.2-7.3.2A6.21,6.21,0,0,1,6.7,142a7.52,7.52,0,0,0,2.1-3.4c.1-.5.3-1.3.3-1.3l-1-.8s-.3-12.2-1.5-20.6C4.2,99.1-1.5,75,4,63.4c3.1-6.5,11.5-11,13.8-14,3.6-4.7,5.9-9.8,9.3-12.3s5.2-1.9,6.9-1.9c4.5-.1,8.9,1.6,12.3,9.1" fill="none"/></clipPath><radialGradient id="p" cx="-3503.94" cy="1831.3" r="6.01" gradientTransform="matrix(3.24, -0.22, 0.13, 1.9, 11153.04, -4192.13)" gradientUnits="userSpaceOnUse"><stop offset="0" stop-color="#dec9e1"/><stop offset="1" stop-color="#fff"/></radialGradient><clipPath id="q"><path d="M32,78s2.1-28.5,1.9-33.3,0-10-4.3-8.8c-2.6.7-3.8,2.4-2.4,12.4,1.2,8.6,1.3,28.4,1.1,29s-.4,1.1-1.7,1.1a4.61,4.61,0,0,0-2.8.6c-.7.6-1.3,1.2-1.9,1.8V81h9s1.4,0,1.5-.7A5.87,5.87,0,0,0,32,78Z" fill="none"/></clipPath><clipPath id="r"><path d="M44.9,26.7a14,14,0,0,1,1.3,3.4c.1,1-.4,1.9-.2,2.2a1.8,1.8,0,0,1,.2,1,5.84,5.84,0,0,1-.4,1.8c-.3.8-1.9,3.1-2.7,3.2-1,0-1-.2-1.3-.1v-.1c0-.1-.1-.2.1.4a9.78,9.78,0,0,1,.5,4.8,41.9,41.9,0,0,1-1.9,6.3A63.59,63.59,0,0,0,37.3,40c-.6-1.3-2.6-4.9-2.6-4.9a4.48,4.48,0,0,1,1.2-.1,1.38,1.38,0,0,0,1.2-.3l.5-.4-.1-.2-.2-.5s-2-1.8-.8-3.2c.8-1,1.6,1,1.6,1s2.8-1.3,4.8-2.4A7.4,7.4,0,0,0,44.9,26.7Z" fill="none"/></clipPath></defs><g clip-path="url(#a)"><rect x="-39.8" y="-21" width="207.3" height="169.7" fill="url(#b)"/><rect x="38.2" y="14.2" width="65.5" height="47.6" fill="url(#c)"/><line x1="44.5" y1="42.5" x2="60.3" y2="42.5" fill="none" stroke="#0084ef" stroke-miterlimit="10" stroke-width="0.73" stroke-dasharray="15.81"/><line x1="44.5" y1="40.3" x2="50.4" y2="40.3" fill="none" stroke="#0084ef" stroke-miterlimit="10" stroke-width="0.73" stroke-dasharray="16.55 4.14 12.42 4.97"/><line x1="44.5" y1="37.5" x2="56.6" y2="37.5" fill="none" stroke="#0084ef" stroke-miterlimit="10" stroke-width="0.73" stroke-dasharray="12.17"/><line x1="44.5" y1="35.3" x2="54.2" y2="35.3" fill="none" stroke="#0084ef" stroke-miterlimit="10" stroke-width="0.73" stroke-dasharray="16.55 4.14 12.42 4.97"/><line x1="44.5" y1="32.6" x2="52.7" y2="32.6" fill="none" stroke="#0084ef" stroke-miterlimit="10" stroke-width="0.73"/><line x1="53.9" y1="32.6" x2="58" y2="32.6" fill="none" stroke="#0084ef" stroke-miterlimit="10" stroke-width="0.73" stroke-dasharray="3.45 1.38"/><line x1="58.7" y1="32.6" x2="67" y2="32.6" fill="none" stroke="#0084ef" stroke-miterlimit="10" stroke-width="0.73"/><line x1="44.5" y1="30.4" x2="57.1" y2="30.4" fill="none" stroke="#0084ef" stroke-miterlimit="10" stroke-width="0.73" stroke-dasharray="16.55 4.14 12.42 4.97"/><line x1="44.5" y1="27.6" x2="52.7" y2="27.6" fill="none" stroke="#0084ef" stroke-miterlimit="10" stroke-width="0.73"/><line x1="54.2" y1="27.6" x2="59.5" y2="27.6" fill="none" stroke="#0084ef" stroke-miterlimit="10" stroke-width="0.73" stroke-dasharray="4.45 1.78"/><line x1="60.4" y1="27.6" x2="68.7" y2="27.6" fill="none" stroke="#0084ef" stroke-miterlimit="10" stroke-width="0.73"/><line x1="44.5" y1="25.4" x2="59.3" y2="25.4" fill="none" stroke="#0084ef" stroke-miterlimit="10" stroke-width="0.73" stroke-dasharray="16.55 4.14 12.42 4.97"/><line x1="44.5" y1="22.6" x2="52.7" y2="22.6" fill="none" stroke="#0084ef" stroke-miterlimit="10" stroke-width="0.73"/><line x1="55.7" y1="22.6" x2="66.6" y2="22.6" fill="none" stroke="#0084ef" stroke-miterlimit="10" stroke-width="0.73" stroke-dasharray="9.03 3.61"/><line x1="68.4" y1="22.6" x2="76.7" y2="22.6" fill="none" stroke="#0084ef" stroke-miterlimit="10" stroke-width="0.73"/><line x1="44.5" y1="20.4" x2="73.8" y2="20.4" fill="none" stroke="#0084ef" stroke-miterlimit="10" stroke-width="0.73" stroke-dasharray="16.55 4.14 12.42 4.97"/><line x1="94" y1="33" x2="97.6" y2="33" fill="none" stroke="#643eef" stroke-miterlimit="10" stroke-width="0.73"/><line x1="94" y1="34.9" x2="99.3" y2="34.9" fill="none" stroke="#643eef" stroke-miterlimit="10" stroke-width="0.73"/><line x1="85.9" y1="36.8" x2="97.6" y2="36.8" fill="none" stroke="#643eef" stroke-miterlimit="10" stroke-width="0.73"/><line x1="53.6" y1="51.9" x2="53.6" y2="55.4" fill="none" stroke="#c53dcd" stroke-miterlimit="10" stroke-width="1.46"/><line x1="56.5" y1="51.9" x2="56.5" y2="55.4" fill="none" stroke="#c53dcd" stroke-miterlimit="10" stroke-width="1.46"/><line x1="59.3" y1="49.1" x2="59.3" y2="55.4" fill="none" stroke="#c53dcd" stroke-miterlimit="10" stroke-width="1.46"/><line x1="62.2" y1="51.9" x2="62.2" y2="55.4" fill="none" stroke="#c53dcd" stroke-miterlimit="10" stroke-width="1.46"/><line x1="65.1" y1="45" x2="65.1" y2="55.4" fill="none" stroke="#c53dcd" stroke-miterlimit="10" stroke-width="1.46"/><line x1="68" y1="41.9" x2="68" y2="55.4" fill="none" stroke="#c53dcd" stroke-miterlimit="10" stroke-width="1.46"/><line x1="70.9" y1="46.2" x2="70.9" y2="55.4" fill="none" stroke="#c53dcd" stroke-miterlimit="10" stroke-width="1.46"/><line x1="73.8" y1="40.2" x2="73.8" y2="55.4" fill="none" stroke="#c53dcd" stroke-miterlimit="10" stroke-width="1.46"/><line x1="76.7" y1="49.1" x2="76.7" y2="55.4" fill="none" stroke="#c53dcd" stroke-miterlimit="10" stroke-width="1.46"/><line x1="79.5" y1="36.8" x2="79.5" y2="55.4" fill="none" stroke="#c53dcd" stroke-miterlimit="10" stroke-width="1.46"/><line x1="82.4" y1="43.6" x2="82.4" y2="55.4" fill="none" stroke="#c53dcd" stroke-miterlimit="10" stroke-width="1.46"/><line x1="85.3" y1="35.9" x2="85.3" y2="55.4" fill="none" stroke="#c53dcd" stroke-miterlimit="10" stroke-width="1.46"/><line x1="88.2" y1="41.9" x2="88.2" y2="55.4" fill="none" stroke="#c53dcd" stroke-miterlimit="10" stroke-width="1.46"/><line x1="91.1" y1="49.1" x2="91.1" y2="55.4" fill="none" stroke="#c53dcd" stroke-miterlimit="10" stroke-width="1.46"/><rect x="-39.8" y="-21" width="207.3" height="169.7" fill="url(#b)"/><rect x="38.2" y="14.4" width="65.5" height="40.4" fill="url(#e)"/><line x1="42.9" y1="30.5" x2="51.2" y2="30.5" fill="none" stroke="#0084ef" stroke-miterlimit="10" stroke-width="0.73"/><line x1="51.3" y1="30.5" x2="51.9" y2="30.5" fill="none" stroke="#0084ef" stroke-miterlimit="10" stroke-width="0.73" stroke-dasharray="0.46 0.19"/><line x1="52" y1="30.5" x2="60.3" y2="30.5" fill="none" stroke="#0084ef" stroke-miterlimit="10" stroke-width="0.73"/><line x1="42.9" y1="28.3" x2="55.6" y2="28.3" fill="none" stroke="#0084ef" stroke-miterlimit="10" stroke-width="0.73" stroke-dasharray="16.55 4.14 12.42 4.97"/><line x1="42.9" y1="25.6" x2="51.2" y2="25.6" fill="none" stroke="#0084ef" stroke-miterlimit="10" stroke-width="0.73"/><line x1="52.7" y1="25.6" x2="58" y2="25.6" fill="none" stroke="#0084ef" stroke-miterlimit="10" stroke-width="0.73" stroke-dasharray="4.45 1.78"/><line x1="58.9" y1="25.6" x2="67.2" y2="25.6" fill="none" stroke="#0084ef" stroke-miterlimit="10" stroke-width="0.73"/><line x1="42.9" y1="23.4" x2="57.8" y2="23.4" fill="none" stroke="#0084ef" stroke-miterlimit="10" stroke-width="0.73" stroke-dasharray="16.55 4.14 12.42 4.97"/><line x1="42.9" y1="20.6" x2="51.2" y2="20.6" fill="none" stroke="#0084ef" stroke-miterlimit="10" stroke-width="0.73"/><line x1="54.2" y1="20.6" x2="65" y2="20.6" fill="none" stroke="#0084ef" stroke-miterlimit="10" stroke-width="0.73" stroke-dasharray="9.03 3.61"/><line x1="66.8" y1="20.6" x2="75.1" y2="20.6" fill="none" stroke="#0084ef" stroke-miterlimit="10" stroke-width="0.73"/><line x1="42.9" y1="18.4" x2="72.2" y2="18.4" fill="none" stroke="#0084ef" stroke-miterlimit="10" stroke-width="0.73" stroke-dasharray="16.55 4.14 12.42 4.97"/><line x1="95.1" y1="21.2" x2="98.7" y2="21.2" fill="none" stroke="#643eef" stroke-miterlimit="10" stroke-width="0.73"/><line x1="95.1" y1="23.1" x2="100.4" y2="23.1" fill="none" stroke="#643eef" stroke-miterlimit="10" stroke-width="0.73"/><line x1="87" y1="25" x2="98.7" y2="25" fill="none" stroke="#643eef" stroke-miterlimit="10" stroke-width="0.73"/><line x1="54.7" y1="40.1" x2="54.7" y2="43.6" fill="none" stroke="#c53dcd" stroke-miterlimit="10" stroke-width="1.46"/><line x1="57.6" y1="40.1" x2="57.6" y2="43.6" fill="none" stroke="#c53dcd" stroke-miterlimit="10" stroke-width="1.46"/><line x1="60.5" y1="37.3" x2="60.5" y2="43.6" fill="none" stroke="#c53dcd" stroke-miterlimit="10" stroke-width="1.46"/><line x1="63.3" y1="40.1" x2="63.3" y2="43.6" fill="none" stroke="#c53dcd" stroke-miterlimit="10" stroke-width="1.46"/><line x1="66.2" y1="33.2" x2="66.2" y2="43.6" fill="none" stroke="#c53dcd" stroke-miterlimit="10" stroke-width="1.46"/><line x1="69.1" y1="30.1" x2="69.1" y2="43.6" fill="none" stroke="#c53dcd" stroke-miterlimit="10" stroke-width="1.46"/><line x1="72" y1="34.4" x2="72" y2="43.6" fill="none" stroke="#c53dcd" stroke-miterlimit="10" stroke-width="1.46"/><line x1="74.9" y1="28.4" x2="74.9" y2="43.6" fill="none" stroke="#c53dcd" stroke-miterlimit="10" stroke-width="1.46"/><line x1="77.8" y1="37.3" x2="77.8" y2="43.6" fill="none" stroke="#c53dcd" stroke-miterlimit="10" stroke-width="1.46"/><line x1="80.6" y1="24.9" x2="80.6" y2="43.6" fill="none" stroke="#c53dcd" stroke-miterlimit="10" stroke-width="1.46"/><line x1="83.5" y1="31.8" x2="83.5" y2="43.6" fill="none" stroke="#c53dcd" stroke-miterlimit="10" stroke-width="1.46"/><line x1="86.4" y1="24.1" x2="86.4" y2="43.6" fill="none" stroke="#c53dcd" stroke-miterlimit="10" stroke-width="1.46"/><line x1="89.3" y1="30.1" x2="89.3" y2="43.6" fill="none" stroke="#c53dcd" stroke-miterlimit="10" stroke-width="1.46"/><line x1="92.2" y1="37.3" x2="92.2" y2="43.6" fill="none" stroke="#c53dcd" stroke-miterlimit="10" stroke-width="1.46"/><g opacity="0.85"><rect x="22.8" y="84.8" width="83.5" height="61.1" fill="url(#f)"/></g><rect x="22.8" y="83.2" width="83.5" height="6.2" fill="#b3b7cb"/><rect x="19.4" y="81" width="90.3" height="3.8" fill="#938bc4"/><path d="M47,42.3s-1.1-4.7,0-6.8c1.5-2.8,1.6-5.8.6-7.7a6.48,6.48,0,0,0-3-2.9c-1.2-.7-6.8-2.3-8.3,0A50.54,50.54,0,0,0,33,32c-.7,1.7-8,6.9-9.6,9.6-2.2,3.7,1.5,11,1.5,11l14.1-1Z" fill="#441f32" fill-rule="evenodd"/><g clip-path="url(#g)"><path d="M37.4,23.9s-2.4,1.2-.6,6.2-.4,6.8-.4,6.8-4.6.4-5.2-.6a30,30,0,0,1-1.8-4.1,4.09,4.09,0,0,1,.4-2.4,11,11,0,0,1,2.6-3.1C33.5,25.6,36.9,21.2,37.4,23.9Z" fill="#3e1b2e" fill-rule="evenodd" opacity="0.6" style="isolation:isolate"/></g><path d="M44.8,26.7s2.1,1.4,2.4,3.3a11.57,11.57,0,0,1-.5,4.5,19.81,19.81,0,0,0-.8,3.3c0,.6.5,1.8.4,1.8s-12-3-12-3l-1.1-1.4a7.83,7.83,0,0,0,1.6-2l1.6-2.6L37.8,32a39.58,39.58,0,0,0,4.7-2.1,28.44,28.44,0,0,0,2-2.1Z" fill="#2f1226" fill-rule="evenodd"/><path d="M79.8,131.2s-.3,1.9-.5,3.7-.2,4.9-.2,4.9a21.74,21.74,0,0,1-3.6.2c-1.4,0-6.2,0-8.2.1a6.72,6.72,0,0,1-2.8-.3,3.63,3.63,0,0,1,2.8-2.1,11.4,11.4,0,0,0,4.9-1.9c1.8-1.1,2.5-1.7,2.8-3.6.2-2.2.7-4.6.6-4.3l5.2.6Z" fill="#371223" fill-rule="evenodd"/><path d="M82.8,121.3l-1.6,3.4a45.72,45.72,0,0,0-1.7,4.6,35.89,35.89,0,0,1-3.5-.8,54.06,54.06,0,0,1-7.2-4.5,6.36,6.36,0,0,1-2-2,3.43,3.43,0,0,1,3.4.1,4.67,4.67,0,0,0,4.1.8c2-.5,2.5-.3,3.2-2,.9-2,2-4.2,1.8-3.9l4.8,2.1Z" fill="#371223" fill-rule="evenodd"/><path d="M132.3,114.7h-14a1.67,1.67,0,0,1-1.5-1.8,1.61,1.61,0,0,1,1.5-1.5h14c2.1,0,4.3-2.4,4.3-4.8L135,91.4v-.2c0-1.8-.9-3-2-4.4a19.23,19.23,0,0,1-1.3-1.7,1.66,1.66,0,0,1,2.8-1.8,14.31,14.31,0,0,0,1.1,1.5c1.2,1.6,2.7,3.5,2.8,6.4l1.6,15.2v.2C140,110.7,136.3,114.7,132.3,114.7Z" fill="#53445a"/><path d="M111.5,111.2h3.9v25.3h-3.9Z" fill="#abb2c8" fill-rule="evenodd"/><path d="M110.2,135.5H117v-1a2.05,2.05,0,0,0-2.1-2.1h-2.8a2.05,2.05,0,0,0-2.1,2.1v1Z" fill="#53445a" fill-rule="evenodd"/><path d="M102.6,61.8l-1.2.2s1.1,13.9.9,16.8a69.91,69.91,0,0,0,.9,9.2l1.2,1.6,1.6-4s-1.5-13.2-2.2-17.1Z" fill="#250254" fill-rule="evenodd"/><path d="M106.7,110.1H120a1.67,1.67,0,0,1,1.5,1.8,1.61,1.61,0,0,1-1.5,1.5H106.7a1.66,1.66,0,0,1-.3-3.3A.19.19,0,0,1,106.7,110.1Z" fill="#53445a" fill-rule="evenodd"/><path d="M96.8,107.1v.3a4.27,4.27,0,0,0,4.3,4.3h25a4.27,4.27,0,0,0,4.3-4.3h0v-.3Z" fill="#fff" fill-rule="evenodd"/><g clip-path="url(#h)"><path d="M129.9,111.1H97.3l1.5,1.4,29.8.2Z" fill="#53445a" fill-rule="evenodd"/></g><path d="M132.7,61.8l-1.4.1c-1.7.2-4.4,2-4.3,3.7l3,32.6c.2,1.7,3.1,2.6,4.9,2.5l1.4-.1Z" fill="none"/><path d="M112.5,111.4h1.9c1.4,0,2.6.4,2.6,1.8v1.1a2.58,2.58,0,0,1-2.6,2.6h-1.9a2.58,2.58,0,0,1-2.6-2.6v-1.1C109.9,111.8,111.1,111.4,112.5,111.4Z" fill="#53445a" fill-rule="evenodd"/><path d="M109.5,46.1c-2.2-1.6-6.7-1.7-7.5-1a2.73,2.73,0,0,0-.6,1.2l-1,.9c-.7.6-1.1.7-1.1,1.1a11.14,11.14,0,0,1,.2,1.7c-.1.1-.4.2-.9.5L96.8,52c-.2.3-.5.4-.1.7s.9.6.9.6a6.6,6.6,0,0,1-.1,1.4,8.34,8.34,0,0,1-.8,1.2,1.49,1.49,0,0,0,.1,2.2l.1.1c1.1,1,3.9.7,5.1,0s2.1-1.9,1.9-2.5a9.31,9.31,0,0,1-.1-2.9" fill="#e78c66" fill-rule="evenodd"/><path d="M86.4,74s-4.4-1.7-5.1-1.8c-1-.1-2.6.7-4.9,1.8-3.1,1.5-3.5,2-3.5,2l-3,2.3a1.39,1.39,0,0,0,1.4-.1A5.45,5.45,0,0,1,73.7,77c.4-.1,1-.2,1.3-.3,1.6-.6,1.2-.2,1.2-.2a10.09,10.09,0,0,0-.7,1.5c-.1.8.6.4.6.4a2.36,2.36,0,0,0,.8-.9c.3-.5,1.2-.5,1.6-.8.8-.5,1.9-1.3,1.9-1.3s5.2,1.8,5.7,2,1.5-1.5,1.5-1.5Z" fill="#e78c66" fill-rule="evenodd"/><g clip-path="url(#i)"><path d="M77.1,75.5l-1.2,1.3-4.4,2.1-1.1-.1A6.1,6.1,0,0,1,72,77.6c.4-.2,1.5-.8,2-1.1A26.36,26.36,0,0,1,77.1,75.5Z" fill="#c86f61" fill-rule="evenodd"/><path d="M84.7,73.1l-1.5,4,1.2.2,1.3-2.2Z" fill="#c86f61" fill-rule="evenodd"/></g><path d="M106.5,56.3l-5.2,3.8.4,1.6a39,39,0,0,1-4,5.1c-3.1,3.5-6.7,8.7-6.7,8.7l-6.2-2.2-1.2,4.8c0-.9,5.9,3.8,7.7,4s11.5-7.7,11.5-7.7a30,30,0,0,0,3.2,4.7c1.6,1.7,4.8,9.5,4.8,9.5s0,2.6-.1,3.2a2.77,2.77,0,0,1-.1.9s-12.4-2.5-16-3.4c-5.2-1.4-10.3-.8-11.9,3.4-1.2,3.2-4.9,17.6-4.9,17.6s-1.3,4.4-2.2,9.3c0,.3,1.2.3,1.2.6-1,5.4-2.1,11-2.1,11s1.5.3,4,.7a22.18,22.18,0,0,0,3.7.3s2.8-8.3,4.1-12.5,3.7-12.3,3.7-12.3h32.6a6.5,6.5,0,0,0,5.8-6.6c.3-6.2-4.6-25.4-7.9-31.1s-9.5-10.1-10.6-10.8a19.28,19.28,0,0,1-3-2.7Z" fill="#43316c" fill-rule="evenodd"/><path d="M100.1,57.8a16.33,16.33,0,0,1,2.5,4.7c.2.5,4.7-2.8,4.7-2.8l1.5-1a14,14,0,0,1-1.4-2.2,3.73,3.73,0,0,1-.3-2.1c-.1-.4-3.1-2.5-3.1-2.5S100,57.5,100.1,57.8Z" fill="#ffd5c4" fill-rule="evenodd"/><g clip-path="url(#j)"><path d="M107.4,56.8c.2,1.3-5,3.7-5,3.7l-1.6.1L99.9,59s1-1.2,1.1-1.4,2.1-2.9,2.1-2.9l.9-2.2,3,3Z" fill="#e78c66" fill-rule="evenodd"/></g><g clip-path="url(#k)"><path d="M127.4,86.7l-17.3,2.8L89,83.8s-10.2-2.6-9.7-3.7,1.4-8.5,1.9-8.8,12.4-9,12.8-8.9,11.1-6.8,11.1-6.8l5.7-.6,12.8,11,5.6,10.1Z" fill="#7362c9" fill-rule="evenodd"/><path d="M109.1,68.6,102.7,77l-2.1-1.6Z" fill="#51419f" fill-rule="evenodd"/><path d="M99.1,63.7l2.7-2.5a16.35,16.35,0,0,1-.2,2.2c-.2,1.2-1.6,7-1.6,7s-4.3,5.7-5,6.1S88,81,88,81l-5.4-2c-.2-1.1-.3-2.2-.4-3.4.2-.2,1.7-2.8,1.7-2.8l4.6-1.4Z" fill="#7d75d9" fill-rule="evenodd"/></g><path d="M102.6,62s-.2-1.4-.6-1.1a5.07,5.07,0,0,0-.9,1.6v1l1.8-1.4Z" fill="#250254" fill-rule="evenodd"/><g clip-path="url(#k)"><path d="M89.2,97.3s-3.7-1.9-5.7.4-6.6,23-6.6,23-2.5.9-2.1-2.3c.9-7.6,5.1-23.5,5.1-23.5s2.9-6.8,4.4-7,.6,2.9.6,4C84.8,95.5,89.2,97.3,89.2,97.3Z" fill="#38265d" fill-rule="evenodd"/><path d="M116.4,107.1s-11.7-3.4-15.7-4.8a112.56,112.56,0,0,1-12.3-5.5s13.6,9.5,14.9,10,8.4,1.2,8.4,1.2Z" fill="#38265d" fill-rule="evenodd"/><path d="M110.6,92.6a25.85,25.85,0,0,1,4,.9c1.2.5,4.5,1.4,4.5,1.4s-1.5-2.1-2.6-2.3-6.1-.6-6.1-.6Z" fill="#392664" fill-rule="evenodd"/><path d="M127.8,88.2l-17.4,2.1-.4,1.5,17.8-2.1Z" fill="#250254" fill-rule="evenodd"/><path d="M114.2,89.3l.1,2.4h-1.1l-.1-2.4Z" fill="#43316c" fill-rule="evenodd"/></g><polygon points="121.7 111.7 105.1 111.7 105.1 111.4 121.7 111.4 121.7 111.7" fill="#53445a" fill-rule="evenodd"/><path d="M111.8,65.6c.8-2.7-1.3-7.1-4.2-6.7s-13,11.3-14.3,12.9-4.8,2.9-4.8,2.9a2.53,2.53,0,0,0-3.2,1.8.37.37,0,0,1-.1.3,8.29,8.29,0,0,0,.6,5.6s6.6.6,8.4-.2,7.8-6.4,10.5-9.1C107,70.8,111,68.3,111.8,65.6Z" fill="#7362c9" fill-rule="evenodd"/><g clip-path="url(#m)"><path d="M111.4,59.3l-4.7-1L100.9,62l-9.7,8-3.7,2.5-1.7,1.4L87.6,76l4.1-1.4s5.4-5.8,8.6-9c4.3-4.4,5.7-6.8,10-6.7Z" fill="#8e91ff" fill-rule="evenodd"/></g><g clip-path="url(#n)"><path d="M103.7,52.2a16.8,16.8,0,0,0-.2-2.3c-.2-1.3.2-2.6-.8-3.2s-1.4.3-1.5-.4,2.8-2.7,2.8-2.7,11.3,2.1,11.5,2.9.7,4.7.7,5.1-4.2,5.2-4.2,5.2l-5.4-1.3-.7-.9-.2-1.4s.4.2.7-.9c.6-2-1.6-1.6-2-.8S103.7,52.2,103.7,52.2Z" fill="#483f56" fill-rule="evenodd"/><path d="M101,56.5a17,17,0,0,0,1.9-1.9c1.1-1.3,1.7-6.4,1.7-6.4l-1.7-1.8c-.4.5-1.9,2-1.6,3s0,1.2,0,1.2a2.28,2.28,0,0,0-.6,1.2,4.71,4.71,0,0,1,.4,1.7C101.2,54.7,100.8,56.5,101,56.5Z" fill="#e47958"/><path d="M97.3,53.7a2,2,0,0,1,.8-.4c.3,0,1-.4,1.5.3s1.4,1,1.7.5a19,19,0,0,1,2.3-2.1l.4.5a6.47,6.47,0,0,0-.1,2.4c.2.8.5,1.5-.4,2.3s-2,2.2-4.5,1.9-5.4-.5-5.4-.8c.7-1.2,1.5-2.4,2.3-3.5Z" fill="#685b6f" fill-rule="evenodd"/><path d="M101,57.5c-1.4.3-3.6,1-4.2.1a1.5,1.5,0,0,1,0-1.8l-.9,1.4,1.2,1.4s1.5.4,1.6.4a3.6,3.6,0,0,0,2.3-.1,12.62,12.62,0,0,0,3.3-1.6l.2-2-.2-1.3-.2-1.6-.2-.4s-.4,1.9-.5,2.8" fill="#483f56" fill-rule="evenodd"/><path d="M103.4,49.9a40.5,40.5,0,0,0,5,1.2,20,20,0,0,1,2.6.5l-.9,2.4a11.38,11.38,0,0,1-2.5,1.8l-1.4-.4a19.2,19.2,0,0,1-1.4-1.5l-1.2-1.8Z" fill="#685b6f" fill-rule="evenodd"/></g><path d="M103.9,50.7s2.1-1.1,2.2,0-.2,1.2-1.3,1.9a3.55,3.55,0,0,1-.9.4,5.7,5.7,0,0,1-.1-1.3A3.75,3.75,0,0,0,103.9,50.7Z" fill="#e78c66" fill-rule="evenodd"/><path d="M104.1,51.3s1.3-.9,1.6-.6-1,.7-1,.7.5,0,.4.2c-.2.4-1.1.6-1,.3Z" fill="#c86f61" fill-rule="evenodd"/><path d="M99.8,47.9s-.5.1-.5.3a1.27,1.27,0,0,0,.1.6,2.85,2.85,0,0,1,1.3,0,9,9,0,0,1,1,.9,3.51,3.51,0,0,0-.6-1.4A2.84,2.84,0,0,0,99.8,47.9Z" fill="#282323" fill-rule="evenodd"/><path d="M100.2,49.9a2,2,0,0,1-.8.1,6.89,6.89,0,0,0,.8.3l1.1.2c-.1-.2-.3-.3-.4-.4A1.45,1.45,0,0,0,100.2,49.9Z" fill="#653f39" fill-rule="evenodd"/><path d="M128.6,112.2l-.9-.8h-7.3l-.3.9a6.53,6.53,0,0,0,2,.5C122.6,112.8,128.6,112.2,128.6,112.2Z" fill="#53445a"/><path d="M50.5,57.3l2.2,2.2c.9.6,2.1,1,4.3-.6s8.1-6.8,9.5-7.3a8.64,8.64,0,0,1,3.9-.3c1.1.2,2.3.4,3.4.5.4,0,1.2-.4.8-.4a14.92,14.92,0,0,1-1.9-.4s2.7.4,3.1-.2.4-1.1-.6-1.2a5.39,5.39,0,0,1-2.1-.8s2.8.1,3-.2-.4-.5-1.2-.6-2.1-.1-2.7-.2a3.55,3.55,0,0,1-1-.2,1.15,1.15,0,0,1,.9-.6,1.63,1.63,0,0,0,1.1-1.3c0-.2-.4,0-.9.2-1,.2-2.1.4-3.1.5-1.5.3-1.9,1.3-2.7,1.9-.5.4-6.7,3.3-11.9,5.7l-1.5-1.7" fill="#b15342"/><polygon points="53.2 52.3 43.9 40 41.5 48.6 50.5 57.3 53.2 52.3" fill="#fff"/><g clip-path="url(#o)"><path d="M45.5,132.1l-15.7.2-22,1.2s-5.6,6.4-5.6,7-.3,7-.3,7l52.3-1.3-4.3-8.8Z" fill="#3c2435" fill-rule="evenodd"/><path d="M37.6,110.1,43.1,129l-1.8,5.1-10.2-.5-14.2,2.5L5,138.1S3.1,125,3.3,123.7.1,83.7.2,82.2,2.9,61.5,2.9,61.5l8.8-8.3L29,60.7l.7,10.4,5.7,31.6Z" fill="#43316c" fill-rule="evenodd"/><path d="M47.9,63.2l6.4-.5.5,1.2-6.5,1Z" fill="#993e3a" fill-rule="evenodd"/><path d="M54.7,63.1l-7.4.9-.9-3-2.3-7.9-3.7,2-5.9,3.2-6.6,3.1s-1.1,2.5-5.8,1.5c-11.5-2.4-11.6-8-11.6-8l2.4-2.8,7.2-8.4,7.2-8.4,5.4-3,10,1,4.8,4.2s3.7,7.7,3.8,8.5S54.7,63.1,54.7,63.1Z" fill="#fff" fill-rule="evenodd"/><path d="M49.3,56.9c.6,8.6-10.6,8.1-25.4,8.2C13,65.3,7.8,59.2,8.7,50.7c.2-2.1,5-6.9,12.8-7.5C36.3,41.8,48.7,48.3,49.3,56.9Z" fill="url(#p)"/><path d="M26.7,43.2l-.1,20.2,2.3-1.6.5-8.6Z" fill="#b397af" fill-rule="evenodd"/><path d="M29.6,51s2.4-3,5.5-2.7c4.4.5,4.7,2.4,5.2,2.3s1.8-1.1,3-1c1.4.1.7,1.8.7,1.8a3.09,3.09,0,0,1-1.1,2,30,30,0,0,1-5.4,3.3l-4.3,4.7-3.4.5Z" fill="#eee2ec" fill-rule="evenodd"/><path d="M26.4,64a13,13,0,0,1-5.2.4c-3.5-.6-8.5-2.4-9.8-4.9s-1.7-3.2-1.7-3.2l-1,1.1A8.67,8.67,0,0,0,13,63.6,20.17,20.17,0,0,0,24,66c2.1-.3,2-.6,2-.6Z" fill="#250254" fill-rule="evenodd"/><path d="M13.7,64.7l1.7-2.2,1.4.5-1.5,2.4Z" fill="#43316c" fill-rule="evenodd"/><path d="M24.6,64.2l-1.5,2h1.2L25.7,64Z" fill="#43316c" fill-rule="evenodd"/><path d="M15.5,78.3s0-4,1.3-5.1,2.3-.9,5.2-2.9c3.9-2.6,4.5-3.8,4.5-3.8l3,14.8,4.9,21.1,4.2,24.5s2.7,6,2.8,6.2a10.87,10.87,0,0,1,.1,1.8l-8.7-.8c-.2,0-4-8-4-8L21.3,99.3Z" fill="#362259" fill-rule="evenodd"/><path d="M15.7,76.7a8.08,8.08,0,0,1,.5-2.7,5.86,5.86,0,0,1,2.4-1.7s.5,8.5,1.3,16.4a101.11,101.11,0,0,1,.4,12.3Z" fill="#250254" fill-rule="evenodd"/></g><g clip-path="url(#q)"><path d="M27.5,64l6.2.7v1.1l-6.1.1Z" fill="#993f3a" fill-rule="evenodd"/><rect x="16.1" y="35.4" width="26.9" height="52.1" fill="#b15342"/><path d="M33.9,65.2l-6.3-.4-2-19,.4-7.9,3.1-3a26.93,26.93,0,0,1,4,.3c.5.3,2.5,10.4,2.5,10.4l-1,14.2Z" fill="#fff" fill-rule="evenodd"/></g><path d="M26.6,43.1c-.2-3.1.1-5.1,1.1-6.3a3.85,3.85,0,0,1,3-1.2c2.7-.2,3,3.7,3,3.7h-.2s-.3-3.7-2.8-3.6a4,4,0,0,0-2.9,1.2c-.9,1.1-1.3,3.1-1,6.1Z" fill="#fff"/><path d="M44.9,26.7a14,14,0,0,1,1.3,3.4c.1,1-.4,1.9-.2,2.2a1.8,1.8,0,0,1,.2,1,5.84,5.84,0,0,1-.4,1.8c-.3.8-1.9,3.1-2.7,3.2-1,0-1-.2-1.3-.1v-.1c0-.1-.1-.2.1.4a9.78,9.78,0,0,1,.5,4.8,41.9,41.9,0,0,1-1.9,6.3A63.59,63.59,0,0,0,37.3,40c-.6-1.3-2.6-4.9-2.6-4.9a4.48,4.48,0,0,1,1.2-.1,1.38,1.38,0,0,0,1.2-.3l.5-.4-.1-.2-.2-.5s-2-1.8-.8-3.2c.8-1,1.6,1,1.6,1s2.8-1.3,4.8-2.4A7.4,7.4,0,0,0,44.9,26.7Z" fill="#b15342" fill-rule="evenodd"/><path d="M44.4,34.4s.1.2-.4.2a5,5,0,0,1-1.2-.2s.5,1,1.3,1S44.4,34.4,44.4,34.4Z" fill="#a74639" fill-rule="evenodd"/><g clip-path="url(#r)"><path d="M34.3,34.2S36,36,38.4,42a30.19,30.19,0,0,1,1.9,6.5,44.19,44.19,0,0,0,1.5-4.8,15.61,15.61,0,0,0-.1-5.7l1.2,3.3-.7,3.9-.9,3.6-1.8,1.5-1.2-5.5-3.5-7.1-1.7-3Z" fill="#ddc7e0" fill-rule="evenodd"/><path d="M37.5,34.1a8.81,8.81,0,0,0,2.2,2.5c.6.4,1.1.8,1.7,1.2a1.79,1.79,0,0,1,.5.7c.7,1.7,2.2,6.4,2,6.9s-4.9,6.4-5.3,6.1c-.9-.7-5.6-16.6-5.7-17.1S37.5,34.1,37.5,34.1Z" fill="#a74539" fill-rule="evenodd"/><path d="M37.5,34.1a8.81,8.81,0,0,0,2.2,2.5c.6.4,1.1.8,1.7,1.2a8.33,8.33,0,0,1-.4,1.5c-.3.5-1.5.2-1.9-.1a5.14,5.14,0,0,1-1.5-2.8A17,17,0,0,1,37.5,34.1Z" fill="#8e2624" fill-rule="evenodd"/><path d="M46.5,30s-.2.8-.8,1a2,2,0,0,0-1.4,1.5c0,.1-.1,1.9-.1,1.9l-.4.1-.4,1.2s8.3,1.8,5.1-4.6A2.31,2.31,0,0,0,46.5,30Z" fill="#ba6659"/><path d="M40.7,28s-.3,1.6.6,2c0,0-.8.7-.7,1a3.53,3.53,0,0,1,.3,1.4c0,.5-.3,1.5-.3,2.2s.5,2.2,2.8,3.9c0,0-.3.3-1.1-.1-.3-.1-.8-.6-1.2-.8a9.8,9.8,0,0,1-3.3-3.1s.4-4.3,1.1-4.8S40.5,28,40.7,28Z" fill="#a74639"/></g><path d="M37.7,32.2s-.2-1.4-.5-1.4-.3.3-.3.6.5.6.5.6-.6-.5-.5,0a2.72,2.72,0,0,0,.8,1Z" fill="#973c34" fill-rule="evenodd"/><path d="M42.8,30.5a.77.77,0,0,1,.1.6.37.37,0,0,1-.5.2.1.1,0,0,1-.1-.1,5.23,5.23,0,0,0-1.6-.6,3.59,3.59,0,0,0-1.1.2s.7-.7,1.2-.7A17.66,17.66,0,0,1,42.8,30.5Z" fill="#231316" fill-rule="evenodd"/><path d="M46.4,31s.1-.7-.7-.6c-.3.1-.9.3-.9.6s0,.6.2.5a4.35,4.35,0,0,1,.7-.4,1.38,1.38,0,0,1,.4-.3C46.3,30.7,46.4,31,46.4,31Z" fill="#231316" fill-rule="evenodd"/><path d="M44.7,35.3a7.57,7.57,0,0,1-1.5.1,13.55,13.55,0,0,1-2-.2s1.2,1.3,2.1,1.2A2.09,2.09,0,0,0,44.7,35.3Z" fill="#fff" fill-rule="evenodd"/><path d="M44.7,35.3s.2-.1-.4-.2-2.1.1-2.4,0h-.7s-.1.2.2.2a24.58,24.58,0,0,0,2.8.2A.37.37,0,0,0,44.7,35.3Z" fill="#762c37" fill-rule="evenodd"/><path d="M44.7,35.3s-.4.8-1.1.8a2.6,2.6,0,0,1-1.5-.4c-.3-.2-.7-.5-.7-.5s.5,1.5,1.6,1.5c.7.1,1.1,0,1.4-.5A4.65,4.65,0,0,0,44.7,35.3Z" fill="#762c37" fill-rule="evenodd"/><path d="M45.8,32.1a4.55,4.55,0,0,0-.6.1c-.5.1-.5,0-.7.1a.91.91,0,0,0,.7.3,4.87,4.87,0,0,0,1.2-.1Z" fill="#311c25" fill-rule="evenodd"/><path d="M42.1,31.8h-.6a1.48,1.48,0,0,0-.7-.1l-.7-.1a3,3,0,0,0,.7.5,8.75,8.75,0,0,0,1.6.2Z" fill="#311c25" fill-rule="evenodd"/><g opacity="0.85"><rect x="22.8" y="84.8" width="83.5" height="61.1" fill="url(#f)"/></g><rect x="22.8" y="83.2" width="83.5" height="6.2" fill="#b3b7cb"/><rect x="19.4" y="81" width="90.3" height="3.8" fill="#938bc4"/></g><circle cx="67.3" cy="67.3" r="63.9" fill="none" stroke="#fff" stroke-miterlimit="10" stroke-width="2.93"/></svg>