<?xml version="1.0" encoding="utf-8"?>
<!-- Generator: Adobe Illustrator 25.4.1, SVG Export Plug-In . SVG Version: 6.00 Build 0)  -->
<svg version="1.1" id="Layer_1" xmlns="http://www.w3.org/2000/svg" xmlns:xlink="http://www.w3.org/1999/xlink" x="0px" y="0px"
	 viewBox="0 0 134.5 134.5" style="enable-background:new 0 0 134.5 134.5;" xml:space="preserve">
<style type="text/css">
	.st0{clip-path:url(#SVGID_00000102507516143705806670000011875851526416985754_);}
	.st1{fill:url(#SVGID_00000134951476426105995250000017922689198330230664_);}
	.st2{fill:url(#SVGID_00000061433547833628975260000018390876914346850187_);}
	.st3{fill:none;stroke:#0084EF;stroke-width:0.73;stroke-miterlimit:10;stroke-dasharray:15.81;}
	.st4{fill:none;stroke:#0084EF;stroke-width:0.73;stroke-miterlimit:10;stroke-dasharray:16.55,4.14,12.42,4.97;}
	.st5{fill:none;stroke:#0084EF;stroke-width:0.73;stroke-miterlimit:10;stroke-dasharray:12.17;}
	.st6{fill:none;stroke:#0084EF;stroke-width:0.73;stroke-miterlimit:10;}
	.st7{fill:none;stroke:#0084EF;stroke-width:0.73;stroke-miterlimit:10;stroke-dasharray:3.45,1.38;}
	.st8{fill:none;stroke:#0084EF;stroke-width:0.73;stroke-miterlimit:10;stroke-dasharray:4.45,1.78;}
	.st9{fill:none;stroke:#0084EF;stroke-width:0.73;stroke-miterlimit:10;stroke-dasharray:9.03,3.61;}
	.st10{fill:none;stroke:#643EEF;stroke-width:0.73;stroke-miterlimit:10;}
	.st11{fill:none;stroke:#C53DCD;stroke-width:1.46;stroke-miterlimit:10;}
	.st12{fill:url(#SVGID_00000154422026266745291100000006818848481946156193_);}
	.st13{fill:url(#SVGID_00000179622784983310334110000014982497831872837040_);}
	.st14{fill:none;stroke:#0084EF;stroke-width:0.73;stroke-miterlimit:10;stroke-dasharray:0.46,0.19;}
	.st15{opacity:0.85;}
	.st16{fill:url(#SVGID_00000159466772657408838650000005776522430530629538_);}
	.st17{fill:#B3B7CB;}
	.st18{fill:#938BC4;}
	.st19{fill-rule:evenodd;clip-rule:evenodd;fill:#441F32;}
	.st20{clip-path:url(#SVGID_00000034773477969937685530000005777400353895263360_);}
	.st21{opacity:0.6;fill-rule:evenodd;clip-rule:evenodd;fill:#3E1B2E;enable-background:new    ;}
	.st22{fill-rule:evenodd;clip-rule:evenodd;fill:#2F1226;}
	.st23{fill-rule:evenodd;clip-rule:evenodd;fill:#371223;}
	.st24{fill:#53445A;}
	.st25{fill-rule:evenodd;clip-rule:evenodd;fill:#ABB2C8;}
	.st26{fill-rule:evenodd;clip-rule:evenodd;fill:#53445A;}
	.st27{fill-rule:evenodd;clip-rule:evenodd;fill:#250254;}
	.st28{fill-rule:evenodd;clip-rule:evenodd;fill:#FFFFFF;}
	.st29{clip-path:url(#SVGID_00000070840614096224169200000017335599693950484919_);}
	.st30{fill:none;}
	.st31{fill-rule:evenodd;clip-rule:evenodd;fill:#E78C66;}
	.st32{clip-path:url(#SVGID_00000183243693261920601860000001883389462818578333_);}
	.st33{fill-rule:evenodd;clip-rule:evenodd;fill:#C86F61;}
	.st34{fill-rule:evenodd;clip-rule:evenodd;fill:#43316C;}
	.st35{fill-rule:evenodd;clip-rule:evenodd;fill:#FFD5C4;}
	.st36{clip-path:url(#SVGID_00000175281787668095984930000005785841591904844431_);}
	.st37{clip-path:url(#SVGID_00000054229834469519694140000008665864889721813426_);}
	.st38{fill-rule:evenodd;clip-rule:evenodd;fill:#7362C9;}
	.st39{fill-rule:evenodd;clip-rule:evenodd;fill:#51419F;}
	.st40{fill-rule:evenodd;clip-rule:evenodd;fill:#7D75D9;}
	.st41{clip-path:url(#SVGID_00000048464198605143170580000000693240049516532896_);}
	.st42{fill-rule:evenodd;clip-rule:evenodd;fill:#38265D;}
	.st43{fill-rule:evenodd;clip-rule:evenodd;fill:#392664;}
	.st44{clip-path:url(#SVGID_00000124132797836425947410000000158501890356638087_);}
	.st45{fill-rule:evenodd;clip-rule:evenodd;fill:#8E91FF;}
	.st46{clip-path:url(#SVGID_00000081628700312979003740000004808725614916871862_);}
	.st47{fill-rule:evenodd;clip-rule:evenodd;fill:#483F56;}
	.st48{fill:#E47958;}
	.st49{fill-rule:evenodd;clip-rule:evenodd;fill:#685B6F;}
	.st50{fill-rule:evenodd;clip-rule:evenodd;fill:#282323;}
	.st51{fill-rule:evenodd;clip-rule:evenodd;fill:#653F39;}
	.st52{fill:#B15342;}
	.st53{fill:#FFFFFF;}
	.st54{clip-path:url(#SVGID_00000125605011025566966220000013689641228701253041_);}
	.st55{fill-rule:evenodd;clip-rule:evenodd;fill:#3C2435;}
	.st56{fill-rule:evenodd;clip-rule:evenodd;fill:#993E3A;}
	.st57{fill:url(#SVGID_00000030470654806835690580000011130532153068709547_);}
	.st58{fill-rule:evenodd;clip-rule:evenodd;fill:#B397AF;}
	.st59{fill-rule:evenodd;clip-rule:evenodd;fill:#EEE2EC;}
	.st60{fill-rule:evenodd;clip-rule:evenodd;fill:#362259;}
	.st61{clip-path:url(#SVGID_00000023262151396421675320000000307974537768115108_);}
	.st62{fill-rule:evenodd;clip-rule:evenodd;fill:#993F3A;}
	.st63{fill-rule:evenodd;clip-rule:evenodd;fill:#B15342;}
	.st64{fill-rule:evenodd;clip-rule:evenodd;fill:#A74639;}
	.st65{clip-path:url(#SVGID_00000010310922238424127200000014551161521353273748_);}
	.st66{fill-rule:evenodd;clip-rule:evenodd;fill:#DDC7E0;}
	.st67{fill-rule:evenodd;clip-rule:evenodd;fill:#A74539;}
	.st68{fill-rule:evenodd;clip-rule:evenodd;fill:#8E2624;}
	.st69{fill:#BA6659;}
	.st70{fill:#A74639;}
	.st71{fill-rule:evenodd;clip-rule:evenodd;fill:#973C34;}
	.st72{fill-rule:evenodd;clip-rule:evenodd;fill:#231316;}
	.st73{fill-rule:evenodd;clip-rule:evenodd;fill:#762C37;}
	.st74{fill-rule:evenodd;clip-rule:evenodd;fill:#311C25;}
	.st75{fill:url(#SVGID_00000118363777824167224170000013681599711864200116_);}
	.st76{fill:none;stroke:#FFFFFF;stroke-width:2.93;stroke-miterlimit:10;}
</style>
<g>
	<g>
		<defs>
			<circle id="SVGID_1_" cx="67.3" cy="67.3" r="63.9"/>
		</defs>
		<clipPath id="SVGID_00000057826319682062256310000015818011777997009299_">
			<use xlink:href="#SVGID_1_"  style="overflow:visible;"/>
		</clipPath>
		<g style="clip-path:url(#SVGID_00000057826319682062256310000015818011777997009299_);">
			
				<linearGradient id="SVGID_00000182498272781975882250000007770364603471540411_" gradientUnits="userSpaceOnUse" x1="63.855" y1="148.37" x2="63.855" y2="46.73" gradientTransform="matrix(1 0 0 -1 0 136)">
				<stop  offset="0" style="stop-color:#00B6FF"/>
				<stop  offset="0" style="stop-color:#52A0FF"/>
				<stop  offset="1" style="stop-color:#D7F2FF"/>
			</linearGradient>
			
				<rect x="-39.8" y="-21" style="fill:url(#SVGID_00000182498272781975882250000007770364603471540411_);" width="207.3" height="169.7"/>
			
				<linearGradient id="SVGID_00000070100014705702729520000017557919572056019621_" gradientUnits="userSpaceOnUse" x1="42.1916" y1="170.2106" x2="77.2416" y2="82.1806" gradientTransform="matrix(1 0 0 -1 0 136)">
				<stop  offset="0" style="stop-color:#00B6FF"/>
				<stop  offset="1" style="stop-color:#42004E"/>
			</linearGradient>
			
				<rect x="38.2" y="14.2" style="fill:url(#SVGID_00000070100014705702729520000017557919572056019621_);" width="65.5" height="47.6"/>
			<line class="st3" x1="44.5" y1="42.5" x2="60.3" y2="42.5"/>
			<line class="st4" x1="44.5" y1="40.3" x2="50.4" y2="40.3"/>
			<line class="st5" x1="44.5" y1="37.5" x2="56.6" y2="37.5"/>
			<line class="st4" x1="44.5" y1="35.3" x2="54.2" y2="35.3"/>
			<line class="st6" x1="44.5" y1="32.6" x2="52.7" y2="32.6"/>
			<line class="st7" x1="53.9" y1="32.6" x2="58" y2="32.6"/>
			<line class="st6" x1="58.7" y1="32.6" x2="67" y2="32.6"/>
			<line class="st4" x1="44.5" y1="30.4" x2="57.1" y2="30.4"/>
			<line class="st6" x1="44.5" y1="27.6" x2="52.7" y2="27.6"/>
			<line class="st8" x1="54.2" y1="27.6" x2="59.5" y2="27.6"/>
			<line class="st6" x1="60.4" y1="27.6" x2="68.7" y2="27.6"/>
			<line class="st4" x1="44.5" y1="25.4" x2="59.3" y2="25.4"/>
			<line class="st6" x1="44.5" y1="22.6" x2="52.7" y2="22.6"/>
			<line class="st9" x1="55.7" y1="22.6" x2="66.6" y2="22.6"/>
			<line class="st6" x1="68.4" y1="22.6" x2="76.7" y2="22.6"/>
			<line class="st4" x1="44.5" y1="20.4" x2="73.8" y2="20.4"/>
			<line class="st10" x1="94" y1="33" x2="97.6" y2="33"/>
			<line class="st10" x1="94" y1="34.9" x2="99.3" y2="34.9"/>
			<line class="st10" x1="85.9" y1="36.8" x2="97.6" y2="36.8"/>
			<line class="st11" x1="53.6" y1="51.9" x2="53.6" y2="55.4"/>
			<line class="st11" x1="56.5" y1="51.9" x2="56.5" y2="55.4"/>
			<line class="st11" x1="59.3" y1="49.1" x2="59.3" y2="55.4"/>
			<line class="st11" x1="62.2" y1="51.9" x2="62.2" y2="55.4"/>
			<line class="st11" x1="65.1" y1="45" x2="65.1" y2="55.4"/>
			<line class="st11" x1="68" y1="41.9" x2="68" y2="55.4"/>
			<line class="st11" x1="70.9" y1="46.2" x2="70.9" y2="55.4"/>
			<line class="st11" x1="73.8" y1="40.2" x2="73.8" y2="55.4"/>
			<line class="st11" x1="76.7" y1="49.1" x2="76.7" y2="55.4"/>
			<line class="st11" x1="79.5" y1="36.8" x2="79.5" y2="55.4"/>
			<line class="st11" x1="82.4" y1="43.6" x2="82.4" y2="55.4"/>
			<line class="st11" x1="85.3" y1="35.9" x2="85.3" y2="55.4"/>
			<line class="st11" x1="88.2" y1="41.9" x2="88.2" y2="55.4"/>
			<line class="st11" x1="91.1" y1="49.1" x2="91.1" y2="55.4"/>
			
				<linearGradient id="SVGID_00000012450365920200125320000000264831336268150151_" gradientUnits="userSpaceOnUse" x1="63.855" y1="148.37" x2="63.855" y2="46.73" gradientTransform="matrix(1 0 0 -1 0 136)">
				<stop  offset="0" style="stop-color:#00B6FF"/>
				<stop  offset="0" style="stop-color:#52A0FF"/>
				<stop  offset="1" style="stop-color:#D7F2FF"/>
			</linearGradient>
			
				<rect x="-39.8" y="-21" style="fill:url(#SVGID_00000012450365920200125320000000264831336268150151_);" width="207.3" height="169.7"/>
			
				<linearGradient id="SVGID_00000099636516121435806910000003777764906464985021_" gradientUnits="userSpaceOnUse" x1="45.0203" y1="166.5301" x2="76.6203" y2="87.1601" gradientTransform="matrix(1 0 0 -1 0 136)">
				<stop  offset="0" style="stop-color:#00B6FF"/>
				<stop  offset="1" style="stop-color:#42004E"/>
			</linearGradient>
			
				<rect x="38.2" y="14.4" style="fill:url(#SVGID_00000099636516121435806910000003777764906464985021_);" width="65.5" height="40.4"/>
			<line class="st6" x1="42.9" y1="30.5" x2="51.2" y2="30.5"/>
			<line class="st14" x1="51.3" y1="30.5" x2="51.9" y2="30.5"/>
			<line class="st6" x1="52" y1="30.5" x2="60.3" y2="30.5"/>
			<line class="st4" x1="42.9" y1="28.3" x2="55.6" y2="28.3"/>
			<line class="st6" x1="42.9" y1="25.6" x2="51.2" y2="25.6"/>
			<line class="st8" x1="52.7" y1="25.6" x2="58" y2="25.6"/>
			<line class="st6" x1="58.9" y1="25.6" x2="67.2" y2="25.6"/>
			<line class="st4" x1="42.9" y1="23.4" x2="57.8" y2="23.4"/>
			<line class="st6" x1="42.9" y1="20.6" x2="51.2" y2="20.6"/>
			<line class="st9" x1="54.2" y1="20.6" x2="65" y2="20.6"/>
			<line class="st6" x1="66.8" y1="20.6" x2="75.1" y2="20.6"/>
			<line class="st4" x1="42.9" y1="18.4" x2="72.2" y2="18.4"/>
			<line class="st10" x1="95.1" y1="21.2" x2="98.7" y2="21.2"/>
			<line class="st10" x1="95.1" y1="23.1" x2="100.4" y2="23.1"/>
			<line class="st10" x1="87" y1="25" x2="98.7" y2="25"/>
			<line class="st11" x1="54.7" y1="40.1" x2="54.7" y2="43.6"/>
			<line class="st11" x1="57.6" y1="40.1" x2="57.6" y2="43.6"/>
			<line class="st11" x1="60.5" y1="37.3" x2="60.5" y2="43.6"/>
			<line class="st11" x1="63.3" y1="40.1" x2="63.3" y2="43.6"/>
			<line class="st11" x1="66.2" y1="33.2" x2="66.2" y2="43.6"/>
			<line class="st11" x1="69.1" y1="30.1" x2="69.1" y2="43.6"/>
			<line class="st11" x1="72" y1="34.4" x2="72" y2="43.6"/>
			<line class="st11" x1="74.9" y1="28.4" x2="74.9" y2="43.6"/>
			<line class="st11" x1="77.8" y1="37.3" x2="77.8" y2="43.6"/>
			<line class="st11" x1="80.6" y1="24.9" x2="80.6" y2="43.6"/>
			<line class="st11" x1="83.5" y1="31.8" x2="83.5" y2="43.6"/>
			<line class="st11" x1="86.4" y1="24.1" x2="86.4" y2="43.6"/>
			<line class="st11" x1="89.3" y1="30.1" x2="89.3" y2="43.6"/>
			<line class="st11" x1="92.2" y1="37.3" x2="92.2" y2="43.6"/>
			<g class="st15">
				
					<linearGradient id="SVGID_00000155857467522445293530000011156848415612574133_" gradientUnits="userSpaceOnUse" x1="64.52" y1="11.54" x2="64.52" y2="79.52" gradientTransform="matrix(1 0 0 -1 0 136)">
					<stop  offset="0" style="stop-color:#BD03AD"/>
					<stop  offset="1" style="stop-color:#250254"/>
				</linearGradient>
				
					<rect x="22.8" y="84.8" style="fill:url(#SVGID_00000155857467522445293530000011156848415612574133_);" width="83.5" height="61.1"/>
			</g>
			<g>
				<rect x="22.8" y="83.2" class="st17" width="83.5" height="6.2"/>
			</g>
			<rect x="19.4" y="81" class="st18" width="90.3" height="3.8"/>
			<path class="st19" d="M47,42.3c0,0-1.1-4.7,0-6.8c1.5-2.8,1.6-5.8,0.6-7.7c-0.7-1.3-1.7-2.3-3-2.9c-1.2-0.7-6.8-2.3-8.3,0
				c-1.3,2.3-2.4,4.7-3.3,7.1c-0.7,1.7-8,6.9-9.6,9.6c-2.2,3.7,1.5,11,1.5,11l14.1-1L47,42.3z"/>
			<g>
				<defs>
					<path id="SVGID_00000181065866443301729060000010029993508180557758_" d="M47,42.3c0,0-1.1-4.7,0-6.8c1.5-2.8,1.6-5.8,0.6-7.7
						c-0.7-1.3-1.7-2.3-3-2.9c-1.2-0.7-6.8-2.3-8.3,0c-1.3,2.3-2.4,4.7-3.3,7.1c-0.7,1.7-8,6.9-9.6,9.6c-2.2,3.7,1.5,11,1.5,11
						l14.1-1L47,42.3z"/>
				</defs>
				<clipPath id="SVGID_00000035521140699013992340000000688886924974370201_">
					<use xlink:href="#SVGID_00000181065866443301729060000010029993508180557758_"  style="overflow:visible;"/>
				</clipPath>
				<g style="clip-path:url(#SVGID_00000035521140699013992340000000688886924974370201_);">
					<path class="st21" d="M37.4,23.9c0,0-2.4,1.2-0.6,6.2s-0.4,6.8-0.4,6.8s-4.6,0.4-5.2-0.6c-0.7-1.3-1.3-2.7-1.8-4.1
						c-0.1-0.8,0-1.6,0.4-2.4c0.7-1.2,1.5-2.2,2.6-3.1C33.5,25.6,36.9,21.2,37.4,23.9z"/>
				</g>
			</g>
			<path class="st22" d="M44.8,26.7c0,0,2.1,1.4,2.4,3.3c0.1,1.5,0,3-0.5,4.5c-0.4,1.1-0.6,2.2-0.8,3.3c0,0.6,0.5,1.8,0.4,1.8
				s-12-3-12-3l-1.1-1.4c0.6-0.6,1.2-1.2,1.6-2l1.6-2.6l1.4,1.4c1.6-0.6,3.2-1.3,4.7-2.1c0.7-0.6,2-2.1,2-2.1L44.8,26.7z"/>
			<path class="st23" d="M79.8,131.2c0,0-0.3,1.9-0.5,3.7s-0.2,4.9-0.2,4.9c-1.2,0.2-2.4,0.2-3.6,0.2c-1.4,0-6.2,0-8.2,0.1
				c-0.9,0.1-1.9,0-2.8-0.3c0.5-1.1,1.5-1.9,2.8-2.1c1.7-0.2,3.4-0.9,4.9-1.9c1.8-1.1,2.5-1.7,2.8-3.6c0.2-2.2,0.7-4.6,0.6-4.3
				l5.2,0.6L79.8,131.2z"/>
			<path class="st23" d="M82.8,121.3c0,0-0.8,1.7-1.6,3.4s-1.7,4.6-1.7,4.6c-1.2-0.2-2.4-0.5-3.5-0.8c-2.5-1.3-4.9-2.8-7.2-4.5
				c-0.8-0.5-1.5-1.2-2-2c1.1-0.6,2.4-0.5,3.4,0.1c1.2,0.9,2.7,1.2,4.1,0.8c2-0.5,2.5-0.3,3.2-2c0.9-2,2-4.2,1.8-3.9l4.8,2.1
				L82.8,121.3z"/>
			<path class="st24" d="M132.3,114.7h-14c-0.9-0.1-1.6-0.9-1.5-1.8c0.1-0.8,0.7-1.5,1.5-1.5h14c2.1,0,4.3-2.4,4.3-4.8L135,91.4
				c0-0.1,0-0.1,0-0.2c0-1.8-0.9-3-2-4.4c-0.5-0.6-0.9-1.1-1.3-1.7c-0.5-0.8-0.3-1.8,0.5-2.3c0.8-0.5,1.8-0.3,2.3,0.5
				c0.3,0.5,0.7,1,1.1,1.5c1.2,1.6,2.7,3.5,2.8,6.4l1.6,15.2c0,0.1,0,0.1,0,0.2C140,110.7,136.3,114.7,132.3,114.7z"/>
			<path class="st25" d="M111.5,111.2h3.9v25.3h-3.9V111.2z"/>
			<path class="st26" d="M110.2,135.5h6.6h0.2v-1c0-1.2-0.9-2.1-2.1-2.1h-2.8c-1.2,0-2.1,0.9-2.1,2.1v1H110.2z"/>
			<path class="st27" d="M102.6,61.8l-1.2,0.2c0,0,1.1,13.9,0.9,16.8c0.1,3.1,0.4,6.2,0.9,9.2l1.2,1.6l1.6-4c0,0-1.5-13.2-2.2-17.1
				S102.6,61.8,102.6,61.8z"/>
			<path class="st26" d="M106.7,110.1h13.3c0.9,0.1,1.6,0.9,1.5,1.8c-0.1,0.8-0.7,1.5-1.5,1.5h-13.3c-0.9,0.1-1.7-0.6-1.8-1.5
				s0.6-1.7,1.5-1.8C106.5,110,106.6,110,106.7,110.1z"/>
			<path class="st28" d="M96.8,107.1v0.3c0,2.4,1.9,4.3,4.3,4.3h25c2.4,0,4.3-1.9,4.3-4.3l0,0v-0.3H96.8z"/>
			<g>
				<defs>
					<path id="SVGID_00000142893549636015828140000006091231214783517362_" d="M96.8,107.1v0.3c0,2.4,1.9,4.3,4.3,4.3h25
						c2.4,0,4.3-1.9,4.3-4.3l0,0v-0.3H96.8z"/>
				</defs>
				<clipPath id="SVGID_00000003821189713317293700000014005884676429197483_">
					<use xlink:href="#SVGID_00000142893549636015828140000006091231214783517362_"  style="overflow:visible;"/>
				</clipPath>
				<g style="clip-path:url(#SVGID_00000003821189713317293700000014005884676429197483_);">
					<path class="st26" d="M129.9,111.1H97.3l1.5,1.4l29.8,0.2L129.9,111.1z"/>
				</g>
			</g>
			<path class="st30" d="M132.7,61.8l-1.4,0.1c-1.7,0.2-4.4,2-4.3,3.7l3,32.6c0.2,1.7,3.1,2.6,4.9,2.5l1.4-0.1L132.7,61.8z"/>
			<path class="st26" d="M112.5,111.4h1.9c1.4,0,2.6,0.4,2.6,1.8v1.1c0,1.4-1.1,2.6-2.6,2.6h-1.9c-1.4,0-2.6-1.1-2.6-2.6v-1.1
				C109.9,111.8,111.1,111.4,112.5,111.4z"/>
			<path class="st31" d="M109.5,46.1c-2.2-1.6-6.7-1.7-7.5-1c-0.3,0.3-0.5,0.8-0.6,1.2l-1,0.9c-0.7,0.6-1.1,0.7-1.1,1.1
				c0.1,0.6,0.2,1.2,0.2,1.7c-0.1,0.1-0.4,0.2-0.9,0.5c-0.6,0.5-1.2,1-1.8,1.5c-0.2,0.3-0.5,0.4-0.1,0.7s0.9,0.6,0.9,0.6
				c0,0.5,0,0.9-0.1,1.4c-0.2,0.4-0.5,0.8-0.8,1.2c-0.6,0.6-0.6,1.6,0.1,2.2c0,0,0.1,0.1,0.1,0.1c1.1,1,3.9,0.7,5.1,0
				s2.1-1.9,1.9-2.5c-0.2-0.9-0.2-1.9-0.1-2.9"/>
			<path class="st31" d="M86.4,74c0,0-4.4-1.7-5.1-1.8c-1-0.1-2.6,0.7-4.9,1.8c-3.1,1.5-3.5,2-3.5,2l-3,2.3c0.5,0.2,1,0.2,1.4-0.1
				c0.7-0.6,1.5-1,2.4-1.2c0.4-0.1,1-0.2,1.3-0.3c1.6-0.6,1.2-0.2,1.2-0.2c-0.3,0.5-0.5,1-0.7,1.5c-0.1,0.8,0.6,0.4,0.6,0.4
				c0.3-0.2,0.6-0.5,0.8-0.9c0.3-0.5,1.2-0.5,1.6-0.8c0.8-0.5,1.9-1.3,1.9-1.3s5.2,1.8,5.7,2s1.5-1.5,1.5-1.5L86.4,74z"/>
			<g>
				<defs>
					<path id="SVGID_00000124123390135294050110000014770430482632114587_" d="M86.4,74c0,0-4.4-1.7-5.1-1.8c-1-0.1-2.6,0.7-4.9,1.8
						c-3.1,1.5-3.5,2-3.5,2l-3,2.3c0.5,0.2,1,0.2,1.4-0.1c0.7-0.6,1.5-1,2.4-1.2c0.4-0.1,1-0.2,1.3-0.3c1.6-0.6,1.2-0.2,1.2-0.2
						c-0.3,0.5-0.5,1-0.7,1.5c-0.1,0.8,0.6,0.4,0.6,0.4c0.3-0.2,0.6-0.5,0.8-0.9c0.3-0.5,1.2-0.5,1.6-0.8c0.8-0.5,1.9-1.3,1.9-1.3
						s5.2,1.8,5.7,2s1.5-1.5,1.5-1.5L86.4,74z"/>
				</defs>
				<clipPath id="SVGID_00000051354672454430726170000010375791408394666171_">
					<use xlink:href="#SVGID_00000124123390135294050110000014770430482632114587_"  style="overflow:visible;"/>
				</clipPath>
				<g style="clip-path:url(#SVGID_00000051354672454430726170000010375791408394666171_);">
					<path class="st33" d="M77.1,75.5l-1.2,1.3l-4.4,2.1l-1.1-0.1c0.5-0.5,1-0.9,1.6-1.2c0.4-0.2,1.5-0.8,2-1.1S77.1,75.5,77.1,75.5
						z"/>
					<path class="st33" d="M84.7,73.1l-1.5,4l1.2,0.2l1.3-2.2L84.7,73.1z"/>
				</g>
			</g>
			<path class="st34" d="M106.5,56.3l-5.2,3.8l0.4,1.6c-1.2,1.8-2.5,3.5-4,5.1c-3.1,3.5-6.7,8.7-6.7,8.7l-6.2-2.2l-1.2,4.8
				c0-0.9,5.9,3.8,7.7,4s11.5-7.7,11.5-7.7c0.9,1.7,2,3.2,3.2,4.7c1.6,1.7,4.8,9.5,4.8,9.5s0,2.6-0.1,3.2c0,0.3,0,0.6-0.1,0.9
				c0,0-12.4-2.5-16-3.4c-5.2-1.4-10.3-0.8-11.9,3.4c-1.2,3.2-4.9,17.6-4.9,17.6s-1.3,4.4-2.2,9.3c0,0.3,1.2,0.3,1.2,0.6
				c-1,5.4-2.1,11-2.1,11s1.5,0.3,4,0.7c1.2,0.2,2.4,0.3,3.7,0.3c0,0,2.8-8.3,4.1-12.5s3.7-12.3,3.7-12.3h32.6c0,0,5.5-0.4,5.8-6.6
				s-4.6-25.4-7.9-31.1s-9.5-10.1-10.6-10.8c-1.1-0.8-2.1-1.7-3-2.7L106.5,56.3z"/>
			<path class="st35" d="M100.1,57.8c1.1,1.4,1.9,3,2.5,4.7c0.2,0.5,4.7-2.8,4.7-2.8l1.5-1c0,0-0.8-1-1.4-2.2
				c-0.3-0.6-0.4-1.4-0.3-2.1c-0.1-0.4-3.1-2.5-3.1-2.5S100,57.5,100.1,57.8z"/>
			<g>
				<defs>
					<path id="SVGID_00000058569662932229727210000011627370926263566262_" d="M100.1,57.8c1.1,1.4,1.9,3,2.5,4.7
						c0.2,0.5,4.7-2.8,4.7-2.8l1.5-1c0,0-0.8-1-1.4-2.2c-0.3-0.6-0.4-1.4-0.3-2.1c-0.1-0.4-3.1-2.5-3.1-2.5S100,57.5,100.1,57.8z"/>
				</defs>
				<clipPath id="SVGID_00000094584202794421805280000015096955631565351044_">
					<use xlink:href="#SVGID_00000058569662932229727210000011627370926263566262_"  style="overflow:visible;"/>
				</clipPath>
				<g style="clip-path:url(#SVGID_00000094584202794421805280000015096955631565351044_);">
					<path class="st31" d="M107.4,56.8c0.2,1.3-5,3.7-5,3.7l-1.6,0.1L99.9,59c0,0,1-1.2,1.1-1.4s2.1-2.9,2.1-2.9l0.9-2.2l3,3
						L107.4,56.8z"/>
				</g>
			</g>
			<g>
				<defs>
					<path id="SVGID_00000052099796385234794330000016690194620007938445_" d="M106.5,56.3l-5.2,3.8l0.4,1.6c-1.2,1.8-2.5,3.5-4,5.1
						c-3.1,3.5-6.7,8.7-6.7,8.7l-6.2-2.2l-1.2,4.8c0-0.9,5.9,3.8,7.7,4s11.5-7.7,11.5-7.7c0.9,1.7,2,3.2,3.2,4.7
						c1.6,1.7,4.8,9.5,4.8,9.5s0,2.6-0.1,3.2c0,0.3,0,0.6-0.1,0.9c0,0-12.4-2.5-16-3.4c-5.2-1.4-10.3-0.8-11.9,3.4
						c-1.2,3.2-4.9,17.6-4.9,17.6s-1.3,4.4-2.2,9.3c0,0.3,1.2,0.3,1.2,0.6c-1,5.4-2.1,11-2.1,11s1.5,0.3,4,0.7
						c1.2,0.2,2.4,0.3,3.7,0.3c0,0,2.8-8.3,4.1-12.5s3.7-12.3,3.7-12.3h32.6c0,0,5.5-0.4,5.8-6.6s-4.6-25.4-7.9-31.1
						s-9.5-10.1-10.6-10.8c-1.1-0.8-2.1-1.7-3-2.7L106.5,56.3z"/>
				</defs>
				<clipPath id="SVGID_00000072260184348058586480000014156008417115791766_">
					<use xlink:href="#SVGID_00000052099796385234794330000016690194620007938445_"  style="overflow:visible;"/>
				</clipPath>
				<g style="clip-path:url(#SVGID_00000072260184348058586480000014156008417115791766_);">
					<path class="st38" d="M127.4,86.7l-17.3,2.8L89,83.8c0,0-10.2-2.6-9.7-3.7s1.4-8.5,1.9-8.8s12.4-9,12.8-8.9s11.1-6.8,11.1-6.8
						l5.7-0.6l12.8,11l5.6,10.1L127.4,86.7z"/>
					<path class="st39" d="M109.1,68.6l-6.4,8.4l-2.1-1.6L109.1,68.6z"/>
					<path class="st40" d="M99.1,63.7l2.7-2.5c0,0.7-0.1,1.5-0.2,2.2c-0.2,1.2-1.6,7-1.6,7s-4.3,5.7-5,6.1S88,81,88,81l-5.4-2
						c-0.2-1.1-0.3-2.2-0.4-3.4c0.2-0.2,1.7-2.8,1.7-2.8l4.6-1.4L99.1,63.7z"/>
				</g>
			</g>
			<path class="st27" d="M102.6,62c0,0-0.2-1.4-0.6-1.1c-0.4,0.5-0.7,1-0.9,1.6v1l1.8-1.4L102.6,62z"/>
			<polygon class="st26" points="135.3,85 134.6,84.1 135.5,94.8 136,100.6 136.9,100.4 			"/>
			<g>
				<defs>
					<path id="SVGID_00000084504222425608819680000007831958655911129263_" d="M106.5,56.3l-5.2,3.8l0.4,1.6c-1.2,1.8-2.5,3.5-4,5.1
						c-3.1,3.5-6.7,8.7-6.7,8.7l-6.2-2.2l-1.2,4.8c0-0.9,5.9,3.8,7.7,4s11.5-7.7,11.5-7.7c0.9,1.7,2,3.2,3.2,4.7
						c1.6,1.7,4.8,9.5,4.8,9.5s0,2.6-0.1,3.2c0,0.3,0,0.6-0.1,0.9c0,0-12.4-2.5-16-3.4c-5.2-1.4-10.3-0.8-11.9,3.4
						c-1.2,3.2-4.9,17.6-4.9,17.6s-1.3,4.4-2.2,9.3c0,0.3,1.2,0.3,1.2,0.6c-1,5.4-2.1,11-2.1,11s1.5,0.3,4,0.7
						c1.2,0.2,2.4,0.3,3.7,0.3c0,0,2.8-8.3,4.1-12.5s3.7-12.3,3.7-12.3h32.6c0,0,5.5-0.4,5.8-6.6s-4.6-25.4-7.9-31.1
						s-9.5-10.1-10.6-10.8c-1.1-0.8-2.1-1.7-3-2.7L106.5,56.3z"/>
				</defs>
				<clipPath id="SVGID_00000001640438523049325170000013535553011371576497_">
					<use xlink:href="#SVGID_00000084504222425608819680000007831958655911129263_"  style="overflow:visible;"/>
				</clipPath>
				<g style="clip-path:url(#SVGID_00000001640438523049325170000013535553011371576497_);">
					<path class="st42" d="M89.2,97.3c0,0-3.7-1.9-5.7,0.4s-6.6,23-6.6,23s-2.5,0.9-2.1-2.3c0.9-7.6,5.1-23.5,5.1-23.5
						s2.9-6.8,4.4-7s0.6,2.9,0.6,4C84.8,95.5,89.2,97.3,89.2,97.3z"/>
					<path class="st42" d="M116.4,107.1c0,0-11.7-3.4-15.7-4.8c-4.2-1.6-8.3-3.4-12.3-5.5c0,0,13.6,9.5,14.9,10s8.4,1.2,8.4,1.2
						L116.4,107.1z"/>
					<path class="st43" d="M110.6,92.6c1.4,0.2,2.7,0.5,4,0.9c1.2,0.5,4.5,1.4,4.5,1.4s-1.5-2.1-2.6-2.3s-6.1-0.6-6.1-0.6
						L110.6,92.6z"/>
					<path class="st27" d="M127.8,88.2l-17.4,2.1l-0.4,1.5l17.8-2.1L127.8,88.2z"/>
					<path class="st34" d="M114.2,89.3l0.1,2.4h-1.1l-0.1-2.4L114.2,89.3z"/>
				</g>
			</g>
			<polygon class="st26" points="121.7,111.7 105.1,111.7 105.1,111.4 121.7,111.4 			"/>
			<path class="st38" d="M111.8,65.6c0.8-2.7-1.3-7.1-4.2-6.7s-13,11.3-14.3,12.9s-4.8,2.9-4.8,2.9c-1.4-0.4-2.9,0.4-3.2,1.8
				c0,0.1,0,0.2-0.1,0.3c-0.4,1.9-0.3,3.9,0.6,5.6c0,0,6.6,0.6,8.4-0.2s7.8-6.4,10.5-9.1C107,70.8,111,68.3,111.8,65.6z"/>
			<g>
				<defs>
					<path id="SVGID_00000089561089062071850390000002569629399409163179_" d="M111.8,65.6c0.8-2.7-1.3-7.1-4.2-6.7
						s-13,11.3-14.3,12.9s-4.8,2.9-4.8,2.9c-1.4-0.4-2.9,0.4-3.2,1.8c0,0.1,0,0.2-0.1,0.3c-0.4,1.9-0.3,3.9,0.6,5.6
						c0,0,6.6,0.6,8.4-0.2s7.8-6.4,10.5-9.1C107,70.8,111,68.3,111.8,65.6z"/>
				</defs>
				<clipPath id="SVGID_00000021834545802591766820000010893842441351322014_">
					<use xlink:href="#SVGID_00000089561089062071850390000002569629399409163179_"  style="overflow:visible;"/>
				</clipPath>
				<g style="clip-path:url(#SVGID_00000021834545802591766820000010893842441351322014_);">
					<path class="st45" d="M111.4,59.3l-4.7-1l-5.8,3.7l-9.7,8l-3.7,2.5l-1.7,1.4l1.8,2.1l4.1-1.4c0,0,5.4-5.8,8.6-9
						c4.3-4.4,5.7-6.8,10-6.7L111.4,59.3z"/>
				</g>
			</g>
			<g>
				<defs>
					<path id="SVGID_00000060739428287157230020000010045901165949628033_" d="M107.7,54.7c1.4-0.5,2.5-1.5,3.2-2.9
						c0.1-0.4,0.2-0.8,0.3-1.2c0.1-0.5,0.1-1.1,0.1-1.6c0-0.4,0-0.9-0.2-1.3c-0.4-0.6-1-1.2-1.7-1.6c-2.2-1.6-6.7-1.7-7.5-1
						c-0.3,0.3-0.5,0.8-0.6,1.2l-1,0.9c-0.7,0.6-1.1,0.7-1.1,1.1c0.1,0.6,0.2,1.2,0.2,1.7c-0.1,0.1-0.4,0.2-0.9,0.5
						c-0.6,0.5-1.2,1-1.8,1.5c-0.2,0.3-0.5,0.4-0.1,0.7s0.9,0.6,0.9,0.6c0,0.5,0,0.9-0.1,1.4c-0.2,0.4-0.5,0.8-0.8,1.2
						c-0.6,0.6-0.6,1.6,0.1,2.2c0,0,0.1,0.1,0.1,0.1c1.1,1,3.9,0.7,5.1,0s2.1-1.9,1.9-2.5c-0.2-0.9-0.2-1.9-0.1-2.9
						c0,0,2.7,2.1,3.1,2.5L107.7,54.7z"/>
				</defs>
				<clipPath id="SVGID_00000041291582243799460420000001650635760910010496_">
					<use xlink:href="#SVGID_00000060739428287157230020000010045901165949628033_"  style="overflow:visible;"/>
				</clipPath>
				<g style="clip-path:url(#SVGID_00000041291582243799460420000001650635760910010496_);">
					<path class="st47" d="M103.7,52.2c0,0,0-1-0.2-2.3s0.2-2.6-0.8-3.2s-1.4,0.3-1.5-0.4s2.8-2.7,2.8-2.7s11.3,2.1,11.5,2.9
						s0.7,4.7,0.7,5.1s-4.2,5.2-4.2,5.2l-5.4-1.3l-0.7-0.9l-0.2-1.4c0,0,0.4,0.2,0.7-0.9c0.6-2-1.6-1.6-2-0.8S103.7,52.2,103.7,52.2
						z"/>
					<path class="st48" d="M101,56.5c0.7-0.6,1.3-1.2,1.9-1.9c1.1-1.3,1.7-6.4,1.7-6.4l-1.7-1.8c-0.4,0.5-1.9,2-1.6,3s0,1.2,0,1.2
						c-0.3,0.3-0.5,0.7-0.6,1.2c0.2,0.5,0.4,1.1,0.4,1.7C101.2,54.7,100.8,56.5,101,56.5z"/>
					<path class="st49" d="M97.3,53.7c0.2-0.2,0.5-0.3,0.8-0.4c0.3,0,1-0.4,1.5,0.3s1.4,1,1.7,0.5s2.3-2.1,2.3-2.1l0.4,0.5
						c-0.2,0.8-0.2,1.6-0.1,2.4c0.2,0.8,0.5,1.5-0.4,2.3s-2,2.2-4.5,1.9s-5.4-0.5-5.4-0.8c0.7-1.2,1.5-2.4,2.3-3.5L97.3,53.7z"/>
					<path class="st47" d="M101,57.5c-1.4,0.3-3.6,1-4.2,0.1c-0.4-0.5-0.4-1.3,0-1.8l-0.9,1.4l1.2,1.4c0,0,1.5,0.4,1.6,0.4
						c0.8,0.2,1.6,0.2,2.3-0.1c1.2-0.4,2.3-0.9,3.3-1.6l0.2-2l-0.2-1.3l-0.2-1.6l-0.2-0.4c0,0-0.4,1.9-0.5,2.8"/>
					<path class="st49" d="M103.4,49.9c1.6,0.5,3.3,0.9,5,1.2c0.9,0.1,1.8,0.3,2.6,0.5c-0.3,0.8-0.6,1.6-0.9,2.4
						c-0.7,0.7-1.6,1.3-2.5,1.8l-1.4-0.4c-0.5-0.5-1-1-1.4-1.5c-0.4-0.6-1.2-1.8-1.2-1.8L103.4,49.9z"/>
				</g>
			</g>
			<path class="st31" d="M103.9,50.7c0,0,2.1-1.1,2.2,0s-0.2,1.2-1.3,1.9c-0.3,0.2-0.6,0.3-0.9,0.4c-0.1-0.4-0.1-0.9-0.1-1.3
				C103.9,51.3,103.9,51,103.9,50.7z"/>
			<path class="st33" d="M104.1,51.3c0,0,1.3-0.9,1.6-0.6s-1,0.7-1,0.7s0.5,0,0.4,0.2c-0.2,0.4-1.1,0.6-1,0.3L104.1,51.3z"/>
			<path class="st50" d="M99.8,47.9c0,0-0.5,0.1-0.5,0.3c0,0.2,0,0.4,0.1,0.6c0.4-0.1,0.9-0.1,1.3,0c0.4,0.3,0.7,0.6,1,0.9
				c-0.1-0.5-0.3-1-0.6-1.4C100.7,48.1,100.3,47.9,99.8,47.9z"/>
			<path class="st51" d="M100.2,49.9c-0.2,0.1-0.5,0.1-0.8,0.1c-0.1,0,0.8,0.3,0.8,0.3l1.1,0.2c-0.1-0.2-0.3-0.3-0.4-0.4
				C100.7,50,100.5,49.9,100.2,49.9z"/>
			<path class="st24" d="M128.6,112.2l-0.9-0.8h-7.3l-0.3,0.9c0.6,0.3,1.3,0.4,2,0.5C122.6,112.8,128.6,112.2,128.6,112.2z"/>
			<path class="st52" d="M50.5,57.3l2.2,2.2c0.9,0.6,2.1,1,4.3-0.6s8.1-6.8,9.5-7.3c1.3-0.4,2.6-0.5,3.9-0.3
				c1.1,0.2,2.3,0.4,3.4,0.5c0.4,0,1.2-0.4,0.8-0.4s-1.9-0.4-1.9-0.4s2.7,0.4,3.1-0.2s0.4-1.1-0.6-1.2c-0.7-0.1-1.5-0.4-2.1-0.8
				c0,0,2.8,0.1,3-0.2s-0.4-0.5-1.2-0.6s-2.1-0.1-2.7-0.2c-0.3,0-0.7-0.1-1-0.2c0.2-0.3,0.5-0.6,0.9-0.6c0.6-0.2,1-0.7,1.1-1.3
				c0-0.2-0.4,0-0.9,0.2c-1,0.2-2.1,0.4-3.1,0.5c-1.5,0.3-1.9,1.3-2.7,1.9c-0.5,0.4-6.7,3.3-11.9,5.7l-1.5-1.7"/>
			<polygon class="st53" points="53.2,52.3 43.9,40 41.5,48.6 50.5,57.3 			"/>
			<g>
				<defs>
					<path id="SVGID_00000071552100823372351010000010974538126753807503_" d="M44.2,51.3c-0.1-0.1-1.2,1.6-2.6,2.1
						c-1.3,0.5-2.7,0.7-4.1,0.6c-0.7,0-1.7,1.1-2.1,1.4s-2.2,1.6-4.2,3.3s-5.5,4.1-5.5,5.7c0,1.6,8,46.1,11.1,57.4s4.7,15.3,7.6,17
						s5.5,2.6,5.9,3.2c0.2,0.3,0.3,0.6,0.3,1c0,0-7.1,0.2-8.7,0c-1.1,0-2.1-0.5-2.8-1.4c-0.2-0.3-0.5-0.6-0.7-0.9l-0.3,1.9l-1.7-0.3
						c0,0-0.3-1.6-0.7-3.4c-0.2-1.4-0.2-2.9-0.1-4.3c0-1-0.1-0.8-0.1-0.8l-2.4-0.2c0,0-3.6-9.6-5.2-14.7c-1.7-5.4-7-20.6-8.5-25.6
						s-3.9-16.7-3.9-16.7s-1.3,5.6-1.1,17.6s0.6,42.2,0.6,42.2l-0.6,0.1c0.3,1.2,0.4,2.4,0.4,3.6c-0.2,1.4-0.3,4.1-0.3,4.1l-0.5,0.3
						l-0.5-0.7c0,0,0.5,0.5-1,0.9s-7.3,0.2-7.3,0.2c0.2-1.1,0.8-2.1,1.5-2.9c1-0.9,1.7-2.1,2.1-3.4c0.1-0.5,0.3-1.3,0.3-1.3l-1-0.8
						c0,0-0.3-12.2-1.5-20.6C4.2,99.1-1.5,75,4,63.4c3.1-6.5,11.5-11,13.8-14c3.6-4.7,5.9-9.8,9.3-12.3s5.2-1.9,6.9-1.9
						c4.5-0.1,8.9,1.6,12.3,9.1"/>
				</defs>
				<clipPath id="SVGID_00000139972345531628836730000017632188951859560859_">
					<use xlink:href="#SVGID_00000071552100823372351010000010974538126753807503_"  style="overflow:visible;"/>
				</clipPath>
				<g style="clip-path:url(#SVGID_00000139972345531628836730000017632188951859560859_);">
					<path class="st55" d="M45.5,132.1l-15.7,0.2l-22,1.2c0,0-5.6,6.4-5.6,7s-0.3,7-0.3,7l52.3-1.3l-4.3-8.8L45.5,132.1z"/>
					<path class="st34" d="M37.6,110.1l5.5,18.9l-1.8,5.1l-10.2-0.5l-14.2,2.5l-11.9,2c0,0-1.9-13.1-1.7-14.4S0.1,83.7,0.2,82.2
						s2.7-20.7,2.7-20.7l8.8-8.3l17.3,7.5l0.7,10.4l5.7,31.6L37.6,110.1z"/>
					<path class="st56" d="M47.9,63.2l6.4-0.5l0.5,1.2l-6.5,1L47.9,63.2z"/>
					<path class="st28" d="M54.7,63.1L47.3,64l-0.9-3l-2.3-7.9l-3.7,2l-5.9,3.2l-6.6,3.1c0,0-1.1,2.5-5.8,1.5
						c-11.5-2.4-11.6-8-11.6-8l2.4-2.8l7.2-8.4l7.2-8.4l5.4-3l10,1l4.8,4.2c0,0,3.7,7.7,3.8,8.5S54.7,63.1,54.7,63.1z"/>
					
						<radialGradient id="SVGID_00000068654926148606150950000015208916483564750255_" cx="-2876.0508" cy="-944.298" r="6.0055" gradientTransform="matrix(3.24 -0.22 -0.13 -1.9 9234.0049 -2368.6877)" gradientUnits="userSpaceOnUse">
						<stop  offset="0" style="stop-color:#DEC9E1"/>
						<stop  offset="1" style="stop-color:#FFFFFF"/>
					</radialGradient>
					<path style="fill:url(#SVGID_00000068654926148606150950000015208916483564750255_);" d="M49.3,56.9c0.6,8.6-10.6,8.1-25.4,8.2
						C13,65.3,7.8,59.2,8.7,50.7c0.2-2.1,5-6.9,12.8-7.5C36.3,41.8,48.7,48.3,49.3,56.9z"/>
					<path class="st58" d="M26.7,43.2l-0.1,20.2l2.3-1.6l0.5-8.6L26.7,43.2z"/>
					<path class="st59" d="M29.6,51c0,0,2.4-3,5.5-2.7c4.4,0.5,4.7,2.4,5.2,2.3s1.8-1.1,3-1c1.4,0.1,0.7,1.8,0.7,1.8
						c-0.1,0.8-0.5,1.5-1.1,2c-1.7,1.3-3.5,2.4-5.4,3.3l-4.3,4.7l-3.4,0.5L29.6,51z"/>
					<path class="st27" d="M26.4,64c-1.7,0.5-3.4,0.6-5.2,0.4c-3.5-0.6-8.5-2.4-9.8-4.9s-1.7-3.2-1.7-3.2l-1,1.1
						c0.4,2.6,2,4.9,4.3,6.2c3.4,1.8,7.2,2.7,11,2.4c2.1-0.3,2-0.6,2-0.6L26.4,64z"/>
					<path class="st34" d="M13.7,64.7l1.7-2.2l1.4,0.5l-1.5,2.4L13.7,64.7z"/>
					<path class="st34" d="M24.6,64.2l-1.5,2h1.2l1.4-2.2L24.6,64.2z"/>
					<path class="st60" d="M15.5,78.3c0,0,0-4,1.3-5.1s2.3-0.9,5.2-2.9c3.9-2.6,4.5-3.8,4.5-3.8l3,14.8l4.9,21.1l4.2,24.5
						c0,0,2.7,6,2.8,6.2c0.1,0.6,0.1,1.2,0.1,1.8l-8.7-0.8c-0.2,0-4-8-4-8l-7.5-26.8L15.5,78.3z"/>
					<path class="st27" d="M15.7,76.7c0-0.9,0.2-1.9,0.5-2.7c0.6-0.8,1.5-1.3,2.4-1.7c0,0,0.5,8.5,1.3,16.4
						c0.4,4.1,0.5,8.2,0.4,12.3L15.7,76.7z"/>
				</g>
			</g>
			<g>
				<defs>
					<path id="SVGID_00000124154516809993568360000012661360163045269144_" d="M32,78c0,0,2.1-28.5,1.9-33.3s0-10-4.3-8.8
						c-2.6,0.7-3.8,2.4-2.4,12.4c1.2,8.6,1.3,28.4,1.1,29s-0.4,1.1-1.7,1.1c-1-0.1-1.9,0.1-2.8,0.6c-0.7,0.6-1.3,1.2-1.9,1.8V81h9
						c0,0,1.4,0,1.5-0.7C32.4,79.5,32.3,78.7,32,78z"/>
				</defs>
				<clipPath id="SVGID_00000047036433315791926940000015778943171091880637_">
					<use xlink:href="#SVGID_00000124154516809993568360000012661360163045269144_"  style="overflow:visible;"/>
				</clipPath>
				<g style="clip-path:url(#SVGID_00000047036433315791926940000015778943171091880637_);">
					<path class="st62" d="M27.5,64l6.2,0.7v1.1l-6.1,0.1L27.5,64z"/>
					<rect x="16.1" y="35.4" class="st52" width="26.9" height="52.1"/>
					<path class="st28" d="M33.9,65.2l-6.3-0.4l-2-19l0.4-7.9l3.1-3c1.3,0,2.7,0.1,4,0.3c0.5,0.3,2.5,10.4,2.5,10.4l-1,14.2
						L33.9,65.2z"/>
				</g>
			</g>
			<path class="st53" d="M26.6,43.1c-0.2-3.1,0.1-5.1,1.1-6.3c0.8-0.8,1.9-1.3,3-1.2c2.7-0.2,3,3.7,3,3.7h-0.2c0,0-0.3-3.7-2.8-3.6
				c-1.1,0-2.1,0.4-2.9,1.2c-0.9,1.1-1.3,3.1-1,6.1L26.6,43.1z"/>
			<path class="st63" d="M44.9,26.7c0.6,1.1,1,2.2,1.3,3.4c0.1,1-0.4,1.9-0.2,2.2c0.2,0.3,0.2,0.7,0.2,1c0,0.6-0.2,1.2-0.4,1.8
				c-0.3,0.8-1.9,3.1-2.7,3.2c-1,0-1-0.2-1.3-0.1v-0.1c0-0.1-0.1-0.2,0.1,0.4c0.6,1.5,0.7,3.2,0.5,4.8c-0.5,2.2-1.1,4.3-1.9,6.3
				c-0.8-3.3-1.9-6.5-3.2-9.6c-0.6-1.3-2.6-4.9-2.6-4.9C35,35,35.5,35,35.9,35c0.4,0.1,0.8,0,1.2-0.3l0.5-0.4l-0.1-0.2l-0.2-0.5
				c0,0-2-1.8-0.8-3.2c0.8-1,1.6,1,1.6,1s2.8-1.3,4.8-2.4C43.7,28.4,44.4,27.6,44.9,26.7z"/>
			<path class="st64" d="M44.4,34.4c0,0,0.1,0.2-0.4,0.2c-0.4,0-0.8-0.1-1.2-0.2c0,0,0.5,1,1.3,1C44.9,35.4,44.4,34.4,44.4,34.4z"/>
			<g>
				<defs>
					<path id="SVGID_00000044897639570378587020000002611814864233027762_" d="M44.9,26.7c0.6,1.1,1,2.2,1.3,3.4
						c0.1,1-0.4,1.9-0.2,2.2c0.2,0.3,0.2,0.7,0.2,1c0,0.6-0.2,1.2-0.4,1.8c-0.3,0.8-1.9,3.1-2.7,3.2c-1,0-1-0.2-1.3-0.1v-0.1
						c0-0.1-0.1-0.2,0.1,0.4c0.6,1.5,0.7,3.2,0.5,4.8c-0.5,2.2-1.1,4.3-1.9,6.3c-0.8-3.3-1.9-6.5-3.2-9.6c-0.6-1.3-2.6-4.9-2.6-4.9
						C35,35,35.5,35,35.9,35c0.4,0.1,0.8,0,1.2-0.3l0.5-0.4l-0.1-0.2l-0.2-0.5c0,0-2-1.8-0.8-3.2c0.8-1,1.6,1,1.6,1s2.8-1.3,4.8-2.4
						C43.7,28.4,44.4,27.6,44.9,26.7z"/>
				</defs>
				<clipPath id="SVGID_00000013872397464151931050000006108927037735643794_">
					<use xlink:href="#SVGID_00000044897639570378587020000002611814864233027762_"  style="overflow:visible;"/>
				</clipPath>
				<g style="clip-path:url(#SVGID_00000013872397464151931050000006108927037735643794_);">
					<path class="st66" d="M34.3,34.2c0,0,1.7,1.8,4.1,7.8c0.9,2.1,1.5,4.3,1.9,6.5c0.6-1.6,1.1-3.2,1.5-4.8
						c0.3-1.9,0.3-3.8-0.1-5.7l1.2,3.3l-0.7,3.9l-0.9,3.6l-1.8,1.5l-1.2-5.5l-3.5-7.1l-1.7-3L34.3,34.2z"/>
					<path class="st67" d="M37.5,34.1c0.6,1,1.3,1.8,2.2,2.5c0.6,0.4,1.1,0.8,1.7,1.2c0.2,0.2,0.4,0.4,0.5,0.7
						c0.7,1.7,2.2,6.4,2,6.9s-4.9,6.4-5.3,6.1c-0.9-0.7-5.6-16.6-5.7-17.1S37.5,34.1,37.5,34.1z"/>
					<path class="st68" d="M37.5,34.1c0.6,1,1.3,1.8,2.2,2.5c0.6,0.4,1.1,0.8,1.7,1.2c-0.1,0.5-0.2,1-0.4,1.5
						c-0.3,0.5-1.5,0.2-1.9-0.1c-0.8-0.8-1.3-1.7-1.5-2.8C37.5,35.7,37.5,34.9,37.5,34.1z"/>
					<path class="st69" d="M46.5,30c0,0-0.2,0.8-0.8,1c-0.7,0.2-1.3,0.8-1.4,1.5c0,0.1-0.1,1.9-0.1,1.9l-0.4,0.1l-0.4,1.2
						c0,0,8.3,1.8,5.1-4.6C48.1,30.4,47.3,30,46.5,30z"/>
					<path class="st70" d="M40.7,28c0,0-0.3,1.6,0.6,2c0,0-0.8,0.7-0.7,1c0.2,0.5,0.3,0.9,0.3,1.4c0,0.5-0.3,1.5-0.3,2.2
						s0.5,2.2,2.8,3.9c0,0-0.3,0.3-1.1-0.1c-0.3-0.1-0.8-0.6-1.2-0.8c-1.3-0.8-2.5-1.8-3.3-3.1c0,0,0.4-4.3,1.1-4.8S40.5,28,40.7,28
						z"/>
				</g>
			</g>
			<path class="st71" d="M37.7,32.2c0,0-0.2-1.4-0.5-1.4s-0.3,0.3-0.3,0.6s0.5,0.6,0.5,0.6s-0.6-0.5-0.5,0c0.2,0.4,0.5,0.8,0.8,1
				L37.7,32.2z"/>
			<path class="st72" d="M42.8,30.5c0,0,0.2,0.3,0.1,0.6c-0.1,0.2-0.3,0.3-0.5,0.2c0,0-0.1,0-0.1-0.1c-0.5-0.3-1.1-0.5-1.6-0.6
				c-0.4,0-0.8,0.1-1.1,0.2c0,0,0.7-0.7,1.2-0.7C41.4,30.2,42.1,30.3,42.8,30.5z"/>
			<path class="st72" d="M46.4,31c0,0,0.1-0.7-0.7-0.6c-0.3,0.1-0.9,0.3-0.9,0.6s0,0.6,0.2,0.5c0.2-0.1,0.4-0.3,0.7-0.4
				c0.1-0.1,0.2-0.2,0.4-0.3S46.4,31,46.4,31z"/>
			<path class="st28" d="M44.7,35.3c-0.5,0.1-1,0.1-1.5,0.1c-0.7,0-1.3-0.1-2-0.2c0,0,1.2,1.3,2.1,1.2S44.7,35.3,44.7,35.3z"/>
			<path class="st73" d="M44.7,35.3c0,0,0.2-0.1-0.4-0.2s-2.1,0.1-2.4,0c-0.2,0-0.5,0-0.7,0c0,0-0.1,0.2,0.2,0.2
				c0.9,0.1,1.8,0.2,2.8,0.2C44.4,35.6,44.6,35.5,44.7,35.3z"/>
			<path class="st73" d="M44.7,35.3c0,0-0.4,0.8-1.1,0.8c-0.5,0-1.1-0.1-1.5-0.4c-0.3-0.2-0.7-0.5-0.7-0.5s0.5,1.5,1.6,1.5
				c0.7,0.1,1.1,0,1.4-0.5C44.5,36,44.6,35.7,44.7,35.3z"/>
			<path class="st74" d="M45.8,32.1c0,0-0.1,0-0.6,0.1s-0.5,0-0.7,0.1c0.2,0.2,0.4,0.3,0.7,0.3c0.4,0,0.8,0,1.2-0.1L45.8,32.1z"/>
			<path class="st74" d="M42.1,31.8c-0.2,0-0.4,0-0.6,0c-0.2-0.1-0.4-0.1-0.7-0.1l-0.7-0.1c0.2,0.2,0.5,0.4,0.7,0.5
				c0.5,0.1,1.1,0.2,1.6,0.2L42.1,31.8z"/>
			<g class="st15">
				
					<linearGradient id="SVGID_00000000194373600943533070000012979368796382265765_" gradientUnits="userSpaceOnUse" x1="64.52" y1="11.54" x2="64.52" y2="79.52" gradientTransform="matrix(1 0 0 -1 0 136)">
					<stop  offset="0" style="stop-color:#BD03AD"/>
					<stop  offset="1" style="stop-color:#250254"/>
				</linearGradient>
				
					<rect x="22.8" y="84.8" style="fill:url(#SVGID_00000000194373600943533070000012979368796382265765_);" width="83.5" height="61.1"/>
			</g>
			<g>
				<rect x="22.8" y="83.2" class="st17" width="83.5" height="6.2"/>
			</g>
			<rect x="19.4" y="81" class="st18" width="90.3" height="3.8"/>
		</g>
	</g>
	<circle class="st76" cx="67.3" cy="67.3" r="63.9"/>
</g>
</svg>
