<svg xmlns="http://www.w3.org/2000/svg" xmlns:xlink="http://www.w3.org/1999/xlink" width="130.7" height="130.7" viewBox="0 0 130.7 130.7"><defs><linearGradient id="a" x1="1.4" y1="1013.3" x2="129.2" y2="1013.3" gradientTransform="translate(0 -948)" gradientUnits="userSpaceOnUse"><stop offset="0" stop-color="#3d026e"/><stop offset="1" stop-color="#aa02bc"/></linearGradient></defs><circle cx="65.3" cy="65.3" r="63.9" stroke="#fff" stroke-miterlimit="10" stroke-width="2.93" fill="url(#a)"/><rect x="24.6" y="57.8" width="20.5" height="14.8" fill="none" stroke="#fff" stroke-linecap="round" stroke-linejoin="round" stroke-width="1.36"/><g style="isolation:isolate"><path d="M59.5,61.6c0-1.3-.5-1.7-1.2-1.7s-1.2.4-1.2,1.4v.9H54.9v-.8c0-2.3,1.2-3.7,3.4-3.7s3.4,1.3,3.4,3.7v.4c0,1.6-.5,2.6-1.6,3,1.2.5,1.6,1.6,1.6,3.1v1.2c0,2.3-1.2,3.7-3.4,3.7s-3.4-1.3-3.4-3.7V67.9h2.2v1.4c0,1,.5,1.4,1.2,1.4s1.2-.4,1.2-1.7V67.8c0-1.4-.5-1.9-1.5-1.9h-.8V64h.9c.9,0,1.4-.4,1.4-1.5Z" fill="#f600f9"/><path d="M63.2,64.3h4.2v2.1H63.2Z" fill="#f600f9"/><path d="M68.4,67.9,72.6,58h2.5v9.9h1.1V70H75.1v2.7H72.8V70H68.4Zm4.5,0V62.4l-2.3,5.5Z" fill="#f600f9"/></g><g style="isolation:isolate"><path d="M92.4,72.7a5.25,5.25,0,0,1-.2-1.8V68.6c0-1.4-.5-1.9-1.5-1.9h-.8v6H87.6V58H91c2.4,0,3.4,1.1,3.4,3.4v1.2a3,3,0,0,1-1.5,3c1.2.5,1.5,1.6,1.5,3.1V71a3.61,3.61,0,0,0,.3,1.8H92.4ZM89.9,60.1v4.5h.9c.9,0,1.4-.4,1.4-1.5V61.7q0-1.5-1.2-1.5H89.9Z" fill="#f600f9"/><path d="M95.8,61.5c0-2.3,1.2-3.7,3.5-3.7s3.5,1.3,3.5,3.7v7.6c0,2.3-1.2,3.7-3.5,3.7s-3.5-1.3-3.5-3.7Zm2.3,7.8c0,1,.5,1.4,1.2,1.4s1.2-.4,1.2-1.4V61.4c0-1-.5-1.4-1.2-1.4s-1.2.4-1.2,1.4Z" fill="#f600f9"/><path d="M104.3,58h2.3V72.6h-2.3Z" fill="#f600f9"/></g><g style="isolation:isolate"><path d="M82.2,65l-1.3,3.7,1.3,3.9H81l-1-3-1,3H77.9l1.3-3.9L78,65h1.2l.9,2.8L81,65Z" fill="#f600f9"/></g><g style="isolation:isolate"><path d="M36.2,61.3v-.6h1v.6c.9.2,1.3.8,1.3,1.9v.2H37.4v-.3c0-.5-.2-.8-.6-.8s-.6.2-.6.8c0,1.6,2.3,1.6,2.3,3.8a1.7,1.7,0,0,1-1.3,1.9v.6h-1v-.6c-.9-.2-1.3-.8-1.3-1.9v-.5H36V67c0,.5.2.7.6.7s.6-.2.6-.7c0-1.6-2.3-1.6-2.3-3.8A1.7,1.7,0,0,1,36.2,61.3Z" fill="#f600f9"/></g><g style="isolation:isolate"><path d="M97.6,83.9v-.6h1v.6c.9.2,1.3.8,1.3,1.9V86H98.8v-.3c0-.5-.2-.8-.6-.8s-.6.2-.6.8c0,1.6,2.3,1.6,2.3,3.8a1.7,1.7,0,0,1-1.3,1.9V92h-1v-.6c-.9-.2-1.3-.8-1.3-1.9V89h1.1v.6c0,.5.2.7.6.7s.6-.2.6-.7c0-1.6-2.3-1.6-2.3-3.8C96.4,84.7,96.8,84.1,97.6,83.9Z" fill="#f600f9"/></g><line x1="24.6" y1="50" x2="24.6" y2="103" fill="none" stroke="#fff" stroke-linecap="round" stroke-linejoin="round" stroke-width="1.36"/><rect x="24.8" y="80.4" width="81.3" height="14.8" fill="none" stroke="#fff" stroke-linecap="round" stroke-linejoin="round" stroke-width="1.36"/><path d="M26.9,28.2h1.21V31H31V28.2h1.22v6.5H31V31.94H28.11V34.7H26.9Z" fill="#fff"/><path d="M33.77,28.2H35v6.5H33.77Z" fill="#fff"/><path d="M36.2,31.49v-.07a3.15,3.15,0,0,1,3.24-3.32,2.51,2.51,0,0,1,2.81,2.19H41a1.41,1.41,0,0,0-1.58-1.24c-1.27,0-2,.95-2,2.38v.07c0,1.39.65,2.34,2,2.34a1.58,1.58,0,0,0,1.76-1.63H39.58V31.3h2.83v.6a2.71,2.71,0,0,1-3,2.89A3,3,0,0,1,36.2,31.49Z" fill="#fff"/><path d="M43.57,28.2h1.21V31H47.7V28.2h1.22v6.5H47.7V31.94H44.78V34.7H43.57Z" fill="#fff"/><path d="M50.4,28.2h4.07v.95H51.61v1.78H53.9v.91H51.61v1.9h3v1H50.4Z" fill="#fff"/><path d="M55.71,28.2H57.9c1.43,0,2.43.58,2.43,1.91v0a1.72,1.72,0,0,1-1.45,1.75l1.83,2.81H59.4l-1.7-2.63h-.78V34.7H55.71Zm2.19,3c.81,0,1.23-.35,1.23-1v0c0-.74-.46-1-1.23-1h-1v2.08Z" fill="#fff"/><path d="M63.84,28.2H66c1.43,0,2.43.58,2.43,1.91v0A1.72,1.72,0,0,1,67,31.89l1.83,2.81H67.52l-1.7-2.63h-.77V34.7H63.84Zm2.18,3c.81,0,1.24-.35,1.24-1v0c0-.74-.47-1-1.24-1h-1v2.08Z" fill="#fff"/><path d="M69.79,28.2h4.07v.95H71v1.78h2.29v.91H71v1.9h3v1H69.79Z" fill="#fff"/><path d="M74.57,28.2h1.26l1.69,5.27,1.7-5.27h1.14l-2.2,6.5h-1.4Z" fill="#fff"/><path d="M81.32,28.2h4.06v.95H82.53v1.78h2.29v.91H82.53v1.9h3v1H81.32Z" fill="#fff"/><path d="M86.63,28.2h1.44l2.74,4.7V28.2h1.1v6.5H90.66l-2.93-5v5h-1.1Z" fill="#fff"/><path d="M93.35,32.23v-4h1.22v3.94c0,1.19.38,1.68,1.34,1.68s1.41-.42,1.41-1.77V28.2h1.22v3.95a2.37,2.37,0,0,1-2.64,2.64A2.31,2.31,0,0,1,93.35,32.23Z" fill="#fff"/><path d="M100,28.2H104v.95h-2.85v1.78h2.29v.91h-2.29v1.9h3v1H100Z" fill="#fff"/></svg>