<svg xmlns="http://www.w3.org/2000/svg" xmlns:xlink="http://www.w3.org/1999/xlink" width="130.7" height="130.7" viewBox="0 0 130.7 130.7"><defs><linearGradient id="a" x1="65.3" y1="1077.2" x2="65.3" y2="949.4" gradientTransform="translate(0 -948)" gradientUnits="userSpaceOnUse"><stop offset="0" stop-color="#3d026e"/><stop offset="1" stop-color="#aa02bc"/></linearGradient></defs><circle cx="65.3" cy="65.3" r="63.9" stroke="#fff" stroke-miterlimit="10" stroke-width="2.93" fill="url(#a)"/><path d="M50.87,28H49.06v-1H53.9v1H52.09v5.55H50.87Z" fill="#fff"/><path d="M55.91,27.07h1.58l2.15,6.51H58.38L57.87,32H55.38l-.51,1.61H53.74Zm-.24,4h1.91l-.95-3Z" fill="#fff"/><path d="M60.63,27.07h1.21v5.54h2.77v1h-4Z" fill="#fff"/><path d="M65.64,27.07h4.07v1H66.85v1.78h2.29v.91H66.85v1.9h3v1H65.64Z" fill="#fff"/><path d="M71,27.07H72.4l2.74,4.71V27.07h1.1v6.51H75l-2.93-5v5H71Z" fill="#fff"/><path d="M79,28H77.22v-1h4.84v1H80.25v5.55H79Z" fill="#fff"/><path d="M15.44,37.53H19.5v1H16.65v1.78h2.29v.91H16.65v1.9h3v1H15.44Z" fill="#fff"/><path d="M20.75,37.53H22.2l2.73,4.7v-4.7H26V44H24.78l-2.93-5v5h-1.1Z" fill="#fff"/><path d="M27.2,40.82v-.07a3.15,3.15,0,0,1,3.24-3.32,2.51,2.51,0,0,1,2.81,2.19H32a1.41,1.41,0,0,0-1.58-1.23c-1.27,0-2,.94-2,2.37v.07c0,1.4.65,2.35,2,2.35a1.59,1.59,0,0,0,1.76-1.64H30.58v-.91h2.83v.6a2.71,2.71,0,0,1-3,2.9A3.06,3.06,0,0,1,27.2,40.82Z" fill="#fff"/><path d="M35.88,37.53h1.58L39.61,44H38.36l-.52-1.62H35.36L34.85,44H33.71Zm-.24,4h1.92l-1-3Z" fill="#fff"/><path d="M39.91,40.82v-.07a3.16,3.16,0,0,1,3.25-3.32A2.51,2.51,0,0,1,46,39.62H44.75a1.41,1.41,0,0,0-1.57-1.23c-1.28,0-2,.94-2,2.37v.07c0,1.4.64,2.35,2,2.35a1.58,1.58,0,0,0,1.75-1.64H43.29v-.91h2.83v.6a2.71,2.71,0,0,1-3,2.9A3.07,3.07,0,0,1,39.91,40.82Z" fill="#fff"/><path d="M47.29,37.53h4.06v1H48.5v1.78h2.29v.91H48.5v1.9h3v1H47.29Z" fill="#fff"/><path d="M52.6,37.53h1.62L55.93,42l1.67-4.44h1.6V44H58V39.12L56.05,44h-.39l-2-4.92V44H52.6Z" fill="#fff"/><path d="M60.69,37.53h4.07v1H61.9v1.78h2.29v.91H61.9v1.9h3v1H60.69Z" fill="#fff"/><path d="M66,37.53h1.45l2.74,4.7v-4.7h1.1V44H70l-2.93-5v5H66Z" fill="#fff"/><path d="M74.08,38.49H72.27v-1h4.84v1H75.3V44H74.08Z" fill="#fff"/><path d="M79.85,42H81c.08.65.35,1.2,1.45,1.2.71,0,1.22-.4,1.22-1s-.3-.83-1.35-1C80.77,41,80,40.53,80,39.32a2,2,0,0,1,2.26-1.87c1.4,0,2.24.64,2.37,1.88H83.56c-.12-.68-.51-1-1.26-1s-1.12.35-1.12.85.22.8,1.35,1c1.53.21,2.32.65,2.32,1.95a2.15,2.15,0,0,1-2.39,2C80.68,44.13,79.94,43.24,79.85,42Z" fill="#fff"/><path d="M85.65,40.82v-.07a3.13,3.13,0,0,1,3.15-3.32,2.51,2.51,0,0,1,2.8,2.28H90.37a1.39,1.39,0,0,0-1.56-1.31c-1.14,0-1.89.89-1.89,2.34v.08c0,1.46.7,2.32,1.9,2.32a1.52,1.52,0,0,0,1.67-1.37h1.18a2.59,2.59,0,0,1-2.85,2.36A3,3,0,0,1,85.65,40.82Z" fill="#fff"/><path d="M92.39,40.82v-.07a3.19,3.19,0,0,1,3.29-3.31A3.14,3.14,0,0,1,99,40.72v.08a3.28,3.28,0,1,1-6.56,0Zm5.31,0v-.08a2.06,2.06,0,0,0-2-2.32c-1.27,0-2,.93-2,2.33v.08a2.1,2.1,0,0,0,2,2.33C96.93,43.15,97.7,42.22,97.7,40.81Z" fill="#fff"/><path d="M100.12,37.53h2.18c1.43,0,2.43.58,2.43,1.91v0a1.7,1.7,0,0,1-1.45,1.74L105.11,44H103.8l-1.7-2.63h-.77V44h-1.21Zm2.18,3c.81,0,1.24-.34,1.24-1v0c0-.75-.47-1-1.24-1h-1v2.07Z" fill="#fff"/><path d="M106.08,37.53h4.06v1h-2.85v1.78h2.29v.91h-2.29v1.9h3v1h-4.22Z" fill="#fff"/><path d="M111,42h1.16c.08.65.35,1.2,1.45,1.2.72,0,1.23-.4,1.23-1s-.31-.83-1.36-1c-1.55-.21-2.29-.69-2.29-1.9a2,2,0,0,1,2.26-1.87c1.4,0,2.24.64,2.37,1.88H114.7c-.12-.68-.51-1-1.26-1s-1.12.35-1.12.85.22.8,1.35,1c1.53.21,2.32.65,2.32,1.95a2.15,2.15,0,0,1-2.39,2C111.82,44.13,111.08,43.24,111,42Z" fill="#fff"/><path d="M32.54,85.47h1.54v9.8H32.54Z" fill="#f0f"/><path d="M35.23,85.47h1.93l1.5,5.87h0V85.47h1.37v9.8H38.48l-1.85-7.15h0v7.15H35.23Z" fill="#f0f"/><path d="M41.69,94.78A2.5,2.5,0,0,1,41.11,93V87.74A2.53,2.53,0,0,1,41.69,86a2.19,2.19,0,0,1,1.69-.63,2.15,2.15,0,0,1,1.68.63,2.53,2.53,0,0,1,.59,1.78v1H44.19V87.64c0-.6-.26-.91-.77-.91s-.77.31-.77.91v5.48c0,.6.26.89.77.89s.77-.29.77-.89v-1.5h1.46V93a2.51,2.51,0,0,1-.59,1.77,2.12,2.12,0,0,1-1.68.64A2.16,2.16,0,0,1,41.69,94.78Z" fill="#f0f"/><path d="M46.57,85.47h2.28a2.38,2.38,0,0,1,1.74.56,2.34,2.34,0,0,1,.54,1.7v.6c0,1-.33,1.66-1,1.93v0a1.2,1.2,0,0,1,.8.69,3.47,3.47,0,0,1,.23,1.38v1.72c0,.28,0,.51,0,.68a1.5,1.5,0,0,0,.15.51H49.75a1.93,1.93,0,0,1-.12-.44c0-.14,0-.4,0-.76V92.28a1.49,1.49,0,0,0-.22-.94.9.9,0,0,0-.75-.27h-.53v4.2H46.57Zm2.1,4.2a.9.9,0,0,0,.69-.23,1.11,1.11,0,0,0,.23-.8v-.76a1.23,1.23,0,0,0-.19-.77.69.69,0,0,0-.59-.23h-.7v2.79Z" fill="#f0f"/><path d="M52.21,85.47h4.2v1.41H53.75v2.58h2.12v1.4H53.75v3h2.66v1.39h-4.2Z" fill="#f0f"/><path d="M58.48,85.47h2.09l1.6,9.8H60.62l-.28-1.94v0H58.59l-.28,1.91H56.89ZM60.16,92l-.68-4.85h0L58.78,92Z" fill="#f0f"/><path d="M63.17,94.78A2.67,2.67,0,0,1,62.6,93v-.56h1.45v.67c0,.64.27,1,.8,1a.75.75,0,0,0,.6-.23,1.14,1.14,0,0,0,.2-.75A2,2,0,0,0,65.37,92a5.24,5.24,0,0,0-1-1.13A6.35,6.35,0,0,1,63,89.3a3.09,3.09,0,0,1-.37-1.53,2.58,2.58,0,0,1,.58-1.8,2.25,2.25,0,0,1,1.71-.64A2.16,2.16,0,0,1,66.6,86a2.72,2.72,0,0,1,.56,1.83v.41H65.71V87.7a1.1,1.1,0,0,0-.2-.73.69.69,0,0,0-.57-.24c-.52,0-.77.32-.77.94a1.87,1.87,0,0,0,.28,1,5.91,5.91,0,0,0,1,1.12,6.1,6.1,0,0,1,1.33,1.52,3.44,3.44,0,0,1,.36,1.61,2.65,2.65,0,0,1-.59,1.85,2.25,2.25,0,0,1-1.73.65A2.2,2.2,0,0,1,63.17,94.78Z" fill="#f0f"/><path d="M68.07,85.47h4.2v1.41H69.61v2.58h2.12v1.4H69.61v3h2.66v1.39h-4.2Z" fill="#f0f"/><path d="M75.93,94.78A2.58,2.58,0,0,1,75.34,93V85.47h1.54v7.59a1.1,1.1,0,0,0,.2.73.75.75,0,0,0,.58.22.73.73,0,0,0,.58-.22,1,1,0,0,0,.21-.73V85.47h1.48V93a2.63,2.63,0,0,1-.59,1.83,2.59,2.59,0,0,1-3.41,0Z" fill="#f0f"/><path d="M81,85.47h2.27a2.23,2.23,0,0,1,1.72.62,2.57,2.57,0,0,1,.58,1.81v1A2.57,2.57,0,0,1,85,90.67a2.23,2.23,0,0,1-1.72.61h-.73v4H81Zm2.27,4.41a.74.74,0,0,0,.57-.21,1.08,1.08,0,0,0,.19-.71V87.8a1.11,1.11,0,0,0-.19-.72.74.74,0,0,0-.57-.2h-.73v3Z" fill="#f0f"/><path d="M89.87,86.88H88.26V85.47H93v1.41H91.41v8.39H89.87Z" fill="#f0f"/><path d="M94.2,94.77A2.54,2.54,0,0,1,93.59,93V87.8A2.52,2.52,0,0,1,94.2,86a2.64,2.64,0,0,1,3.47,0,2.56,2.56,0,0,1,.6,1.82V93a2.58,2.58,0,0,1-.6,1.82,2.64,2.64,0,0,1-3.47,0Zm2.53-1.72V87.7c0-.64-.27-1-.8-1s-.8.33-.8,1v5.35c0,.64.27,1,.8,1S96.73,93.69,96.73,93.05Z" fill="#f0f"/><path d="M51,109.08l4.18-9.9H57.7v9.9h1.09v2.09H57.7v2.65H55.44v-2.65H51Zm4.43,0v-5.51l-2.32,5.51Z" fill="#f0f"/><path d="M59.64,102.69c0-2.34,1.24-3.68,3.5-3.68s3.49,1.34,3.49,3.68v7.62c0,2.34-1.23,3.68-3.49,3.68s-3.5-1.34-3.5-3.68ZM62,110.46c0,1,.46,1.44,1.19,1.44s1.19-.4,1.19-1.44v-7.91c0-1-.46-1.45-1.19-1.45s-1.19.4-1.19,1.45Z" fill="#f0f"/><path d="M68,101.42a2.22,2.22,0,1,1,4.44,0v4.81a2.22,2.22,0,1,1-4.44,0Zm1.47,4.91c0,.65.27.92.75.92s.75-.27.75-.92v-5c0-.64-.29-.92-.75-.92s-.75.28-.75.92ZM76,99.18h1.36l-5.77,14.64H70.21Zm-.73,7.59a2.22,2.22,0,1,1,4.43,0v4.82a2.22,2.22,0,1,1-4.43,0Zm1.46,4.92c0,.65.28.92.76.92s.75-.27.75-.92v-5c0-.65-.29-.92-.75-.92s-.76.27-.76.92Z" fill="#f0f"/><polygon points="15.84 53.14 17.09 57.02 21.17 57.02 17.87 59.41 19.13 63.29 15.84 60.89 12.54 63.29 13.8 59.41 10.5 57.02 14.58 57.02 15.84 53.14" fill="#f0f"/><polygon points="32.34 53.14 33.6 57.02 37.67 57.02 34.38 59.41 35.64 63.29 32.34 60.89 29.04 63.29 30.3 59.41 27.01 57.02 31.08 57.02 32.34 53.14" fill="#f0f"/><polygon points="48.84 53.14 50.1 57.02 54.18 57.02 50.88 59.41 52.14 63.29 48.84 60.89 45.55 63.29 46.81 59.41 43.51 57.02 47.59 57.02 48.84 53.14" fill="#f0f"/><polygon points="65.35 53.14 66.61 57.02 70.68 57.02 67.39 59.41 68.65 63.29 65.35 60.89 62.05 63.29 63.31 59.41 60.02 57.02 64.09 57.02 65.35 53.14" fill="#f0f"/><polygon points="81.86 53.14 83.11 57.02 87.19 57.02 83.89 59.41 85.15 63.29 81.86 60.89 78.56 63.29 79.82 59.41 76.52 57.02 80.6 57.02 81.86 53.14" fill="#f0f"/><polygon points="98.36 53.14 99.62 57.02 103.69 57.02 100.4 59.41 101.66 63.29 98.36 60.89 95.06 63.29 96.32 59.41 93.03 57.02 97.1 57.02 98.36 53.14" fill="#f0f"/><polygon points="114.86 53.14 116.12 57.02 120.2 57.02 116.9 59.41 118.16 63.29 114.86 60.89 111.57 63.29 112.83 59.41 109.53 57.02 113.61 57.02 114.86 53.14" fill="#f0f"/><polygon points="15.84 67.4 17.09 71.27 21.17 71.27 17.87 73.67 19.13 77.55 15.84 75.15 12.54 77.55 13.8 73.67 10.5 71.27 14.58 71.27 15.84 67.4" fill="#f0f"/><polygon points="32.34 67.4 33.6 71.27 37.67 71.27 34.38 73.67 35.64 77.55 32.34 75.15 29.04 77.55 30.3 73.67 27.01 71.27 31.08 71.27 32.34 67.4" fill="#f0f"/><polygon points="48.84 67.4 50.1 71.27 54.18 71.27 50.88 73.67 52.14 77.55 48.84 75.15 45.55 77.55 46.81 73.67 43.51 71.27 47.59 71.27 48.84 67.4" fill="#f0f"/><polygon points="65.35 67.4 66.61 71.27 70.68 71.27 67.39 73.67 68.65 77.55 65.35 75.15 62.05 77.55 63.31 73.67 60.02 71.27 64.09 71.27 65.35 67.4" fill="#fff"/><polygon points="81.86 67.4 83.11 71.27 87.19 71.27 83.89 73.67 85.15 77.55 81.86 75.15 78.56 77.55 79.82 73.67 76.52 71.27 80.6 71.27 81.86 67.4" fill="#fff"/><polygon points="98.36 67.4 99.62 71.27 103.69 71.27 100.4 73.67 101.66 77.55 98.36 75.15 95.06 77.55 96.32 73.67 93.03 71.27 97.1 71.27 98.36 67.4" fill="#fff"/><polygon points="114.86 67.4 116.12 71.27 120.2 71.27 116.9 73.67 118.16 77.55 114.86 75.15 111.57 77.55 112.83 73.67 109.53 71.27 113.61 71.27 114.86 67.4" fill="#fff"/></svg>