<svg xmlns="http://www.w3.org/2000/svg" xmlns:xlink="http://www.w3.org/1999/xlink" width="130.7" height="130.7" viewBox="0 0 130.7 130.7"><defs><linearGradient id="a" x1="65.27" y1="129.2" x2="65.27" y2="1.46" gradientUnits="userSpaceOnUse"><stop offset="0" stop-color="#440073"/><stop offset="1" stop-color="#ba00c2"/></linearGradient></defs><circle cx="65.27" cy="65.33" r="63.87" stroke="#fff" stroke-miterlimit="10" stroke-width="2.93" fill="url(#a)"/><path d="M47.51,16.06H45.32V14.91h5.86v1.15H49v6.71H47.51Z" fill="#fff"/><path d="M53.61,14.91h1.91l2.6,7.86H56.6L56,20.83H53l-.62,1.94H51Zm-.3,4.85h2.32l-1.15-3.65Z" fill="#fff"/><path d="M59.32,14.91h1.46v6.7h3.36v1.16H59.32Z" fill="#fff"/><path d="M65.38,14.91h4.91v1.15H66.84v2.16h2.77v1.1H66.84v2.3h3.64v1.15h-5.1Z" fill="#fff"/><path d="M71.8,14.91h1.75l3.31,5.69V14.91h1.33v7.86H76.67l-3.54-6v6H71.8Z" fill="#fff"/><path d="M81.57,16.06H79.38V14.91h5.85v1.15H83v6.71H81.57Z" fill="#fff"/><path d="M28.29,26.91h4.92v1.15H29.75v2.16h2.78v1.1H29.75v2.3H33.4v1.15H28.29Z" fill="#fff"/><path d="M34.72,26.91h1.74l3.32,5.69V26.91h1.33v7.86H39.59l-3.54-6v6H34.72Z" fill="#fff"/><path d="M42.51,30.89V30.8a3.82,3.82,0,0,1,3.93-4c1.69,0,3.18.77,3.39,2.65H48.37a1.71,1.71,0,0,0-1.91-1.5c-1.54,0-2.43,1.15-2.43,2.87v.09c0,1.68.78,2.84,2.43,2.84a1.92,1.92,0,0,0,2.13-2h-2v-1.1H50v.72a3.28,3.28,0,0,1-3.59,3.5A3.7,3.7,0,0,1,42.51,30.89Z" fill="#fff"/><path d="M53,26.91h1.91l2.6,7.86H56l-.62-1.94h-3l-.61,1.94H50.39Zm-.3,4.85H55l-1.15-3.65Z" fill="#fff"/><path d="M57.89,30.89V30.8a3.82,3.82,0,0,1,3.93-4c1.68,0,3.18.77,3.39,2.65H63.75a1.71,1.71,0,0,0-1.91-1.5c-1.54,0-2.43,1.15-2.43,2.87v.09c0,1.68.78,2.84,2.43,2.84a1.92,1.92,0,0,0,2.13-2H62v-1.1h3.43v.72a3.28,3.28,0,0,1-3.59,3.5A3.7,3.7,0,0,1,57.89,30.89Z" fill="#fff"/><path d="M66.81,26.91h4.92v1.15H68.28v2.16h2.77v1.1H68.28v2.3h3.64v1.15H66.81Z" fill="#fff"/><path d="M73.24,26.91h2l2.06,5.37,2-5.37h1.93v7.86H79.76V28.83l-2.34,5.94H77l-2.39-5.94v5.94H73.24Z" fill="#fff"/><path d="M83,26.91H88v1.15H84.49v2.16h2.77v1.1H84.49v2.3h3.64v1.15H83Z" fill="#fff"/><path d="M89.45,26.91H91.2l3.31,5.69V26.91h1.33v7.86H94.32l-3.54-6v6H89.45Z" fill="#fff"/><path d="M99.22,28.06H97V26.91h5.85v1.15h-2.19v6.71H99.22Z" fill="#fff"/><path d="M43.37,44.33h1.4c.1.79.42,1.45,1.75,1.45.87,0,1.49-.48,1.49-1.21s-.36-1-1.64-1.21c-1.88-.25-2.77-.82-2.77-2.3,0-1.28,1.1-2.25,2.74-2.25s2.7.77,2.86,2.28H47.85c-.14-.83-.61-1.18-1.51-1.18s-1.36.43-1.36,1,.27,1,1.63,1.16c1.85.25,2.81.78,2.81,2.35,0,1.37-1.16,2.43-2.9,2.43C44.38,46.88,43.48,45.82,43.37,44.33Z" fill="#fff"/><path d="M50.38,42.89V42.8a3.78,3.78,0,0,1,3.82-4c1.81,0,3.2.9,3.38,2.75H56.09A1.68,1.68,0,0,0,54.21,40c-1.38,0-2.29,1.08-2.29,2.84v.09c0,1.77.85,2.82,2.3,2.82a1.85,1.85,0,0,0,2-1.67h1.43a3.13,3.13,0,0,1-3.45,2.85C51.76,46.88,50.38,45.31,50.38,42.89Z" fill="#fff"/><path d="M58.54,42.89V42.8a3.86,3.86,0,0,1,4-4,3.8,3.8,0,0,1,4,4v.09a4,4,0,1,1-7.94,0Zm6.42,0v-.09c0-1.62-.9-2.82-2.44-2.82s-2.46,1.14-2.46,2.83v.09a2.54,2.54,0,0,0,2.48,2.83C64,45.71,65,44.57,65,42.87Z" fill="#fff"/><path d="M67.89,38.91h2.64c1.72,0,2.93.7,2.93,2.31v0a2.07,2.07,0,0,1-1.75,2.11l2.22,3.4H72.34l-2-3.18h-.94v3.18H67.89Zm2.64,3.64c1,0,1.49-.42,1.49-1.26v0c0-.9-.56-1.21-1.49-1.21H69.35v2.51Z" fill="#fff"/><path d="M75.09,38.91H80v1.15H76.55v2.16h2.78v1.1H76.55v2.3H80.2v1.15H75.09Z" fill="#fff"/><path d="M81,44.33h1.41c.1.79.42,1.45,1.75,1.45.87,0,1.48-.48,1.48-1.21s-.36-1-1.63-1.21c-1.89-.25-2.78-.82-2.78-2.3,0-1.28,1.1-2.25,2.74-2.25s2.71.77,2.86,2.28H85.52c-.14-.83-.62-1.18-1.52-1.18s-1.35.43-1.35,1,.26,1,1.63,1.16c1.84.25,2.8.78,2.8,2.35,0,1.37-1.15,2.43-2.89,2.43C82,46.88,81.14,45.82,81,44.33Z" fill="#fff"/><path d="M37.15,87.07h1.32v8.4H37.15Z" fill="#fff"/><path d="M39.46,87.07h1.65l1.28,5h0v-5h1.17v8.4H42.24l-1.58-6.13h0v6.13H39.46Z" fill="#fff"/><path d="M45,95.05a2.17,2.17,0,0,1-.49-1.52V89A2.18,2.18,0,0,1,45,87.49,1.89,1.89,0,0,1,46.44,87a1.86,1.86,0,0,1,1.44.54,2.14,2.14,0,0,1,.5,1.53v.88H47.13v-1c0-.52-.21-.78-.66-.78s-.66.26-.66.78v4.69c0,.52.23.77.66.77s.66-.25.66-.77V92.34h1.25v1.19a2.13,2.13,0,0,1-.5,1.52,1.86,1.86,0,0,1-1.44.54A1.89,1.89,0,0,1,45,95.05Z" fill="#fff"/><path d="M49.17,87.07h2a1.7,1.7,0,0,1,2,1.93v.52a1.59,1.59,0,0,1-.87,1.66v0a1,1,0,0,1,.68.59A3,3,0,0,1,53.1,93v1.47c0,.24,0,.44,0,.58a1.69,1.69,0,0,0,.12.44H51.9a2,2,0,0,1-.1-.38c0-.12,0-.34,0-.65V92.9a1.25,1.25,0,0,0-.19-.8.79.79,0,0,0-.64-.23h-.46v3.6H49.17Zm1.8,3.6a.82.82,0,0,0,.6-.2,1,1,0,0,0,.2-.69v-.64a1,1,0,0,0-.17-.66.58.58,0,0,0-.51-.21h-.6v2.4Z" fill="#fff"/><path d="M54,87.07h3.6v1.2H55.33v2.22h1.81v1.2H55.33v2.58h2.28v1.2H54Z" fill="#fff"/><path d="M59.39,87.07h1.78l1.37,8.4H61.22L61,93.8v0h-1.5l-.24,1.64H58Zm1.44,5.62-.59-4.15h0l-.57,4.15Z" fill="#fff"/><path d="M63.41,95.05a2.28,2.28,0,0,1-.5-1.57V93h1.25v.58q0,.81.69.81a.63.63,0,0,0,.51-.2,1,1,0,0,0,.17-.64,1.79,1.79,0,0,0-.24-.93,4.32,4.32,0,0,0-.89-1,5.47,5.47,0,0,1-1.14-1.31A2.67,2.67,0,0,1,62.94,89a2.21,2.21,0,0,1,.5-1.54A1.89,1.89,0,0,1,64.91,87a1.79,1.79,0,0,1,1.43.55,2.28,2.28,0,0,1,.49,1.56v.35H65.58V89a1,1,0,0,0-.17-.63.62.62,0,0,0-.49-.2q-.66,0-.66.81a1.63,1.63,0,0,0,.24.85,5.26,5.26,0,0,0,.9,1,4.89,4.89,0,0,1,1.14,1.31,2.87,2.87,0,0,1,.31,1.38A2.26,2.26,0,0,1,66.34,95a1.9,1.9,0,0,1-1.48.55A1.85,1.85,0,0,1,63.41,95.05Z" fill="#fff"/><path d="M67.61,87.07h3.6v1.2H68.93v2.22h1.81v1.2H68.93v2.58h2.28v1.2h-3.6Z" fill="#fff"/><path d="M74.34,95.05a2.23,2.23,0,0,1-.51-1.57V87.07h1.32v6.51a.9.9,0,0,0,.18.62.62.62,0,0,0,.5.19.61.61,0,0,0,.49-.19.9.9,0,0,0,.18-.62V87.07h1.27v6.41a2.28,2.28,0,0,1-.5,1.57,1.93,1.93,0,0,1-1.47.54A1.89,1.89,0,0,1,74.34,95.05Z" fill="#fff"/><path d="M78.71,87.07h1.94a1.94,1.94,0,0,1,1.48.53,2.23,2.23,0,0,1,.49,1.55V90a2.21,2.21,0,0,1-.49,1.54,1.9,1.9,0,0,1-1.48.53H80v3.42H78.71Zm1.94,3.78a.63.63,0,0,0,.49-.18,1,1,0,0,0,.16-.61v-1a1,1,0,0,0-.16-.61.63.63,0,0,0-.49-.18H80v2.58Z" fill="#fff"/><path d="M86.29,88.27H84.91v-1.2H89v1.2H87.61v7.2H86.29Z" fill="#fff"/><path d="M90,95a2.18,2.18,0,0,1-.52-1.56V89.06A2.18,2.18,0,0,1,90,87.5a2.28,2.28,0,0,1,3,0,2.18,2.18,0,0,1,.52,1.56v4.42A2.18,2.18,0,0,1,93,95a2.28,2.28,0,0,1-3,0Zm2.17-1.48V89c0-.55-.23-.83-.68-.83s-.69.28-.69.83v4.58c0,.56.23.83.69.83S92.17,94.12,92.17,93.56Z" fill="#fff"/><path d="M50.72,109.27l4.19-9.89h2.51v9.89h1.09v2.1H57.42V114H55.16v-2.65H50.72Zm4.44,0v-5.5l-2.32,5.5Z" fill="#fff"/><path d="M59.36,102.89c0-2.34,1.24-3.68,3.5-3.68s3.49,1.34,3.49,3.68v7.62c0,2.34-1.23,3.68-3.49,3.68s-3.5-1.34-3.5-3.68Zm2.3,7.76c0,1,.46,1.45,1.2,1.45s1.19-.4,1.19-1.45v-7.9c0-1-.46-1.45-1.19-1.45s-1.2.4-1.2,1.45Z" fill="#fff"/><path d="M67.71,101.62a2.22,2.22,0,1,1,4.43,0v4.81a2.22,2.22,0,1,1-4.43,0Zm1.46,4.91c0,.65.28.92.76.92s.75-.27.75-.92v-5c0-.65-.29-.92-.75-.92s-.76.27-.76.92Zm6.53-7.15h1.36L71.29,114H69.93ZM75,107a2.22,2.22,0,1,1,4.43,0v4.81a2.22,2.22,0,1,1-4.43,0Zm1.46,4.92c0,.65.28.92.76.92s.75-.27.75-.92v-5c0-.65-.29-.92-.75-.92s-.76.27-.76.92Z" fill="#fff"/><polygon points="15.55 53.34 16.81 57.21 20.89 57.21 17.59 59.61 18.85 63.48 15.55 61.09 12.26 63.48 13.52 59.61 10.22 57.21 14.29 57.21 15.55 53.34" fill="#f0f"/><polygon points="32.06 53.34 33.32 57.21 37.39 57.21 34.1 59.61 35.35 63.48 32.06 61.09 28.76 63.48 30.02 59.61 26.72 57.21 30.8 57.21 32.06 53.34" fill="#f0f"/><polygon points="48.56 53.34 49.82 57.21 53.9 57.21 50.6 59.61 51.86 63.48 48.56 61.09 45.27 63.48 46.53 59.61 43.23 57.21 47.3 57.21 48.56 53.34" fill="#f0f"/><polygon points="65.07 53.34 66.33 57.21 70.4 57.21 67.11 59.61 68.36 63.48 65.07 61.09 61.77 63.48 63.03 59.61 59.73 57.21 63.81 57.21 65.07 53.34" fill="#f0f"/><polygon points="81.57 53.34 82.83 57.21 86.91 57.21 83.61 59.61 84.87 63.48 81.57 61.09 78.28 63.48 79.54 59.61 76.24 57.21 80.31 57.21 81.57 53.34" fill="#f0f"/><polygon points="98.08 53.34 99.34 57.21 103.41 57.21 100.12 59.61 101.38 63.48 98.08 61.09 94.78 63.48 96.04 59.61 92.74 57.21 96.82 57.21 98.08 53.34" fill="#f0f"/><polygon points="114.58 53.34 115.84 57.21 119.92 57.21 116.62 59.61 117.88 63.48 114.58 61.09 111.29 63.48 112.55 59.61 109.25 57.21 113.32 57.21 114.58 53.34" fill="#f0f"/><polygon points="15.55 67.6 16.81 71.47 20.89 71.47 17.59 73.87 18.85 77.74 15.55 75.35 12.26 77.74 13.52 73.87 10.22 71.47 14.29 71.47 15.55 67.6" fill="#f0f"/><polygon points="32.06 67.6 33.32 71.47 37.39 71.47 34.1 73.87 35.35 77.74 32.06 75.35 28.76 77.74 30.02 73.87 26.72 71.47 30.8 71.47 32.06 67.6" fill="#f0f"/><polygon points="48.56 67.6 49.82 71.47 53.9 71.47 50.6 73.87 51.86 77.74 48.56 75.35 45.27 77.74 46.53 73.87 43.23 71.47 47.3 71.47 48.56 67.6" fill="#f0f"/><polygon points="65.07 67.6 66.33 71.47 70.4 71.47 67.11 73.87 68.36 77.74 65.07 75.35 61.77 77.74 63.03 73.87 59.73 71.47 63.81 71.47 65.07 67.6" fill="#fff"/><polygon points="81.57 67.6 82.83 71.47 86.91 71.47 83.61 73.87 84.87 77.74 81.57 75.35 78.28 77.74 79.54 73.87 76.24 71.47 80.31 71.47 81.57 67.6" fill="#fff"/><polygon points="98.08 67.6 99.34 71.47 103.41 71.47 100.12 73.87 101.38 77.74 98.08 75.35 94.78 77.74 96.04 73.87 92.74 71.47 96.82 71.47 98.08 67.6" fill="#fff"/><polygon points="114.58 67.6 115.84 71.47 119.92 71.47 116.62 73.87 117.88 77.74 114.58 75.35 111.29 77.74 112.55 73.87 109.25 71.47 113.32 71.47 114.58 67.6" fill="#fff"/></svg>