<?xml version="1.0" encoding="utf-8"?>
<!-- Generator: Adobe Illustrator 25.4.1, SVG Export Plug-In . SVG Version: 6.00 Build 0)  -->
<svg version="1.1" id="Layer_1" xmlns="http://www.w3.org/2000/svg" xmlns:xlink="http://www.w3.org/1999/xlink" x="0px" y="0px"
	 viewBox="0 0 130.7 130.7" style="enable-background:new 0 0 130.7 130.7;" xml:space="preserve">
<style type="text/css">
	.st0{fill:url(#SVGID_1_);stroke:#FFFFFF;stroke-width:2.93;stroke-miterlimit:10;}
	.st1{fill:none;stroke:#FFFFFF;stroke-width:1.36;stroke-linecap:round;stroke-linejoin:round;}
	.st2{enable-background:new    ;}
	.st3{fill:#FFFFFF;}
	.st4{fill:#F600F9;}
</style>
<linearGradient id="SVGID_1_" gradientUnits="userSpaceOnUse" x1="1.47" y1="66.66" x2="129.21" y2="66.66" gradientTransform="matrix(1 0 0 -1 0 132)">
	<stop  offset="0" style="stop-color:#3D026E"/>
	<stop  offset="1" style="stop-color:#AA02BC"/>
</linearGradient>
<circle class="st0" cx="65.3" cy="65.3" r="63.9"/>
<rect x="24.6" y="57.8" class="st1" width="20.5" height="14.8"/>
<g class="st2">
	<path class="st3" d="M27.4,28.2h0.8v2.9h3.4v-2.9h0.8v6.5h-0.8v-2.9h-3.4v2.9h-0.8V28.2z"/>
	<path class="st3" d="M34.1,28.2h0.8v6.5h-0.8V28.2z"/>
	<path class="st3" d="M36.3,31.5L36.3,31.5c0-2,1.3-3.4,3.1-3.4c1.3,0,2.4,0.6,2.6,2.1h-0.8c-0.2-1-0.9-1.4-1.8-1.4
		c-1.5,0-2.3,1.1-2.3,2.7v0.1c0,1.6,0.8,2.7,2.3,2.7c1.4,0,2-0.9,2-2.1h-1.9v-0.7h2.7v0.5c0,1.9-1.2,2.9-2.8,2.9
		C37.4,34.8,36.3,33.4,36.3,31.5z"/>
	<path class="st3" d="M43.5,28.2h0.8v2.9h3.4v-2.9h0.8v6.5h-0.8v-2.9h-3.4v2.9h-0.8V28.2z"/>
	<path class="st3" d="M50.2,28.2H54v0.6h-3V31h2.4v0.6H51V34h3.2v0.6h-4V28.2z"/>
	<path class="st3" d="M55.3,28.2h2c1.2,0,2.3,0.5,2.3,1.8v0c0,1.1-0.7,1.6-1.6,1.8l2,2.9h-0.9l-1.9-2.8h-1v2.8h-0.8V28.2z
		 M57.3,31.2c0.9,0,1.4-0.4,1.4-1.2v0c0-0.9-0.5-1.2-1.4-1.2h-1.2v2.4H57.3z"/>
	<path class="st3" d="M63.4,28.2h2c1.2,0,2.3,0.5,2.3,1.8v0c0,1.1-0.7,1.6-1.6,1.8l2,2.9h-0.9l-1.9-2.8h-1v2.8h-0.8V28.2z
		 M65.5,31.2c0.9,0,1.4-0.4,1.4-1.2v0c0-0.9-0.5-1.2-1.4-1.2h-1.2v2.4H65.5z"/>
	<path class="st3" d="M69.2,28.2h3.8v0.6h-3V31h2.4v0.6h-2.4V34h3.2v0.6h-4V28.2z"/>
	<path class="st3" d="M73.7,28.2h0.8l1.9,5.7l1.9-5.7h0.7l-2.2,6.5H76L73.7,28.2z"/>
	<path class="st3" d="M80.2,28.2H84v0.6h-3V31h2.4v0.6H81V34h3.2v0.6h-4V28.2z"/>
	<path class="st3" d="M85.4,28.2h1l3.2,5.4v-5.4h0.8v6.5h-0.9l-3.3-5.6v5.6h-0.8V28.2z"/>
	<path class="st3" d="M91.9,32.3v-4.1h0.8v4c0,1.4,0.5,1.9,1.6,1.9c1,0,1.7-0.4,1.7-2v-3.9h0.8v4c0,1.6-0.8,2.6-2.5,2.6
		C92.8,34.8,91.9,33.9,91.9,32.3z"/>
	<path class="st3" d="M98.3,28.2h3.8v0.6h-3V31h2.4v0.6h-2.4V34h3.2v0.6h-4V28.2z"/>
</g>
<g class="st2">
	<path class="st4" d="M59.5,61.6c0-1.3-0.5-1.7-1.2-1.7c-0.7,0-1.2,0.4-1.2,1.4v0.9h-2.2v-0.8c0-2.3,1.2-3.7,3.4-3.7
		s3.4,1.3,3.4,3.7v0.4c0,1.6-0.5,2.6-1.6,3c1.2,0.5,1.6,1.6,1.6,3.1v1.2c0,2.3-1.2,3.7-3.4,3.7s-3.4-1.3-3.4-3.7v-1.2h2.2v1.4
		c0,1,0.5,1.4,1.2,1.4c0.7,0,1.2-0.4,1.2-1.7v-1.2c0-1.4-0.5-1.9-1.5-1.9h-0.8V64h0.9c0.9,0,1.4-0.4,1.4-1.5V61.6z"/>
	<path class="st4" d="M63.2,64.3h4.2v2.1h-4.2V64.3z"/>
	<path class="st4" d="M68.4,67.9l4.2-9.9h2.5v9.9h1.1V70h-1.1v2.7h-2.3V70h-4.4V67.9z M72.9,67.9v-5.5l-2.3,5.5H72.9z"/>
</g>
<g class="st2">
	<path class="st4" d="M92.4,72.7c-0.1-0.4-0.2-0.6-0.2-1.8v-2.3c0-1.4-0.5-1.9-1.5-1.9h-0.8v6h-2.3V58H91c2.4,0,3.4,1.1,3.4,3.4v1.2
		c0,1.5-0.5,2.5-1.5,3c1.2,0.5,1.5,1.6,1.5,3.1v2.3c0,0.7,0,1.2,0.3,1.8H92.4z M89.9,60.1v4.5h0.9c0.9,0,1.4-0.4,1.4-1.5v-1.4
		c0-1-0.4-1.5-1.2-1.5H89.9z"/>
	<path class="st4" d="M95.8,61.5c0-2.3,1.2-3.7,3.5-3.7c2.3,0,3.5,1.3,3.5,3.7v7.6c0,2.3-1.2,3.7-3.5,3.7c-2.3,0-3.5-1.3-3.5-3.7
		V61.5z M98.1,69.3c0,1,0.5,1.4,1.2,1.4c0.7,0,1.2-0.4,1.2-1.4v-7.9c0-1-0.5-1.4-1.2-1.4c-0.7,0-1.2,0.4-1.2,1.4V69.3z"/>
	<path class="st4" d="M104.3,58h2.3v14.6h-2.3V58z"/>
</g>
<g class="st2">
	<path class="st4" d="M82.2,65l-1.3,3.7l1.3,3.9H81l-1-3l-1,3h-1.1l1.3-3.9L78,65h1.2l0.9,2.8L81,65H82.2z"/>
</g>
<g class="st2">
	<path class="st4" d="M36.2,61.3v-0.6h1v0.6c0.9,0.2,1.3,0.8,1.3,1.9v0.2h-1.1v-0.3c0-0.5-0.2-0.8-0.6-0.8s-0.6,0.2-0.6,0.8
		c0,1.6,2.3,1.6,2.3,3.8c0,1-0.4,1.7-1.3,1.9v0.6h-1v-0.6c-0.9-0.2-1.3-0.8-1.3-1.9v-0.5H36V67c0,0.5,0.2,0.7,0.6,0.7
		s0.6-0.2,0.6-0.7c0-1.6-2.3-1.6-2.3-3.8C34.9,62.2,35.3,61.5,36.2,61.3z"/>
</g>
<g class="st2">
	<path class="st4" d="M97.6,83.9v-0.6h1v0.6c0.9,0.2,1.3,0.8,1.3,1.9V86h-1.1v-0.3c0-0.5-0.2-0.8-0.6-0.8s-0.6,0.2-0.6,0.8
		c0,1.6,2.3,1.6,2.3,3.8c0,1-0.4,1.7-1.3,1.9v0.6h-1v-0.6c-0.9-0.2-1.3-0.8-1.3-1.9V89h1.1v0.6c0,0.5,0.2,0.7,0.6,0.7
		s0.6-0.2,0.6-0.7c0-1.6-2.3-1.6-2.3-3.8C96.4,84.7,96.8,84.1,97.6,83.9z"/>
</g>
<line class="st1" x1="24.6" y1="50" x2="24.6" y2="103"/>
<rect x="24.8" y="80.4" class="st1" width="81.3" height="14.8"/>
</svg>
