<svg xmlns="http://www.w3.org/2000/svg" xmlns:xlink="http://www.w3.org/1999/xlink" width="130.7" height="130.7" viewBox="0 0 130.7 130.7"><defs><linearGradient id="a" x1="1.4" y1="1013.3" x2="129.2" y2="1013.3" gradientTransform="translate(0 -948)" gradientUnits="userSpaceOnUse"><stop offset="0" stop-color="#3d026e"/><stop offset="1" stop-color="#aa02bc"/></linearGradient></defs><circle cx="65.3" cy="65.3" r="63.9" stroke="#fff" stroke-miterlimit="10" stroke-width="2.93" fill="url(#a)"/><path d="M34.71,26.7v-.07a3.13,3.13,0,0,1,3.15-3.32,2.5,2.5,0,0,1,2.79,2.27H39.43a1.4,1.4,0,0,0-1.56-1.31c-1.15,0-1.89.9-1.89,2.35v.07c0,1.47.7,2.33,1.9,2.33a1.51,1.51,0,0,0,1.66-1.37h1.19A2.59,2.59,0,0,1,37.88,30,3,3,0,0,1,34.71,26.7Z" fill="#fff"/><path d="M41.37,27.89h1.17c.08.66.34,1.21,1.44,1.21.72,0,1.23-.41,1.23-1s-.3-.82-1.36-1c-1.55-.2-2.29-.68-2.29-1.9,0-1.06.91-1.86,2.27-1.86s2.23.64,2.36,1.88H45.08a1.08,1.08,0,0,0-1.25-1c-.74,0-1.12.35-1.12.85s.22.79,1.34,1c1.53.21,2.32.64,2.32,1.94A2.14,2.14,0,0,1,44,30C42.21,30,41.46,29.12,41.37,27.89Z" fill="#fff"/><path d="M49,23.41h1.59l2.14,6.5H51.47L51,28.3H48.47L48,29.91H46.82Zm-.24,4h1.92l-1-3Z" fill="#fff"/><path d="M54.38,24.37H52.57v-1h4.84v1H55.6v5.54H54.38Z" fill="#fff"/><path d="M60.14,27.89h1.17c.08.66.34,1.21,1.44,1.21.72,0,1.23-.41,1.23-1s-.3-.82-1.35-1c-1.56-.2-2.3-.68-2.3-1.9,0-1.06.91-1.86,2.27-1.86S64.84,24,65,25.21H63.85c-.11-.68-.51-1-1.25-1s-1.12.35-1.12.85.22.79,1.35,1c1.52.21,2.32.64,2.32,1.94a2.15,2.15,0,0,1-2.4,2C61,30,60.23,29.12,60.14,27.89Z" fill="#fff"/><path d="M66,26.7v-.07a3.13,3.13,0,0,1,3.15-3.32,2.5,2.5,0,0,1,2.79,2.27H70.67a1.4,1.4,0,0,0-1.56-1.31c-1.15,0-1.89.9-1.89,2.35v.07c0,1.47.7,2.33,1.9,2.33a1.51,1.51,0,0,0,1.66-1.37H72A2.59,2.59,0,0,1,69.12,30,3,3,0,0,1,66,26.7Z" fill="#fff"/><path d="M72.68,26.7v-.07A3.2,3.2,0,0,1,76,23.32a3.14,3.14,0,0,1,3.27,3.28v.08a3.29,3.29,0,1,1-6.57,0Zm5.32,0v-.08a2.07,2.07,0,0,0-2-2.33c-1.28,0-2,.94-2,2.34v.07A2.1,2.1,0,0,0,76,29C77.22,29,78,28.09,78,26.69Z" fill="#fff"/><path d="M80.42,23.41H82.6C84,23.41,85,24,85,25.32v0a1.71,1.71,0,0,1-1.45,1.74l1.83,2.81H84.1l-1.7-2.62h-.78v2.62h-1.2Zm2.18,3c.81,0,1.23-.34,1.23-1v0c0-.75-.46-1-1.23-1h-1v2.07Z" fill="#fff"/><path d="M86.37,23.41h4.07v1H87.58v1.78h2.29v.91H87.58V29h3v.95H86.37Z" fill="#fff"/><path d="M91.28,27.89h1.17c.08.66.34,1.21,1.44,1.21.72,0,1.23-.41,1.23-1s-.3-.82-1.35-1c-1.56-.2-2.3-.68-2.3-1.9,0-1.06.91-1.86,2.27-1.86S96,24,96.1,25.21H95c-.11-.68-.51-1-1.25-1s-1.12.35-1.12.85.22.79,1.35,1c1.52.21,2.32.64,2.32,1.94a2.15,2.15,0,0,1-2.4,2C92.12,30,91.37,29.12,91.28,27.89Z" fill="#fff"/><path d="M45.81,33.87H47v6.5H45.81Z" fill="#fff"/><path d="M48.57,33.87h1.61l1.71,4.44,1.68-4.44h1.6v6.5H54V35.46L52,40.37h-.39l-2-4.91v4.91H48.57Z" fill="#fff"/><path d="M56.66,33.87h2.09c1.46,0,2.41.65,2.41,2v0c0,1.37-1,2-2.38,2h-.91v2.47H56.66ZM58.75,37c.8,0,1.23-.4,1.23-1.11v0c0-.77-.45-1.07-1.23-1.07h-.88V37Z" fill="#fff"/><path d="M62.2,33.87h2.18c1.43,0,2.43.58,2.43,1.91v0a1.72,1.72,0,0,1-1.45,1.74l1.83,2.81H65.88l-1.7-2.63h-.77v2.63H62.2Zm2.18,3c.81,0,1.24-.35,1.24-1v0c0-.75-.47-1-1.24-1h-1v2.07Z" fill="#fff"/><path d="M67.74,37.16v-.07A3.19,3.19,0,0,1,71,33.78a3.14,3.14,0,0,1,3.27,3.28v.08a3.28,3.28,0,1,1-6.56,0Zm5.31,0v-.07a2.07,2.07,0,0,0-2-2.33c-1.27,0-2,.94-2,2.34v.07a2.11,2.11,0,0,0,2,2.34C72.28,39.49,73.05,38.55,73.05,37.14Z" fill="#fff"/><path d="M74.66,33.87h1.26l1.69,5.28,1.7-5.28h1.14l-2.2,6.5h-1.4Z" fill="#fff"/><path d="M81.41,33.87h4.06v1H82.62v1.78h2.29v.91H82.62v1.9h3v.95H81.41Z" fill="#fff"/><path d="M54.5,91.12a2.63,2.63,0,0,1-.59-1.83V81.81h1.54V89.4a1,1,0,0,0,.21.73.72.72,0,0,0,.58.22.75.75,0,0,0,.58-.22,1.1,1.1,0,0,0,.2-.73V81.81H58.5v7.48a2.63,2.63,0,0,1-.58,1.83,2.64,2.64,0,0,1-3.42,0Z" fill="#f0f"/><path d="M59.6,81.81h2.26a2.27,2.27,0,0,1,1.73.62,2.56,2.56,0,0,1,.57,1.8v1A2.59,2.59,0,0,1,63.59,87a2.27,2.27,0,0,1-1.73.61h-.72v4H59.6Zm2.26,4.41a.71.71,0,0,0,.57-.21,1,1,0,0,0,.19-.71V84.14a1.05,1.05,0,0,0-.19-.72.71.71,0,0,0-.57-.21h-.72v3Z" fill="#f0f"/><path d="M68.44,83.21H66.83v-1.4h4.76v1.4H70v8.4H68.44Z" fill="#f0f"/><path d="M72.77,91.11a2.58,2.58,0,0,1-.6-1.82V84.14a2.56,2.56,0,0,1,.6-1.82,2.64,2.64,0,0,1,3.47,0,2.56,2.56,0,0,1,.6,1.82v5.15a2.58,2.58,0,0,1-.6,1.82,2.67,2.67,0,0,1-3.47,0Zm2.53-1.72V84c0-.65-.26-1-.79-1s-.8.32-.8,1v5.35c0,.64.26,1,.8,1S75.3,90,75.3,89.39Z" fill="#f0f"/><path d="M51,105.41l4.19-9.89h2.51v9.89h1.08v2.09H57.65v2.66H55.39V107.5H51Zm4.44,0v-5.5l-2.32,5.5Z" fill="#f0f"/><path d="M59.59,99c0-2.34,1.24-3.68,3.49-3.68s3.5,1.34,3.5,3.68v7.62c0,2.34-1.24,3.68-3.5,3.68s-3.49-1.34-3.49-3.68Zm2.3,7.76c0,1,.46,1.45,1.19,1.45s1.2-.4,1.2-1.45v-7.9c0-1-.46-1.45-1.2-1.45s-1.19.4-1.19,1.45Z" fill="#f0f"/><path d="M67.94,97.76a2.22,2.22,0,1,1,4.43,0v4.81a2.22,2.22,0,1,1-4.43,0Zm1.46,4.91c0,.65.27.92.75.92s.76-.27.76-.92v-5c0-.65-.3-.92-.76-.92s-.75.27-.75.92Zm6.53-7.15h1.36l-5.78,14.64H70.15Zm-.73,7.59a2.22,2.22,0,1,1,4.43,0v4.81a2.22,2.22,0,1,1-4.43,0ZM76.66,108c0,.65.27.92.75.92s.76-.27.76-.92v-5c0-.65-.3-.92-.76-.92s-.75.27-.75.92Z" fill="#f0f"/><circle cx="34.23" cy="63.46" r="16.29" fill="none" stroke="#fff" stroke-miterlimit="10" stroke-width="1.36"/><circle cx="28.16" cy="60.17" r="1.64" fill="#fff"/><circle cx="40.3" cy="60.17" r="1.64" fill="#fff"/><path d="M26.57,71.06q7.66-5,15.31,0" fill="none" stroke="#fff" stroke-linecap="round" stroke-miterlimit="10" stroke-width="1.82"/><circle cx="96.77" cy="63.46" r="16.29" fill="none" stroke="#fff" stroke-miterlimit="10" stroke-width="1.36"/><circle cx="90.7" cy="60.17" r="1.64" fill="#fff"/><circle cx="102.84" cy="60.17" r="1.64" fill="#fff"/><path d="M104.43,68.56q-7.67,5-15.31,0" fill="none" stroke="#fff" stroke-linecap="round" stroke-miterlimit="10" stroke-width="1.82"/><line x1="51.07" y1="63.74" x2="74.76" y2="63.74" fill="none" stroke="#fff" stroke-linecap="round" stroke-miterlimit="10" stroke-width="1.82"/><polyline points="71.01 59.21 75.54 63.74 71.01 68.27" fill="none" stroke="#fff" stroke-linecap="round" stroke-linejoin="round" stroke-width="1.82"/></svg>