<svg xmlns="http://www.w3.org/2000/svg" xmlns:xlink="http://www.w3.org/1999/xlink" width="130.7" height="130.7" viewBox="0 0 130.7 130.7"><defs><linearGradient id="a" x1="65.3" y1="1077.2" x2="65.3" y2="949.4" gradientTransform="translate(0 -948)" gradientUnits="userSpaceOnUse"><stop offset="0" stop-color="#3d026e"/><stop offset="1" stop-color="#aa02bc"/></linearGradient></defs><circle cx="65.3" cy="65.3" r="63.9" stroke="#fff" stroke-miterlimit="10" stroke-width="2.93" fill="url(#a)"/><path d="M43.77,21.67h2.09c1.46,0,2.41.65,2.41,2v0c0,1.37-1,2-2.38,2H45v2.48H43.77Zm2.09,3.16c.8,0,1.23-.39,1.23-1.11v0c0-.77-.45-1.07-1.23-1.07H45v2.22Z" fill="#fff"/><path d="M49.31,21.67h2.18c1.43,0,2.43.59,2.43,1.91v0a1.72,1.72,0,0,1-1.45,1.75l1.83,2.81H53l-1.7-2.63h-.77v2.63H49.31Zm2.18,3c.81,0,1.24-.34,1.24-1v0c0-.74-.46-1-1.24-1h-1v2.07Z" fill="#fff"/><path d="M54.85,25v-.08a3.19,3.19,0,0,1,3.29-3.31,3.14,3.14,0,0,1,3.27,3.29v.07a3.28,3.28,0,1,1-6.56,0Zm5.31,0v-.07a2.07,2.07,0,0,0-2-2.33c-1.27,0-2,.93-2,2.33V25a2.1,2.1,0,0,0,2,2.33C59.39,27.29,60.16,26.36,60.16,25Z" fill="#fff"/><path d="M62.25,25v-.08a3.13,3.13,0,0,1,3.16-3.32,2.51,2.51,0,0,1,2.79,2.28H67a1.39,1.39,0,0,0-1.55-1.31c-1.15,0-1.9.89-1.9,2.34V25c0,1.46.7,2.33,1.9,2.33a1.52,1.52,0,0,0,1.67-1.38h1.18a2.59,2.59,0,0,1-2.85,2.36A3,3,0,0,1,62.25,25Z" fill="#fff"/><path d="M69.32,21.67h4.06v1H70.53v1.78h2.29v.91H70.53v1.9h3v1H69.32Z" fill="#fff"/><path d="M74.23,26.16h1.16c.09.65.35,1.2,1.45,1.2.72,0,1.23-.4,1.23-1s-.3-.83-1.36-1c-1.55-.21-2.29-.68-2.29-1.9a2,2,0,0,1,2.26-1.87c1.4,0,2.24.64,2.37,1.89H77.94c-.12-.69-.51-1-1.26-1s-1.11.36-1.11.86.21.79,1.34.95c1.53.21,2.32.65,2.32,2a2.14,2.14,0,0,1-2.39,2C75.07,28.27,74.32,27.39,74.23,26.16Z" fill="#fff"/><path d="M79.91,26.16h1.17c.08.65.34,1.2,1.44,1.2.72,0,1.23-.4,1.23-1s-.3-.83-1.35-1c-1.56-.21-2.3-.68-2.3-1.9a2,2,0,0,1,2.27-1.87c1.4,0,2.24.64,2.36,1.89H83.62c-.11-.69-.5-1-1.25-1s-1.12.36-1.12.86.22.79,1.35.95c1.52.21,2.32.65,2.32,2a2.15,2.15,0,0,1-2.4,2C80.75,28.27,80,27.39,79.91,26.16Z" fill="#fff"/><path d="M24.68,32.13h4.07v1H25.89v1.78h2.29v.91H25.89v1.9h3v1H24.68Z" fill="#fff"/><path d="M30,32.13h4v1H31.2V35h2.22V36H31.2v2.67H30Z" fill="#fff"/><path d="M35.08,32.13h4v1H36.29V35h2.22V36H36.29v2.67H35.08Z" fill="#fff"/><path d="M40.2,32.13h1.22v6.51H40.2Z" fill="#fff"/><path d="M42.63,35.43v-.08A3.13,3.13,0,0,1,45.78,32a2.5,2.5,0,0,1,2.79,2.28H47.35A1.39,1.39,0,0,0,45.79,33c-1.14,0-1.89.89-1.89,2.34v.08c0,1.46.7,2.33,1.9,2.33a1.51,1.51,0,0,0,1.66-1.38h1.19a2.59,2.59,0,0,1-2.85,2.36A3,3,0,0,1,42.63,35.43Z" fill="#fff"/><path d="M49.73,32.13H51v6.51H49.73Z" fill="#fff"/><path d="M52.48,32.13h4.07v1H53.69v1.78H56v.91h-2.3v1.9h3v1H52.48Z" fill="#fff"/><path d="M57.8,32.13h1.44L62,36.83v-4.7h1.1v6.51H61.82l-2.92-5v5H57.8Z" fill="#fff"/><path d="M64.24,35.43v-.08A3.13,3.13,0,0,1,67.4,32a2.5,2.5,0,0,1,2.79,2.28H69A1.38,1.38,0,0,0,67.41,33c-1.15,0-1.89.89-1.89,2.34v.08c0,1.46.7,2.33,1.9,2.33a1.52,1.52,0,0,0,1.66-1.38h1.18a2.58,2.58,0,0,1-2.84,2.36A3,3,0,0,1,64.24,35.43Z" fill="#fff"/><path d="M72.6,35.82l-2.15-3.69h1.33l1.47,2.7,1.43-2.7h1.18l-2,3.7v2.81H72.6Z" fill="#fff"/><path d="M78.59,35.43v-.08A3.16,3.16,0,0,1,81.84,32a2.51,2.51,0,0,1,2.8,2.2H83.43A1.4,1.4,0,0,0,81.86,33c-1.27,0-2,.94-2,2.37v.07c0,1.4.65,2.35,2,2.35a1.59,1.59,0,0,0,1.76-1.64H82v-.91h2.83v.6a2.71,2.71,0,0,1-3,2.9A3.06,3.06,0,0,1,78.59,35.43Z" fill="#fff"/><path d="M87.28,32.13h1.58L91,38.64H89.75L89.24,37H86.75l-.51,1.61H85.11Zm-.24,4H89l-1-3Z" fill="#fff"/><path d="M92,32.13h1.22v6.51H92Z" fill="#fff"/><path d="M94.79,32.13h1.45L99,36.83v-4.7h1.1v6.51H98.82l-2.93-5v5h-1.1Z" fill="#fff"/><path d="M101.17,36.62h1.16c.08.65.35,1.2,1.45,1.2.72,0,1.23-.4,1.23-1s-.3-.83-1.36-1c-1.55-.21-2.29-.69-2.29-1.9a2,2,0,0,1,2.26-1.87c1.4,0,2.24.64,2.37,1.88h-1.11c-.12-.68-.51-1-1.26-1s-1.12.36-1.12.86.22.79,1.35,1c1.53.21,2.32.65,2.32,1.95a2.15,2.15,0,0,1-2.39,2C102,38.73,101.26,37.84,101.17,36.62Z" fill="#fff"/><rect x="28.63" y="66.84" width="10.5" height="10.24" fill="none" stroke="#fff" stroke-miterlimit="10" stroke-width="1.36"/><path d="M19.2,77.08h84.06a6.83,6.83,0,0,1,6.83,6.84h0a6.83,6.83,0,0,1-6.83,6.83H39.09a6.84,6.84,0,1,0,0,13.67H97.21" fill="none" stroke="#fff" stroke-miterlimit="10" stroke-width="1.36"/><polygon points="92.69 110 91.76 109 96.69 104.42 91.76 99.84 92.69 98.84 98.69 104.42 92.69 110" fill="#fff"/><circle cx="19.2" cy="77.08" r="3.37" fill="#fff"/><circle cx="96.64" cy="77.08" r="3.37" fill="#fff"/><circle cx="71.92" cy="104.42" r="3.37" fill="#fff"/><circle cx="48.7" cy="90.75" r="3.37" fill="#fff"/><rect x="43.46" y="46.37" width="10.5" height="30.72" fill="none" stroke="#fff" stroke-miterlimit="10" stroke-width="1.36"/><path d="M61.14,55.6a2.58,2.58,0,0,1-.58-1.82V46.3H62.1v7.59a1.06,1.06,0,0,0,.2.73.87.87,0,0,0,1.16,0,1.06,1.06,0,0,0,.2-.73V46.3h1.49v7.48a2.59,2.59,0,0,1-.59,1.82,2.19,2.19,0,0,1-1.71.64A2.22,2.22,0,0,1,61.14,55.6Z" fill="#f0f"/><path d="M66.24,46.3h2.27a2.25,2.25,0,0,1,1.72.62,2.56,2.56,0,0,1,.57,1.8v1a2.56,2.56,0,0,1-.57,1.8,2.21,2.21,0,0,1-1.72.62h-.73v4H66.24Zm2.27,4.41a.74.74,0,0,0,.57-.21,1.1,1.1,0,0,0,.18-.71V48.62a1.1,1.1,0,0,0-.18-.71.74.74,0,0,0-.57-.21h-.73v3Z" fill="#f0f"/><path d="M75.09,47.7H73.48V46.3h4.76v1.4H76.63v8.4H75.09Z" fill="#f0f"/><path d="M79.41,55.6a2.58,2.58,0,0,1-.6-1.82V48.62a2.58,2.58,0,0,1,.6-1.82,2.69,2.69,0,0,1,3.48,0,2.58,2.58,0,0,1,.6,1.82v5.16a2.58,2.58,0,0,1-.6,1.82,2.69,2.69,0,0,1-3.48,0ZM82,53.87V48.53c0-.65-.27-1-.8-1s-.8.32-.8,1v5.34c0,.65.27,1,.8,1S82,54.52,82,53.87Z" fill="#f0f"/><path d="M65.31,62.69c0-1.31-.46-1.67-1.19-1.67s-1.2.4-1.2,1.44v.95H60.75v-.8c0-2.34,1.17-3.68,3.43-3.68s3.43,1.34,3.43,3.68V63c0,1.57-.5,2.55-1.61,3,1.15.5,1.61,1.59,1.61,3.08v1.15c0,2.34-1.17,3.68-3.43,3.68s-3.43-1.34-3.43-3.68V69h2.17v1.36c0,1,.46,1.45,1.2,1.45s1.19-.36,1.19-1.66V69c0-1.36-.46-1.86-1.51-1.86H63V65.06h.9c.86,0,1.38-.38,1.38-1.55Z" fill="#f0f"/><path d="M69,62.61c0-2.34,1.23-3.68,3.49-3.68S76,60.27,76,62.61v7.62c0,2.34-1.24,3.68-3.5,3.68S69,72.57,69,70.23Zm2.3,7.76c0,1,.46,1.45,1.19,1.45s1.2-.4,1.2-1.45V62.46c0-1-.46-1.44-1.2-1.44s-1.19.4-1.19,1.44Z" fill="#f0f"/><path d="M77.32,61.33a2.22,2.22,0,1,1,4.43,0v4.82a2.22,2.22,0,1,1-4.43,0Zm1.46,4.92c0,.65.27.92.75.92s.76-.27.76-.92v-5c0-.65-.3-.92-.76-.92s-.75.27-.75.92Zm6.53-7.15h1.36L80.89,73.74H79.53Zm-.73,7.59a2.22,2.22,0,1,1,4.43,0V71.5a2.22,2.22,0,1,1-4.43,0ZM86,71.61c0,.64.27.92.75.92s.76-.28.76-.92v-5c0-.65-.3-.92-.76-.92s-.75.27-.75.92Z" fill="#f0f"/></svg>