<svg xmlns="http://www.w3.org/2000/svg" xmlns:xlink="http://www.w3.org/1999/xlink" width="130.7" height="130.7" viewBox="0 0 130.7 130.7"><defs><linearGradient id="a" x1="1.48" y1="65.35" x2="129.22" y2="65.35" gradientUnits="userSpaceOnUse"><stop offset="0" stop-color="#440073"/><stop offset="1" stop-color="#ba00c2"/></linearGradient></defs><circle cx="65.35" cy="65.35" r="63.87" stroke="#fff" stroke-miterlimit="10" stroke-width="2.93" fill="url(#a)"/><path d="M28.1,26.27v-.08a3.79,3.79,0,0,1,3.82-4c1.81,0,3.2.9,3.38,2.75H33.81a1.68,1.68,0,0,0-1.88-1.58c-1.38,0-2.29,1.08-2.29,2.84v.08c0,1.77.85,2.82,2.3,2.82a1.85,1.85,0,0,0,2-1.66h1.43a3.14,3.14,0,0,1-3.45,2.85C29.48,30.27,28.1,28.69,28.1,26.27Z" fill="#fff"/><path d="M36.17,27.72h1.41c.09.79.41,1.45,1.74,1.45.87,0,1.49-.49,1.49-1.21s-.36-1-1.64-1.21c-1.88-.26-2.77-.83-2.77-2.3,0-1.29,1.1-2.26,2.74-2.26s2.7.77,2.86,2.28H40.66a1.32,1.32,0,0,0-1.52-1.18c-.89,0-1.36.43-1.36,1s.27,1,1.63,1.15c1.85.26,2.81.78,2.81,2.36,0,1.36-1.16,2.43-2.9,2.43C37.18,30.27,36.28,29.2,36.17,27.72Z" fill="#fff"/><path d="M45.39,22.29H47.3l2.6,7.87H48.38l-.63-1.95h-3l-.62,1.95H42.76Zm-.3,4.85h2.32l-1.15-3.65Z" fill="#fff"/><path d="M51.9,23.45H49.71V22.29h5.85v1.16H53.37v6.71H51.9Z" fill="#fff"/><path d="M58.87,27.72h1.41c.1.79.42,1.45,1.75,1.45.87,0,1.48-.49,1.48-1.21s-.36-1-1.64-1.21c-1.88-.26-2.77-.83-2.77-2.3,0-1.29,1.1-2.26,2.74-2.26s2.71.77,2.86,2.28H63.36a1.32,1.32,0,0,0-1.52-1.18c-.89,0-1.35.43-1.35,1s.26,1,1.63,1.15c1.84.26,2.8.78,2.8,2.36,0,1.36-1.15,2.43-2.89,2.43C59.88,30.27,59,29.2,58.87,27.72Z" fill="#fff"/><path d="M65.89,26.27v-.08a3.79,3.79,0,0,1,3.82-4c1.8,0,3.2.9,3.37,2.75H71.6a1.69,1.69,0,0,0-1.88-1.58c-1.39,0-2.29,1.08-2.29,2.84v.08c0,1.77.85,2.82,2.3,2.82a1.83,1.83,0,0,0,2-1.66h1.43a3.13,3.13,0,0,1-3.44,2.85C67.26,30.27,65.89,28.69,65.89,26.27Z" fill="#fff"/><path d="M74,26.27v-.08a3.86,3.86,0,0,1,4-4,3.8,3.8,0,0,1,4,4v.09a4,4,0,1,1-7.94,0Zm6.42,0v-.09c0-1.61-.9-2.81-2.44-2.81s-2.45,1.13-2.45,2.83v.08A2.54,2.54,0,0,0,78,29.09C79.53,29.09,80.46,28,80.46,26.25Z" fill="#fff"/><path d="M83.39,22.29H86c1.73,0,2.94.71,2.94,2.31v0a2.07,2.07,0,0,1-1.75,2.11l2.21,3.4H87.85L85.79,27h-.94v3.18H83.39ZM86,25.93c1,0,1.5-.41,1.5-1.25v0c0-.91-.57-1.21-1.5-1.21H84.85v2.5Z" fill="#fff"/><path d="M90.6,22.29h4.91v1.16H92.06V25.6h2.77v1.1H92.06V29H95.7v1.16H90.6Z" fill="#fff"/><path d="M96.54,27.72h1.4c.1.79.42,1.45,1.75,1.45.87,0,1.49-.49,1.49-1.21s-.37-1-1.64-1.21c-1.88-.26-2.77-.83-2.77-2.3,0-1.29,1.1-2.26,2.74-2.26s2.7.77,2.86,2.28H101a1.31,1.31,0,0,0-1.51-1.18c-.9,0-1.36.43-1.36,1s.27,1,1.63,1.15c1.85.26,2.81.78,2.81,2.36,0,1.36-1.16,2.43-2.9,2.43C97.55,30.27,96.64,29.2,96.54,27.72Z" fill="#fff"/><path d="M41.54,34.29H43v7.87H41.54Z" fill="#fff"/><path d="M44.87,34.29h2l2.07,5.37,2-5.37h1.94v7.87H51.39V36.22l-2.34,5.94h-.47l-2.39-5.94v5.94H44.87Z" fill="#fff"/><path d="M54.66,34.29h2.53c1.76,0,2.91.78,2.91,2.43v.05c0,1.66-1.2,2.4-2.88,2.4h-1.1v3H54.66Zm2.53,3.82c1,0,1.48-.47,1.48-1.34v-.05c0-.93-.55-1.29-1.48-1.29H56.12v2.68Z" fill="#fff"/><path d="M61.36,34.29H64c1.73,0,2.94.71,2.94,2.31v0a2.07,2.07,0,0,1-1.75,2.11l2.21,3.4H65.81L63.76,39h-.94v3.18H61.36ZM64,37.93c1,0,1.49-.41,1.49-1.25v0c0-.91-.56-1.21-1.49-1.21H62.82v2.5Z" fill="#fff"/><path d="M68.06,38.27v-.08a3.86,3.86,0,0,1,4-4,3.8,3.8,0,0,1,4,4v.09a4,4,0,1,1-7.94,0Zm6.42,0v-.09c0-1.61-.9-2.81-2.44-2.81s-2.45,1.13-2.45,2.83v.08a2.54,2.54,0,0,0,2.47,2.83C73.55,41.09,74.48,40,74.48,38.25Z" fill="#fff"/><path d="M76.43,34.29H78l2,6.38,2.06-6.38h1.38l-2.67,7.87H79.08Z" fill="#fff"/><path d="M84.59,34.29h4.92v1.16H86.05V37.6h2.77v1.1H86.05V41h3.64v1.16h-5.1Z" fill="#fff"/><path d="M56.05,91.43a2.21,2.21,0,0,1-.5-1.57v-6.4h1.32V90a.87.87,0,0,0,.17.62.64.64,0,0,0,.5.2.65.65,0,0,0,.5-.2.92.92,0,0,0,.17-.62v-6.5h1.27v6.4a2.26,2.26,0,0,1-.5,1.57,1.93,1.93,0,0,1-1.47.55A1.91,1.91,0,0,1,56.05,91.43Z" fill="#fff"/><path d="M60.42,83.46h1.94a1.93,1.93,0,0,1,1.48.52,2.2,2.2,0,0,1,.49,1.55v.83a2.19,2.19,0,0,1-.49,1.55,1.94,1.94,0,0,1-1.48.53h-.62v3.42H60.42Zm1.94,3.78a.63.63,0,0,0,.49-.18.92.92,0,0,0,.16-.62v-1a.89.89,0,0,0-.16-.61.63.63,0,0,0-.49-.18h-.62v2.58Z" fill="#fff"/><path d="M68,84.66H66.62v-1.2H70.7v1.2H69.32v7.2H68Z" fill="#fff"/><path d="M71.71,91.42a2.19,2.19,0,0,1-.52-1.56V85.45a2.22,2.22,0,0,1,.52-1.56,2.29,2.29,0,0,1,3,0,2.22,2.22,0,0,1,.51,1.56v4.41a2.19,2.19,0,0,1-.51,1.56,2.26,2.26,0,0,1-3,0ZM73.88,90V85.36c0-.55-.23-.82-.68-.82s-.69.27-.69.82V90c0,.55.23.83.69.83S73.88,90.5,73.88,90Z" fill="#fff"/><path d="M50.8,105.66,55,95.76H57.5v9.9h1.08v2.09H57.5v2.66H55.24v-2.66H50.8Zm4.44,0v-5.5l-2.32,5.5Z" fill="#fff"/><path d="M59.44,99.28c0-2.35,1.24-3.69,3.5-3.69s3.49,1.34,3.49,3.69v7.61c0,2.34-1.24,3.68-3.49,3.68s-3.5-1.34-3.5-3.68Zm2.3,7.76c0,1,.46,1.44,1.2,1.44s1.19-.4,1.19-1.44V99.13c0-1-.46-1.44-1.19-1.44s-1.2.39-1.2,1.44Z" fill="#fff"/><path d="M67.79,98a2.22,2.22,0,1,1,4.43,0v4.81a2.22,2.22,0,1,1-4.43,0Zm1.46,4.92c0,.65.27.92.75.92s.76-.27.76-.92v-5c0-.65-.3-.92-.76-.92s-.75.27-.75.92Zm6.53-7.16h1.36l-5.78,14.65H70Zm-.73,7.6a2.22,2.22,0,1,1,4.43,0v4.81a2.22,2.22,0,1,1-4.43,0Zm1.46,4.91c0,.65.27.92.75.92s.76-.27.76-.92v-5c0-.65-.3-.92-.76-.92s-.75.27-.75.92Z" fill="#fff"/><circle cx="34.08" cy="63.71" r="16.29" fill="none" stroke="#fff" stroke-miterlimit="10" stroke-width="1.36"/><circle cx="28.01" cy="60.41" r="1.64" fill="#fff"/><circle cx="40.15" cy="60.41" r="1.64" fill="#fff"/><path d="M26.42,71.3q7.66-5,15.31,0" fill="none" stroke="#fff" stroke-linecap="round" stroke-miterlimit="10" stroke-width="1.82"/><circle cx="96.62" cy="63.71" r="16.29" fill="none" stroke="#fff" stroke-miterlimit="10" stroke-width="1.36"/><circle cx="90.55" cy="60.41" r="1.64" fill="#fff"/><circle cx="102.69" cy="60.41" r="1.64" fill="#fff"/><path d="M104.28,68.8q-7.66,5-15.31,0" fill="none" stroke="#fff" stroke-linecap="round" stroke-miterlimit="10" stroke-width="1.82"/><line x1="50.92" y1="63.98" x2="74.61" y2="63.98" fill="none" stroke="#fff" stroke-linecap="round" stroke-miterlimit="10" stroke-width="1.82"/><polyline points="70.86 59.45 75.39 63.98 70.86 68.51" fill="none" stroke="#fff" stroke-linecap="round" stroke-linejoin="round" stroke-width="1.82"/></svg>