<svg xmlns="http://www.w3.org/2000/svg" xmlns:xlink="http://www.w3.org/1999/xlink" width="130.7" height="130.7" viewBox="0 0 130.7 130.7"><defs><linearGradient id="a" x1="65.35" y1="129.22" x2="65.35" y2="1.48" gradientUnits="userSpaceOnUse"><stop offset="0" stop-color="#440073"/><stop offset="1" stop-color="#ba00c2"/></linearGradient></defs><circle cx="65.35" cy="65.35" r="63.87" stroke="#fff" stroke-miterlimit="10" stroke-width="2.93" fill="url(#a)"/><path d="M39.35,20.47h2.53c1.76,0,2.92.78,2.92,2.43V23c0,1.66-1.2,2.4-2.88,2.4H40.81v3H39.35Zm2.53,3.82c1,0,1.49-.47,1.49-1.34V22.9c0-.93-.55-1.29-1.49-1.29H40.81v2.68Z" fill="#fff"/><path d="M46.05,20.47h2.64c1.73,0,2.94.71,2.94,2.31v0a2.07,2.07,0,0,1-1.75,2.11l2.21,3.4H50.51l-2.06-3.18h-.94v3.18H46.05Zm2.64,3.64c1,0,1.5-.41,1.5-1.25v0c0-.91-.56-1.21-1.5-1.21H47.51v2.5Z" fill="#fff"/><path d="M52.75,24.46v-.09a3.86,3.86,0,0,1,4-4,3.8,3.8,0,0,1,4,4v.09a4,4,0,1,1-7.94,0Zm6.42,0v-.08c0-1.62-.9-2.82-2.44-2.82s-2.45,1.13-2.45,2.83v.08a2.54,2.54,0,0,0,2.47,2.83C58.24,27.27,59.17,26.14,59.17,24.43Z" fill="#fff"/><path d="M61.7,24.46v-.09a3.79,3.79,0,0,1,3.82-4c1.81,0,3.2.9,3.38,2.75H67.41a1.68,1.68,0,0,0-1.88-1.58c-1.38,0-2.29,1.08-2.29,2.84v.08c0,1.78.85,2.82,2.3,2.82a1.85,1.85,0,0,0,2-1.66H69a3.14,3.14,0,0,1-3.45,2.85C63.08,28.45,61.7,26.88,61.7,24.46Z" fill="#fff"/><path d="M70.25,20.47h4.92v1.16H71.71v2.15h2.78v1.1H71.71v2.3h3.64v1.16h-5.1Z" fill="#fff"/><path d="M76.19,25.9H77.6c.1.79.42,1.45,1.75,1.45.87,0,1.48-.49,1.48-1.21s-.36-1-1.64-1.21c-1.88-.25-2.77-.83-2.77-2.3,0-1.29,1.1-2.26,2.74-2.26s2.71.77,2.86,2.28H80.68a1.32,1.32,0,0,0-1.52-1.18c-.89,0-1.35.43-1.35,1s.26,1,1.63,1.15c1.84.26,2.8.78,2.8,2.36,0,1.36-1.15,2.43-2.89,2.43C77.2,28.45,76.3,27.38,76.19,25.9Z" fill="#fff"/><path d="M83.07,25.9h1.4c.1.79.42,1.45,1.75,1.45.87,0,1.49-.49,1.49-1.21s-.36-1-1.64-1.21c-1.88-.25-2.77-.83-2.77-2.3,0-1.29,1.1-2.26,2.74-2.26s2.7.77,2.86,2.28H87.55A1.31,1.31,0,0,0,86,21.47c-.9,0-1.36.43-1.36,1s.27,1,1.63,1.15c1.85.26,2.81.78,2.81,2.36,0,1.36-1.16,2.43-2.9,2.43C84.08,28.45,83.18,27.38,83.07,25.9Z" fill="#fff"/><path d="M16.26,32.47h4.92v1.16H17.73v2.15H20.5v1.1H17.73v2.3h3.64v1.16H16.26Z" fill="#fff"/><path d="M22.69,32.47h4.87v1.17H24.15V36h2.68v1.14H24.15v3.22H22.69Z" fill="#fff"/><path d="M28.84,32.47h4.87v1.17H30.3V36H33v1.14H30.3v3.22H28.84Z" fill="#fff"/><path d="M35,32.47H36.5v7.87H35Z" fill="#fff"/><path d="M38,36.46v-.09a3.78,3.78,0,0,1,3.81-4c1.81,0,3.2.9,3.38,2.75H43.68a1.69,1.69,0,0,0-1.89-1.58c-1.38,0-2.28,1.08-2.28,2.84v.08c0,1.78.84,2.82,2.3,2.82a1.84,1.84,0,0,0,2-1.66h1.43a3.13,3.13,0,0,1-3.44,2.85C39.34,40.45,38,38.88,38,36.46Z" fill="#fff"/><path d="M46.56,32.47H48v7.87H46.56Z" fill="#fff"/><path d="M49.89,32.47h4.92v1.16H51.35v2.15h2.78v1.1H51.35v2.3H55v1.16h-5.1Z" fill="#fff"/><path d="M56.31,32.47h1.75l3.31,5.69V32.47h1.34v7.87H61.19l-3.55-6v6H56.31Z" fill="#fff"/><path d="M64.11,36.46v-.09a3.79,3.79,0,0,1,3.82-4c1.8,0,3.2.9,3.38,2.75H69.82a1.68,1.68,0,0,0-1.88-1.58c-1.39,0-2.29,1.08-2.29,2.84v.08c0,1.78.85,2.82,2.3,2.82a1.85,1.85,0,0,0,2-1.66h1.42A3.13,3.13,0,0,1,68,40.45C65.49,40.45,64.11,38.88,64.11,36.46Z" fill="#fff"/><path d="M74.22,36.93l-2.61-4.46h1.62L75,35.73l1.73-3.26h1.43L75.7,36.94v3.4H74.22Z" fill="#fff"/><path d="M81.47,36.46v-.09a3.82,3.82,0,0,1,3.93-4c1.68,0,3.18.77,3.39,2.65H87.32a1.7,1.7,0,0,0-1.9-1.49c-1.54,0-2.43,1.14-2.43,2.87v.09c0,1.68.78,2.83,2.43,2.83a1.91,1.91,0,0,0,2.12-2h-2v-1.1H89V37a3.27,3.27,0,0,1-3.58,3.5A3.7,3.7,0,0,1,81.47,36.46Z" fill="#fff"/><path d="M92,32.47h1.91l2.6,7.87H95l-.63-2h-3l-.62,2H89.35Zm-.3,4.85H94l-1.15-3.65Z" fill="#fff"/><path d="M97.73,32.47H99.2v7.87H97.73Z" fill="#fff"/><path d="M101.06,32.47h1.75l3.31,5.69V32.47h1.33v7.87h-1.52l-3.54-6v6h-1.33Z" fill="#fff"/><path d="M108.77,37.9h1.41c.1.79.42,1.45,1.75,1.45.87,0,1.48-.49,1.48-1.21s-.36-1-1.63-1.21c-1.89-.25-2.78-.83-2.78-2.3,0-1.29,1.1-2.26,2.74-2.26s2.71.77,2.86,2.28h-1.34a1.32,1.32,0,0,0-1.52-1.18c-.89,0-1.35.43-1.35,1s.26,1,1.63,1.15c1.85.26,2.8.78,2.8,2.36,0,1.36-1.15,2.43-2.89,2.43C109.78,40.45,108.88,39.38,108.77,37.9Z" fill="#fff"/><rect x="28.71" y="67.01" width="10.5" height="10.24" fill="none" stroke="#fff" stroke-miterlimit="10" stroke-width="1.36"/><path d="M19.28,77.25h84.06a6.83,6.83,0,0,1,6.84,6.83h0a6.83,6.83,0,0,1-6.84,6.83H39.17a6.83,6.83,0,0,0-6.83,6.84h0a6.83,6.83,0,0,0,6.83,6.83H97.29" fill="none" stroke="#fff" stroke-miterlimit="10" stroke-width="1.36"/><polygon points="92.77 110.16 91.84 109.16 96.77 104.58 91.84 100 92.77 99 98.77 104.58 92.77 110.16" fill="#fff"/><circle cx="19.28" cy="77.25" r="3.37" fill="#fff"/><circle cx="96.72" cy="77.25" r="3.37" fill="#fff"/><circle cx="72" cy="104.58" r="3.37" fill="#fff"/><circle cx="48.78" cy="90.91" r="3.37" fill="#fff"/><rect x="43.54" y="46.53" width="10.5" height="30.72" fill="none" stroke="#fff" stroke-miterlimit="10" stroke-width="1.36"/><path d="M61.07,53.84a2.23,2.23,0,0,1-.5-1.57V45.86h1.32v6.51a.9.9,0,0,0,.17.62.63.63,0,0,0,.5.19.65.65,0,0,0,.5-.19,1,1,0,0,0,.17-.62V45.86H64.5v6.41a2.28,2.28,0,0,1-.5,1.57,1.93,1.93,0,0,1-1.47.54A1.9,1.9,0,0,1,61.07,53.84Z" fill="#fff"/><path d="M65.44,45.86h1.94a1.94,1.94,0,0,1,1.48.53,2.19,2.19,0,0,1,.49,1.55v.83a2.16,2.16,0,0,1-.49,1.54,1.9,1.9,0,0,1-1.48.53h-.62v3.42H65.44Zm1.94,3.78a.63.63,0,0,0,.49-.18.89.89,0,0,0,.16-.61v-1a.91.91,0,0,0-.16-.61.63.63,0,0,0-.49-.18h-.62v2.58Z" fill="#fff"/><path d="M73,47.06H71.64v-1.2h4.08v1.2H74.34v7.2H73Z" fill="#fff"/><path d="M76.73,53.83a2.22,2.22,0,0,1-.52-1.56V47.85a2.22,2.22,0,0,1,.52-1.56,2.28,2.28,0,0,1,3,0,2.18,2.18,0,0,1,.52,1.56v4.42a2.18,2.18,0,0,1-.52,1.56,2.28,2.28,0,0,1-3,0Zm2.17-1.48V47.77c0-.55-.23-.83-.68-.83s-.69.28-.69.83v4.58c0,.56.23.83.69.83S78.9,52.91,78.9,52.35Z" fill="#fff"/><path d="M65.39,60.86c0-1.32-.46-1.68-1.19-1.68S63,59.58,63,60.63v.94H60.83v-.8c0-2.34,1.17-3.68,3.43-3.68s3.43,1.34,3.43,3.68v.38c0,1.57-.5,2.55-1.61,3,1.15.5,1.61,1.59,1.61,3.08v1.15c0,2.34-1.17,3.68-3.43,3.68s-3.43-1.34-3.43-3.68V67.17H63v1.36c0,1,.46,1.45,1.19,1.45s1.19-.36,1.19-1.65V67.17c0-1.36-.46-1.86-1.5-1.86h-.78V63.22H64c.86,0,1.38-.38,1.38-1.55Z" fill="#fff"/><path d="M69.05,60.77c0-2.34,1.24-3.68,3.5-3.68S76,58.43,76,60.77v7.62c0,2.34-1.23,3.68-3.49,3.68s-3.5-1.34-3.5-3.68Zm2.3,7.76c0,1,.46,1.45,1.2,1.45s1.19-.4,1.19-1.45v-7.9c0-1.05-.46-1.45-1.19-1.45s-1.2.4-1.2,1.45Z" fill="#fff"/><path d="M77.4,59.5a2.22,2.22,0,1,1,4.43,0v4.81a2.22,2.22,0,1,1-4.43,0Zm1.46,4.91c0,.65.28.92.76.92s.75-.27.75-.92v-5c0-.65-.29-.92-.75-.92s-.76.27-.76.92Zm6.53-7.15h1.36L81,71.9H79.62Zm-.73,7.59a2.22,2.22,0,1,1,4.43,0v4.81a2.22,2.22,0,1,1-4.43,0Zm1.46,4.92c0,.65.27.92.76.92s.75-.27.75-.92v-5c0-.65-.29-.92-.75-.92s-.76.27-.76.92Z" fill="#fff"/></svg>