<?xml version="1.0" encoding="utf-8"?>
<!-- Generator: Adobe Illustrator 25.4.1, SVG Export Plug-In . SVG Version: 6.00 Build 0)  -->
<svg version="1.1" id="Layer_1" xmlns="http://www.w3.org/2000/svg" xmlns:xlink="http://www.w3.org/1999/xlink" x="0px" y="0px"
	 viewBox="0 0 130.7 130.7" style="enable-background:new 0 0 130.7 130.7;" xml:space="preserve">
<style type="text/css">
	.st0{fill:url(#SVGID_1_);stroke:#FFFFFF;stroke-width:2.93;stroke-miterlimit:10;}
	.st1{fill:#FFFFFF;}
	.st2{fill:none;stroke:#FFFFFF;stroke-width:1.36;stroke-miterlimit:10;}
	.st3{enable-background:new    ;}
	.st4{fill:#F600F9;}
</style>
<linearGradient id="SVGID_1_" gradientUnits="userSpaceOnUse" x1="65.34" y1="2.79" x2="65.34" y2="130.53" gradientTransform="matrix(1 0 0 -1 0 132)">
	<stop  offset="0" style="stop-color:#3D026E"/>
	<stop  offset="1" style="stop-color:#AA02BC"/>
</linearGradient>
<circle class="st0" cx="65.3" cy="65.3" r="63.9"/>
<path class="st1" d="M44,21.8h1.8c0.3,0,0.6,0,0.9,0.1c0.3,0.1,0.5,0.2,0.7,0.3c0.2,0.2,0.4,0.4,0.5,0.6c0.1,0.3,0.2,0.6,0.2,0.9
	l0,0c0,0.3-0.1,0.6-0.2,0.9c-0.1,0.2-0.3,0.4-0.5,0.6c-0.2,0.2-0.5,0.3-0.7,0.3c-0.3,0.1-0.6,0.1-0.9,0.1h-1v2.6H44V21.8z M45.9,25
	c0.4,0,0.8-0.1,1.1-0.3c0.3-0.3,0.4-0.6,0.4-1l0,0c0.1-0.4-0.1-0.8-0.4-1c-0.3-0.2-0.6-0.3-1-0.3h-1.2V25L45.9,25z"/>
<path class="st1" d="M49.3,21.8h2c0.3,0,0.6,0,0.9,0.1c0.3,0.1,0.5,0.2,0.7,0.3c0.2,0.1,0.4,0.3,0.5,0.6c0.1,0.3,0.2,0.5,0.2,0.8
	l0,0c0,0.2,0,0.5-0.1,0.7c-0.1,0.2-0.2,0.4-0.3,0.5c-0.1,0.1-0.3,0.3-0.5,0.4c-0.2,0.1-0.4,0.2-0.6,0.2l2,2.9h-0.9l-2-2.8h-1v2.8
	h-0.8V21.8z M51.3,24.9c0.4,0,0.8-0.1,1.1-0.3c0.3-0.2,0.4-0.6,0.4-0.9l0,0c0-0.2,0-0.4-0.1-0.5c-0.1-0.1-0.2-0.3-0.3-0.4
	c-0.1-0.1-0.3-0.2-0.5-0.2c-0.2,0-0.4-0.1-0.6-0.1h-1.2v2.4L51.3,24.9z"/>
<path class="st1" d="M58,28.4c-0.5,0-0.9-0.1-1.3-0.3c-0.8-0.3-1.4-1-1.7-1.8c-0.2-0.4-0.2-0.8-0.2-1.3V25c0-0.4,0.1-0.8,0.2-1.2
	c0.1-0.4,0.4-0.7,0.7-1c0.3-0.3,0.6-0.5,1-0.7c0.8-0.3,1.8-0.3,2.6,0c0.4,0.2,0.7,0.4,1,0.7c0.3,0.3,0.5,0.6,0.7,1
	c0.2,0.4,0.2,0.9,0.2,1.3v0.1c0,0.4-0.1,0.9-0.2,1.3c-0.1,0.4-0.4,0.7-0.6,1c-0.3,0.3-0.6,0.5-1,0.7C58.9,28.3,58.4,28.4,58,28.4z
	 M58,27.8c0.3,0,0.7-0.1,1-0.2c0.3-0.1,0.5-0.3,0.7-0.5c0.2-0.3,0.4-0.5,0.5-0.9c0.1-0.3,0.2-0.7,0.2-1.1V25c0-0.3-0.1-0.7-0.2-1
	c-0.1-0.3-0.3-0.6-0.5-0.8c-0.2-0.2-0.5-0.4-0.7-0.6c-0.3-0.1-0.7-0.2-1-0.2c-0.3,0-0.7,0.1-1,0.2c-0.3,0.1-0.5,0.3-0.8,0.6
	c-0.2,0.2-0.4,0.5-0.5,0.8c-0.1,0.3-0.2,0.7-0.2,1v0.1c0,0.4,0.1,0.7,0.2,1.1c0.1,0.3,0.3,0.6,0.5,0.8c0.2,0.2,0.5,0.4,0.8,0.5
	C57.3,27.7,57.7,27.8,58,27.8z"/>
<path class="st1" d="M65.3,28.4c-0.4,0-0.9-0.1-1.3-0.2c-0.4-0.1-0.7-0.4-1-0.7c-0.3-0.3-0.5-0.6-0.6-1c-0.1-0.4-0.2-0.9-0.2-1.4V25
	c0-0.5,0.1-0.9,0.2-1.3c0.1-0.4,0.4-0.7,0.6-1c0.3-0.3,0.6-0.5,1-0.7c0.4-0.2,0.8-0.3,1.2-0.2c0.3,0,0.7,0,1,0.1
	c0.3,0.1,0.6,0.2,0.8,0.4c0.2,0.2,0.4,0.4,0.6,0.7c0.2,0.3,0.3,0.6,0.3,0.9h-0.8c0-0.4-0.2-0.8-0.6-1.1c-0.4-0.3-0.8-0.4-1.3-0.4
	c-0.3,0-0.6,0.1-0.9,0.2c-0.3,0.1-0.5,0.3-0.7,0.5c-0.2,0.2-0.4,0.5-0.5,0.8c-0.1,0.4-0.2,0.7-0.2,1.1v0.1c0,0.4,0,0.8,0.2,1.1
	c0.1,0.3,0.2,0.6,0.4,0.8c0.2,0.2,0.4,0.4,0.7,0.5c0.3,0.1,0.6,0.2,0.9,0.2c0.5,0,0.9-0.1,1.3-0.4c0.4-0.3,0.6-0.7,0.6-1.2H68
	c-0.1,0.7-0.4,1.3-0.9,1.7C66.6,28.2,65.9,28.4,65.3,28.4z"/>
<path class="st1" d="M69.3,21.8h3.8v0.6h-3v2.2h2.4v0.6h-2.4v2.4h3.2v0.6h-4L69.3,21.8z"/>
<path class="st1" d="M76.7,28.4c-0.4,0-0.8,0-1.1-0.2c-0.3-0.1-0.5-0.3-0.7-0.5c-0.2-0.2-0.3-0.4-0.4-0.7c-0.1-0.3-0.2-0.5-0.2-0.8
	H75c0,0.2,0.1,0.4,0.1,0.5c0.1,0.2,0.2,0.3,0.3,0.5c0.1,0.1,0.3,0.2,0.5,0.3c0.3,0.1,0.5,0.1,0.8,0.1c0.2,0,0.4,0,0.6-0.1
	c0.2,0,0.3-0.1,0.5-0.2c0.1-0.1,0.2-0.3,0.2-0.4c0.1-0.2,0.1-0.3,0.1-0.5c0-0.2,0-0.3-0.1-0.5c0-0.1-0.1-0.3-0.2-0.4
	c-0.1-0.1-0.3-0.2-0.5-0.2c-0.3-0.1-0.5-0.1-0.8-0.2c-0.3-0.1-0.6-0.1-0.9-0.2c-0.2-0.1-0.5-0.2-0.7-0.3c-0.2-0.1-0.3-0.3-0.4-0.5
	c-0.1-0.2-0.2-0.5-0.2-0.7c0-0.2,0.1-0.5,0.2-0.7c0.1-0.2,0.2-0.4,0.4-0.6c0.2-0.2,0.4-0.3,0.7-0.4c0.3-0.1,0.6-0.1,0.8-0.1
	c0.6,0,1.1,0.1,1.6,0.5c0.4,0.3,0.6,0.8,0.7,1.3H78c0-0.3-0.2-0.7-0.5-0.9c-0.3-0.2-0.7-0.3-1.1-0.3c-0.4,0-0.7,0.1-1,0.3
	c-0.2,0.2-0.3,0.5-0.3,0.8c0,0.1,0,0.3,0.1,0.4c0,0.1,0.1,0.2,0.2,0.3c0.1,0.1,0.3,0.2,0.5,0.2c0.3,0.1,0.5,0.1,0.8,0.2
	c0.3,0,0.7,0.1,1,0.2c0.2,0.1,0.5,0.2,0.7,0.4c0.2,0.1,0.3,0.3,0.4,0.5c0.1,0.2,0.2,0.5,0.1,0.8c0,0.3-0.1,0.5-0.2,0.8
	c-0.1,0.2-0.3,0.4-0.5,0.6c-0.2,0.2-0.5,0.3-0.7,0.4C77.3,28.3,77,28.4,76.7,28.4z"/>
<path class="st1" d="M82.3,28.4c-0.4,0-0.7,0-1.1-0.2c-0.3-0.1-0.5-0.2-0.7-0.5c-0.2-0.2-0.3-0.4-0.4-0.7c-0.1-0.3-0.2-0.5-0.2-0.8
	h0.8c0,0.2,0.1,0.4,0.1,0.5c0.1,0.2,0.2,0.3,0.3,0.5c0.1,0.1,0.3,0.2,0.5,0.3c0.3,0.1,0.5,0.1,0.8,0.1c0.2,0,0.4,0,0.6-0.1
	c0.2,0,0.3-0.1,0.5-0.2c0.1-0.1,0.2-0.2,0.3-0.4c0.1-0.2,0.1-0.3,0.1-0.5c0-0.2,0-0.3-0.1-0.5c0-0.1-0.1-0.3-0.2-0.4
	c-0.1-0.1-0.3-0.2-0.5-0.2c-0.3-0.1-0.5-0.1-0.8-0.2c-0.3-0.1-0.6-0.1-0.9-0.2c-0.2-0.1-0.5-0.2-0.7-0.3c-0.2-0.1-0.3-0.3-0.4-0.5
	c-0.1-0.2-0.1-0.5-0.1-0.7c0-0.2,0-0.5,0.2-0.7c0.1-0.2,0.3-0.4,0.4-0.6c0.2-0.2,0.4-0.3,0.7-0.4c0.3-0.1,0.6-0.1,0.8-0.1
	c0.6,0,1.1,0.1,1.6,0.5c0.4,0.3,0.6,0.8,0.7,1.3h-0.7c0-0.3-0.2-0.7-0.5-0.9c-0.3-0.2-0.6-0.3-1-0.3c-0.4,0-0.7,0.1-1,0.3
	c-0.2,0.2-0.3,0.5-0.3,0.8c0,0.1,0,0.3,0.1,0.4c0,0.1,0.1,0.2,0.2,0.3c0.1,0.1,0.3,0.2,0.5,0.2c0.3,0.1,0.5,0.1,0.8,0.2
	c0.3,0,0.7,0.1,1,0.2c0.2,0.1,0.5,0.2,0.7,0.4c0.2,0.1,0.3,0.3,0.4,0.5c0.1,0.2,0.1,0.5,0.1,0.8c0,0.3-0.1,0.5-0.2,0.8
	c-0.1,0.2-0.3,0.4-0.5,0.6c-0.2,0.2-0.5,0.3-0.7,0.4C83,28.4,82.7,28.4,82.3,28.4z"/>
<path class="st1" d="M25.2,32.3H29v0.6h-3v2.2h2.4v0.6H26v2.4h3.2v0.6h-4L25.2,32.3z"/>
<path class="st1" d="M30.5,32.3h3.8v0.6h-3v2.3h2.3v0.6h-2.3v2.9h-0.8V32.3z"/>
<path class="st1" d="M35.5,32.3h3.8v0.6h-3v2.3h2.3v0.6h-2.4v2.9h-0.8V32.3z"/>
<path class="st1" d="M40.7,32.3h0.8v6.5h-0.8V32.3z"/>
<path class="st1" d="M46,38.9c-0.4,0-0.9-0.1-1.3-0.2c-0.4-0.1-0.7-0.4-1-0.7c-0.3-0.3-0.5-0.6-0.6-1c-0.1-0.4-0.2-0.9-0.2-1.4v-0.1
	c0-0.5,0.1-0.9,0.2-1.3c0.1-0.4,0.4-0.7,0.6-1c0.3-0.3,0.6-0.5,1-0.7c0.4-0.2,0.8-0.3,1.2-0.2c0.3,0,0.7,0,1,0.1
	c0.3,0.1,0.6,0.2,0.8,0.4c0.2,0.2,0.4,0.4,0.6,0.7c0.2,0.3,0.2,0.6,0.3,0.9h-0.8c-0.1-0.4-0.3-0.8-0.6-1.1c-0.4-0.3-0.8-0.4-1.3-0.4
	c-0.6,0-1.2,0.3-1.6,0.7c-0.2,0.2-0.4,0.5-0.5,0.8c-0.1,0.4-0.2,0.7-0.2,1.1v0.1c0,0.4,0.1,0.8,0.2,1.1c0.1,0.3,0.2,0.6,0.4,0.8
	c0.2,0.2,0.4,0.4,0.7,0.5c0.3,0.1,0.6,0.2,0.9,0.2c0.5,0,0.9-0.1,1.3-0.4c0.4-0.3,0.6-0.7,0.7-1.2h0.7c-0.1,0.7-0.4,1.3-0.9,1.7
	C47.3,38.7,46.6,38.9,46,38.9z"/>
<path class="st1" d="M50,32.3h0.8v6.5H50V32.3z"/>
<path class="st1" d="M52.6,32.3h3.8v0.6h-3v2.2h2.4v0.6h-2.4v2.4h3.2v0.6h-4L52.6,32.3z"/>
<path class="st1" d="M57.9,32.3h1l3.2,5.4v-5.4h0.8v6.5h-0.9l-3.3-5.6v5.6h-0.8L57.9,32.3z"/>
<path class="st1" d="M67.3,38.9c-0.4,0-0.9-0.1-1.3-0.2c-0.4-0.1-0.7-0.4-1-0.7c-0.3-0.3-0.5-0.6-0.6-1c-0.1-0.4-0.2-0.9-0.2-1.4
	v-0.1c0-0.5,0.1-0.9,0.2-1.3c0.1-0.4,0.4-0.7,0.6-1c0.3-0.3,0.6-0.5,1-0.7c0.4-0.2,0.8-0.3,1.2-0.2c0.3,0,0.7,0,1,0.1
	c0.3,0.1,0.6,0.2,0.8,0.4c0.2,0.2,0.4,0.4,0.6,0.7c0.2,0.3,0.3,0.6,0.3,0.9h-0.8c0-0.4-0.2-0.8-0.6-1.1c-0.4-0.3-0.8-0.4-1.3-0.4
	c-0.3,0-0.6,0.1-0.9,0.2c-0.3,0.1-0.5,0.3-0.7,0.5c-0.2,0.2-0.4,0.5-0.4,0.8c-0.1,0.4-0.2,0.7-0.2,1.1v0.1c0,0.4,0,0.8,0.2,1.1
	c0.1,0.3,0.2,0.6,0.4,0.8c0.2,0.2,0.4,0.4,0.7,0.5c0.3,0.1,0.6,0.2,0.9,0.2c0.5,0,0.9-0.1,1.3-0.4c0.4-0.3,0.6-0.7,0.6-1.2H70
	c-0.1,0.7-0.4,1.3-0.9,1.7C68.6,38.7,67.9,38.9,67.3,38.9z"/>
<path class="st1" d="M72.7,36l-2.2-3.7h0.9l1.7,3l1.6-3h0.8L73.5,36v2.8h-0.8V36z"/>
<path class="st1" d="M81.9,38.9c-0.5,0-0.9-0.1-1.3-0.2c-0.4-0.2-0.7-0.4-1-0.7c-0.3-0.3-0.5-0.6-0.6-1c-0.1-0.4-0.2-0.9-0.2-1.3
	v-0.1c0-0.4,0.1-0.9,0.2-1.3c0.1-0.4,0.4-0.7,0.6-1c0.3-0.3,0.6-0.5,1-0.7c0.4-0.2,0.8-0.3,1.3-0.2c0.3,0,0.6,0,0.9,0.1
	c0.3,0.1,0.6,0.2,0.8,0.4c0.2,0.2,0.4,0.4,0.6,0.6c0.2,0.3,0.3,0.6,0.3,0.9h-0.8c0-0.4-0.3-0.8-0.6-1.1c-0.3-0.2-0.7-0.4-1.1-0.4
	c-0.3,0-0.7,0.1-1,0.2c-0.3,0.1-0.5,0.3-0.7,0.5c-0.2,0.2-0.4,0.5-0.5,0.8c-0.1,0.4-0.2,0.7-0.2,1.1v0.1c0,0.4,0,0.7,0.2,1.1
	c0.1,0.3,0.2,0.6,0.4,0.8c0.2,0.2,0.4,0.4,0.7,0.5c0.3,0.1,0.7,0.2,1,0.2c0.3,0,0.6-0.1,0.9-0.2c0.2-0.1,0.5-0.2,0.6-0.4
	c0.2-0.2,0.3-0.4,0.4-0.7c0.1-0.3,0.1-0.5,0.1-0.8h-1.9v-0.6h2.7V36c0,0.4-0.1,0.8-0.2,1.2c-0.1,0.3-0.3,0.6-0.6,0.9
	c-0.3,0.2-0.6,0.4-0.9,0.5C82.7,38.8,82.3,38.9,81.9,38.9z"/>
<path class="st1" d="M87.6,32.3h1l2.2,6.5H90l-0.6-1.9h-2.7l-0.6,1.9h-0.7L87.6,32.3z M86.9,36.3h2.2l-1.1-3.3L86.9,36.3z"/>
<path class="st1" d="M92.1,32.3h0.8v6.5h-0.8V32.3z"/>
<path class="st1" d="M94.7,32.3h1l3.2,5.4v-5.4h0.8v6.5h-0.9l-3.3-5.6v5.6h-0.8L94.7,32.3z"/>
<path class="st1" d="M103.5,38.9c-0.4,0-0.8,0-1.1-0.2c-0.3-0.1-0.5-0.3-0.7-0.5c-0.2-0.2-0.3-0.4-0.4-0.7c-0.1-0.3-0.2-0.5-0.2-0.8
	h0.8c0,0.2,0.1,0.4,0.1,0.5c0.1,0.2,0.2,0.3,0.3,0.5c0.1,0.1,0.3,0.2,0.5,0.3c0.3,0.1,0.5,0.1,0.8,0.1c0.2,0,0.4,0,0.6-0.1
	c0.2,0,0.3-0.1,0.5-0.2c0.1-0.1,0.2-0.2,0.3-0.4c0.1-0.2,0.1-0.3,0.1-0.5c0-0.2,0-0.3-0.1-0.5c-0.1-0.1-0.1-0.3-0.2-0.3
	c-0.1-0.1-0.3-0.2-0.5-0.2c-0.3-0.1-0.5-0.1-0.8-0.2c-0.3-0.1-0.6-0.1-0.9-0.2c-0.2-0.1-0.5-0.2-0.7-0.3c-0.2-0.1-0.3-0.3-0.4-0.5
	c-0.1-0.2-0.2-0.5-0.2-0.8c0-0.2,0.1-0.5,0.2-0.7c0.1-0.2,0.2-0.4,0.4-0.6c0.2-0.2,0.4-0.3,0.7-0.4c0.3-0.1,0.6-0.1,0.8-0.1
	c0.6,0,1.1,0.1,1.6,0.5c0.4,0.3,0.6,0.8,0.7,1.3h-0.7c0-0.3-0.2-0.7-0.5-0.9c-0.3-0.2-0.6-0.3-1-0.3c-0.4,0-0.7,0.1-1,0.3
	c-0.2,0.2-0.3,0.5-0.3,0.8c0,0.1,0,0.3,0.1,0.4c0,0.1,0.1,0.2,0.2,0.3c0.1,0.1,0.3,0.2,0.5,0.2c0.3,0.1,0.5,0.1,0.8,0.2
	c0.3,0,0.7,0.1,1,0.2c0.2,0.1,0.5,0.2,0.7,0.4c0.2,0.1,0.3,0.3,0.4,0.5c0.1,0.2,0.2,0.5,0.1,0.8c0,0.3-0.1,0.5-0.2,0.8
	c-0.1,0.2-0.3,0.4-0.5,0.6c-0.2,0.2-0.5,0.3-0.7,0.4C104.2,38.8,103.8,38.9,103.5,38.9z"/>
<rect x="28.7" y="67" class="st2" width="10.5" height="10.2"/>
<path class="st2" d="M19.3,77.2h84.1c3.8,0.1,6.7,3.3,6.6,7.1c-0.1,3.6-3,6.4-6.6,6.6H39.2c-3.8-0.1-7,2.8-7.1,6.6
	c-0.1,3.8,2.8,7,6.6,7.1c0.2,0,0.3,0,0.5,0h58.1"/>
<polygon class="st1" points="92.8,110.2 91.8,109.2 96.8,104.6 91.8,100 92.8,99 98.8,104.6 "/>
<circle class="st1" cx="19.3" cy="77.2" r="3.4"/>
<circle class="st1" cx="96.7" cy="77.2" r="3.4"/>
<circle class="st1" cx="72" cy="104.6" r="3.4"/>
<circle class="st1" cx="48.8" cy="90.9" r="3.4"/>
<rect x="43.5" y="46.5" class="st2" width="10.5" height="30.7"/>
<g class="st3">
	<path class="st4" d="M61,53.9c-0.3-0.3-0.5-0.8-0.5-1.4v-5.8h1.2v5.9c0,0.3,0.1,0.5,0.2,0.6c0.1,0.1,0.3,0.2,0.5,0.2
		s0.3-0.1,0.5-0.2s0.2-0.3,0.2-0.6v-5.9h1.2v5.8c0,0.6-0.2,1.1-0.5,1.4c-0.3,0.3-0.7,0.5-1.3,0.5S61.3,54.2,61,53.9z"/>
	<path class="st4" d="M64.9,46.6h1.8c0.6,0,1,0.2,1.3,0.5c0.3,0.3,0.4,0.8,0.4,1.4v0.8c0,0.6-0.1,1.1-0.4,1.4
		c-0.3,0.3-0.7,0.5-1.3,0.5h-0.6v3.1h-1.2V46.6z M66.7,50c0.2,0,0.3-0.1,0.4-0.2c0.1-0.1,0.1-0.3,0.1-0.6v-0.9c0-0.3,0-0.4-0.1-0.6
		c-0.1-0.1-0.2-0.2-0.4-0.2h-0.6V50H66.7z"/>
	<path class="st4" d="M71.8,47.7h-1.3v-1.1h3.7v1.1H73v6.5h-1.2V47.7z"/>
	<path class="st4" d="M75.2,53.9c-0.3-0.3-0.5-0.8-0.5-1.4v-4c0-0.6,0.2-1.1,0.5-1.4s0.8-0.5,1.4-0.5c0.6,0,1,0.2,1.4,0.5
		s0.5,0.8,0.5,1.4v4c0,0.6-0.2,1.1-0.5,1.4c-0.3,0.3-0.8,0.5-1.4,0.5C76,54.4,75.5,54.2,75.2,53.9z M77.2,52.5v-4.2
		c0-0.5-0.2-0.8-0.6-0.8c-0.4,0-0.6,0.3-0.6,0.8v4.2c0,0.5,0.2,0.8,0.6,0.8C77,53.3,77.2,53,77.2,52.5z"/>
</g>
<g class="st3">
	<path class="st4" d="M65.4,60.8c0-1.3-0.5-1.7-1.2-1.7c-0.7,0-1.2,0.4-1.2,1.4v0.9h-2.2v-0.8c0-2.3,1.2-3.7,3.4-3.7
		c2.3,0,3.4,1.3,3.4,3.7v0.4c0,1.6-0.5,2.6-1.6,3c1.2,0.5,1.6,1.6,1.6,3.1v1.2c0,2.3-1.2,3.7-3.4,3.7c-2.3,0-3.4-1.3-3.4-3.7v-1.2
		H63v1.4c0,1,0.5,1.4,1.2,1.4c0.7,0,1.2-0.4,1.2-1.7v-1.2c0-1.4-0.5-1.9-1.5-1.9h-0.8v-2.1H64c0.9,0,1.4-0.4,1.4-1.5V60.8z"/>
	<path class="st4" d="M69,60.8c0-2.3,1.2-3.7,3.5-3.7c2.3,0,3.5,1.3,3.5,3.7v7.6c0,2.3-1.2,3.7-3.5,3.7c-2.3,0-3.5-1.3-3.5-3.7V60.8
		z M71.3,68.5c0,1,0.5,1.4,1.2,1.4c0.7,0,1.2-0.4,1.2-1.4v-7.9c0-1-0.5-1.4-1.2-1.4c-0.7,0-1.2,0.4-1.2,1.4V68.5z"/>
	<path class="st4" d="M77.4,59.5c0-1.5,0.8-2.3,2.2-2.3s2.2,0.8,2.2,2.3v4.8c0,1.5-0.8,2.3-2.2,2.3s-2.2-0.8-2.2-2.3V59.5z
		 M78.9,64.4c0,0.6,0.3,0.9,0.8,0.9c0.5,0,0.8-0.3,0.8-0.9v-5c0-0.6-0.3-0.9-0.8-0.9c-0.5,0-0.8,0.3-0.8,0.9V64.4z M85.4,57.2h1.4
		L81,71.9h-1.4L85.4,57.2z M84.6,64.8c0-1.5,0.8-2.3,2.2-2.3s2.2,0.8,2.2,2.3v4.8c0,1.5-0.8,2.3-2.2,2.3s-2.2-0.8-2.2-2.3V64.8z
		 M86.1,69.8c0,0.6,0.3,0.9,0.8,0.9c0.5,0,0.8-0.3,0.8-0.9v-5c0-0.6-0.3-0.9-0.8-0.9c-0.5,0-0.8,0.3-0.8,0.9V69.8z"/>
</g>
</svg>
