<svg xmlns="http://www.w3.org/2000/svg" xmlns:xlink="http://www.w3.org/1999/xlink" width="130.7" height="130.7" viewBox="0 0 130.7 130.7"><defs><linearGradient id="a" x1="1.48" y1="65.35" x2="129.22" y2="65.35" gradientUnits="userSpaceOnUse"><stop offset="0" stop-color="#440073"/><stop offset="1" stop-color="#ba00c2"/></linearGradient></defs><circle cx="65.35" cy="65.35" r="63.87" stroke="#fff" stroke-miterlimit="10" stroke-width="2.93" fill="url(#a)"/><rect x="24.6" y="54.82" width="20.52" height="14.81" fill="none" stroke="#fff" stroke-linecap="round" stroke-linejoin="round" stroke-width="1.36"/><path d="M45.23,22.29h1.46v3.35h3.53V22.29h1.47v7.87H50.22V26.81H46.69v3.35H45.23Z" fill="#fff"/><path d="M53.53,22.29H55v7.87H53.53Z" fill="#fff"/><path d="M56.47,26.27v-.08a3.82,3.82,0,0,1,3.92-4c1.69,0,3.18.77,3.39,2.65H62.32a1.7,1.7,0,0,0-1.9-1.49c-1.54,0-2.43,1.14-2.43,2.87v.09c0,1.68.78,2.83,2.43,2.83a1.91,1.91,0,0,0,2.12-2h-2V26H64v.73a3.27,3.27,0,0,1-3.59,3.5A3.7,3.7,0,0,1,56.47,26.27Z" fill="#fff"/><path d="M65.39,22.29h1.46v3.35h3.53V22.29h1.48v7.87H70.38V26.81H66.85v3.35H65.39Z" fill="#fff"/><path d="M73.65,22.29h4.92v1.16H75.11V25.6h2.77v1.1H75.11V29h3.64v1.16h-5.1Z" fill="#fff"/><path d="M80.07,22.29h2.64c1.73,0,2.94.71,2.94,2.31v0a2.07,2.07,0,0,1-1.75,2.11l2.21,3.4H84.53L82.47,27h-.93v3.18H80.07Zm2.64,3.64c1,0,1.5-.41,1.5-1.25v0c0-.91-.56-1.21-1.5-1.21H81.54v2.5Z" fill="#fff"/><path d="M41.18,34.29h2.64c1.73,0,2.94.71,2.94,2.31v0A2.07,2.07,0,0,1,45,38.76l2.21,3.4H45.64L43.58,39h-.93v3.18H41.18Zm2.64,3.64c1,0,1.5-.41,1.5-1.25v0c0-.91-.56-1.21-1.5-1.21H42.65v2.5Z" fill="#fff"/><path d="M48.39,34.29h4.92v1.16H49.85V37.6h2.77v1.1H49.85V41h3.64v1.16h-5.1Z" fill="#fff"/><path d="M54.16,34.29h1.53l2.05,6.38,2-6.38h1.38l-2.66,7.87h-1.7Z" fill="#fff"/><path d="M62.32,34.29h4.92v1.16H63.79V37.6h2.77v1.1H63.79V41h3.64v1.16H62.32Z" fill="#fff"/><path d="M68.75,34.29H70.5L73.81,40V34.29h1.33v7.87H73.62l-3.54-6v6H68.75Z" fill="#fff"/><path d="M76.88,39.17V34.29h1.47v4.77c0,1.44.46,2,1.63,2s1.7-.51,1.7-2.13V34.29h1.48v4.79A2.87,2.87,0,0,1,80,42.27,2.79,2.79,0,0,1,76.88,39.17Z" fill="#fff"/><path d="M84.9,34.29h4.91v1.16H86.36V37.6h2.77v1.1H86.36V41H90v1.16H84.9Z" fill="#fff"/><path d="M59.49,58.61c0-1.32-.46-1.67-1.19-1.67s-1.19.4-1.19,1.44v.94H54.93v-.79c0-2.34,1.17-3.68,3.43-3.68s3.43,1.34,3.43,3.68v.38c0,1.57-.5,2.55-1.61,3,1.15.5,1.61,1.59,1.61,3.07v1.15c0,2.35-1.17,3.69-3.43,3.69s-3.43-1.34-3.43-3.69V64.93h2.18v1.36c0,1,.46,1.44,1.19,1.44s1.19-.35,1.19-1.65V64.93c0-1.36-.46-1.86-1.5-1.86h-.78V61h.9c.86,0,1.38-.38,1.38-1.55Z" fill="#fff"/><path d="M63.24,61.29h4.18v2.09H63.24Z" fill="#fff"/><path d="M68.44,64.91,72.63,55h2.51v9.9h1.09V67H75.14v2.66H72.88V67H68.44Zm4.44,0v-5.5l-2.32,5.5Z" fill="#fff"/><path d="M92.38,69.66a4.64,4.64,0,0,1-.21-1.8v-2.3c0-1.36-.46-1.86-1.5-1.86h-.8v6h-2.3V55H91c2.39,0,3.41,1.11,3.41,3.37v1.15c0,1.51-.48,2.49-1.5,3,1.15.49,1.52,1.59,1.52,3.12v2.26a4.52,4.52,0,0,0,.25,1.78ZM89.87,57.11V61.6h.9c.86,0,1.38-.37,1.38-1.54V58.61c0-1-.35-1.5-1.17-1.5Z" fill="#fff"/><path d="M95.79,58.53c0-2.34,1.24-3.68,3.5-3.68s3.49,1.34,3.49,3.68v7.61c0,2.35-1.24,3.69-3.49,3.69s-3.5-1.34-3.5-3.69Zm2.3,7.76c0,1,.46,1.44,1.2,1.44s1.19-.39,1.19-1.44V58.38c0-1-.46-1.44-1.19-1.44s-1.2.4-1.2,1.44Z" fill="#fff"/><path d="M104.26,55h2.3V69.66h-2.3Z" fill="#fff"/><path d="M82.17,62l-1.26,3.71,1.34,3.93H81l-1-3-1,3H77.89l1.34-3.93L78,62h1.24l.91,2.82L81.05,62Z" fill="#fff"/><path d="M36.19,58.33v-.57h1v.57c.85.17,1.29.83,1.29,1.87v.24H37.33v-.32c0-.55-.22-.75-.6-.75s-.61.2-.61.75c0,1.57,2.35,1.65,2.35,3.83a1.67,1.67,0,0,1-1.3,1.87v.56h-1v-.56A1.66,1.66,0,0,1,34.89,64v-.53H36V64c0,.55.24.75.62.75s.62-.2.62-.75c0-1.57-2.35-1.64-2.35-3.82A1.67,1.67,0,0,1,36.19,58.33Z" fill="#fff"/><path d="M97.65,80.89v-.56h1v.56a1.66,1.66,0,0,1,1.29,1.87V83H98.78v-.32c0-.54-.21-.75-.6-.75s-.6.21-.6.75c0,1.57,2.35,1.65,2.35,3.83a1.68,1.68,0,0,1-1.3,1.88v.55h-1v-.55a1.67,1.67,0,0,1-1.3-1.88V86h1.14v.6c0,.54.24.74.62.74s.62-.2.62-.74c0-1.57-2.35-1.65-2.35-3.83A1.67,1.67,0,0,1,97.65,80.89Z" fill="#fff"/><line x1="24.58" y1="47" x2="24.58" y2="100.02" fill="none" stroke="#fff" stroke-linecap="round" stroke-linejoin="round" stroke-width="1.36"/><rect x="24.79" y="77.39" width="81.33" height="14.81" fill="none" stroke="#fff" stroke-linecap="round" stroke-linejoin="round" stroke-width="1.36"/></svg>