<?xml version="1.0" encoding="utf-8"?>
<!-- Generator: Adobe Illustrator 25.4.1, SVG Export Plug-In . SVG Version: 6.00 Build 0)  -->
<svg version="1.1" id="Layer_1" xmlns="http://www.w3.org/2000/svg" xmlns:xlink="http://www.w3.org/1999/xlink" x="0px" y="0px"
	 viewBox="0 0 130.7 130.7" style="enable-background:new 0 0 130.7 130.7;" xml:space="preserve">
<style type="text/css">
	.st0{fill:url(#SVGID_1_);stroke:#FFFFFF;stroke-width:2.93;stroke-miterlimit:10;}
	.st1{fill:#FFFFFF;}
	.st2{enable-background:new    ;}
	.st3{fill:#F600F9;}
	.st4{fill:none;stroke:#FFFFFF;stroke-width:1.36;stroke-miterlimit:10;}
	.st5{fill:none;stroke:#FFFFFF;stroke-width:1.82;stroke-linecap:round;stroke-miterlimit:10;}
	.st6{fill:none;stroke:#FFFFFF;stroke-width:1.82;stroke-linecap:round;stroke-linejoin:round;}
</style>
<linearGradient id="SVGID_1_" gradientUnits="userSpaceOnUse" x1="1.47" y1="66.66" x2="129.21" y2="66.66" gradientTransform="matrix(1 0 0 -1 0 132)">
	<stop  offset="0" style="stop-color:#3D026E"/>
	<stop  offset="1" style="stop-color:#AA02BC"/>
</linearGradient>
<circle class="st0" cx="65.3" cy="65.3" r="63.9"/>
<path class="st1" d="M37.7,30.2c-0.4,0-0.9-0.1-1.3-0.2c-0.4-0.1-0.7-0.4-1-0.7c-0.3-0.3-0.5-0.6-0.6-1c-0.1-0.4-0.2-0.9-0.2-1.4
	v-0.1c0-0.5,0.1-0.9,0.2-1.3c0.1-0.4,0.4-0.7,0.6-1c0.3-0.3,0.6-0.5,1-0.7c0.4-0.2,0.8-0.3,1.2-0.2c0.3,0,0.7,0,1,0.1
	c0.3,0.1,0.6,0.2,0.8,0.4c0.2,0.2,0.4,0.4,0.6,0.7c0.2,0.3,0.3,0.6,0.3,0.9h-0.8c0-0.5-0.3-0.9-0.6-1.2c-0.4-0.3-0.8-0.4-1.3-0.4
	c-0.3,0-0.6,0.1-0.9,0.2c-0.3,0.1-0.5,0.3-0.7,0.5c-0.2,0.2-0.4,0.5-0.5,0.8c-0.1,0.4-0.2,0.7-0.2,1.1v0.1c0,0.4,0,0.8,0.2,1.1
	c0.1,0.3,0.2,0.6,0.4,0.8c0.2,0.2,0.4,0.4,0.7,0.5c0.3,0.1,0.6,0.2,1,0.2c0.5,0,0.9-0.1,1.3-0.4c0.4-0.3,0.6-0.7,0.7-1.2h0.7
	c-0.1,0.7-0.4,1.3-0.9,1.7C39,30.1,38.4,30.2,37.7,30.2z"/>
<path class="st1" d="M43.8,30.2c-0.4,0-0.8,0-1.1-0.2c-0.3-0.1-0.5-0.2-0.7-0.5c-0.2-0.2-0.3-0.4-0.4-0.7c-0.1-0.3-0.2-0.5-0.2-0.8
	h0.8c0,0.2,0.1,0.4,0.1,0.5c0.1,0.2,0.2,0.3,0.3,0.5c0.1,0.1,0.3,0.2,0.5,0.3c0.3,0.1,0.5,0.1,0.8,0.1c0.2,0,0.4,0,0.6-0.1
	c0.2,0,0.3-0.1,0.5-0.2c0.1-0.1,0.2-0.2,0.3-0.4c0.1-0.2,0.1-0.3,0.1-0.5c0-0.2,0-0.3-0.1-0.5c-0.1-0.1-0.1-0.3-0.2-0.4
	c-0.1-0.1-0.3-0.2-0.5-0.2c-0.2-0.1-0.5-0.1-0.8-0.2c-0.3-0.1-0.6-0.1-0.9-0.2c-0.2-0.1-0.5-0.2-0.7-0.3c-0.2-0.1-0.3-0.3-0.4-0.5
	c-0.1-0.2-0.2-0.5-0.2-0.8c0-0.2,0.1-0.5,0.2-0.7c0.1-0.2,0.2-0.4,0.4-0.6c0.2-0.2,0.4-0.3,0.7-0.4c0.3-0.1,0.6-0.1,0.8-0.1
	c0.6,0,1.1,0.1,1.6,0.5c0.4,0.3,0.6,0.8,0.7,1.3h-0.7c0-0.3-0.2-0.7-0.5-0.9c-0.3-0.2-0.7-0.3-1-0.3c-0.4,0-0.7,0.1-1,0.3
	c-0.2,0.2-0.3,0.5-0.3,0.8c0,0.1,0,0.3,0.1,0.4c0,0.1,0.1,0.2,0.2,0.3c0.1,0.1,0.3,0.2,0.5,0.2c0.3,0.1,0.5,0.1,0.8,0.2
	c0.3,0,0.7,0.1,1,0.2c0.2,0.1,0.5,0.2,0.7,0.4c0.2,0.1,0.3,0.3,0.4,0.5c0.1,0.2,0.2,0.5,0.1,0.8c0,0.3-0.1,0.5-0.2,0.8
	c-0.1,0.2-0.3,0.4-0.5,0.6c-0.2,0.2-0.5,0.3-0.7,0.4C44.5,30.2,44.2,30.2,43.8,30.2z"/>
<path class="st1" d="M49.1,23.6h1l2.2,6.5h-0.8l-0.6-1.9h-2.7l-0.6,1.9h-0.7L49.1,23.6z M48.4,27.6h2.3l-1.1-3.3L48.4,27.6z"/>
<path class="st1" d="M54.3,24.3h-1.9v-0.6h4.6v0.6H55v5.9h-0.8V24.3z"/>
<path class="st1" d="M62.6,30.2c-0.4,0-0.7,0-1.1-0.2c-0.3-0.1-0.5-0.2-0.7-0.5c-0.2-0.2-0.3-0.4-0.4-0.7c-0.1-0.3-0.2-0.5-0.2-0.8
	h0.8c0,0.2,0.1,0.4,0.1,0.5c0.1,0.2,0.2,0.3,0.3,0.5c0.1,0.1,0.3,0.2,0.5,0.3c0.3,0.1,0.5,0.1,0.8,0.1c0.2,0,0.4,0,0.6-0.1
	c0.2,0,0.3-0.1,0.5-0.2c0.1-0.1,0.2-0.2,0.3-0.4c0.1-0.2,0.1-0.3,0.1-0.5c0-0.2,0-0.3-0.1-0.5c0-0.1-0.1-0.3-0.2-0.4
	c-0.1-0.1-0.3-0.2-0.5-0.2c-0.3-0.1-0.5-0.1-0.8-0.2c-0.3-0.1-0.6-0.1-0.9-0.2c-0.2-0.1-0.5-0.2-0.7-0.3c-0.2-0.1-0.3-0.3-0.4-0.5
	c-0.1-0.2-0.1-0.5-0.1-0.8c0-0.2,0-0.5,0.2-0.7c0.1-0.2,0.3-0.4,0.4-0.6c0.2-0.2,0.4-0.3,0.7-0.4c0.3-0.1,0.6-0.1,0.8-0.1
	c0.5,0,1.1,0.1,1.5,0.4c0.4,0.3,0.6,0.8,0.7,1.3H64c0-0.3-0.2-0.7-0.5-0.9c-0.3-0.2-0.7-0.3-1-0.3c-0.4,0-0.7,0.1-1,0.3
	c-0.2,0.2-0.3,0.5-0.3,0.8c0,0.1,0,0.3,0.1,0.4c0,0.1,0.1,0.2,0.2,0.3c0.1,0.1,0.3,0.2,0.5,0.2c0.3,0.1,0.5,0.1,0.8,0.2
	c0.3,0,0.7,0.1,1,0.2c0.2,0.1,0.5,0.2,0.7,0.4c0.2,0.1,0.3,0.3,0.4,0.5c0.1,0.2,0.1,0.5,0.1,0.8c0,0.3-0.1,0.5-0.2,0.8
	c-0.1,0.2-0.3,0.4-0.5,0.6c-0.2,0.2-0.5,0.3-0.7,0.4C63.3,30.2,63,30.2,62.6,30.2z"/>
<path class="st1" d="M69,30.2c-0.4,0-0.8-0.1-1.2-0.2c-0.4-0.1-0.7-0.4-1-0.7c-0.3-0.3-0.5-0.6-0.6-1C66,27.9,66,27.4,66,26.9v-0.1
	c0-0.5,0.1-0.9,0.2-1.3c0.1-0.4,0.4-0.7,0.6-1c0.3-0.3,0.6-0.5,1-0.7c0.4-0.2,0.8-0.3,1.2-0.2c0.3,0,0.7,0,1,0.1
	c0.3,0.1,0.6,0.2,0.8,0.4c0.2,0.2,0.4,0.4,0.6,0.7c0.2,0.3,0.3,0.6,0.3,0.9h-0.9c0-0.4-0.3-0.8-0.6-1.1c-0.4-0.3-0.8-0.4-1.3-0.4
	c-0.3,0-0.6,0.1-0.9,0.2c-0.3,0.1-0.5,0.3-0.7,0.5c-0.2,0.2-0.4,0.5-0.5,0.8c-0.1,0.4-0.2,0.7-0.2,1.1v0.1c0,0.4,0.1,0.8,0.2,1.1
	c0.1,0.3,0.2,0.6,0.4,0.8c0.2,0.2,0.4,0.4,0.7,0.5c0.3,0.1,0.6,0.2,0.9,0.2c0.5,0,0.9-0.1,1.3-0.4c0.3-0.3,0.6-0.7,0.6-1.2h0.7
	c-0.1,0.7-0.4,1.3-0.9,1.7C70.3,30.1,69.7,30.3,69,30.2z"/>
<path class="st1" d="M76,30.2c-0.5,0-0.9-0.1-1.3-0.2c-0.4-0.2-0.7-0.4-1-0.7c-0.3-0.3-0.5-0.6-0.7-1c-0.2-0.4-0.2-0.8-0.2-1.3v-0.1
	c0-0.5,0.1-0.9,0.2-1.4c0.1-0.4,0.4-0.7,0.7-1c0.3-0.3,0.6-0.5,1-0.7c0.8-0.3,1.8-0.3,2.6,0c0.8,0.3,1.4,1,1.7,1.8
	c0.2,0.4,0.2,0.8,0.2,1.3v0.1c0,0.4-0.1,0.9-0.2,1.3c-0.1,0.4-0.4,0.7-0.6,1c-0.3,0.3-0.6,0.5-1,0.7C76.9,30.1,76.4,30.2,76,30.2z
	 M76,29.6c0.3,0,0.7-0.1,1-0.2c0.3-0.1,0.5-0.3,0.7-0.5c0.2-0.3,0.4-0.5,0.5-0.9c0.1-0.3,0.2-0.7,0.2-1.1v-0.1c0-0.3-0.1-0.7-0.2-1
	c-0.1-0.3-0.3-0.6-0.5-0.8c-0.2-0.2-0.5-0.4-0.7-0.6c-0.3-0.1-0.7-0.2-1-0.2c-0.3,0-0.7,0.1-1,0.2c-0.3,0.1-0.5,0.3-0.8,0.5
	c-0.2,0.2-0.4,0.5-0.5,0.9c-0.1,0.3-0.2,0.7-0.2,1.1V27c0,0.4,0,0.7,0.1,1c0.1,0.3,0.3,0.6,0.5,0.8c0.2,0.2,0.5,0.4,0.8,0.5
	C75.3,29.5,75.7,29.6,76,29.6z"/>
<path class="st1" d="M80.5,23.6h2c0.3,0,0.6,0,0.9,0.1c0.3,0.1,0.5,0.2,0.7,0.3c0.2,0.1,0.4,0.3,0.5,0.6c0.1,0.3,0.2,0.5,0.2,0.8
	l0,0c0,0.2,0,0.5-0.1,0.7c-0.1,0.2-0.2,0.4-0.3,0.5c-0.2,0.1-0.3,0.3-0.5,0.4c-0.2,0.1-0.4,0.2-0.6,0.2l2,2.9h-0.9l-1.9-2.8h-1v2.8
	h-0.8L80.5,23.6z M82.5,26.7c0.4,0,0.8-0.1,1.1-0.3c0.3-0.2,0.4-0.6,0.4-0.9l0,0c0-0.2,0-0.4-0.1-0.5c-0.1-0.1-0.2-0.3-0.3-0.4
	c-0.1-0.1-0.3-0.2-0.4-0.2c-0.2,0-0.4-0.1-0.6-0.1h-1.2v2.4L82.5,26.7z"/>
<path class="st1" d="M86.4,23.6h3.8v0.6h-3v2.2h2.4v0.6h-2.4v2.4h3.2v0.6h-4L86.4,23.6z"/>
<path class="st1" d="M93.7,30.2c-0.4,0-0.7,0-1.1-0.2c-0.3-0.1-0.5-0.2-0.7-0.5c-0.2-0.2-0.3-0.4-0.4-0.7c-0.1-0.3-0.2-0.5-0.2-0.8
	H92c0,0.2,0.1,0.4,0.1,0.5c0.1,0.2,0.2,0.3,0.3,0.5c0.1,0.1,0.3,0.2,0.5,0.3c0.3,0.1,0.5,0.1,0.8,0.1c0.2,0,0.4,0,0.6-0.1
	c0.3-0.1,0.6-0.3,0.8-0.6c0.1-0.2,0.1-0.3,0.1-0.5c0-0.2,0-0.3-0.1-0.5c-0.1-0.1-0.1-0.3-0.2-0.4c-0.1-0.1-0.3-0.2-0.5-0.2
	c-0.3-0.1-0.5-0.1-0.8-0.2c-0.3-0.1-0.6-0.1-0.9-0.2c-0.2-0.1-0.5-0.2-0.7-0.3c-0.2-0.1-0.3-0.3-0.4-0.5c-0.1-0.2-0.1-0.5-0.1-0.8
	c0-0.2,0-0.5,0.2-0.7c0.1-0.2,0.2-0.4,0.4-0.6c0.2-0.2,0.4-0.3,0.7-0.4c0.3-0.1,0.6-0.1,0.8-0.1c0.6,0,1.1,0.1,1.6,0.5
	c0.4,0.3,0.6,0.8,0.7,1.3h-0.7c0-0.3-0.2-0.7-0.5-0.9c-0.3-0.2-0.6-0.3-1-0.3c-0.4,0-0.7,0.1-1,0.3c-0.2,0.2-0.3,0.5-0.3,0.8
	c0,0.1,0,0.3,0.1,0.4c0,0.1,0.1,0.2,0.2,0.3c0.1,0.1,0.3,0.2,0.5,0.2c0.3,0.1,0.5,0.1,0.8,0.2c0.3,0,0.6,0.1,0.9,0.2
	c0.2,0.1,0.5,0.2,0.7,0.4c0.2,0.1,0.3,0.3,0.4,0.5C96,27.8,96,28,96,28.3c0,0.3-0.1,0.5-0.2,0.8c-0.1,0.2-0.3,0.4-0.5,0.6
	c-0.2,0.2-0.5,0.3-0.7,0.4C94.4,30.2,94,30.2,93.7,30.2z"/>
<path class="st1" d="M46.2,34.1H47v6.5h-0.8L46.2,34.1z"/>
<path class="st1" d="M48.8,34.1h1.1l2,5.1l2-5.1h1.1v6.5h-0.8v-5.5L52,40.6h-0.2l-2.2-5.5v5.5h-0.7L48.8,34.1z"/>
<path class="st1" d="M56.7,34.1h1.8c0.3,0,0.6,0,0.9,0.1c0.3,0.1,0.5,0.2,0.7,0.3c0.2,0.2,0.4,0.4,0.5,0.6c0.1,0.3,0.2,0.6,0.2,0.9
	l0,0c0,0.3-0.1,0.6-0.2,0.9c-0.1,0.2-0.3,0.4-0.5,0.6c-0.2,0.2-0.5,0.3-0.7,0.3c-0.3,0.1-0.6,0.1-0.9,0.1h-1.1v2.7h-0.8L56.7,34.1z
	 M58.6,37.3c0.4,0,0.8-0.1,1.1-0.3c0.3-0.3,0.4-0.6,0.4-1l0,0c0-0.4-0.1-0.8-0.4-1c-0.3-0.2-0.6-0.3-1-0.3h-1.2v2.6L58.6,37.3z"/>
<path class="st1" d="M62,34.1h2c0.3,0,0.6,0,0.9,0.1c0.3,0.1,0.5,0.2,0.7,0.3c0.2,0.1,0.4,0.3,0.5,0.6c0.1,0.3,0.2,0.5,0.2,0.8l0,0
	c0,0.2,0,0.5-0.1,0.7c-0.1,0.2-0.2,0.4-0.3,0.5c-0.2,0.1-0.3,0.3-0.5,0.3c-0.2,0.1-0.4,0.2-0.6,0.2l2,2.9h-0.9l-1.9-2.8h-1v2.9H62
	V34.1z M64,37.1c0.4,0,0.8-0.1,1.1-0.3c0.3-0.2,0.4-0.6,0.4-0.9l0,0c0-0.2,0-0.4-0.1-0.5c0-0.1-0.1-0.3-0.2-0.3
	c-0.1-0.1-0.3-0.2-0.4-0.2c-0.2,0-0.4-0.1-0.6-0.1h-1.2v2.4L64,37.1z"/>
<path class="st1" d="M70.7,40.7c-0.4,0-0.9-0.1-1.3-0.3c-0.4-0.2-0.7-0.4-1-0.7c-0.3-0.3-0.5-0.6-0.7-1c-0.2-0.4-0.2-0.8-0.2-1.3
	v-0.1c0-0.4,0.1-0.9,0.2-1.3c0.1-0.4,0.4-0.7,0.6-1.1c0.3-0.3,0.6-0.5,1-0.7c0.4-0.2,0.9-0.3,1.3-0.2c0.4,0,0.9,0.1,1.3,0.2
	c0.4,0.2,0.7,0.4,1,0.7c0.3,0.3,0.5,0.6,0.7,1c0.2,0.4,0.2,0.8,0.2,1.3v0.1c0,0.4-0.1,0.9-0.2,1.3c-0.2,0.4-0.4,0.7-0.6,1
	c-0.3,0.3-0.6,0.5-1,0.7C71.6,40.6,71.1,40.7,70.7,40.7z M70.7,40c0.3,0,0.7-0.1,1-0.2c0.3-0.1,0.5-0.3,0.7-0.5
	c0.2-0.3,0.4-0.5,0.5-0.8c0.1-0.4,0.1-0.7,0.1-1.1v-0.1c0-0.3-0.1-0.7-0.2-1c-0.1-0.3-0.3-0.6-0.5-0.8c-0.2-0.2-0.5-0.4-0.7-0.6
	c-0.3-0.1-0.7-0.2-1-0.2c-0.3,0-0.7,0.1-1,0.2c-0.3,0.1-0.5,0.3-0.8,0.5c-0.2,0.3-0.4,0.5-0.5,0.8c-0.1,0.3-0.2,0.7-0.2,1.1v0.1
	c0,0.4,0.1,0.7,0.2,1.1c0.1,0.3,0.3,0.6,0.5,0.8c0.2,0.2,0.5,0.4,0.8,0.5C70,40,70.3,40.1,70.7,40z"/>
<path class="st1" d="M74.4,34.1h0.8l1.9,5.7l1.9-5.7h0.8l-2.2,6.5h-0.9L74.4,34.1z"/>
<path class="st1" d="M81,34.1h3.8v0.6h-3V37h2.4v0.6h-2.4V40H85v0.6h-4V34.1z"/>
<g class="st2">
	<path class="st3" d="M56.9,91.5c-0.3-0.3-0.5-0.8-0.5-1.4v-5.8h1.2v5.9c0,0.3,0.1,0.5,0.2,0.6c0.1,0.1,0.3,0.2,0.5,0.2
		s0.3-0.1,0.5-0.2s0.2-0.3,0.2-0.6v-5.9H60V90c0,0.6-0.2,1.1-0.5,1.4c-0.3,0.3-0.7,0.5-1.3,0.5S57.2,91.8,56.9,91.5z"/>
	<path class="st3" d="M60.9,84.2h1.8c0.6,0,1,0.2,1.3,0.5c0.3,0.3,0.4,0.8,0.4,1.4v0.8c0,0.6-0.1,1.1-0.4,1.4
		c-0.3,0.3-0.7,0.5-1.3,0.5h-0.6v3.1h-1.2V84.2z M62.6,87.6c0.2,0,0.3-0.1,0.4-0.2c0.1-0.1,0.1-0.3,0.1-0.6V86c0-0.3,0-0.4-0.1-0.6
		c-0.1-0.1-0.2-0.2-0.4-0.2h-0.6v2.3H62.6z"/>
	<path class="st3" d="M67.7,85.3h-1.3v-1.1h3.7v1.1h-1.3v6.5h-1.2V85.3z"/>
	<path class="st3" d="M71.1,91.4c-0.3-0.3-0.5-0.8-0.5-1.4v-4c0-0.6,0.2-1.1,0.5-1.4s0.8-0.5,1.4-0.5c0.6,0,1,0.2,1.4,0.5
		c0.3,0.3,0.5,0.8,0.5,1.4v4c0,0.6-0.2,1.1-0.5,1.4c-0.3,0.3-0.8,0.5-1.4,0.5C71.9,91.9,71.4,91.8,71.1,91.4z M73.1,90.1v-4.2
		c0-0.5-0.2-0.8-0.6-0.8c-0.4,0-0.6,0.3-0.6,0.8v4.2c0,0.5,0.2,0.8,0.6,0.8C72.9,90.9,73.1,90.6,73.1,90.1z"/>
</g>
<g class="st2">
	<path class="st3" d="M50.8,105.6l4.2-9.9h2.5v9.9h1.1v2.1h-1.1v2.7h-2.3v-2.7h-4.4V105.6z M55.2,105.6v-5.5l-2.3,5.5H55.2z"/>
	<path class="st3" d="M59.4,99.3c0-2.3,1.2-3.7,3.5-3.7s3.5,1.3,3.5,3.7v7.6c0,2.3-1.2,3.7-3.5,3.7s-3.5-1.3-3.5-3.7V99.3z
		 M61.7,107c0,1,0.5,1.4,1.2,1.4c0.7,0,1.2-0.4,1.2-1.4v-7.9c0-1-0.5-1.4-1.2-1.4c-0.7,0-1.2,0.4-1.2,1.4V107z"/>
	<path class="st3" d="M67.8,98c0-1.5,0.8-2.3,2.2-2.3s2.2,0.8,2.2,2.3v4.8c0,1.5-0.8,2.3-2.2,2.3s-2.2-0.8-2.2-2.3V98z M69.2,102.9
		c0,0.6,0.3,0.9,0.8,0.9c0.5,0,0.8-0.3,0.8-0.9v-5c0-0.6-0.3-0.9-0.8-0.9c-0.5,0-0.8,0.3-0.8,0.9V102.9z M75.8,95.7h1.4l-5.8,14.6
		H70L75.8,95.7z M75,103.3c0-1.5,0.8-2.3,2.2-2.3s2.2,0.8,2.2,2.3v4.8c0,1.5-0.8,2.3-2.2,2.3s-2.2-0.8-2.2-2.3V103.3z M76.5,108.3
		c0,0.6,0.3,0.9,0.8,0.9c0.5,0,0.8-0.3,0.8-0.9v-5c0-0.6-0.3-0.9-0.8-0.9c-0.5,0-0.8,0.3-0.8,0.9V108.3z"/>
</g>
<circle class="st4" cx="34.1" cy="63.7" r="16.3"/>
<circle class="st1" cx="28" cy="60.4" r="1.6"/>
<circle class="st1" cx="40.1" cy="60.4" r="1.6"/>
<path class="st5" d="M26.4,71.3c5.1-3.3,10.2-3.3,15.3,0"/>
<circle class="st4" cx="96.6" cy="63.7" r="16.3"/>
<circle class="st1" cx="90.5" cy="60.4" r="1.6"/>
<circle class="st1" cx="102.7" cy="60.4" r="1.6"/>
<path class="st5" d="M104.3,68.8c-5.1,3.3-10.2,3.3-15.3,0"/>
<line class="st5" x1="50.9" y1="64" x2="74.6" y2="64"/>
<polyline class="st6" points="70.8,59.4 75.4,64 70.8,68.5 "/>
</svg>
