<svg xmlns="http://www.w3.org/2000/svg" xmlns:xlink="http://www.w3.org/1999/xlink" width="1000" height="356.2" viewBox="0 0 1000 356.2"><defs><clipPath id="a"><rect width="999.2" height="356.2" fill="none"/></clipPath><linearGradient id="b" x1="1085.7" y1="-440.05" x2="644.44" y2="-440.05" gradientTransform="matrix(1, 0, 0, -1, 0, -364)" gradientUnits="userSpaceOnUse"><stop offset="0" stop-color="#525252"/><stop offset="1" stop-color="#b9b9b9" stop-opacity="0"/></linearGradient><linearGradient id="e" x1="915.13" y1="-415.05" x2="1001.36" y2="-415.05" gradientTransform="matrix(1, 0, 0, -1, 0, -364)" gradientUnits="userSpaceOnUse"><stop offset="0" stop-color="#b9b9b9"/><stop offset="1" stop-color="#b9b9b9" stop-opacity="0"/></linearGradient><linearGradient id="f" x1="952.82" y1="-415.05" x2="897.95" y2="-415.05" gradientTransform="matrix(1, 0, 0, -1, 0, -364)" gradientUnits="userSpaceOnUse"><stop offset="0" stop-color="#e2e2e2"/><stop offset="1" stop-color="#d4d4d4" stop-opacity="0"/></linearGradient><clipPath id="g"><path d="M1017.8,377.4H-63.2V278.6h311a38.41,38.41,0,0,0,27.8-11.8L328.5,214a38.81,38.81,0,0,1,27.8-11.8h76.6a39,39,0,0,0,25.4-9.5l53.5-53.2a38.57,38.57,0,0,1,25.3-9.5h80.3c13.7,0,198,2,198,2,22.3,0,38.7-21.6,38.7-21.6a38.78,38.78,0,0,1,32.6-17.9H1006" fill="none"/></clipPath><clipPath id="h"><polygon points="1338.2 -616.6 -414 -607.3 -409.5 564.8 1342.7 555.5 1338.2 -616.6" fill="none"/></clipPath><clipPath id="i"><polygon points="-617.2 -840.8 -611 800.4 1546 789 1539.7 -852.2 -617.2 -840.8" fill="none"/></clipPath><linearGradient id="j" x1="1033.43" y1="-292.07" x2="672.91" y2="-652.59" gradientTransform="matrix(1, 0, 0, -1, 0, -364)" gradientUnits="userSpaceOnUse"><stop offset="0" stop-color="#959595"/><stop offset="1" stop-color="#1c1c1c" stop-opacity="0"/></linearGradient><linearGradient id="k" x1="866.67" y1="-284.49" x2="346.69" y2="-804.46" gradientTransform="matrix(1, 0, 0, -1, 0, -364)" gradientUnits="userSpaceOnUse"><stop offset="0" stop-color="#1c1c1c" stop-opacity="0"/><stop offset="1" stop-color="#959595" stop-opacity="0.5"/></linearGradient><clipPath id="l"><rect x="630.8" y="64.5" width="118.7" height="65.9" fill="none"/></clipPath><linearGradient id="m" x1="695.2" y1="-503.2" x2="695.2" y2="-420.04" gradientTransform="matrix(1, 0, 0, -1, 0, -364)" gradientUnits="userSpaceOnUse"><stop offset="0" stop-color="#fff"/><stop offset="0.48" stop-color="#fff" stop-opacity="0"/><stop offset="1" stop-color="#fff" stop-opacity="0.6"/></linearGradient><clipPath id="n"><rect x="914.7" y="5.2" width="76.4" height="87.2" fill="none"/></clipPath><clipPath id="o"><polygon points="960.9 64.9 956.6 38.7 944.4 38.7 939.8 64.9 960.9 64.9" fill="none"/></clipPath></defs><g clip-path="url(#a)"><rect x="587.4" y="30.3" width="418.7" height="91.5" fill="url(#b)"/><rect x="587.4" y="30.3" width="418.7" height="91.5" fill="url(#b)"/><rect x="587.4" y="30.3" width="418.7" height="91.5" fill="url(#b)"/><polygon points="-34.8 231.2 234.2 231.2 422.4 71.2 499.5 29.4 1002.6 29.4 1002.6 128.2 173.2 369 -40.8 350.4 -34.8 231.2" fill="#ebebeb"/><polyline points="950.3 32.3 1011.1 72 1011.1 30.1 950.3 30.3" fill="url(#e)"/><polyline points="950.3 32.3 889.6 72 889.6 30.1 950.3 30.3" fill="url(#f)"/><path d="M-14,267H34.6a4,4,0,0,0,4-4h0a4,4,0,0,0-4-4H24.1a5.91,5.91,0,0,1-5.9-5.9h0a5.91,5.91,0,0,1,5.9-5.9h77a6.7,6.7,0,0,1,6.7,6.7h0a6.7,6.7,0,0,0,6.7,6.7H251a21.72,21.72,0,0,0,15.4-6.4l50.1-50.1a20.06,20.06,0,0,1,14.2-5.9h16.5a8.92,8.92,0,0,0,8.9-8.9h0v-2a8.92,8.92,0,0,0-8.9-8.9H333.4a4.06,4.06,0,0,1-4-3.9v-1.7a3.93,3.93,0,0,1,4-3.9h97.1a4.11,4.11,0,0,0,2.8-1.1l5-5a4,4,0,0,0-.2-5.7,3.81,3.81,0,0,0-2.6-1.1H417.9a6.59,6.59,0,0,1-6.6-6.6h0a6.59,6.59,0,0,1,6.6-6.6H463a6.81,6.81,0,0,0,6.8-6.8h0a6.74,6.74,0,0,1,6.8-6.8h9.1a6.81,6.81,0,0,0,6.8-6.8h0v-3.9a11.65,11.65,0,0,1,11.7-11.7H869.7a4,4,0,0,1,4,4V309.2a4,4,0,0,1-4,4H-14a4,4,0,0,1-4-4V270.9A4.06,4.06,0,0,1-14,267Z" fill="#d6d6d6"/><path d="M1017.8,377.4H-63.2V278.6h311a38.41,38.41,0,0,0,27.8-11.8L328.5,214a38.81,38.81,0,0,1,27.8-11.8h76.6a39,39,0,0,0,25.4-9.5l53.5-53.2a38.57,38.57,0,0,1,25.3-9.5h80.3c13.7,0,198,2,198,2,22.3,0,38.7-21.6,38.7-21.6a38.78,38.78,0,0,1,32.6-17.9H1006" fill="#444"/><g clip-path="url(#g)"><rect x="503.2" y="7.7" width="529.1" height="372.1" fill="url(#j)"/><rect x="-76" y="213.3" width="1118.9" height="180.8" fill="url(#k)"/></g><rect x="630.8" y="58.3" width="118.7" height="72.1" fill="#525252"/><rect x="749.4" y="58.3" width="10.7" height="72.1" fill="#272727"/><line x1="749.4" y1="87.8" x2="760.1" y2="87.8" fill="none" stroke="#595959" stroke-miterlimit="10" stroke-width="1.46"/><polygon points="760.1 84.6 760.1 90.9 752 90.9 749.7 87.8 752 84.6 760.1 84.6" fill="#595959"/><polygon points="660.5 84.6 662.7 87.8 660.5 90.9 634.8 90.9 632.6 87.8 634.8 84.6 660.5 84.6" fill="#a1a1a1"/><polygon points="718.5 84.6 720.8 87.8 718.5 90.9 692.9 90.9 690.6 87.8 692.9 84.6 718.5 84.6" fill="#a1a1a1"/><line x1="640.2" y1="87.8" x2="749.4" y2="87.8" fill="none" stroke="#a1a1a1" stroke-miterlimit="10" stroke-width="1.46"/><line x1="749.4" y1="101.2" x2="760.1" y2="101.2" fill="none" stroke="#595959" stroke-miterlimit="10" stroke-width="1.46"/><polygon points="760.1 98 760.1 104.3 752 104.3 749.7 101.2 752 98 760.1 98" fill="#595959"/><polygon points="660.5 98 662.7 101.2 660.5 104.3 634.8 104.3 632.6 101.2 634.8 98 660.5 98" fill="#a1a1a1"/><polygon points="718.5 98 720.8 101.2 718.5 104.3 692.9 104.3 690.6 101.2 692.9 98 718.5 98" fill="#a1a1a1"/><line x1="640.2" y1="101.2" x2="749.4" y2="101.2" fill="none" stroke="#a1a1a1" stroke-miterlimit="10" stroke-width="1.46"/><polygon points="632.7 77.9 634.9 81.1 632.7 84.2 630.8 84.2 630.8 77.9 632.7 77.9" fill="#a1a1a1"/><polygon points="689.5 77.9 691.7 81.1 689.5 84.2 663.8 84.2 661.6 81.1 663.8 77.9 689.5 77.9" fill="#a1a1a1"/><polygon points="746.5 77.9 748.7 81.1 746.5 84.2 721.9 84.2 719.6 81.1 721.9 77.9 746.5 77.9" fill="#a1a1a1"/><line x1="749.4" y1="81.1" x2="760.1" y2="81.1" fill="none" stroke="#595959" stroke-miterlimit="10" stroke-width="1.46"/><line x1="631.7" y1="81.1" x2="749.4" y2="81.1" fill="none" stroke="#a1a1a1" stroke-miterlimit="10" stroke-width="1.46"/><polygon points="632.7 64.5 634.9 67.7 632.7 70.8 630.8 70.8 630.8 64.5 632.7 64.5" fill="#a1a1a1"/><polygon points="689.5 64.5 691.7 67.7 689.5 70.8 663.8 70.8 661.6 67.7 663.8 64.5 689.5 64.5" fill="#a1a1a1"/><polygon points="746.5 64.5 748.7 67.7 746.5 70.8 721.9 70.8 719.6 67.7 721.9 64.5 746.5 64.5" fill="#a1a1a1"/><line x1="749.4" y1="67.7" x2="760.1" y2="67.7" fill="none" stroke="#595959" stroke-miterlimit="10" stroke-width="1.46"/><line x1="631.7" y1="67.7" x2="749.4" y2="67.7" fill="none" stroke="#a1a1a1" stroke-miterlimit="10" stroke-width="1.46"/><polygon points="632.7 91.3 634.9 94.5 632.7 97.6 630.8 97.6 630.8 91.3 632.7 91.3" fill="#a1a1a1"/><polygon points="689.5 91.3 691.7 94.5 689.5 97.6 663.8 97.6 661.6 94.5 663.8 91.3 689.5 91.3" fill="#a1a1a1"/><polygon points="746.5 91.3 748.7 94.5 746.5 97.6 721.9 97.6 719.6 94.5 721.9 91.3 746.5 91.3" fill="#a1a1a1"/><line x1="749.4" y1="94.5" x2="760.1" y2="94.5" fill="none" stroke="#595959" stroke-miterlimit="10" stroke-width="1.46"/><line x1="631.7" y1="94.5" x2="749.4" y2="94.5" fill="none" stroke="#a1a1a1" stroke-miterlimit="10" stroke-width="1.46"/><polygon points="689.5 104.7 691.7 107.9 689.5 111 663.8 111 661.6 107.9 663.8 104.7 689.5 104.7" fill="#a1a1a1"/><polygon points="632.7 104.7 634.9 107.9 632.7 111 630.8 111 630.8 104.7 632.7 104.7" fill="#a1a1a1"/><polygon points="746.5 104.7 748.7 107.9 746.5 111 721.9 111 719.6 107.9 721.9 104.7 746.5 104.7" fill="#a1a1a1"/><line x1="749.4" y1="107.9" x2="760.1" y2="107.9" fill="none" stroke="#595959" stroke-miterlimit="10" stroke-width="1.46"/><line x1="631.7" y1="107.9" x2="749.4" y2="107.9" fill="none" stroke="#a1a1a1" stroke-miterlimit="10" stroke-width="1.46"/><polygon points="660.5 71.2 662.7 74.4 660.5 77.5 634.8 77.5 632.6 74.4 634.8 71.2 660.5 71.2" fill="#a1a1a1"/><polygon points="718.5 71.2 720.8 74.4 718.5 77.5 692.9 77.5 690.6 74.4 692.9 71.2 718.5 71.2" fill="#a1a1a1"/><line x1="640.2" y1="74.4" x2="749.4" y2="74.4" fill="none" stroke="#a1a1a1" stroke-miterlimit="10" stroke-width="1.46"/><line x1="749.4" y1="74.4" x2="760.1" y2="74.4" fill="none" stroke="#595959" stroke-miterlimit="10" stroke-width="1.46"/><polygon points="760.1 71.2 760.1 77.5 752 77.5 749.7 74.4 752 71.2 760.1 71.2" fill="#595959"/><rect x="749.4" y="113.7" width="10.7" height="16.7" fill="#595959"/><line x1="753" y1="113.7" x2="753" y2="130.4" fill="none" stroke="#848484" stroke-miterlimit="10" stroke-width="0.73"/><line x1="756.8" y1="113.7" x2="756.8" y2="130.4" fill="none" stroke="#848484" stroke-miterlimit="10" stroke-width="0.73"/><g clip-path="url(#l)"><polygon points="819.4 38.5 600.2 38.5 600.2 53.6 636.5 53.6 571 125.3 577.4 125.3 642.9 53.6 652.1 53.6 586.7 125.3 597.3 125.3 662.8 53.6 667.8 53.6 602.4 125.3 619 125.3 684.4 53.6 687.2 53.6 621.8 125.3 628.2 125.3 693.6 53.6 706.4 53.6 641 125.3 657.6 125.3 723 53.6 726.4 53.6 661 125.3 665.7 125.3 731.2 53.6 737 53.6 671.6 125.3 678 125.3 743.5 53.6 748.6 53.6 683.1 125.3 697.9 125.3 763.4 53.6 767.8 53.6 702.3 125.3 709.8 125.3 775.2 53.6 780 53.6 714.5 125.3 719.3 125.3 784.7 53.6 794.4 53.6 729 125.3 739.6 125.3 805.1 53.6 819.4 53.6 819.4 38.5" fill="url(#m)"/></g><rect x="630.8" y="57.3" width="118.7" height="4.3" fill="#b0b0b0"/><rect x="749.4" y="57.4" width="10.7" height="4.3" fill="#909090"/><rect x="727.1" y="113.8" width="6.7" height="16.1" fill="#595959"/><polygon points="727.1 118.8 733.8 129.9 733.8 113.8 727.1 113.8 727.1 118.8" fill="#d6d6d6"/><rect x="588.2" y="113.8" width="138.9" height="16.1" fill="#a1a1a1"/><rect x="686.8" y="123" width="2.6" height="4.6" fill="#d6d6d6"/><rect x="667.2" y="123" width="13.9" height="4.6" fill="#d6d6d6"/><rect x="715.5" y="123" width="5.2" height="4.6" fill="#d6d6d6"/><rect x="704.7" y="123" width="9.2" height="4.6" fill="#d6d6d6"/><rect x="695" y="123" width="7.3" height="4.6" fill="#d6d6d6"/><rect x="675.7" y="117" width="24.8" height="4.6" fill="#d6d6d6"/><rect x="663.6" y="117" width="7.3" height="4.6" fill="#d6d6d6"/><rect x="715.5" y="117" width="7.3" height="4.6" fill="#d6d6d6"/><rect x="625.3" y="123" width="2.6" height="4.6" fill="#d6d6d6"/><rect x="596.8" y="123" width="21.1" height="4.6" fill="#d6d6d6"/><rect x="654" y="123" width="7.3" height="4.6" fill="#d6d6d6"/><rect x="641.2" y="123" width="7.3" height="4.6" fill="#d6d6d6"/><rect x="631.9" y="123" width="7.3" height="4.6" fill="#d6d6d6"/><rect x="614.2" y="117" width="16.2" height="4.6" fill="#d6d6d6"/><rect x="591.8" y="117" width="7.3" height="4.6" fill="#d6d6d6"/><rect x="645.2" y="117" width="7.3" height="4.6" fill="#d6d6d6"/><line x1="608.5" y1="113.7" x2="608.5" y2="129.9" fill="none" stroke="#fff" stroke-miterlimit="10" stroke-width="0.74"/><line x1="633.7" y1="113.7" x2="633.7" y2="129.9" fill="none" stroke="#fff" stroke-miterlimit="10" stroke-width="0.74"/><line x1="659" y1="113.7" x2="659" y2="129.9" fill="none" stroke="#fff" stroke-miterlimit="10" stroke-width="0.74"/><line x1="684.2" y1="113.7" x2="684.2" y2="129.9" fill="none" stroke="#fff" stroke-miterlimit="10" stroke-width="0.74"/><line x1="709.5" y1="113.7" x2="709.5" y2="129.9" fill="none" stroke="#fff" stroke-miterlimit="10" stroke-width="0.74"/><rect x="588.2" y="113.8" width="138.9" height="5.1" fill="#d6d6d6"/><polygon points="733.8 129.9 733.8 113.8 749.4 113.7 749.4 130.4 733.8 129.9" fill="#a1a1a1"/><line x1="741.9" y1="113.7" x2="741.9" y2="129.9" fill="none" stroke="#fff" stroke-miterlimit="10" stroke-width="0.74"/><polygon points="740.7 129.9 733.8 129.9 733.8 113.8 736.3 113.8 740.7 129.9" fill="#848484"/><line x1="749.4" y1="113.7" x2="586.1" y2="113.7" fill="none" stroke="#fff" stroke-miterlimit="10" stroke-width="1.46"/><line x1="760.1" y1="113.7" x2="749.4" y2="113.7" fill="none" stroke="#b0b0b0" stroke-miterlimit="10" stroke-width="1.46"/><path d="M-63.2,278.6H247.7a38.41,38.41,0,0,0,27.8-11.8L328.4,214a38.81,38.81,0,0,1,27.8-11.8h76.6a39,39,0,0,0,25.4-9.5l53.5-53.2A38.57,38.57,0,0,1,537,130h80.3c13.7,0,198,2,198,2,22.3,0,38.7-21.6,38.7-21.6a38.78,38.78,0,0,1,32.6-17.9h123.3" fill="none" stroke="#fff" stroke-miterlimit="10" stroke-width="1.46"/><g clip-path="url(#n)"><rect x="965.4" y="82.8" width="14.1" height="10.8" fill="#6f6f6f"/><rect x="935.2" y="82.8" width="30.2" height="10.8" fill="#ccc"/><rect x="921.2" y="82.8" width="14" height="10.8" fill="#fff"/><rect x="965.4" y="89.4" width="1.7" height="1.6" fill="#606060"/><rect x="971.7" y="87.4" width="3.3" height="1.6" fill="#606060"/><rect x="967.9" y="87.4" width="3.3" height="1.6" fill="#606060"/><rect x="936.8" y="85.4" width="3.3" height="1.6" fill="#bababa"/><rect x="938.4" y="87.4" width="3.3" height="1.6" fill="#bababa"/><rect x="942.5" y="87.4" width="3.3" height="1.6" fill="#bababa"/><rect x="956.8" y="85.4" width="3.3" height="1.6" fill="#bababa"/><rect x="958.8" y="87.4" width="3.3" height="1.6" fill="#bababa"/><rect x="954.9" y="87.4" width="3.3" height="1.6" fill="#bababa"/><rect x="956.8" y="89.4" width="3.3" height="1.6" fill="#bababa"/><rect x="963.8" y="89.4" width="1.6" height="1.6" fill="#bababa"/><rect x="935.1" y="89.4" width="1.6" height="1.6" fill="#bababa"/><rect x="921.8" y="85.4" width="3.3" height="1.6" fill="#d5d5d5"/><rect x="923.4" y="87.4" width="3.3" height="1.6" fill="#d5d5d5"/><rect x="927.5" y="87.4" width="3.3" height="1.6" fill="#d5d5d5"/><rect x="933.5" y="89.4" width="1.8" height="1.6" fill="#d5d5d5"/><rect x="921.2" y="82.8" width="58.3" height="1.6" fill="#cdcdcd"/><polygon points="946 73 939.8 73 921.2 82.8 935.2 82.8 946 73" fill="#9d9d9d"/><polygon points="954.6 73 960.9 73 979.5 82.8 965.5 82.8 954.6 73" fill="#6c6c6c"/><polygon points="965.5 82.8 954.6 73 946 73 935.2 82.8 965.5 82.8" fill="#8d8d8d"/><rect x="939.8" y="64.9" width="6.3" height="8.1" fill="#545454"/><rect x="954.6" y="64.9" width="6.3" height="8.1" fill="#222"/><rect x="946" y="64.9" width="8.6" height="8.1" fill="#383838"/><polygon points="939.8 64.9 946 64.9 948 38.7 944.4 38.7 939.8 64.9" fill="#fff"/><polygon points="960.9 64.9 954.6 64.9 953 38.7 956.6 38.7 960.9 64.9" fill="#b0b0b0"/><polygon points="946 64.9 954.6 64.9 953 38.7 948 38.7 946 64.9" fill="#ccc"/><rect x="924.9" y="74.8" width="6.5" height="8" fill="#fff"/><polygon points="931.5 82.8 931.5 74.8 941 74.8 931.5 82.8" fill="#6f6f6f"/><polygon points="928.8 73 931.5 73 931.5 74.8 924.9 74.8 928.8 73" fill="#9d9d9d"/><rect x="931.5" y="73" width="9.6" height="1.8" fill="#6c6c6c"/><polygon points="970.6 82.8 970.6 74.8 961.1 74.8 970.6 82.8" fill="#ccc"/><path d="M926.7,82.8h3V78.3a1.51,1.51,0,1,0-3-.4v4.9Z" fill="#a1a1a1"/><rect x="947.8" y="74.8" width="6.5" height="8" fill="#ccc"/><polygon points="954.3 74.8 958.9 82.8 954.3 82.8 954.3 74.8" fill="#6c6c6c"/><path d="M949.5,82.8h3V78.3a1.55,1.55,0,0,0-1.7-1.3,1.72,1.72,0,0,0-1.3,1.3Z" fill="#595959"/><rect x="970.6" y="74.8" width="6.5" height="8" fill="#6f6f6f"/><rect x="961.1" y="73" width="9.6" height="1.8" fill="#8d8d8d"/><polygon points="970.6 73 973.3 73 977.2 74.8 970.6 74.8 970.6 73" fill="#6c6c6c"/><path d="M972.4,82.8h3V78.3a1.55,1.55,0,0,0-1.7-1.3,1.72,1.72,0,0,0-1.3,1.3Z" fill="#272727"/><line x1="939.8" y1="67.6" x2="960.9" y2="67.6" fill="none" stroke="#ccc" stroke-miterlimit="10" stroke-width="0.75"/><g clip-path="url(#o)"><line x1="939.8" y1="61" x2="960.9" y2="61" fill="none" stroke="#e0e0e0" stroke-miterlimit="10" stroke-width="0.73"/><line x1="939.8" y1="56.5" x2="960.9" y2="56.5" fill="none" stroke="#e0e0e0" stroke-miterlimit="10" stroke-width="0.73"/><line x1="939.8" y1="52" x2="960.9" y2="52" fill="none" stroke="#e0e0e0" stroke-miterlimit="10" stroke-width="0.73"/><line x1="939.8" y1="47.5" x2="960.9" y2="47.5" fill="none" stroke="#e0e0e0" stroke-miterlimit="10" stroke-width="0.73"/><line x1="939.8" y1="42.9" x2="960.9" y2="42.9" fill="none" stroke="#e0e0e0" stroke-miterlimit="10" stroke-width="0.73"/><path d="M949.3,61.7h2.1V43.3a1,1,0,1,0-2,0l-.1,18.4Z" fill="#595959"/></g><line x1="939.8" y1="70.6" x2="960.9" y2="70.6" fill="none" stroke="#ccc" stroke-miterlimit="10" stroke-width="0.75"/><polygon points="954.6 35.1 946.1 35.1 944 37.4 956.7 37.4 954.6 35.1" fill="#ccc"/><polygon points="948.3 35.1 946.1 35.1 944 37.4 947.7 37.4 948.3 35.1" fill="#e8e8e8"/><rect x="942.5" y="37.4" width="17.2" height="1.9" fill="#222"/><rect x="946.1" y="25.4" width="8.5" height="9.7" fill="#595959"/><rect x="946.1" y="25.4" width="2.2" height="9.7" fill="#a1a1a1"/><circle cx="950.3" cy="30.3" r="3.9" fill="#fff" opacity="0.48" style="isolation:isolate"/><circle cx="950.3" cy="30.3" r="2" fill="#fff"/><polygon points="946.1 25.4 954.6 25.4 951.3 23.2 949.4 23.2 946.1 25.4" fill="#747474"/><polygon points="949.4 23.2 946.1 25.4 948.3 25.4 949.4 23.2" fill="#8b8b8b"/></g><line x1="894.9" y1="92.6" x2="1012.5" y2="92.6" fill="none" stroke="#fff" stroke-miterlimit="10" stroke-width="1.46"/><path d="M58.7,275v6.3a1.1,1.1,0,1,0,2.2.2V275a1.1,1.1,0,0,0-2.2-.2Z" fill="#383838"/><path d="M64.2,275v6.3a1.1,1.1,0,1,0,2.2,0V275a1.1,1.1,0,1,0-2.2,0Z" fill="#383838"/><path d="M58.7,285.4v6.3a1.1,1.1,0,1,0,2.2.2v-6.5a1.1,1.1,0,0,0-2.2-.2Z" fill="#383838"/><path d="M64.2,285.4v6.3a1.1,1.1,0,0,0,2.2,0v-6.3a1.1,1.1,0,1,0-2.2,0Z" fill="#383838"/><polyline points="45.4 283.4 37.2 283.4 26.4 294.3 20.6 294.3" fill="none" stroke="#e2e2e2" stroke-miterlimit="10" stroke-width="0.73"/><circle cx="45.3" cy="283.4" r="1.2" fill="#e2e2e2"/><path d="M20.7,293.1a1.25,1.25,0,1,0,.1,2.5,1.25,1.25,0,0,0-.1-2.5Z" fill="#e2e2e2"/><line x1="27.7" y1="283.4" x2="20.6" y2="283.4" fill="none" stroke="#e2e2e2" stroke-miterlimit="10" stroke-width="0.73"/><path d="M27.6,282.2a1.2,1.2,0,1,1-1.2,1.2h0A1.22,1.22,0,0,1,27.6,282.2Z" fill="#e2e2e2"/><path d="M20.7,282.2a1.25,1.25,0,1,0,.1,2.5,1.22,1.22,0,0,0,1.2-1.2,1.32,1.32,0,0,0-1.3-1.3Z" fill="#e2e2e2"/><polyline points="33.2 301.9 27.2 301.9 38.3 290.9 45.4 290.9" fill="none" stroke="#e2e2e2" stroke-miterlimit="10" stroke-width="0.73"/><path d="M33.1,300.7a1.2,1.2,0,1,1-1.2,1.2h0A1.15,1.15,0,0,1,33.1,300.7Z" fill="#e2e2e2"/><path d="M45.3,292.2a1.2,1.2,0,1,0,0-2.4,1.2,1.2,0,0,0,0,2.4Z" fill="#e2e2e2"/><line x1="20.7" y1="302" x2="20.7" y2="323.6" fill="none" stroke="#e2e2e2" stroke-miterlimit="10" stroke-width="0.73"/><circle cx="20.7" cy="302" r="1.2" fill="#e2e2e2"/><path d="M19.5,323.6a1.2,1.2,0,1,0,1.2-1.2h0a1.15,1.15,0,0,0-1.2,1.2Z" fill="#e2e2e2"/><g opacity="0.5"><polyline points="388 272 344.3 272 330.5 285.8 321.7 285.8 293.7 313.7 269.2 313.7" fill="none" stroke="#e2e2e2" stroke-miterlimit="10" stroke-width="0.73"/><path d="M387.9,270.7a1.2,1.2,0,1,1-1.2,1.2h0A1.22,1.22,0,0,1,387.9,270.7Z" fill="#e2e2e2"/><circle cx="269.3" cy="313.7" r="1.2" fill="#e2e2e2"/><polyline points="358.1 231.1 362 231.1 362 219.5 344.2 237.3 364.7 237.3" fill="none" stroke="#e2e2e2" stroke-miterlimit="10" stroke-width="0.73"/><circle cx="358.2" cy="231.1" r="1.2" fill="#e2e2e2"/><path d="M364.6,238.5a1.2,1.2,0,1,0-1.2-1.2h0a1.16,1.16,0,0,0,1.2,1.2Z" fill="#e2e2e2"/><polyline points="366.2 246 348.1 246 334.2 259.9 334.2 254.1" fill="none" stroke="#e2e2e2" stroke-miterlimit="10" stroke-width="0.73"/><path d="M366.1,244.7a1.2,1.2,0,1,1-1.2,1.2h0a1.22,1.22,0,0,1,1.2-1.2Z" fill="#e2e2e2"/><circle cx="334.2" cy="254.2" r="1.2" fill="#e2e2e2"/><polyline points="302.4 251.1 309.8 243.8 324 243.8 358.4 209.4 370.2 209.4" fill="none" stroke="#e2e2e2" stroke-miterlimit="10" stroke-width="0.73"/><path d="M303.3,252a1.15,1.15,0,0,1-1.7,0h0a1.27,1.27,0,0,1,.1-1.8,1.21,1.21,0,0,1,1.6,0,1.27,1.27,0,0,1,0,1.8Z" fill="#e2e2e2"/><path d="M370.1,210.7a1.2,1.2,0,1,0-1.2-1.2h0A1.22,1.22,0,0,0,370.1,210.7Z" fill="#e2e2e2"/><line x1="316.1" y1="237.4" x2="340.2" y2="213.3" fill="none" stroke="#e2e2e2" stroke-miterlimit="10" stroke-width="0.73"/><path d="M317.1,238.2a1.27,1.27,0,0,1-1.8-1.8,1.15,1.15,0,0,1,1.7,0,1.38,1.38,0,0,1,.1,1.8Z" fill="#e2e2e2"/><path d="M341,214.2a1.15,1.15,0,0,0,0-1.7h0a1.27,1.27,0,0,0-1.8.1,1.21,1.21,0,0,0,0,1.6,1.27,1.27,0,0,0,1.8,0Z" fill="#e2e2e2"/><polyline points="313 254.9 358.4 209.4 370.2 209.4" fill="none" stroke="#e2e2e2" stroke-miterlimit="10" stroke-width="0.73"/><path d="M313.9,255.7a1.27,1.27,0,1,1,0-1.8h0A1.27,1.27,0,0,1,313.9,255.7Z" fill="#e2e2e2"/><path d="M370.1,210.7a1.2,1.2,0,1,0-1.2-1.2h0A1.22,1.22,0,0,0,370.1,210.7Z" fill="#e2e2e2"/><polyline points="337 241.2 321.4 256.9 321.4 261.6" fill="none" stroke="#e2e2e2" stroke-miterlimit="10" stroke-width="0.73"/><path d="M336.1,240.4a1.27,1.27,0,0,1,1.8.1,1.21,1.21,0,0,1,0,1.6,1.27,1.27,0,0,1-1.8-.1A1.21,1.21,0,0,1,336.1,240.4Z" fill="#e2e2e2"/><path d="M320.2,261.6a1.2,1.2,0,1,0,1.2-1.2h0A1.16,1.16,0,0,0,320.2,261.6Z" fill="#e2e2e2"/><polyline points="328.3 261.6 328.3 269.9 315.5 269.9 306.8 260.3 290.2 260.3" fill="none" stroke="#e2e2e2" stroke-miterlimit="10" stroke-width="0.73"/><path d="M327,261.7a1.2,1.2,0,1,1,1.2,1.2h0A1.22,1.22,0,0,1,327,261.7Z" fill="#e2e2e2"/><path d="M290.2,259.1a1.2,1.2,0,1,0,1.2,1.2h0A1.1,1.1,0,0,0,290.2,259.1Z" fill="#e2e2e2"/><polyline points="281 269.5 297.6 269.5 289.6 277.5 275.4 277.5" fill="none" stroke="#e2e2e2" stroke-miterlimit="10" stroke-width="0.73"/><circle cx="281.1" cy="269.5" r="1.2" fill="#e2e2e2"/><path d="M275.5,276.2a1.2,1.2,0,1,0,1.2,1.2h0A1.22,1.22,0,0,0,275.5,276.2Z" fill="#e2e2e2"/><line x1="302.4" y1="290.9" x2="309.5" y2="283.8" fill="none" stroke="#e2e2e2" stroke-miterlimit="10" stroke-width="0.73"/><circle cx="302.5" cy="290.9" r="1.2" fill="#e2e2e2"/><circle cx="309.5" cy="283.8" r="1.2" fill="#e2e2e2"/><polyline points="311 311 298.6 323.5 237.5 323.5" fill="none" stroke="#e2e2e2" stroke-miterlimit="10" stroke-width="0.73"/><path d="M310.1,310.2a1.27,1.27,0,0,1,1.8,0,1.15,1.15,0,0,1,0,1.7h0a1.27,1.27,0,0,1-1.8-.1A1.21,1.21,0,0,1,310.1,310.2Z" fill="#e2e2e2"/><path d="M237.6,322.3a1.2,1.2,0,1,0,1.2,1.2h0A1.22,1.22,0,0,0,237.6,322.3Z" fill="#e2e2e2"/><polyline points="255.2 293.4 294.5 293.4 294.5 303.2 276.4 303.2" fill="none" stroke="#e2e2e2" stroke-miterlimit="10" stroke-width="0.73"/><path d="M255.2,294.6a1.2,1.2,0,1,1,1.2-1.2h0A1.1,1.1,0,0,1,255.2,294.6Z" fill="#e2e2e2"/><circle cx="276.5" cy="303.2" r="1.2" fill="#e2e2e2"/><polyline points="268.8 303.2 250.1 303.2 242.6 313.7 262.8 313.7" fill="none" stroke="#e2e2e2" stroke-miterlimit="10" stroke-width="0.73"/><path d="M268.8,302a1.2,1.2,0,1,1-1.2,1.2h0A1.15,1.15,0,0,1,268.8,302Z" fill="#e2e2e2"/><path d="M262.7,315a1.2,1.2,0,1,0-1.2-1.2h0a1.22,1.22,0,0,0,1.2,1.2Z" fill="#e2e2e2"/><polyline points="371.9 256.4 347.8 256.4 329.3 274.9 304.3 274.9 294 285.2 258.7 285.2" fill="none" stroke="#e2e2e2" stroke-miterlimit="10" stroke-width="0.73"/><path d="M371.8,255.2a1.2,1.2,0,1,1-1.2,1.2,1.22,1.22,0,0,1,1.2-1.2Z" fill="#e2e2e2"/><path d="M258.8,283.9a1.2,1.2,0,1,0,1.2,1.2h0a1.29,1.29,0,0,0-1.2-1.2Z" fill="#e2e2e2"/><line x1="352" y1="264.2" x2="377.1" y2="264.2" fill="none" stroke="#e2e2e2" stroke-miterlimit="10" stroke-width="0.73"/><circle cx="352" cy="264.2" r="1.2" fill="#e2e2e2"/><path d="M377,265.4a1.2,1.2,0,1,0,0-2.4,1.29,1.29,0,0,0-1.2,1.2,1.22,1.22,0,0,0,1.2,1.2Z" fill="#e2e2e2"/><polyline points="402 280.5 347.7 280.5 335.7 292.5" fill="none" stroke="#e2e2e2" stroke-miterlimit="10" stroke-width="0.73"/><path d="M401.9,279.3a1.2,1.2,0,1,1-1.2,1.2h0A1.22,1.22,0,0,1,401.9,279.3Z" fill="#e2e2e2"/><path d="M334.9,291.6a1.27,1.27,0,0,0,.1,1.8,1.21,1.21,0,0,0,1.6,0,1.27,1.27,0,0,0-.1-1.8A1.21,1.21,0,0,0,334.9,291.6Z" fill="#e2e2e2"/><polyline points="346.5 294.6 346.5 308.2 328.2 308.2 328.2 321.6" fill="none" stroke="#e2e2e2" stroke-miterlimit="10" stroke-width="0.73"/><circle cx="346.5" cy="294.6" r="1.2" fill="#e2e2e2"/><path d="M326.9,321.5a1.2,1.2,0,1,0,1.2-1.2h0a1.22,1.22,0,0,0-1.2,1.2Z" fill="#e2e2e2"/><polyline points="317.9 321.6 317.9 300.2 334 300.2" fill="none" stroke="#e2e2e2" stroke-miterlimit="10" stroke-width="0.73"/><circle cx="317.9" cy="321.5" r="1.2" fill="#e2e2e2"/><circle cx="334" cy="300.2" r="1.2" fill="#e2e2e2"/></g><polygon points="402.4 299.7 376.7 299.7 376.7 294.3 354.4 294.3 354.4 315 342.1 315 342.1 332 434.3 332 434.3 315 402.4 315 402.4 299.7" fill="#181818"/><polygon points="535.8 320 520.5 320 520.5 300.9 480.6 300.9 480.6 332.1 520.5 332.1 520.5 331.6 535.8 331.6 535.8 320" fill="#181818"/><rect x="481.4" y="283.1" width="26.2" height="49" fill="#575757"/><rect x="507.6" y="283.1" width="5.5" height="49" fill="gray"/><rect x="485.4" y="274.8" width="19.6" height="7.6" fill="#575757"/><rect x="505" y="274.8" width="4.1" height="7.6" fill="gray"/><line x1="512.1" y1="307.7" x2="509.3" y2="307.7" fill="none" stroke="#c9c9c9" stroke-miterlimit="10" stroke-width="1.46"/><line x1="512.1" y1="304" x2="509.3" y2="304" fill="none" stroke="#c9c9c9" stroke-miterlimit="10" stroke-width="1.46"/><line x1="512.1" y1="300.2" x2="509.3" y2="300.2" fill="none" stroke="#c9c9c9" stroke-miterlimit="10" stroke-width="1.46"/><line x1="512.1" y1="296.4" x2="509.3" y2="296.4" fill="none" stroke="#c9c9c9" stroke-miterlimit="10" stroke-width="1.46"/><line x1="510.7" y1="292.1" x2="510.7" y2="286.7" fill="none" stroke="#c9c9c9" stroke-miterlimit="10" stroke-width="1.46"/><line x1="510.7" y1="322.1" x2="510.7" y2="316.6" fill="none" stroke="#c9c9c9" stroke-miterlimit="10" stroke-width="1.46"/><line x1="504.3" y1="307.7" x2="484" y2="307.7" fill="none" stroke="#a2a2a2" stroke-miterlimit="10" stroke-width="1.46"/><line x1="504.3" y1="304" x2="484" y2="304" fill="none" stroke="#a2a2a2" stroke-miterlimit="10" stroke-width="1.46"/><line x1="504.3" y1="300.2" x2="484" y2="300.2" fill="none" stroke="#a2a2a2" stroke-miterlimit="10" stroke-width="1.46"/><line x1="504.3" y1="296.4" x2="484" y2="296.4" fill="none" stroke="#a2a2a2" stroke-miterlimit="10" stroke-width="1.46"/><line x1="503.2" y1="279.1" x2="487" y2="279.1" fill="none" stroke="#a2a2a2" stroke-miterlimit="10" stroke-width="1.46"/><line x1="503.2" y1="276.9" x2="487" y2="276.9" fill="none" stroke="#a2a2a2" stroke-miterlimit="10" stroke-width="1.46"/><line x1="485.6" y1="292.1" x2="485.6" y2="286.7" fill="none" stroke="#a2a2a2" stroke-miterlimit="10" stroke-width="1.46"/><line x1="491" y1="292.1" x2="491" y2="286.7" fill="none" stroke="#a2a2a2" stroke-miterlimit="10" stroke-width="1.46"/><line x1="496.5" y1="292.1" x2="496.5" y2="286.7" fill="none" stroke="#a2a2a2" stroke-miterlimit="10" stroke-width="1.46"/><line x1="501.9" y1="292.1" x2="501.9" y2="286.7" fill="none" stroke="#a2a2a2" stroke-miterlimit="10" stroke-width="1.46"/><line x1="485.6" y1="322.1" x2="485.6" y2="316.6" fill="none" stroke="#a2a2a2" stroke-miterlimit="10" stroke-width="1.46"/><line x1="491" y1="322.1" x2="491" y2="316.6" fill="none" stroke="#a2a2a2" stroke-miterlimit="10" stroke-width="1.46"/><line x1="496.5" y1="322.1" x2="496.5" y2="316.6" fill="none" stroke="#a2a2a2" stroke-miterlimit="10" stroke-width="1.46"/><line x1="501.9" y1="322.1" x2="501.9" y2="316.6" fill="none" stroke="#a2a2a2" stroke-miterlimit="10" stroke-width="1.46"/><rect x="481.4" y="281.2" width="26.2" height="1.9" fill="#181818"/><rect x="507.6" y="281.2" width="5.5" height="1.9" fill="#575757"/><rect x="481.4" y="311.6" width="26.2" height="1.9" fill="#181818"/><rect x="507.6" y="311.6" width="5.5" height="1.9" fill="#575757"/><polygon points="359.9 331.7 404.8 331.7 404.8 287.3 366.1 287.3 366.1 318.3 359.9 318.3 359.9 331.7" fill="#222"/><line x1="366.1" y1="304.2" x2="375.7" y2="304.2" fill="none" stroke="#363636" stroke-miterlimit="10" stroke-width="1.46"/><line x1="366.1" y1="301" x2="375.7" y2="301" fill="none" stroke="#363636" stroke-miterlimit="10" stroke-width="1.46"/><rect x="366.1" y="287.3" width="38.7" height="2.5" fill="#575757"/><polygon points="369.5 331.7 414.4 331.7 414.4 287.3 375.7 287.3 375.7 318.3 369.5 318.3 369.5 331.7" fill="#575757"/><line x1="393.1" y1="292.5" x2="393.1" y2="296.4" fill="none" stroke="#c9c9c9" stroke-miterlimit="10" stroke-width="1.46"/><line x1="388.9" y1="296.4" x2="388.9" y2="292.5" fill="none" stroke="#c9c9c9" stroke-miterlimit="10" stroke-width="1.46"/><line x1="384.6" y1="296.4" x2="384.6" y2="292.5" fill="none" stroke="#c9c9c9" stroke-miterlimit="10" stroke-width="1.46"/><line x1="380.4" y1="296.4" x2="380.4" y2="292.5" fill="none" stroke="#c9c9c9" stroke-miterlimit="10" stroke-width="1.46"/><line x1="410" y1="296.4" x2="410" y2="292.5" fill="none" stroke="#c9c9c9" stroke-miterlimit="10" stroke-width="1.46"/><line x1="405.8" y1="296.4" x2="405.8" y2="292.5" fill="none" stroke="#c9c9c9" stroke-miterlimit="10" stroke-width="1.46"/><line x1="401.5" y1="296.4" x2="401.5" y2="292.5" fill="none" stroke="#c9c9c9" stroke-miterlimit="10" stroke-width="1.46"/><line x1="397.3" y1="296.4" x2="397.3" y2="292.5" fill="none" stroke="#c9c9c9" stroke-miterlimit="10" stroke-width="1.46"/><line x1="393.1" y1="313.5" x2="393.1" y2="308.3" fill="none" stroke="#c9c9c9" stroke-miterlimit="10" stroke-width="1.46"/><line x1="388.9" y1="313.5" x2="388.9" y2="308.3" fill="none" stroke="#c9c9c9" stroke-miterlimit="10" stroke-width="1.46"/><line x1="384.6" y1="313.5" x2="384.6" y2="308.3" fill="none" stroke="#c9c9c9" stroke-miterlimit="10" stroke-width="1.46"/><line x1="380.4" y1="313.5" x2="380.4" y2="308.3" fill="none" stroke="#c9c9c9" stroke-miterlimit="10" stroke-width="1.46"/><line x1="410" y1="313.5" x2="410" y2="308.3" fill="none" stroke="#c9c9c9" stroke-miterlimit="10" stroke-width="1.46"/><line x1="405.8" y1="313.5" x2="405.8" y2="308.3" fill="none" stroke="#c9c9c9" stroke-miterlimit="10" stroke-width="1.46"/><line x1="401.5" y1="313.5" x2="401.5" y2="308.3" fill="none" stroke="#c9c9c9" stroke-miterlimit="10" stroke-width="1.46"/><line x1="397.3" y1="313.5" x2="397.3" y2="308.3" fill="none" stroke="#c9c9c9" stroke-miterlimit="10" stroke-width="1.46"/><line x1="393.1" y1="327.6" x2="393.1" y2="322.4" fill="none" stroke="#c9c9c9" stroke-miterlimit="10" stroke-width="1.46"/><line x1="388.9" y1="327.6" x2="388.9" y2="322.4" fill="none" stroke="#c9c9c9" stroke-miterlimit="10" stroke-width="1.46"/><line x1="384.6" y1="327.6" x2="384.6" y2="322.4" fill="none" stroke="#c9c9c9" stroke-miterlimit="10" stroke-width="1.46"/><line x1="380.4" y1="327.6" x2="380.4" y2="322.4" fill="none" stroke="#c9c9c9" stroke-miterlimit="10" stroke-width="1.46"/><line x1="410" y1="327.6" x2="410" y2="322.4" fill="none" stroke="#c9c9c9" stroke-miterlimit="10" stroke-width="1.46"/><line x1="405.8" y1="327.6" x2="405.8" y2="322.4" fill="none" stroke="#c9c9c9" stroke-miterlimit="10" stroke-width="1.46"/><line x1="401.5" y1="327.6" x2="401.5" y2="322.4" fill="none" stroke="#c9c9c9" stroke-miterlimit="10" stroke-width="1.46"/><line x1="397.3" y1="327.6" x2="397.3" y2="322.4" fill="none" stroke="#c9c9c9" stroke-miterlimit="10" stroke-width="1.46"/><line x1="375.7" y1="301" x2="414.4" y2="301" fill="none" stroke="gray" stroke-miterlimit="10" stroke-width="1.46"/><line x1="375.7" y1="304.2" x2="414.4" y2="304.2" fill="none" stroke="gray" stroke-miterlimit="10" stroke-width="1.46"/><line x1="366.1" y1="318.2" x2="375.7" y2="318.2" fill="none" stroke="#363636" stroke-miterlimit="10" stroke-width="1.46"/><line x1="375.7" y1="318.2" x2="414.4" y2="318.2" fill="none" stroke="gray" stroke-miterlimit="10" stroke-width="1.46"/><rect x="375.7" y="287.3" width="38.7" height="2.5" fill="gray"/><polygon points="373.2 303.5 356.9 331.7 375 331.7 373.2 303.5" fill="#949494"/><rect x="407.6" y="304.4" width="56.5" height="27.2" fill="#a1a1a1"/><rect x="407.6" y="303.5" width="56.5" height="1" fill="#414141"/><rect x="407.6" y="309.2" width="19" height="8.8" fill="#5f5f5f"/><line x1="420.4" y1="309.2" x2="420.4" y2="318" fill="none" stroke="#fff" stroke-miterlimit="10" stroke-width="0.37"/><line x1="413.4" y1="309.2" x2="413.4" y2="318" fill="none" stroke="#a1a1a1" stroke-miterlimit="10" stroke-width="0.37"/><rect x="407.6" y="322.8" width="19" height="8.8" fill="#5f5f5f"/><line x1="420.4" y1="322.8" x2="420.4" y2="331.6" fill="none" stroke="#fff" stroke-miterlimit="10" stroke-width="0.37"/><line x1="413.4" y1="322.8" x2="413.4" y2="331.6" fill="none" stroke="#a1a1a1" stroke-miterlimit="10" stroke-width="0.37"/><path d="M458.9,285a7.13,7.13,0,0,1,7.1,7.1h0v23.5H454.9V292.2a7.13,7.13,0,0,0-7.1-7.1h0Z" fill="#fff"/><rect x="419.5" y="293.2" width="56.5" height="38.4" fill="#dadada"/><rect x="475.6" y="293.2" width="13" height="38.4" fill="#fff"/><rect x="419.5" y="292.2" width="56.5" height="1" fill="#414141"/><rect x="475.6" y="292.2" width="13" height="1" fill="#818181"/><rect x="475.6" y="295.6" width="13" height="8.8" fill="#a1a1a1"/><line x1="479.9" y1="295.6" x2="479.9" y2="304.4" fill="none" stroke="#fff" stroke-miterlimit="10" stroke-width="0.37"/><line x1="484.7" y1="295.6" x2="484.7" y2="304.4" fill="none" stroke="#fff" stroke-miterlimit="10" stroke-width="0.37"/><rect x="475.6" y="309.2" width="13" height="8.8" fill="#a1a1a1"/><line x1="479.9" y1="309.2" x2="479.9" y2="318" fill="none" stroke="#fff" stroke-miterlimit="10" stroke-width="0.37"/><line x1="484.7" y1="309.2" x2="484.7" y2="318" fill="none" stroke="#fff" stroke-miterlimit="10" stroke-width="0.37"/><rect x="475.6" y="322.8" width="13" height="8.8" fill="#a1a1a1"/><line x1="479.9" y1="322.8" x2="479.9" y2="331.6" fill="none" stroke="#fff" stroke-miterlimit="10" stroke-width="0.37"/><line x1="484.7" y1="322.8" x2="484.7" y2="331.6" fill="none" stroke="#fff" stroke-miterlimit="10" stroke-width="0.37"/><rect x="456.7" y="295.6" width="19" height="8.8" fill="#747474"/><line x1="469.5" y1="295.6" x2="469.5" y2="304.4" fill="none" stroke="#dadada" stroke-miterlimit="10" stroke-width="0.37"/><line x1="462.5" y1="295.6" x2="462.5" y2="304.4" fill="none" stroke="#dadada" stroke-miterlimit="10" stroke-width="0.37"/><rect x="456.7" y="309.2" width="19" height="8.8" fill="#747474"/><line x1="469.5" y1="309.2" x2="469.5" y2="318" fill="none" stroke="#dadada" stroke-miterlimit="10" stroke-width="0.37"/><line x1="462.5" y1="309.2" x2="462.5" y2="318" fill="none" stroke="#dadada" stroke-miterlimit="10" stroke-width="0.37"/><rect x="456.7" y="322.8" width="19" height="8.8" fill="#747474"/><line x1="469.5" y1="322.8" x2="469.5" y2="331.6" fill="none" stroke="#dadada" stroke-miterlimit="10" stroke-width="0.37"/><line x1="462.5" y1="322.8" x2="462.5" y2="331.6" fill="none" stroke="#dadada" stroke-miterlimit="10" stroke-width="0.37"/><rect x="419.5" y="295.6" width="19" height="8.8" fill="#747474"/><line x1="432.3" y1="295.6" x2="432.3" y2="304.4" fill="none" stroke="#dadada" stroke-miterlimit="10" stroke-width="0.37"/><line x1="425.3" y1="295.6" x2="425.3" y2="304.4" fill="none" stroke="#dadada" stroke-miterlimit="10" stroke-width="0.37"/><rect x="419.5" y="309.2" width="19" height="8.8" fill="#747474"/><line x1="432.3" y1="309.2" x2="432.3" y2="318" fill="none" stroke="#dadada" stroke-miterlimit="10" stroke-width="0.37"/><line x1="425.3" y1="309.2" x2="425.3" y2="318" fill="none" stroke="#dadada" stroke-miterlimit="10" stroke-width="0.37"/><rect x="419.5" y="322.8" width="19" height="8.8" fill="#747474"/><line x1="432.3" y1="322.8" x2="432.3" y2="331.6" fill="none" stroke="#dadada" stroke-miterlimit="10" stroke-width="0.37"/><line x1="425.3" y1="322.8" x2="425.3" y2="331.6" fill="none" stroke="#dadada" stroke-miterlimit="10" stroke-width="0.37"/><path d="M493.7,331.6a4.2,4.2,0,1,1,8.4-.4v.4Z" fill="#aaa"/><path d="M490.2,331.6a2.4,2.4,0,1,1,4.8,0h-4.8Z" fill="#aaa"/><path d="M486,331.6a2.91,2.91,0,0,1,5.8-.4v.3H486Z" fill="#aaa"/><rect x="434.7" y="319.2" width="14.3" height="12.4" fill="#5f5f5f"/><line x1="449" y1="322.5" x2="434.8" y2="322.5" fill="none" stroke="#dadada" stroke-miterlimit="10" stroke-width="0.37"/><line x1="442" y1="322.5" x2="442" y2="331.6" fill="none" stroke="#dadada" stroke-miterlimit="10" stroke-width="0.37"/><rect x="449" y="319.2" width="7.5" height="12.4" fill="#a1a1a1"/><rect x="434.7" y="318.2" width="14.3" height="2.6" fill="#414141"/><rect x="449" y="318.2" width="7.5" height="2.6" fill="#818181"/><line x1="456.6" y1="322.5" x2="449" y2="322.5" fill="none" stroke="#dadada" stroke-miterlimit="10" stroke-width="0.37"/><path d="M440.6,315.7h14.3V292.2a7.1,7.1,0,1,0-14.2,0l-.1,23.5Z" fill="#dadada"/><path d="M442.6,316.3V292.2a5.16,5.16,0,0,1,10.3-.5v24.6Z" fill="#747474"/><rect x="445.4" y="295.6" width="7.5" height="8.8" fill="#5f5f5f"/><rect x="445.4" y="309.2" width="7.5" height="7.2" fill="#5f5f5f"/><path d="M36.2,308.8a7.9,7.9,0,0,1,15.8,0" fill="#919191"/><path d="M44.3,300.9c-.3,0-.8.1-1.1.1,3.2.5,5.6,3.8,5.6,7.9h3.4a7.81,7.81,0,0,0-7.9-8Z" fill="#aaa"/><rect x="71.5" y="255.9" width="15.2" height="11" fill="#a4a4a4"/><rect x="67.5" y="255.9" width="4" height="11" fill="#818181"/><rect x="62.2" y="258" width="31.6" height="73.5" fill="#a1a1a1"/><rect x="62.2" y="275.4" width="31.6" height="3.7" fill="#dadada"/><rect x="62.2" y="287.2" width="31.6" height="3.7" fill="#dadada"/><rect x="62.2" y="299.1" width="31.6" height="3.7" fill="#dadada"/><rect x="62.5" y="280.5" width="2.3" height="4.6" fill="#b6b6b6"/><rect x="62.3" y="292.2" width="2.3" height="4.6" fill="#dadada"/><rect x="70.8" y="280.5" width="5" height="4.6" fill="#dadada"/><rect x="87.2" y="280.5" width="2.3" height="4.6" fill="#b6b6b6"/><rect x="85.3" y="280.5" width="2.3" height="4.6" fill="#b6b6b6"/><rect x="80.7" y="280.5" width="2.3" height="4.6" fill="#dadada"/><rect x="74.6" y="268.8" width="7.8" height="4.6" fill="#b6b6b6"/><rect x="70.8" y="268.8" width="2.3" height="4.6" fill="#dadada"/><rect x="87.2" y="268.8" width="2.3" height="4.6" fill="#dadada"/><rect x="67.4" y="292.2" width="5.9" height="4.6" fill="#b6b6b6"/><rect x="91.1" y="292.2" width="2.3" height="4.6" fill="#b6b6b6"/><rect x="80.7" y="292.2" width="8.8" height="4.6" fill="#b6b6b6"/><rect x="90.3" y="304.4" width="2.3" height="4.6" fill="#b6b6b6"/><rect x="74.6" y="304.4" width="2.3" height="4.6" fill="#dadada"/><rect x="62.3" y="304.4" width="10.3" height="4.6" fill="#dadada"/><rect x="74.6" y="316.1" width="7.8" height="4.6" fill="#b6b6b6"/><rect x="70.8" y="316.1" width="2.3" height="4.6" fill="#dadada"/><rect x="87.2" y="316.1" width="2.3" height="4.6" fill="#dadada"/><rect x="68.8" y="258" width="1.9" height="73.5" fill="#bebebe"/><rect x="77.1" y="258" width="1.9" height="73.5" fill="#bebebe"/><rect x="85.3" y="258" width="1.9" height="73.5" fill="#bebebe"/><rect x="50.2" y="258" width="12" height="73.5" fill="#bebebe"/><rect x="50.1" y="303" width="12.1" height="8.2" fill="#5f5f5f"/><line x1="58.3" y1="303" x2="58.3" y2="311.2" fill="none" stroke="#bebebe" stroke-miterlimit="10" stroke-width="0.37"/><line x1="53.8" y1="303" x2="53.8" y2="311.2" fill="none" stroke="#bebebe" stroke-miterlimit="10" stroke-width="0.37"/><rect x="50.1" y="291" width="12.1" height="8.2" fill="#5f5f5f"/><line x1="58.3" y1="291" x2="58.3" y2="299.2" fill="none" stroke="#bebebe" stroke-miterlimit="10" stroke-width="0.37"/><line x1="53.8" y1="291" x2="53.8" y2="299.2" fill="none" stroke="#bebebe" stroke-miterlimit="10" stroke-width="0.37"/><rect x="50.1" y="279" width="12.1" height="8.2" fill="#5f5f5f"/><line x1="58.3" y1="279" x2="58.3" y2="287.2" fill="none" stroke="#bebebe" stroke-miterlimit="10" stroke-width="0.37"/><line x1="53.8" y1="279" x2="53.8" y2="287.2" fill="none" stroke="#bebebe" stroke-miterlimit="10" stroke-width="0.37"/><rect x="50.1" y="267" width="12.1" height="8.2" fill="#5f5f5f"/><line x1="58.3" y1="267" x2="58.3" y2="275.2" fill="none" stroke="#bebebe" stroke-miterlimit="10" stroke-width="0.37"/><line x1="53.8" y1="267" x2="53.8" y2="275.2" fill="none" stroke="#bebebe" stroke-miterlimit="10" stroke-width="0.37"/><rect x="50.2" y="258.1" width="12" height="4.8" fill="#414141"/><rect x="56.3" y="290" width="1.2" height="3" fill="none"/><rect x="60.1" y="290" width="0.5" height="3" fill="none"/><rect x="59.7" y="290" width="0.5" height="3" fill="none"/><rect x="58.6" y="290" width="0.5" height="3" fill="none"/><rect x="61" y="266.8" width="0.5" height="3" fill="none"/><rect x="58.6" y="266.8" width="2" height="3" fill="none"/><rect x="60.8" y="274.7" width="1.4" height="3" fill="none"/><rect x="58.8" y="274.7" width="0.5" height="3" fill="none"/><rect x="54.5" y="274.7" width="2.4" height="3" fill="none"/><rect x="57.2" y="282.4" width="1.8" height="3" fill="none"/><rect x="54.5" y="282.4" width="0.5" height="3" fill="none"/><rect x="60.1" y="282.4" width="0.5" height="3" fill="none"/><rect x="56.3" y="320.9" width="1.2" height="3" fill="none"/><rect x="58.6" y="320.9" width="0.5" height="3" fill="none"/><rect x="57.2" y="313.2" width="1.8" height="3" fill="none"/><rect x="54.2" y="313.2" width="0.5" height="3" fill="none"/><rect x="60.1" y="313.2" width="0.5" height="3" fill="none"/><rect x="55.6" y="328.5" width="1.3" height="3" fill="none"/><rect x="59.8" y="328.5" width="0.5" height="3" fill="none"/><rect x="62.2" y="258" width="31.6" height="4.8" fill="#818181"/><rect x="68.8" y="258" width="1.9" height="4.8" fill="#414141"/><rect x="77.1" y="258" width="1.9" height="4.8" fill="#414141"/><rect x="85.3" y="258" width="1.9" height="4.8" fill="#414141"/><rect x="40" y="308.2" width="65.9" height="23.4" fill="#fff"/><rect x="40.4" y="328.6" width="58.3" height="3" fill="#a4a4a4"/><rect x="40" y="315.6" width="13.1" height="8.3" fill="#a1a1a1"/><line x1="46.5" y1="315.6" x2="46.5" y2="323.8" fill="none" stroke="#fff" stroke-miterlimit="10" stroke-width="0.37"/><rect x="85.6" y="315.6" width="20.4" height="8.3" fill="#a1a1a1"/><rect x="61.9" y="315.6" width="33" height="16" fill="#a1a1a1"/><rect x="85.6" y="328.6" width="9.4" height="3" fill="#5f5f5f"/><rect x="85.6" y="315.6" width="9.4" height="8.3" fill="#7f7f7f"/><line x1="61.9" y1="320.2" x2="94.9" y2="320.2" fill="none" stroke="#fff" stroke-miterlimit="10" stroke-width="0.37"/><line x1="78.2" y1="320.2" x2="78.2" y2="331.6" fill="none" stroke="#fff" stroke-miterlimit="10" stroke-width="0.37"/><line x1="70.9" y1="320.2" x2="70.9" y2="331.6" fill="none" stroke="#fff" stroke-miterlimit="10" stroke-width="0.37"/><line x1="85.6" y1="320.2" x2="85.6" y2="331.6" fill="none" stroke="#fff" stroke-miterlimit="10" stroke-width="0.37"/><rect x="54.8" y="315.6" width="7" height="16" fill="#5f5f5f"/><rect x="61.9" y="315.6" width="33" height="1.5" fill="#818181"/><rect x="54.8" y="315.6" width="7" height="1.5" fill="#555"/><line x1="54.8" y1="320.2" x2="61.9" y2="320.2" fill="none" stroke="#bebebe" stroke-miterlimit="10" stroke-width="0.37"/><polygon points="54.8 331.6 47.7 331.6 54.8 315.6 54.8 331.6" fill="#bebebe"/><rect x="28.2" y="308.2" width="12.1" height="23.4" fill="#bebebe"/><rect x="28.2" y="328.6" width="12.1" height="3" fill="#818181"/><rect x="28.3" y="315.6" width="12.1" height="8.2" fill="#5f5f5f"/><line x1="36.5" y1="315.6" x2="36.5" y2="323.8" fill="none" stroke="#bebebe" stroke-miterlimit="10" stroke-width="0.37"/><line x1="32" y1="315.6" x2="32" y2="323.8" fill="none" stroke="#bebebe" stroke-miterlimit="10" stroke-width="0.37"/><path d="M93.8,331.6a4.2,4.2,0,1,1,8.4-.4v.4" fill="#7f7f7f"/><path d="M98.1,327.4h-.6c1.7.2,3,2,3,4.1h1.8a4.08,4.08,0,0,0-4.2-4.1Z" fill="#aaa"/><rect x="61.9" y="315.6" width="33" height="16" fill="#a1a1a1"/><path d="M91.9,327.4a4.23,4.23,0,0,0-4.2,4.2h7.2v-2.9A4.34,4.34,0,0,0,91.9,327.4Z" fill="#5f5f5f"/><rect x="85.6" y="328.6" width="9.4" height="3" fill="#5f5f5f"/><rect x="85.6" y="315.6" width="9.4" height="8.3" fill="#7f7f7f"/><line x1="61.9" y1="320.2" x2="94.9" y2="320.2" fill="none" stroke="#fff" stroke-miterlimit="10" stroke-width="0.37"/><line x1="78.2" y1="320.2" x2="78.2" y2="331.6" fill="none" stroke="#fff" stroke-miterlimit="10" stroke-width="0.37"/><line x1="70.9" y1="320.2" x2="70.9" y2="331.6" fill="none" stroke="#fff" stroke-miterlimit="10" stroke-width="0.37"/><line x1="85.6" y1="320.2" x2="85.6" y2="331.6" fill="none" stroke="#fff" stroke-miterlimit="10" stroke-width="0.37"/><rect x="54.8" y="315.6" width="7" height="16" fill="#5f5f5f"/><rect x="61.9" y="315.6" width="33" height="1.5" fill="#818181"/><rect x="54.8" y="315.6" width="7" height="1.5" fill="#555"/><line x1="54.8" y1="320.2" x2="61.9" y2="320.2" fill="none" stroke="#bebebe" stroke-miterlimit="10" stroke-width="0.37"/><path d="M46,331.6a4.2,4.2,0,1,1,8.4,0H46Z" fill="#aaa"/><path d="M42.5,331.6a2.4,2.4,0,1,1,4.8,0H42.5Z" fill="#aaa"/><path d="M38.3,331.6a2.9,2.9,0,1,1,5.8,0Z" fill="#aaa"/><line x1="-63.2" y1="331.6" x2="1001.1" y2="331.6" fill="none" stroke="#383838" stroke-miterlimit="10" stroke-width="1.65"/><g opacity="0.5"><polyline points="490.1 270.3 533.8 270.3 547.6 284.1 556.4 284.1 587.8 315.4 632.5 315.4 705.1 315.4 714 324.4 784 324.4 792.7 315.7 856.9 315.7" fill="none" stroke="#e2e2e2" stroke-miterlimit="10" stroke-width="0.73"/><path d="M490.2,271.5a1.2,1.2,0,1,1,1.2-1.2h0A1.16,1.16,0,0,1,490.2,271.5Z" fill="#e2e2e2"/><path d="M856.9,316.9a1.22,1.22,0,0,0,1.2-1.2,1.29,1.29,0,0,0-1.2-1.2,1.22,1.22,0,0,0-1.2,1.2h0A1.15,1.15,0,0,0,856.9,316.9Z" fill="#e2e2e2"/><polyline points="513.5 235.6 533.9 235.6 533.9 176.3" fill="none" stroke="#e2e2e2" stroke-miterlimit="10" stroke-width="0.73"/><circle cx="513.5" cy="235.6" r="1.2" fill="#e2e2e2"/><path d="M535.2,176.4a1.2,1.2,0,1,0-1.2,1.2h0A1.22,1.22,0,0,0,535.2,176.4Z" fill="#e2e2e2"/><polyline points="507.4 184.2 507.4 158.9 524 142.2 552.1 142.2" fill="none" stroke="#e2e2e2" stroke-miterlimit="10" stroke-width="0.73"/><path d="M508.6,184.1a1.2,1.2,0,1,1-1.2-1.2h0A1.16,1.16,0,0,1,508.6,184.1Z" fill="#e2e2e2"/><circle cx="552" cy="142.2" r="1.2" fill="#e2e2e2"/><polyline points="525 229.4 516.1 229.4 516.1 185.2" fill="none" stroke="#e2e2e2" stroke-miterlimit="10" stroke-width="0.73"/><circle cx="524.9" cy="229.4" r="1.2" fill="#e2e2e2"/><path d="M517.3,185.2a1.2,1.2,0,1,0-1.2,1.2h0A1.1,1.1,0,0,0,517.3,185.2Z" fill="#e2e2e2"/><polyline points="507.4 184.2 507.4 173.6 500.7 166.9" fill="none" stroke="#e2e2e2" stroke-miterlimit="10" stroke-width="0.73"/><path d="M508.6,184.1a1.2,1.2,0,1,1-1.2-1.2h0A1.16,1.16,0,0,1,508.6,184.1Z" fill="#e2e2e2"/><path d="M501.6,166.1a1.27,1.27,0,1,0,0,1.8h0a1.27,1.27,0,0,0,0-1.8Z" fill="#e2e2e2"/><line x1="515.1" y1="166.9" x2="531.1" y2="150.8" fill="none" stroke="#e2e2e2" stroke-miterlimit="10" stroke-width="0.73"/><path d="M516,167.7a1.27,1.27,0,1,1-1.8-1.8,1.15,1.15,0,0,1,1.7,0,1.19,1.19,0,0,1,.1,1.8Z" fill="#e2e2e2"/><circle cx="531.1" cy="150.9" r="1.2" fill="#e2e2e2"/><polyline points="511.9 245.7 530 245.7 542.4 258 542.4 236.9" fill="none" stroke="#e2e2e2" stroke-miterlimit="10" stroke-width="0.73"/><circle cx="512" cy="245.7" r="1.2" fill="#e2e2e2"/><circle cx="542.4" cy="237" r="1.2" fill="#e2e2e2"/><line x1="524.5" y1="220.2" x2="524.5" y2="200.3" fill="none" stroke="#e2e2e2" stroke-miterlimit="10" stroke-width="0.73"/><path d="M525.7,220.1a1.2,1.2,0,1,1-1.2-1.2,1.29,1.29,0,0,1,1.2,1.2Z" fill="#e2e2e2"/><path d="M525.7,200.3a1.2,1.2,0,1,0-1.2,1.2h0A1.15,1.15,0,0,0,525.7,200.3Z" fill="#e2e2e2"/><polyline points="524.5 192 524.5 182.2 519 176.8" fill="none" stroke="#e2e2e2" stroke-miterlimit="10" stroke-width="0.73"/><path d="M525.7,191.9a1.2,1.2,0,1,1-1.2-1.2h0A1.29,1.29,0,0,1,525.7,191.9Z" fill="#e2e2e2"/><path d="M520,176a1.15,1.15,0,0,0-1.7,0h0a1.27,1.27,0,0,0,1.8,1.8,1.37,1.37,0,0,0-.1-1.8Z" fill="#e2e2e2"/><polyline points="524.5 192 524.5 173.6 542.2 155.9 550.7 155.9" fill="none" stroke="#e2e2e2" stroke-miterlimit="10" stroke-width="0.73"/><path d="M525.7,191.9a1.2,1.2,0,1,1-1.2-1.2h0A1.29,1.29,0,0,1,525.7,191.9Z" fill="#e2e2e2"/><path d="M550.6,157.1a1.2,1.2,0,1,0-1.2-1.2A1.16,1.16,0,0,0,550.6,157.1Z" fill="#e2e2e2"/><polyline points="542.4 229.2 542.4 168.2 549.9 168.2" fill="none" stroke="#e2e2e2" stroke-miterlimit="10" stroke-width="0.73"/><path d="M543.6,229.1a1.2,1.2,0,1,1-1.2-1.2h0A1.16,1.16,0,0,1,543.6,229.1Z" fill="#e2e2e2"/><circle cx="549.8" cy="168.2" r="1.2" fill="#e2e2e2"/><polyline points="613 266.6 549.8 266.6 549.8 178.7" fill="none" stroke="#e2e2e2" stroke-miterlimit="10" stroke-width="0.73"/><circle cx="612.9" cy="266.6" r="1.2" fill="#e2e2e2"/><path d="M551.1,178.7a1.2,1.2,0,1,0-1.2,1.2h0A1.15,1.15,0,0,0,551.1,178.7Z" fill="#e2e2e2"/><polyline points="613 266.6 549.8 266.6 549.8 196.2 558.8 187.3" fill="none" stroke="#e2e2e2" stroke-miterlimit="10" stroke-width="0.73"/><circle cx="612.9" cy="266.6" r="1.2" fill="#e2e2e2"/><path d="M559.6,188.2a1.27,1.27,0,1,0-1.8-1.8h0a1.27,1.27,0,0,0,1.8,1.8Z" fill="#e2e2e2"/><polyline points="580.5 211.7 573.3 204.5 557.9 219.9 557.9 204 564.4 197.6" fill="none" stroke="#e2e2e2" stroke-miterlimit="10" stroke-width="0.73"/><path d="M581.3,210.8a1.27,1.27,0,0,1-1.8,1.8,1.15,1.15,0,0,1,0-1.7,1.19,1.19,0,0,1,1.8-.1Z" fill="#e2e2e2"/><circle cx="564.3" cy="197.6" r="1.2" fill="#e2e2e2"/><line x1="561.9" y1="231.9" x2="574.5" y2="219.3" fill="none" stroke="#e2e2e2" stroke-miterlimit="10" stroke-width="0.73"/><path d="M562.8,232.8A1.27,1.27,0,0,1,561,231a1.15,1.15,0,0,1,1.7,0,1.19,1.19,0,0,1,.1,1.8Z" fill="#e2e2e2"/><path d="M575.3,220.2a1.27,1.27,0,1,0-1.8,0,1.27,1.27,0,0,0,1.8,0Z" fill="#e2e2e2"/><polyline points="632.5 250.6 570.7 250.6 570.7 236.7 588.8 218.6" fill="none" stroke="#e2e2e2" stroke-miterlimit="10" stroke-width="0.73"/><circle cx="632.4" cy="250.6" r="1.2" fill="#e2e2e2"/><path d="M589.7,219.5a1.27,1.27,0,0,0-.1-1.8,1.21,1.21,0,0,0-1.6,0,1.15,1.15,0,0,0,0,1.7h0A1.08,1.08,0,0,0,589.7,219.5Z" fill="#e2e2e2"/><polyline points="597.9 224.8 626.2 224.8 626.2 233.3 589.2 233.3" fill="none" stroke="#e2e2e2" stroke-miterlimit="10" stroke-width="0.73"/><path d="M597.9,226.1a1.22,1.22,0,0,1-1.2-1.2,1.29,1.29,0,0,1,1.2-1.2,1.22,1.22,0,0,1,1.2,1.2h0A1.15,1.15,0,0,1,597.9,226.1Z" fill="#e2e2e2"/><path d="M589.2,232.1a1.22,1.22,0,0,0-1.2,1.2,1.29,1.29,0,0,0,1.2,1.2,1.22,1.22,0,0,0,1.2-1.2h0A1.15,1.15,0,0,0,589.2,232.1Z" fill="#e2e2e2"/><polyline points="687.7 224.8 641.1 224.8 634 231.9" fill="none" stroke="#e2e2e2" stroke-miterlimit="10" stroke-width="0.73"/><path d="M687.7,223.6a1.22,1.22,0,0,1,1.2,1.2,1.29,1.29,0,0,1-1.2,1.2,1.22,1.22,0,0,1-1.2-1.2h0A1.1,1.1,0,0,1,687.7,223.6Z" fill="#e2e2e2"/><path d="M633.2,231a1.27,1.27,0,0,0,1.8,1.8h0a1.27,1.27,0,1,0-1.8-1.8Z" fill="#e2e2e2"/><polyline points="634 231.9 641.1 224.8 660.1 224.8 672.3 212.6 703.9 212.6 703.9 206.6" fill="none" stroke="#e2e2e2" stroke-miterlimit="10" stroke-width="0.73"/><path d="M634.9,232.8a1.27,1.27,0,0,1-1.8-1.8,1.15,1.15,0,0,1,1.7,0,1.19,1.19,0,0,1,.1,1.8Z" fill="#e2e2e2"/><path d="M705.1,206.6a1.2,1.2,0,1,0-1.2,1.2h0A1.1,1.1,0,0,0,705.1,206.6Z" fill="#e2e2e2"/><polyline points="715.7 205.3 705.8 195.4 705.8 174.5 717.7 162.7" fill="none" stroke="#e2e2e2" stroke-miterlimit="10" stroke-width="0.73"/><path d="M716.5,204.4a1.27,1.27,0,1,1-1.8,1.8,1.15,1.15,0,0,1,0-1.7,1.19,1.19,0,0,1,1.8-.1Z" fill="#e2e2e2"/><path d="M718.5,163.6a1.27,1.27,0,1,0-1.8-1.8,1.15,1.15,0,0,0,0,1.7,1.19,1.19,0,0,0,1.8.1Z" fill="#e2e2e2"/><polyline points="579.1 242.1 637.2 242.1 645.2 234.2 697.1 234.2" fill="none" stroke="#e2e2e2" stroke-miterlimit="10" stroke-width="0.73"/><path d="M579.2,243.4a1.22,1.22,0,0,1-1.2-1.2,1.29,1.29,0,0,1,1.2-1.2,1.22,1.22,0,0,1,1.2,1.2h0A1.29,1.29,0,0,1,579.2,243.4Z" fill="#e2e2e2"/><path d="M697,235.4a1.22,1.22,0,0,0,1.2-1.2A1.29,1.29,0,0,0,697,233a1.22,1.22,0,0,0-1.2,1.2h0A1.16,1.16,0,0,0,697,235.4Z" fill="#e2e2e2"/><polyline points="649.2 241.6 696.7 241.6 704.1 234.2 732.1 234.2 740 242.1 830.5 242.1" fill="none" stroke="#e2e2e2" stroke-miterlimit="10" stroke-width="0.73"/><circle cx="649.3" cy="241.6" r="1.2" fill="#e2e2e2"/><path d="M830.4,243.3a1.22,1.22,0,0,0,1.2-1.2,1.29,1.29,0,0,0-1.2-1.2,1.22,1.22,0,0,0-1.2,1.2h0A1.29,1.29,0,0,0,830.4,243.3Z" fill="#e2e2e2"/><line x1="740.7" y1="234.2" x2="792.1" y2="234.2" fill="none" stroke="#e2e2e2" stroke-miterlimit="10" stroke-width="0.73"/><path d="M740.7,235.4a1.2,1.2,0,0,1,0-2.4,1.29,1.29,0,0,1,1.2,1.2h0A1.1,1.1,0,0,1,740.7,235.4Z" fill="#e2e2e2"/><path d="M792,235.4a1.2,1.2,0,1,0,0-2.4,1.29,1.29,0,0,0-1.2,1.2h0a1.16,1.16,0,0,0,1.2,1.2Z" fill="#e2e2e2"/><line x1="706.6" y1="242.1" x2="731" y2="242.1" fill="none" stroke="#e2e2e2" stroke-miterlimit="10" stroke-width="0.73"/><circle cx="706.7" cy="242.1" r="1.2" fill="#e2e2e2"/><circle cx="731" cy="242.1" r="1.2" fill="#e2e2e2"/><polyline points="622.9 258.8 561.3 258.8 561.3 239.9" fill="none" stroke="#e2e2e2" stroke-miterlimit="10" stroke-width="0.73"/><circle cx="622.8" cy="258.8" r="1.2" fill="#e2e2e2"/><circle cx="561.3" cy="240" r="1.2" fill="#e2e2e2"/><line x1="604.2" y1="273.1" x2="585.3" y2="273.1" fill="none" stroke="#e2e2e2" stroke-miterlimit="10" stroke-width="0.73"/><path d="M604.1,271.8a1.22,1.22,0,0,1,1.2,1.2,1.29,1.29,0,0,1-1.2,1.2,1.22,1.22,0,0,1-1.2-1.2h0a1.22,1.22,0,0,1,1.2-1.2Z" fill="#e2e2e2"/><path d="M585.3,271.8a1.22,1.22,0,0,0-1.2,1.2,1.29,1.29,0,0,0,1.2,1.2,1.22,1.22,0,0,0,1.2-1.2h0A1.15,1.15,0,0,0,585.3,271.8Z" fill="#e2e2e2"/><line x1="575.7" y1="289.2" x2="568.6" y2="282.1" fill="none" stroke="#e2e2e2" stroke-miterlimit="10" stroke-width="0.73"/><path d="M576.5,288.3a1.27,1.27,0,0,1-.1,1.8,1.21,1.21,0,0,1-1.6,0,1.27,1.27,0,0,1,.1-1.8A1.21,1.21,0,0,1,576.5,288.3Z" fill="#e2e2e2"/><path d="M569.5,281.3a1.27,1.27,0,0,0-1.8.1,1.21,1.21,0,0,0,0,1.6,1.27,1.27,0,0,0,1.8-.1A1.21,1.21,0,0,0,569.5,281.3Z" fill="#e2e2e2"/><polyline points="569.3 311.6 581.8 324 652 324" fill="none" stroke="#e2e2e2" stroke-miterlimit="10" stroke-width="0.73"/><path d="M568.4,312.5a1.15,1.15,0,0,1,0-1.7h0a1.27,1.27,0,0,1,1.8.1,1.21,1.21,0,0,1,0,1.6,1.27,1.27,0,0,1-1.8,0Z" fill="#e2e2e2"/><circle cx="651.9" cy="324" r="1.2" fill="#e2e2e2"/><line x1="662.2" y1="324" x2="702.7" y2="324" fill="none" stroke="#e2e2e2" stroke-miterlimit="10" stroke-width="0.73"/><circle cx="662.3" cy="324" r="1.2" fill="#e2e2e2"/><circle cx="702.6" cy="324" r="1.2" fill="#e2e2e2"/><line x1="797.2" y1="324" x2="837.7" y2="324" fill="none" stroke="#e2e2e2" stroke-miterlimit="10" stroke-width="0.73"/><path d="M797.2,325.3a1.22,1.22,0,0,1-1.2-1.2,1.29,1.29,0,0,1,1.2-1.2,1.22,1.22,0,0,1,1.2,1.2h0a1.15,1.15,0,0,1-1.2,1.2Z" fill="#e2e2e2"/><path d="M837.6,325.3a1.22,1.22,0,0,0,1.2-1.2,1.29,1.29,0,0,0-1.2-1.2,1.22,1.22,0,0,0-1.2,1.2h0A1.22,1.22,0,0,0,837.6,325.3Z" fill="#e2e2e2"/><polyline points="591.5 291.7 583.6 291.7 583.6 299.3 591.4 307 653 307 709.7 307 718 315.3 781.5 315.3" fill="none" stroke="#e2e2e2" stroke-miterlimit="10" stroke-width="0.73"/><circle cx="591.4" cy="291.7" r="1.2" fill="#e2e2e2"/><path d="M781.5,316.5a1.22,1.22,0,0,0,1.2-1.2,1.29,1.29,0,0,0-1.2-1.2,1.22,1.22,0,0,0-1.2,1.2h0a1.15,1.15,0,0,0,1.2,1.2Z" fill="#e2e2e2"/><polyline points="506.2 254.8 530.3 254.8 548.8 273.2 573.8 273.2 584.1 283.5 591.5 283.5" fill="none" stroke="#e2e2e2" stroke-miterlimit="10" stroke-width="0.73"/><path d="M506.3,256a1.2,1.2,0,1,1,1.2-1.2h0A1.22,1.22,0,0,1,506.3,256Z" fill="#e2e2e2"/><circle cx="591.4" cy="283.5" r="1.2" fill="#e2e2e2"/><line x1="526.2" y1="262.5" x2="501" y2="262.5" fill="none" stroke="#e2e2e2" stroke-miterlimit="10" stroke-width="0.73"/><circle cx="526.1" cy="262.5" r="1.2" fill="#e2e2e2"/><path d="M501.1,261.3a1.2,1.2,0,1,0,1.2,1.2h0a1.16,1.16,0,0,0-1.2-1.2Z" fill="#e2e2e2"/><polyline points="521.5 278.9 530.4 278.9 542.4 290.9" fill="none" stroke="#e2e2e2" stroke-miterlimit="10" stroke-width="0.73"/><path d="M521.6,280.1a1.22,1.22,0,0,1-1.2-1.2,1.29,1.29,0,0,1,1.2-1.2,1.22,1.22,0,0,1,1.2,1.2h0A1.22,1.22,0,0,1,521.6,280.1Z" fill="#e2e2e2"/><path d="M541.5,291.7a1.27,1.27,0,0,0,1.8-1.8,1.15,1.15,0,0,0-1.7,0A1.19,1.19,0,0,0,541.5,291.7Z" fill="#e2e2e2"/><polyline points="526.1 292.9 526.1 306.5 550 306.5 550 323.8" fill="none" stroke="#e2e2e2" stroke-miterlimit="10" stroke-width="0.73"/><path d="M524.9,292.9a1.2,1.2,0,1,1,1.2,1.2h0A1.1,1.1,0,0,1,524.9,292.9Z" fill="#e2e2e2"/><path d="M548.7,323.7a1.2,1.2,0,1,0,1.2-1.2h0A1.22,1.22,0,0,0,548.7,323.7Z" fill="#e2e2e2"/><polyline points="560.2 323.8 560.2 298.5 534.1 298.5" fill="none" stroke="#e2e2e2" stroke-miterlimit="10" stroke-width="0.73"/><path d="M561.4,323.7a1.2,1.2,0,1,1-1.2-1.2h0a1.16,1.16,0,0,1,1.2,1.2Z" fill="#e2e2e2"/><circle cx="534.2" cy="298.5" r="1.2" fill="#e2e2e2"/><polyline points="1006.4 270.3 962.7 270.3 948.9 284.1 940.1 284.1 908.7 315.4 865.2 315.4" fill="none" stroke="#e2e2e2" stroke-miterlimit="10" stroke-width="0.73"/><circle cx="865.2" cy="315.4" r="1.2" fill="#e2e2e2"/><polyline points="974.4 112.1 974.4 132.5 915.1 132.5" fill="none" stroke="#e2e2e2" stroke-miterlimit="10" stroke-width="0.73"/><path d="M973.1,112.1a1.2,1.2,0,1,1,1.2,1.2h0a1.15,1.15,0,0,1-1.2-1.2Z" fill="#e2e2e2"/><path d="M915.2,131.3a1.2,1.2,0,1,0,1.2,1.2,1.22,1.22,0,0,0-1.2-1.2Z" fill="#e2e2e2"/><polyline points="956.2 106 985.7 106 985.7 126.3" fill="none" stroke="#e2e2e2" stroke-miterlimit="10" stroke-width="0.73"/><path d="M956.2,107.2A1.22,1.22,0,0,1,955,106a1.29,1.29,0,0,1,1.2-1.2,1.22,1.22,0,0,1,1.2,1.2h0a1.1,1.1,0,0,1-1.2,1.2Z" fill="#e2e2e2"/><path d="M984.5,126.3a1.2,1.2,0,1,0,1.2-1.2h0a1.15,1.15,0,0,0-1.2,1.2Z" fill="#e2e2e2"/><polyline points="945.6 106 897.6 106 881 122.6 881 151.9 870.7 151.9 870.7 142.2" fill="none" stroke="#e2e2e2" stroke-miterlimit="10" stroke-width="0.73"/><path d="M945.5,104.8a1.2,1.2,0,1,1-1.2,1.2h0A1.16,1.16,0,0,1,945.5,104.8Z" fill="#e2e2e2"/><path d="M872,142.2a1.2,1.2,0,1,0-1.2,1.2h0A1.15,1.15,0,0,0,872,142.2Z" fill="#e2e2e2"/><polyline points="968.2 123.6 968.2 114.7 923.9 114.7" fill="none" stroke="#e2e2e2" stroke-miterlimit="10" stroke-width="0.73"/><path d="M969.4,123.5a1.2,1.2,0,1,1-1.2-1.2h0a1.16,1.16,0,0,1,1.2,1.2Z" fill="#e2e2e2"/><path d="M924,113.5a1.2,1.2,0,1,0,1.2,1.2h0a1.16,1.16,0,0,0-1.2-1.2Z" fill="#e2e2e2"/><line x1="905.7" y1="113.7" x2="889.6" y2="129.8" fill="none" stroke="#e2e2e2" stroke-miterlimit="10" stroke-width="0.73"/><circle cx="905.6" cy="113.7" r="1.2" fill="#e2e2e2"/><path d="M888.8,128.8a1.15,1.15,0,0,0,0,1.7h0a1.27,1.27,0,0,0,1.8-.1,1.21,1.21,0,0,0,0-1.6,1.27,1.27,0,0,0-1.8,0Z" fill="#e2e2e2"/><polyline points="985.9 245.7 966.5 245.7 956.4 255.7 956.4 242.7" fill="none" stroke="#e2e2e2" stroke-miterlimit="10" stroke-width="0.73"/><path d="M985.8,244.5a1.2,1.2,0,1,1,0,2.4,1.29,1.29,0,0,1-1.2-1.2h0A1.16,1.16,0,0,1,985.8,244.5Z" fill="#e2e2e2"/><path d="M957.7,242.8a1.2,1.2,0,1,0-1.2,1.2h0A1.22,1.22,0,0,0,957.7,242.8Z" fill="#e2e2e2"/><polyline points="975 206.9 964.7 206.9 975.2 196.4 975.2 159.9" fill="none" stroke="#e2e2e2" stroke-miterlimit="10" stroke-width="0.73"/><path d="M974.9,205.7a1.2,1.2,0,1,1-1.2,1.2h0A1.29,1.29,0,0,1,974.9,205.7Z" fill="#e2e2e2"/><path d="M976.5,159.9a1.2,1.2,0,1,0-1.2,1.2,1.15,1.15,0,0,0,1.2-1.2Z" fill="#e2e2e2"/><polyline points="975 206.9 964.7 206.9 975.2 196.4 975.2 174.5 961.5 160.8" fill="none" stroke="#e2e2e2" stroke-miterlimit="10" stroke-width="0.73"/><path d="M974.9,205.7a1.2,1.2,0,1,1-1.2,1.2h0A1.29,1.29,0,0,1,974.9,205.7Z" fill="#e2e2e2"/><circle cx="961.5" cy="160.8" r="1.2" fill="#e2e2e2"/><polyline points="956.2 233.3 970.4 233.3 970.4 224.8 991.5 224.8 991.5 206.9 982.3 206.9" fill="none" stroke="#e2e2e2" stroke-miterlimit="10" stroke-width="0.73"/><path d="M956.2,234.6a1.2,1.2,0,1,1,1.2-1.2A1.22,1.22,0,0,1,956.2,234.6Z" fill="#e2e2e2"/><circle cx="982.3" cy="206.9" r="1.2" fill="#e2e2e2"/><line x1="959" y1="123.1" x2="939" y2="123.1" fill="none" stroke="#e2e2e2" stroke-miterlimit="10" stroke-width="0.73"/><path d="M958.9,121.8a1.2,1.2,0,1,1,0,2.4h0a1.2,1.2,0,1,1,0-2.4Z" fill="#e2e2e2"/><path d="M939.1,121.8a1.2,1.2,0,1,0,1.2,1.2h0A1.22,1.22,0,0,0,939.1,121.8Z" fill="#e2e2e2"/><polyline points="930.8 123.1 921 123.1 915.6 117.7" fill="none" stroke="#e2e2e2" stroke-miterlimit="10" stroke-width="0.73"/><path d="M930.7,121.8a1.22,1.22,0,0,1,1.2,1.2,1.29,1.29,0,0,1-1.2,1.2,1.22,1.22,0,0,1-1.2-1.2h0A1.22,1.22,0,0,1,930.7,121.8Z" fill="#e2e2e2"/><path d="M916.5,116.8a1.27,1.27,0,0,0-1.8.1,1.21,1.21,0,0,0,0,1.6,1.27,1.27,0,0,0,1.8-.1A1.21,1.21,0,0,0,916.5,116.8Z" fill="#e2e2e2"/><polyline points="747.5 151.8 766.9 171.2 766.9 212.6 781.3 212.6 781.3 202.3 801.9 202.3 801.9 212.6 813.3 212.6 813.3 201.1 804.2 192.1 804.2 169.4 791.6 156.7" fill="none" stroke="#e2e2e2" stroke-miterlimit="10" stroke-width="0.73"/><path d="M746.7,152.7a1.24,1.24,0,1,1,1.8-1.7,1.21,1.21,0,0,1,0,1.6A1.19,1.19,0,0,1,746.7,152.7Z" fill="#e2e2e2"/><path d="M792.5,155.9a1.27,1.27,0,0,0-1.8.1,1.21,1.21,0,0,0,0,1.6,1.27,1.27,0,0,0,1.8-.1A1.21,1.21,0,0,0,792.5,155.9Z" fill="#e2e2e2"/><polyline points="810.4 164 817.1 157.4 804.2 157.4" fill="none" stroke="#e2e2e2" stroke-miterlimit="10" stroke-width="0.73"/><path d="M811.3,164.9a1.27,1.27,0,0,1-1.8-1.8,1.15,1.15,0,0,1,1.7,0,1.19,1.19,0,0,1,.1,1.8Z" fill="#e2e2e2"/><path d="M804.3,156.1a1.22,1.22,0,0,0-1.2,1.2,1.29,1.29,0,0,0,1.2,1.2,1.22,1.22,0,0,0,1.2-1.2h0A1.22,1.22,0,0,0,804.3,156.1Z" fill="#e2e2e2"/><line x1="852.8" y1="157.4" x2="804.2" y2="157.4" fill="none" stroke="#e2e2e2" stroke-miterlimit="10" stroke-width="0.73"/><circle cx="852.7" cy="157.4" r="1.2" fill="#e2e2e2"/><path d="M804.3,156.1a1.22,1.22,0,0,0-1.2,1.2,1.29,1.29,0,0,0,1.2,1.2,1.22,1.22,0,0,0,1.2-1.2h0A1.22,1.22,0,0,0,804.3,156.1Z" fill="#e2e2e2"/><polyline points="755.7 145.2 775.1 164.5 775.1 193.5 794.8 193.5" fill="none" stroke="#e2e2e2" stroke-miterlimit="10" stroke-width="0.73"/><path d="M754.9,146.1a1.27,1.27,0,1,1,1.8,0A1.27,1.27,0,0,1,754.9,146.1Z" fill="#e2e2e2"/><path d="M794.8,194.7a1.22,1.22,0,0,0,1.2-1.2,1.29,1.29,0,0,0-1.2-1.2,1.22,1.22,0,0,0-1.2,1.2h0A1.15,1.15,0,0,0,794.8,194.7Z" fill="#e2e2e2"/><polyline points="794.9 184.6 794.9 171.5 781.2 157.8" fill="none" stroke="#e2e2e2" stroke-miterlimit="10" stroke-width="0.73"/><circle cx="794.9" cy="184.5" r="1.2" fill="#e2e2e2"/><path d="M782.1,156.9a1.27,1.27,0,0,0-1.8,0,1.15,1.15,0,0,0,0,1.7h0a1.27,1.27,0,0,0,1.8-.1A1.21,1.21,0,0,0,782.1,156.9Z" fill="#e2e2e2"/><line x1="785.4" y1="173.9" x2="785.4" y2="185.2" fill="none" stroke="#e2e2e2" stroke-miterlimit="10" stroke-width="0.73"/><path d="M784.1,173.9a1.2,1.2,0,1,1,1.2,1.2h0A1.15,1.15,0,0,1,784.1,173.9Z" fill="#e2e2e2"/><path d="M784.1,185.2a1.2,1.2,0,1,0,1.2-1.2h0a1.15,1.15,0,0,0-1.2,1.2Z" fill="#e2e2e2"/><polyline points="783.5 151 774.8 151 763.8 139.9 700.3 139.9" fill="none" stroke="#e2e2e2" stroke-miterlimit="10" stroke-width="0.73"/><path d="M783.4,149.8a1.2,1.2,0,1,1-1.2,1.2h0a1.16,1.16,0,0,1,1.2-1.2Z" fill="#e2e2e2"/><circle cx="700.3" cy="139.9" r="1.2" fill="#e2e2e2"/><polyline points="700.6 146.6 700.6 151 738.2 151" fill="none" stroke="#e2e2e2" stroke-miterlimit="10" stroke-width="0.73"/><circle cx="700.6" cy="146.7" r="1.2" fill="#e2e2e2"/><path d="M738.1,152.2a1.22,1.22,0,0,0,1.2-1.2,1.29,1.29,0,0,0-1.2-1.2,1.22,1.22,0,0,0-1.2,1.2h0A1.16,1.16,0,0,0,738.1,152.2Z" fill="#e2e2e2"/><polyline points="696.7 173.2 696.7 159.5 708 159.5" fill="none" stroke="#e2e2e2" stroke-miterlimit="10" stroke-width="0.73"/><circle cx="696.7" cy="173.1" r="1.2" fill="#e2e2e2"/><path d="M708,160.8a1.2,1.2,0,1,0,0-2.4,1.29,1.29,0,0,0-1.2,1.2h0a1.22,1.22,0,0,0,1.2,1.2Z" fill="#e2e2e2"/><polyline points="696.7 181.3 696.7 205.4 681.5 205.4 690.9 196" fill="none" stroke="#e2e2e2" stroke-miterlimit="10" stroke-width="0.73"/><circle cx="696.7" cy="181.3" r="1.2" fill="#e2e2e2"/><path d="M691.8,196.9a1.27,1.27,0,1,0-1.8-1.8,1.15,1.15,0,0,0,0,1.7,1.19,1.19,0,0,0,1.8.1Z" fill="#e2e2e2"/><polyline points="930.8 123.1 912.4 123.1 894.6 140.8 894.6 160.2 869.4 160.2 859.5 150.4" fill="none" stroke="#e2e2e2" stroke-miterlimit="10" stroke-width="0.73"/><path d="M930.7,121.8a1.22,1.22,0,0,1,1.2,1.2,1.29,1.29,0,0,1-1.2,1.2,1.22,1.22,0,0,1-1.2-1.2h0A1.22,1.22,0,0,1,930.7,121.8Z" fill="#e2e2e2"/><path d="M860.5,149.5a1.27,1.27,0,0,0-1.8,1.8h0a1.27,1.27,0,0,0,1.8,0A1.37,1.37,0,0,0,860.5,149.5Z" fill="#e2e2e2"/><polyline points="871.9 167.6 876.2 171.9 891.8 171.9" fill="none" stroke="#e2e2e2" stroke-miterlimit="10" stroke-width="0.73"/><path d="M871.1,168.5a1.27,1.27,0,1,1,1.8,0h0a1.27,1.27,0,0,1-1.8,0Z" fill="#e2e2e2"/><path d="M891.8,173.1a1.22,1.22,0,0,0,1.2-1.2,1.29,1.29,0,0,0-1.2-1.2,1.22,1.22,0,0,0-1.2,1.2h0A1.1,1.1,0,0,0,891.8,173.1Z" fill="#e2e2e2"/><polyline points="891.8 171.9 876.2 171.9 869.8 178.2 869.8 193.5" fill="none" stroke="#e2e2e2" stroke-miterlimit="10" stroke-width="0.73"/><path d="M891.8,170.6a1.22,1.22,0,0,1,1.2,1.2,1.29,1.29,0,0,1-1.2,1.2,1.22,1.22,0,0,1-1.2-1.2h0A1.15,1.15,0,0,1,891.8,170.6Z" fill="#e2e2e2"/><path d="M868.6,193.5a1.2,1.2,0,1,0,1.2-1.2h0A1.15,1.15,0,0,0,868.6,193.5Z" fill="#e2e2e2"/><polyline points="990.6 165.3 982.5 173.4 982.5 196.7 994.3 196.7" fill="none" stroke="#e2e2e2" stroke-miterlimit="10" stroke-width="0.73"/><path d="M989.7,164.5a1.15,1.15,0,0,1,1.7,0h0a1.27,1.27,0,1,1-1.8,1.8,1.36,1.36,0,0,1,.1-1.8Z" fill="#e2e2e2"/><path d="M994.3,198a1.22,1.22,0,0,0,1.2-1.2,1.29,1.29,0,0,0-1.2-1.2,1.22,1.22,0,0,0-1.2,1.2h0A1.15,1.15,0,0,0,994.3,198Z" fill="#e2e2e2"/><line x1="991.5" y1="173.9" x2="991.5" y2="189.4" fill="none" stroke="#e2e2e2" stroke-miterlimit="10" stroke-width="0.73"/><path d="M990.2,173.9a1.2,1.2,0,1,1,1.2,1.2h0A1.15,1.15,0,0,1,990.2,173.9Z" fill="#e2e2e2"/><path d="M990.2,189.4a1.2,1.2,0,1,0,1.2-1.2h0A1.15,1.15,0,0,0,990.2,189.4Z" fill="#e2e2e2"/><line x1="999.8" y1="206.9" x2="1015.3" y2="206.9" fill="none" stroke="#e2e2e2" stroke-miterlimit="10" stroke-width="0.73"/><path d="M999.8,208.2a1.22,1.22,0,0,1-1.2-1.2,1.29,1.29,0,0,1,1.2-1.2,1.22,1.22,0,0,1,1.2,1.2h0a1.15,1.15,0,0,1-1.2,1.2Z" fill="#e2e2e2"/><line x1="999.8" y1="216" x2="1015.3" y2="216" fill="none" stroke="#e2e2e2" stroke-miterlimit="10" stroke-width="0.73"/><path d="M999.8,217.2a1.2,1.2,0,1,1,0-2.4,1.29,1.29,0,0,1,1.2,1.2h0a1.1,1.1,0,0,1-1.2,1.2Z" fill="#e2e2e2"/><line x1="999.8" y1="225.1" x2="1015.3" y2="225.1" fill="none" stroke="#e2e2e2" stroke-miterlimit="10" stroke-width="0.73"/><path d="M999.8,226.3a1.2,1.2,0,1,1,0-2.4,1.29,1.29,0,0,1,1.2,1.2h0a1.16,1.16,0,0,1-1.2,1.2Z" fill="#e2e2e2"/><line x1="979.5" y1="234.2" x2="1015.3" y2="234.2" fill="none" stroke="#e2e2e2" stroke-miterlimit="10" stroke-width="0.73"/><path d="M979.6,235.4a1.2,1.2,0,0,1,0-2.4,1.29,1.29,0,0,1,1.2,1.2h0A1.16,1.16,0,0,1,979.6,235.4Z" fill="#e2e2e2"/><polyline points="1015.3 234.2 987 234.2 1009.2 256.3" fill="none" stroke="#e2e2e2" stroke-miterlimit="10" stroke-width="0.73"/><polyline points="992.6 133.4 1016.2 133.4 1016.2 163.3" fill="none" stroke="#e2e2e2" stroke-miterlimit="10" stroke-width="0.73"/><path d="M992.7,134.7a1.2,1.2,0,0,1,0-2.4,1.29,1.29,0,0,1,1.2,1.2h0A1.22,1.22,0,0,1,992.7,134.7Z" fill="#e2e2e2"/><line x1="1015.1" y1="164.5" x2="996.7" y2="164.5" fill="none" stroke="#e2e2e2" stroke-miterlimit="10" stroke-width="0.73"/><path d="M996.8,163.2a1.2,1.2,0,1,0,1.2,1.2h0a1.29,1.29,0,0,0-1.2-1.2Z" fill="#e2e2e2"/><line x1="992.3" y1="125.9" x2="1006.9" y2="111.3" fill="none" stroke="#e2e2e2" stroke-miterlimit="10" stroke-width="0.73"/><path d="M993.2,126.7a1.27,1.27,0,0,1-1.8-.1,1.21,1.21,0,0,1,0-1.6,1.27,1.27,0,0,1,1.8.1A1.21,1.21,0,0,1,993.2,126.7Z" fill="#e2e2e2"/><polyline points="992.3 112.4 999.8 105 1010.3 105" fill="none" stroke="#e2e2e2" stroke-miterlimit="10" stroke-width="0.73"/><path d="M993.2,113.3a1.15,1.15,0,0,1-1.7,0h0a1.27,1.27,0,0,1,.1-1.8,1.21,1.21,0,0,1,1.6,0,1.27,1.27,0,0,1,0,1.8Z" fill="#e2e2e2"/><polyline points="916.6 159.4 924.1 151.9 969.1 151.9 984.3 151.9 984.3 164.3" fill="none" stroke="#e2e2e2" stroke-miterlimit="10" stroke-width="0.73"/><path d="M917.5,160.2a1.15,1.15,0,0,1-1.7,0h0a1.27,1.27,0,0,1,.1-1.8,1.21,1.21,0,0,1,1.6,0,1.26,1.26,0,0,1,0,1.8Z" fill="#e2e2e2"/><path d="M983.1,164.3a1.2,1.2,0,1,0,1.2-1.2h0a1.15,1.15,0,0,0-1.2,1.2Z" fill="#e2e2e2"/><polyline points="955.3 141 985.7 141 1001.8 157" fill="none" stroke="#e2e2e2" stroke-miterlimit="10" stroke-width="0.73"/><path d="M955.3,142.2a1.2,1.2,0,1,1,1.2-1.2h0A1.1,1.1,0,0,1,955.3,142.2Z" fill="#e2e2e2"/><polyline points="872.7 207.4 907 173.1 907 141 949.8 141" fill="none" stroke="#e2e2e2" stroke-miterlimit="10" stroke-width="0.73"/><path d="M873.6,208.2a1.27,1.27,0,0,1-1.8-.1,1.21,1.21,0,0,1,0-1.6,1.27,1.27,0,0,1,1.8.1A1.21,1.21,0,0,1,873.6,208.2Z" fill="#e2e2e2"/><path d="M949.7,142.2a1.2,1.2,0,0,0,0-2.4,1.29,1.29,0,0,0-1.2,1.2h0A1.22,1.22,0,0,0,949.7,142.2Z" fill="#e2e2e2"/><polyline points="949.8 141 907 141 907 173.1 895.5 184.6 880.3 184.6" fill="none" stroke="#e2e2e2" stroke-miterlimit="10" stroke-width="0.73"/><path d="M949.7,139.8a1.2,1.2,0,0,1,0,2.4,1.16,1.16,0,0,1-1.2-1.2A1.22,1.22,0,0,1,949.7,139.8Z" fill="#e2e2e2"/><path d="M880.4,183.4a1.22,1.22,0,0,0-1.2,1.2,1.29,1.29,0,0,0,1.2,1.2,1.22,1.22,0,0,0,1.2-1.2h0A1.16,1.16,0,0,0,880.4,183.4Z" fill="#e2e2e2"/><polyline points="899 266.6 946.7 266.6 946.7 233.9" fill="none" stroke="#e2e2e2" stroke-miterlimit="10" stroke-width="0.73"/><path d="M899,267.9a1.22,1.22,0,0,1-1.2-1.2,1.29,1.29,0,0,1,1.2-1.2,1.22,1.22,0,0,1,1.2,1.2h0A1.15,1.15,0,0,1,899,267.9Z" fill="#e2e2e2"/><path d="M947.9,234a1.2,1.2,0,1,0-1.2,1.2h0a1.22,1.22,0,0,0,1.2-1.2Z" fill="#e2e2e2"/><polyline points="899 266.6 946.7 266.6 946.3 246.9 933.5 234.2" fill="none" stroke="#e2e2e2" stroke-miterlimit="10" stroke-width="0.73"/><path d="M899,267.9a1.22,1.22,0,0,1-1.2-1.2,1.29,1.29,0,0,1,1.2-1.2,1.22,1.22,0,0,1,1.2,1.2h0A1.15,1.15,0,0,1,899,267.9Z" fill="#e2e2e2"/><path d="M934.4,233.3a1.27,1.27,0,0,0-1.8.1,1.21,1.21,0,0,0,0,1.6,1.15,1.15,0,0,0,1.7,0h0A1.08,1.08,0,0,0,934.4,233.3Z" fill="#e2e2e2"/><polyline points="855.1 250.6 925.8 250.6 925.8 236.7 914.8 225.7" fill="none" stroke="#e2e2e2" stroke-miterlimit="10" stroke-width="0.73"/><path d="M855.2,251.8a1.2,1.2,0,1,1,1.2-1.2A1.22,1.22,0,0,1,855.2,251.8Z" fill="#e2e2e2"/><path d="M915.7,224.9a1.27,1.27,0,1,0,0,1.8h0A1.27,1.27,0,0,0,915.7,224.9Z" fill="#e2e2e2"/><polyline points="898.6 224.8 887.1 224.8 887.1 233.3 907.3 233.3" fill="none" stroke="#e2e2e2" stroke-miterlimit="10" stroke-width="0.73"/><path d="M898.6,223.6a1.22,1.22,0,0,1,1.2,1.2,1.29,1.29,0,0,1-1.2,1.2,1.22,1.22,0,0,1-1.2-1.2h0A1.1,1.1,0,0,1,898.6,223.6Z" fill="#e2e2e2"/><path d="M907.3,234.6a1.22,1.22,0,0,0,1.2-1.2,1.29,1.29,0,0,0-1.2-1.2,1.22,1.22,0,0,0-1.2,1.2h0A1.15,1.15,0,0,0,907.3,234.6Z" fill="#e2e2e2"/><polyline points="921.6 206.9 887.1 206.9 887.1 233.3 907.3 233.3" fill="none" stroke="#e2e2e2" stroke-miterlimit="10" stroke-width="0.73"/><path d="M921.5,205.7a1.2,1.2,0,1,1,0,2.4,1.29,1.29,0,0,1-1.2-1.2h0A1.16,1.16,0,0,1,921.5,205.7Z" fill="#e2e2e2"/><path d="M907.3,234.6a1.22,1.22,0,0,0,1.2-1.2,1.29,1.29,0,0,0-1.2-1.2,1.22,1.22,0,0,0-1.2,1.2h0A1.15,1.15,0,0,0,907.3,234.6Z" fill="#e2e2e2"/><line x1="900.7" y1="198.5" x2="890" y2="198.5" fill="none" stroke="#e2e2e2" stroke-miterlimit="10" stroke-width="0.73"/><polyline points="911.6 182.5 895.6 198.5 911.7 198.5" fill="none" stroke="#e2e2e2" stroke-miterlimit="10" stroke-width="0.73"/><path d="M910.7,181.6a1.24,1.24,0,1,1,1.7,1.8,1.21,1.21,0,0,1-1.6,0A1.19,1.19,0,0,1,910.7,181.6Z" fill="#e2e2e2"/><path d="M911.6,199.7a1.22,1.22,0,0,0,1.2-1.2,1.29,1.29,0,0,0-1.2-1.2h0a1.2,1.2,0,0,0,0,2.4Z" fill="#e2e2e2"/><polyline points="845.6 232.9 874.7 232.9 878.3 236.6" fill="none" stroke="#e2e2e2" stroke-miterlimit="10" stroke-width="0.73"/><path d="M845.7,234.1a1.22,1.22,0,0,1-1.2-1.2,1.29,1.29,0,0,1,1.2-1.2,1.22,1.22,0,0,1,1.2,1.2h0A1.16,1.16,0,0,1,845.7,234.1Z" fill="#e2e2e2"/><path d="M877.4,237.4a1.27,1.27,0,0,0,1.8-1.8,1.15,1.15,0,0,0-1.7,0,1.19,1.19,0,0,0-.1,1.8Z" fill="#e2e2e2"/><polyline points="917.4 242.1 843.5 242.1 834.8 233.3 802.2 233.3 792.5 223.6 792.5 211.4" fill="none" stroke="#e2e2e2" stroke-miterlimit="10" stroke-width="0.73"/><path d="M917.3,240.9a1.22,1.22,0,0,1,1.2,1.2,1.29,1.29,0,0,1-1.2,1.2,1.22,1.22,0,0,1-1.2-1.2h0A1.16,1.16,0,0,1,917.3,240.9Z" fill="#e2e2e2"/><path d="M793.7,211.5a1.2,1.2,0,1,0-1.2,1.2h0A1.16,1.16,0,0,0,793.7,211.5Z" fill="#e2e2e2"/><polyline points="899 258.8 935.2 258.8 935.2 248.1" fill="none" stroke="#e2e2e2" stroke-miterlimit="10" stroke-width="0.73"/><path d="M899,260a1.22,1.22,0,0,1-1.2-1.2,1.29,1.29,0,0,1,1.2-1.2,1.22,1.22,0,0,1,1.2,1.2h0A1.15,1.15,0,0,1,899,260Z" fill="#e2e2e2"/><path d="M936.5,248.1a1.2,1.2,0,1,0-1.2,1.2h0a1.15,1.15,0,0,0,1.2-1.2Z" fill="#e2e2e2"/><line x1="899" y1="273.1" x2="911.2" y2="273.1" fill="none" stroke="#e2e2e2" stroke-miterlimit="10" stroke-width="0.73"/><path d="M899,274.3a1.2,1.2,0,0,1,0-2.4,1.29,1.29,0,0,1,1.2,1.2A1.1,1.1,0,0,1,899,274.3Z" fill="#e2e2e2"/><path d="M911.2,274.3a1.22,1.22,0,0,0,1.2-1.2,1.29,1.29,0,0,0-1.2-1.2,1.22,1.22,0,0,0-1.2,1.2h0A1.1,1.1,0,0,0,911.2,274.3Z" fill="#e2e2e2"/><line x1="920.8" y1="289.2" x2="927.9" y2="282.1" fill="none" stroke="#e2e2e2" stroke-miterlimit="10" stroke-width="0.73"/><path d="M921.7,290.1a1.27,1.27,0,1,1,0-1.8A1.27,1.27,0,0,1,921.7,290.1Z" fill="#e2e2e2"/><path d="M928.8,283a1.15,1.15,0,0,0,0-1.7h0a1.27,1.27,0,0,0-1.8,1.8,1.37,1.37,0,0,0,1.8-.1Z" fill="#e2e2e2"/><polyline points="927.2 311.6 914.8 324 844.5 324" fill="none" stroke="#e2e2e2" stroke-miterlimit="10" stroke-width="0.73"/><path d="M926.3,310.7a1.27,1.27,0,0,1,1.8.1,1.21,1.21,0,0,1,0,1.6,1.27,1.27,0,0,1-1.8-.1A1.21,1.21,0,0,1,926.3,310.7Z" fill="#e2e2e2"/><path d="M844.6,322.8a1.2,1.2,0,1,0,1.2,1.2h0A1.22,1.22,0,0,0,844.6,322.8Z" fill="#e2e2e2"/><polyline points="899 291.7 912.8 291.7 912.8 299.3 905.1 307 720.7 307" fill="none" stroke="#e2e2e2" stroke-miterlimit="10" stroke-width="0.73"/><path d="M899,292.9a1.2,1.2,0,1,1,1.2-1.2h0A1.1,1.1,0,0,1,899,292.9Z" fill="#e2e2e2"/><path d="M720.8,305.8a1.25,1.25,0,1,0,1.2,1.3V307A1.22,1.22,0,0,0,720.8,305.8Z" fill="#e2e2e2"/><polyline points="993.4 254.8 966.2 254.8 947.7 273.2 922.7 273.2 912.4 283.5 899 283.5" fill="none" stroke="#e2e2e2" stroke-miterlimit="10" stroke-width="0.73"/><path d="M993.3,253.5a1.2,1.2,0,1,1,0,2.4,1.29,1.29,0,0,1-1.2-1.2h0a1.22,1.22,0,0,1,1.2-1.2Z" fill="#e2e2e2"/><path d="M899,282.3a1.2,1.2,0,0,0,0,2.4,1.29,1.29,0,0,0,1.2-1.2A1.1,1.1,0,0,0,899,282.3Z" fill="#e2e2e2"/><line x1="970.3" y1="262.5" x2="1001.7" y2="262.5" fill="none" stroke="#e2e2e2" stroke-miterlimit="10" stroke-width="0.73"/><path d="M970.4,263.8a1.22,1.22,0,0,1-1.2-1.2,1.29,1.29,0,0,1,1.2-1.2,1.22,1.22,0,0,1,1.2,1.2h0A1.22,1.22,0,0,1,970.4,263.8Z" fill="#e2e2e2"/><polyline points="954.1 290.9 966.1 278.9 993.2 278.9 993.2 324.9 958.5 324.9 958.5 314 982.5 314 982.5 289.3" fill="none" stroke="#e2e2e2" stroke-miterlimit="10" stroke-width="0.73"/><path d="M955,291.7a1.27,1.27,0,0,1-1.8-1.8,1.15,1.15,0,0,1,1.7,0,1.19,1.19,0,0,1,.1,1.8Z" fill="#e2e2e2"/><path d="M983.8,289.3a1.2,1.2,0,1,0-1.2,1.2h0A1.15,1.15,0,0,0,983.8,289.3Z" fill="#e2e2e2"/><polyline points="970.4 292.9 970.4 306.5 946.5 306.5 946.5 323.8" fill="none" stroke="#e2e2e2" stroke-miterlimit="10" stroke-width="0.73"/><path d="M969.1,292.9a1.2,1.2,0,1,1,1.2,1.2h0A1.15,1.15,0,0,1,969.1,292.9Z" fill="#e2e2e2"/><path d="M945.3,323.7a1.2,1.2,0,1,0,1.2-1.2h0A1.22,1.22,0,0,0,945.3,323.7Z" fill="#e2e2e2"/><polyline points="936.3 323.8 936.3 298.5 962.4 298.5" fill="none" stroke="#e2e2e2" stroke-miterlimit="10" stroke-width="0.73"/><path d="M937.5,323.7a1.2,1.2,0,1,1-1.2-1.2h0a1.16,1.16,0,0,1,1.2,1.2Z" fill="#e2e2e2"/><path d="M962.3,299.8a1.2,1.2,0,1,0,0-2.4,1.29,1.29,0,0,0-1.2,1.2,1.22,1.22,0,0,0,1.2,1.2Z" fill="#e2e2e2"/></g><polygon points="883.2 290.2 609 290.2 641.1 258 883.2 258 883.2 290.2" fill="#2d2d2d"/><path d="M648.8,273.9V275h-5.1v8.9h-1.3V264.3h7.5v1.2h-6.2v8.4Z" fill="#c5c5c5"/><path d="M653.3,279.2c0,2.1.8,3.7,2.9,3.7s2.9-1.6,2.9-3.7V264.3h1.2v14.8c0,2.8-1.2,5-4.2,5s-4.2-2.2-4.2-5V264.3h1.3l.1,14.9Z" fill="#c5c5c5"/><path d="M666.2,283.9V265.5h-4v-1.2h9.3v1.2h-4v18.4Z" fill="#c5c5c5"/><path d="M674.6,279.2c0,2.1.8,3.7,2.9,3.7s2.9-1.6,2.9-3.7V264.3h1.2v14.8c0,2.8-1.2,5-4.2,5s-4.2-2.2-4.2-5V264.3h1.3l.1,14.9Z" fill="#c5c5c5"/><path d="M688.3,264.3c3,0,4.2,1.6,4.2,4.4v1.7c0,2.3-.9,3.6-2.8,4.1,2,.5,2.8,1.9,2.8,4v3.1a4.18,4.18,0,0,0,.5,2.4h-1.4a4.69,4.69,0,0,1-.4-2.4v-3.1c0-2.6-1.4-3.3-3.7-3.3h-2V284h-1.3V264.4h4.1v-.1Zm-.8,9.7c2.3,0,3.6-.6,3.6-3.3v-1.9c0-2.1-.8-3.4-2.9-3.4h-2.8v8.5Z" fill="#c5c5c5"/><path d="M701.9,273.4v1.2h-5.3v8.2H703V284h-7.7V264.4H703v1.2h-6.4v7.9h5.3Z" fill="#c5c5c5"/><path d="M705.3,273.5h5.2v1.2h-5.2Z" fill="#c5c5c5"/><path d="M717,264.3c3,0,4.2,1.6,4.2,4.4v1.7c0,2.3-.9,3.6-2.8,4.1,2,.5,2.8,1.9,2.8,4v3.1a4.18,4.18,0,0,0,.5,2.4h-1.3a4.69,4.69,0,0,1-.4-2.4v-3.1c0-2.6-1.4-3.3-3.7-3.3h-2V284H713V264.4h4Zm-.7,9.7c2.3,0,3.6-.6,3.6-3.3v-1.9c0-2.1-.8-3.4-2.9-3.4h-2.8v8.5l2.1.1Z" fill="#c5c5c5"/><path d="M730.7,273.4v1.2h-5.3v8.2h6.4V284H724V264.4h7.7v1.2h-6.4v7.9h5.4Z" fill="#c5c5c5"/><path d="M736,279.6l-1,4.3h-1.2l4.3-19.6H740l4.4,19.6h-1.3l-1-4.3Zm.2-1.1h5.7L739,265.8Z" fill="#c5c5c5"/><path d="M750.9,264.3c3,0,4.3,2,4.3,4.9V279c0,2.9-1.3,4.9-4.3,4.9h-4.3V264.3Zm0,18.4c2.2,0,3.1-1.5,3.1-3.6v-10c0-2.1-.9-3.6-3.1-3.6h-3v17.2Z" fill="#c5c5c5"/><path d="M761.3,276.4l-4.4-12.1h1.3l3.8,10.3,3.8-10.3H767l-4.4,12.1v7.5h-1.3Z" fill="#c5c5c5"/><path d="M773.7,269.1c0-2.9,1.3-5,4.3-5s4.3,2.1,4.3,5v10c0,2.9-1.3,5-4.3,5s-4.3-2.1-4.3-5Zm1.3,10.1c0,2.1.8,3.7,3,3.7s3-1.6,3-3.7V269c0-2.1-.9-3.7-3-3.7s-3,1.6-3,3.7Z" fill="#c5c5c5"/><path d="M788.8,264.3c3,0,4.2,1.9,4.2,4.8v2.1c0,3.1-1.4,4.6-4.5,4.6H786v8.1h-1.3V264.3Zm-.4,10.4c2.3,0,3.2-1,3.2-3.4V269c0-2.1-.7-3.5-2.9-3.5H786v9.2Z" fill="#c5c5c5"/><path d="M801.8,273.4v1.2h-5.3v8.2h6.4V284h-7.7V264.4h7.7v1.2h-6.4v7.9h5.3Z" fill="#c5c5c5"/><path d="M809.4,264.3c3,0,4.2,1.6,4.2,4.4v1.7c0,2.3-.9,3.6-2.8,4.1,2,.5,2.8,1.9,2.8,4v3.1a4.18,4.18,0,0,0,.5,2.4h-1.3a4.69,4.69,0,0,1-.4-2.4v-3.1c0-2.6-1.4-3.3-3.7-3.3h-2V284h-1.3V264.4h4Zm-.7,9.7c2.3,0,3.6-.6,3.6-3.3v-1.9c0-2.1-.8-3.4-2.9-3.4h-2.8v8.5Z" fill="#c5c5c5"/><path d="M818.3,279.6l-1,4.3h-1.2l4.3-19.6h1.9l4.4,19.6h-1.3l-1-4.3Zm.2-1.1h5.7l-2.9-12.7Z" fill="#c5c5c5"/><path d="M831.1,283.9V265.5h-4v-1.2h9.3v1.2h-4v18.4Z" fill="#c5c5c5"/><path d="M839.6,264.3v19.6h-1.3V264.3Z" fill="#c5c5c5"/><path d="M842,269.1c0-2.9,1.3-5,4.3-5s4.3,2.1,4.3,5v10c0,2.9-1.3,5-4.3,5s-4.3-2.1-4.3-5Zm1.3,10.1c0,2.1.8,3.7,3,3.7s3-1.6,3-3.7V269c0-2.1-.9-3.7-3-3.7s-3,1.6-3,3.7Z" fill="#c5c5c5"/><path d="M854.2,283.9H853V264.3h1.7l5.9,16.5V264.3h1.2v19.6h-1.4l-6.1-17.5v17.5Z" fill="#c5c5c5"/><path d="M872.5,269v.4h-1.2V269c0-2.1-.8-3.6-2.9-3.6s-2.9,1.5-2.9,3.6c0,4.8,7.1,4.8,7.1,10.2,0,2.8-1.2,4.9-4.2,4.9s-4.2-2.1-4.2-4.9v-1h1.2v1.1c0,2.1.8,3.6,3,3.6s3-1.5,3-3.6c0-4.7-7.1-4.8-7.1-10.2,0-2.9,1.3-4.8,4.2-4.9S872.5,266.2,872.5,269Z" fill="#c5c5c5"/></g><path d="M648.8,273.9V275h-5.1v8.9h-1.3V264.3h7.5v1.2h-6.2v8.4Z" fill="#fff"/><path d="M653.3,279.2c0,2.1.8,3.7,2.9,3.7s2.9-1.6,2.9-3.7V264.3h1.2v14.8c0,2.8-1.2,5-4.2,5s-4.2-2.2-4.2-5V264.3h1.3Z" fill="#fff"/><path d="M666.2,283.9V265.5h-4v-1.2h9.3v1.2h-4v18.4Z" fill="#fff"/><path d="M674.6,279.2c0,2.1.8,3.7,2.9,3.7s2.9-1.6,2.9-3.7V264.3h1.2v14.8c0,2.8-1.2,5-4.2,5s-4.2-2.2-4.2-5V264.3h1.3Z" fill="#fff"/><path d="M688.3,264.3c3,0,4.2,1.6,4.2,4.4v1.7c0,2.3-.9,3.6-2.8,4.1,2,.5,2.8,1.9,2.8,4v3.1a4.18,4.18,0,0,0,.5,2.4h-1.3a4.69,4.69,0,0,1-.4-2.4v-3.1c0-2.6-1.4-3.3-3.7-3.3h-2V284h-1.3V264.4h4Zm-.7,9.7c2.3,0,3.6-.6,3.6-3.3v-1.9c0-2.1-.8-3.4-2.9-3.4h-2.8v8.5Z" fill="#fff"/><path d="M701.9,273.4v1.2h-5.3v8.2H703V284h-7.7V264.4H703v1.2h-6.4v7.9h5.3Z" fill="#fff"/><path d="M705.3,273.5h5.2v1.2h-5.2Z" fill="#fff"/><path d="M717,264.3c3,0,4.2,1.6,4.2,4.4v1.7c0,2.3-.9,3.6-2.8,4.1,2,.5,2.8,1.9,2.8,4v3.1a4.18,4.18,0,0,0,.5,2.4h-1.3a4.69,4.69,0,0,1-.4-2.4v-3.1c0-2.6-1.4-3.3-3.7-3.3h-2V284H713V264.4h4Zm-.7,9.7c2.3,0,3.6-.6,3.6-3.3v-1.9c0-2.1-.8-3.4-2.9-3.4h-2.8v8.5Z" fill="#fff"/><path d="M730.7,273.4v1.2h-5.3v8.2h6.4V284h-7.7V264.4h7.7v1.2h-6.4v7.9h5.3Z" fill="#fff"/><path d="M736,279.6l-1,4.3h-1.2l4.3-19.6H740l4.4,19.6h-1.3l-1-4.3Zm.2-1.1H742l-2.9-12.7Z" fill="#fff"/><path d="M751,264.3c3,0,4.3,2,4.3,4.9V279c0,2.9-1.3,4.9-4.3,4.9h-4.3V264.3Zm0,18.4c2.2,0,3.1-1.5,3.1-3.6v-10c0-2.2-.9-3.6-3.1-3.6h-3v17.2Z" fill="#fff"/><path d="M761.3,276.4l-4.4-12.1h1.3l3.8,10.3,3.8-10.3H767l-4.4,12.1v7.5h-1.3Z" fill="#fff"/><path d="M773.7,269.1c0-2.9,1.3-5,4.3-5s4.3,2.1,4.3,5v10c0,2.9-1.3,5-4.3,5s-4.3-2.1-4.3-5Zm1.3,10.1c0,2.1.8,3.7,3,3.7s3-1.6,3-3.7V269c0-2.1-.9-3.7-3-3.7s-3,1.6-3,3.7Z" fill="#fff"/><path d="M788.8,264.3c3,0,4.2,1.9,4.2,4.8v2.1c0,3.1-1.4,4.6-4.5,4.6H786v8.1h-1.3V264.3Zm-.3,10.4c2.3,0,3.2-1,3.2-3.4V269c0-2.1-.7-3.5-2.9-3.5H786v9.2Z" fill="#fff"/><path d="M801.9,273.4v1.2h-5.3v8.2h6.5V284h-7.7V264.4h7.7v1.2h-6.4v7.9h5.2Z" fill="#fff"/><path d="M809.4,264.3c3,0,4.2,1.6,4.2,4.4v1.7c0,2.3-.9,3.6-2.8,4.1,2,.5,2.8,1.9,2.8,4v3.1a4.18,4.18,0,0,0,.5,2.4h-1.3a4.69,4.69,0,0,1-.4-2.4v-3.1c0-2.6-1.4-3.3-3.7-3.3h-2V284h-1.3V264.4h4Zm-.7,9.7c2.3,0,3.6-.6,3.6-3.3v-1.9c0-2.1-.8-3.4-2.9-3.4h-2.8v8.5l2.1.1Z" fill="#fff"/><path d="M818.3,279.6l-1,4.3h-1.2l4.3-19.6h1.9l4.4,19.6h-1.3l-1-4.3Zm.2-1.1h5.7l-2.9-12.7Z" fill="#fff"/><path d="M831.2,283.9V265.5h-4v-1.2h9.3v1.2h-4v18.4Z" fill="#fff"/><path d="M839.6,264.3v19.6h-1.3V264.3Z" fill="#fff"/><path d="M842,269.1c0-2.9,1.3-5,4.3-5s4.3,2.1,4.3,5v10c0,2.9-1.3,5-4.3,5s-4.3-2.1-4.3-5Zm1.3,10.1c0,2.1.8,3.7,3,3.7s3-1.6,3-3.7V269c0-2.1-.9-3.7-3-3.7s-3,1.6-3,3.7Z" fill="#fff"/><path d="M854.2,283.9H853V264.3h1.7l5.9,16.5V264.3h1.2v19.6h-1.4l-6.1-17.5v17.5Z" fill="#fff"/><path d="M872.6,269v.4h-1.2V269c0-2.1-.8-3.6-2.9-3.6s-2.9,1.5-2.9,3.6c0,4.8,7.1,4.8,7.1,10.2,0,2.8-1.2,4.9-4.2,4.9s-4.2-2.1-4.2-4.9v-1h1.2v1.1c0,2.1.8,3.6,3,3.6s3-1.5,3-3.6c0-4.7-7.1-4.8-7.1-10.2,0-2.9,1.3-4.8,4.2-4.9S872.6,266.2,872.6,269Z" fill="#fff"/></svg>