<?xml version="1.0" encoding="utf-8"?>
<!-- Generator: Adobe Illustrator 25.4.1, SVG Export Plug-In . SVG Version: 6.00 Build 0)  -->
<svg version="1.1" id="Layer_1" xmlns="http://www.w3.org/2000/svg" xmlns:xlink="http://www.w3.org/1999/xlink" x="0px" y="0px"
	 viewBox="0 0 130.7 130.7" style="enable-background:new 0 0 130.7 130.7;" xml:space="preserve">
<style type="text/css">
	.st0{fill:url(#SVGID_1_);stroke:#FFFFFF;stroke-width:2.93;stroke-miterlimit:10;}
	.st1{fill:#FFFFFF;}
	.st2{enable-background:new    ;}
	.st3{fill:#F600F9;}
</style>
<linearGradient id="SVGID_1_" gradientUnits="userSpaceOnUse" x1="65.34" y1="2.79" x2="65.34" y2="130.53" gradientTransform="matrix(1 0 0 -1 0 132)">
	<stop  offset="0" style="stop-color:#3D026E"/>
	<stop  offset="1" style="stop-color:#AA02BC"/>
</linearGradient>
<circle class="st0" cx="65.3" cy="65.3" r="63.9"/>
<path class="st1" d="M51.1,27.9h-1.9v-0.6h4.6v0.6h-1.9v5.9h-0.8V27.9z"/>
<path class="st1" d="M56.1,27.3h1l2.2,6.5h-0.8l-0.6-1.9h-2.7l-0.6,1.9h-0.7L56.1,27.3z M55.4,31.3h2.3l-1.1-3.4L55.4,31.3z"/>
<path class="st1" d="M60.5,27.3h0.8v5.9h3v0.6h-3.8V27.3z"/>
<path class="st1" d="M65.5,27.3h3.8v0.6h-3v2.2h2.4v0.6h-2.4v2.4h3.2v0.6h-4L65.5,27.3z"/>
<path class="st1" d="M70.8,27.3h1l3.2,5.4v-5.4h0.8v6.5h-0.9l-3.3-5.6v5.6h-0.8L70.8,27.3z"/>
<path class="st1" d="M78.8,27.9h-1.9v-0.6h4.6v0.6h-1.9v5.9h-0.8V27.9z"/>
<path class="st1" d="M15.6,37.7h3.8v0.6h-3v2.2h2.4v0.6h-2.4v2.4h3.2v0.6h-3.9V37.7z"/>
<path class="st1" d="M20.9,37.7h1l3.1,5.4v-5.4h0.8v6.5h-0.9l-3.2-5.6v5.6h-0.8V37.7z"/>
<path class="st1" d="M30.4,44.3c-0.5,0-0.9-0.1-1.4-0.2c-0.4-0.2-0.7-0.4-1-0.7c-0.3-0.3-0.5-0.6-0.6-1c-0.1-0.4-0.2-0.9-0.2-1.4
	l0,0c0-0.5,0.1-0.9,0.2-1.3c0.1-0.4,0.4-0.8,0.6-1.1c0.3-0.3,0.6-0.5,1-0.7c0.4-0.2,0.8-0.3,1.3-0.2c0.3,0,0.6,0,0.9,0.1
	c0.3,0.1,0.6,0.2,0.8,0.4c0.2,0.2,0.4,0.4,0.6,0.6c0.2,0.3,0.3,0.6,0.3,0.9h-0.8c0-0.4-0.3-0.8-0.6-1.1c-0.4-0.2-0.8-0.3-1.2-0.3
	c-0.3,0-0.7,0.1-1,0.2c-0.3,0.1-0.5,0.3-0.7,0.5c-0.2,0.2-0.4,0.5-0.5,0.8C28.1,40.3,28,40.6,28,41l0,0c0,0.4,0,0.7,0.1,1.1
	c0.1,0.3,0.2,0.6,0.4,0.8c0.2,0.2,0.4,0.4,0.7,0.5c0.3,0.1,0.7,0.2,1,0.2c0.3,0,0.6-0.1,0.9-0.2c0.2-0.1,0.5-0.3,0.6-0.4
	c0.2-0.2,0.3-0.4,0.4-0.7c0.1-0.3,0.1-0.5,0.1-0.8h-1.9V41h2.7v0.5c0,0.4,0,0.8-0.1,1.2c-0.1,0.3-0.3,0.6-0.6,0.9
	c-0.3,0.2-0.6,0.4-0.9,0.5C31.2,44.3,30.8,44.3,30.4,44.3z"/>
<path class="st1" d="M36,37.7h1l2.2,6.5h-0.8l-0.6-1.9h-2.7l-0.6,1.9h-0.7L36,37.7z M35.3,41.7h2.3l-1.1-3.3L35.3,41.7z"/>
<path class="st1" d="M43,44.3c-0.5,0-0.9-0.1-1.3-0.2c-0.4-0.2-0.7-0.4-1-0.7c-0.3-0.3-0.5-0.6-0.6-1c-0.2-0.4-0.2-0.9-0.2-1.4l0,0
	c0-0.5,0-0.9,0.2-1.4c0.1-0.4,0.4-0.8,0.7-1.1c0.6-0.6,1.5-1,2.3-0.9c0.3,0,0.6,0,0.9,0.1c0.3,0.1,0.6,0.2,0.8,0.4
	c0.2,0.2,0.4,0.4,0.6,0.6c0.2,0.3,0.3,0.6,0.3,0.9h-0.8c0-0.4-0.3-0.8-0.6-1.1c-0.4-0.2-0.8-0.3-1.2-0.3c-0.3,0-0.7,0.1-1,0.2
	c-0.3,0.1-0.5,0.3-0.7,0.5c-0.2,0.2-0.4,0.5-0.5,0.8c-0.1,0.4-0.2,0.8-0.2,1.1l0,0c0,0.4,0,0.7,0.2,1.1c0.1,0.3,0.2,0.6,0.4,0.8
	c0.2,0.2,0.4,0.4,0.7,0.5c0.3,0.1,0.7,0.2,1,0.2c0.3,0,0.6-0.1,0.9-0.2c0.2-0.1,0.5-0.3,0.6-0.4c0.2-0.2,0.3-0.4,0.4-0.7
	c0.1-0.3,0.1-0.5,0.1-0.8h-1.9V41h2.7v0.5c0,0.4-0.1,0.8-0.2,1.2c-0.1,0.3-0.3,0.6-0.6,0.9c-0.3,0.2-0.6,0.4-0.9,0.5
	C43.7,44.3,43.4,44.3,43,44.3z"/>
<path class="st1" d="M47.2,37.7H51v0.6h-3v2.2h2.4v0.6H48v2.4h3.2v0.6h-4L47.2,37.7z"/>
<path class="st1" d="M52.5,37.7h1.1l2,5.1l1.9-5.1h1.1v6.5h-0.8v-5.5l-2.2,5.5h-0.2l-2.2-5.5v5.5h-0.7V37.7z"/>
<path class="st1" d="M60.4,37.7h3.8v0.6h-3v2.2h2.4v0.6h-2.4v2.4h3.2v0.6h-4L60.4,37.7z"/>
<path class="st1" d="M65.6,37.7h1l3.2,5.4v-5.4h0.8v6.5h-0.9l-3.3-5.6v5.6h-0.8L65.6,37.7z"/>
<path class="st1" d="M73.7,38.4h-1.9v-0.6h4.6v0.6h-1.9v5.9h-0.8L73.7,38.4z"/>
<path class="st1" d="M82,44.3c-0.4,0-0.7,0-1.1-0.2c-0.3-0.1-0.5-0.2-0.7-0.5c-0.2-0.2-0.3-0.4-0.4-0.7c-0.1-0.3-0.2-0.5-0.2-0.8
	h0.8c0,0.2,0.1,0.4,0.1,0.5c0.1,0.2,0.2,0.3,0.3,0.5c0.1,0.1,0.3,0.2,0.5,0.3c0.3,0.1,0.5,0.1,0.8,0.1c0.2,0,0.4,0,0.6-0.1
	c0.2-0.1,0.3-0.1,0.5-0.2c0.1-0.1,0.2-0.2,0.3-0.4c0.1-0.2,0.1-0.3,0.1-0.5c0-0.2,0-0.3-0.1-0.5c0-0.1-0.1-0.3-0.2-0.3
	c-0.1-0.1-0.3-0.2-0.5-0.2c-0.3-0.1-0.5-0.1-0.8-0.2c-0.3,0-0.6-0.1-0.9-0.2c-0.2-0.1-0.5-0.2-0.7-0.3c-0.2-0.1-0.3-0.3-0.4-0.5
	c-0.1-0.2-0.1-0.5-0.1-0.7c0-0.2,0-0.5,0.2-0.7c0.1-0.2,0.3-0.4,0.4-0.6c0.2-0.2,0.4-0.3,0.7-0.4c0.3-0.1,0.6-0.1,0.8-0.1
	c0.6,0,1.1,0.1,1.6,0.5c0.4,0.3,0.6,0.8,0.7,1.3h-0.7c0-0.3-0.2-0.7-0.5-0.9c-0.3-0.2-0.6-0.3-1-0.3c-0.4,0-0.7,0.1-1,0.3
	c-0.2,0.2-0.3,0.5-0.3,0.8c0,0.1,0,0.3,0,0.4c0,0.1,0.1,0.2,0.2,0.3c0.1,0.1,0.3,0.2,0.5,0.2c0.3,0.1,0.5,0.1,0.8,0.2
	c0.3,0,0.7,0.1,1,0.2c0.3,0.1,0.5,0.2,0.7,0.4c0.2,0.1,0.3,0.3,0.4,0.5c0.1,0.2,0.1,0.5,0.1,0.8c0,0.3-0.1,0.5-0.2,0.8
	c-0.1,0.2-0.3,0.4-0.5,0.6c-0.2,0.2-0.4,0.3-0.7,0.4C82.7,44.3,82.3,44.3,82,44.3z"/>
<path class="st1" d="M88.4,44.3c-0.4,0-0.9-0.1-1.3-0.2c-0.4-0.1-0.7-0.4-1-0.7c-0.3-0.3-0.5-0.6-0.6-1c-0.1-0.5-0.2-0.9-0.2-1.4
	l0,0c0-0.5,0.1-0.9,0.2-1.3c0.3-0.8,0.8-1.4,1.6-1.8c0.4-0.2,0.8-0.2,1.2-0.2c0.3,0,0.7,0,1,0.1c0.3,0.1,0.6,0.2,0.8,0.4
	c0.2,0.2,0.4,0.4,0.6,0.7c0.2,0.3,0.3,0.6,0.3,0.9h-0.8c0-0.4-0.2-0.8-0.6-1.1c-0.4-0.3-0.8-0.4-1.3-0.4c-0.3,0-0.6,0.1-0.9,0.2
	c-0.3,0.1-0.5,0.3-0.7,0.5c-0.2,0.3-0.4,0.5-0.5,0.8c-0.1,0.4-0.2,0.7-0.2,1.1l0,0c0,0.4,0,0.8,0.2,1.1c0.1,0.3,0.2,0.6,0.4,0.8
	c0.2,0.2,0.4,0.4,0.7,0.5c0.3,0.1,0.7,0.2,1,0.2c0.5,0,0.9-0.1,1.3-0.4c0.4-0.3,0.6-0.7,0.6-1.2h0.7c-0.1,0.7-0.4,1.3-0.9,1.7
	C89.8,44.1,89.1,44.3,88.4,44.3z"/>
<path class="st1" d="M95.4,44.3c-0.5,0-0.9-0.1-1.4-0.3c-0.4-0.2-0.7-0.4-1-0.7c-0.3-0.3-0.5-0.6-0.7-1c-0.2-0.4-0.2-0.9-0.2-1.4
	l0,0c0-0.4,0.1-0.9,0.2-1.3c0.2-0.4,0.4-0.7,0.7-1c0.3-0.3,0.6-0.5,1-0.7c0.8-0.3,1.8-0.3,2.6,0c0.4,0.2,0.7,0.4,1,0.7
	c0.3,0.3,0.5,0.6,0.7,1c0.1,0.4,0.2,0.8,0.2,1.3v0c0,0.4-0.1,0.9-0.2,1.3c-0.1,0.4-0.4,0.7-0.6,1c-0.3,0.3-0.6,0.5-1,0.7
	C96.2,44.2,95.8,44.3,95.4,44.3z M95.4,43.7c0.3,0,0.7-0.1,1-0.2c0.3-0.1,0.5-0.3,0.7-0.5c0.2-0.2,0.4-0.5,0.5-0.8
	c0.1-0.4,0.2-0.7,0.1-1.1v-0.1c0-0.3-0.1-0.7-0.2-1c-0.1-0.3-0.3-0.6-0.5-0.8c-0.2-0.2-0.5-0.4-0.7-0.6c-0.3-0.1-0.7-0.2-1-0.2
	c-0.3,0-0.7,0.1-1,0.2c-0.3,0.1-0.5,0.3-0.8,0.5c-0.2,0.2-0.4,0.5-0.5,0.8C93,40.3,93,40.6,93,41l0,0c0,0.4,0.1,0.7,0.2,1.1
	c0.1,0.3,0.3,0.6,0.5,0.8c0.2,0.2,0.5,0.4,0.8,0.5C94.7,43.6,95,43.7,95.4,43.7z"/>
<path class="st1" d="M99.9,37.7h2c0.3,0,0.6,0,0.9,0.1c0.3,0.1,0.5,0.2,0.7,0.3c0.2,0.1,0.4,0.3,0.5,0.6c0.1,0.3,0.2,0.5,0.2,0.8
	l0,0c0,0.2,0,0.5-0.1,0.7c-0.1,0.2-0.2,0.4-0.3,0.5c-0.2,0.1-0.3,0.3-0.5,0.3c-0.2,0.1-0.4,0.2-0.6,0.2l2,2.9h-0.9l-1.9-2.8h-1v2.8
	H100L99.9,37.7z M101.9,40.7c0.4,0,0.8-0.1,1.1-0.3c0.3-0.2,0.4-0.6,0.4-0.9l0,0c0-0.2,0-0.4-0.1-0.6c-0.1-0.1-0.2-0.3-0.3-0.4
	c-0.1-0.1-0.3-0.2-0.4-0.2c-0.2,0-0.4,0-0.6,0h-1.2v2.4L101.9,40.7z"/>
<path class="st1" d="M105.8,37.7h3.8v0.6h-3v2.2h2.4v0.6h-2.4v2.4h3.2v0.6h-4L105.8,37.7z"/>
<path class="st1" d="M113.1,44.3c-0.4,0-0.8,0-1.1-0.2c-0.3-0.1-0.5-0.3-0.7-0.5c-0.2-0.2-0.3-0.4-0.4-0.7c-0.1-0.3-0.2-0.5-0.2-0.8
	h0.8c0,0.2,0.1,0.4,0.1,0.5c0.1,0.2,0.2,0.3,0.3,0.5c0.1,0.1,0.3,0.2,0.5,0.3c0.3,0.1,0.5,0.1,0.8,0.1c0.2,0,0.4,0,0.6-0.1
	c0.2-0.1,0.3-0.1,0.5-0.2c0.1-0.1,0.2-0.2,0.3-0.4c0.1-0.2,0.1-0.3,0.1-0.5c0-0.2,0-0.3-0.1-0.5c0-0.1-0.1-0.3-0.2-0.3
	c-0.1-0.1-0.3-0.2-0.5-0.2c-0.3-0.1-0.5-0.1-0.8-0.2c-0.3,0-0.6-0.1-0.9-0.2c-0.2-0.1-0.5-0.2-0.7-0.3c-0.2-0.1-0.3-0.3-0.4-0.5
	c-0.1-0.2-0.2-0.5-0.2-0.7c0-0.5,0.2-0.9,0.6-1.2c0.2-0.2,0.4-0.3,0.7-0.4c0.3-0.1,0.6-0.1,0.8-0.1c0.6,0,1.1,0.1,1.6,0.5
	c0.4,0.3,0.6,0.8,0.7,1.3h-0.7c0-0.3-0.2-0.7-0.5-0.9c-0.3-0.2-0.6-0.3-1-0.3c-0.4,0-0.7,0.1-1,0.3c-0.2,0.2-0.3,0.5-0.3,0.8
	c0,0.1,0,0.3,0.1,0.4c0,0.1,0.1,0.2,0.2,0.3c0.1,0.1,0.3,0.2,0.5,0.2c0.3,0.1,0.5,0.1,0.8,0.2c0.3,0,0.7,0.1,1,0.2
	c0.2,0.1,0.5,0.2,0.7,0.4c0.2,0.1,0.3,0.3,0.4,0.5c0.1,0.2,0.2,0.5,0.2,0.8c0,0.3-0.1,0.5-0.2,0.8c-0.1,0.2-0.3,0.4-0.5,0.6
	c-0.2,0.2-0.4,0.3-0.7,0.4C113.8,44.3,113.5,44.3,113.1,44.3z"/>
<g class="st2">
	<path class="st3" d="M39.8,87.8H41v7.6h-1.2V87.8z"/>
	<path class="st3" d="M41.9,87.8h1.5l1.2,4.6h0v-4.6h1.1v7.6h-1.2l-1.4-5.6h0v5.6h-1.1V87.8z"/>
	<path class="st3" d="M46.9,95.1c-0.3-0.3-0.5-0.8-0.5-1.4v-4.1c0-0.6,0.2-1.1,0.5-1.4c0.3-0.3,0.7-0.5,1.3-0.5s1,0.2,1.3,0.5
		c0.3,0.3,0.5,0.8,0.5,1.4v0.8h-1.1v-0.9c0-0.5-0.2-0.7-0.6-0.7s-0.6,0.2-0.6,0.7v4.3c0,0.5,0.2,0.7,0.6,0.7s0.6-0.2,0.6-0.7v-1.2
		H50v1.1c0,0.6-0.2,1.1-0.5,1.4c-0.3,0.3-0.7,0.5-1.3,0.5S47.2,95.4,46.9,95.1z"/>
	<path class="st3" d="M50.7,87.8h1.8c0.6,0,1.1,0.1,1.4,0.4s0.4,0.7,0.4,1.3v0.5c0,0.8-0.3,1.3-0.8,1.5v0c0.3,0.1,0.5,0.3,0.6,0.5
		s0.2,0.6,0.2,1.1v1.3c0,0.2,0,0.4,0,0.5s0.1,0.3,0.1,0.4h-1.2c0-0.1-0.1-0.2-0.1-0.3s0-0.3,0-0.6v-1.4c0-0.3-0.1-0.6-0.2-0.7
		s-0.3-0.2-0.6-0.2h-0.4v3.3h-1.2V87.8z M52.3,91.1c0.2,0,0.4-0.1,0.5-0.2c0.1-0.1,0.2-0.3,0.2-0.6v-0.6c0-0.3,0-0.5-0.1-0.6
		c-0.1-0.1-0.3-0.2-0.5-0.2h-0.5v2.2H52.3z"/>
	<path class="st3" d="M55.1,87.8h3.3v1.1h-2.1v2h1.6V92h-1.6v2.3h2.1v1.1h-3.3V87.8z"/>
	<path class="st3" d="M60,87.8h1.6l1.2,7.6h-1.2L61.4,94v0h-1.4l-0.2,1.5h-1.1L60,87.8z M61.3,92.9l-0.5-3.8h0l-0.5,3.8H61.3z"/>
	<path class="st3" d="M63.6,95.1c-0.3-0.3-0.4-0.8-0.4-1.4v-0.4h1.1v0.5c0,0.5,0.2,0.7,0.6,0.7c0.2,0,0.4-0.1,0.5-0.2
		c0.1-0.1,0.2-0.3,0.2-0.6c0-0.3-0.1-0.6-0.2-0.8c-0.1-0.2-0.4-0.5-0.8-0.9c-0.5-0.4-0.8-0.8-1-1.2c-0.2-0.4-0.3-0.8-0.3-1.2
		c0-0.6,0.2-1.1,0.5-1.4c0.3-0.3,0.7-0.5,1.3-0.5c0.6,0,1,0.2,1.3,0.5c0.3,0.3,0.4,0.8,0.4,1.4V90h-1.1v-0.4c0-0.3-0.1-0.5-0.2-0.6
		c-0.1-0.1-0.3-0.2-0.4-0.2c-0.4,0-0.6,0.2-0.6,0.7c0,0.3,0.1,0.5,0.2,0.8s0.4,0.5,0.8,0.9c0.5,0.4,0.8,0.8,1,1.2
		c0.2,0.4,0.3,0.8,0.3,1.3c0,0.6-0.2,1.1-0.5,1.4c-0.3,0.3-0.8,0.5-1.3,0.5C64.4,95.6,63.9,95.4,63.6,95.1z"/>
	<path class="st3" d="M67.4,87.8h3.3v1.1h-2.1v2h1.6V92h-1.6v2.3h2.1v1.1h-3.3V87.8z"/>
	<path class="st3" d="M73.6,95.1c-0.3-0.3-0.5-0.8-0.5-1.4v-5.8h1.2v5.9c0,0.3,0.1,0.5,0.2,0.6c0.1,0.1,0.3,0.2,0.5,0.2
		s0.3-0.1,0.5-0.2c0.1-0.1,0.2-0.3,0.2-0.6v-5.9h1.2v5.8c0,0.6-0.2,1.1-0.5,1.4c-0.3,0.3-0.7,0.5-1.3,0.5S73.9,95.4,73.6,95.1z"/>
	<path class="st3" d="M77.5,87.8h1.8c0.6,0,1,0.2,1.3,0.5c0.3,0.3,0.4,0.8,0.4,1.4v0.8c0,0.6-0.1,1.1-0.4,1.4
		c-0.3,0.3-0.7,0.5-1.3,0.5h-0.6v3.1h-1.2V87.8z M79.3,91.3c0.2,0,0.3-0.1,0.4-0.2c0.1-0.1,0.1-0.3,0.1-0.6v-0.9
		c0-0.3,0-0.4-0.1-0.6c-0.1-0.1-0.2-0.2-0.4-0.2h-0.6v2.3H79.3z"/>
	<path class="st3" d="M84.4,88.9h-1.3v-1.1h3.7v1.1h-1.3v6.5h-1.2V88.9z"/>
	<path class="st3" d="M87.8,95.1c-0.3-0.3-0.5-0.8-0.5-1.4v-4c0-0.6,0.2-1.1,0.5-1.4c0.3-0.3,0.8-0.5,1.4-0.5s1,0.2,1.4,0.5
		c0.3,0.3,0.5,0.8,0.5,1.4v4c0,0.6-0.2,1.1-0.5,1.4c-0.3,0.3-0.8,0.5-1.4,0.5S88.1,95.4,87.8,95.1z M89.8,93.7v-4.2
		c0-0.5-0.2-0.8-0.6-0.8c-0.4,0-0.6,0.3-0.6,0.8v4.2c0,0.5,0.2,0.8,0.6,0.8C89.6,94.5,89.8,94.2,89.8,93.7z"/>
</g>
<g class="st2">
	<path class="st3" d="M50.8,109.3l4.2-9.9h2.5v9.9h1.1v2.1h-1.1v2.7h-2.3v-2.7h-4.4V109.3z M55.2,109.3v-5.5l-2.3,5.5H55.2z"/>
	<path class="st3" d="M59.4,102.9c0-2.3,1.2-3.7,3.5-3.7s3.5,1.3,3.5,3.7v7.6c0,2.3-1.2,3.7-3.5,3.7s-3.5-1.3-3.5-3.7V102.9z
		 M61.7,110.7c0,1,0.5,1.4,1.2,1.4c0.7,0,1.2-0.4,1.2-1.4v-7.9c0-1-0.5-1.4-1.2-1.4c-0.7,0-1.2,0.4-1.2,1.4V110.7z"/>
	<path class="st3" d="M67.8,101.6c0-1.5,0.8-2.3,2.2-2.3s2.2,0.8,2.2,2.3v4.8c0,1.5-0.8,2.3-2.2,2.3s-2.2-0.8-2.2-2.3V101.6z
		 M69.2,106.5c0,0.6,0.3,0.9,0.8,0.9c0.5,0,0.8-0.3,0.8-0.9v-5c0-0.6-0.3-0.9-0.8-0.9c-0.5,0-0.8,0.3-0.8,0.9V106.5z M75.8,99.4h1.4
		L71.4,114H70L75.8,99.4z M75,107c0-1.5,0.8-2.3,2.2-2.3s2.2,0.8,2.2,2.3v4.8c0,1.5-0.8,2.3-2.2,2.3s-2.2-0.8-2.2-2.3V107z
		 M76.5,111.9c0,0.6,0.3,0.9,0.8,0.9c0.5,0,0.8-0.3,0.8-0.9v-5c0-0.6-0.3-0.9-0.8-0.9c-0.5,0-0.8,0.3-0.8,0.9V111.9z"/>
</g>
<polygon class="st3" points="15.6,53.3 16.9,57.2 21,57.2 17.7,59.6 18.9,63.5 15.6,61.1 12.3,63.5 13.6,59.6 10.3,57.2 14.4,57.2 
	"/>
<polygon class="st3" points="32.1,53.3 33.4,57.2 37.5,57.2 34.2,59.6 35.4,63.5 32.1,61.1 28.8,63.5 30.1,59.6 26.8,57.2 
	30.9,57.2 "/>
<polygon class="st3" points="48.6,53.3 49.9,57.2 54,57.2 50.7,59.6 51.9,63.5 48.6,61.1 45.3,63.5 46.6,59.6 43.3,57.2 47.4,57.2 
	"/>
<polygon class="st3" points="65.1,53.3 66.4,57.2 70.5,57.2 67.2,59.6 68.4,63.5 65.1,61.1 61.8,63.5 63.1,59.6 59.8,57.2 
	63.9,57.2 "/>
<polygon class="st3" points="81.6,53.3 82.9,57.2 87,57.2 83.7,59.6 84.9,63.5 81.6,61.1 78.3,63.5 79.6,59.6 76.3,57.2 80.4,57.2 
	"/>
<polygon class="st3" points="98.1,53.3 99.4,57.2 103.5,57.2 100.2,59.6 101.4,63.5 98.1,61.1 94.8,63.5 96.1,59.6 92.8,57.2 
	96.9,57.2 "/>
<polygon class="st3" points="114.7,53.3 115.9,57.2 120,57.2 116.7,59.6 117.9,63.5 114.7,61.1 111.3,63.5 112.6,59.6 109.3,57.2 
	113.4,57.2 "/>
<polygon class="st3" points="15.6,67.6 16.9,71.5 21,71.5 17.7,73.9 18.9,77.8 15.6,75.4 12.3,77.8 13.6,73.9 10.3,71.5 14.4,71.5 
	"/>
<polygon class="st3" points="32.1,67.6 33.4,71.5 37.5,71.5 34.2,73.9 35.4,77.8 32.1,75.4 28.8,77.8 30.1,73.9 26.8,71.5 
	30.9,71.5 "/>
<polygon class="st3" points="48.6,67.6 49.9,71.5 54,71.5 50.7,73.9 51.9,77.8 48.6,75.4 45.3,77.8 46.6,73.9 43.3,71.5 47.4,71.5 
	"/>
<polygon class="st1" points="65.1,67.6 66.4,71.5 70.5,71.5 67.2,73.9 68.4,77.8 65.1,75.4 61.8,77.8 63.1,73.9 59.8,71.5 
	63.9,71.5 "/>
<polygon class="st1" points="81.6,67.6 82.9,71.5 87,71.5 83.7,73.9 84.9,77.8 81.6,75.4 78.3,77.8 79.6,73.9 76.3,71.5 80.4,71.5 
	"/>
<polygon class="st1" points="98.1,67.6 99.4,71.5 103.5,71.5 100.2,73.9 101.4,77.8 98.1,75.4 94.8,77.8 96.1,73.9 92.8,71.5 
	96.9,71.5 "/>
<polygon class="st1" points="114.7,67.6 115.9,71.5 120,71.5 116.7,73.9 117.9,77.8 114.7,75.4 111.3,77.8 112.6,73.9 109.3,71.5 
	113.4,71.5 "/>
</svg>
