<svg xmlns="http://www.w3.org/2000/svg" xmlns:xlink="http://www.w3.org/1999/xlink" width="320" height="300" viewBox="0 0 320 300"><defs><clipPath id="a"><rect x="-0.25" y="-0.17" width="320.26" height="300.17" fill="none"/></clipPath><linearGradient id="b" x1="468.39" y1="234.83" x2="-264.45" y2="234.83" gradientUnits="userSpaceOnUse"><stop offset="0" stop-color="#aeb4b4"/><stop offset="1" stop-color="#41474f"/></linearGradient><linearGradient id="c" x1="79.98" y1="249.66" x2="444.17" y2="249.66" gradientUnits="userSpaceOnUse"><stop offset="0" stop-color="#00b7ff"/><stop offset="1" stop-color="#490051"/></linearGradient><clipPath id="d"><polygon points="568.56 199.72 568.56 299.14 135.2 299.59 135.2 245.77 203.39 245.77 203.39 199.72 568.56 199.72" fill="none"/></clipPath><clipPath id="e"><rect x="-321.38" y="240.85" width="288.93" height="82.25" fill="none"/></clipPath></defs><g style="isolation:isolate"><g clip-path="url(#a)"><polygon points="317.51 144.65 190.8 144.65 131.47 203.98 -23.47 203.88 -23.47 349.9 316.44 349.9 317.51 144.65" fill="#2776ab" stroke="#2776ab" stroke-miterlimit="10" stroke-width="2"/><polygon points="-182.88 203.9 141.47 203.9 200.8 144.67 541 144.67 541 324.99 -182.81 324.99 -182.88 203.9" fill="url(#b)"/><g style="mix-blend-mode:multiply"><polyline points="237.21 213.67 226.46 203.94 246.95 181.56 246.95 144.89" fill="none" stroke="#9e908c" stroke-miterlimit="10"/><line x1="226.14" y1="204.17" x2="141.47" y2="204.17" fill="none" stroke="#9e908c" stroke-miterlimit="10"/><line x1="141.91" y1="204.53" x2="142.38" y2="278.68" fill="none" stroke="#9e908c" stroke-miterlimit="10"/><polyline points="33.64 312.45 90.24 268.42 90.24 203.52" fill="none" stroke="#9e908c" stroke-miterlimit="10"/><polyline points="31.75 310.14 -21.88 268.42 -21.88 203.52" fill="none" stroke="#9e908c" stroke-miterlimit="10"/></g><polyline points="-182.84 203.9 141.47 204 200.8 144.67 541 144.67" fill="none" stroke="#3b3d5f" stroke-miterlimit="10" stroke-width="2"/><polygon points="568.56 199.72 568.56 299.14 135.2 299.59 135.2 245.77 203.39 245.77 203.39 199.72 568.56 199.72" fill="url(#c)"/><polyline points="135.2 299.59 135.2 245.77 202.57 245.77 202.57 199.72 568.56 199.72" fill="none" stroke="#fff" stroke-miterlimit="10"/><g opacity="0.4" style="mix-blend-mode:overlay"><polyline points="200.52 271.58 245 271.58 275.19 241.4 352.11 241.4" fill="none" stroke="#d8e0ff" stroke-miterlimit="10" stroke-width="1.3"/><polyline points="352.11 241.4 297.49 241.4 289.25 233.16 262.88 233.16 238.59 257.45 156.71 257.45" fill="none" stroke="#d8e0ff" stroke-miterlimit="10" stroke-width="1.3"/><line x1="285.4" y1="257.47" x2="366.59" y2="257.47" fill="none" stroke="#d8e0ff" stroke-miterlimit="10" stroke-width="1.3"/><polyline points="299.12 272.23 380.31 272.23 398.33 254.21 414.41 254.21" fill="none" stroke="#d8e0ff" stroke-miterlimit="10" stroke-width="1.3"/><polyline points="200.52 286.4 182.26 286.4 182.26 268.52 157.61 268.52" fill="none" stroke="#d8e0ff" stroke-miterlimit="10" stroke-width="1.3"/><polyline points="281.71 272.23 260.42 272.23 246.25 286.4 200.52 286.4" fill="none" stroke="#d8e0ff" stroke-miterlimit="10" stroke-width="1.3"/><line x1="298.42" y1="284.66" x2="361.73" y2="284.66" fill="none" stroke="#d8e0ff" stroke-miterlimit="10" stroke-width="1.3"/><circle cx="200.52" cy="271.58" r="2.05" fill="#d8e0ff"/><circle cx="156.61" cy="268.58" r="2.05" fill="#d8e0ff"/><circle cx="285.4" cy="257.47" r="2.05" fill="#d8e0ff"/><circle cx="299.12" cy="272.22" r="2.05" fill="#d8e0ff"/><circle cx="281.71" cy="272.22" r="2.05" fill="#d8e0ff"/><circle cx="156.88" cy="257.45" r="2.05" fill="#d8e0ff"/><circle cx="299.12" cy="284.66" r="2.05" fill="#d8e0ff"/></g><g clip-path="url(#d)"><g opacity="0.4" style="mix-blend-mode:overlay"><polyline points="410.54 226.9 329.35 226.9 311.33 208.88 295.25 208.88" fill="none" stroke="#d8e0ff" stroke-miterlimit="10"/><line x1="341.51" y1="183.38" x2="278.19" y2="183.38" fill="none" stroke="#d8e0ff" stroke-miterlimit="10"/><polyline points="277.37 209.13 264.55 209.13 264.55 177.71 213.66 177.71" fill="none" stroke="#d8e0ff" stroke-miterlimit="10"/><line x1="249.23" y1="209.04" x2="249.23" y2="189.5" fill="none" stroke="#d8e0ff" stroke-miterlimit="10"/><line x1="340.89" y1="196.25" x2="277.37" y2="196.25" fill="none" stroke="#d8e0ff" stroke-miterlimit="10"/><circle cx="213.66" cy="177.71" r="2.05" fill="#d8e0ff"/><circle cx="249.23" cy="189.5" r="2.05" fill="#d8e0ff"/><circle cx="249.23" cy="209.04" r="2.05" fill="#d8e0ff"/><circle cx="295.25" cy="209.13" r="2.05" fill="#d8e0ff"/><circle cx="277.37" cy="183.38" r="2.05" fill="#d8e0ff"/><circle cx="277.37" cy="196.25" r="2.05" fill="#d8e0ff"/><polyline points="307.57 221.14 224.75 221.14 224.75 189.5" fill="none" stroke="#d8e0ff" stroke-miterlimit="10"/><circle cx="224.75" cy="189.5" r="2.05" fill="#d8e0ff"/><circle cx="307.57" cy="221.14" r="2.05" fill="#d8e0ff"/><circle cx="277.37" cy="209.13" r="2.05" fill="#d8e0ff"/></g></g></g><path d="M112,133.13s-3.08,5-3.65,14.07c0,0,2.23-.21,2.23-.53S112,133.13,112,133.13Z" fill="#a0a4e5" fill-rule="evenodd"/><polygon points="90.98 200 86.46 199.67 87.95 194.47 92.28 194.78 90.98 200" fill="#a73c42" fill-rule="evenodd"/><polygon points="111.28 200 106.44 199.65 107.05 194.67 111.89 195.01 111.28 200" fill="#a73c42" fill-rule="evenodd"/><path d="M91.34,203.11a1.25,1.25,0,0,0,.11-.5c0-1.36,0-3.24,0-3.24l-4.62-.46a65.18,65.18,0,0,1-5.71,3.44,1.3,1.3,0,0,0-.81.76Z" fill="#270054" fill-rule="evenodd"/><path d="M121.63,180.4h0a3.26,3.26,0,0,1-3.25-3.26v-4.3a3.26,3.26,0,0,1,3.25-3.26h0a3.27,3.27,0,0,1,3.26,3.26v4.3A3.27,3.27,0,0,1,121.63,180.4Z" fill="#303546" fill-rule="evenodd"/><path d="M121.49,197.3h0a1.32,1.32,0,0,1-1.32-1.32V171.74a1.32,1.32,0,0,1,1.32-1.32h0a1.32,1.32,0,0,1,1.32,1.32V196A1.32,1.32,0,0,1,121.49,197.3Z" fill="#303546"/><circle cx="121.66" cy="201.66" r="1.69" fill="#303546"/><circle cx="131.35" cy="201.66" r="1.69" fill="#303546"/><circle cx="111.96" cy="201.66" r="1.69" fill="#303546"/><path d="M132.77,198.37H110.58a1.07,1.07,0,0,1-1.07-1.07h0a1.07,1.07,0,0,1,1.07-1.07h22.19a1.07,1.07,0,0,1,1.07,1.07h0A1.07,1.07,0,0,1,132.77,198.37Z" fill="#303546"/><rect x="105.45" y="165.12" width="32.08" height="6.11" rx="1.5" fill="#979be2"/><path d="M113.2,152.08s-2.85,8.19-2.65,9.79a11.38,11.38,0,0,0,2,5.11l14-.11a6.47,6.47,0,0,0,6.33-7.57v-.06c-.06-.38-.12-.75-.17-1.13l-1-7.08c-4.34,2.81-12.22,4-19.11,2.11Z" fill="#580b60" fill-rule="evenodd"/><path d="M101.69,152.65l5.15-4.51,3.89-4.88,2.31,5.46a17.66,17.66,0,0,1-10.5,7.58l-.61-1.83Z" fill="#a0a4e5" fill-rule="evenodd"/><path d="M93.2,196.56,87,196c0-.79,4.48-17.85,7-25a8.09,8.09,0,0,1,4-4.55L113,159l9.81,8.34-20.66,8.53Z" fill="#580b60" fill-rule="evenodd"/><path d="M93.2,196.56l-2.51-.21c.6-5,4.48-9.42,6.22-11.89,2.23-3.14.87-8.38,1.79-11a9.11,9.11,0,0,1,1.92-2.68,16.64,16.64,0,0,1,7.46-4.46,28.5,28.5,0,0,0,8.48-4.32l6.29,5.34-20.66,8.53Z" fill="#270054" fill-rule="evenodd"/><path d="M111.35,203.11a1.25,1.25,0,0,0,.11-.5c0-1.36.05-3.24.05-3.24l-5.13-.12a55.6,55.6,0,0,1-5.2,3.1,1.3,1.3,0,0,0-.81.76Z" fill="#270054" fill-rule="evenodd"/><path d="M117,116.61s-3.31,1.49-.72,4.57.72-4.57.72-4.57Z" fill="#270054" fill-rule="evenodd"/><path d="M128.15,131.11a3.36,3.36,0,0,0-1.88-2.77,6.11,6.11,0,0,0-4.12-.37,32,32,0,0,0-4.88,1.41l-1.37,4.55,4.59,2.18,9-6.77Z" fill="#979be2" fill-rule="evenodd"/><path d="M116.34,119.24a4,4,0,0,1,1.37-2.86,4,4,0,0,1,3-1h0a4,4,0,0,1,3.63,4.18c-.05,1.23-.1,2.58-.15,3.74a2.88,2.88,0,0,1-1,2,2.94,2.94,0,0,1-2.16.69l-2.22-.22a3,3,0,0,1-2.67-3.07c0-1.08.1-2.35.15-3.54Z" fill="#a73c42" fill-rule="evenodd"/><polygon points="126.36 130.68 123.48 123.19 118.23 125.53 119.69 132.74 126.36 130.68 126.36 130.68" fill="#a73c42" fill-rule="evenodd"/><path d="M122.06,118.77s-.52,3.67,2.36,3.75a23.72,23.72,0,0,0,1.64-5c.31-3.16-6-3.78-8.57-2.44s-1,3.77,4.57,3.69Z" fill="#270054" fill-rule="evenodd"/><path d="M118.61,129.34c1.66,2.62,5.65.24,6.3-.68.1-.15,1.86.92,2.09,1.09,3.5,2.52,4,13.36,4.58,17.26.3,1.82,1.93,7.93,1.06,9.51-.29.53-3,.13-3.56.23-2.29.42-12.53,1.25-13.94-.39s-.34-4.65-.61-6.58a48.34,48.34,0,0,1,1.29-18.88Z" fill="#fff" fill-rule="evenodd"/><path d="M115.66,144.57c1.78,5.53,15-.41,13.53-3.07-2.11-3.7.92,2.56,1.48,6.47.26,1.81,1.72,7.92.94,9.51-.25.52-1.3,4.77-1.79,4.79-6.49.27-16.47.7-16.92-1.44-.63-3,2.28-8.16,2.49-10.09C116,145.74,115.66,144.57,115.66,144.57Z" fill="#e7e7e7" fill-rule="evenodd"/><path d="M124.36,121a1.29,1.29,0,1,0,.64,1.45,1.14,1.14,0,0,0-.64-1.45Z" fill="#a73c42" fill-rule="evenodd"/><path d="M116.18,122.78c-.19-.32-1,5,2.2,5.21s4.49-1,4.71-7.07c0,0-1.27,3.67-3.12,3.73-3.87.12-3.57-1.47-3.79-1.87Z" fill="#270054" fill-rule="evenodd"/><path d="M117.71,125.68a2.29,2.29,0,0,0,1.62.11" fill="none" stroke="#a73c42" stroke-linecap="round" stroke-linejoin="round" stroke-width="1.09"/><path d="M105,197.85l7-.19,2.41-23.16,15-8.35-1.6-2.44-10.72-.77-7.93,3.76a6.8,6.8,0,0,0-3.88,6.2Z" fill="#580b60" fill-rule="evenodd"/><path d="M117.27,129.38s-1.94,9.87-2,15.82-2.7,18.06-2.7,18.06c-1-1.77-4.35-1.24-4.65-2.86,0,0,3-19.56,3.49-24.68S113.88,130.74,117.27,129.38Z" fill="#b2b5ea" fill-rule="evenodd"/><path d="M111.43,153.94s-1.77-1.21-2.9-.62c-.54.28-1.44.29-2.25.74a7.58,7.58,0,0,0-1.84,1.85,1.5,1.5,0,0,0,1.11,1.47c.4.08,1.6-1,1.6-1a6.85,6.85,0,0,0,3.83.05Z" fill="#a73c42" fill-rule="evenodd"/><path d="M103.18,153.84s-1.68-1.34-2.86-.84c-.55.24-1.45.19-2.29.58a7.57,7.57,0,0,0-2,1.71,1.49,1.49,0,0,0,1,1.55c.39.11,1.66-.87,1.66-.87a7,7,0,0,0,3.82.33Z" fill="#a73c42" fill-rule="evenodd"/><polygon points="111.43 153.94 117.05 153.53 117.28 156.53 110.23 156.14 111.43 153.94" fill="#a73c42" fill-rule="evenodd"/><rect x="95.16" y="155.63" width="18.41" height="1.17" fill="#d8ddea"/><path d="M136.39,149.34a73,73,0,0,0-.8-9.31c-.61-3.91-1.4-6.84-2.77-8.46-1.2-1.42-2.34-1.63-3.87-2.39l-2.68-.84c-1.64,7.61-2.77,14.88-2.06,22.42l-8.94,1.77,0,4.27H129.1l2.75-.9,2.62-1.46A7.3,7.3,0,0,0,136.39,149.34Z" fill="#b2b5ea" fill-rule="evenodd"/><path d="M100.72,156.8H79.6l-6.37-14.21H93.87a.75.75,0,0,1,.68.44Z" fill="#b0acbd" fill-rule="evenodd"/><path d="M99,156.8H77.9l-6.08-13.56a.46.46,0,0,1,.43-.65h20.1a.48.48,0,0,1,.43.27Z" fill="#d8ddea" fill-rule="evenodd"/><path d="M124,147.58s-.18,7.56-1.92,11c-.77,1.54-4.8,5.63-4.8,5.63s15.44,1.53,15.94-4.7a121.43,121.43,0,0,1,2-13.48Z" fill="#b2b5ea" fill-rule="evenodd"/><path d="M86.05,149.78c.25.89-.44,1.61-1.54,1.61a2.58,2.58,0,0,1-2.44-1.61c-.25-.88.44-1.6,1.54-1.6A2.6,2.6,0,0,1,86.05,149.78Z" fill="#fff" fill-rule="evenodd"/><path d="M136.39,149.34a73,73,0,0,0-.8-9.31c-.61-3.91-1.4-6.84-2.77-8.46-1.2-1.42-2.34-1.63-3.87-2.39l-2.68-.84c10.26,5.25,6.93,16.49,7.64,24-1.65.87-2.42.59-6.26,1.36a50.25,50.25,0,0,1-7.14,2.07c-2.32-.49-3.62-.64-5.22-.18v1.17H129.1l2.75-.9,2.62-1.46A7.3,7.3,0,0,0,136.39,149.34Z" fill="#d8e0ff" fill-rule="evenodd"/><path d="M138.83,159H62.64a1.1,1.1,0,0,1-1.1-1.1h0a1.1,1.1,0,0,1,1.1-1.1h76.19a1.11,1.11,0,0,1,1.11,1.1h0A1.11,1.11,0,0,1,138.83,159Z" fill="#b0acbd" fill-rule="evenodd"/><rect x="57.32" y="104.63" width="44.1" height="30.39" fill="#b1b6cc" style="mix-blend-mode:multiply"/><rect x="61.95" y="100.52" width="44.1" height="30.39" fill="#f6f1fd"/><path d="M67,123.77c8.76,0,22.44-6.08,30.79-15.87" fill="none" stroke="#af51d2" stroke-linecap="round" stroke-linejoin="round" stroke-width="1.46"/><path d="M92.29,109.53l6-2.06a46.54,46.54,0,0,1-1.83,5.29" fill="none" stroke="#af51d2" stroke-linecap="round" stroke-linejoin="round" stroke-width="1.46"/><polyline points="66.6 102.26 66.6 126.24 103.02 126.24" fill="none" stroke="#af51d2" stroke-miterlimit="10" stroke-width="1.46"/><path d="M23.92,104a1.63,1.63,0,0,0-.15-.84,2.07,2.07,0,0,0-.41-.74c-.06-.06-.15,0-.13.09s.18.37.27.56a1,1,0,0,0-.38.22c-.08.08,0,.21.11.2a1,1,0,0,0,.36-.16,5,5,0,0,0,.17.69A.08.08,0,0,0,23.92,104Z" fill="#d64f51"/><path d="M254.92,88.83l-.64-.06a.75.75,0,0,0-.82.67l-5,53.18a.74.74,0,0,0,.67.81l.65.06a.74.74,0,0,0,.81-.67l5-53.18A.74.74,0,0,0,254.92,88.83Z" fill="#736880" fill-rule="evenodd"/><path d="M257.32,88.83l.64-.06a.74.74,0,0,1,.81.67l5,53.18a.74.74,0,0,1-.67.81l-.64.06a.75.75,0,0,1-.82-.67l-5-53.18A.75.75,0,0,1,257.32,88.83Z" fill="#736880" fill-rule="evenodd"/><path d="M290.53,88.83l-.64-.06a.75.75,0,0,0-.82.67l-5,53.18a.74.74,0,0,0,.67.81l.65.06a.74.74,0,0,0,.81-.67l5-53.18A.74.74,0,0,0,290.53,88.83Z" fill="#736880" fill-rule="evenodd"/><path d="M292,88.83l.64-.06a.75.75,0,0,1,.82.67l5,53.18a.74.74,0,0,1-.67.81l-.65.06a.74.74,0,0,1-.81-.67l-5-53.18A.74.74,0,0,1,292,88.83Z" fill="#736880" fill-rule="evenodd"/><path d="M298.23,42.13h-40a.88.88,0,0,0-.86.79l-6.67,71.26a.7.7,0,0,0,.71.78h40a.87.87,0,0,0,.85-.78l6.68-71.26A.7.7,0,0,0,298.23,42.13Z" fill="#736880" fill-rule="evenodd"/><path d="M295.84,45.23H260a.78.78,0,0,0-.76.7l-6,65.07a.64.64,0,0,0,.64.71h35.81a.79.79,0,0,0,.76-.71l6-65.07A.63.63,0,0,0,295.84,45.23Z" fill="#f6f1fd" fill-rule="evenodd"/><path d="M262.39,75.39a3.94,3.94,0,0,1,.68-.54,2.52,2.52,0,0,1,.4-.21l.18-.08c.12-.09,0,0,0-.08,0,.08,0,.16,0,.25a4,4,0,0,1-.13.46c-.1.29-.22.58-.34.86a21.26,21.26,0,0,1-1.94,3.28c-.23.34-.09.81.39.69a8.67,8.67,0,0,1,3.21-.13.7.7,0,0,0,.72-.37.41.41,0,0,0-.22-.61,8.24,8.24,0,0,0-3.73.18l.46.58a19.67,19.67,0,0,0,2.31-4.28c.18-.52.58-1.76-.39-1.76a2.42,2.42,0,0,0-1.09.41,4.81,4.81,0,0,0-1,.75c-.16.15-.31.4-.15.61a.47.47,0,0,0,.64,0Z" fill="#b5c2e5"/><g style="mix-blend-mode:multiply"><path d="M269.83,78.67a7.56,7.56,0,0,0,3.74-2.11,4.56,4.56,0,0,0,1.2-4c-.08-.36-.32-.77-.69-.72s-.47.33-.59.6a11,11,0,0,0-.87,3.1c-.18,1.33.07,3,1.31,3.47a3.06,3.06,0,0,0,2.86-.65,7.13,7.13,0,0,0,2.82-4.69c.09-.65,0-1.45-.59-1.74-1.28,1.15-1.12,3.13-.75,4.77a3.17,3.17,0,0,0,.62,1.47,2.16,2.16,0,0,0,2,.56,4.16,4.16,0,0,0,1.9-1.1,6.91,6.91,0,0,0,2-3.47,2.75,2.75,0,0,0-.42-2.44.52.52,0,0,0-.46-.21c-.21,0-.3.28-.36.48a6.3,6.3,0,0,0,.22,4.66,3.69,3.69,0,0,0,4,2" fill="none" stroke="#b5c2e5" stroke-linecap="round" stroke-linejoin="round" stroke-width="0.87"/><path d="M260.86,59.85q15.79-.26,31.59,0" fill="none" stroke="#b5c2e5" stroke-linecap="round" stroke-linejoin="round" stroke-width="0.87"/><path d="M266.49,69.57a8,8,0,0,0,3.85-4.71c.26-.91.15-2.18-.78-2.39a8.72,8.72,0,0,0-.17,4.39,2.59,2.59,0,0,0,1.06,1.81c1,.55,2.24-.07,3.1-.83,1.43-1.27,2.48-3.46,1.38-5a4.54,4.54,0,0,0-.79,4.06,1.83,1.83,0,0,0,.63,1,2.17,2.17,0,0,0,2.36-.32,6.09,6.09,0,0,0,2.6-5.39,5.11,5.11,0,0,0-.91,4.72,2,2,0,0,0,.66,1c.77.56,1.89.1,2.63-.53a6.29,6.29,0,0,0,2.12-5.5,6.4,6.4,0,0,0-1,3.6,3.06,3.06,0,0,0,1.2,2.57c1.14.74,2.67.23,4-.3" fill="none" stroke="#b5c2e5" stroke-linecap="round" stroke-linejoin="round" stroke-width="0.87"/><path d="M261.4,87l2.6-.6a.57.57,0,0,1,.41,0c.28.17.06.59-.17.82l-1.92,1.92,1.46-.18c.37,0,.85,0,1,.32a.68.68,0,0,1-.07.44,2.18,2.18,0,0,1-2.27,1.19" fill="none" stroke="#b5c2e5" stroke-linecap="round" stroke-linejoin="round" stroke-width="0.87"/><path d="M261.71,64.58a6.82,6.82,0,0,1,1.68-1.06c-.24,1.19-.53,2.38-.88,3.55" fill="none" stroke="#b5c2e5" stroke-linecap="round" stroke-linejoin="round" stroke-width="0.87"/><path d="M262.4,95a15,15,0,0,1-2.2,3.43,9.46,9.46,0,0,0,3.13-.41" fill="none" stroke="#b5c2e5" stroke-linecap="round" stroke-linejoin="round" stroke-width="0.87"/><path d="M262.8,94.88a33.82,33.82,0,0,1-.26,6.59" fill="none" stroke="#b5c2e5" stroke-linecap="round" stroke-linejoin="round" stroke-width="0.87"/></g><line x1="260.19" y1="67.74" x2="252.02" y2="65.95" fill="none" stroke="#3f2447" stroke-miterlimit="10" stroke-width="1.16"/><path d="M255.6,70.89l-7.7,10.4c-2.25,2.91-6.15-.33-3.09-3.48,3.82-3.94,10-9.31,10-9.31l1.25-2.68,2.57.4,1,.78-1.83-.15,1.42,1.24V69.5h-1v-.38h-.81l-.69,1.71Z" fill="#ff6267"/><path d="M240,68.88s8.29,8,7.24,12.14c-1.21,4.79-10-2.16-10-6.64C237.21,70.48,237.82,67.71,240,68.88Z" fill="#d8e0ff"/><path d="M225.1,68.48s-8.68,6.31-12.78,14.82a1.57,1.57,0,0,0,.18,1.52c.93,1.18,2.73,1.76,10.77,4.47.5.17.39,1.84.54,3.22a.71.71,0,0,0,1.42,0l.5-3.53S221,85,216.6,83.3c0,0,5.54-4.55,10.22-8C229.12,73.66,227.6,67.29,225.1,68.48Z" fill="#ff6267"/><path d="M228.2,139.35a10.25,10.25,0,0,0,.12,2c.05.24.39.55.8.89a8.11,8.11,0,0,0,.75.54l-4.3-.62c0-.31,0-.61,0-.87a18.07,18.07,0,0,0,0-2Z" fill="#580b60"/><path d="M244.36,139.1a6.06,6.06,0,0,0,.51,2.22,3,3,0,0,0,.94.77c.74.44,1.44.83.65,1.3s-4.09.11-4.13-.37-.1-1-.15-1.37a19.84,19.84,0,0,0-.43-2.3" fill="#580b60"/><path d="M225,139.91c0-.71-.72-9.41-.42-17.27s-.08-6.67-.12-10.25c-.09-7.75-.26-16,1.13-20.62a23.52,23.52,0,0,0,1.27-8.29s2,3.06,7.68,3c0,0,.29,8.56-1.8,9.53,0,0-.71,12.78-.95,16.11s-1.69,11.59-2.11,14.68c-.34,2.52-.56,8.9-.63,13.13Z" fill="#3b3d5f"/><path d="M225.54,143.81l6.53.07c.86-.35,0-.75,0-.75a11.38,11.38,0,0,1-3.45-1.27l-.84,0-.46.49-1.76-.08Z" fill="#270054"/><path d="M234.26,85.25s0,.12,0,.37A.82.82,0,0,1,234.26,85.25Z" fill="#a73c42"/><path d="M241.07,139.91c0-.56-1.92-8.76-2.83-16.57s-2-7-2.62-10.54c-2.09-12.94-4.92-17.09-3.77-19.87a37.32,37.32,0,0,0,2.36-7.23c0,.53.7,1.38,4.72.73,0,0,4.21,9.9,3.88,25.53-.07,3.34,1.05,11.63,1.11,14.75s1.22,12.37,1.18,13Z" fill="#3b3d5f"/><path d="M242.18,143.81l6.94.07c.87-.35,0-.75,0-.75a11.76,11.76,0,0,1-3.51-1.27l-.84,0-.48.49-2.15-.08Z" fill="#270054"/><path d="M238.93,86.38s.38-8.08,1-9.89a6.67,6.67,0,0,0,.23-1.9,22.61,22.61,0,0,0-.8-5.46,4.84,4.84,0,0,0-1.72-.54c-.12,0-2.62-.91-2.62-.91l-.12-1.25-.08-.85-.13-1.38c-.18-1.83-3.93-1.05-3.93-1.05v4.49a8.67,8.67,0,0,1-1.86.21l-.34,0a9.43,9.43,0,0,0-3,.52c-.8.53,1.7,14.9,1.25,16.88Z" fill="#ff6267"/><path d="M230.78,63.63V65a6,6,0,0,0,4.14,1.46l-.08-.85-.13-1.38C233.93,63.21,231.58,63.5,230.78,63.63Z" fill="#e5595e"/><path d="M236.27,57.27a5.81,5.81,0,0,1,.57,2.89c.12,3.78-1.71,5.17-3,5.17a4.2,4.2,0,0,1-4.37-4,8.85,8.85,0,0,1,.21-4.14C230.58,55.26,234.5,54.78,236.27,57.27Z" fill="#ff6267"/><path d="M238.93,86.38s1-3.41.71-4.71a7.12,7.12,0,0,1,.55-4.07c.52-1.36,1.21-3.48.51-5a20.09,20.09,0,0,1-1.12-3.91,14.62,14.62,0,0,0-5.31-1.39c-3.91-.29-8.46.46-9.17,1.16a40.77,40.77,0,0,0,.36,6.77c.5,3.22.8,3.91.5,6.07a12.78,12.78,0,0,0,.75,5.06Z" fill="#d8e0ff"/><path d="M225.6,68.09a27.29,27.29,0,0,0-8.61,7c-3.71,4.67-3.77,5.81-5.08,6.61s1.9,2.72,4.69,1.61,9.49-7.24,9.49-7.24S228.58,68.12,225.6,68.09Z" fill="#d8e0ff"/><path d="M239.4,69.72s0,0,0,0a5.14,5.14,0,0,1,.7,1.88c.27.84.63,1.64.92,2.47,0,.1-.12.17-.17.08a16.24,16.24,0,0,1-1-2.32A4.47,4.47,0,0,1,239.4,69.72Z" fill="#b5c2e5"/><path d="M231.91,72.64c.5-.64,1.58-2.27,1.58-8a4.5,4.5,0,0,1,1.43-3.86c.69-.7,1-1.18,1.62-1.91,1.55-1.73-1.08-5.3-3.6-5.3a7.77,7.77,0,0,0-3.36.4,4.5,4.5,0,0,0-2.64,2.61c-.36,1.05-.21,2.25-.72,3.24-.31.6-.84,1.07-1.19,1.66a3.17,3.17,0,0,0-.34,2.39,14.4,14.4,0,0,1,.56,1.8c.14,1.29-3.25,2.46-2.35,6.37.27,1.17,2.33,1.58,3.63,1.58C229,73.58,231.25,73.5,231.91,72.64Z" fill="#ffb66f"/><path d="M235.3,60.46s-.59-1.57-1.52-.74.35,3.08,1.77,2.9C235.55,62.62,235.76,61,235.3,60.46Z" fill="#ff6267"/><path d="M234.23,60.43a1.34,1.34,0,0,1,.57.37,1.64,1.64,0,0,1,.42.53c0,.07-.07.1-.11.06s-.22-.24-.33-.36a.79.79,0,0,1-.27.21.1.1,0,0,1-.12-.14.69.69,0,0,1,.23-.22,2.53,2.53,0,0,1-.45-.34A.07.07,0,0,1,234.23,60.43Z" fill="#ce4a4f"/><polygon points="69.86 264.19 65.38 264.19 62.32 255.21 66.79 255.21 69.86 264.19" fill="#270054" fill-rule="evenodd"/><polygon points="30.96 293.17 34.32 294.77 36.61 292.16 33.25 290.55 30.96 293.17" fill="#873b86" fill-rule="evenodd"/><path d="M36.24,298.12H37.9v1.53H35.24l-5.66-5L31,292.82l3.5,1.76Z" fill="#270054" fill-rule="evenodd"/><path d="M49.44,280.37,35.32,294.32l-3.57-3.21c3.08-3.74,7.94-12.27,12.42-14Z" fill="#150040" fill-rule="evenodd"/><path d="M25.06,268.12s-1.08,8.43,6,9.39,20.76.6,20.76.6,1.17-6-3.16-7.07c-5.47-1.31-8.32-2-8.32-2Z" fill="#270054" fill-rule="evenodd"/><path d="M29.73,247.5l1.7-5.32,3.74,1.41-.72,5.07c-1.11-1.27-2.81-1.42-4.72-1.16Z" fill="#ff6267" fill-rule="evenodd"/><path d="M33,243.85a5.42,5.42,0,0,0,1.66,3.22l.15-1.06.22-1.56A3.31,3.31,0,0,1,33,243.85Z" fill="#e5595e" fill-rule="evenodd"/><path d="M30.67,239.54c.51-2.49.69-2.92,2.88-3.34,2.22-.22.75.56,3.06,1.08,1.35.31,1.36,1.56,1.14,3.14a2.22,2.22,0,0,0,.65,1.68c.14.38-.49.66-.67.82s0,2.05-.58,2.37c-1.44.86-3.79-.15-3.79-.15-2.53-1.31-1.1-6.43-1.1-6.43C32.12,237.84,30.54,240.2,30.67,239.54Z" fill="#ff6267"/><path d="M33.51,240.67a18.29,18.29,0,0,1-2.45,3.79c-.62.62-1.29-.12-1.34-1-.1-1.75-1.35-3.31-.62-5.81.38-1.28,3.35-2,5.6-2.16,2.62-.22,5.59,3.25,1.25,3.64l-1.34,2.45a.46.46,0,0,1-.85-.09Z" fill="#270054" fill-rule="evenodd"/><path d="M32.37,240.12a1.29,1.29,0,0,1,.73,2.39,1.29,1.29,0,0,1-.73-2.39Z" fill="#ff6267" fill-rule="evenodd"/><rect x="47.48" y="263.31" width="14" height="0.89" transform="translate(108.96 527.5) rotate(-180)" fill="#d8e0ff"/><rect x="16.48" y="264.2" width="59.53" height="1.68" rx="0.4" fill="#270054"/><path d="M40.79,256.23l-.48,12.85a30.1,30.1,0,0,1-15.52-.3c-.62-.45-.71-1.25-.14-2.51l-.15-8.52a20.17,20.17,0,0,1,.71-5.83c.65-2.37,1.83-4.94,3.94-5.32a12.46,12.46,0,0,1,5.8.33A7.1,7.1,0,0,1,40.44,253Z" fill="#b2b5ea" fill-rule="evenodd"/><path d="M53.44,261.42s1.19-1.12,2.11-.81a16.84,16.84,0,0,1,1.77.29,5.87,5.87,0,0,1,1.6,1.17,1.14,1.14,0,0,1-.66,1.24c-.29.11-1.32-.55-1.32-.55a7.08,7.08,0,0,1-3.35.78l-2.13-.1-1-1.2Z" fill="#ff6267" fill-rule="evenodd"/><path d="M39.4,250.31l5.75,9,7.3,1a1.31,1.31,0,0,1,1.14,1.3v2.21l-10,.31-6.53-3.75Z" fill="#b2b5ea" fill-rule="evenodd"/><polygon points="53.62 298.02 57.01 298.11 53.36 288.99 50.24 289.89 53.62 298.02" fill="#873b86" fill-rule="evenodd"/><polygon points="56.91 297.41 53.13 297.03 53.13 299.65 61.48 299.65 61.48 298.75 56.91 297.41" fill="#270054" fill-rule="evenodd"/><path d="M51.82,274.87l5.15,21-5.35.18c-2.53-6.69-5.23-12.29-5.74-17.82Z" fill="#270054" fill-rule="evenodd"/><path d="M31.17,285.66h0a2.48,2.48,0,0,1-2.47-2.48v-3.27a2.48,2.48,0,0,1,2.47-2.47h0a2.48,2.48,0,0,1,2.47,2.47v3.27A2.48,2.48,0,0,1,31.17,285.66Z" fill="#434656" fill-rule="evenodd"/><path d="M32.06,276.44v18.43a1,1,0,0,1-1,1h0a1,1,0,0,1-1-1V276.44Z" fill="#434656"/><circle cx="31.2" cy="298.1" r="1.29" fill="#434656"/><circle cx="38.57" cy="298.1" r="1.29" fill="#434656"/><circle cx="23.83" cy="298.1" r="1.29" fill="#434656"/><path d="M39.64,295.88H22.77a.82.82,0,0,1-.82-.82h0a.82.82,0,0,1,.82-.81H39.64a.81.81,0,0,1,.81.81h0A.82.82,0,0,1,39.64,295.88Z" fill="#434656"/><path d="M39.06,280.43H23a2.32,2.32,0,0,1-2.32-2.32h0A2.32,2.32,0,0,1,23,275.78H39.06a2.32,2.32,0,0,1,2.32,2.33h0A2.32,2.32,0,0,1,39.06,280.43Z" fill="#fff" fill-rule="evenodd"/><path d="M40.57,262.05l-3.49-3.25v10.91a7.39,7.39,0,0,0,3.23-.63c.58-.45.78-1,.07-1.82Z" fill="#9ca0e4" fill-rule="evenodd"/><path d="M73.09,259.07H53.59a1.42,1.42,0,0,1-1.43-1.49l.57-12.75a1.43,1.43,0,0,1,1.43-1.37H73.65a1.43,1.43,0,0,1,1.43,1.5l-.57,12.74A1.42,1.42,0,0,1,73.09,259.07Z" fill="#d8e0ff" fill-rule="evenodd"/><polygon points="52.73 244.83 52.16 257.58 74.52 257.7 75.08 244.96 52.73 244.83" fill="#fff" fill-rule="evenodd"/><polyline points="55.4 255.73 71.43 255.82 71.84 246.68" fill="none" stroke="#b2b5ea" stroke-miterlimit="10" stroke-width="0.55" fill-rule="evenodd"/><path d="M71.64,251.61a32.18,32.18,0,0,1-15-3.64" fill="none" stroke="#b2b5ea" stroke-miterlimit="10" stroke-width="0.55" fill-rule="evenodd"/><path d="M63.2,253.9l2.13-3.68a.64.64,0,0,1,1.12,0l1.82,3.39,1-1.31a.65.65,0,0,1,1.06,0l1,1.54Z" fill="#7c6cc4" fill-rule="evenodd"/><path d="M55.55,253.9l2.13-3.68a.64.64,0,0,1,1.12,0l1.82,3.39,1-1.31a.65.65,0,0,1,1.06,0l1,1.54Z" fill="#7c6cc4" fill-rule="evenodd"/><g clip-path="url(#e)"><g opacity="0.4" style="mix-blend-mode:overlay"><polyline points="-39.14 268.65 -3.23 268.65 11.15 283.04 79.19 283.04" fill="none" stroke="#d8e0ff" stroke-miterlimit="10" stroke-width="1.06"/><polyline points="79.19 283.04 30.88 283.04 23.59 290.32 0.27 290.32 -8.54 281.52 -24.63 281.52" fill="none" stroke="#d8e0ff" stroke-miterlimit="10" stroke-width="1.06"/><line x1="20.18" y1="268.82" x2="92" y2="268.82" fill="none" stroke="#d8e0ff" stroke-miterlimit="10" stroke-width="1.06"/><polyline points="32.32 255.77 104.14 255.77 120.07 271.7 134.29 271.7" fill="none" stroke="#d8e0ff" stroke-miterlimit="10" stroke-width="1.06"/><line x1="-54.9" y1="255.77" x2="16.92" y2="255.77" fill="none" stroke="#d8e0ff" stroke-miterlimit="10" stroke-width="1.06"/><polyline points="-24.48 299.28 49.7 298.83 54.27 294.26 149.38 294.26" fill="none" stroke="#d8e0ff" stroke-miterlimit="10" stroke-width="1.06"/><polyline points="150.11 271.49 161.45 271.49 161.45 299.28 175 299.28" fill="none" stroke="#d8e0ff" stroke-miterlimit="10" stroke-width="1.06"/><line x1="175" y1="271.57" x2="175" y2="288.85" fill="none" stroke="#d8e0ff" stroke-miterlimit="10" stroke-width="1.06"/><line x1="93.93" y1="282.88" x2="150.11" y2="282.88" fill="none" stroke="#d8e0ff" stroke-miterlimit="10" stroke-width="1.06"/><circle cx="175" cy="299.28" r="1.82" fill="#d8e0ff"/><circle cx="175" cy="288.85" r="1.82" fill="#d8e0ff"/><circle cx="175" cy="271.57" r="1.82" fill="#d8e0ff"/><circle cx="79.19" cy="282.88" r="1.82" fill="#d8e0ff"/><circle cx="20.18" cy="268.82" r="1.82" fill="#d8e0ff"/><circle cx="92" cy="268.82" r="1.82" fill="#d8e0ff"/><circle cx="32.32" cy="255.77" r="1.82" fill="#d8e0ff"/><circle cx="134.29" cy="271.49" r="1.82" fill="#d8e0ff"/><circle cx="16.92" cy="255.77" r="1.82" fill="#d8e0ff"/><circle cx="150.11" cy="294.26" r="1.82" fill="#d8e0ff"/><circle cx="150.11" cy="282.88" r="1.82" fill="#d8e0ff"/><circle cx="93.93" cy="282.88" r="1.82" fill="#d8e0ff"/><circle cx="150.11" cy="271.49" r="1.82" fill="#d8e0ff"/></g></g></g></svg>