<svg xmlns="http://www.w3.org/2000/svg" xmlns:xlink="http://www.w3.org/1999/xlink" width="320" height="300" viewBox="0 0 320 300"><defs><linearGradient id="a" x1="-12.74" y1="130.79" x2="339.13" y2="130.79" gradientTransform="matrix(1, 0, 0, -1, 0, 302)" gradientUnits="userSpaceOnUse"><stop offset="0" stop-color="#3d026e"/><stop offset="1" stop-color="#951abb"/></linearGradient><clipPath id="b"><path d="M-12.74,215.5h85L189.82,97.93A20,20,0,0,1,204,92.07h63.7a20,20,0,0,0,14.14-5.86l57.29-57.29V313.5H-12.74Z" fill="none"/></clipPath><linearGradient id="c" x1="6.4" y1="3.85" x2="45.27" y2="42.72" gradientTransform="matrix(1, 0, 0, -1, 0, 302)" gradientUnits="userSpaceOnUse"><stop offset="0" stop-color="#939a9a"/><stop offset="1" stop-color="#ccc"/></linearGradient><linearGradient id="d" x1="279.08" y1="169.86" x2="135.98" y2="26.76" gradientTransform="matrix(1, 0, 0, -1, 0, 302)" gradientUnits="userSpaceOnUse"><stop offset="0" stop-color="#fff"/><stop offset="1" stop-color="#fff" stop-opacity="0.2"/></linearGradient></defs><path d="M37.26,215.5h25L179.82,97.93A20,20,0,0,1,194,92.07h63.7a20,20,0,0,0,14.14-5.86L330,28.06V227.29H37.26Z" fill="#4521b0" stroke="#4521b0" stroke-miterlimit="10" stroke-width="2"/><path d="M-12.74,215.5h85L189.82,97.93A20,20,0,0,1,204,92.07h63.7a20,20,0,0,0,14.14-5.86l57.29-57.29V313.5H-12.74Z" fill="url(#a)"/><g clip-path="url(#b)"><g opacity="0.5"><polyline points="89.68 287.5 89.68 295.29 115.61 295.29" fill="none" stroke="#e397ff" stroke-miterlimit="10"/><line x1="210.42" y1="125.82" x2="268.12" y2="125.82" fill="none" stroke="#e397ff" stroke-miterlimit="10"/><line x1="94.47" y1="223.06" x2="94.47" y2="183.26" fill="none" stroke="#e397ff" stroke-miterlimit="10"/><line x1="152.21" y1="159.08" x2="152.21" y2="119.27" fill="none" stroke="#e397ff" stroke-miterlimit="10"/><polyline points="286.35 122.81 275.72 112.18 203.99 112.18 192.1 124.06" fill="none" stroke="#e397ff" stroke-miterlimit="10"/><polyline points="355.83 111.33 312.89 111.33 300.8 99.24 329.05 70.99" fill="none" stroke="#e397ff" stroke-miterlimit="10"/><polyline points="324.32 209.14 324.32 160.78 298.63 135.09" fill="none" stroke="#e397ff" stroke-miterlimit="10"/><line x1="210.42" y1="216.98" x2="268.12" y2="216.98" fill="none" stroke="#e397ff" stroke-miterlimit="10"/><polyline points="268.12 228.74 245.96 228.74 234.22 216.98 210.42 216.98" fill="none" stroke="#e397ff" stroke-miterlimit="10"/><polyline points="170.02 137.12 170.02 162.3 151.71 180.61" fill="none" stroke="#e397ff" stroke-miterlimit="10"/><polyline points="161.46 272.87 203.56 272.87 219.67 288.97 311.85 288.97" fill="none" stroke="#e397ff" stroke-miterlimit="10"/><polyline points="311.85 288.97 241.76 288.97 229.55 301.18 209.77 301.18 196.07 285.73 177.3 285.73" fill="none" stroke="#e397ff" stroke-miterlimit="10"/><line x1="231.39" y1="273.05" x2="278.61" y2="273.05" fill="none" stroke="#e397ff" stroke-miterlimit="10"/><polyline points="205.99 257.73 279.44 257.73 300.31 278.6 311.85 278.6" fill="none" stroke="#e397ff" stroke-miterlimit="10"/><polyline points="145.71 274.66 145.71 291.14 163.42 291.14 163.42 304.56" fill="none" stroke="#e397ff" stroke-miterlimit="10"/><polyline points="193.17 258.44 114.36 258.44 114.36 273.11" fill="none" stroke="#e397ff" stroke-miterlimit="10"/><polyline points="296.01 257.23 311.57 257.23 311.57 268.21" fill="none" stroke="#e397ff" stroke-miterlimit="10"/><polyline points="311.41 213.7 311.41 230.41 336.91 230.41 336.91 277.51" fill="none" stroke="#e397ff" stroke-miterlimit="10"/><circle cx="89.68" cy="287.59" r="1.69" fill="#e397ff"/><path d="M115.52,297a1.69,1.69,0,1,0-1.69-1.69A1.68,1.68,0,0,0,115.5,297Z" fill="#e397ff"/><circle cx="210.51" cy="125.82" r="1.69" fill="#e397ff"/><circle cx="268.04" cy="125.82" r="1.69" fill="#e397ff"/><circle cx="94.47" cy="222.98" r="1.69" fill="#e397ff"/><circle cx="94.47" cy="183.34" r="1.69" fill="#e397ff"/><path d="M153.9,159a1.69,1.69,0,1,1-1.69-1.69A1.69,1.69,0,0,1,153.9,159Z" fill="#e397ff"/><circle cx="152.21" cy="119.36" r="1.69" fill="#e397ff"/><path d="M287.49,121.56a1.69,1.69,0,1,1-2.39,0h0A1.69,1.69,0,0,1,287.49,121.56Z" fill="#e397ff"/><circle cx="192.16" cy="124.01" r="1.69" fill="#e397ff"/><path d="M299.89,134a1.69,1.69,0,1,0,0,2.39h0A1.69,1.69,0,0,0,299.89,134Z" fill="#e397ff"/><circle cx="210.51" cy="216.98" r="1.69" fill="#e397ff"/><circle cx="268.04" cy="216.98" r="1.69" fill="#e397ff"/><circle cx="268.04" cy="228.74" r="1.69" fill="#e397ff"/><circle cx="210.51" cy="216.98" r="1.69" fill="#e397ff"/><circle cx="170.02" cy="137.21" r="1.69" fill="#e397ff"/><circle cx="151.77" cy="180.55" r="1.69" fill="#e397ff"/><circle cx="161.55" cy="272.87" r="1.69" fill="#e397ff"/><path d="M311.77,290.67a1.7,1.7,0,1,0-1.69-1.71h0A1.71,1.71,0,0,0,311.77,290.67Z" fill="#e397ff"/><path d="M311.77,287.28a1.7,1.7,0,1,1-1.69,1.71v0a1.69,1.69,0,0,1,1.69-1.69Z" fill="#e397ff"/><circle cx="177.38" cy="285.73" r="1.69" fill="#e397ff"/><path d="M231.48,274.75a1.7,1.7,0,1,1,1.69-1.71h0a1.69,1.69,0,0,1-1.68,1.7Z" fill="#e397ff"/><circle cx="278.52" cy="273.05" r="1.69" fill="#e397ff"/><path d="M206.08,259.42a1.69,1.69,0,1,1,1.69-1.69A1.69,1.69,0,0,1,206.08,259.42Z" fill="#e397ff"/><path d="M311.77,280.29a1.69,1.69,0,1,0-1.69-1.69,1.69,1.69,0,0,0,1.69,1.69Z" fill="#e397ff"/><circle cx="145.71" cy="274.75" r="1.69" fill="#e397ff"/><circle cx="193.08" cy="258.44" r="1.69" fill="#e397ff"/><circle cx="114.36" cy="273.02" r="1.69" fill="#e397ff"/><circle cx="296.09" cy="257.23" r="1.69" fill="#e397ff"/><circle cx="311.57" cy="268.12" r="1.69" fill="#e397ff"/><path d="M309.72,213.79a1.7,1.7,0,1,1,1.71,1.69h0A1.71,1.71,0,0,1,309.72,213.79Z" fill="#e397ff"/></g></g><polygon points="-17.22 215.5 72.25 215.5 97.32 240.57 97.32 313.5 -17.22 313.5 -17.22 215.5" fill="url(#c)"/><polygon points="67.89 264.46 63.4 264.46 60.32 255.43 64.82 255.43 67.89 264.46" fill="#707479" fill-rule="evenodd"/><polygon points="30.96 293.57 34.35 295.18 36.65 292.56 33.26 290.94 30.96 293.57" fill="#7e4183" fill-rule="evenodd"/><path d="M36.27,298.55h1.67v1.53H35.27L29.58,295c.6-.76,1.41-1.81,1.41-1.81L34.51,295Z" fill="#313545" fill-rule="evenodd"/><path d="M49.53,280.71l-14.18,14-3.59-3.23c3.1-3.76,8-12.33,12.48-14.05Z" fill="#313545" fill-rule="evenodd"/><path d="M25,268.4s-1.08,8.47,6,9.43,20.86.61,20.86.61,1.18-6.06-3.17-7.1c-5.49-1.32-12.08-2.21-12.08-2.21Z" fill="#434655" fill-rule="evenodd"/><path d="M29.73,247.68l1.71-5.34,3.76,1.41-.72,5.1c-1.13-1.27-2.83-1.43-4.75-1.17Z" fill="#9c4345" fill-rule="evenodd"/><path d="M33,244a5.36,5.36,0,0,0,1.66,3.23l.15-1.07L35,244.6A3.28,3.28,0,0,1,33,244Z" fill="#843436" fill-rule="evenodd"/><path d="M30,239.23c.51-2.87,3-3.26,5.51-2.72s2.53,2.48,2.3,4.06a2.31,2.31,0,0,0,.66,1.69c.14.38-.49.66-.68.82s0,2.06-.57,2.38c-1.45.86-3.81-.14-3.81-.14C30.84,244,29.47,242.11,30,239.23Z" fill="#9c4345"/><path d="M33.78,241.65l-.25-.82s-1.62,1.91-2.63,3.19c-.75-2-1.53-2.71-1.17-4.79.51-2.87,3.29-3.56,5.75-2.93s.77,1.26-.77,1.36-1.46.94-1.29,1.47,1.38.89,1.21,2.61Z" fill="#220350"/><path d="M32.38,240.27a1.14,1.14,0,0,1,1.31.91,1,1,0,0,1-1.77.93.89.89,0,0,1-.11-.36,1.13,1.13,0,0,1,.57-1.48Z" fill="#9c4345" fill-rule="evenodd"/><rect x="47.57" y="263.56" width="14.06" height="0.89" fill="#909397"/><rect x="16.32" y="264.46" width="57.67" height="1.69" rx="0.84" fill="#fff"/><path d="M38.49,256.45,38,269.37s-4.33,2.09-13.25-.31c-.61-.45-.71-1.25-.13-2.52L24.47,258a21.12,21.12,0,0,1,.71-5.87c.66-2.37,1.85-5,4-5.34a12.47,12.47,0,0,1,5.82.33,7.14,7.14,0,0,1,5.52,6.1Z" fill="#796fbf" fill-rule="evenodd"/><path d="M53.55,261.67s1.2-1.13,2.12-.82c.44.15,1.12.06,1.78.3a5.87,5.87,0,0,1,1.61,1.18,1.14,1.14,0,0,1-.67,1.24c-.29.11-1.32-.56-1.32-.56a7.05,7.05,0,0,1-3.37.79l-2.13-.1-1-1.2Z" fill="#9c4345" fill-rule="evenodd"/><path d="M39.45,250.5l5.78,9,7.33,1a1.32,1.32,0,0,1,1.14,1.31V264l-10,.31-6.57-3.76Z" fill="#796fbf" fill-rule="evenodd"/><polygon points="53.73 298.45 57.14 298.53 53.48 289.37 50.34 290.28 53.73 298.45" fill="#7e4183" fill-rule="evenodd"/><polygon points="57.04 297.83 53.24 297.45 53.24 300.08 61.63 300.08 61.63 299.17 57.04 297.83" fill="#313545" fill-rule="evenodd"/><path d="M51.92,275.19l5.18,21.06-5.38.17c-2.53-6.72-5.25-12.34-5.76-17.9Z" fill="#434655" fill-rule="evenodd"/><path d="M32.08,276.76v18.52a1,1,0,0,1-1,1h0a1,1,0,0,1-1-1V276.76Z" fill="#909397"/><path d="M31.18,286h0a2.49,2.49,0,0,1-2.49-2.48v-3.29a2.51,2.51,0,0,1,2.49-2.49h0a2.49,2.49,0,0,1,2.48,2.49v3.29A2.49,2.49,0,0,1,31.18,286Z" fill="#707479" fill-rule="evenodd"/><circle cx="31.21" cy="298.53" r="1.29" fill="#909397"/><circle cx="38.61" cy="298.53" r="1.29" fill="#909397"/><circle cx="23.8" cy="298.53" r="1.29" fill="#909397"/><path d="M39.68,296.29H22.73a.81.81,0,0,1-.81-.81h0a.82.82,0,0,1,.81-.82h17a.82.82,0,0,1,.82.82h0a.82.82,0,0,1-.83.81Z" fill="#909397"/><path d="M39.1,280.77H23a2.33,2.33,0,0,1-2.34-2.32h0A2.34,2.34,0,0,1,23,276.1H39.1a2.34,2.34,0,0,1,2.34,2.34h0a2.33,2.33,0,0,1-2.33,2.33Z" fill="#fff" fill-rule="evenodd"/><path d="M38.27,262.3,34.76,259v11a7.39,7.39,0,0,0,3.25-.62c.58-.46.78-1,.06-1.83Z" fill="#675fa3" fill-rule="evenodd"/><path d="M71.14,259.31H51.55a1.43,1.43,0,0,1-1.44-1.44v-.06L50.68,245a1.44,1.44,0,0,1,1.44-1.37H71.71a1.43,1.43,0,0,1,1.44,1.44v.06l-.57,12.81A1.44,1.44,0,0,1,71.14,259.31Z" fill="#909397" fill-rule="evenodd"/><polygon points="50.69 245 50.11 257.81 72.58 257.94 73.15 245.13 50.69 245" fill="#fff" fill-rule="evenodd"/><polygon points="69.75 255.8 70.11 247.15 53.52 247.15 53.15 255.8 69.75 255.8" fill="none" stroke="#c1c4eb" stroke-miterlimit="10" stroke-width="0.56"/><line x1="70.06" y1="248.87" x2="53.46" y2="248.87" fill="none" stroke="#c1c4eb" stroke-miterlimit="10" stroke-width="0.56"/><line x1="69.98" y1="250.6" x2="53.38" y2="250.6" fill="none" stroke="#c1c4eb" stroke-miterlimit="10" stroke-width="0.56"/><line x1="69.9" y1="252.34" x2="53.3" y2="252.34" fill="none" stroke="#c1c4eb" stroke-miterlimit="10" stroke-width="0.56"/><line x1="69.82" y1="254.07" x2="53.22" y2="254.07" fill="none" stroke="#c1c4eb" stroke-miterlimit="10" stroke-width="0.56"/><line x1="55.75" y1="247.13" x2="55.36" y2="255.8" fill="none" stroke="#c1c4eb" stroke-miterlimit="10" stroke-width="0.56"/><line x1="57.21" y1="247.13" x2="56.81" y2="255.8" fill="none" stroke="#c1c4eb" stroke-miterlimit="10" stroke-width="0.56"/><line x1="63.6" y1="247.13" x2="63.2" y2="255.8" fill="none" stroke="#c1c4eb" stroke-miterlimit="10" stroke-width="0.56"/><line x1="68.56" y1="247.13" x2="68.17" y2="255.8" fill="none" stroke="#c1c4eb" stroke-miterlimit="10" stroke-width="0.56"/><rect x="196.94" y="144.59" width="80.19" height="59.19" fill="url(#d)"/><path d="M217.41,162.8v5" fill="none" stroke="#b5b5d8" stroke-linecap="round" stroke-linejoin="round" stroke-width="0.83"/><path d="M217.41,168.31l5.79-.59" fill="none" stroke="#b5b5d8" stroke-linecap="round" stroke-linejoin="round" stroke-width="0.83"/><path d="M217.41,163.24l5.78-.23" fill="none" stroke="#b5b5d8" stroke-linecap="round" stroke-linejoin="round" stroke-width="0.83"/><path d="M223.9,163l-.2,3.91" fill="none" stroke="#b5b5d8" stroke-linecap="round" stroke-linejoin="round" stroke-width="0.83"/><path d="M220.76,167.85A16,16,0,0,1,221,172" fill="none" stroke="#b5b5d8" stroke-linecap="round" stroke-linejoin="round" stroke-width="0.83"/><path d="M231.2,184.47l-2.46.18a.54.54,0,0,0-.37.13.62.62,0,0,0-.1.42v1.68a1.81,1.81,0,0,0,.27,1.06c.38.48,1.09.39,1.67.26l1.42-.32a.77.77,0,0,0,.38-.17.68.68,0,0,0,.09-.52l-.16-2.58" fill="none" stroke="#b5b5d8" stroke-linecap="round" stroke-linejoin="round" stroke-width="0.83"/><path d="M232.3,186.27h4" fill="none" stroke="#b5b5d8" stroke-linecap="round" stroke-linejoin="round" stroke-width="0.83"/><path d="M236.93,184.61l-.22,2.75" fill="none" stroke="#b5b5d8" stroke-linecap="round" stroke-linejoin="round" stroke-width="0.83"/><path d="M237,188.06h2.89" fill="none" stroke="#b5b5d8" stroke-linecap="round" stroke-linejoin="round" stroke-width="0.83"/><path d="M236.75,184.16h3.13a.72.72,0,0,1,.53.14.85.85,0,0,1,.13.66l-.29,2.87" fill="none" stroke="#b5b5d8" stroke-linecap="round" stroke-linejoin="round" stroke-width="0.83"/><path d="M240.52,186a9.1,9.1,0,0,0,3.12.2" fill="none" stroke="#b5b5d8" stroke-linecap="round" stroke-linejoin="round" stroke-width="0.83"/><path d="M244.09,183.69v3.68" fill="none" stroke="#b5b5d8" stroke-linecap="round" stroke-linejoin="round" stroke-width="0.83"/><path d="M243.86,188.24l3.78-.22" fill="none" stroke="#b5b5d8" stroke-linecap="round" stroke-linejoin="round" stroke-width="0.83"/><path d="M247.86,187.83a16,16,0,0,1-.22-3.45" fill="none" stroke="#b5b5d8" stroke-linecap="round" stroke-linejoin="round" stroke-width="0.83"/><path d="M247.42,184l-3.33.23" fill="none" stroke="#b5b5d8" stroke-linecap="round" stroke-linejoin="round" stroke-width="0.83"/><path d="M252.53,188.67h7.78" fill="none" stroke="#b5b5d8" stroke-linecap="round" stroke-linejoin="round" stroke-width="0.83"/><path d="M252.53,185.78c2.89-.1,5.79-.07,8.68.09" fill="none" stroke="#b5b5d8" stroke-linecap="round" stroke-linejoin="round" stroke-width="0.83"/><path d="M208.52,164.41h5.11" fill="none" stroke="#b5b5d8" stroke-linecap="round" stroke-linejoin="round" stroke-width="0.83"/><path d="M209.39,166.83l4.25-.18" fill="none" stroke="#b5b5d8" stroke-linecap="round" stroke-linejoin="round" stroke-width="0.83"/><path d="M204.3,155.89q30.78.68,61.57.59" fill="none" stroke="#8786c0" stroke-linecap="round" stroke-linejoin="round" stroke-width="0.83"/><path d="M212,173.36c4.52.12,17.83,0,22.33-.48" fill="none" stroke="#8786c0" stroke-linecap="round" stroke-linejoin="round" stroke-width="0.83"/><path d="M235,169.23l-.22,5.51" fill="none" stroke="#8786c0" stroke-linecap="round" stroke-linejoin="round" stroke-width="0.83"/><path d="M234.75,175.43h5.78" fill="none" stroke="#8786c0" stroke-linecap="round" stroke-linejoin="round" stroke-width="0.83"/><path d="M235,169a16,16,0,0,0,5.78,0" fill="none" stroke="#8786c0" stroke-linecap="round" stroke-linejoin="round" stroke-width="0.83"/><path d="M241.2,169v5.74" fill="none" stroke="#8786c0" stroke-linecap="round" stroke-linejoin="round" stroke-width="0.83"/><path d="M229.86,173.71c-.09,3-.14,6.55-.22,9.58" fill="none" stroke="#8786c0" stroke-linecap="round" stroke-linejoin="round" stroke-width="0.83"/><path d="M212.19,173.13a37.54,37.54,0,0,1-.17,5.51" fill="none" stroke="#8786c0" stroke-linecap="round" stroke-linejoin="round" stroke-width="0.83"/><path d="M208.08,179.33h6" fill="none" stroke="#8786c0" stroke-linecap="round" stroke-linejoin="round" stroke-width="0.83"/><path d="M214.52,179.1a14.25,14.25,0,0,1,.22,3.91" fill="none" stroke="#8786c0" stroke-linecap="round" stroke-linejoin="round" stroke-width="0.83"/><path d="M208,179.22c.08,1.07,0,3.86.12,4.93" fill="none" stroke="#8786c0" stroke-linecap="round" stroke-linejoin="round" stroke-width="0.83"/><path d="M208.07,184.62a11.37,11.37,0,0,0,4.89.19" fill="none" stroke="#8786c0" stroke-linecap="round" stroke-linejoin="round" stroke-width="0.83"/><path d="M252.88,179a8.78,8.78,0,0,0,2.65-2.39,2.19,2.19,0,0,0,.52-1.31c0-.48-.46-1-.91-.85a1.16,1.16,0,0,0-.66.77,4.64,4.64,0,0,0-.45,2.51,2.2,2.2,0,0,0,1.49,1.88,2.37,2.37,0,0,0,1.24-.06,5.47,5.47,0,0,0,3.91-4.85.92.92,0,0,0-.27-.86c-.5-.32-1,.42-1.14,1-.3,1.17-.5,2.67.44,3.39s2,.24,2.95-.18" fill="none" stroke="#8786c0" stroke-linecap="round" stroke-linejoin="round" stroke-width="0.83"/><path d="M221,192.42h7.78" fill="none" stroke="#8786c0" stroke-linecap="round" stroke-linejoin="round" stroke-width="0.83"/><path d="M221,195h6.9" fill="none" stroke="#8786c0" stroke-linecap="round" stroke-linejoin="round" stroke-width="0.83"/><path d="M221,197.77a51.34,51.34,0,0,1,6.68-.14" fill="none" stroke="#8786c0" stroke-linecap="round" stroke-linejoin="round" stroke-width="0.83"/><path d="M217.25,151.8a17.66,17.66,0,0,1,9.07-2.31c.58,0,1.28.15,1.46.71a1.25,1.25,0,0,1-.13.87c-.61,1.34-2.73,2.75-3.59,1.77s5.63-4.41,8.4-3.05c1.39.68-.74,4.89-2.24,3.86s3.12-3.19,4.92-3.59c1.12-.25,2.55-.28,3,.78.78,1.71-3.07,3.23-3.28,2s10.39-2.11,15.2-1.11" fill="none" stroke="#8786c0" stroke-linecap="round" stroke-linejoin="round" stroke-width="0.83"/><path d="M147.15,201.43l2.06,1c-6.06,6.44-6,7.56-9,9.74l-2-4.71Z" fill="#ed6c6c"/><path d="M147.18,201.38l2.64-1.12a2.38,2.38,0,0,1,1.66-.08l2.2.71a1.14,1.14,0,0,1,.75,1.44,1.09,1.09,0,0,1-.19.37h0l-3.39,1.22a3.59,3.59,0,0,1-2.46-.06l-1.38-.51Z" fill="#ed6c6c"/><path d="M138.14,199.85l2.36,7.64c.37.13,1.36,4.7-.78,5.09,0,0-2.2.4-3.08-2.76a73.78,73.78,0,0,1-1.52-8.73Z" fill="#ed6c6c" fill-rule="evenodd"/><path d="M134.32,192.87s2.6,3,4.64,9.63l-4,2.29Z" fill="#e8e8e8" fill-rule="evenodd"/><circle cx="128.99" cy="242.22" r="1.29" fill="#b3b7e7"/><circle cx="136.38" cy="242.22" r="1.29" fill="#b3b7e7"/><circle cx="121.6" cy="242.22" r="1.29" fill="#b3b7e7"/><path d="M128.85,238.61h0a1,1,0,0,1-1-1V219.12a1,1,0,0,1,1-1h0a1,1,0,0,1,1,1V237.6a1,1,0,0,1-1,1Z" fill="#b3b7e7"/><path d="M129,229.24h0a2.49,2.49,0,0,1-2.48-2.48v-3.28A2.48,2.48,0,0,1,129,221h0a2.49,2.49,0,0,1,2.48,2.48v3.28A2.49,2.49,0,0,1,129,229.24Z" fill="#989dde" fill-rule="evenodd"/><path d="M137.45,239.69H120.53a.82.82,0,0,1-.81-.82h0a.81.81,0,0,1,.81-.81h16.92a.81.81,0,0,1,.81.81h0A.82.82,0,0,1,137.45,239.69Z" fill="#b3b7e7"/><path d="M121.24,225.67H138a2.81,2.81,0,0,0,2.82-2.8h0A2.82,2.82,0,0,0,138,220h-16.8a2.82,2.82,0,0,0-2.82,2.82h0a2.81,2.81,0,0,0,2.77,2.85Z" fill="#089cef"/><rect x="115.57" y="195.89" width="15.75" height="20.45" rx="3.34" fill="#089cef"/><polygon points="148.51 241.87 151.92 241.96 151.28 231.75 148.02 231.65 148.51 241.87" fill="#ed6c6c" fill-rule="evenodd"/><polygon points="151.81 241.26 148.25 240.88 148.02 243.51 156.4 243.51 156.4 242.6 151.81 241.26" fill="#220350" fill-rule="evenodd"/><path d="M134.93,214.64l13.76,1.52a3.9,3.9,0,0,1,3.62,3.72l.35,19.54-5.37-.15-1.83-17.52-14-1.77Z" fill="#95899b" fill-rule="evenodd"/><path d="M135.08,209.86c-4.61,1.36-9.82.48-12.71-1.65,0,0-.49,4-.65,5.4a6.13,6.13,0,0,1-.11.86v.05c-.46,3,1.57,5.74,4.26,5.77l9.4.08a9.47,9.47,0,0,0,1.35-3.89C136.71,215.54,135.59,211.6,135.08,209.86Z" fill="#a0a3a5"/><path d="M133.53,182.25s3.37,1.6,1.4,3.95-1.85-3.95-1.85-3.95Z" fill="#220350" fill-rule="evenodd"/><polygon points="126.49 192.7 129.59 187.4 132.68 188.78 131.57 194.28 126.49 192.7 126.49 192.7" fill="#d66464" fill-rule="evenodd"/><path d="M134.87,185.08a3.09,3.09,0,0,0-1.05-2.18,3,3,0,0,0-2.31-.74h0a3.07,3.07,0,0,0-2.77,3.18c0,.94.08,2,.11,2.85a3.74,3.74,0,0,0,.89,2.1,8.24,8.24,0,0,0,3.2,1.06c1.19-.11,2.08-2.38,2-3.58,0-.82-.08-1.78-.11-2.69Z" fill="#ed6c6c" fill-rule="evenodd"/><path d="M134.09,181.09c-2-1-6.77-.3-6.4,3.15a24.39,24.39,0,0,0,1.12,3.95,15.88,15.88,0,0,0,1.8-4.29h3.48a1.75,1.75,0,0,0,1.88-1.39s-.24.18-1,0l.62-.53Z" fill="#220350" fill-rule="evenodd"/><path d="M132.1,191.68c-1.33,2-4.5.19-5-.52a6.82,6.82,0,0,0-1.66.84c-2.79,1.92-3.15,10.18-3.65,13.15-.23,1.39-1.53,6-.84,7.25.23.4,2.41.1,2.84.17,1.81.33,10,1,11.08-.29s.48-7.25.7-8.72c1.12-7.71-1.23-10.69-1.23-10.69Z" fill="#e8e8e8" fill-rule="evenodd"/><path d="M128.86,185.59a.87.87,0,0,1,.95.74c.13.51,0,1.55-.36,1.65s-.95-.78-1.08-1.29A.86.86,0,0,1,128.86,185.59Z" fill="#ed6c6c" fill-rule="evenodd"/><polygon points="133.97 241.87 137.38 241.96 141.26 231.75 138 231.65 133.97 241.87" fill="#ed6c6c" fill-rule="evenodd"/><polygon points="137.27 241.26 133.71 240.88 133.48 243.51 141.86 243.51 141.86 242.6 137.27 241.26" fill="#220350" fill-rule="evenodd"/><path d="M138,224.76l-13.41-4.69.72-2.4,8.51-2.12,7.91,3.95c1.72.76,3.25,3.43,2.33,5.36l-5,14.56-5.36-.15Z" fill="#a0a3a5" fill-rule="evenodd"/><path d="M130.9,214.64l3.57,1.9s2.35,2.35.74,3.23-2.08-.41-2.37-.78-1.66-.28-3-2.81Z" fill="#ed6c6c" fill-rule="evenodd"/><path d="M131.12,217.28l.32-2.39-9.33-4.52.15-9.09-5,2.18v7a4.83,4.83,0,0,0,2.35,4.15Z" fill="#ed6c6c" fill-rule="evenodd"/><path d="M125.42,192s-8.53,2.48-8.82,12.79h7.52Z" fill="#e8e8e8" fill-rule="evenodd"/><path d="M154.81,208.93h16.1l4.86-10.83H160a.56.56,0,0,0-.52.34Z" fill="#fff" fill-rule="evenodd"/><path d="M155.44,208.93h16.1l4.63-10.33a.36.36,0,0,0-.17-.47.37.37,0,0,0-.15,0H160.52a.35.35,0,0,0-.32.21Z" fill="#b3b7e7" fill-rule="evenodd"/><path d="M165.33,203.58c-.19.68.33,1.22,1.17,1.22a2,2,0,0,0,1.86-1.22c.19-.67-.33-1.22-1.17-1.22A2,2,0,0,0,165.33,203.58Z" fill="#fff" fill-rule="evenodd"/><path d="M170.91,208.93H145.83a.86.86,0,0,0-.84.84h0a.86.86,0,0,0,.84.84h25.08Z" fill="#b3b7e7" fill-rule="evenodd"/><path d="M128.17,211.93H176.3a.85.85,0,0,0,.84-.84h0a.83.83,0,0,0-.82-.84H128.17a.83.83,0,0,0-.84.82v0h0A.85.85,0,0,0,128.17,211.93Z" fill="#fff" fill-rule="evenodd"/><path d="M269.6,168.94a21.06,21.06,0,0,0-2.38.11c-1.34.14-3.42-1-4-1.38a2.15,2.15,0,0,1,0-.62V167a2.23,2.23,0,0,1,.24-.49,12.37,12.37,0,0,0,2.65.07s-1.15-.45-1.2-.84l.11-.24s1.3.35,1.89.45a9.83,9.83,0,0,1,2.47.77S270.56,168.52,269.6,168.94Z" fill="#9c4345"/><path d="M270.46,180.63c.73,3.35,5.31,2.17,4-1.7-1.65-4.84-4.77-11.83-4.77-11.83l-1.58,1.71C267.8,168.18,268.58,172.08,270.46,180.63Z" fill="#9c4345"/><path d="M282.08,173.32s-10.15,3.44-10.92,7.37c-.88,4.52,9.33,2.16,11.07-1.63C283.75,175.76,284.34,173.18,282.08,173.32Z" fill="#fff"/><path d="M295.71,173.22s8.09,5.88,11.91,13.81a1.5,1.5,0,0,1-.17,1.42c-.87,1.1-2.55,1.64-10,4.17-.47.15-.37,1.7-.51,3a.67.67,0,0,1-.75.58.66.66,0,0,1-.58-.58l-.46-3.29a34.76,34.76,0,0,1,8.51-5.32s-5.16-4.24-9.53-7.43C292,178.05,293.38,172.11,295.71,173.22Z" fill="#9c4345"/><path d="M295.27,241.9v-.82a15.74,15.74,0,0,1,.07-2.17,92.26,92.26,0,0,0,.93-15.22c-.29-7.32.08-6.21.12-9.55.08-7.22.24-14.95-1.06-19.22a22,22,0,0,1-1.19-7.72s-1.88,2.85-7.15,2.77c0,0-.27,8,1.68,8.89,0,0,.66,11.91.88,15s1.57,10.8,2,13.68,1.72,11.19,1.22,13.59a2.07,2.07,0,0,1-.75.83,6.85,6.85,0,0,1-.7.5" fill="#9c4345"/><path d="M289.21,243.48c-.8-.32,0-.7,0-.7A7.75,7.75,0,0,0,292,242a7.51,7.51,0,0,0,3.28-.89c0,.38,0,1.86.06,2.33Z" fill="#3b2645"/><path d="M287.17,188.85a1.82,1.82,0,0,0,.05.34A.78.78,0,0,0,287.17,188.85Z" fill="#9c4345"/><path d="M289.42,196a34.5,34.5,0,0,1-2.2-6.74c-.05.49-.65,1.28-4.4.68,0,0-3.92,9.23-3.62,23.78.07,3.11-1,10.84-1,13.75s-.45,11.53-.41,11.55a5.69,5.69,0,0,1-.48,2.07,2.72,2.72,0,0,1-.87.71c-.69.41-1.35.78-.61,1.22s3.82.1,3.86-.35.08-.9.13-1.28a17.19,17.19,0,0,1,.41-2.14,93,93,0,0,0,3.27-14.92c.85-7.28,1.9-6.52,2.43-9.82C287.86,202.46,290.49,198.6,289.42,196Z" fill="#9c4345"/><path d="M276.41,241.81a7.34,7.34,0,0,0,3.38-.41l.08,2h-6.13c-.74-.44.08-.7.08-.7Z" fill="#3b2645"/><path d="M294.06,188.88c-6.44,3.25-11.24,1-11.24,1s-.35-7.53-.95-9.22a6.23,6.23,0,0,1-.22-1.77,43.55,43.55,0,0,1,.43-5.59,6.44,6.44,0,0,1,1.92-.57l.35-.06c1.09-.16,2.09-.21,2.09-.21l.11-1.17.08-.8.13-1.28c.16-1.71,3.65-1,3.65-1v4.18a8.43,8.43,0,0,0,1.74.19h.31a9.32,9.32,0,0,1,2.77.48C296,173.64,293.64,187,294.06,188.88Z" fill="#9c4345"/><path d="M290.41,168.7V170a5.58,5.58,0,0,1-3.86,1.36l.08-.8.13-1.28C287.48,168.3,289.67,168.58,290.41,168.7Z" fill="#753233"/><path d="M285.3,162.78a5.4,5.4,0,0,0-.53,2.68c-.11,3.53,1.59,4.82,2.74,4.82a3.89,3.89,0,0,0,4.07-3.7v-.06a8,8,0,0,0-.19-3.85C290.6,160.9,287,160.45,285.3,162.78Z" fill="#9c4345"/><path d="M282.82,189.9s-4.42,5.24-4.06,27.49c0,0-.71,6.27-.92,10.37,0,0,10.06,2.34,19.05-.35,0,0-.26-5.42-.13-9.53s.93-19.41-2.55-28A27.5,27.5,0,0,1,282.82,189.9Z" fill="#220350"/><path d="M295.71,173.22a39,39,0,0,1-.34,6.3c-.46,3-.74,3.65-.46,5.67a12,12,0,0,1-.7,4.71s-5.91,2.41-11.39,0c0,0-.93-3.18-.66-4.39a6.67,6.67,0,0,0-.51-3.79c-.49-1.27-1.13-3.24-.48-4.64a8.83,8.83,0,0,0,.48-3.57S289.1,171,295.71,173.22Z" fill="#fff"/><path d="M295.24,172.86a25.22,25.22,0,0,1,8,6.51c3.45,4.35,3.51,5.41,4.73,6.16s-1.77,2.53-4.37,1.5-8.84-6.75-8.84-6.75S292.46,172.88,295.24,172.86Z" fill="#fff"/><path d="M282.38,174.37h-.05a5,5,0,0,0-.65,1.75c-.25.78-.58,1.53-.85,2.3,0,.1.11.16.16.07a17.46,17.46,0,0,0,.9-2.15A4,4,0,0,0,282.38,174.37Z" fill="#b8c3e3"/><path d="M294.75,175.91a11,11,0,0,0-.09-1.81h0a6.87,6.87,0,0,0,.14,3.94c0,.11.22.09.21,0C294.91,177.31,294.79,176.62,294.75,175.91Z" fill="#b8c3e3"/><path d="M291.91,168.75a5.36,5.36,0,0,0,1.21-4.78,5,5,0,0,0-3.49-2.88,4.69,4.69,0,0,0-4.33,1.44,2.86,2.86,0,0,0-.51,1.9c0,1.47,2.28,1.67,3.24,3.75a2.68,2.68,0,0,0,2.76,1.78Z" fill="#220350"/><path d="M292.48,165.92c.41.72-.27.93-.24,1.86s.8.81.64,1.41-.63,1.66-.4,2.32.93.57.88,1-.88,1.2-.82,1.65-.07,2.36,3.09,2.35c1.88,0,1.83-1.33,1.86-2.14a2.27,2.27,0,0,0-1-1.86c-.29-.33.24-.92.3-1.46s-.76-1-1-1.57.23-1.29.17-1.72-1-1-.83-1.86c.29-1.93-1.95-2.46-2.9-1.73S292.48,165.92,292.48,165.92Z" fill="#220350"/><path d="M285.89,165.82s.56-1.46,1.43-.69-.33,2.86-1.66,2.7C285.66,167.83,285.47,166.32,285.89,165.82Z" fill="#9c4345"/><polygon points="185.05 241.81 188.61 241.89 188.07 233.24 184.81 234.19 185.05 241.81" fill="#7e4183" fill-rule="evenodd"/><polygon points="188.5 241.16 184.54 240.76 184.54 243.51 193.28 243.51 193.28 242.56 188.5 241.16" fill="#220350" fill-rule="evenodd"/><polygon points="196.88 241.81 200.43 241.89 199.9 233.24 196.63 234.19 196.88 241.81" fill="#7e4183" fill-rule="evenodd"/><polygon points="200.33 241.16 196.37 240.76 196.37 243.51 205.11 243.51 205.11 242.56 200.33 241.16" fill="#220350" fill-rule="evenodd"/><path d="M199.78,171.68s2.49-.42,5.31,13.39l-4.11-.16S199,175.86,199.78,171.68Z" fill="#220350"/><path d="M196,240.3s-.8-32.59-1-34.39c-.26-2.7-.76-3.3-1.11-3.19s-.59.49-1,2.81c-.46,2.58-3.87,34.77-3.87,34.77l-4.87.11s.62-17.52.83-21.45c.17-3.24.31-6,.43-8.3.58-11.44.74-16.57.74-16.57l14.79.37s.61,8.37.61,10.4c0,12.65-.49,35.55-.49,35.55Z" fill="#95899b"/><path d="M183.65,173.42a.27.27,0,0,0,.09.22,38.11,38.11,0,0,1,2.3,7.46c.26,1.6.15,13,.15,13,5.67,1.55,14.79.37,14.79.37s.06-9.71-1-22.31l-3.68-.55-1.83-.27.48-1.69.68-1.63a5.84,5.84,0,0,1-4.69-1.15,5.46,5.46,0,0,1-.1,1.07c0,.31-1.07,3.51-1.07,3.51a6.13,6.13,0,0,0-1.3.09,12.24,12.24,0,0,0-4.7,1.51.27.27,0,0,0-.08.07A.29.29,0,0,0,183.65,173.42Z" fill="#ff967f"/><path d="M180.35,201.23s.07.79.05,1.79-.08,3.17.27,3.82a1.78,1.78,0,0,0,.26.22l.08.05a1.91,1.91,0,0,0,.65.25h.06a2.29,2.29,0,0,0,.64,0h.06a2.49,2.49,0,0,0,.58-.2,13,13,0,0,1,.27-2.92s.35,1.33.76,1.43l.28-.08s-.2-1.47-.23-2.14a4.15,4.15,0,0,0-1.4-2.69S180.94,200.22,180.35,201.23Z" fill="#ff967f"/><path d="M186.2,178.87c-.21.66-.47,1.52-.76,2.49-.94,3.11-2.13,7.26-2.33,8.53s-.19,7.59-.17,10.12v1.07a2.27,2.27,0,0,1-2.55,1s-.11-.52-.27-1.37a55.72,55.72,0,0,1-1.19-10.85,87.41,87.41,0,0,1,2.57-11.65,21.3,21.3,0,0,1,1.63-4.53,2.17,2.17,0,0,1,1.6-.92C187,172.57,187,176.46,186.2,178.87Z" fill="#ea7972"/><path d="M195.36,163c.2-.1.57-.13.72.08a.05.05,0,0,1,0,.08h0c-.1,0-.19,0-.29-.06a.86.86,0,0,0-.32,0C195.33,163.17,195.27,163,195.36,163Z" fill="#3b2645"/><path d="M192.4,163.23c.11-.29.61-.32.82-.14a.08.08,0,0,1,0,.11l0,0h-.39a1.58,1.58,0,0,0-.31.09C192.44,163.34,192.37,163.28,192.4,163.23Z" fill="#3b2645"/><path d="M182.36,207.36h.06a21.47,21.47,0,0,1,.07-3h0A7.23,7.23,0,0,0,182.36,207.36Z" fill="#753233"/><path d="M181.66,207.36h.06a21.47,21.47,0,0,1,.07-3h0A7.06,7.06,0,0,0,181.66,207.36Z" fill="#753233"/><path d="M180.93,207.06l.08.05a24.15,24.15,0,0,1,.08-2.82h0A6.82,6.82,0,0,0,180.93,207.06Z" fill="#753233"/><path d="M195,169.64c-3.6.76-3.89-1.1-4.11-1.71a5.46,5.46,0,0,0,.1-1.07,5.84,5.84,0,0,0,4.69,1.15Z" fill="#ea7972"/><path d="M197.12,165.15s.33-4.23-.72-4.77c-2.5-1.29-7.58-.68-7,3.2.46,2.76.87,2,.87,2S196.91,165.5,197.12,165.15Z" fill="#9c4345"/><path d="M196.61,162.09a4.27,4.27,0,0,1,.48,2.48c.11,3.25-.87,4.26-2.53,4.44s-3.39-.46-3.75-3.47c-.18-1.51-.37-2.9.18-3.55C191.8,161,195.33,160.76,196.61,162.09Z" fill="#ff967f"/><path d="M195.23,160.83a2.91,2.91,0,0,1-2.73,1.58h-.4v2.67H191v-.58h-.7s-.94-3.12,2-3.91C194.59,160,195.23,160.83,195.23,160.83Z" fill="#9c4345"/><path d="M191,165.1s-.51-1.34-1.31-.63.31,2.75,1.53,2.6C191.26,167.07,191.43,165.56,191,165.1Z" fill="#ff967f"/><path d="M190.1,165.08a1.08,1.08,0,0,1,.49.32,1.47,1.47,0,0,1,.36.46s-.06.08-.09,0a1.94,1.94,0,0,0-.29-.32.71.71,0,0,1-.23.19.1.1,0,0,1-.1-.13.58.58,0,0,1,.2-.18,2.82,2.82,0,0,1-.39-.29A0,0,0,0,1,190.1,165.08Z" fill="#d66464"/><path d="M189.78,171.44c-3.05.13-5.73,1.18-6,1.6a.27.27,0,0,0-.08.07v.53a38.11,38.11,0,0,1,2.3,7.46c.26,1.6.15,13,.15,13,5.67,1.55,14.79.37,14.79.37s.06-9.71-1-22.31l-5.51-.82-1.69,2.4Z" fill="#e8e8e8"/><path d="M195,171.18s0,8.08.71,14.12c.1.86.21,2.28.32,3.89.29,4.27.59,10.23.59,10.23s4.1.27,5.67-.69L201,181.59a66.12,66.12,0,0,1-.74-9.63c0-.55-3.12-.59-4.48-.72Z" fill="#402678"/><path d="M195,171.18s0,8.08.71,14.12c.1.86.21,2.28.32,3.89l1.49-13.7-1.47-1.1,1.47-.41s-1.37-2.31-1.72-2.74Z" fill="#220350"/><path d="M178.84,193.68c.3,3.52,1,7.56,1,7.56,3,.34,3.36-.64,3.36-.64s.09-9.84.15-10.94,2.42-8.82,2.42-8.82c.44,1.32-.19,17.7-.19,17.7,1.95.82,5.78.5,5.78.5,0-3.75-.1-7.32-.29-10.58a145.58,145.58,0,0,0-2-17.28l-.76.17c-1,.23-2.69.65-3.92,1.08-1.47.51-2.16,2.51-2.72,4.64-.42,1.56-1.59,6-2.32,9.52-.27,1.29-.48,2.46-.57,3.33A21.47,21.47,0,0,0,178.84,193.68Z" fill="#402678"/><path d="M188.4,174.39l-1.68,1,4.38,13.12a145.58,145.58,0,0,0-2-17.28l-.76.17L186.76,174Z" fill="#220350"/><path d="M205.63,188.89a3.23,3.23,0,0,1-2.7,3.07,3.79,3.79,0,0,1-3.33-1.82s1.45-.56,1.57-1.63C201.17,188.51,205.25,187.82,205.63,188.89Z" fill="#220350"/><path d="M199.6,190.14a16.66,16.66,0,0,1-3.58-.54c-.94-.41-1.06-.78-1.06-.78h6.13S201.25,189.65,199.6,190.14Z" fill="#ea7972"/><path d="M194.46,188.82h12.36a.72.72,0,0,0,.65-.48l2.7-8a.36.36,0,0,0-.15-.46.51.51,0,0,0-.17,0H197.49a.76.76,0,0,0-.66.49l-2.7,8a.34.34,0,0,0,.17.45A.41.41,0,0,0,194.46,188.82Z" fill="#dadeea"/><path d="M188.55,188.82h6.81a.53.53,0,1,0,0-1.06h-6.81a.53.53,0,0,0,0,1.06Z" fill="#fff"/><path d="M178.84,193.68a3.9,3.9,0,0,0,2-3.54,5,5,0,0,0-1.51-3.55c-.27,1.29-.48,2.46-.57,3.33A22.5,22.5,0,0,0,178.84,193.68Z" fill="#220350"/><path d="M203,184.35a.6.6,0,0,0-.27-.79.67.67,0,0,0-.28-.06,1.29,1.29,0,0,0-1.13.85.58.58,0,0,0,.26.78.52.52,0,0,0,.3.06A1.26,1.26,0,0,0,203,184.35Z" fill="#fff"/><line x1="307.75" y1="244.1" x2="113.23" y2="244.1" fill="none" stroke="#fff" stroke-miterlimit="10"/><circle cx="307.67" cy="244.1" r="1.69" fill="#fff"/><circle cx="113.31" cy="244.1" r="1.69" fill="#fff"/><path d="M-12.74,215.5h85L189.82,97.93A20,20,0,0,1,204,92.07h63.7a20,20,0,0,0,14.14-5.86l57.29-57.29" fill="none" stroke="#fff" stroke-miterlimit="10" stroke-width="2"/></svg>