<svg xmlns="http://www.w3.org/2000/svg" xmlns:xlink="http://www.w3.org/1999/xlink" width="320" height="300" viewBox="0 0 320 300"><defs><linearGradient id="a" x1="315.29" y1="414.43" x2="-9.67" y2="89.47" gradientUnits="userSpaceOnUse"><stop offset="0" stop-color="#aeb4b4"/><stop offset="1" stop-color="#41474f"/></linearGradient><clipPath id="b"><rect x="443.97" y="-0.17" width="320.26" height="300.17" fill="none"/></clipPath><linearGradient id="c" x1="912.61" y1="234.83" x2="179.78" y2="234.83" xlink:href="#a"/><clipPath id="d"><rect x="122.85" y="240.85" width="288.93" height="82.25" fill="none"/></clipPath><linearGradient id="e" x1="105.14" y1="278.18" x2="437.22" y2="278.18" gradientUnits="userSpaceOnUse"><stop offset="0" stop-color="#00b7ff"/><stop offset="1" stop-color="#490051"/></linearGradient></defs><g style="isolation:isolate"><polygon points="309.08 163.58 151.93 163.58 87.79 227.72 38.57 227.72 38.57 291.64 311 291.64 309.08 163.58" fill="#3f4b5e" stroke="#3f4b5e" stroke-miterlimit="10" stroke-width="2" style="mix-blend-mode:multiply"/><polygon points="-103.39 227.64 -103.39 302.44 371 302.44 371 163.45 161.99 163.45 97.79 227.64 -103.39 227.64" fill="url(#a)"/><g style="mix-blend-mode:multiply"><polyline points="304.09 163.48 304.6 206.04 289 221.69 289 255.48" fill="none" stroke="#9e908c" stroke-miterlimit="10"/><polyline points="202.05 163.48 201.72 194.1 215.34 208.85 215.34 216.54 224.95 226.15 257.42 225.99 257.42 255.22" fill="none" stroke="#9e908c" stroke-miterlimit="10"/><line x1="224.77" y1="226.02" x2="224.77" y2="255.37" fill="none" stroke="#9e908c" stroke-miterlimit="10"/><polyline points="288.78 221.79 262.51 221.79 257.5 226.02" fill="none" stroke="#9e908c" stroke-miterlimit="10"/><line x1="304.51" y1="206.2" x2="379.02" y2="206.2" fill="none" stroke="#9e908c" stroke-miterlimit="10"/><polyline points="157.33 168.1 157.33 238.81 178.17 264.98" fill="none" stroke="#9e908c" stroke-miterlimit="10"/><line x1="177.78" y1="284.47" x2="107.25" y2="284.47" fill="none" stroke="#9e908c" stroke-miterlimit="10"/><polyline points="127.05 202.86 127.05 238.82 107.13 258.5 107.13 299.38" fill="none" stroke="#9e908c" stroke-miterlimit="10"/><line x1="157.24" y1="216.45" x2="215.33" y2="216.45" fill="none" stroke="#9e908c" stroke-miterlimit="10"/><line x1="157.24" y1="238.94" x2="126.85" y2="238.94" fill="none" stroke="#9e908c" stroke-miterlimit="10"/><polyline points="106.86 258.48 81.31 258.48 81.31 285.86 64.94 299.89" fill="none" stroke="#9e908c" stroke-miterlimit="10"/><polyline points="28.7 227.64 28.7 285.03 39.45 299.91" fill="none" stroke="#9e908c" stroke-miterlimit="10"/><polyline points="81.23 258.48 64.28 240.61 28.78 240.61 28.73 251.08 -20.94 251.29 -33.86 233.13" fill="none" stroke="#9e908c" stroke-miterlimit="10"/></g><polyline points="-101.43 227.61 97.79 227.61 161.93 163.48 369.08 163.48" fill="none" stroke="#3b3d5f" stroke-miterlimit="10" stroke-width="2"/><g clip-path="url(#b)"><polygon points="261.35 203.9 585.7 203.9 645.03 144.67 985.23 144.67 985.23 324.99 261.42 324.99 261.35 203.9" fill="url(#c)"/><g style="mix-blend-mode:multiply"><line x1="422.34" y1="259.27" x2="314.84" y2="259.27" fill="none" stroke="#9e908c" stroke-miterlimit="10"/></g><polyline points="261.38 203.9 585.7 204 645.03 144.67 985.23 144.67" fill="none" stroke="#3b3d5f" stroke-miterlimit="10" stroke-width="2"/></g><path d="M257.44,99.15a2.53,2.53,0,0,0,2.79.7c1.38-.5,3.74-1.79,7.43-5,.11-.1.23-.19.34-.3s2.39-4.7-.18-8.46a.38.38,0,0,0-.54-.09c-.23.18-.58.48-1.08.93-1.18,1-3.16,3-6.18,6.23,0,0-1.72-7.07-2.58-10.15-.09-.37-.18-.67-.25-.91l-2.69.63s0,.34-.06.93C254.31,86.51,254.18,95.43,257.44,99.15Z" fill="#a73c42"/><path d="M257.19,82.06s-1.59,1.4-2.69.63a6.72,6.72,0,0,0-.61-2.09c-.5-1-1.68-3.13-1.63-4a1.65,1.65,0,0,1,.13-.45,1.35,1.35,0,0,1,.18-.33,1.24,1.24,0,0,1,.39-.4,1.38,1.38,0,0,1,.24-.14,1.92,1.92,0,0,1,.46-.13l.29,0h.11a.51.51,0,0,1,.46.3,13.49,13.49,0,0,0,1.59,2.65s-.29-1.56.09-1.87l.34,0a14.28,14.28,0,0,0,.67,2.77A4.63,4.63,0,0,1,257.19,82.06Z" fill="#a73c42"/><path d="M255.35,77.93s0,0,0,0a7,7,0,0,1-1.67-2.76l.29,0A10.56,10.56,0,0,0,255.35,77.93Z" fill="#7e2d31"/><path d="M254.69,78.33s0,0,0,0a6.93,6.93,0,0,1-1.7-2.89,1.38,1.38,0,0,1,.24-.14A10.57,10.57,0,0,0,254.69,78.33Z" fill="#7e2d31"/><path d="M254,78.76s0,0,0,0a7,7,0,0,1-1.6-2.59,1.35,1.35,0,0,1,.18-.33A10.51,10.51,0,0,0,254,78.76Z" fill="#7e2d31"/><path d="M256,78.35c-.44.3-.45,1.22-.3,1.67,0,.06.13.06.13,0a4.2,4.2,0,0,1,0-.87,4.08,4.08,0,0,0,.17-.77S256.05,78.34,256,78.35Z" fill="#7e2d31"/><path d="M272.28,77.78s-.11-4.68,1.11-5.31c2.89-1.49,8.73.74,8,3.9s-1,2.27-1,2.27S272.52,78.19,272.28,77.78Z" fill="#3f2447"/><path d="M272.94,77.16a.9.9,0,0,0-1.45,0c-.72.87.51,2.53,1.45,2.61A20.42,20.42,0,0,0,272.94,77.16Z" fill="#7e2d31"/><path d="M268.46,104.34s7.21,1.81,13.76,0c0,0,1.15-6.37,1.45-8.22a45.3,45.3,0,0,1,2.77-8.88.35.35,0,0,0-.15-.43,13.89,13.89,0,0,0-5-1.7,14.8,14.8,0,0,0-2-.16s0-.45,0-1.1c0-.44,0-1,.06-1.51a19.27,19.27,0,0,1,.23-2.18,6.74,6.74,0,0,1-5.44,1.33L274,83.82v0l-.09,1s-1.17,0-2.54.11a10,10,0,0,0-3.83.84C264.5,87.73,268.46,104.34,268.46,104.34Z" fill="#7e2d31"/><path d="M273.11,74.65c-.48.5-.52,1.62-.56,2.86-.12,3.76,1,4.94,2.92,5.14s3.93-.53,4.34-4c.21-1.75.43-3.36-.2-4.11C278.66,73.41,274.58,73.11,273.11,74.65Z" fill="#a73c42"/><path d="M279.55,78.13s.58-1.55,1.51-.73-.35,3.18-1.77,3C279.29,80.4,279.09,78.67,279.55,78.13Z" fill="#a73c42"/><path d="M290.25,119.41s-.08.91-.06,2.06.1,3.68-.31,4.42a1.29,1.29,0,0,1-.3.26.21.21,0,0,1-.1.06,1.88,1.88,0,0,1-.74.29h-.07a2.07,2.07,0,0,1-.74,0h-.07a3.56,3.56,0,0,1-.67-.23,16,16,0,0,0-.32-3.38s-.4,1.53-.88,1.66l-.32-.1s.23-1.71.27-2.47a4.77,4.77,0,0,1,1.61-3.12S289.58,118.24,290.25,119.41Z" fill="#a73c42"/><path d="M283.48,93.55c.24.75.55,1.76.89,2.87,1.09,3.6,2.46,8.4,2.69,9.87s.22,8.78.2,11.71c0,.76,0,1.23,0,1.23.87,1.69,2.95,1.14,2.95,1.14s.13-.6.32-1.59c.54-2.83,1.56-8.8,1.37-12.54a99.84,99.84,0,0,0-3-13.49A23.92,23.92,0,0,0,287,87.52a2.53,2.53,0,0,0-1.84-1.07C282.55,86.25,282.59,90.75,283.48,93.55Z" fill="#a73c42"/><path d="M280.63,78.11a1.34,1.34,0,0,0-.57.37,1.6,1.6,0,0,0-.41.52.07.07,0,0,0,.11.07c.12-.12.21-.25.33-.37a.68.68,0,0,0,.27.21c.08,0,.15-.07.11-.14a.58.58,0,0,0-.23-.21,4.07,4.07,0,0,0,.45-.34A.07.07,0,0,0,280.63,78.11Z" fill="#7e2d31"/><path d="M287.93,126.49h-.07a26.58,26.58,0,0,0-.08-3.45,0,0,0,0,1,0,0A8.29,8.29,0,0,1,287.93,126.49Z" fill="#7e2d31"/><path d="M288.74,126.5h-.07a26.39,26.39,0,0,0-.08-3.44s0,0,0,0A8.14,8.14,0,0,1,288.74,126.5Z" fill="#7e2d31"/><path d="M289.58,126.15a.21.21,0,0,1-.1.06,27.4,27.4,0,0,0-.08-3.26s0,0,0,0A7.9,7.9,0,0,1,289.58,126.15Z" fill="#7e2d31"/><polygon points="282 161.53 278.69 161.61 278.62 155.34 281.78 155.25 282 161.53" fill="#b2b5ea" fill-rule="evenodd"/><polygon points="278.79 160.93 282.26 160.56 282.48 163.12 274.33 163.12 274.33 162.24 278.79 160.93" fill="#270054" fill-rule="evenodd"/><polygon points="270.02 161.53 266.71 161.61 265.57 155.01 268.74 154.92 270.02 161.53" fill="#b2b5ea" fill-rule="evenodd"/><polygon points="266.81 160.93 270.28 160.56 270.5 163.12 262.36 163.12 262.36 162.24 266.81 160.93" fill="#270054" fill-rule="evenodd"/><path d="M278.05,159.89l-3.43-38.38-5.19,18.36a2.66,2.66,0,0,0-.08.69L271,159.89h-5.16L262.69,140a3.13,3.13,0,0,1,0-.53l3.72-28.66s6.67.65,17.85,6l-1.6,43.15Z" fill="#270054"/><path d="M254.44,83.62c2.26.37,3-.65,3-.65,1.24,2.4,2.69,9.68,2.69,9.68l1.57-2s4.38-4.81,6-5.38,6.17-.46,6.17-.46l.09-1v0a3.29,3.29,0,0,1,2.42,1.08c.53-.6,2.42-1,2.94-1.05,0,.65,0,1.1,0,1.1.38,0,7.28-.07,8.72,3.46a46,46,0,0,1,2.19,7.32s2.58,8.63,2.21,11.7-1.91,11.7-1.91,11.7a3.26,3.26,0,0,1-3.29-1.13l-.8-11.07-2.79-10.8c0,.12-.27,12.28.57,20.61,0,.06,0,.11-.1.17-.38.51-2,2.08-8,3.17l-1.52-3-1.61,3s-5.18-2-6.78-5a.77.77,0,0,1-.26-.62c1.17-14.43.71-18.5.71-18.5l-2.4,2.14a8.11,8.11,0,0,1-.79.7l-.08.07h0a5.13,5.13,0,0,1-4.44,1.14s-3-.1-4.24-5.87A27.79,27.79,0,0,1,254.44,83.62Z" fill="#d8e0ff"/><path d="M284.56,115.71l-.89-19.59a38.65,38.65,0,0,1-1.26-11L280.69,85l-.53,0-5.48,12.44-2.4-12.61a3.5,3.5,0,0,0-1.14-.08,4.67,4.67,0,0,0-.77.13L266.66,96l-1.1,19.76Z" fill="#b2b5ea"/><path d="M280.16,85l-5.48,12.44,4.93-4.78L278.52,91l1.79-.23s.32-4.56.38-5.78Z" fill="#7c6cc4"/><path d="M272.15,90.67,271,92.09l3.68,5.34-2.4-12.61a2,2,0,0,0-.81-.11l-.83,5.78Z" fill="#7c6cc4"/><line x1="274.46" y1="97.87" x2="274.46" y2="115.04" fill="none" stroke="#8294c5" stroke-miterlimit="10" stroke-width="0.54"/><path d="M273.31,99.59a.38.38,0,0,1,0,.75A.38.38,0,0,1,273.31,99.59Z" fill="#8294c5"/><path d="M273.09,103.91a.36.36,0,0,1,0,.71A.36.36,0,0,1,273.09,103.91Z" fill="#8294c5"/><path d="M273,108.1a.42.42,0,0,1,0,.83A.42.42,0,0,1,273,108.1Z" fill="#8294c5"/><rect x="164.19" y="53.3" width="85.75" height="57.44" transform="translate(414.14 164.04) rotate(-180)" fill="#fff" stroke="#958e9b" stroke-linecap="round" stroke-linejoin="round" stroke-width="1.08"/><g style="mix-blend-mode:multiply"><path d="M244.89,59.67H226.08" fill="none" stroke="#958e9b" stroke-linecap="round" stroke-linejoin="round" stroke-width="1.08"/><path d="M244.36,63.8H228" fill="none" stroke="#958e9b" stroke-linecap="round" stroke-linejoin="round" stroke-width="1.08"/><path d="M245.78,67.92h-12.6" fill="none" stroke="#958e9b" stroke-linecap="round" stroke-linejoin="round" stroke-width="1.08"/><path d="M242.11,76.13a29.8,29.8,0,0,0-25-.6c-2.64,1.15-5.14,2.68-7.86,3.59a18.36,18.36,0,0,1-15.39-1.78" fill="none" stroke="#958e9b" stroke-linecap="round" stroke-linejoin="round" stroke-width="1.08"/><path d="M198.1,76.71a7.23,7.23,0,0,1-4.56.44" fill="none" stroke="#958e9b" stroke-linecap="round" stroke-linejoin="round" stroke-width="1.08"/><path d="M193.25,77.42a9.71,9.71,0,0,1,2.41,3.65" fill="none" stroke="#958e9b" stroke-linecap="round" stroke-linejoin="round" stroke-width="1.08"/><path d="M184.14,58.72a9.83,9.83,0,0,1,4,3.85,7.24,7.24,0,0,1,.61,5.61c-.87,2.62-3.45,4.25-6,4.74a11.12,11.12,0,0,1-5.88-.49,5.94,5.94,0,0,1-2.25-1.37,6.48,6.48,0,0,1-1.4-2.72,8.94,8.94,0,0,1-.39-3.29,7.44,7.44,0,0,1,4.37-5.93,10.1,10.1,0,0,1,7.32-.13" fill="none" stroke="#958e9b" stroke-linecap="round" stroke-linejoin="round" stroke-width="1.08"/><path d="M242.35,98.86q-3-5.61-6.52-10.9" fill="none" stroke="#958e9b" stroke-linecap="round" stroke-linejoin="round" stroke-width="1.08"/><path d="M235.64,87.6a63.8,63.8,0,0,1-6.2,11.07" fill="none" stroke="#958e9b" stroke-linecap="round" stroke-linejoin="round" stroke-width="1.08"/><path d="M241.85,99.19l-12.42-.39" fill="none" stroke="#958e9b" stroke-linecap="round" stroke-linejoin="round" stroke-width="1.08"/><path d="M222.15,84.33q-.45,9.36-.3,18.75" fill="none" stroke="#958e9b" stroke-linecap="round" stroke-linejoin="round" stroke-width="1.08"/><path d="M190.38,84.33q-.45,9.36-.3,18.75" fill="none" stroke="#958e9b" stroke-linecap="round" stroke-linejoin="round" stroke-width="1.08"/><path d="M221,103.27H190.51" fill="none" stroke="#958e9b" stroke-linecap="round" stroke-linejoin="round" stroke-width="1.08"/><path d="M222,96.26c-1.16-2.05-3.73-2.76-6-2.43s-4.28,1.47-6.38,2.37-4.44,1.55-6.6.85-3.9-2.76-6.09-3.59c-1.47-.56-4.91-.18-6.36.43" fill="none" stroke="#958e9b" stroke-linecap="round" stroke-linejoin="round" stroke-width="1.08"/><path d="M216.34,94.64v7.88" fill="none" stroke="#958e9b" stroke-linecap="round" stroke-linejoin="round" stroke-width="1.08"/><path d="M211.9,95.39v7.88" fill="none" stroke="#958e9b" stroke-linecap="round" stroke-linejoin="round" stroke-width="1.08"/><path d="M208,96.89v6.57" fill="none" stroke="#958e9b" stroke-linecap="round" stroke-linejoin="round" stroke-width="1.08"/><path d="M203.56,97.46v5.81" fill="none" stroke="#958e9b" stroke-linecap="round" stroke-linejoin="round" stroke-width="1.08"/><path d="M199.3,95.58v7.5" fill="none" stroke="#958e9b" stroke-linecap="round" stroke-linejoin="round" stroke-width="1.08"/><path d="M194.15,93.33v9.75" fill="none" stroke="#958e9b" stroke-linecap="round" stroke-linejoin="round" stroke-width="1.08"/><path d="M180.05,58.31l.44,8.25" fill="none" stroke="#958e9b" stroke-linecap="round" stroke-linejoin="round" stroke-width="1.08"/><path d="M180.47,66.65A26.4,26.4,0,0,1,173.21,65" fill="none" stroke="#958e9b" stroke-linecap="round" stroke-linejoin="round" stroke-width="1.08"/><path d="M180.33,66.79c-1.73,1.49-3.53,2.9-5.37,4.25" fill="none" stroke="#958e9b" stroke-linecap="round" stroke-linejoin="round" stroke-width="1.08"/><path d="M185.45,90.16l-13.66.33" fill="none" stroke="#958e9b" stroke-linecap="round" stroke-linejoin="round" stroke-width="1.08"/><path d="M185.81,94.17l-14,.25" fill="none" stroke="#958e9b" stroke-linecap="round" stroke-linejoin="round" stroke-width="1.08"/><path d="M179.24,99.52h-6.39" fill="none" stroke="#958e9b" stroke-linecap="round" stroke-linejoin="round" stroke-width="1.08"/></g><path d="M59.49,247.2l1.36.74.41,11-1.58,0a1.67,1.67,0,0,1-1.7-1.84Z" fill="#ff6267"/><path d="M65.88,256.83l-4.68,2.35a1.55,1.55,0,0,1-1.74-.24h0a1.56,1.56,0,0,1,.22-2.48l8.48-5.27Z" fill="#fff"/><path d="M74,287.93h0a2.49,2.49,0,0,0,2.48-2.48v-3.28A2.49,2.49,0,0,0,74,279.69h0a2.49,2.49,0,0,0-2.48,2.48v3.28A2.49,2.49,0,0,0,74,287.93Z" fill="#434656" fill-rule="evenodd"/><path d="M74.08,295.57h0a1,1,0,0,0,1-1V276.1a1,1,0,0,0-1-1h0a1,1,0,0,0-1,1v18.46A1,1,0,0,0,74.08,295.57Z" fill="#434656"/><circle cx="73.94" cy="298.69" r="1.29" fill="#434656"/><circle cx="66.55" cy="298.69" r="1.29" fill="#434656"/><circle cx="81.32" cy="298.69" r="1.29" fill="#434656"/><path d="M65.49,296.38h16.9a.81.81,0,0,0,.81-.81h0a.82.82,0,0,0-.81-.82H65.49a.82.82,0,0,0-.81.82h0A.81.81,0,0,0,65.49,296.38Z" fill="#434656"/><path d="M85.59,277.41l3.92-14.22h1.93L87.22,278.5a2.54,2.54,0,0,1-2.44,1.86h-8v-1.93h7.5A1.39,1.39,0,0,0,85.59,277.41Z" fill="#434656"/><path d="M81.68,282.14H64.91a2.81,2.81,0,0,1-2.81-2.81h0a2.81,2.81,0,0,1,2.81-2.81H81.68a2.81,2.81,0,0,1,2.82,2.81h0A2.81,2.81,0,0,1,81.68,282.14Z" fill="#fff"/><path d="M88.53,260.18h2.36a1,1,0,0,1,1,1V268a1,1,0,0,1-1,1H88.53a0,0,0,0,1,0,0v-8.78A0,0,0,0,1,88.53,260.18Z" transform="translate(73.35 -14.45) rotate(15.37)" fill="#434656"/><path d="M92.24,252.42,86.48,273a2.44,2.44,0,0,1-3,1.7h0a2.45,2.45,0,0,1-1.7-3l5.76-20.54a2.46,2.46,0,0,1,3-1.7h0A2.46,2.46,0,0,1,92.24,252.42Z" fill="#fff"/><path d="M50.66,296.45l-2.63.11,9.46-23.94,19.33-1.74-1.38,3.59c-15.92.79-15.44,3-15.44,3C60.4,283.28,56.6,287.6,50.66,296.45Z" fill="#e5595e"/><path d="M61.26,296.61l-2-.05-1.57-17.85c-1.24-9.71,3.33-6,18.79-6.91l0,2.26c-15.78.8-14.7,4-14.7,4C63.24,283.92,62.11,286,61.26,296.61Z" fill="#ff6267"/><path d="M77.15,278l-15.62.78-4-6.22,17.73-5.47c1.78,0,3.75-.9,3.75,1.37l1.12,5.43C80.09,276.13,78.93,278,77.15,278Z" fill="#9ea2a4"/><path d="M75.74,276.77c2.48-.14,2.67-3.36,1.28-8.18L76.47,267c1.32-.15,2.45-.25,2.45,1.47L80,273.86A3.18,3.18,0,0,1,77.1,278l-15.62.78-.38-.57Z" fill="#8e9296"/><path d="M54.82,262.26,52.9,262a1.57,1.57,0,0,0-1.09.26l-2.24,1.51.92.65,2.43.15a2.39,2.39,0,0,0,1.59-.5l.8-.6Z" fill="#ff6267"/><path d="M62.25,262.17c-2.94,0-4.5.2-7.45.17l-.69,1.39c5.91,1,8,2.14,10.38,1.29C66.29,261,65.21,264.93,62.25,262.17Z" fill="#ff6267"/><path d="M59.49,247.2,61,246a1.58,1.58,0,0,1,1.07-.34l1.57.08a.79.79,0,0,1,.67,1.1h0l-2,1.38a2.38,2.38,0,0,1-1.61.38l-1-.1Z" fill="#ff6267"/><path d="M68.32,236.85s-4.17-.19-4.32,1.65c-.37,4.49,4.31,8.55,4.31,8.55l2.26-9.28Z" fill="#270054"/><polygon points="72.88 249.94 69.91 251.28 67.21 245.44 70.12 243.97 72.88 249.94" fill="#ff6267"/><path d="M70.77,241.06c-.58-2.48-.78-2.9-3-3.25-2.23-.15-.73.59-3,1.19-1.35.35-1.32,1.61-1,3.18a2.18,2.18,0,0,1-.6,1.7c-.12.39.52.64.71.8s.36,1.79.93,2a14.61,14.61,0,0,0,2.89,0c2.49-1.4,1.5-6.43,1.5-6.43C69.27,239.41,70.93,241.72,70.77,241.06Z" fill="#ff6267"/><path d="M67.84,236.84s4.85-.32,3.82,5.65a4.87,4.87,0,0,1-.77,2,1.45,1.45,0,0,1-1.33.66,1.27,1.27,0,0,1-.89-.35c-1.56-2.08-1.24-1.58-2.51-5.12L64.35,239,64,238.5Z" fill="#270054"/><path d="M67.9,243.64s1-3.59-.32-4.51L64,238.5S64.57,242.34,67.9,243.64Z" fill="#270054"/><path d="M68.82,248.8l-2.79,5a8.43,8.43,0,0,0-1.32,5.28L68,262.35l1.33,3.71c-.39,1.35-1,2.66.12,2.79l9.84-.34c-.59-12.07-2.59-19.09-7.4-20.88C71.19,247.38,70.18,248.08,68.82,248.8Z" fill="#e7e7e7"/><polygon points="67.81 249.05 72.02 246.54 73.07 247.7 67.3 251.1 67.81 249.05" fill="#fff"/><path d="M64.48,265.16a3.36,3.36,0,0,1-2.68-3l6.55-8.71c.48-.79,1.21-1.83,2.09-2,1.15-.22,2.46.47,1.77,2.83C71.62,256.33,67.14,262.31,64.48,265.16Z" fill="#e7e7e7"/><path d="M48,296.28l-2.33,1.48c-.47.36-2.74.74-2.82,1h0A1.05,1.05,0,0,0,44,299.94l1.27,0,4.68-.27s1.57-.25.69-3.26Z" fill="#270054" fill-rule="evenodd"/><path d="M58.64,296.28l-2.33,1.48c-.47.36-2.75.74-2.83,1h0a1.06,1.06,0,0,0,1.15,1.19l1.27,0,4.67-.27s1.58-.25.69-3.26Z" fill="#270054" fill-rule="evenodd"/><path d="M38.88,267.08H58.94a.84.84,0,0,0,.84-.84h0a.85.85,0,0,0-.84-.84H38.88a.85.85,0,0,0-.84.84h0A.84.84,0,0,0,38.88,267.08Z" fill="#fff" fill-rule="evenodd"/><path d="M67.34,243c-.16.79.15,1.49.69,1.56s1.11-.53,1.27-1.33-.15-1.49-.69-1.55S67.5,242.18,67.34,243Z" fill="#ff6267"/><path d="M70.21,239.89s4.14-2.75,6.25,2.75c1.74,4.52.07,6.83,1.42,8.49a.66.66,0,0,1-.56,1.07c-1.89-.1-4.54-.71-5-3.32-.75-4.12-1.54-6.92-1.8-6.94S70.21,239.89,70.21,239.89Z" fill="#270054"/><path d="M69.92,258.29c2.9,3.87,3,10.44,3,10.44l-3.45.12c-1.15-.13-.51-1.44-.12-2.79l-.56-1.57L68,262.35l-.68-.68Z" fill="#fff"/><path d="M54.7,265.31H43.33V264H56A1.33,1.33,0,0,1,54.7,265.31Z" fill="#d0d0d0"/><rect x="34.52" y="258.37" width="13.49" height="1.33" rx="0.33" transform="translate(264.71 121.66) rotate(67.47)" fill="#d0d0d0"/><path d="M61.26,296.45s-2.8,2.8-5.08,1.39l3.22-2.08Z" fill="#ff6267" fill-rule="evenodd"/><path d="M50.68,296.45s-2.8,2.8-5.09,1.39l3.22-2.08Z" fill="#e5595e" fill-rule="evenodd"/><g clip-path="url(#d)"><polyline points="135.07 310.32 415.74 310.32 415.74 246.04 199.79 246.06 199.79 259.85 135.07 259.85 135.07 310.32" fill="url(#e)"/><g opacity="0.4" style="mix-blend-mode:overlay"><polyline points="362.99 268.65 327.08 268.65 312.7 283.04 244.66 283.04" fill="none" stroke="#d8e0ff" stroke-miterlimit="10"/><polyline points="244.66 283.04 292.97 283.04 300.26 290.32 323.58 290.32 332.39 281.52 348.48 281.52" fill="none" stroke="#d8e0ff" stroke-miterlimit="10"/><line x1="303.67" y1="268.82" x2="231.85" y2="268.82" fill="none" stroke="#d8e0ff" stroke-miterlimit="10"/><polyline points="291.53 255.77 219.71 255.77 203.78 271.7 189.56 271.7" fill="none" stroke="#d8e0ff" stroke-miterlimit="10"/><line x1="378.75" y1="255.77" x2="306.93" y2="255.77" fill="none" stroke="#d8e0ff" stroke-miterlimit="10"/><polyline points="352.06 303.01 277.88 302.56 269.58 294.26 174.47 294.26" fill="none" stroke="#d8e0ff" stroke-miterlimit="10"/><polyline points="173.74 271.49 162.4 271.49 162.4 302.44 148.85 302.44" fill="none" stroke="#d8e0ff" stroke-miterlimit="10"/><line x1="148.85" y1="271.57" x2="148.85" y2="288.85" fill="none" stroke="#d8e0ff" stroke-miterlimit="10"/><line x1="229.92" y1="282.88" x2="173.74" y2="282.88" fill="none" stroke="#d8e0ff" stroke-miterlimit="10"/><circle cx="148.85" cy="288.85" r="1.82" fill="#d8e0ff"/><circle cx="148.85" cy="271.57" r="1.82" fill="#d8e0ff"/><circle cx="244.66" cy="282.88" r="1.82" fill="#d8e0ff"/><circle cx="303.67" cy="268.82" r="1.82" fill="#d8e0ff"/><circle cx="231.85" cy="268.82" r="1.82" fill="#d8e0ff"/><circle cx="291.53" cy="255.77" r="1.82" fill="#d8e0ff"/><circle cx="189.56" cy="271.49" r="1.82" fill="#d8e0ff"/><circle cx="306.93" cy="255.77" r="1.82" fill="#d8e0ff"/><circle cx="173.74" cy="294.26" r="1.82" fill="#d8e0ff"/><circle cx="173.74" cy="282.88" r="1.82" fill="#d8e0ff"/><circle cx="229.92" cy="282.88" r="1.82" fill="#d8e0ff"/><circle cx="173.74" cy="271.49" r="1.82" fill="#d8e0ff"/></g><polyline points="417.93 246.04 199.74 246.06 199.74 259.85 135.07 259.85 135.07 310.32" fill="none" stroke="#fff" stroke-miterlimit="10"/></g><path d="M175.23,223.35c-2.54-3.52-4.08-5.25-6.55-8.83l-2.27.36c3.88,7.94,3.74,11,6.82,13.17C179.63,226.78,174.42,229.27,175.23,223.35Z" fill="#ff6267"/><path d="M167.89,216.81l-2.72-.87a2.4,2.4,0,0,1-1.31-1l-1.21-2a1.15,1.15,0,0,1,.76-1.74h0l3.36,1.29a3.58,3.58,0,0,1,1.82,1.65l.71,1.29Z" fill="#ff6267"/><path d="M175.25,215.72l-2.36,7.63c-.36.13-.93,4,.78,5.1l2.65,1.74.47-2,.21-3.86,1.27-7.4Z" fill="#ff6267" fill-rule="evenodd"/><path d="M179.07,208.75s-2.27,2-3.94,6.82l3.33,5.1Z" fill="#e7e7e7" fill-rule="evenodd"/><path d="M184.43,247.31h0a2.48,2.48,0,0,0,2.47-2.48v-3.28a2.48,2.48,0,0,0-2.47-2.48h0a2.49,2.49,0,0,0-2.48,2.48v3.28A2.49,2.49,0,0,0,184.43,247.31Z" fill="#434656" fill-rule="evenodd"/><circle cx="184.39" cy="258.05" r="1.29" fill="#434656"/><circle cx="177.01" cy="258.05" r="1.29" fill="#434656"/><circle cx="191.78" cy="258.05" r="1.29" fill="#434656"/><path d="M184.53,254.45h0a1,1,0,0,0,1-1V235a1,1,0,0,0-1-1h0a1,1,0,0,0-1,1v18.46A1,1,0,0,0,184.53,254.45Z" fill="#434656"/><path d="M176,255.53h16.89a.82.82,0,0,0,.82-.82h0a.82.82,0,0,0-.82-.81H176a.82.82,0,0,0-.82.81h0A.82.82,0,0,0,176,255.53Z" fill="#434656"/><path d="M192.14,241.52H175.37a2.8,2.8,0,0,1-2.81-2.81h0a2.81,2.81,0,0,1,2.81-2.81h16.77a2.81,2.81,0,0,1,2.81,2.81h0A2.81,2.81,0,0,1,192.14,241.52Z" fill="#270054"/><rect x="182.08" y="211.77" width="15.73" height="20.44" rx="1.82" transform="translate(379.88 443.98) rotate(180)" fill="#270054"/><polygon points="167.75 257.71 164.35 257.79 164.99 247.59 168.24 247.5 167.75 257.71" fill="#ff6267" fill-rule="evenodd"/><polygon points="164.46 257.1 168.02 256.71 168.24 259.34 159.88 259.34 159.88 258.44 164.46 257.1" fill="#270054" fill-rule="evenodd"/><path d="M170.8,239.37,183.53,235l-2-2.58-6.51-1.56-8.22,2.95a4.86,4.86,0,0,0-3,4.43l-.27,17,5.36-.15Z" fill="#a0a4e5" fill-rule="evenodd"/><path d="M176.87,224.89s-2.17,6.23-2,7.45a8.73,8.73,0,0,0,1.52,3.89l10.66-.08a4.94,4.94,0,0,0,4.82-5.77v0c-.05-.29-.09-.58-.13-.87-.19-1.34-.73-5.39-.73-5.39-3.31,2.15-9.31,3-14.56,1.61Z" fill="#babded" fill-rule="evenodd"/><path d="M179.73,197.05s-2.52,1.14-.55,3.49.55-3.49.55-3.49Z" fill="#270054" fill-rule="evenodd"/><polygon points="186.89 208.59 184.7 202.88 180.71 204.67 181.81 210.16 186.89 208.59 186.89 208.59" fill="#e55b60" fill-rule="evenodd"/><path d="M179.26,199.88a3,3,0,0,1,1.05-2.18,3.07,3.07,0,0,1,2.3-.74h0a3.07,3.07,0,0,1,2.77,3.18c0,.94-.08,2-.11,2.85a3.82,3.82,0,0,1-.89,2.1,8.52,8.52,0,0,1-3.2,1.06c-1.19-.12-2.08-2.38-2-3.58,0-.82.07-1.78.11-2.69Z" fill="#ff6267" fill-rule="evenodd"/><path d="M183.62,198.7s-.39,2.79,1.8,2.86a18.38,18.38,0,0,0,1.24-3.81c.24-2.41-4.57-2.88-6.52-1.86s-.75,2.87,3.48,2.81Z" fill="#270054" fill-rule="evenodd"/><path d="M181.29,207.57c1.32,2,4.49.18,5-.52.08-.12,1.48.7,1.66.83,2.79,1.92,3.15,10.17,3.65,13.14.23,1.39,1.53,6,.83,7.25-.22.4-2.4.09-2.83.17-1.81.32-10,.95-11.07-.29s-.28-3.55-.5-5a35.49,35.49,0,0,1,1-14.38Z" fill="#e7e7e7" fill-rule="evenodd"/><path d="M178.28,218.43c1.58,4.22,13.35-.31,12-2.33-1.87-2.82.82,2,1.32,4.92.23,1.39,1.53,6,.83,7.25-.22.4-1.15,3.63-1.59,3.64-5.76.21-15.32-.13-15.72-1.76-.56-2.29,2.3-8,2.49-9.48C178.11,216.86,178.28,218.43,178.28,218.43Z" fill="#e7e7e7" fill-rule="evenodd"/><path d="M185.37,200.39a1,1,0,0,0-.47,1.84,1,1,0,0,0,.47-1.84Z" fill="#ff6267" fill-rule="evenodd"/><polygon points="174.76 257.71 171.36 257.79 171.99 247.59 175.25 247.5 174.76 257.71" fill="#ff6267" fill-rule="evenodd"/><polygon points="171.46 257.1 175.02 256.71 175.25 259.34 166.88 259.34 166.88 258.44 171.46 257.1" fill="#270054" fill-rule="evenodd"/><path d="M177.8,241.25l11.46-6-1.21-1.74-8.17-.55-6,2.69a4.83,4.83,0,0,0-3,4.44l-.27,15.15,5.36-.15Z" fill="#babded" fill-rule="evenodd"/><path d="M182.05,198.61s-5.34-.42-4.1-2.79c1.14-2.19,4.89,2.43,5.67,1.58Z" fill="#270054" fill-rule="evenodd"/><path d="M182.49,230.5l-3.57,1.9s-2.35,2.34-.74,3.22,2.08-.4,2.36-.77,1.66-.29,3-2.81Z" fill="#ff6267" fill-rule="evenodd"/><path d="M196.08,219.33v7a4.8,4.8,0,0,1-2.35,4.15c-2.7,1.61-7.31,3.73-11.46,2.69l-.32-2.39,9.32-4.51-.15-9.08Z" fill="#ff6267" fill-rule="evenodd"/><path d="M188,207.88s8.52,2.48,8.81,12.79h-7.51Z" fill="#e7e7e7" fill-rule="evenodd"/><path d="M158.59,224.79H142.51L137.65,214h15.72a.56.56,0,0,1,.52.33Z" fill="#fff" fill-rule="evenodd"/><path d="M158,224.79H141.88l-4.63-10.32a.35.35,0,0,1,.33-.49h15.31a.35.35,0,0,1,.32.21Z" fill="#b2b5ea" fill-rule="evenodd"/><path d="M148.09,219.45c.19.68-.34,1.23-1.17,1.23a2,2,0,0,1-1.86-1.23c-.19-.67.33-1.22,1.17-1.22A2,2,0,0,1,148.09,219.45Z" fill="#fff" fill-rule="evenodd"/><path d="M142.51,224.79h25.06a.85.85,0,0,1,.84.84h0a.84.84,0,0,1-.84.84H142.51Z" fill="#b2b5ea" fill-rule="evenodd"/><path d="M185.22,227.79h-48.1a.85.85,0,0,1-.84-.84h0a.85.85,0,0,1,.84-.84h48.1a.85.85,0,0,1,.84.84h0A.85.85,0,0,1,185.22,227.79Z" fill="#fff" fill-rule="evenodd"/></g></svg>