<svg xmlns="http://www.w3.org/2000/svg" xmlns:xlink="http://www.w3.org/1999/xlink" viewBox="0 0 244.45 148.54"><defs><linearGradient id="a" x1="121.28" y1="97.22" x2="121.28" y2="159.47" gradientUnits="userSpaceOnUse"><stop offset="0" stop-color="#a441cb"/><stop offset="1" stop-color="#6c40b9" stop-opacity="0"/></linearGradient></defs><g style="isolation:isolate"><rect x="5.1" y="115.29" width="232.36" height="33.25" fill="url(#a)"/><line x1="237.46" y1="115.29" x2="5.1" y2="115.29" fill="none" stroke="#c148f7" stroke-miterlimit="10" stroke-width="1.12"/><path d="M158.39,44.75s-3.08,5-3.64,14.07c0,0,2.22-.21,2.22-.53S158.39,44.75,158.39,44.75Z" fill="#a1a6e1" fill-rule="evenodd"/><polygon points="137.42 111.58 132.91 111.25 134.4 106.06 138.72 106.37 137.42 111.58" fill="#9c4345" fill-rule="evenodd"/><polygon points="157.71 111.58 152.88 111.23 153.49 106.25 158.32 106.6 157.71 111.58" fill="#9c4345" fill-rule="evenodd"/><path d="M137.79,114.69a1.72,1.72,0,0,0,.11-.5c0-1.36,0-3.24,0-3.24l-4.62-.45a62.72,62.72,0,0,1-5.7,3.43,1.32,1.32,0,0,0-.81.76Z" fill="#a0a3a5" fill-rule="evenodd"/><path d="M167.91,108.89h0a1.32,1.32,0,0,1-1.31-1.32V83.34A1.32,1.32,0,0,1,167.91,82h0a1.32,1.32,0,0,1,1.32,1.32v24.23A1.32,1.32,0,0,1,167.91,108.89Z" fill="#b3b7e7"/><path d="M168.06,89.81h0a3.26,3.26,0,0,1-3.26-3.25v-4.3A3.26,3.26,0,0,1,168.06,79h0a3.26,3.26,0,0,1,3.25,3.25v4.3A3.26,3.26,0,0,1,168.06,89.81Z" fill="#989dde" fill-rule="evenodd"/><circle cx="168.08" cy="113.24" r="1.69" fill="#b3b7e7"/><circle cx="177.77" cy="113.24" r="1.69" fill="#b3b7e7"/><circle cx="158.39" cy="113.24" r="1.69" fill="#b3b7e7"/><path d="M179.19,110H157a1.06,1.06,0,0,1-1.07-1.06h0a1.07,1.07,0,0,1,1.07-1.07h22.18a1.07,1.07,0,0,1,1.06,1.07h0A1.06,1.06,0,0,1,179.19,110Z" fill="#b3b7e7"/><rect x="151.88" y="76.72" width="32.06" height="6.11" rx="1.59" fill="#c148f7"/><path d="M159.63,63.7s-2.85,8.18-2.65,9.78a11.44,11.44,0,0,0,2,5.1l14-.11a6.46,6.46,0,0,0,6.32-7.56v-.06c-.06-.38-.12-.75-.17-1.13l-1-7.08c-4.34,2.82-12.21,4-19.11,2.11Z" fill="#3963ee" fill-rule="evenodd"/><path d="M148.13,64.26l5.14-4.5,3.89-4.87,2.31,5.45A17.7,17.7,0,0,1,149,67.91l-.61-1.83Z" fill="#a1a6e1" fill-rule="evenodd"/><path d="M139.65,108.15l-6.23-.53c0-.78,4.48-17.84,7-25a8.06,8.06,0,0,1,4-4.54l15-7.46,9.81,8.33-20.65,8.52Z" fill="#3963ee" fill-rule="evenodd"/><path d="M139.65,108.15l-2.52-.21c.6-5,4.48-9.42,6.22-11.89,2.23-3.14.87-8.37,1.79-11a9.08,9.08,0,0,1,1.91-2.67,16.8,16.8,0,0,1,7.46-4.47A28.39,28.39,0,0,0,163,73.6l6.29,5.34-20.65,8.52Z" fill="#3948ca" fill-rule="evenodd"/><path d="M157.78,114.69a1.46,1.46,0,0,0,.12-.5c0-1.36,0-3.24,0-3.24l-5.13-.11a53.43,53.43,0,0,1-5.19,3.09,1.32,1.32,0,0,0-.81.76Z" fill="#a0a3a5" fill-rule="evenodd"/><path d="M163.37,28.25s-3.3,1.49-.71,4.57.71-4.57.71-4.57Z" fill="#220350" fill-rule="evenodd"/><path d="M174.57,42.74A3.36,3.36,0,0,0,172.69,40a6.1,6.1,0,0,0-4.12-.37A32,32,0,0,0,163.7,41l-1.37,4.55,4.59,2.18L176,41Z" fill="#989dde" fill-rule="evenodd"/><path d="M162.76,30.88A4,4,0,0,1,164.14,28a4,4,0,0,1,3-1h0a4,4,0,0,1,3.64,4.18c-.05,1.23-.11,2.57-.16,3.73a2.86,2.86,0,0,1-3.14,2.74l-2.21-.22a3,3,0,0,1-2.67-3.07c0-1.08.09-2.34.14-3.53Z" fill="#9c4345" fill-rule="evenodd"/><polygon points="172.78 42.3 169.9 34.83 164.66 37.16 166.11 44.37 172.78 42.3 172.78 42.3" fill="#9c4345" fill-rule="evenodd"/><path d="M168.48,30.41s-.51,3.66,2.37,3.75a24.1,24.1,0,0,0,1.63-5c.31-3.16-6-3.78-8.56-2.44s-1,3.76,4.56,3.69Z" fill="#220350" fill-rule="evenodd"/><path d="M165,41c1.67,2.62,5.65.24,6.3-.68.11-.15,1.86.92,2.09,1.09,3.5,2.52,4,13.35,4.58,17.25.29,1.81,1.92,7.92,1.05,9.5-.28.53-3,.13-3.56.23-2.28.42-12.51,1.25-13.92-.38s-.35-4.66-.62-6.58a48.45,48.45,0,0,1,1.3-18.88Z" fill="#fff" fill-rule="evenodd"/><path d="M162.09,56.19c1.77,5.53,15-.41,13.52-3.06-2.1-3.71.92,2.55,1.48,6.46.26,1.81,1.72,7.92.94,9.5-.26.53-1.3,4.76-1.79,4.79-6.49.27-16.46.7-16.91-1.44-.63-3,2.28-8.16,2.49-10.08C162.37,57.36,162.09,56.19,162.09,56.19Z" fill="#e8e8e8" fill-rule="evenodd"/><path d="M170.78,32.62a1.29,1.29,0,1,0,.64,1.45,1.14,1.14,0,0,0-.64-1.45Z" fill="#9c4345" fill-rule="evenodd"/><path d="M162.61,34.42c-.19-.33-1,4.94,2.19,5.2s4.5-1,4.71-7.07c0,0-1.27,3.68-3.12,3.73-3.86.12-3.56-1.47-3.78-1.86Z" fill="#220350" fill-rule="evenodd"/><path d="M164.14,37.32a2.3,2.3,0,0,0,1.61.1" fill="none" stroke="#9c4345" stroke-linecap="round" stroke-linejoin="round" stroke-width="1.09"/><path d="M151.42,109.44l7-.2,2.4-23.14,15-8.35-1.59-2.43-10.72-.77-7.92,3.76a6.8,6.8,0,0,0-3.87,6.19Z" fill="#3963ee" fill-rule="evenodd"/><path d="M163.7,41s-1.94,9.87-2,15.81S159,74.87,159,74.87c-1-1.77-4.35-1.24-4.65-2.86,0,0,3-19.54,3.49-24.67S160.31,42.37,163.7,41Z" fill="#b3b7e7" fill-rule="evenodd"/><path d="M157.86,65.55s-1.77-1.21-2.9-.62c-.54.28-1.44.3-2.24.74a7.39,7.39,0,0,0-1.84,1.85A1.48,1.48,0,0,0,152,69c.4.08,1.59-1,1.59-1a6.85,6.85,0,0,0,3.83,0Z" fill="#9c4345" fill-rule="evenodd"/><path d="M149.61,65.45s-1.68-1.34-2.85-.83c-.56.24-1.45.19-2.29.57a7.57,7.57,0,0,0-2,1.71,1.49,1.49,0,0,0,1,1.55c.39.11,1.66-.87,1.66-.87a6.87,6.87,0,0,0,3.82.33Z" fill="#9c4345" fill-rule="evenodd"/><polygon points="157.86 65.55 163.48 65.14 163.7 68.14 156.66 67.75 157.86 65.55" fill="#9c4345" fill-rule="evenodd"/><rect x="141.6" y="67.24" width="18.4" height="1.17" fill="#fff"/><path d="M182.8,61a71.27,71.27,0,0,0-.8-9.3c-.6-3.9-1.39-6.83-2.76-8.45-1.2-1.42-2.35-1.63-3.88-2.39L172.69,40c-1.64,7.61-2.77,14.87-2.06,22.4l-8.93,1.78v4.26h13.8l2.76-.9,2.61-1.46A7.24,7.24,0,0,0,182.8,61Z" fill="#b3b7e7" fill-rule="evenodd"/><path d="M147.16,68.41H126.05l-6.37-14.2h20.63a.75.75,0,0,1,.68.44Z" fill="#a45acc" fill-rule="evenodd"/><path d="M145.47,68.41H124.36l-6.08-13.55a.46.46,0,0,1,.42-.65h20.1a.46.46,0,0,1,.42.27Z" fill="#fff" fill-rule="evenodd"/><path d="M170.41,59.2s-.17,7.55-1.92,11c-.77,1.53-4.79,5.62-4.79,5.62s15.43,1.53,15.92-4.7a122.48,122.48,0,0,1,2-13.47Z" fill="#b3b7e7" fill-rule="evenodd"/><path d="M132.49,61.4c.25.88-.43,1.6-1.53,1.6a2.6,2.6,0,0,1-2.44-1.6c-.25-.89.44-1.61,1.53-1.61A2.57,2.57,0,0,1,132.49,61.4Z" fill="#afb3e0" fill-rule="evenodd"/><path d="M182.8,61a71.27,71.27,0,0,0-.8-9.3c-.6-3.9-1.39-6.83-2.76-8.45-1.2-1.42-2.35-1.63-3.88-2.39L172.69,40c10.25,5.25,6.93,16.48,7.64,24-1.65.88-2.43.6-6.26,1.36a50.11,50.11,0,0,1-7.14,2.08c-2.31-.49-3.61-.65-5.22-.19v1.17h13.8l2.76-.9,2.61-1.46A7.24,7.24,0,0,0,182.8,61Z" fill="#dae1ff" fill-rule="evenodd"/><path d="M185.24,70.61H109.1a1.1,1.1,0,0,1-1.1-1.1h0a1.1,1.1,0,0,1,1.1-1.1h76.14a1.11,1.11,0,0,1,1.11,1.1h0A1.11,1.11,0,0,1,185.24,70.61Z" fill="#fff" fill-rule="evenodd"/><path d="M60.64,56.05a44.9,44.9,0,0,0,3.88-8.35c0,.61-2.24,1.59,2.89.84,0,0,7,11.44,4.6,29.49-.51,3.86-.16,13.45-.48,17s-1,14.3-1,14.32a5.88,5.88,0,0,0,.36,2.56,3,3,0,0,0,1.07.89c.88.51,1.72,1,.66,1.51s-5.15.12-5.15-.43,0-1.12,0-1.59a17.84,17.84,0,0,0-.25-2.66,100.29,100.29,0,0,1-2.39-18.49c-.16-9-1.67-8.09-1.95-12.18C61.87,64.06,58.85,59.27,60.64,56.05Z" fill="#d66262"/><path d="M72,112.85a10.93,10.93,0,0,1-4.5-.51l-.38,2.46,8.26,0c1.06-.54,0-.86,0-.86Z" fill="#a0a3a5"/><path d="M55.62,113c0-.36,0-.7,0-1a19,19,0,0,0-.18-2.69,107.92,107.92,0,0,1-1.84-18.87c.09-9.08-.35-7.71-.53-11.84-.39-9-.32-18.27,1.27-23.56A35.66,35.66,0,0,0,56.1,45.5s1.6,3.17,8.71,3.07c0,0-2.35,25.78-2.54,29.63s-1.69,13.39-2.11,17S58.27,109,59,112c.07.27.51.64,1,1a9.38,9.38,0,0,0,1,.62" fill="#ed6c6c"/><path d="M57.18,113.16c.22-4.6.9-18.74,1.27-23.78.45-6.06.39-10.8.39-10.8l-5.76-.07v0c.18,4.13.62,2.76.53,11.84a107.92,107.92,0,0,0,1.84,18.87,19,19,0,0,1,.18,2.69c0,.31,0,.65,0,1Z" fill="#d66262"/><path d="M63.85,114.92c1.06-.4,0-.87,0-.87-1.23-.26-2.93-.37-3.79-1a11.15,11.15,0,0,1-4.45-1.11c0,.48,0,2.3,0,2.89Z" fill="#a0a3a5"/><path d="M52.68,80.06H73.29c.2-5.18,1.12-14.38-4.78-31.67H55.24C49.84,56.33,52.68,80.06,52.68,80.06Z" fill="#a0a3a5"/><path d="M59.57,61.4c.13-7.5,3.75-10,4.29-12.86l-.11-.15H55.24c-5.4,7.94-2.56,31.67-2.56,31.67H58.9C59.05,76.87,59.48,67.53,59.57,61.4Z" fill="#909397"/><polygon points="63.86 23.88 67.77 25.64 71.31 17.98 67.48 16.05 63.86 23.88" fill="#ed6c6c"/><path d="M73.05,32.92,80.34,36a2.25,2.25,0,0,0,2.53-.34h0a2.26,2.26,0,0,0-.33-3.59L70.07,25.52Z" fill="#e8e8e8"/><path d="M81.43,20.28l-1.78,1s-.46,10.86-.46,12.58,2,2,2,2a2.19,2.19,0,0,0,2.23-2.42Z" fill="#ed6c6c"/><path d="M69.2,22.39s4.14,9.6,3.91,11.77l-2.82,6L68.55,45c.51,1.77,1.36,3.48-.16,3.65H55.24C56,32.85,58.87,23.2,65.19,20.86,66.09,20.52,67.4,21.45,69.2,22.39Z" fill="#e8e8e8"/><polygon points="64.73 28.24 55.48 44.84 56.34 34.74 64.73 28.24" fill="#d2d2d2"/><path d="M69.85,23.94,68.42,32.5c-3.81,5.07-4.56,16-4.56,16h0l4.53.15c1.52-.17.67-1.88.16-3.65l1.74-4.88,2.82-6C73.28,32.53,71,26.75,69.85,23.94Z" fill="#fff"/><path d="M56,50.55l.89,2.38a2.15,2.15,0,0,1,0,1.48l-1.23,3.32-1.12-1-.95-3.06a3.15,3.15,0,0,1,.15-2.17l.51-1.21Z" fill="#ed6c6c"/><path d="M53.81,41.05c.87,3.76,1.13,5.8,2.1,9.55l-1.57,1.31c-3.06-7.24-5.2-9.49-4.87-12.82C54.07,35.54,49.36,38.14,53.81,41.05Z" fill="#ed6c6c"/><path d="M81.43,20.28l-2-1.55A2.11,2.11,0,0,0,78,18.28L76,18.39a1,1,0,0,0-.89,1.43h0l2.63,1.82a3.22,3.22,0,0,0,2.13.5l1.3-.13Z" fill="#ed6c6c"/><path d="M66.63,12.23C67.4,9,67.66,8.42,70.55,8c2.93-.2,1,.77,4,1.55,1.77.46,1.73,2.12,1.36,4.18a2.9,2.9,0,0,0,.79,2.23c.16.51-.68.84-.93,1.05s-.47,2.35-1.21,2.66a20,20,0,0,1-3.81,0c-3.26-1.84-2-8.45-2-8.45C68.6,10.06,66.42,13.09,66.63,12.23Z" fill="#ed6c6c"/><circle cx="62.75" cy="10.45" r="3.27" fill="none" stroke="#220350" stroke-miterlimit="10" stroke-width="0.73"/><circle cx="64.35" cy="10.16" r="2.59" fill="none" stroke="#220350" stroke-miterlimit="10" stroke-width="0.73"/><circle cx="64.18" cy="8.87" r="2.59" fill="none" stroke="#220350" stroke-miterlimit="10" stroke-width="0.73"/><circle cx="62.75" cy="12.57" r="2.59" fill="none" stroke="#220350" stroke-miterlimit="10" stroke-width="0.73"/><circle cx="63.86" cy="10.91" r="3.1" fill="#220350"/><path d="M70.48,6.69s-6.37-.42-5,7.42a6.6,6.6,0,0,0,1,2.64,1.88,1.88,0,0,0,1.74.86,1.53,1.53,0,0,0,1.16-.46c2.05-2.73,1.64-2.07,3.3-6.72l2.38-.9.46-.66Z" fill="#220350"/><path d="M70.4,15.62s-1.27-4.71.42-5.92l4.7-.83S74.77,13.91,70.4,15.62Z" fill="#220350"/><polygon points="70.52 22.72 64.99 19.42 63.61 20.95 71.19 25.4 70.52 22.72" fill="#fff"/><path d="M49.3,39.14A4.43,4.43,0,0,0,54,41.63L63,30.56c.85-.85,1.95-2.11,1.89-3.28-.07-1.53-1.36-3-4.16-1.38C58.34,27.29,52.11,34.86,49.3,39.14Z" fill="#e8e8e8"/><path d="M71.14,14.75c.21,1-.2,2-.91,2s-1.46-.69-1.67-1.73.2-2,.91-2.05S70.93,13.7,71.14,14.75Z" fill="#ed6c6c"/><rect x="103.78" y="16.28" width="44.07" height="30.37" fill="#b3b7cb" style="mix-blend-mode:multiply"/><rect x="108.41" y="12.17" width="44.07" height="30.37" fill="#fff"/><path d="M113.43,35.4c8.76,0,22.42-6.08,30.76-15.85" fill="none" stroke="#ff9155" stroke-linecap="round" stroke-linejoin="round" stroke-width="1.09"/><path d="M138.74,21.18l6-2.06a47.07,47.07,0,0,1-1.83,5.28" fill="none" stroke="#ff9155" stroke-linecap="round" stroke-linejoin="round" stroke-width="1.09"/><line x1="147.84" y1="37.87" x2="147.84" y2="16.28" fill="none" stroke="#dae1ff" stroke-miterlimit="10" stroke-width="1.46"/><polyline points="113.06 13.91 113.06 37.87 149.46 37.87" fill="none" stroke="#ff9155" stroke-linecap="round" stroke-linejoin="round" stroke-width="1.09"/><path d="M108.41,28.85h12.26a12.66,12.66,0,0,0,12.75-12.57,12.45,12.45,0,0,0-.71-4.11h-24.3Z" fill="#e8e8e8" style="mix-blend-mode:multiply"/><path d="M119.49,25.14a12.66,12.66,0,0,0,12.75-12.57A12.66,12.66,0,0,0,119.49,0H101.67A12.67,12.67,0,0,0,88.91,12.57a12.67,12.67,0,0,0,12.76,12.57Z" fill="#fff"/><line x1="119.81" y1="17.31" x2="97.44" y2="17.31" fill="none" stroke="#b3b7e7" stroke-miterlimit="10" stroke-width="1.46"/><line x1="126.07" y1="12.57" x2="97.44" y2="12.57" fill="none" stroke="#b3b7e7" stroke-miterlimit="10" stroke-width="1.46"/><line x1="122.19" y1="7.83" x2="97.44" y2="7.83" fill="none" stroke="#b3b7e7" stroke-miterlimit="10" stroke-width="1.46"/><path d="M92.43,17.63s-2.57,6.32-8,8c0,0,9.29,2.09,14.1-5.33" fill="#fff"/><line x1="241.24" y1="115.29" x2="3.21" y2="115.29" fill="none" stroke="#fff" stroke-miterlimit="10" stroke-width="2"/><path d="M241.07,111.91a3.39,3.39,0,1,1-3.38,3.38A3.38,3.38,0,0,1,241.07,111.91Z" fill="#fff"/><circle cx="3.38" cy="115.29" r="3.38" fill="#fff"/></g></svg>