<svg xmlns="http://www.w3.org/2000/svg" xmlns:xlink="http://www.w3.org/1999/xlink" viewBox="0 0 211.83 261.14"><defs><linearGradient id="a" x1="106.25" y1="144.65" x2="106.25" y2="271" gradientUnits="userSpaceOnUse"><stop offset="0" stop-color="#a441cb"/><stop offset="1" stop-color="#6c40b9" stop-opacity="0"/></linearGradient><linearGradient id="b" x1="141.25" y1="23.17" x2="35.38" y2="129.04" gradientUnits="userSpaceOnUse"><stop offset="0" stop-color="#fff"/><stop offset="1" stop-color="#fff" stop-opacity="0"/></linearGradient></defs><g style="isolation:isolate"><rect x="3.66" y="145.72" width="205.16" height="115.42" fill="url(#a)"/><rect x="70.68" width="106.19" height="81.28" fill="url(#b)"/><path d="M78.16,53.43a3.69,3.69,0,0,1-4.07,1c-2-.72-5.44-2.61-10.81-7.34-.17-.14-.34-.28-.5-.43,0,0-3.47-6.84.26-12.32a.57.57,0,0,1,.8-.13c.32.26.84.69,1.57,1.35,1.71,1.53,4.59,4.3,9,9.08,0,0,2.51-10.3,3.75-14.78.14-.54.27-1,.37-1.33l3.92.92s0,.49.08,1.34C82.72,35,82.9,48,78.16,53.43Z" fill="#b25c58"/><path d="M78.52,28.56s2.31,2,3.92.92a9.8,9.8,0,0,1,.88-3.05c.73-1.5,2.45-4.55,2.38-5.77a2.48,2.48,0,0,0-.19-.65A2.43,2.43,0,0,0,84.68,19a2.91,2.91,0,0,0-.35-.2,3,3,0,0,0-.68-.19,2.77,2.77,0,0,0-.42,0h-.15a.76.76,0,0,0-.68.43,19.11,19.11,0,0,1-2.3,3.87s.42-2.28-.14-2.73L79.47,20a21.14,21.14,0,0,1-1,4A6.78,6.78,0,0,0,78.52,28.56Z" fill="#b25c58"/><path d="M81.2,22.55s0,0,0,0a10,10,0,0,0,2.42-4,2.77,2.77,0,0,0-.42,0A14.77,14.77,0,0,1,81.2,22.55Z" fill="#753233"/><path d="M82.17,23.12a0,0,0,1,0,0,0A10,10,0,0,0,84.68,19a2.91,2.91,0,0,0-.35-.2A15.49,15.49,0,0,1,82.17,23.12Z" fill="#753233"/><path d="M83.14,23.75a0,0,0,0,0,0,0A10,10,0,0,0,85.51,20a2.07,2.07,0,0,0-.26-.48A15.31,15.31,0,0,1,83.14,23.75Z" fill="#753233"/><path d="M80.2,23.16c.64.44.65,1.77.43,2.42,0,.09-.19.1-.18,0a7.67,7.67,0,0,0,0-1.27,5.42,5.42,0,0,1-.26-1.11A0,0,0,0,1,80.2,23.16Z" fill="#753233"/><path d="M56.55,22.34s.22-6.11-2.07-7.5c-5.62-3.42-12.25.83-11.17,5.43s1.46,3.31,1.46,3.31S56.21,22.93,56.55,22.34Z" fill="#220350"/><path d="M55.59,21.43a1.3,1.3,0,0,1,2.11,0c1,1.26-.74,3.69-2.11,3.79A29.61,29.61,0,0,1,55.59,21.43Z" fill="#9f4b47"/><path d="M62.12,61s-10.5,2.63-20,0c0,0-1.67-9.26-2.1-12A66.79,66.79,0,0,0,36,36.1a.5.5,0,0,1,.21-.63A20.42,20.42,0,0,1,43.43,33a21.07,21.07,0,0,1,2.84-.23s0-.66,0-1.61c0-.64-.05-1.41-.1-2.19a25.22,25.22,0,0,0-.33-3.17,9.84,9.84,0,0,0,7.92,1.93L54,31.12v.06l.14,1.4s1.7,0,3.69.15,4.47.51,5.58,1.23C67.89,36.81,62.12,61,62.12,61Z" fill="#9f4b47"/><path d="M55.35,17.77c.7.73.76,2.36.82,4.17.17,5.47-1.47,7.18-4.26,7.48s-5.72-.77-6.32-5.84c-.3-2.54-.62-4.89.3-6C47.26,16,53.2,15.53,55.35,17.77Z" fill="#b25c58"/><path d="M46,22.84s-.86-2.26-2.21-1.06.52,4.62,2.58,4.37C46.35,26.15,46.63,23.62,46,22.84Z" fill="#b25c58"/><path d="M30.39,82.92s.12,1.34.09,3-.14,5.34.45,6.43a2.36,2.36,0,0,0,.44.38l.14.08a3,3,0,0,0,1.08.42l.11,0a3.32,3.32,0,0,0,1.08,0l.1,0a4,4,0,0,0,1-.34A23.31,23.31,0,0,1,35.31,88s.58,2.24,1.28,2.42l.48-.15s-.35-2.48-.4-3.59a6.94,6.94,0,0,0-2.35-4.54S31.38,81.23,30.39,82.92Z" fill="#b25c58"/><path d="M40.24,45.29c-.35,1.09-.8,2.55-1.29,4.17C37.37,54.71,35.38,61.69,35,63.84s-.32,12.77-.28,17c0,1.1,0,1.79,0,1.79-1.27,2.46-4.29,1.66-4.29,1.66s-.2-.88-.46-2.31c-.79-4.12-2.28-12.81-2-18.26.14-2.73,2.3-12.5,4.33-19.63,1.06-3.71,2.07-6.7,2.75-7.62A3.7,3.7,0,0,1,37.77,35C41.6,34.66,41.54,41.21,40.24,45.29Z" fill="#b25c58"/><path d="M44.4,22.81a1.85,1.85,0,0,1,.82.53,2.33,2.33,0,0,1,.6.77c0,.09-.09.15-.15.09s-.32-.36-.48-.53a1.07,1.07,0,0,1-.39.31c-.13.05-.22-.11-.17-.21a.9.9,0,0,1,.33-.31,6.5,6.5,0,0,1-.65-.49A.1.1,0,0,1,44.4,22.81Z" fill="#9f4b47"/><path d="M33.78,93.24l.1,0a38.36,38.36,0,0,1,.11-5s0,0-.06,0A12.11,12.11,0,0,0,33.78,93.24Z" fill="#753233"/><path d="M32.59,93.25l.11,0a38.33,38.33,0,0,1,.11-5s-.05,0-.05,0A11.92,11.92,0,0,0,32.59,93.25Z" fill="#753233"/><path d="M31.37,92.75l.14.08a39.61,39.61,0,0,1,.13-4.74s-.05,0-.06,0A11.66,11.66,0,0,0,31.37,92.75Z" fill="#753233"/><polygon points="42.41 144.25 47.23 144.37 47.33 135.23 42.72 135.1 42.41 144.25" fill="#b3b7e7" fill-rule="evenodd"/><polygon points="47.08 143.38 42.03 142.84 41.71 146.56 53.57 146.56 53.57 145.28 47.08 143.38" fill="#220350" fill-rule="evenodd"/><polygon points="59.84 144.25 64.66 144.37 66.33 134.75 61.71 134.62 59.84 144.25" fill="#b3b7e7" fill-rule="evenodd"/><polygon points="64.51 143.38 59.46 142.84 59.14 146.56 71 146.56 71 145.28 64.51 143.38" fill="#220350" fill-rule="evenodd"/><path d="M48.15,141.86l5-55.87,7.56,26.72a3.79,3.79,0,0,1,.11,1l-2.4,28.15h7.52l4.57-29a3.29,3.29,0,0,0,0-.77L65.13,70.33s-9.71,1-26,8.71l2.34,62.82Z" fill="#220350"/><path d="M82.52,30.82c-3.29.55-4.37-.93-4.37-.93C76.36,33.38,74.24,44,74.24,44L72,41.08s-6.38-7-8.79-7.84-9-.66-9-.66L54,31.18v-.06c-2.65.28-3.53,1.57-3.53,1.57-.76-.87-3.53-1.4-4.27-1.53,0,.95,0,1.61,0,1.61-.55,0-10.6-.11-12.69,5a68.21,68.21,0,0,0-3.19,10.65s-3.74,12.56-3.22,17,2.78,17,2.78,17a4.78,4.78,0,0,0,4.8-1.65l1.16-16.11L40,49c0,.17.38,17.88-.84,30a.26.26,0,0,0,.15.24c.55.75,2.9,3,11.67,4.62l2.21-4.32,2.35,4.32s7.54-2.87,9.86-7.28a1.16,1.16,0,0,0,.39-.92c-1.71-21-1-26.93-1-26.93l3.49,3.12a11.55,11.55,0,0,0,1.15,1l.12.11h0C73,55.67,76,54.69,76,54.69s4.36-.15,6.18-8.55A40.44,40.44,0,0,0,82.52,30.82Z" fill="#fff"/><path d="M38.67,77.54,40,49A56.16,56.16,0,0,0,41.8,33.09l2.51-.21.78-.06,8,18.12,3.49-18.37a5.09,5.09,0,0,1,1.67-.1,5.5,5.5,0,0,1,1.11.18l5.41,16.12,1.6,28.77Z" fill="#b3b7e7"/><path d="M45.09,32.82l8,18.12-7.18-7,1.59-2.35-2.61-.33s-.46-6.64-.55-8.42Z" fill="#796fbf"/><path d="M56.74,41.09l1.67,2.07-5.35,7.78,3.49-18.37a2.84,2.84,0,0,1,1.18-.15l1.21,8.42Z" fill="#796fbf"/><line x1="53.38" y1="51.58" x2="53.38" y2="76.57" fill="none" stroke="#8695c2" stroke-miterlimit="10" stroke-width="0.79"/><path d="M55.05,54.08a.54.54,0,0,0,0,1.08A.54.54,0,0,0,55.05,54.08Z" fill="#8695c2"/><path d="M55.37,60.37a.52.52,0,0,0,0,1A.52.52,0,0,0,55.37,60.37Z" fill="#8695c2"/><path d="M55.45,66.46a.61.61,0,0,0,0,1.22A.61.61,0,0,0,55.45,66.46Z" fill="#8695c2"/><path d="M192.79,83a45.23,45.23,0,0,1-3.39-9c-.05.65,2.27,1.71-3.2.91,0,0-4.94,8.65-7.83,31.85-.51,4.14-1.13,14.52-1.14,18.41s-.36,15.44-.3,15.47a7.05,7.05,0,0,1-.64,2.76,3.72,3.72,0,0,1-1.25,1c-1,.56-1.94,1.05-.85,1.63s5.55.13,5.59-.46.11-1.21.17-1.72a21,21,0,0,1,.53-2.87,113,113,0,0,0,4.37-20C185.91,111.18,194.41,86.45,192.79,83Z" fill="#ffab96"/><path d="M176.17,143.21a3.71,3.71,0,0,0,3.78.56l.17,2.67-8.92,0c-1.09-.59.09-.94.09-.94Z" fill="#a0a3a5"/><path d="M198.91,144.44c0-.4,0-.76,0-1.09a21.7,21.7,0,0,1,.19-2.92,116.06,116.06,0,0,0,2-20.38c-.1-9.8.38-8.32.57-12.79.43-9.66.34-19.72-1.36-25.44a38.47,38.47,0,0,1-1.9-10.23S196.67,75,189,74.9c0,0,2.53,27.85,2.73,32s1.83,14.46,2.29,18.32,2,15,1.2,18.2c-.07.3-.54.69-1.12,1.12a11.53,11.53,0,0,1-1,.67" fill="#ffab96"/><path d="M197.23,144.66c-.24-5-1-20.24-1.38-25.69-.48-6.54-.42-11.65-.42-11.65l6.23-.08v0c-.19,4.47-.67,3-.57,12.79a116.06,116.06,0,0,1-2,20.38,21.7,21.7,0,0,0-.19,2.92c0,.33,0,.69,0,1.09Z" fill="#f79d85"/><path d="M190,146.56c-1.14-.44,0-.94,0-.94a20.27,20.27,0,0,0,5.21-2.2,3.6,3.6,0,0,0,3.69-.07c0,.51,0,2.48,0,3.12Z" fill="#a0a3a5"/><path d="M202.09,108.91H177.62c-.22-5.59,1-15.53,7.37-34.2h14.33C205.15,83.27,202.09,108.91,202.09,108.91Z" fill="#a0a3a5"/><path d="M194.64,88.75c-.13-8.09-4-10.8-4.63-13.88l.12-.16h9.19c5.83,8.56,2.77,34.2,2.77,34.2h-6.72C195.21,105.46,194.75,95.38,194.64,88.75Z" fill="#909397"/><polygon points="195.46 48.15 190.94 49.17 188.86 40.3 193.33 39.09 195.46 48.15" fill="#ffab96"/><path d="M183.77,55.73l-8.37,1.68a2.46,2.46,0,0,1-2.61-.91h0a2.45,2.45,0,0,1,1.12-3.74l14.63-4.22Z" fill="#e8e8e8"/><path d="M177.65,40.54,179.33,42s-1.87,11.59-2.24,13.41S174.54,57,174.54,57a2.37,2.37,0,0,1-1.84-3Z" fill="#ffab96"/><path d="M190.14,45.42s-6.47,9.26-6.7,11.61l1.68,7,.78,5.53c-.92,1.77-2.42,5.33-.78,5.51h14.2c-.83-17.11,1.56-26.51-4.61-30.36C193.83,44.12,192.24,44.81,190.14,45.42Z" fill="#e8e8e8"/><polygon points="193.59 52.58 199.22 70.4 201.06 61.28 193.59 52.58" fill="#d2d2d2"/><path d="M189.11,46.92l-.34,9.37c2.93,6.19,1.34,18,1.34,18l-.1.62-4.89.16c-1.64-.18-.14-3.74.78-5.51L185.12,64l-1.68-7C183.62,55.27,187.28,49.64,189.11,46.92Z" fill="#fff"/><path d="M198,78.08l-1.45,2.33a2.26,2.26,0,0,0-.33,1.56l.58,3.78,1.39-.78,1.67-3a3.43,3.43,0,0,0,.31-2.34l-.27-1.38Z" fill="#ffab96"/><path d="M202.37,68.51c-1.74,3.78-2.46,5.89-4.3,9.65l1.37,1.72c4.82-7,7.57-8.91,7.94-12.51C203.29,62.62,207.7,66.39,202.37,68.51Z" fill="#ffab96"/><path d="M177.65,40.54l2.46-1.21a2.31,2.31,0,0,1,1.59-.17l2.15.56a1.11,1.11,0,0,1,.63,1.71h0l-3.18,1.35a3.46,3.46,0,0,1-2.36.07l-1.35-.42Z" fill="#ffab96"/><path d="M195.06,35.23c-.11-3.61-.26-4.25-3.23-5.36-3.05-.84-1.19.61-4.53.78-2,.11-2.29,1.86-2.35,4.13A3.13,3.13,0,0,1,183.63,37c-.27.5.54,1,.75,1.31s0,2.59.72,3.07a21.12,21.12,0,0,0,4,.84C193,41,193,33.68,193,33.68,193.44,32.51,195.09,36.19,195.06,35.23Z" fill="#ffab96"/><circle cx="199.55" cy="34.19" r="3.54" fill="none" stroke="#c69c6d" stroke-miterlimit="10" stroke-width="0.79"/><circle cx="197.92" cy="33.53" r="2.8" fill="none" stroke="#c69c6d" stroke-miterlimit="10" stroke-width="0.79"/><circle cx="198.38" cy="32.21" r="2.8" fill="none" stroke="#c69c6d" stroke-miterlimit="10" stroke-width="0.79"/><circle cx="199.08" cy="36.43" r="2.8" fill="none" stroke="#c69c6d" stroke-miterlimit="10" stroke-width="0.79"/><circle cx="198.28" cy="34.43" r="3.35" fill="#c69c6d"/><path d="M192.19,28.53s6.82.94,3.7,8.94a7.34,7.34,0,0,1-1.65,2.58,2.06,2.06,0,0,1-2,.53,1.65,1.65,0,0,1-1.13-.75c-1.58-3.32-1.28-2.53-2-7.81l-2.32-1.47-.35-.81Z" fill="#c69c6d"/><path d="M190.33,38s2.37-4.71.84-6.36l-4.79-1.9S186.08,35.24,190.33,38Z" fill="#c69c6d"/><polygon points="188.67 45.48 195.23 43.2 196.36 45.11 187.37 48.18 188.67 45.48" fill="#fff"/><path d="M207.55,67.46c-1.54,1.69-3.32,2.39-5.46,1.62L194.9,55.41c-.71-1.08-1.61-2.65-1.29-3.88.41-1.6,2.08-2.87,4.7-.56C200.56,53,205.51,62.33,207.55,67.46Z" fill="#e8e8e8"/><path d="M189.74,36.92c-.44,1-.21,2.11.52,2.35s1.69-.41,2.14-1.47.22-2.11-.51-2.36S190.19,35.86,189.74,36.92Z" fill="#ffab96"/><g style="mix-blend-mode:multiply"><path d="M148.76,35.84a7.54,7.54,0,0,0,4.94,1.35" fill="none" stroke="#ff52be" stroke-linecap="round" stroke-linejoin="round" stroke-width="1.57"/><path d="M154,37.56a11.59,11.59,0,0,0-3.24,3.94" fill="none" stroke="#ff52be" stroke-linecap="round" stroke-linejoin="round" stroke-width="1.57"/><path d="M99.82,52c1.7-2.62,5.49-4.19,8.78-4.58,5.24-.63,16.57,5,24.56,1.88,8.24-3.18,6.18-8,20.54-12.1" fill="none" stroke="#ff52be" stroke-linecap="round" stroke-linejoin="round" stroke-width="1.57"/><path d="M95.37,12.78a14.37,14.37,0,0,0-5.6,5.85,11.78,11.78,0,0,0-.85,8.49,10.9,10.9,0,0,0,8.39,7.19,14.41,14.41,0,0,0,8.18-.75,7.93,7.93,0,0,0,3.13-2.08,10.17,10.17,0,0,0,1.95-4.11,15,15,0,0,0,.55-5,11.24,11.24,0,0,0-6.09-9,13,13,0,0,0-10.18-.2" fill="none" stroke="#c148f7" stroke-linecap="round" stroke-linejoin="round" stroke-width="1.57"/><path d="M101.07,12.17l-.62,12.49" fill="none" stroke="#c148f7" stroke-linecap="round" stroke-linejoin="round" stroke-width="1.57"/><path d="M100.48,24.8a34.43,34.43,0,0,0,10.11-2.44" fill="none" stroke="#c148f7" stroke-linecap="round" stroke-linejoin="round" stroke-width="1.57"/><path d="M100.67,25q3.63,3.39,7.47,6.45" fill="none" stroke="#c148f7" stroke-linecap="round" stroke-linejoin="round" stroke-width="1.57"/><path d="M101.47,58.73c.44,7.55.58,4.47.43,12" fill="none" stroke="#a428ae" stroke-linecap="round" stroke-linejoin="round" stroke-width="1.57"/><path d="M148.18,46.51c.44,7.55.59,16.69.44,24.25" fill="none" stroke="#a428ae" stroke-linecap="round" stroke-linejoin="round" stroke-width="1.57"/><path d="M110,52.47V70.08" fill="none" stroke="#a428ae" stroke-linecap="round" stroke-linejoin="round" stroke-width="1.57"/><path d="M116.54,54.21V71" fill="none" stroke="#a428ae" stroke-linecap="round" stroke-linejoin="round" stroke-width="1.57"/><path d="M122.28,56.59V71.22" fill="none" stroke="#a428ae" stroke-linecap="round" stroke-linejoin="round" stroke-width="1.57"/><path d="M128.8,71V56.31" fill="none" stroke="#a428ae" stroke-linecap="round" stroke-linejoin="round" stroke-width="1.57"/><path d="M135.07,54.75v16" fill="none" stroke="#a428ae" stroke-linecap="round" stroke-linejoin="round" stroke-width="1.57"/><path d="M142.63,50.52V70.77" fill="none" stroke="#a428ae" stroke-linecap="round" stroke-linejoin="round" stroke-width="1.57"/><path d="M110.19,13.37h20.89" fill="none" stroke="#889ee9" stroke-linecap="round" stroke-linejoin="round" stroke-width="1.37"/><path d="M113,18.36h18.13" fill="none" stroke="#889ee9" stroke-linecap="round" stroke-linejoin="round" stroke-width="1.37"/><path d="M117.09,23.35h14" fill="none" stroke="#889ee9" stroke-linecap="round" stroke-linejoin="round" stroke-width="1.37"/><path d="M95.26,72.2h57.09" fill="none" stroke="#889ee9" stroke-linecap="round" stroke-linejoin="round" stroke-width="1.37"/><path d="M97.3,67.49l-10.83-.08" fill="none" stroke="#889ee9" stroke-linecap="round" stroke-linejoin="round" stroke-width="1.37"/><path d="M97.51,63.2H81.84" fill="none" stroke="#889ee9" stroke-linecap="round" stroke-linejoin="round" stroke-width="1.37"/><path d="M97.79,59H92.72" fill="none" stroke="#889ee9" stroke-linecap="round" stroke-linejoin="round" stroke-width="1.37"/><path d="M154.23,49.85l11.84.08" fill="none" stroke="#889ee9" stroke-linecap="round" stroke-linejoin="round" stroke-width="1.37"/><path d="M154,54.14h12.15" fill="none" stroke="#889ee9" stroke-linecap="round" stroke-linejoin="round" stroke-width="1.37"/><path d="M153.7,58.34h5.53" fill="none" stroke="#889ee9" stroke-linecap="round" stroke-linejoin="round" stroke-width="1.37"/><path d="M148.35,31.07Q153.77,21.52,160,12.5" fill="none" stroke="#889ee9" stroke-linecap="round" stroke-linejoin="round" stroke-width="1.37"/><path d="M160.34,11.89a111,111,0,0,0,10.29,19.32" fill="none" stroke="#889ee9" stroke-linecap="round" stroke-linejoin="round" stroke-width="1.37"/><path d="M149.21,31.66l21.44-.22" fill="none" stroke="#889ee9" stroke-linecap="round" stroke-linejoin="round" stroke-width="1.37"/><path d="M149.21,25.12l21.44-.22" fill="none" stroke="#a428ae" stroke-linecap="round" stroke-linejoin="round" stroke-width="1.57" style="mix-blend-mode:multiply"/><path d="M149.21,19l21.44-.22" fill="none" stroke="#ff52be" stroke-linecap="round" stroke-linejoin="round" stroke-width="1.57" style="mix-blend-mode:multiply"/></g><line x1="208.62" y1="146.56" x2="3.21" y2="146.56" fill="none" stroke="#fff" stroke-miterlimit="10" stroke-width="2"/><path d="M208.45,143.18a3.39,3.39,0,1,1-3.39,3.38A3.38,3.38,0,0,1,208.45,143.18Z" fill="#fff"/><circle cx="3.38" cy="146.56" r="3.38" fill="#fff"/></g></svg>