<svg xmlns="http://www.w3.org/2000/svg" viewBox="0 0 84.89 94.2"><polygon points="75.92 41.76 69.31 41.76 64.77 28.47 71.39 28.47 75.92 41.76" fill="#707479" fill-rule="evenodd"/><polygon points="21.56 84.61 26.54 86.99 29.92 83.13 24.95 80.75 21.56 84.61" fill="#7e4183" fill-rule="evenodd"/><path d="M29.38,91.94h2.44V94.2H27.89l-8.36-7.43L21.6,84.1l5.19,2.6Z" fill="#313545" fill-rule="evenodd"/><path d="M48.89,65.68,28,86.32l-5.28-4.75C27.29,76,34.48,63.42,41.11,60.89Z" fill="#313545" fill-rule="evenodd"/><path d="M12.84,47.57S11.25,60,21.67,61.45s30.69.89,30.69.89,1.74-8.92-4.66-10.45C39.61,50,29.92,48.65,29.92,48.65Z" fill="#434655" fill-rule="evenodd"/><path d="M19.75,17.07,22.26,9.2l5.53,2.09-1.06,7.5c-1.65-1.88-4.16-2.1-7-1.72Z" fill="#9c4345" fill-rule="evenodd"/><path d="M24.61,11.67a8,8,0,0,0,2.45,4.76l.22-1.56.33-2.31A4.82,4.82,0,0,1,24.61,11.67Z" fill="#843436" fill-rule="evenodd"/><path d="M20.1,4.63c.75-4.23,4.46-4.81,8.11-4,3.44.76,3.72,3.64,3.39,6a3.3,3.3,0,0,0,1,2.47c.2.57-.73,1-1,1.22s-.07,3-.85,3.5c-2.13,1.27-5.61-.21-5.61-.21C21.37,11.64,19.36,8.87,20.1,4.63Z" fill="#9c4345"/><path d="M25.71,8.19,25.34,7S23,9.79,21.47,11.67c-1.11-2.88-2.26-4-1.72-7C20.49.4,24.59-.61,28.21.32c3.8,1,1.13,1.85-1.13,2s-2.15,1.39-1.9,2.16,2,1.31,1.78,3.84Z" fill="#220350"/><path d="M23.65,6.15a1.69,1.69,0,0,1,1.92,1.34,1.69,1.69,0,0,1-.84,2.2,1.68,1.68,0,0,1-1.92-1.35,1.68,1.68,0,0,1,.84-2.19Z" fill="#9c4345" fill-rule="evenodd"/><rect x="46" y="40.45" width="20.7" height="1.31" transform="translate(112.7 82.21) rotate(180)" fill="#909397"/><rect y="41.76" width="84.89" height="2.48" rx="0.66" fill="#fff"/><path d="M32.64,30l-.71,19s-6.37,3.08-19.49-.45c-.91-.66-1-1.85-.2-3.71L12,32.24a30.24,30.24,0,0,1,1-8.63c1-3.5,2.72-7.31,5.83-7.87s5-.31,8.58.49a10.51,10.51,0,0,1,8.12,9Z" fill="#796fbf" fill-rule="evenodd"/><path d="M54.81,37.65s1.76-1.65,3.12-1.19c.65.21,1.65.08,2.62.43a8.61,8.61,0,0,1,2.37,1.74,1.69,1.69,0,0,1-1,1.83c-.43.15-1.94-.83-1.94-.83a10.54,10.54,0,0,1-5,1.17l-3.14-.15-1.45-1.77Z" fill="#9c4345" fill-rule="evenodd"/><path d="M34.05,21.22l8.5,13.28,10.8,1.41A1.93,1.93,0,0,1,55,37.83v3.28l-14.76.45L30.61,36Z" fill="#796fbf" fill-rule="evenodd"/><polygon points="55.07 91.79 60.09 91.91 54.7 78.43 50.08 79.77 55.07 91.79" fill="#7e4183" fill-rule="evenodd"/><polygon points="59.94 90.88 54.35 90.32 54.35 94.2 66.7 94.2 66.7 92.86 59.94 90.88" fill="#313545" fill-rule="evenodd"/><path d="M52.41,57.56l7.62,31-7.92.26c-3.73-9.89-7.72-18.17-8.48-26.35Z" fill="#434655" fill-rule="evenodd"/><path d="M23.2,59.87V87.14a1.49,1.49,0,0,1-1.49,1.48h0a1.48,1.48,0,0,1-1.48-1.48V59.87Z" fill="#909397"/><path d="M21.87,73.51h0a3.67,3.67,0,0,1-3.66-3.66V65a3.67,3.67,0,0,1,3.66-3.66h0A3.66,3.66,0,0,1,25.53,65v4.84A3.67,3.67,0,0,1,21.87,73.51Z" fill="#707479" fill-rule="evenodd"/><circle cx="21.92" cy="91.91" r="1.9" fill="#909397"/><circle cx="32.82" cy="91.91" r="1.9" fill="#909397"/><circle cx="11.02" cy="91.91" r="1.9" fill="#909397"/><path d="M34.4,88.62H9.45a1.2,1.2,0,0,1-1.2-1.2h0a1.2,1.2,0,0,1,1.2-1.2h25a1.2,1.2,0,0,1,1.2,1.2h0A1.2,1.2,0,0,1,34.4,88.62Z" fill="#909397"/><path d="M33.54,65.77H9.79a3.43,3.43,0,0,1-3.43-3.43h0A3.44,3.44,0,0,1,9.79,58.9H33.54A3.43,3.43,0,0,1,37,62.34h0A3.42,3.42,0,0,1,33.54,65.77Z" fill="#fff" fill-rule="evenodd"/><path d="M32.32,38.59l-5.17-4.81V49.91A10.88,10.88,0,0,0,31.93,49c.85-.67,1.15-1.42.1-2.69Z" fill="#675fa3" fill-rule="evenodd"/><path d="M80.7,34.18H51.86A2.12,2.12,0,0,1,49.75,32l.84-18.85a2.11,2.11,0,0,1,2.11-2H81.54a2.11,2.11,0,0,1,2.11,2.21l-.84,18.85A2.11,2.11,0,0,1,80.7,34.18Z" fill="#909397" fill-rule="evenodd"/><polygon points="50.59 13.12 49.75 31.97 82.81 32.16 83.65 13.31 50.59 13.12" fill="#fff" fill-rule="evenodd"/><polygon points="78.65 29.02 79.19 16.29 54.76 16.29 54.21 29.02 78.65 29.02" fill="none" stroke="#c1c4eb" stroke-miterlimit="10" stroke-width="0.82"/><line x1="79.11" y1="18.82" x2="54.68" y2="18.82" fill="none" stroke="#c1c4eb" stroke-miterlimit="10" stroke-width="0.82"/><line x1="79" y1="21.37" x2="54.56" y2="21.37" fill="none" stroke="#c1c4eb" stroke-miterlimit="10" stroke-width="0.82"/><line x1="78.88" y1="23.92" x2="54.44" y2="23.92" fill="none" stroke="#c1c4eb" stroke-miterlimit="10" stroke-width="0.82"/><line x1="78.76" y1="26.47" x2="54.33" y2="26.47" fill="none" stroke="#c1c4eb" stroke-miterlimit="10" stroke-width="0.82"/><line x1="58.05" y1="16.26" x2="57.47" y2="29.02" fill="none" stroke="#c1c4eb" stroke-miterlimit="10" stroke-width="0.82"/><line x1="60.19" y1="16.26" x2="59.61" y2="29.02" fill="none" stroke="#c1c4eb" stroke-miterlimit="10" stroke-width="0.82"/><line x1="69.6" y1="16.26" x2="69.02" y2="29.02" fill="none" stroke="#c1c4eb" stroke-miterlimit="10" stroke-width="0.82"/><line x1="76.9" y1="16.26" x2="76.32" y2="29.02" fill="none" stroke="#c1c4eb" stroke-miterlimit="10" stroke-width="0.82"/></svg>