<svg xmlns="http://www.w3.org/2000/svg" xmlns:xlink="http://www.w3.org/1999/xlink" viewBox="0 0 274.65 245.97"><defs><linearGradient id="a" x1="136.44" y1="129.48" x2="136.44" y2="255.83" gradientUnits="userSpaceOnUse"><stop offset="0" stop-color="#a441cb"/><stop offset="1" stop-color="#6c40b9" stop-opacity="0"/></linearGradient><linearGradient id="b" x1="221.68" y1="-16.32" x2="34.05" y2="171.31" gradientUnits="userSpaceOnUse"><stop offset="0" stop-color="#fff"/><stop offset="1" stop-color="#fff" stop-opacity="0"/></linearGradient></defs><g style="isolation:isolate"><rect x="1.43" y="130.56" width="270.02" height="115.42" fill="url(#a)"/><rect x="113.98" width="105.14" height="77.61" fill="url(#b)"/><g style="mix-blend-mode:multiply"><path d="M140.82,23.88v6.63" fill="none" stroke="#b5b5d8" stroke-linecap="round" stroke-linejoin="round" stroke-width="1.09"/><path d="M140.82,31.11l7.59-.77" fill="none" stroke="#b5b5d8" stroke-linecap="round" stroke-linejoin="round" stroke-width="1.09"/><path d="M140.82,24.46l7.57-.3" fill="none" stroke="#b5b5d8" stroke-linecap="round" stroke-linejoin="round" stroke-width="1.09"/><path d="M149.32,24.19l-.26,5.12" fill="none" stroke="#b5b5d8" stroke-linecap="round" stroke-linejoin="round" stroke-width="1.09"/><path d="M145.21,30.5a22,22,0,0,1,.26,5.43" fill="none" stroke="#b5b5d8" stroke-linecap="round" stroke-linejoin="round" stroke-width="1.09"/><path d="M158.89,52.3l-3.21.24a.69.69,0,0,0-.49.16.76.76,0,0,0-.13.56l.07,2.2a2.27,2.27,0,0,0,.34,1.39c.5.62,1.43.51,2.2.33l1.86-.41a.86.86,0,0,0,.49-.23,1,1,0,0,0,.13-.68l-.22-3.39" fill="none" stroke="#b5b5d8" stroke-linecap="round" stroke-linejoin="round" stroke-width="1.09"/><path d="M160.34,54.66l5.25,0" fill="none" stroke="#b5b5d8" stroke-linecap="round" stroke-linejoin="round" stroke-width="1.09"/><path d="M166.4,52.48l-.28,3.61" fill="none" stroke="#b5b5d8" stroke-linecap="round" stroke-linejoin="round" stroke-width="1.09"/><path d="M166.46,57h3.79" fill="none" stroke="#b5b5d8" stroke-linecap="round" stroke-linejoin="round" stroke-width="1.09"/><path d="M166.17,51.88h4.1a1,1,0,0,1,.7.19,1,1,0,0,1,.17.86l-.38,3.77" fill="none" stroke="#b5b5d8" stroke-linecap="round" stroke-linejoin="round" stroke-width="1.09"/><path d="M171.12,54.32a12,12,0,0,0,4.09.25" fill="none" stroke="#b5b5d8" stroke-linecap="round" stroke-linejoin="round" stroke-width="1.09"/><path d="M175.79,51.28v4.81" fill="none" stroke="#b5b5d8" stroke-linecap="round" stroke-linejoin="round" stroke-width="1.09"/><path d="M175.5,57.23l4.95-.29" fill="none" stroke="#b5b5d8" stroke-linecap="round" stroke-linejoin="round" stroke-width="1.09"/><path d="M180.75,56.7a20.75,20.75,0,0,1-.3-4.52" fill="none" stroke="#b5b5d8" stroke-linecap="round" stroke-linejoin="round" stroke-width="1.09"/><path d="M180.17,51.61l-4.38.31" fill="none" stroke="#b5b5d8" stroke-linecap="round" stroke-linejoin="round" stroke-width="1.09"/><path d="M186.87,57.8h10.2" fill="none" stroke="#b5b5d8" stroke-linecap="round" stroke-linejoin="round" stroke-width="1.09"/><path d="M186.87,54q5.69-.21,11.37.11" fill="none" stroke="#b5b5d8" stroke-linecap="round" stroke-linejoin="round" stroke-width="1.09"/><path d="M129.15,26h6.71" fill="none" stroke="#b5b5d8" stroke-linecap="round" stroke-linejoin="round" stroke-width="1.09"/><path d="M130.3,29.17l5.57-.25" fill="none" stroke="#b5b5d8" stroke-linecap="round" stroke-linejoin="round" stroke-width="1.09"/></g><g style="mix-blend-mode:multiply"><path d="M123.62,14.83q40.37.87,80.73.77" fill="none" stroke="#8786c0" stroke-linecap="round" stroke-linejoin="round" stroke-width="1.09"/><path d="M133.68,37.72c5.93.16,23.38,0,29.28-.62" fill="none" stroke="#8786c0" stroke-linecap="round" stroke-linejoin="round" stroke-width="1.09"/><path d="M163.9,32.31l-.3,7.23" fill="none" stroke="#8786c0" stroke-linecap="round" stroke-linejoin="round" stroke-width="1.09"/><path d="M163.55,40.44h7.58" fill="none" stroke="#8786c0" stroke-linecap="round" stroke-linejoin="round" stroke-width="1.09"/><path d="M163.84,32a21.16,21.16,0,0,0,7.57,0" fill="none" stroke="#8786c0" stroke-linecap="round" stroke-linejoin="round" stroke-width="1.09"/><path d="M172,32v7.53" fill="none" stroke="#8786c0" stroke-linecap="round" stroke-linejoin="round" stroke-width="1.09"/><path d="M157.14,38.18c-.11,4-.18,8.6-.29,12.56" fill="none" stroke="#8786c0" stroke-linecap="round" stroke-linejoin="round" stroke-width="1.09"/><path d="M134,37.42a49.88,49.88,0,0,1-.23,7.23" fill="none" stroke="#8786c0" stroke-linecap="round" stroke-linejoin="round" stroke-width="1.09"/><path d="M128.58,45.56h7.86" fill="none" stroke="#8786c0" stroke-linecap="round" stroke-linejoin="round" stroke-width="1.09"/><path d="M137,45.26a18.65,18.65,0,0,1,.29,5.11" fill="none" stroke="#8786c0" stroke-linecap="round" stroke-linejoin="round" stroke-width="1.09"/><path d="M128.43,45.41c.1,1.4,0,5.06.15,6.47" fill="none" stroke="#8786c0" stroke-linecap="round" stroke-linejoin="round" stroke-width="1.09"/><path d="M128.57,52.49a14.76,14.76,0,0,0,6.41.25" fill="none" stroke="#8786c0" stroke-linecap="round" stroke-linejoin="round" stroke-width="1.09"/><path d="M187.32,45.11A11.57,11.57,0,0,0,190.79,42a2.73,2.73,0,0,0,.69-1.72c0-.63-.6-1.26-1.19-1.1-.44.11-.69.58-.87,1a6.19,6.19,0,0,0-.59,3.29,2.92,2.92,0,0,0,2,2.47,3.19,3.19,0,0,0,1.62-.07,7.2,7.2,0,0,0,5.13-6.37,1.22,1.22,0,0,0-.36-1.12c-.65-.43-1.3.55-1.5,1.32-.39,1.54-.65,3.49.59,4.44,1.09.84,2.62.31,3.86-.24" fill="none" stroke="#8786c0" stroke-linecap="round" stroke-linejoin="round" stroke-width="1.09"/><path d="M145.47,62.72h10.2" fill="none" stroke="#8786c0" stroke-linecap="round" stroke-linejoin="round" stroke-width="1.09"/><path d="M145.47,66l9.05-.07" fill="none" stroke="#8786c0" stroke-linecap="round" stroke-linejoin="round" stroke-width="1.09"/><path d="M145.47,69.73a67.39,67.39,0,0,1,8.76-.18" fill="none" stroke="#8786c0" stroke-linecap="round" stroke-linejoin="round" stroke-width="1.09"/><path d="M140.61,9.46a23.41,23.41,0,0,1,11.89-3c.75,0,1.68.2,1.91,1a1.66,1.66,0,0,1-.16,1.13c-.8,1.76-3.58,3.6-4.71,2.33s7.37-5.79,11-4c1.82.89-1,6.41-2.94,5.06s4.09-4.18,6.46-4.71c1.46-.32,3.33-.36,4,1,1,2.24-4,4.24-4.29,2.6S177.37,8,183.68,9.36" fill="none" stroke="#8786c0" stroke-linecap="round" stroke-linejoin="round" stroke-width="1.09"/></g><path d="M48.69,73.89l2.7,1.33C43.45,83.67,43.57,85.14,39.53,88l-2.62-6.18Z" fill="#ed6c6c"/><path d="M48.74,73.81l3.45-1.46a3.09,3.09,0,0,1,2.18-.1l2.89.92A1.52,1.52,0,0,1,58,75.55h0l-4.45,1.6a4.77,4.77,0,0,1-3.22-.08l-1.81-.68Z" fill="#ed6c6c"/><path d="M36.88,71.81l3.1,10c.48.17,1.77,6.17-1,6.69,0,0-2.88.51-4-3.63a95.93,95.93,0,0,1-2-11.45Z" fill="#ed6c6c" fill-rule="evenodd"/><path d="M31.87,62.66s3.42,4,6.09,12.62l-5.29,3Z" fill="#e8e8e8" fill-rule="evenodd"/><circle cx="24.88" cy="127.36" r="1.69" fill="#b3b7e7"/><circle cx="34.57" cy="127.36" r="1.69" fill="#b3b7e7"/><circle cx="15.19" cy="127.36" r="1.69" fill="#b3b7e7"/><path d="M24.7,122.63h0a1.32,1.32,0,0,1-1.32-1.32V97.08a1.32,1.32,0,0,1,1.32-1.32h0A1.32,1.32,0,0,1,26,97.08v24.23A1.32,1.32,0,0,1,24.7,122.63Z" fill="#b3b7e7"/><path d="M24.84,110.34h0a3.26,3.26,0,0,1-3.25-3.25v-4.3a3.26,3.26,0,0,1,3.25-3.25h0a3.26,3.26,0,0,1,3.25,3.25v4.3A3.26,3.26,0,0,1,24.84,110.34Z" fill="#989dde" fill-rule="evenodd"/><path d="M36,124H13.79A1.05,1.05,0,0,1,12.73,123h0a1.06,1.06,0,0,1,1.06-1.07H36A1.07,1.07,0,0,1,37,123h0A1.06,1.06,0,0,1,36,124Z" fill="#b3b7e7"/><path d="M14.72,105.67h22A3.69,3.69,0,0,0,40.42,102h0a3.69,3.69,0,0,0-3.69-3.69h-22A3.7,3.7,0,0,0,11,102h0A3.7,3.7,0,0,0,14.72,105.67Z" fill="#089cef"/><rect x="7.28" y="66.63" width="20.64" height="26.82" rx="2.34" fill="#089cef"/><polygon points="50.48 126.91 54.94 127.02 54.11 113.63 49.84 113.51 50.48 126.91" fill="#ed6c6c" fill-rule="evenodd"/><polygon points="54.81 126.1 50.13 125.6 49.84 129.05 60.82 129.05 60.82 127.86 54.81 126.1" fill="#220350" fill-rule="evenodd"/><path d="M32.67,91.2l18,2a5.11,5.11,0,0,1,4.75,4.87l.46,25.63-7-.21-2.4-23L28.09,98.2Z" fill="#95899b" fill-rule="evenodd"/><path d="M32.86,84.94c-6,1.78-12.87.62-16.66-2.16,0,0-.64,5.31-.85,7.08,0,.37-.09.75-.15,1.13V91c-.6,3.93,2.06,7.54,5.58,7.57l12.34.11a12.28,12.28,0,0,0,1.76-5.11C35,92.38,33.54,87.22,32.86,84.94Z" fill="#a0a3a5"/><path d="M30.83,48.73s4.43,2.1,1.84,5.18-2.43-5.18-2.43-5.18Z" fill="#220350" fill-rule="evenodd"/><polygon points="21.6 62.44 25.66 55.49 29.72 57.3 28.27 64.5 21.6 62.44 21.6 62.44" fill="#d66464" fill-rule="evenodd"/><path d="M32.59,52.44a4,4,0,0,0-4.41-3.82h0a4,4,0,0,0-3.63,4.17c.05,1.23.11,2.57.15,3.74a4.91,4.91,0,0,0,1.17,2.75,11,11,0,0,0,4.19,1.39c1.56-.15,2.73-3.13,2.67-4.69,0-1.08-.1-2.35-.14-3.54Z" fill="#ed6c6c" fill-rule="evenodd"/><path d="M31.57,47.21c-2.56-1.34-8.88-.39-8.39,4.13a32.28,32.28,0,0,0,1.46,5.19C25.92,55,27,50.9,27,50.9h4.56A2.3,2.3,0,0,0,34,49.07s-.31.24-1.36-.07l.81-.69Z" fill="#220350" fill-rule="evenodd"/><path d="M29,61.1c-1.73,2.63-5.89.25-6.57-.68a9.4,9.4,0,0,0-2.18,1.09C16.54,64,16.07,74.86,15.42,78.77c-.31,1.81-2,7.92-1.1,9.5.3.52,3.15.12,3.71.22,2.39.43,13.07,1.26,14.54-.38s.63-9.51.91-11.43c1.48-10.11-1.61-14-1.61-14Z" fill="#e8e8e8" fill-rule="evenodd"/><path d="M24.71,53.11a1.14,1.14,0,0,1,1.25,1c.17.67,0,2-.48,2.17s-1.24-1-1.41-1.69a1.14,1.14,0,0,1,.64-1.45Z" fill="#ed6c6c" fill-rule="evenodd"/><polygon points="31.41 126.91 35.88 127.02 40.97 113.63 36.7 113.51 31.41 126.91" fill="#ed6c6c" fill-rule="evenodd"/><polygon points="35.74 126.1 31.07 125.6 30.77 129.05 41.75 129.05 41.75 127.86 35.74 126.1" fill="#220350" fill-rule="evenodd"/><path d="M36.74,104.47,19.15,98.32l.94-3.15,11.16-2.78,10.38,5.18c2.25,1,4.26,4.5,3.06,7L38.1,123.7l-7-.21Z" fill="#a0a3a5" fill-rule="evenodd"/><path d="M27.38,91.2l4.69,2.5s3.07,3.07,1,4.22-2.73-.53-3.11-1-2.17-.37-3.92-3.68Z" fill="#ed6c6c" fill-rule="evenodd"/><path d="M27.67,94.66l.42-3.13L15.86,85.61l.2-11.92L9.54,76.55v9.14a6.33,6.33,0,0,0,3.08,5.45Z" fill="#ed6c6c" fill-rule="evenodd"/><path d="M20.2,61.51S9,64.77,8.64,78.29H18.5Z" fill="#e8e8e8" fill-rule="evenodd"/><path d="M58.74,83.71H79.85l6.37-14.19H65.59a.75.75,0,0,0-.68.44Z" fill="#fff" fill-rule="evenodd"/><path d="M59.56,83.71H80.67l6.08-13.54a.47.47,0,0,0-.43-.65H66.23a.46.46,0,0,0-.43.27Z" fill="#b3b7e7" fill-rule="evenodd"/><path d="M72.53,76.7c-.25.89.43,1.61,1.53,1.61A2.57,2.57,0,0,0,76.5,76.7c.25-.88-.43-1.6-1.53-1.6A2.58,2.58,0,0,0,72.53,76.7Z" fill="#fff" fill-rule="evenodd"/><path d="M79.85,83.71H47a1.11,1.11,0,0,0-1.1,1.11h0a1.1,1.1,0,0,0,1.1,1.1H79.85Z" fill="#b3b7e7" fill-rule="evenodd"/><path d="M23.8,87.65H86.92A1.11,1.11,0,0,0,88,86.54h0a1.11,1.11,0,0,0-1.1-1.1H23.8a1.11,1.11,0,0,0-1.1,1.1h0A1.11,1.11,0,0,0,23.8,87.65Z" fill="#fff" fill-rule="evenodd"/><path d="M209.24,31.28a28.72,28.72,0,0,0-3.12.14c-1.76.19-4.48-1.3-5.18-1.8a2.7,2.7,0,0,1,0-.81l0-.07a2.73,2.73,0,0,1,.32-.64,16.07,16.07,0,0,0,3.47.09s-1.51-.59-1.57-1.1l.14-.32s1.7.46,2.47.59a12.38,12.38,0,0,1,3.24,1S210.51,30.74,209.24,31.28Z" fill="#9c4345"/><path d="M210.37,46.62c1,4.39,7,2.83,5.22-2.24-2.17-6.34-6.26-15.51-6.26-15.51l-2.06,2.24C206.88,30.28,207.91,35.4,210.37,46.62Z" fill="#9c4345"/><path d="M225.61,37s-13.31,4.5-14.32,9.66c-1.16,5.93,12.23,2.83,14.52-2.14C227.8,40.22,228.58,36.85,225.61,37Z" fill="#fff"/><path d="M243.48,36.89S254.08,44.6,259.09,55a1.91,1.91,0,0,1-.22,1.86c-1.14,1.44-3.33,2.15-13.15,5.46-.62.21-.49,2.24-.66,3.94a.88.88,0,0,1-1.75,0l-.6-4.31s5.79-5,11.16-7c0,0-6.77-5.57-12.5-9.74C238.57,43.22,240.42,35.44,243.48,36.89Z" fill="#9c4345"/><path d="M242.9,126.94c0-.38,0-.74,0-1.07A23.14,23.14,0,0,1,243,123a121.69,121.69,0,0,0,1.22-20c-.37-9.6.11-8.15.16-12.52.11-9.47.31-19.6-1.39-25.2C241,59,241.39,55.23,241.39,55.23S238.92,59,232,58.86c0,0-.35,10.47,2.21,11.65,0,0,.86,15.61,1.16,19.68s2.06,14.16,2.57,17.94,2.26,14.67,1.6,17.82c-.06.29-.47.68-1,1.09a10.24,10.24,0,0,1-.91.66" fill="#9c4345"/><path d="M235,129c-1.05-.42-.05-.92-.05-.92,1.19-.27,2.84-.39,3.65-1.06a9.74,9.74,0,0,0,4.3-1.17c0,.51,0,2.43.08,3.06Z" fill="#3b2645"/><path d="M232.28,57.38a3.86,3.86,0,0,0,.07.46A1,1,0,0,0,232.28,57.38Z" fill="#9c4345"/><path d="M235.24,66.77a44.83,44.83,0,0,1-2.89-8.83c-.06.64-.85,1.67-5.77.89,0,0-5.14,12.1-4.74,31.19.08,4.07-1.28,14.21-1.35,18s-.6,15.12-.55,15.14a7.34,7.34,0,0,1-.62,2.71,3.57,3.57,0,0,1-1.14.94c-.91.54-1.77,1-.8,1.59s5,.14,5.05-.45.11-1.18.18-1.68a21.5,21.5,0,0,1,.53-2.81,121.38,121.38,0,0,0,4.29-19.56c1.11-9.54,2.49-8.55,3.19-12.87C233.18,75.24,236.63,70.17,235.24,66.77Z" fill="#9c4345"/><path d="M218.18,126.83a10,10,0,0,0,4.43-.54l.11,2.61-8,0c-1-.57.09-.92.09-.92Z" fill="#3b2645"/><path d="M241.32,57.42c-8.45,4.27-14.74,1.34-14.74,1.34s-.46-9.87-1.25-12.08a8.16,8.16,0,0,1-.28-2.32,58,58,0,0,1,.56-7.33,9,9,0,0,1,2.52-.76l.45-.07c1.44-.22,2.75-.28,2.75-.28l.14-1.54.11-1,.16-1.69c.22-2.23,4.79-1.27,4.79-1.27s0,.22,0,.58v4.9a11.29,11.29,0,0,0,2.28.26,2.73,2.73,0,0,1,.41,0,12.15,12.15,0,0,1,3.62.63C243.82,37.44,240.76,55,241.32,57.42Z" fill="#9c4345"/><path d="M236.54,31v1.64a7.32,7.32,0,0,1-5.07,1.77l.11-1,.16-1.69C232.69,30.45,235.56,30.81,236.54,31Z" fill="#753233"/><path d="M229.83,23.2a7.11,7.11,0,0,0-.7,3.53c-.14,4.62,2.09,6.32,3.6,6.32a5.14,5.14,0,0,0,5.34-4.94,10.56,10.56,0,0,0-.25-5.05C236.78,20.74,232,20.15,229.83,23.2Z" fill="#9c4345"/><path d="M226.58,58.76s-5.79,6.88-5.33,36c0,0-.93,8.23-1.2,13.61,0,0,13.19,3.07,25-.46,0,0-.35-7.11-.17-12.5s1.22-25.45-3.34-36.69A36,36,0,0,1,226.58,58.76Z" fill="#220350"/><path d="M243.48,36.89a51.21,51.21,0,0,1-.44,8.27c-.61,3.94-1,4.78-.61,7.43a15.75,15.75,0,0,1-.91,6.17s-7.76,3.16-14.94,0c0,0-1.22-4.17-.87-5.75a8.67,8.67,0,0,0-.67-5c-.64-1.65-1.47-4.24-.63-6.08a11.37,11.37,0,0,0,.63-4.67S234.82,34,243.48,36.89Z" fill="#fff"/><path d="M242.87,36.42A33.34,33.34,0,0,1,253.39,45c4.53,5.7,4.6,7.09,6.2,8.07s-2.32,3.32-5.72,2-11.6-8.86-11.6-8.86S239.22,36.45,242.87,36.42Z" fill="#fff"/><path d="M226,38.41a0,0,0,0,0-.06,0,6.33,6.33,0,0,0-.85,2.29c-.33,1-.77,2-1.13,3a.12.12,0,0,0,.22.09A22.4,22.4,0,0,0,225.36,41,5.34,5.34,0,0,0,226,38.41Z" fill="#b8c3e3"/><path d="M242.22,40.43a15.69,15.69,0,0,0-.11-2.38,0,0,0,0,0,0,0,8.91,8.91,0,0,0,.17,5.16c0,.15.3.13.28,0C242.43,42.25,242.27,41.35,242.22,40.43Z" fill="#b8c3e3"/><path d="M238.5,31a7.09,7.09,0,0,0,1.59-6.27c-.57-1.84-2.71-3.3-4.58-3.78a6.12,6.12,0,0,0-5.67,1.89,3.65,3.65,0,0,0-.68,2.48c0,1.94,3,2.2,4.25,4.92A3.52,3.52,0,0,0,237,32.62Z" fill="#220350"/><path d="M239.25,27.32c.53.95-.36,1.23-.31,2.45s1,1.05.82,1.84-.82,2.18-.51,3,1.22.75,1.14,1.34-1.14,1.57-1.07,2.16-.09,3.1,4.05,3.09c2.46,0,2.4-1.75,2.45-2.81A3.05,3.05,0,0,0,244.51,36c-.39-.44.31-1.21.38-1.92s-1-1.37-1.29-2,.3-1.69.23-2.26-1.26-1.35-1.1-2.44c.38-2.52-2.56-3.22-3.8-2.26S239.25,27.32,239.25,27.32Z" fill="#220350"/><path d="M230.61,27.19s.72-1.92,1.86-.9S232,30,230.3,29.83C230.3,29.83,230.05,27.84,230.61,27.19Z" fill="#9c4345"/><path d="M231.91,27.15a1.66,1.66,0,0,0-.69.45,2,2,0,0,0-.51.65c0,.08.08.13.13.08s.27-.3.41-.45a.85.85,0,0,0,.33.26c.11,0,.18-.09.14-.18a.78.78,0,0,0-.28-.26,4.62,4.62,0,0,0,.55-.41A.08.08,0,0,0,231.91,27.15Z" fill="#753233"/><polygon points="98.39 126.82 103.05 126.94 102.35 115.59 98.06 116.84 98.39 126.82" fill="#7e4183" fill-rule="evenodd"/><polygon points="102.91 125.98 97.71 125.46 97.71 129.06 109.18 129.06 109.18 127.82 102.91 125.98" fill="#220350" fill-rule="evenodd"/><polygon points="113.89 126.82 118.56 126.94 117.86 115.59 113.58 116.84 113.89 126.82" fill="#7e4183" fill-rule="evenodd"/><polygon points="118.42 125.98 113.22 125.46 113.22 129.06 124.69 129.06 124.69 127.82 118.42 125.98" fill="#220350" fill-rule="evenodd"/><path d="M117.7,34.87s3.27-.55,7,17.56l-5.39-.2S116.69,40.35,117.7,34.87Z" fill="#220350"/><path d="M112.76,124.84s-1.05-42.72-1.28-45.09c-.34-3.53-1-4.33-1.45-4.17s-.77.64-1.32,3.68c-.59,3.38-5.07,45.58-5.07,45.58l-6.39.16s.82-23,1.09-28.14c.23-4.24.41-7.83.57-10.87.76-15,1-21.74,1-21.74l19.39.5s.8,11,.8,13.63c0,16.58-.64,46.62-.64,46.62Z" fill="#95899b"/><path d="M96.55,37.16c0,.08.07.17.12.28a50.77,50.77,0,0,1,3,9.79c.34,2.1.19,17,.19,17,7.43,2,19.39.5,19.39.5S119.35,52,118,35.49l-4.82-.72-2.4-.36.63-2.21.89-2.14a7.64,7.64,0,0,1-6.15-1.5A8.35,8.35,0,0,1,106,30c0,.4-1.41,4.6-1.41,4.6a15.64,15.64,0,0,0-1.71.12,16,16,0,0,0-6.16,2,.22.22,0,0,0-.1.09A.38.38,0,0,0,96.55,37.16Z" fill="#ff967f"/><path d="M92.22,73.62s.09,1,.07,2.34-.1,4.17.35,5a2,2,0,0,0,.35.3l.1.06a2.47,2.47,0,0,0,.85.33H94a2.4,2.4,0,0,0,.84,0l.08,0a3.36,3.36,0,0,0,.75-.26,17.71,17.71,0,0,1,.37-3.83s.45,1.74,1,1.88l.37-.11s-.27-1.93-.31-2.8A5.41,5.41,0,0,0,95.28,73S93,72.3,92.22,73.62Z" fill="#ff967f"/><path d="M99.9,44.31c-.28.85-.63,2-1,3.25-1.23,4.09-2.78,9.52-3,11.19s-.25,10-.23,13.27c0,.86,0,1.4,0,1.4-1,1.92-3.34,1.29-3.34,1.29s-.15-.68-.36-1.8c-.61-3.21-1.77-10-1.56-14.22.11-2.12,1.79-9.73,3.38-15.28a27.67,27.67,0,0,1,2.13-5.94A2.9,2.9,0,0,1,98,36.26C101,36,100.91,41.14,99.9,44.31Z" fill="#ea7972"/><path d="M111.9,23.47c.26-.14.76-.17.95.1,0,.05,0,.13-.07.12s-.25-.07-.38-.08a1,1,0,0,0-.41.07A.12.12,0,0,1,111.9,23.47Z" fill="#3b2645"/><path d="M108,23.79c.15-.37.8-.41,1.08-.18a.11.11,0,0,1,0,.18,2.09,2.09,0,0,1-.5,0,1.34,1.34,0,0,0-.4.13C108.07,23.94,108,23.86,108,23.79Z" fill="#3b2645"/><path d="M94.86,81.65l.08,0a28.29,28.29,0,0,1,.09-3.9,0,0,0,0,0,0,0A9.46,9.46,0,0,0,94.86,81.65Z" fill="#753233"/><path d="M93.94,81.66H94a30,30,0,0,1,.09-3.9,0,0,0,0,0,0,0A9.32,9.32,0,0,0,93.94,81.66Z" fill="#753233"/><path d="M93,81.27l.1.06a35.12,35.12,0,0,1,.1-3.69s0,0,0,0A8.93,8.93,0,0,0,93,81.27Z" fill="#753233"/><path d="M111.38,32.2c-4.72,1-5.1-1.45-5.38-2.24a8.35,8.35,0,0,0,.12-1.4,7.64,7.64,0,0,0,6.15,1.5Z" fill="#ea7972"/><path d="M114.21,26.32s.43-5.55-.95-6.26c-3.27-1.69-9.94-.89-9.1,4.19.6,3.63,1.14,2.58,1.14,2.58S113.94,26.78,114.21,26.32Z" fill="#9c4345"/><path d="M113.54,22.3c.54.57.59,1.84.63,3.25.14,4.26-1.14,5.59-3.31,5.83s-4.46-.61-4.92-4.56c-.24-2-.49-3.8.23-4.65C107.24,20.9,111.86,20.56,113.54,22.3Z" fill="#ff967f"/><path d="M111.73,20.65a3.83,3.83,0,0,1-3.58,2.08h-.52v3.49h-1.39v-.76h-.91s-1.24-4.09,2.68-5.13C110.89,19.57,111.73,20.65,111.73,20.65Z" fill="#9c4345"/><path d="M106.24,26.25s-.67-1.76-1.72-.83.4,3.6,2,3.41C106.53,28.83,106.75,26.86,106.24,26.25Z" fill="#ff967f"/><path d="M105,26.23a1.41,1.41,0,0,1,.64.41,1.82,1.82,0,0,1,.47.6c0,.07-.07.11-.12.07a4.83,4.83,0,0,1-.37-.42.93.93,0,0,1-.31.25c-.1,0-.17-.09-.13-.17a.86.86,0,0,1,.26-.24,4,4,0,0,1-.51-.38A.07.07,0,0,1,105,26.23Z" fill="#d66464"/><path d="M104.59,34.56c-4,.17-7.52,1.55-7.87,2.1a.22.22,0,0,0-.1.09l0,.69a50.77,50.77,0,0,1,3,9.79c.34,2.1.19,17,.19,17,7.43,2,19.39.5,19.39.5S119.35,52,118,35.49l-7.22-1.08-2.22,3.15Z" fill="#e8e8e8"/><path d="M111.38,34.22s0,10.59.93,18.51c.13,1.14.28,3,.42,5.1.38,5.6.78,13.42.78,13.42s5.36.36,7.42-.91l-1.66-22.47a85.68,85.68,0,0,1-1-12.62c0-.73-4.09-.78-5.87-1Z" fill="#402678"/><path d="M111.38,34.22s0,10.59.93,18.51c.13,1.14.28,3,.42,5.1l2-18-1.92-1.44,1.92-.54s-1.79-3-2.25-3.59Z" fill="#220350"/><path d="M90.25,63.73c.39,4.61,1.34,9.91,1.34,9.91,4,.45,4.4-.84,4.4-.84s.12-12.91.21-14.35,3.17-11.57,3.17-11.57c.57,1.73-.25,23.22-.25,23.22,2.55,1.07,7.57.66,7.57.66,0-4.93-.12-9.61-.38-13.88a187.56,187.56,0,0,0-2.67-22.67l-1,.23c-1.28.3-3.53.86-5.14,1.41-1.93.68-2.83,3.3-3.57,6.1-.55,2-2.08,7.84-3,12.47-.35,1.69-.62,3.23-.75,4.37A29.18,29.18,0,0,0,90.25,63.73Z" fill="#402678"/><path d="M102.78,38.43l-2.2,1.24,5.73,17.21a187.56,187.56,0,0,0-2.67-22.67l-1,.23-2.07,3.39Z" fill="#220350"/><path d="M125.37,57.44a4.24,4.24,0,0,1-3.54,4s-2.3.33-4.36-2.39c0,0,1.89-.74,2.06-2.14C119.53,56.94,124.88,56,125.37,57.44Z" fill="#220350"/><path d="M117.47,59.08a21.42,21.42,0,0,1-4.71-.71c-1.23-.53-1.38-1-1.38-1h8S119.62,58.44,117.47,59.08Z" fill="#ea7972"/><path d="M110.72,57.36h16.21a1,1,0,0,0,.86-.65l3.53-10.46a.44.44,0,0,0-.42-.64H114.69a1,1,0,0,0-.86.64L110.3,56.71A.45.45,0,0,0,110.72,57.36Z" fill="#dadeea"/><path d="M103,57.36h8.92a.7.7,0,0,0,.69-.7.69.69,0,0,0-.69-.69H103a.69.69,0,0,0-.69.69A.7.7,0,0,0,103,57.36Z" fill="#fff"/><path d="M90.25,63.73a5.15,5.15,0,0,0,2.63-4.65,6.68,6.68,0,0,0-2-4.66c-.35,1.69-.62,3.23-.75,4.37A29.18,29.18,0,0,0,90.25,63.73Z" fill="#220350"/><path d="M121.91,51.48a.76.76,0,0,0-.73-1.1,1.69,1.69,0,0,0-1.48,1.1.77.77,0,0,0,.74,1.11A1.68,1.68,0,0,0,121.91,51.48Z" fill="#fff"/><line x1="271.43" y1="130.48" x2="3.21" y2="130.48" fill="none" stroke="#fff" stroke-miterlimit="10" stroke-width="2"/><circle cx="271.26" cy="130.48" r="3.38" fill="#fff"/><circle cx="3.38" cy="130.48" r="3.38" fill="#fff"/></g></svg>